<svg xmlns="http://www.w3.org/2000/svg" xmlns:xlink="http://www.w3.org/1999/xlink" width="556.06209" height="495.04275" viewBox="0 0 556.06209 495.04275">
  <defs>
    <style>
      .cls-1 {
        fill: none;
      }

      .cls-13, .cls-2, .cls-6 {
        fill: #ffca05;
      }

      .cls-15, .cls-16, .cls-17, .cls-18, .cls-19, .cls-2, .cls-20, .cls-21, .cls-22, .cls-23, .cls-24, .cls-25, .cls-3, .cls-31, .cls-32, .cls-33, .cls-34, .cls-35, .cls-37, .cls-4 {
        fill-rule: evenodd;
      }

      .cls-14, .cls-3, .cls-7 {
        fill: #ea8b00;
      }

      .cls-4, .cls-8 {
        fill: #252124;
      }

      .cls-5 {
        fill: #fff;
        opacity: 0.2;
      }

      .cls-6, .cls-7, .cls-9 {
        opacity: 0.8;
      }

      .cls-10 {
        fill: #b76800;
      }

      .cls-11 {
        clip-path: url(#clip-path);
      }

      .cls-12 {
        clip-path: url(#clip-path-2);
      }

      .cls-15 {
        fill: #d5cb70;
      }

      .cls-16 {
        fill: #aa9641;
      }

      .cls-17 {
        fill: #c2ae45;
      }

      .cls-18 {
        fill: #eae2b8;
      }

      .cls-19 {
        fill: #231f20;
      }

      .cls-20 {
        fill: #a6a8ab;
      }

      .cls-21 {
        fill: #fffbd4;
      }

      .cls-22 {
        fill: #c8c0b8;
      }

      .cls-23 {
        fill: #45403e;
      }

      .cls-24 {
        fill: #383437;
      }

      .cls-25, .cls-30 {
        fill: #919197;
      }

      .cls-26 {
        fill: #5a5457;
      }

      .cls-27 {
        fill: #39363a;
      }

      .cls-28 {
        fill: #423e43;
      }

      .cls-29 {
        fill: #413d41;
      }

      .cls-31 {
        fill: #dfd5b8;
      }

      .cls-32 {
        fill: #928d89;
      }

      .cls-33 {
        fill: #605d59;
      }

      .cls-34 {
        fill: #b1aaa2;
      }

      .cls-35 {
        fill: #716f6e;
      }

      .cls-36 {
        fill: #474543;
      }

      .cls-37 {
        fill: #282727;
      }
    </style>
    <clipPath id="clip-path">
      <path class="cls-1" d="M236.4966,238.8457c6.2232,5.6177,6.7598,16.3501,14.1128,20.3726,2.7876,1.522,6.0738,1.7476,9.24711,1.8867a275.62592,275.62592,0,0,0,91.74019-11.5303,171.05851,171.05851,0,0,0-35.2861,36.1373c-1.64209,2.2773-3.2998,4.664-5.72609,6.0737a19.02111,19.02111,0,0,1-6.49851,1.9375q-21.7017,3.72585-43.4033,7.4565c-11.44,1.9629-51.57719,11.2788-58.6031-2.75-3.8857-7.7632,8.69491-22.0986,12.6797-28.3891Q224.9305,253.97335,236.4966,238.8457Z"/>
    </clipPath>
    <clipPath id="clip-path-2">
      <path class="cls-1" d="M362.3384,338.1026c5.6709,8.5854,9.146,18.396,12.7578,28.0322A803.9281,803.9281,0,0,0,407.96,441.7686c6.3906,12.8603,13.2944,25.7812,23.5586,35.831,10.2612,10.0528,24.5161,16.9717,38.77391,15.2325-13.31831-5.1709-23.73581-16.2139-30.63821-28.7227-6.9047-12.5068-10.6372-26.4863-13.77679-40.4258-2.70021-11.9863-3.98681-24.3291-7.24461-36.1406-3.3379-12.1099-6.2002-24.8779-3.7598-37.4424,2.1997-11.3135,8.5132-21.3813,12.0015-32.3672,1.9458-6.1274,3.0073-12.5249,5.2773-18.5429a82.56642,82.56642,0,0,1,7.9644-15.023,264.5927,264.5927,0,0,1,72.30121-75.125c5.18948-3.5908,10.62408-6.5503,15.73728-10.1919a100.59181,100.59181,0,0,1,10.5069-5.9707c1.6679-.9067,8.5332-5.9111,10.209-5.4311-11.7793-3.3697-24.30718.9297-35.502,5.9101-16.02249,7.1284-31.332,15.7515-46.57179,24.4341-22.3911,12.7559-44.874,25.794-64.0957,42.9619-13.5161,12.0752-27.09669,26.9571-45.17669,28.2085-6.38681.437-13.12061-.8823-18.98541,1.6836a15.6946,15.6946,0,0,0-9.1538,14.6968c.3623,8.1846,6.9199,12.727,13.6074,15.8535A46.428,46.428,0,0,1,362.3384,338.1026Z"/>
    </clipPath>
  </defs>
  <g id="图层_2" data-name="图层 2">
    <g id="Layer_1" data-name="Layer 1">
      <g>
        <g>
          <path class="cls-2" d="M365.3458,464.6055c-3.773.6182-47.53129-25.2256-79.0254-53.5508-16.3496-14.8418-23.1836-36.6714-38.2593-50.3657-17.97459-16.3501-10.4873-18.0806-15.0723-24.874-2.25729-3.1455,8.1655,3.2568,16.8443,4.311,10.8159,1.0664,23.9585,5.0669,31.87641,2.7691,10.26909-2.9219,12.82029-.6275,16.80859-1.1719,12.3286-1.982,9.1362-3.7857,14.3179-1.5445,24.77151,11.0518,17.5029,23.3228,30.60351,45.6216,4.99459,8.3575-.74611,15.4409,3.81589,25.7954,7.0908,15.4932,20.6543,31.5293,23.37011,41.0137C372.7774,460.9541,368.0533,464.3379,365.3458,464.6055Z"/>
          <path class="cls-3" d="M369.9214,452.4844c-2.7172-9.4863-16.2797-25.5224-23.3715-41.0156-4.5586-10.3516,1.17961-17.4341-3.815-25.794-13.0996-22.2978-5.8315-34.5693-30.603-45.6206-4.44-1.9218-2.7368-.8696-9.9243.7168,6.705,8.6968,6.1245,19.2657,15.0962,34.5435,4.9965,8.3574-.7427,15.4399,3.8164,25.7939,7.0918,15.4922,20.6538,31.5284,23.3706,41.0127,1.44871,5.6172-.2188,8.9766-2.2886,10.6602,12.0171,7.4433,20.8374,11.9619,22.4414,11.6982C367.3482,464.2139,372.0733,460.8282,369.9214,452.4844Z"/>
          <g>
            <path class="cls-4" d="M332.4249,436.9805c-11.2671-8.1123-19.751-17.4258-25.542-24.1533a234.48383,234.48383,0,0,0,26.40961,22.3115,292.24159,292.24159,0,0,0,30.48639,18.707C355.4761,450.3057,343.9043,445.1758,332.4249,436.9805Z"/>
            <path class="cls-4" d="M310.0001,426.0176c-15.3594-13.5586-25.58159-28.9282-33.5567-39.7319,9.4712,10.5991,21.55711,23.9907,35.9214,36.9682,13.8735,12.337,27.7681,21.8243,38.4673,29.5098C340.0479,446.7149,325.3594,439.5713,310.0001,426.0176Z"/>
            <path class="cls-4" d="M302.0562,355.7701a180.26181,180.26181,0,0,1-26.4463-5.438c6.6152.8247,14.4448.875,24.9033,2.2973,10.5254,1.21,18.2017,3.1075,25.2437,4.0796A143.66523,143.66523,0,0,1,302.0562,355.7701Z"/>
            <path class="cls-4" d="M301.4463,351.2823c-10.1753-.8482-16.0683-3.0933-21.5434-4.4815,5.5513.4629,12.0972.7886,19.99661,1.3394,8.32469.6938,15.437,1.4526,20.98819,1.9175C316.18851,350.5957,311.4053,352.0581,301.4463,351.2823Z"/>
            <path class="cls-4" d="M331.459,432.1377a147.64947,147.64947,0,0,1-24.1997-22.5127c6.5103,6.0205,14.6455,13.5508,24.4258,20.4473,9.1416,6.6797,18.6489,11.585,25.9575,15.2627C350.7559,442.5147,341.379,439.3233,331.459,432.1377Z"/>
            <path class="cls-4" d="M330.3594,426.292c-9.4936-7.04-17.7636-16.2754-23.4897-22.5078a266.95366,266.95366,0,0,0,23.15181,19.3028,244.324,244.324,0,0,0,24.74759,15.3261C348.2374,435.9463,340.1382,433.1895,330.3594,426.292Z"/>
            <path class="cls-4" d="M325.6368,408.0362c-6.2344-4.7408-2.9756-2.4405-6.6602-4.8853,3.3941,3.2984,5.6611,5.02,12.0371,10.0474,7.6489,6.1709,14.8716,11.4844,20.8999,15.4385a162.93388,162.93388,0,0,1-21.834-14.0909c-8.7802-7.0371-16.55509-15.6333-24.5493-23.5854,5.5957,4.5229,12.7486,10.0478,20.7559,15.8677,8.0791,5.6084,15.7358,10.3554,21.9082,13.8877C342.23251,417.9688,331.6587,412.7012,325.6368,408.0362Z"/>
            <path class="cls-4" d="M330.6763,421.1661c-8.644-6.0333-15.2915-13.0518-20.02979-17.9976A221.31735,221.31735,0,0,0,331.3287,419.251a241.66615,241.66615,0,0,0,21.8344,14.0957A104.71316,104.71316,0,0,1,330.6763,421.1661Z"/>
            <path class="cls-4" d="M318.8736,397.1719c-9.7149-6.3989-17.1304-15.3467-22.5737-21.0073,6.1601,4.9521,13.95361,10.7012,22.8129,16.8076,8.9322,5.897,17.15871,11.0757,23.7544,14.7485C336.689,405.6143,328.5079,403.7832,318.8736,397.1719Z"/>
            <path class="cls-4" d="M322.7544,391.3589c-7.0175-4.5278-12.101-11.2568-15.8447-15.6235,4.32081,3.375,10.062,7.4692,16.5127,11.5693a171.73935,171.73935,0,0,0,17.5928,9.7989C336.1094,396.1431,329.8458,395.6783,322.7544,391.3589Z"/>
            <path class="cls-4" d="M321.9644,381.8145c-6.5976-3.6753-11.4062-9.1162-14.8691-12.9141a158.80385,158.80385,0,0,0,15.3149,9.5,149.12893,149.12893,0,0,0,16.2568,7.439C334.3272,385.3125,328.41951,385.2012,321.9644,381.8145Z"/>
            <path class="cls-4" d="M317.89651,372.105c-6.249-2.6025-11.48341-7.4785-15.167-10.6338a142.48527,142.48527,0,0,0,14.90339,7.2154,99.457,99.457,0,0,0,15.5581,5.2998C329.1294,374.0308,324.1451,374.709,317.89651,372.105Z"/>
            <path class="cls-4" d="M317.3614,366.6895c-5.6123-1.6699-9.9995-5.5444-13.1875-8.0571,3.4082,1.1611,8.0337,1.5483,13.0088,3.0039,5.6142,1.6753,10.3706,3.769,14.27681,4.8637C327.7554,366.9024,323.0459,368.1534,317.3614,366.6895Z"/>
          </g>
          <path class="cls-5" d="M310.0074,392.4092c1.4082-9.9033,39.5263,18.3486,43.0508,39.5986C356.5743,453.251,308.275,404.5684,310.0074,392.4092Z"/>
          <path class="cls-5" d="M290.066,381.9854c1.8911-13.2905,53.0639,24.6348,57.7929,53.1592C352.58751,463.667,287.7413,398.3106,290.066,381.9854Z"/>
        </g>
        <g>
          <path class="cls-2" d="M232.2383,429.4561c1.26421-1.0869,8.3243-24.2075,11.1587-43.9443,1.43951-10.2911-1.5669-19.5723-.2407-29.0616,1.57421-11.3242-1.0532-9.33-1.25679-13.0532-.05471-1.771-1.67731,3.8135-4.01961,7.1016-2.9726,4.0195-5.9619,9.7632-8.8481,11.7236-3.7319,2.5635-3.9619,4.1621-5.2734,5.3438-4.1294,3.562-3.5948,1.9013-4.6192,4.3774-4.8232,11.9463.1748,13.3843,1.4234,24.9487.4438,4.3604,3.7885,4.6641,4.8212,9.5171,1.4659,7.3477,1.1299,17.0713,2.5122,21.0195C229.1836,430.8164,231.3697,430.2901,232.2383,429.4561Z"/>
          <path class="cls-3" d="M228.0757,427.1504c-1.3798-3.9482-1.0459-13.6728-2.51219-21.0219-1.03271-4.8501-4.37551-5.1548-4.82031-9.5171-1.25-11.5625-6.2461-13.0015-1.4233-24.9458.8779-2.1245.6128-1.2095,3.11961-3.1465.01169,5.0512,2.62549,8.2192,3.48189,16.1401.4424,4.3633,3.7862,4.668,4.8194,9.5181,1.4663,7.3491,1.1328,17.0718,2.5136,21.018.8658,2.2823,2.1382,2.7852,3.14311,2.6192-1.86081,6.4609-3.44141,10.9014-3.979,11.3603C231.5513,430.0108,229.3624,430.5381,228.0757,427.1504Z"/>
          <g>
            <path class="cls-4" d="M235.6592,409.4541a88.40756,88.40756,0,0,0,2.0259-16.3828,142.41094,142.41094,0,0,1-2.7095,16.0908c-1.5034,6.2784-3.24509,11.917-4.7548,16.3282A100.15249,100.15249,0,0,0,235.6592,409.4541Z"/>
            <path class="cls-4" d="M239.8033,398.3345c1.4414-9.5449.9355-17.9199.8149-24.0752-.3721,6.5982-.8779,14.9776-2.1572,23.9981-1.2813,8.6499-3.2261,16.3969-4.6362,22.4868C235.6382,415.1475,238.3604,407.876,239.8033,398.3345Z"/>
            <path class="cls-4" d="M225.9473,373.2447a106.01624,106.01624,0,0,0,6.61821-10.7266c-1.78081,2.5127-4.09871,5.1919-6.88481,9.2036-2.853,3.9639-4.69919,7.1778-6.5723,9.8848A78.11386,78.11386,0,0,0,225.9473,373.2447Z"/>
            <path class="cls-4" d="M225.0933,371.6075a62.52665,62.52665,0,0,0,5.3779-8.7549c-1.5459,2.0361-3.4199,4.3657-5.6435,7.228-2.3174,3.0532-4.2593,5.7148-5.8057,7.7505A37.88745,37.88745,0,0,0,225.0933,371.6075Z"/>
            <path class="cls-4" d="M234.8287,407.5811a88.147,88.147,0,0,0,2.00481-15.4014,142.86529,142.86529,0,0,1-2.54931,14.8213,112.43437,112.43437,0,0,1-4.2026,13.6924A69.43609,69.43609,0,0,0,234.8287,407.5811Z"/>
            <path class="cls-4" d="M233.8052,405.3457a103.2337,103.2337,0,0,0,1.7959-15.1626c-.5254,3.9014-1.2568,8.7886-2.435,14.0259-1.2022,5.0996-2.6172,9.6934-3.8282,13.3008A59.81775,59.81775,0,0,0,233.8052,405.3457Z"/>
            <path class="cls-4" d="M230.9957,397.9209a36.9285,36.9285,0,0,1,.8549-3.8208c-.2485,2.2041-.5263,3.5249-1.2627,7.2959-.852,4.5669-1.7749,8.7144-2.6567,12.0288a101.08265,101.08265,0,0,0,3.2456-11.9179c.9883-5.2295,1.3193-10.6128,1.8613-15.8648-.6201,3.3433-1.47359,7.5366-2.5141,12.1157-1.1099,4.5342-2.29349,8.6514-3.314,11.876A84.28937,84.28937,0,0,0,230.9957,397.9209Z"/>
            <path class="cls-4" d="M232.5279,403.8194a80.19287,80.19287,0,0,0,1.80761-12.5469c-.50441,3.291-1.28661,7.5303-2.44431,12.1582-1.0406,4.5801-2.22269,8.6924-3.24369,11.917A65.05293,65.05293,0,0,0,232.5279,403.8194Z"/>
            <path class="cls-4" d="M230.50151,392.1578c1.41459-5.3418,1.55569-10.7154,1.86719-14.3677-.6885,3.6694-1.6821,8.1538-2.90819,13.1137-1.29691,4.9161-2.55131,9.3643-3.666,12.7774A50.90365,50.90365,0,0,0,230.50151,392.1578Z"/>
            <path class="cls-4" d="M228.003,391.6275a44.63536,44.63536,0,0,0,1.1098-10.3682c-.5078,2.5444-1.2695,5.8027-2.2446,9.3037-.9736,3.4986-2.0195,6.585-2.9736,9.104A28.7289,28.7289,0,0,0,228.003,391.6275Z"/>
            <path class="cls-4" d="M226.0347,388.315a36.22835,36.22835,0,0,0,1.44481-9.1709c-.55611,2.27-1.31931,5.1513-2.36471,8.2358-1.0474,3.085-2.167,5.752-3.1226,7.9014A25.31123,25.31123,0,0,0,226.0347,388.315Z"/>
            <path class="cls-4" d="M225.004,383.8374a36.50677,36.50677,0,0,0,2.05951-8.5449c-.65041,2.085-1.65281,4.7017-2.77,7.3682a60.27672,60.27672,0,0,1-3.40771,6.979A18.828,18.828,0,0,0,225.004,383.8374Z"/>
            <path class="cls-4" d="M223.9131,381.9312a24.88355,24.88355,0,0,0,2.064-7.0523c-.7461,1.5284-2.0337,3.2256-3.1777,5.3809-1.2837,2.4434-2.2168,4.7295-3.127,6.4058A18.35034,18.35034,0,0,0,223.9131,381.9312Z"/>
          </g>
          <path class="cls-5" d="M232.0411,387.626c-2.70559-2.6763-7.5298,19.291-3.6719,27.2608C232.2266,422.8516,235.3648,390.9112,232.0411,387.626Z"/>
          <path class="cls-5" d="M235.5699,377.5245c-3.6333-3.5938-10.1079,25.8964-4.9297,36.5937C235.8194,424.8155,240.0308,381.9356,235.5699,377.5245Z"/>
        </g>
        <g>
          <path class="cls-6" d="M78.28371,333.149S30.981,49.3692,285.0376,1.0161c0,0-36.435,29.3667-46.4384,60.0596-10.0059,30.6948-27.2281,59.6338-18.6358,87.2002,8.5904,27.5674-12.1533,80.1651-25.9223,103.4194-13.76859,23.2549-10.9234,38.4942,13.4023,28.7222,0,0-40.0571,47.1441-101.25879,57.5298C106.18461,337.9473,84.22121,330.1714,78.28371,333.149Z"/>
          <g>
            <path class="cls-7" d="M207.4424,280.4175c-.1826.0742-.3515.1319-.5327.2012-.0444.1836-.0884.373-.1328.5552C207.2007,280.6983,207.4424,280.4175,207.4424,280.4175Z"/>
            <path class="cls-7" d="M78.28281,333.1504c2.4448-1.2265,7.6035-.6289,12.8286.4966C74.57921,248.2803,73.07521,98.92,236.9927,27.4424c0,0-29.03319,36.7017-31.9995,68.8477-2.9639,32.1465-13.3559,64.1797,1.1221,89.1621,3.623,6.251,5.8008,14.4375,6.9018,23.6011,7.3033-21.7178,11.7911-45.2286,6.9449-60.7774-8.5909-27.5664,8.6313-56.5054,18.6357-87.1987,10.0049-30.6944,46.4399-60.0611,46.4399-60.0611C30.981,49.3692,78.28281,333.1504,78.28281,333.1504Z"/>
          </g>
          <path class="cls-8" d="M82.73931,332.4527S80.00491,63.5723,252.89751,22.396c0,0-43.94381,10.334-79.73831,46.3955,0,0,40.2271-29.8173,68.94831-28.6377,0,0-32.20121,1.9878-76.15531,36.5894,0,0-85.66109,103.8726-79.23239,256.1011Z"/>
          <path class="cls-8" d="M97.80911,340.1407S93.95371,98.5484,236.9073,62.5767c0,0-36.3355,9.0244-65.7681,41.2119,0,0,33.1416-26.5527,56.937-25.3213,0,0-26.6596,1.5952-62.8589,32.4248,0,0-70.333,92.8159-64.10929,229.6245Z"/>
          <path class="cls-8" d="M109.003,339.2808s-3.2481-201.8906,115.98039-231.9316c0,0-30.3037,7.5361-54.8491,34.4321,0,0,27.63921-22.186,47.4864-21.1533,0,0-22.2344,1.3286-52.4248,27.0874,0,0-58.65039,77.5532-53.441,191.8799Z"/>
          <path class="cls-8" d="M111.24661,339.7954s-.4507-168.4365,119.05569-195.1567c0,0-30.3726,6.7095-55.2612,29.4946,0,0,27.914-18.8979,47.7231-18.312,0,0-22.2266,1.4175-52.7392,23.3316,0,0-59.65529,65.5307-56.0342,160.8662Z"/>
          <path class="cls-8" d="M120.9561,336.4541s.439-134.2807,102.7822-156.1679c0,0-26.0117,5.498-47.4096,23.7827,0,0,23.9672-15.2007,40.9077-14.8311,0,0-19.0181,1.2393-45.2217,18.8589,0,0-51.3433,52.5352-48.7119,128.522Z"/>
          <path class="cls-8" d="M132.126,332.2466s.9151-99.2602,81.794-115.8711c0,0-20.5547,4.1729-37.523,17.7803,0,0,18.9829-11.3374,32.35451-11.1362,0,0-15.01851.9965-35.77681,14.1308,0,0-40.7539,39.0508-38.9971,95.2085Z"/>
          <path class="cls-8" d="M141.9576,327.232s11.9433-52.0513,45.5-61.6504c0,0-33.0796,3.1943-48.4478,62.8906Z"/>
          <path class="cls-8" d="M158.1959,319.2242s11.144-32.0708,32.8657-36.3609c0,0-19.20409-1.5122-35.6929,37.9024Z"/>
          <g class="cls-9">
            <path class="cls-10" d="M78.483,335.2144l-.7788-1.9688c-.1187-.7109-11.6182-71.9492,8.1167-148.1772C97.418,140.2715,117.3702,102.5362,145.1236,72.9087,179.8174,35.875,226.85451,11.4922,284.9283.439L287.2344,0l-1.8276,1.4732c-.36329.2925-36.416,29.6133-46.249,59.7846-2.3872,7.3208-5.208,14.6075-7.937,21.6524-8.836,22.8232-17.1836,44.3818-10.6968,65.1909,9.1684,29.4209-14.001,83.6646-25.9776,103.8931-6.7656,11.4272-9.5073,21.0093-7.52189,26.2871a6.49026,6.49026,0,0,0,4.25089,4.0386c3.60111,1.1806,8.9673.3564,15.9493-2.4473l2.2046-.8867-1.5386,1.8115c-.4014.4731-40.8989,47.4263-101.60739,57.7295l-.1509.0249-.1441-.0503c-.0034-.001-.7861-.2783-2.0942-.7075-4.7607-1.5596-20.1543-5.9605-24.8423-3.6089ZM282.9234,2.0235C153.66751,27.5176,105.01131,115.6592,86.96681,185.3267c-18.6171,71.8774-9.372,139.312-8.2158,147.0024,5.5601-1.7866,19.5503,2.3955,25.5093,4.3487.9946.3261,1.6899.5669,1.9751.6645,53.42919-9.126,91.06789-46.8139,99.14259-55.5122-10.4727,3.7388-17.3086,2.5679-19.4531-3.1352-2.1421-5.6963.561-15.3907,7.6098-27.2984,13.23981-22.3594,34.4175-75.5097,25.8687-102.9458-6.6094-21.2012,1.81-42.9438,10.72211-65.9634,2.72369-7.0322,5.53859-14.3027,7.91459-21.5932C246.7222,34.2574,275.5152,8.3609,282.9234,2.0235Z"/>
          </g>
        </g>
        <g class="cls-11">
          <path class="cls-8" d="M236.4966,238.8457c6.2232,5.6177,6.7598,16.3501,14.1128,20.3726,2.7876,1.522,6.0738,1.7476,9.24711,1.8867a275.62592,275.62592,0,0,0,91.74019-11.5303,171.05851,171.05851,0,0,0-35.2861,36.1373c-1.64209,2.2773-3.2998,4.664-5.72609,6.0737a19.02111,19.02111,0,0,1-6.49851,1.9375q-21.7017,3.72585-43.4033,7.4565c-11.44,1.9629-51.57719,11.2788-58.6031-2.75-3.8857-7.7632,8.69491-22.0986,12.6797-28.3891Q224.9305,253.97335,236.4966,238.8457Z"/>
          <g>
            <path class="cls-2" d="M219.1763,298.1851c-.1826,17.4062,5.2779,31.8481,9.5239,42.3574a177.06674,177.06674,0,0,1-5.09569-43.0068c-.01021-16.4878,3.10649-31.978,6.02149-44.291C225.29551,264.8033,219.35651,280.7764,219.1763,298.1851Z"/>
            <path class="cls-2" d="M226.586,296.6626c-.4478,17.3907,4.73051,32.0811,8.6968,42.8399a186.66736,186.66736,0,0,1-4.4429-42.8325c.5547-16.9859,4.0942-32.8492,7.1665-45.5489C233.2706,262.7857,227.19,278.8868,226.586,296.6626Z"/>
            <path class="cls-2" d="M211.1617,298.7354c-.1704,15.1465,5.6616,30.0141,9.6797,39.977-2.6602-10.4082-5.81989-23.3754-5.543-38.1171.3667-14.0704,3.8433-26.8785,6.7646-37.1968C217.6377,272.2915,211.5972,283.606,211.1617,298.7354Z"/>
            <path class="cls-2" d="M233.81551,293.8008c-.32861,15.5362,4.46039,30.0708,8.07219,40.1402-2.2373-10.7808-4.832-24.2432-4.416-39.107.5269-14.4609,4.0367-27.7973,6.9746-38.3813C240.2544,265.8902,234.4083,278.2813,233.81551,293.8008Z"/>
            <path class="cls-2" d="M242.12751,292.7364c-1.353,14.938,3.15179,29.7202,6.11229,39.6152-1.2124-10.1826-2.5186-23.0308-1.3394-37.3149,1.1622-14.021,4.6407-26.8296,7.6822-37.0054C250.0337,266.7828,243.3404,277.9219,242.12751,292.7364Z"/>
            <path class="cls-2" d="M250.73051,295.4126c-1.23341,13.086,1.46239,24.9605,3.606,33.0757a185.35424,185.35424,0,0,1,.49119-32.6802,220.95789,220.95789,0,0,1,5.7002-33.0083C256.8106,271.0708,251.9834,282.0645,250.73051,295.4126Z"/>
            <path class="cls-2" d="M258.9083,296.4683c-1.292,11.8848.7304,21.8545,2.394,29.1387a178.96041,178.96041,0,0,1,.6777-29.3423,183.18189,183.18189,0,0,1,5.3379-29.4434C264.0386,274.4576,260.0596,284.709,258.9083,296.4683Z"/>
            <path class="cls-2" d="M266.0757,296.6602c-1.9096,11.1792-.9301,20.8159-.0459,27.7856.47271-7.4145,1.753-17.0376,3.4912-27.5669,1.876-10.6484,3.7017-20.5048,6.06251-28.331C272.1978,275.7774,267.9869,285.48,266.0757,296.6602Z"/>
            <path class="cls-2" d="M272.962,297.1011a92.2118,92.2118,0,0,0-.9698,25.5977c.5806-7.0064,2.1978-15.6807,4.148-25.3955a237.40932,237.40932,0,0,1,6.30131-25.7915C279.3692,277.9654,275.211,286.8721,272.962,297.1011Z"/>
            <path class="cls-2" d="M280.1978,296.2349a94.45,94.45,0,0,0-2.7407,24.1567c1.0771-6.4467,2.9433-14.8369,5.2456-23.8632,2.4477-9.1524,4.8452-17.5083,7.2627-24.1358C286.7867,278.4366,282.6597,286.8189,280.1978,296.2349Z"/>
            <path class="cls-2" d="M287.16951,295.3482a90.55012,90.55012,0,0,0-4.49371,22.4516c1.4473-6.0234,4.0581-13.5712,6.9829-21.8916,3.066-8.4482,5.9595-16.2412,8.731-22.1816A101.344,101.344,0,0,0,287.16951,295.3482Z"/>
            <path class="cls-2" d="M293.1524,295.333a87.33113,87.33113,0,0,0-5.5176,21.8526c1.7139-6.0088,4.5703-13.271,7.7442-21.3115,3.3144-8.1661,6.5776-15.5357,9.4751-21.3355A121.04169,121.04169,0,0,0,293.1524,295.333Z"/>
            <path class="cls-2" d="M299.1358,295.316c-3.8257,7.8671-4.8452,15.5131-5.854,20.8999a188.52348,188.52348,0,0,1,7.8574-18.9112,191.21835,191.21835,0,0,1,11.4902-19.6084C308.7569,282.105,303.106,287.3262,299.1358,295.316Z"/>
            <path class="cls-2" d="M306.2544,296.3018a89.09865,89.09865,0,0,0-6.0805,16.1016c1.9985-4.2613,4.9678-9.1246,8.0259-15.313,3.1948-6.3101,5.2612-11.628,7.5468-16.1363A105.78711,105.78711,0,0,0,306.2544,296.3018Z"/>
          </g>
        </g>
        <g class="cls-12">
          <path class="cls-13" d="M362.3384,338.1026c5.6709,8.5854,9.146,18.396,12.7578,28.0322A803.9281,803.9281,0,0,0,407.96,441.7686c6.3906,12.8603,13.2944,25.7812,23.5586,35.831,10.2612,10.0528,24.5161,16.9717,38.77391,15.2325-13.31831-5.1709-23.73581-16.2139-30.63821-28.7227-6.9047-12.5068-10.6372-26.4863-13.77679-40.4258-2.70021-11.9863-3.98681-24.3291-7.24461-36.1406-3.3379-12.1099-6.2002-24.8779-3.7598-37.4424,2.1997-11.3135,8.5132-21.3813,12.0015-32.3672,1.9458-6.1274,3.0073-12.5249,5.2773-18.5429a82.56642,82.56642,0,0,1,7.9644-15.023,264.5927,264.5927,0,0,1,72.30121-75.125c5.18948-3.5908,10.62408-6.5503,15.73728-10.1919a100.59181,100.59181,0,0,1,10.5069-5.9707c1.6679-.9067,8.5332-5.9111,10.209-5.4311-11.7793-3.3697-24.30718.9297-35.502,5.9101-16.02249,7.1284-31.332,15.7515-46.57179,24.4341-22.3911,12.7564-44.874,25.794-64.0957,42.9619-13.5161,12.0752-27.09669,26.9571-45.17669,28.2085-6.38681.437-13.12061-.8823-18.98541,1.6836a15.6946,15.6946,0,0,0-9.1538,14.6968c.3623,8.1846,6.9199,12.727,13.6074,15.8535A46.428,46.428,0,0,1,362.3384,338.1026Z"/>
          <path class="cls-14" d="M396.8262,260.9283s107.8531-94.1304,159.23589-74.5972c0,0-44.5557,21.9717-75.17389,48.5439,0,0,20.4405-27.31,31.54979-32.3003,0,0-42.87939,22.2295-60.71769,43.9278,0,0,7.96821-17.5401,16.9795-25.8184C468.6998,220.6841,408.2232,259.5088,396.8262,260.9283Z"/>
          <path class="cls-14" d="M372.5572,357.8448s40.355,151.5888,99.1211,136.0849c0,0-26.2295-14.2334-34.4175-36.3847,0,0,3.2759,14.8857,7.7031,21.4873a113.46493,113.46493,0,0,1-19.6006-45.7705s-3.0156,16.1074-.25879,22.7802c0,0-18.06691-23.4336-15.44621-43.997,0,0-4.8584,6.0263-4.4961,16.8603C405.1622,428.9053,379.27451,377.3379,372.5572,357.8448Z"/>
          <path class="cls-8" d="M349.9639,316.3213c-2.4936,2.4947-.6675,6.6968,1.249,9.6573q8.12342,12.55215,16.2442,25.101c7.27441,11.2412,2.6445,10.3999,19.4531,24.1802a4.53655,4.53655,0,0,0,2.0405,1.1279c2.4576.4048,3.7583-2.812,3.94781-5.291a50.33765,50.33765,0,0,0-3.751-23.1777c-2.54441-6.0635-6.36911-12.063-5.77681-18.6118.643-7.0904,6.4506-13.3872,5.414-20.4322-.44819-3.08-2.2095-5.9565-2.0644-9.0659.2905-6.1894,7.3921-9.3896,11.0566-14.3823,2.3677-3.2212,3.2832-7.2515,4.14361-11.1528a4.36631,4.36631,0,0,0-.02741-2.8721,3.46236,3.46236,0,0,0-1.6753-1.4439c-4.6191-2.227-10.042.0694-14.6357,2.3418-9.6719,4.7832-19.4688,9.6529-27.5557,16.794a6.41935,6.41935,0,0,0-2.2348,3.0293,5.75748,5.75748,0,0,0,.2392,2.9433c1.26271,4.3858-3.9731,8.9419-5.667,13.5821C348.481,313.7989,353.3648,312.9185,349.9639,316.3213Z"/>
          <path class="cls-8" d="M374.46051,277.9893s76.44779-49.5718,109.73389-60.9131c0,0-69.1528,34.5923-90.2842,55.2681Z"/>
          <path class="cls-8" d="M397.0411,273.6797s55.4619-36.8286,72.2226-40.2822c0,0-61.3008,33.3569-72.9541,42.5142Z"/>
          <path class="cls-8" d="M375.4512,357.753s25.6035,70.1914,40.9219,88.8095c0,0-29.7427-56.3056-33.5845-82.2841Z"/>
          <path class="cls-8" d="M389.54251,371.9522s14.49419,39.668,22.07819,52.3496l-21.438-54.3032Z"/>
          <path class="cls-8" d="M393.0001,275.7207s33.3212-17.3291,53.25-12.6723c0,0-30.9722,1.8164-55.8438,17.6113Z"/>
          <path class="cls-8" d="M387.356,361.6563s19.54351,36.687,28.1704,45.0786l-25.4072-45.7173Z"/>
          <g>
            <path class="cls-4" d="M398.7046,299.1993a105.78069,105.78069,0,0,0-34.3349-3.6944,200.73879,200.73879,0,0,1,32.8501,6.8369,214.40062,214.40062,0,0,1,32.28071,11.794C421.9327,309.083,411.58351,302.8169,398.7046,299.1993Z"/>
            <path class="cls-4" d="M395.1592,290.6919a105.81962,105.81962,0,0,0-34.334-3.6948,200.843,200.843,0,0,1,32.8487,6.8379,214.59644,214.59644,0,0,1,32.2822,11.7935C418.3858,300.5762,408.0386,294.3101,395.1592,290.6919Z"/>
            <path class="cls-4" d="M398.7881,284.7608a105.82027,105.82027,0,0,0-34.52-.9527,200.85445,200.85445,0,0,1,33.2881,4.2022,214.612,214.612,0,0,1,33.1172,9.1899C422.7271,292.7647,411.9141,287.3418,398.7881,284.7608Z"/>
            <path class="cls-4" d="M414.3946,272.9024a105.84315,105.84315,0,0,0-32.7012,11.0962,200.87053,200.87053,0,0,1,32.6758-7.6206,214.379,214.379,0,0,1,34.2485-2.8833C439.62551,272.0948,427.6001,270.7647,414.3946,272.9024Z"/>
            <path class="cls-4" d="M409.4566,280.1773a105.86931,105.86931,0,0,0-34.3164,3.8696,200.65409,200.65409,0,0,1,33.5478-.4785,214.39166,214.39166,0,0,1,34.0777,4.4839C434.2779,284.7676,422.813,280.9053,409.4566,280.1773Z"/>
            <path class="cls-4" d="M388.9693,315.5181c-11.2046-4.5806-21.2256-8.6211-27.1094-13.2734a70.25949,70.25949,0,0,0,27.7764,10.7705c10.643,1.6738,20.4741,4.4433,29.3745,11.8994C410.5528,323.9556,400.2154,319.9624,388.9693,315.5181Z"/>
            <path class="cls-4" d="M391.1617,308.8267c-11.7408-2.9414-22.209-5.6177-28.6338-9.5405,7.3325,3.4643,10.9321,5.3999,22.7969,5.6606,10.8193.2188,24.6235,7.4663,35.5542,11.9585C412.3824,316.9932,402.9029,311.7681,391.1617,308.8267Z"/>
            <path class="cls-4" d="M392.003,348.9161c3.0561,2.7822,7.0898,6.9921,10.3496,9.3833,13.4975,9.9028,26.835,16.2758,33.7305,17.5527-9.6045-3.2149-24.4107-15.9273-40.8003-27.916-17.6714-13.0513-31.5137-21.9405-34.1665-28.335C361.1768,324.9561,377.7066,335.8868,392.003,348.9161Z"/>
            <path class="cls-4" d="M390.3169,322.0108c-10.9311-4.9453-20.7265-9.6695-26.3867-14.5503,6.6148,4.7402,16.3516,7.3276,26.8741,12.1377,10.5239,4.812,20.1005,11.1274,28.6103,13.3135C411.2706,331.4512,401.2056,327.0933,390.3169,322.0108Z"/>
            <path class="cls-4" d="M393.8409,336.1729c-13.4483-8.3408-18.4756-13.7715-25.375-21.3257,8.1284,7.5044,17.5581,12.4102,30.5063,20.4365,12.813,7.9824,26.9029,17.5933,37.5142,21.6763C426.2437,354.0572,407.1998,344.3345,393.8409,336.1729Z"/>
            <path class="cls-4" d="M393.4278,358.1026a74.21486,74.21486,0,0,1-15.5679-18.895c4.896,6.5415,11.0864,11.3696,19.4131,18.9379,8.2344,7.5152,17.1787,16.3863,24.3384,20.7764C414.5606,375.4385,402.0347,365.8228,393.4278,358.1026Z"/>
            <path class="cls-4" d="M398.0279,368.7588a74.27046,74.27046,0,0,1-14.1778-19.9594c4.4166,6.8745,10.2461,12.1333,18.0103,20.2788,7.6748,8.0859,15.9609,17.5732,22.7876,22.4643C417.8658,387.566,406.0591,377.0757,398.0279,368.7588Z"/>
            <path class="cls-4" d="M395.9473,330.209c-10.6142-5.4458-20.1391-10.5351-25.6211-15.9629,6.481,5.1494,15.3594,8.9693,25.5225,14.4185,10.208,5.3125,20.1914,11.3071,28.4746,13.7207C416.2696,340.6529,406.5206,335.793,395.9473,330.209Z"/>
            <path class="cls-4" d="M377.5806,328.5069c2.4263,1.8012,5.0195,3.769,7.916,5.8364l-.0986-.0322.0986.0322a181.05736,181.05736,0,0,0,15.5244,9.8926,224.30488,224.30488,0,0,0,27.2554,12.957c-6.4892-2.0156-14.5537-3.6543-23.1333-7.8076,1.0088.6665,1.9195,1.2983,2.96241,1.8647a212.69727,212.69727,0,0,0,26.48879,14.2691c-7.1963-2.5821-16.5059-4.8511-26.1372-10.9146C397.481,347.5425,387.3243,337.2876,377.5806,328.5069Z"/>
          </g>
        </g>
        <path class="cls-4" d="M4.21881,416.0479S32.73931,271.5454,361.4376,288.3682l-9.18409,38.6226S258.3619,337.9068,200.563,365.9239C142.7637,393.941,96.97711,433.1465,52.65581,440.1221c0,0-24.5137-3.1787-31.0737-10.1875-6.5581-7.0137-17.1626-10.9668-16.9185-13.7412"/>
        <g>
          <path class="cls-15" d="M53.48741,382.4927c-7.4571-4.4849-17.6358-1.4477-22.4214,6.9326-4.9419,8.0699-2.5137,18.5581,5.2475,22.8863,7.4561,4.4843,17.6333,1.4453,22.4199-6.9302C63.67341,397.3116,61.24761,386.8223,53.48741,382.4927Z"/>
          <path class="cls-16" d="M29.70021,392.0357c-2.7978,7.7534-.2255,16.2485,6.6133,20.2759,6.6099,3.9521,15.4141,1.9921,20.7471-4.1661a31.17892,31.17892,0,0,1-15.96-4.2119A28.16346,28.16346,0,0,1,29.70021,392.0357Z"/>
          <path class="cls-17" d="M53.48741,382.4927c-.1558-.3057-.6172-.456-.8487-.5322,6.6157,4.7182,8.7334,14.5967,4.1714,22.2803-4.6343,7.9174-14.0434,10.9516-21.5723,7.4624a10.842,10.842,0,0,0,1.0757.6084c7.4561,4.4843,17.6333,1.4453,22.4199-6.9302C63.67341,397.3116,61.24761,386.8223,53.48741,382.4927Z"/>
          <path class="cls-18" d="M49.80721,382.0489c-.1563-.3028-.6187-.4541-1.0791-.6055,12.5346,8.4434-1.4522,31.6543-14.6641,25.2847.4605.1518.6143.4546,1.0757.6069,7.6855,4.5586,17.3311,2.3682,21.3579-4.4702C60.60161,395.7906,57.56651,386.3804,49.80721,382.0489Z"/>
          <path class="cls-19" d="M48.688,388.5718c-3.1523-2.0552-7.7436-.5019-9.9472,3.1133-2.2041,3.6133-1.1865,8.2827,2.2734,10.1792,3.1524,2.0552,7.7427.4985,9.9463-3.1128C52.93561,395.062,52.147,390.4683,48.688,388.5718Z"/>
          <path class="cls-20" d="M50.32231,393.6958c-.8447-.5332-2.2983.0132-3.0566,1.5474-.6831,1.3062-.6768,2.8398.1694,3.3726,1.0757.6084,2.3735-.2408,3.0576-1.5484C51.40631,395.8374,51.169,394.2271,50.32231,393.6958Z"/>
          <path class="cls-21" d="M53.18711,384.1802c-.9209-.3017-2.0352,6.9859-.1123,8.1235C57.14651,394.6592,55.95461,385.8536,53.18711,384.1802Z"/>
        </g>
        <path class="cls-22" d="M52.65581,440.1221c-5.0322,2.9941-10.7471,2.8242-16.2168,2.9287-8.873.1699-17.917.5244-25.916-4.6572-3.5259-2.2861-5.5967-5.1934-4.9771-9.5693.4644-.6231,1.1334-1.4629,1.7833-.6006,3.7387,4.9726,5.8305,6.3203,11.6845,7.1103-3.4697-8.0879-8.7978-13.2617-18.2544-12.3847-1.3296-2.7666-1.3296-2.7666,3.4595-6.9014,1.5527,1.7637,3.8496,1.8183,5.8501,2.5537,5.105,1.4346,9.9116,3.2588,11.7534,8.9687a3.9268,3.9268,0,0,0,2.1685,3.0137c7.7778,5.1514,13.4194,4.8828,17.0254-.8056.4965-.2334.9936-.4668,1.4892-.6954,3.7949,2.5176,5.5562,7.1006,9.5601,9.4082C51.67731,439.2452,52.12021,439.7002,52.65581,440.1221Z"/>
        <path class="cls-23" d="M.75931,422.9493c9.4566-.877,14.7847,4.2968,18.2544,12.3847-5.854-.79-7.9458-2.1377-11.6845-7.1103-.6499-.8623-1.3189-.0225-1.7833.6006C3.24661,427.4375,2.09821,425.1162.75931,422.9493Z"/>
        <g>
          <path class="cls-22" d="M92.59821,418.1055c12.0605-5.9795,18.292-23.2383,15.8359-33.71-1.7588-7.5507-11.9765-22.9316-22.8657-27.2275,7.9072,7.7197,14.645,19.9741,16.1065,26.8023C104.01271,394.1534,100.59921,409.2373,92.59821,418.1055Z"/>
          <path class="cls-24" d="M83.00251,423.9161c12.4165-5.1163,17.9263-27.8184,15.8433-35.7408-1.4776-5.6391-9.7164-14.5747-20.1714-10.4375C87.441,384.2598,92.40241,415.9922,83.00251,423.9161Z"/>
          <path class="cls-25" d="M58.68321,417.0088c5.0537,6.5303,13.1225,4.3887,17.2138-3.7138,2.5308-4.9239,5.69-25.1402-7.4492-25.4688C67.70761,395.0537,66.22421,411.5352,58.68321,417.0088Z"/>
          <path class="cls-24" d="M70.76671,390.586c-2.0557.3403-3.0997,3.1328-2.6324,6.3183.6109,3.1231.1363,7.711,2.1909,7.3702,2.0557-.3399,5.8013-5.5958,5.189-8.7193C74.90341,392.4278,72.82131,390.2452,70.76671,390.586Z"/>
          <path class="cls-24" d="M64.021,351.1827c1.7754.6186,5.2159-.4595,7.253.3876,2.3867.8765,1.9453,3.085,4.146,2.6841,5.4697-1.0708,4.9677-4.7485,2.2158-7.3296-1.6987-1.6626-4.2471-4.1611-10.7022-.1508C64.22471,348.3965,61.813,350.7408,64.021,351.1827Z"/>
          <path class="cls-25" d="M81.65141,430.8858h0c23.1109-2.9307,35.67779-33.0977,31.55759-50.4844-3.12789-13.7402-25.42529-44.9185-45.20409-39.6396,19.1162-1.9644,39.3936,27.1718,42.5108,40.0732C114.399,397.6421,103.08941,425.9414,81.65141,430.8858Z"/>
          <path class="cls-25" d="M29.40581,375.5845c-7.0478,8.3096-13.0166,17.1851-9.5508,24.3691,3.6866-5.4018,3.0474-5.3061,15.5743-22.4575,7.7788-10.6323,36.4018-1.8203,34.9477-4.9384-1.2139-2.5391.3657-6.9039-9.1055-14.3184C51.68361,350.5381,37.60211,365.9629,29.40581,375.5845Z"/>
        </g>
        <g>
          <polygon class="cls-26" points="133.337 328.47 134.262 329.187 134.102 330.355 133.012 330.795 132.082 330.074 132.244 328.905 133.337 328.47"/>
          <polygon class="cls-26" points="136.541 328.37 137.472 329.088 137.312 330.254 136.223 330.697 135.293 329.975 135.451 328.81 136.541 328.37"/>
          <polygon class="cls-26" points="131.477 330.987 132.404 331.711 132.245 332.874 131.159 333.317 130.225 332.595 130.388 331.432 131.477 330.987"/>
          <polygon class="cls-26" points="127.969 332.419 128.897 333.143 128.738 334.305 127.65 334.746 126.723 334.026 126.879 332.86 127.969 332.419"/>
          <polygon class="cls-26" points="126.226 334.986 127.154 335.706 126.995 336.876 125.905 337.318 124.977 336.599 125.137 335.424 126.226 334.986"/>
          <polygon class="cls-26" points="124.93 332.259 125.858 332.98 125.699 334.144 124.61 334.589 123.68 333.87 123.842 332.702 124.93 332.259"/>
          <polygon class="cls-26" points="123.11 334.864 124.04 335.579 123.875 336.745 122.784 337.187 121.855 336.471 122.022 335.302 123.11 334.864"/>
          <polygon class="cls-26" points="120.191 335.214 121.114 335.935 120.956 337.1 119.865 337.545 118.935 336.82 119.097 335.661 120.191 335.214"/>
          <polygon class="cls-26" points="117.194 332.441 118.122 333.161 117.963 334.321 116.873 334.762 115.945 334.043 116.108 332.879 117.194 332.441"/>
          <polygon class="cls-26" points="117.91 329.171 118.84 329.889 118.682 331.06 117.589 331.502 116.658 330.776 116.82 329.613 117.91 329.171"/>
          <polygon class="cls-26" points="114.606 330.424 115.537 331.144 115.377 332.309 114.288 332.749 113.358 332.032 113.518 330.865 114.606 330.424"/>
          <polygon class="cls-26" points="114.7 334.752 115.626 335.475 115.466 336.639 114.378 337.08 113.448 336.363 113.608 335.195 114.7 334.752"/>
          <polygon class="cls-26" points="119.263 338.659 120.192 339.381 120.033 340.542 118.941 340.987 118.013 340.266 118.178 339.101 119.263 338.659"/>
          <polygon class="cls-26" points="117.477 336.324 118.401 337.042 118.244 338.205 117.158 338.648 116.226 337.928 116.383 336.761 117.477 336.324"/>
          <polygon class="cls-26" points="121.576 338.18 122.509 338.899 122.352 340.066 121.263 340.507 120.333 339.785 120.49 338.626 121.576 338.18"/>
          <polygon class="cls-26" points="124.582 337.794 125.509 338.515 125.349 339.68 124.264 340.124 123.326 339.399 123.495 338.239 124.582 337.794"/>
          <polygon class="cls-26" points="111.382 336.663 112.314 337.384 112.152 338.546 111.062 338.984 110.136 338.266 110.297 337.103 111.382 336.663"/>
          <polygon class="cls-26" points="109.376 339.711 110.303 340.433 110.144 341.594 109.057 342.039 108.126 341.317 108.289 340.153 109.376 339.711"/>
          <polygon class="cls-26" points="105.933 338.878 106.861 339.6 106.711 340.76 105.62 341.208 104.688 340.491 104.849 339.323 105.933 338.878"/>
          <polygon class="cls-26" points="108.85 333.849 109.775 334.575 109.613 335.735 108.534 336.183 107.598 335.461 107.757 334.292 108.85 333.849"/>
          <polygon class="cls-26" points="134.1 332.867 135.028 333.582 134.866 334.752 133.778 335.187 132.849 334.47 133.01 333.309 134.1 332.867"/>
          <polygon class="cls-26" points="104.013 341.15 104.942 341.872 104.781 343.037 103.694 343.48 102.762 342.759 102.925 341.599 104.013 341.15"/>
          <polygon class="cls-26" points="103.65 347.292 104.579 348.014 104.417 349.174 103.327 349.622 102.399 348.902 102.564 347.736 103.65 347.292"/>
          <polygon class="cls-26" points="105.635 345.449 106.564 346.169 106.409 347.336 105.316 347.775 104.387 347.054 104.549 345.892 105.635 345.449"/>
          <polygon class="cls-26" points="100.365 341.637 101.296 342.362 101.14 343.532 100.049 343.971 99.119 343.246 99.279 342.087 100.365 341.637"/>
          <polygon class="cls-26" points="98.058 340.223 98.987 340.949 98.826 342.115 97.741 342.559 96.812 341.838 96.969 340.667 98.058 340.223"/>
          <polygon class="cls-26" points="97.692 342.981 98.623 343.701 98.462 344.863 97.375 345.308 96.443 344.587 96.608 343.423 97.692 342.981"/>
          <polygon class="cls-26" points="112.167 333.555 113.099 334.275 112.937 335.439 111.847 335.881 110.916 335.162 111.079 333.995 112.167 333.555"/>
          <polygon class="cls-26" points="114.062 337.988 114.987 338.706 114.829 339.872 113.741 340.316 112.81 339.59 112.976 338.43 114.062 337.988"/>
          <polygon class="cls-26" points="138.858 325.382 139.788 326.101 139.625 327.269 138.546 327.712 137.612 326.986 137.767 325.822 138.858 325.382"/>
          <polygon class="cls-26" points="140.888 327.622 141.817 328.342 141.655 329.51 140.567 329.955 139.64 329.226 139.798 328.069 140.888 327.622"/>
          <polygon class="cls-26" points="143.144 324.935 144.068 325.656 143.909 326.823 142.822 327.267 141.891 326.546 142.049 325.382 143.144 324.935"/>
        </g>
        <g>
          <polygon class="cls-27" points="193.148 360.627 192.196 359.865 192.381 358.665 193.521 358.221 194.467 358.979 194.286 360.185 193.148 360.627"/>
          <polygon class="cls-27" points="189.822 360.681 188.87 359.92 189.057 358.718 190.186 358.278 191.14 359.036 190.952 360.242 189.822 360.681"/>
          <polygon class="cls-27" points="195.104 358.048 194.155 357.288 194.337 356.081 195.474 355.637 196.428 356.402 196.241 357.605 195.104 358.048"/>
          <polygon class="cls-27" points="198.762 356.622 197.816 355.861 197.996 354.655 199.124 354.215 200.08 354.978 199.892 356.182 198.762 356.622"/>
          <polygon class="cls-27" points="200.608 353.989 199.655 353.23 199.84 352.02 200.969 351.581 201.928 352.342 201.737 353.55 200.608 353.989"/>
          <polygon class="cls-27" points="197.547 359.897 196.599 359.14 196.783 357.935 197.92 357.492 198.87 358.256 198.684 359.453 197.547 359.897"/>
          <polygon class="cls-27" points="200.535 359.375 199.584 358.618 199.77 357.412 200.904 356.969 201.857 357.733 201.669 358.933 200.535 359.375"/>
          <polygon class="cls-27" points="196.558 362.583 195.603 361.827 195.791 360.615 196.926 360.173 197.879 360.94 197.693 362.139 196.558 362.583"/>
          <polygon class="cls-27" points="201.949 362.012 200.993 361.253 201.183 360.048 202.313 359.608 203.266 360.366 203.079 361.571 201.949 362.012"/>
          <polygon class="cls-27" points="193.706 352.979 192.757 352.221 192.942 351.019 194.074 350.577 195.024 351.337 194.838 352.537 193.706 352.979"/>
          <polygon class="cls-27" points="190.014 353.656 189.063 352.892 189.247 351.689 190.383 351.248 191.333 352.008 191.15 353.214 190.014 353.656"/>
          <polygon class="cls-27" points="187.908 356.771 186.962 356.009 187.144 354.809 188.284 354.366 189.232 355.124 189.048 356.326 187.908 356.771"/>
          <polygon class="cls-27" points="191.482 350.535 190.524 349.767 190.713 348.562 191.846 348.12 192.794 348.883 192.615 350.093 191.482 350.535"/>
          <polygon class="cls-27" points="195.484 349.353 194.531 348.588 194.718 347.385 195.85 346.944 196.801 347.703 196.617 348.912 195.484 349.353"/>
          <polygon class="cls-27" points="186.818 352.733 185.864 351.971 186.051 350.767 187.186 350.325 188.135 351.085 187.952 352.291 186.818 352.733"/>
          <polygon class="cls-27" points="184.129 356.971 183.181 356.209 183.362 355.007 184.498 354.564 185.452 355.324 185.262 356.528 184.129 356.971"/>
          <polygon class="cls-27" points="192.567 346.54 191.614 345.779 191.801 344.573 192.934 344.131 193.888 344.893 193.7 346.098 192.567 346.54"/>
          <polygon class="cls-27" points="197.505 346.779 196.557 346.021 196.742 344.819 197.878 344.376 198.829 345.135 198.641 346.337 197.505 346.779"/>
          <polygon class="cls-27" points="199.809 348.433 198.864 347.671 199.043 346.469 200.174 346.028 201.128 346.789 200.94 347.992 199.809 348.433"/>
          <polygon class="cls-27" points="194.127 364.939 193.176 364.172 193.359 362.971 194.492 362.529 195.441 363.289 195.258 364.498 194.127 364.939"/>
          <polygon class="cls-27" points="196.389 354.712 195.435 353.947 195.624 352.749 196.76 352.307 197.708 353.061 197.525 354.268 196.389 354.712"/>
          <polygon class="cls-27" points="198.795 351.73 197.846 350.971 198.031 349.768 199.167 349.325 200.118 350.084 199.933 351.288 198.795 351.73"/>
          <polygon class="cls-27" points="201.903 356.833 200.953 356.071 201.139 354.869 202.275 354.425 203.226 355.184 203.04 356.39 201.903 356.833"/>
          <polygon class="cls-27" points="203.832 354.168 202.883 353.408 203.066 352.2 204.197 351.758 205.151 352.524 204.964 353.727 203.832 354.168"/>
          <polygon class="cls-27" points="202.354 351.108 201.403 350.347 201.59 349.147 202.718 348.706 203.674 349.462 203.483 350.667 202.354 351.108"/>
          <polygon class="cls-27" points="192.419 356.065 191.471 355.303 191.652 354.1 192.788 353.656 193.739 354.418 193.555 355.623 192.419 356.065"/>
          <polygon class="cls-27" points="187.379 363.744 186.423 362.977 186.611 361.777 187.746 361.335 188.694 362.092 188.511 363.301 187.379 363.744"/>
          <polygon class="cls-27" points="185.312 361.387 184.361 360.627 184.545 359.418 185.683 358.976 186.628 359.745 186.449 360.944 185.312 361.387"/>
          <polygon class="cls-27" points="182.933 364.127 181.985 363.371 182.17 362.169 183.309 361.726 184.256 362.485 184.072 363.683 182.933 364.127"/>
        </g>
        <g>
          <polygon class="cls-27" points="126.993 364.11 126.041 363.347 126.227 362.146 127.366 361.703 128.314 362.461 128.131 363.667 126.993 364.11"/>
          <polygon class="cls-27" points="123.668 364.163 122.715 363.402 122.902 362.199 124.032 361.76 124.985 362.517 124.797 363.724 123.668 364.163"/>
          <polygon class="cls-27" points="128.95 361.53 128 360.77 128.183 359.563 129.319 359.12 130.274 359.883 130.086 361.087 128.95 361.53"/>
          <polygon class="cls-27" points="132.608 360.105 131.66 359.342 131.841 358.137 132.969 357.697 133.926 358.46 133.736 359.664 132.608 360.105"/>
          <polygon class="cls-27" points="134.453 357.472 133.501 356.711 133.686 355.502 134.815 355.063 135.773 355.824 135.583 357.032 134.453 357.472"/>
          <polygon class="cls-27" points="131.393 363.379 130.444 362.623 130.629 361.417 131.764 360.973 132.715 361.738 132.53 362.936 131.393 363.379"/>
          <polygon class="cls-27" points="134.38 362.857 133.429 362.1 133.615 360.894 134.748 360.45 135.702 361.215 135.515 362.416 134.38 362.857"/>
          <polygon class="cls-27" points="130.402 366.064 129.449 365.309 129.636 364.097 130.773 363.654 131.724 364.422 131.539 365.621 130.402 366.064"/>
          <polygon class="cls-27" points="135.795 365.495 134.839 364.735 135.029 363.53 136.158 363.09 137.112 363.848 136.924 365.054 135.795 365.495"/>
          <polygon class="cls-27" points="127.552 356.46 126.603 355.703 126.788 354.501 127.921 354.06 128.869 354.818 128.684 356.019 127.552 356.46"/>
          <polygon class="cls-27" points="123.859 357.139 122.908 356.374 123.092 355.172 124.229 354.73 125.178 355.489 124.995 356.697 123.859 357.139"/>
          <polygon class="cls-27" points="121.754 360.253 120.807 359.493 120.989 358.291 122.129 357.847 123.078 358.606 122.894 359.808 121.754 360.253"/>
          <polygon class="cls-27" points="125.327 354.017 124.37 353.249 124.558 352.043 125.692 351.602 126.64 352.365 126.461 353.575 125.327 354.017"/>
          <polygon class="cls-27" points="129.331 352.835 128.377 352.07 128.564 350.867 129.696 350.425 130.647 351.186 130.463 352.393 129.331 352.835"/>
          <polygon class="cls-27" points="120.664 356.215 119.709 355.452 119.898 354.249 121.031 353.808 121.98 354.567 121.797 355.774 120.664 356.215"/>
          <polygon class="cls-27" points="117.974 360.453 117.027 359.692 117.208 358.489 118.342 358.045 119.298 358.807 119.108 360.009 117.974 360.453"/>
          <polygon class="cls-27" points="126.414 350.022 125.46 349.262 125.646 348.056 126.78 347.613 127.733 348.375 127.546 349.579 126.414 350.022"/>
          <polygon class="cls-27" points="131.351 350.261 130.402 349.504 130.587 348.301 131.724 347.858 132.674 348.618 132.486 349.818 131.351 350.261"/>
          <polygon class="cls-27" points="133.654 351.916 132.71 351.153 132.888 349.95 134.02 349.51 134.974 350.27 134.785 351.474 133.654 351.916"/>
          <polygon class="cls-27" points="127.973 368.42 127.021 367.655 127.206 366.452 128.338 366.011 129.286 366.771 129.104 367.98 127.973 368.42"/>
          <polygon class="cls-27" points="130.234 358.193 129.279 357.429 129.47 356.231 130.606 355.789 131.553 356.543 131.37 357.749 130.234 358.193"/>
          <polygon class="cls-27" points="132.642 355.214 131.692 354.453 131.877 353.251 133.012 352.807 133.964 353.567 133.777 354.77 132.642 355.214"/>
          <polygon class="cls-27" points="135.749 360.315 134.798 359.554 134.983 358.351 136.12 357.907 137.071 358.666 136.885 359.872 135.749 360.315"/>
          <polygon class="cls-27" points="137.678 357.649 136.729 356.89 136.911 355.682 138.043 355.24 138.997 356.006 138.81 357.208 137.678 357.649"/>
          <polygon class="cls-27" points="136.199 354.589 135.249 353.83 135.435 352.629 136.564 352.189 137.52 352.944 137.327 354.149 136.199 354.589"/>
          <polygon class="cls-27" points="126.264 359.547 125.317 358.785 125.497 357.582 126.633 357.138 127.585 357.9 127.4 359.105 126.264 359.547"/>
          <polygon class="cls-27" points="121.224 367.225 120.268 366.459 120.457 365.258 121.59 364.816 122.54 365.574 122.357 366.783 121.224 367.225"/>
          <polygon class="cls-27" points="119.158 364.869 118.206 364.109 118.39 362.9 119.528 362.458 120.475 363.226 120.295 364.426 119.158 364.869"/>
          <polygon class="cls-27" points="116.778 367.609 115.831 366.853 116.016 365.651 117.154 365.208 118.101 365.968 117.918 367.164 116.778 367.609"/>
        </g>
        <g>
          <polygon class="cls-27" points="145.269 375.184 144.479 374.254 144.888 373.112 146.091 372.892 146.877 373.814 146.471 374.964 145.269 375.184"/>
          <polygon class="cls-27" points="141.994 374.609 141.202 373.68 141.614 372.534 142.805 372.316 143.598 373.242 143.185 374.389 141.994 374.609"/>
          <polygon class="cls-27" points="147.677 373.02 146.889 372.095 147.297 370.945 148.498 370.723 149.29 371.654 148.878 372.801 147.677 373.02"/>
          <polygon class="cls-27" points="151.54 372.312 150.754 371.386 151.159 370.236 152.351 370.018 153.145 370.948 152.732 372.094 151.54 372.312"/>
          <polygon class="cls-27" points="153.85 370.076 153.058 369.149 153.468 367.997 154.661 367.779 155.458 368.708 155.042 369.858 153.85 370.076"/>
          <polygon class="cls-27" points="149.728 375.298 148.939 374.377 149.349 373.228 150.548 373.006 151.337 373.937 150.928 375.079 149.728 375.298"/>
          <polygon class="cls-27" points="152.761 375.35 151.969 374.428 152.38 373.278 153.579 373.058 154.369 373.988 153.957 375.131 152.761 375.35"/>
          <polygon class="cls-27" points="148.248 377.749 147.454 376.824 147.867 375.672 149.066 375.453 149.857 376.386 149.447 377.529 148.248 377.749"/>
          <polygon class="cls-27" points="153.65 378.209 152.856 377.28 153.271 376.134 154.462 375.915 155.255 376.841 154.842 377.988 153.65 378.209"/>
          <polygon class="cls-27" points="147.264 367.779 146.477 366.855 146.884 365.71 148.08 365.49 148.869 366.415 148.459 367.56 147.264 367.779"/>
          <polygon class="cls-27" points="143.51 367.747 142.721 366.816 143.129 365.669 144.328 365.451 145.118 366.377 144.709 367.526 143.51 367.747"/>
          <polygon class="cls-27" points="140.855 370.406 140.068 369.48 140.475 368.335 141.677 368.115 142.465 369.04 142.057 370.186 140.855 370.406"/>
          <polygon class="cls-27" points="145.542 364.958 144.746 364.023 145.16 362.875 146.357 362.656 147.144 363.584 146.738 364.738 145.542 364.958"/>
          <polygon class="cls-27" points="149.696 364.555 148.905 363.624 149.317 362.477 150.511 362.258 151.301 363.184 150.892 364.336 149.696 364.555"/>
          <polygon class="cls-27" points="140.546 366.235 139.754 365.306 140.167 364.159 141.363 363.939 142.152 364.866 141.744 366.016 140.546 366.235"/>
          <polygon class="cls-27" points="137.105 369.887 136.318 368.961 136.724 367.814 137.922 367.594 138.715 368.52 138.302 369.667 137.105 369.887"/>
          <polygon class="cls-27" points="147.363 361.24 146.571 360.314 146.983 359.166 148.18 358.945 148.972 359.873 148.56 361.021 147.363 361.24"/>
          <polygon class="cls-27" points="152.168 362.41 151.379 361.486 151.788 360.341 152.988 360.12 153.778 361.046 153.366 362.19 152.168 362.41"/>
          <polygon class="cls-27" points="154.116 364.469 153.333 363.542 153.736 362.395 154.931 362.177 155.722 363.105 155.311 364.25 154.116 364.469"/>
          <polygon class="cls-27" points="145.416 379.602 144.626 378.67 145.035 377.525 146.23 377.306 147.018 378.232 146.61 379.384 145.416 379.602"/>
          <polygon class="cls-27" points="149.571 369.986 148.779 369.056 149.19 367.916 150.389 367.696 151.177 368.616 150.771 369.767 149.571 369.986"/>
          <polygon class="cls-27" points="152.498 367.517 151.709 366.59 152.118 365.444 153.318 365.224 154.108 366.15 153.698 367.295 152.498 367.517"/>
          <polygon class="cls-27" points="154.585 373.114 153.796 372.186 154.205 371.039 155.403 370.82 156.195 371.744 155.785 372.893 154.585 373.114"/>
          <polygon class="cls-27" points="156.983 370.861 156.195 369.936 156.602 368.784 157.797 368.564 158.589 369.497 158.178 370.642 156.983 370.861"/>
          <polygon class="cls-27" points="156.109 367.577 155.321 366.65 155.73 365.507 156.922 365.288 157.717 366.21 157.301 367.358 156.109 367.577"/>
          <polygon class="cls-27" points="145.416 370.567 144.63 369.638 145.035 368.491 146.234 368.27 147.025 369.197 146.615 370.346 145.416 370.567"/>
          <polygon class="cls-27" points="139.014 377.152 138.222 376.219 138.633 375.077 139.83 374.858 140.619 375.779 140.211 376.933 139.014 377.152"/>
          <polygon class="cls-27" points="137.432 374.449 136.641 373.523 137.051 372.37 138.251 372.149 139.035 373.083 138.631 374.228 137.432 374.449"/>
          <polygon class="cls-27" points="134.577 376.689 133.789 375.766 134.198 374.621 135.4 374.401 136.187 375.327 135.78 376.469 134.577 376.689"/>
        </g>
        <g>
          <polygon class="cls-28" points="297.826 318.025 298.021 319.224 297.079 319.996 295.939 319.567 295.744 318.368 296.682 317.593 297.826 318.025"/>
          <polygon class="cls-28" points="300.337 320.211 300.531 321.41 299.588 322.18 298.451 321.749 298.25 320.549 299.196 319.778 300.337 320.211"/>
          <polygon class="cls-28" points="294.644 318.635 294.838 319.84 293.894 320.606 292.756 320.177 292.56 318.972 293.502 318.203 294.644 318.635"/>
          <polygon class="cls-28" points="290.97 317.249 291.17 318.45 290.229 319.222 289.087 318.793 288.889 317.593 289.83 316.819 290.97 317.249"/>
          <polygon class="cls-28" points="287.84 317.974 288.037 319.179 287.1 319.948 285.96 319.519 285.755 318.317 286.699 317.547 287.84 317.974"/>
          <polygon class="cls-28" points="294.062 315.622 294.262 316.821 293.32 317.592 292.178 317.166 291.98 315.965 292.92 315.189 294.062 315.622"/>
          <polygon class="cls-28" points="291.495 314.012 291.686 315.22 290.746 315.992 289.612 315.56 289.411 314.359 290.351 313.584 291.495 314.012"/>
          <polygon class="cls-28" points="296.593 314.295 296.799 315.49 295.849 316.262 294.713 315.828 294.511 314.628 295.459 313.863 296.593 314.295"/>
          <polygon class="cls-28" points="292.205 311.113 292.405 312.312 291.46 313.09 290.324 312.659 290.126 311.457 291.067 310.683 292.205 311.113"/>
          <polygon class="cls-28" points="292.293 323.342 292.495 324.54 291.556 325.311 290.411 324.88 290.213 323.678 291.156 322.908 292.293 323.342"/>
          <polygon class="cls-28" points="295.494 325.305 295.687 326.509 294.75 327.276 293.609 326.849 293.408 325.646 294.351 324.877 295.494 325.305"/>
          <polygon class="cls-28" points="299.143 324.394 299.333 325.594 298.393 326.363 297.253 325.942 297.06 324.734 297.999 323.963 299.143 324.394"/>
          <polygon class="cls-28" points="292.316 326.653 292.52 327.851 291.57 328.624 290.436 328.192 290.236 326.991 291.179 326.22 292.316 326.653"/>
          <polygon class="cls-28" points="288.553 324.851 288.748 326.049 287.805 326.826 286.669 326.392 286.472 325.19 287.412 324.418 288.553 324.851"/>
          <polygon class="cls-28" points="297.254 328.127 297.453 329.326 296.514 330.105 295.375 329.671 295.172 328.468 296.114 327.696 297.254 328.127"/>
          <polygon class="cls-28" points="302.089 326.775 302.285 327.974 301.34 328.743 300.2 328.315 300 327.116 300.945 326.344 302.089 326.775"/>
          <polygon class="cls-28" points="288.838 328.89 289.036 330.09 288.094 330.862 286.957 330.435 286.754 329.235 287.699 328.459 288.838 328.89"/>
          <polygon class="cls-28" points="285.326 325.41 285.522 326.611 284.58 327.382 283.444 326.95 283.242 325.754 284.188 324.98 285.326 325.41"/>
          <polygon class="cls-28" points="284.718 322.641 284.915 323.84 283.97 324.61 282.832 324.183 282.637 322.981 283.578 322.212 284.718 322.641"/>
          <polygon class="cls-28" points="299.973 314.163 300.178 315.36 299.23 316.138 298.096 315.712 297.892 314.51 298.84 313.733 299.973 314.163"/>
          <polygon class="cls-28" points="291.459 320.256 291.653 321.462 290.711 322.232 289.572 321.802 289.377 320.599 290.319 319.826 291.459 320.256"/>
          <polygon class="cls-28" points="287.675 320.862 287.867 322.065 286.932 322.833 285.789 322.411 285.589 321.207 286.534 320.433 287.675 320.862"/>
          <polygon class="cls-28" points="288.774 314.994 288.973 316.198 288.03 316.97 286.889 316.539 286.692 315.334 287.637 314.565 288.774 314.994"/>
          <polygon class="cls-28" points="285.559 315.684 285.757 316.886 284.816 317.657 283.671 317.231 283.477 316.028 284.419 315.255 285.559 315.684"/>
          <polygon class="cls-28" points="284.617 318.95 284.81 320.154 283.873 320.922 282.729 320.494 282.535 319.288 283.476 318.52 284.617 318.95"/>
          <polygon class="cls-28" points="295.313 321.906 295.513 323.107 294.576 323.875 293.435 323.451 293.23 322.249 294.18 321.473 295.313 321.906"/>
          <polygon class="cls-28" points="304.191 319.569 304.394 320.773 303.454 321.541 302.315 321.112 302.118 319.91 303.058 319.138 304.191 319.569"/>
          <polygon class="cls-28" points="304.156 322.697 304.355 323.899 303.417 324.669 302.278 324.243 302.081 323.039 303.022 322.269 304.156 322.697"/>
          <polygon class="cls-28" points="307.761 322.244 307.958 323.449 307.019 324.219 305.877 323.789 305.678 322.587 306.622 321.818 307.761 322.244"/>
        </g>
        <g>
          <polygon class="cls-29" points="218.616 341.207 219.565 341.966 219.382 343.174 218.247 343.616 217.292 342.853 217.479 341.65 218.616 341.207"/>
          <polygon class="cls-29" points="219.618 338.388 220.569 339.147 220.382 340.353 219.254 340.792 218.3 340.032 218.488 338.828 219.618 338.388"/>
          <polygon class="cls-29" points="221.42 340.877 222.368 341.642 222.185 342.842 221.051 343.283 220.103 342.524 220.286 341.318 221.42 340.877"/>
          <polygon class="cls-29" points="220.442 343.617 221.393 344.377 221.208 345.58 220.074 346.02 219.127 345.261 219.309 344.059 220.442 343.617"/>
          <polygon class="cls-29" points="216.184 338.9 217.132 339.66 216.948 340.859 215.814 341.301 214.862 340.545 215.05 339.341 216.184 338.9"/>
          <polygon class="cls-29" points="215.481 344.143 216.433 344.905 216.248 346.111 215.116 346.554 214.17 345.787 214.348 344.585 215.481 344.143"/>
          <polygon class="cls-29" points="218.057 346.329 219.007 347.09 218.823 348.293 217.69 348.734 216.741 347.973 216.924 346.77 218.057 346.329"/>
          <polygon class="cls-29" points="214.318 346.704 215.269 347.467 215.085 348.67 213.946 349.116 212.997 348.352 213.179 347.148 214.318 346.704"/>
          <polygon class="cls-29" points="216.541 348.645 217.49 349.408 217.307 350.608 216.167 351.052 215.216 350.295 215.402 349.09 216.541 348.645"/>
          <polygon class="cls-29" points="220.826 347.873 221.775 348.628 221.589 349.83 220.457 350.273 219.505 349.514 219.694 348.313 220.826 347.873"/>
          <polygon class="cls-29" points="224.212 341.827 225.161 342.59 224.978 343.792 223.845 344.233 222.891 343.476 223.079 342.27 224.212 341.827"/>
          <polygon class="cls-29" points="223.087 344.177 224.041 344.944 223.854 346.145 222.72 346.586 221.773 345.829 221.953 344.62 223.087 344.177"/>
          <polygon class="cls-29" points="225.917 344.735 226.872 345.496 226.683 346.702 225.551 347.144 224.602 346.38 224.785 345.177 225.917 344.735"/>
          <polygon class="cls-29" points="224.038 346.936 224.987 347.694 224.803 348.901 223.668 349.344 222.714 348.581 222.902 347.379 224.038 346.936"/>
          <polygon class="cls-29" points="227.806 347.124 228.757 347.883 228.572 349.089 227.439 349.53 226.488 348.768 226.672 347.565 227.806 347.124"/>
          <polygon class="cls-29" points="230.817 341.422 231.765 342.186 231.583 343.387 230.444 343.83 229.498 343.07 229.679 341.865 230.817 341.422"/>
          <polygon class="cls-29" points="227.704 341.296 228.656 342.055 228.47 343.26 227.341 343.701 226.387 342.94 226.575 341.736 227.704 341.296"/>
          <polygon class="cls-29" points="227.778 337.889 228.731 338.649 228.544 339.851 227.411 340.292 226.462 339.535 226.646 338.329 227.778 337.889"/>
          <polygon class="cls-29" points="225.118 338.925 226.068 339.687 225.883 340.888 224.754 341.328 223.806 340.57 223.989 339.366 225.118 338.925"/>
          <polygon class="cls-29" points="222.531 336.87 223.487 337.633 223.298 338.836 222.168 339.276 221.219 338.517 221.401 337.311 222.531 336.87"/>
          <polygon class="cls-29" points="225.579 334.212 226.525 334.973 226.347 336.179 225.216 336.62 224.261 335.856 224.45 334.652 225.579 334.212"/>
          <polygon class="cls-29" points="226.803 349.936 227.754 350.7 227.568 351.901 226.43 352.345 225.479 351.587 225.665 350.38 226.803 349.936"/>
          <polygon class="cls-29" points="231.447 345.829 232.398 346.588 232.215 347.797 231.083 348.239 230.13 347.472 230.315 346.27 231.447 345.829"/>
          <polygon class="cls-29" points="233.985 347.264 234.937 348.024 234.753 349.233 233.619 349.676 232.667 348.909 232.851 347.708 233.985 347.264"/>
          <polygon class="cls-29" points="233.7 340.395 234.65 341.152 234.464 342.356 233.328 342.8 232.378 342.038 232.563 340.837 233.7 340.395"/>
        </g>
        <path class="cls-30" d="M97.52251,354.1748s134.28609-65.77,269.24949-49.019c0,0-126.269-10.1978-266.34419,52.3403Z"/>
        <path class="cls-30" d="M78.84481,341.6997s52.43889-29.1958,88.91359-31.9589c0,0-58.58549,17.4209-83.90529,33.5004Z"/>
        <path class="cls-5" d="M100.105,349.2837c-20.2827-14.6479,86.669-66.1723,137.82719-49.2314C289.0889,316.9947,125.025,367.2818,100.105,349.2837Z"/>
        <path class="cls-5" d="M15.32381,418.0371c-12.229-20.8378,46.4892-86.1508,76.4389-60.8105C121.711,382.5703,30.34921,443.6426,15.32381,418.0371Z"/>
        <g>
          <g>
            <path class="cls-6" d="M123.8174,372.4414S190.8238,92.6582,443.6431,147.1172c0,0-44.9985,12.8496-66.1709,37.2188-21.1733,24.3701-48.3105,44.3115-51.1396,73.0478-2.8286,28.7344-42.4283,69.0928-64.1704,85.145-21.7413,16.0513-25.0581,31.1963,1.15331,31.6739,0,0-55.26081,27.8095-115.67191,13.5288C147.6436,387.7315,130.4454,372.0127,123.8174,372.4414Z"/>
            <g>
              <path class="cls-7" d="M263.314,374.2027c-.1968-.0044-.375-.0161-.5683-.0215-.1128.1514-.2276.3091-.3389.458C262.98251,374.3672,263.314,374.2027,263.314,374.2027Z"/>
              <path class="cls-7" d="M123.81551,372.4424c2.72949-.1772,7.24749,2.3833,11.62109,5.4566,18.0361-85.0616,74.8481-223.2046,253.6621-225.1636,0,0-41.041,22.4878-56.2959,50.938-15.2554,28.4516-37.3076,53.9033-33.708,82.5522.9004,7.168-.2827,15.5567-2.8408,24.4243,15.1889-17.1552,28.4829-37.059,30.0781-53.2671,2.8296-28.7353,29.9668-48.6767,51.1387-73.0468,21.1738-24.3692,66.1723-37.2188,66.1723-37.2188C190.8238,92.6582,123.81551,372.4424,123.81551,372.4424Z"/>
            </g>
            <path class="cls-8" d="M128.1919,373.5367S230.44,124.8404,405.712,154.2837c0,0-44.4976-7.6045-91.5137,11.6612,0,0,48.667-11.7881,74.6577.4897,0,0-30.4316-10.7158-84.39349,4.0254,0,0-119.36241,62.2861-172.75691,204.9883Z"/>
            <path class="cls-8" d="M139.0743,386.4903s90.5835-224.0025,236.2553-201.4312c0,0-36.9799-5.8471-76.6269,12.3296,0,0,40.8672-11.5415,62.3022-1.1362,0,0-25.1738-8.9175-70.5249,5.3701,0,0-100.9389,58.0752-148.5136,186.4985Z"/>
            <path class="cls-8" d="M149.7193,390.0586s75.6728-187.2002,197.1841-168.4111c0,0-30.8457-4.8672-63.9302,10.3384,0,0,34.0996-9.6621,51.9756-.9785,0,0-20.9956-7.4405-58.836,4.52,0,0-84.2334,48.5722-123.9819,155.8921Z"/>
            <path class="cls-8" d="M151.58551,391.4078S216.8003,236.107,337.27251,258.062c0,0-30.58691-5.6562-62.38621,5.6314,0,0,33.0713-6.5283,51.0854,1.731,0,0-21.0224-7.3555-57.6601.9375,0,0-79.2852,34.04-113.0962,123.2519Z"/>
            <path class="cls-8" d="M162.5079,390.5967s52.0464-121.9819,154.82961-102.2622c0,0-26.09771-5.0723-52.92921,3.4312,0,0,27.9965-4.6612,43.4526,2.2788,0,0-17.9976-6.2676-48.9956-.2515,0,0-66.8013,25.9463-93.9859,96.9541Z"/>
            <path class="cls-8" d="M173.6412,391.6372s39.6328-90.1064,120.5937-73.8901c0,0-20.5576-4.1675-41.4868,1.7524,0,0,21.9009-3.0434,34.1362,2.3511,0,0-14.2192-4.9331-38.456-.9253,0,0-51.9219,18.5425-72.1861,70.9473Z"/>
            <path class="cls-8" d="M184.7647,391.8018s31.27981-43.2837,65.92381-39.0498c0,0-31.709-9.9463-69.12251,39.0444Z"/>
            <path class="cls-8" d="M202.8394,390.7544s22.7588-25.1948,44.437-20.6821c0,0-17.0986-8.875-47.6416,21Z"/>
            <g class="cls-9">
              <path class="cls-10" d="M147.3604,388.2681l-.1143-.1025c-.1333-.1231-13.4853-12.2745-20.9663-14.729a6.735,6.735,0,0,0-2.42529-.4097l-.79391.0513.1846-.773c.1679-.7012,17.3349-70.791,65.2119-133.3047,28.1343-36.7383,61.21341-63.7163,98.31641-80.188,46.38229-20.5893,99.20309-24.7182,156.99359-12.269l2.294.4941-2.2564.6441c-.44919.1279-45.0761,13.084-65.8886,37.04-5.0498,5.812-10.4883,11.4234-15.7471,16.8506-17.0298,17.5762-33.1167,34.1768-35.252,55.8687-3.019,30.6665-45.4931,71.5966-64.4047,85.5605-11.7842,8.6992-18.01179,16.9829-17.0884,22.7246.7925,4.9165,7.0859,7.6929,17.9013,7.8901l2.376.0425-2.123,1.0689c-.55369.2788-56.1441,27.7417-116.0689,13.5761Zm-20.7148-15.9478c7.4336,2.4375,19.8691,13.5953,21.2802,14.8775,52.75,12.4053,102.1079-7.6358,112.937-12.4995-10.0639-.5816-15.7675-3.628-16.5981-8.7862-.9976-6.1899,5.3999-14.8857,17.54981-23.8564,20.90429-15.4336,61.11819-56.1318,63.93359-84.73,2.1758-22.1006,18.40141-38.8442,35.5771-56.5718,5.2481-5.415,10.6749-11.0146,15.7032-16.8027,18.374-21.1484,54.9824-33.7798,64.2744-36.7295-128.9898-26.8872-208.1489,35.3462-251.9136,92.4927-45.1406,58.9409-62.8896,124.6157-64.8223,132.1518A9.35075,9.35075,0,0,1,126.6456,372.3203Z"/>
            </g>
          </g>
          <g>
            <path class="cls-31" d="M134.0586,401.3794c-5.8125,6.3521-13.7763,9.0337-21.291,12.4732-1.79339.8203-3.63179,1.539-5.58979.4267-.583-2.7822,5.05659-3.0644,2.6426-6.583q1.557-2.55315,3.11759-5.1059c1.8716.9917,1.6617,4.8305,4.2539,4.102,2.0884-.5879,1.0093-3.3574,1.2627-5.2104.1744-1.2696-.1215-4.0376,2.8746-2.6431,1.0732,2.2358,2.1484,4.4678,3.4599,7.1978,2.0943-3.5313.7847-7.4668,3.4453-10.001,1.8438.4985,3.1587,3.1601,5.564,1.3584C135.1041,398.6451,134.2618,400.0352,134.0586,401.3794Z"/>
            <path class="cls-22" d="M134.0586,401.3794c.2032-1.3442,1.0455-2.7343-.2597-3.9853.5864-1.8418,1.29-3.6035.0581-5.5596-2.1162-3.3574-.396-4.4941,2.8848-4.5332l-.0328-.0415c.4029,4.541,6.3228,2.7188,6.9146,7.023,1.8223-1.6895.7412-3.0059.8266-4.2183q1.1382-.6255,2.2759-1.2534a.63088.63088,0,0,0,.731-.6421,6.72978,6.72978,0,0,1,4.6338,1.646c-.5796,2.9287-3.2051,3.5024-5.33939,4.6572Q140.397,397.90945,134.0586,401.3794Z"/>
            <path class="cls-32" d="M144.4502,390.0645c-.0854,1.2124.9957,2.5288-.8266,4.2183-.5918-4.3042-6.5117-2.482-6.9136-7.024,1.5698.3496,2.9248.0034,2.6948-1.8496-.2705-2.186-1.7109-3.3125-4.31729-2.9599.57419,1.684,1.11419,3.269,1.65429,4.852-3.2808.0391-5.001,1.1758-2.8848,4.5332,1.2319,1.9561.5283,3.7178-.0581,5.5596-2.4058,1.8017-3.7207-.8599-5.564-1.3609-1.977-4.3095,5.5249-5.9995,2.835-10.8774-2.3111,5.2012-8.6079,2.1099-11.3926,6.083a8.28854,8.28854,0,0,1-1.0195-.5268c.1025-.3594.2046-.7154.3081-1.0757a45.8845,45.8845,0,0,1,1.8008-6.1192,4.768,4.768,0,0,1,4.6787-2.852c2.4399.063.0097,2.7441,2.041,3.5346.7055-2.5649,5.0566-4.3491.74411-7.6782-.45071-.3452,1.29539-.9145,2.21339-.9863,4.0503,2.3198,8.9395,2.9414,12.5283,6.1924,1.127,2.4013,4.0034,3.5869,4.4849,6.4414a.63106.63106,0,0,1-.7315.6421A2.01889,2.01889,0,0,0,144.4502,390.0645Z"/>
            <path class="cls-33" d="M130.4439,375.5352c-.918.0718-2.6641.6411-2.21339.9863,4.31249,3.3291-.03861,5.1133-.74411,7.6782-2.0313-.7905.3989-3.4716-2.041-3.5346a4.768,4.768,0,0,0-4.6787,2.852,45.8845,45.8845,0,0,0-1.8008,6.1192q-2.8353-.79035-5.67039-1.5826c4.60689-4.434,5.82519-11.4614,11.54239-15.0429C127.4346,372.2359,131.4776,368.253,130.4439,375.5352Z"/>
            <path class="cls-34" d="M119.6753,391.2403c2.7867-3.9746,9.0835-.8833,11.3946-6.0845,2.6899,4.8779-4.812,6.5679-2.835,10.8774-2.6611,2.5367-1.3515,6.4722-3.4458,10.0035-1.3115-2.73-2.3867-4.962-3.4599-7.1978,4.3212-4.0171,4.1816-4.5288-1.80469-6.543C119.5738,391.9434,119.6251,391.5904,119.6753,391.2403Z"/>
            <path class="cls-32" d="M119.5254,392.2959c5.9854,2.0142,6.125,2.5259,1.8038,6.543-2.9961-1.3945-2.7002,1.3735-2.8746,2.6431-.2534,1.853.8257,4.6225-1.2627,5.2104-2.5922.7285-2.3823-3.1103-4.2539-4.102.6758-1.0279-.5376-2.5943.9634-3.3858l.5269.149.53121.1274C119.9112,399.2647,117.8819,394.6114,119.5254,392.2959Z"/>
            <path class="cls-35" d="M111.9688,399.21c1.6025-1.4883,2.74071-3.084,1.2373-5.2939q.00361-3.09165-.0015-6.188,1.77615.6987,3.5533,1.3935,2.11155,2.0493,4.2265,4.0987c-.2607.2636-.52189.5302-.7832.7968-3.9761.1045-3.5161,5.7622-7.4336,5.9395l-.4077-.3633Z"/>
            <path class="cls-22" d="M114.95951,399.481c3.357-2.0278.25439-6.7798,3.69919-8.769a8.21322,8.21322,0,0,0,1.0186.5268q-.0783.5274-.15279,1.0571C117.8819,394.6114,119.9112,399.2647,114.95951,399.481Z"/>
            <path class="cls-36" d="M128.981,371.6778a54.51432,54.51432,0,0,1-5.3516-1.1363c-2.4316-.6816-9.3613-3.1489-9.0102-.1928.3511,2.9541-2.6245,17.3872-1.4146,17.3794,1.21-.0088,3.6475-1.6807,4.3062-3.8594.65871-2.1792,1.6601-5.6196,3.6274-6.8355C123.10651,375.8164,131.1924,373.0596,128.981,371.6778Z"/>
            <path class="cls-37" d="M113.0977,380.6377c.6196-2.0957.7852-4.0488-1.63429-5.1831q-1.57245-2.6616-3.1567-5.3237,1.88385-.3033,3.76759-.6123,2.86232.687,5.7246,1.3716c-.08939.3613-.1778.7221-.2656,1.0859-3.3682,2.1177-.0884,6.7466-3.3682,8.9014l-.5371-.1104Z"/>
            <path class="cls-37" d="M113.0586,365.3711c1.7691,1.2847,3.5552,2.0928,5.4327.1914q3.03285-.59325,6.0708-1.1967-.34139,1.87785-.6797,3.7544-1.60545,2.4696-3.2046,4.9394c-.3115-.2046-.6221-.4082-.9356-.6128-.8701-3.8828-6.331-2.3393-7.2636-6.1474l.2812-.4703Z"/>
          </g>
        </g>
        <path class="cls-5" d="M234.19,226.7041c-20.5649-9.2358,64.4438-74.1694,112.6772-68.5278C395.0914,163.8194,259.4571,238.0523,234.19,226.7041Z"/>
        <path class="cls-5" d="M199.1529,263.3946c-27.6099-12.3999,86.518-99.5733,151.2715-92C415.167,178.9707,233.0738,278.6299,199.1529,263.3946Z"/>
        <path class="cls-5" d="M181.6373,351.6861c-14.3472-6.4439,44.958-51.7427,78.6079-47.8086C293.8877,307.8155,199.2632,359.6026,181.6373,351.6861Z"/>
        <path class="cls-5" d="M157.1934,377.2813c-19.2612-8.6494,60.3574-69.4649,105.5327-64.1812C307.8926,318.3853,180.858,387.9112,157.1934,377.2813Z"/>
        <path class="cls-5" d="M124.6314,269.8365c-15.70359-.8648,23.3965-64.4297,56.2168-72.8306C213.6636,188.607,143.9253,270.9019,124.6314,269.8365Z"/>
        <path class="cls-5" d="M111.00151,302.5005c-21.0825-1.1616,31.41019-86.499,75.47219-97.7778C230.5293,193.4468,136.9043,303.9287,111.00151,302.5005Z"/>
        <path class="cls-5" d="M393.6124,284.4947c-11.8111-3.5855,29.8466-44.7603,56.4345-45.0489C476.6314,239.1592,408.1241,288.9024,393.6124,284.4947Z"/>
        <path class="cls-5" d="M377.1319,306.8579c-15.8565-4.8173,40.0693-60.0942,75.7651-60.4804C488.587,245.9932,396.6143,312.7745,377.1319,306.8579Z"/>
        <path class="cls-5" d="M102.36721,212.2979C72.10161,212.2012,140.9029,86.1416,203.1377,66.7217,265.3643,47.3086,139.5518,212.418,102.36721,212.2979Z"/>
        <path class="cls-5" d="M116.9664,164.2149C91.55861,165.8921,160.961,60.5542,215.0176,41.334,269.066,22.1197,148.1841,162.1553,116.9664,164.2149Z"/>
        <g>
          <path class="cls-31" d="M359.1646,305.8277c1.4468,6.4472-.3584,12.6391-1.4907,18.8799-.2715,1.4887-.624,2.9628-2.1856,3.7055-2.0053-.852.291-4.5278-2.98479-4.5522q-.923-2.1021-1.84521-4.2027c1.4448-.7451,3.7705,1.0728,4.44921-.8798.54679-1.5713-1.67241-2.1084-2.729-3.0811-.72021-.6655-2.59431-1.6963-.39991-2.9702,1.87791.3042,3.7548.6089,6.0498.98-1.3042-2.8682-4.35789-3.7705-4.7852-6.5586,1.1226-.9414,3.377-.6016,3.2984-2.9063C357.9024,303.9693,358.4053,305.1094,359.1646,305.8277Z"/>
          <path class="cls-22" d="M359.1646,305.8277c-.7593-.7183-1.2622-1.8584-2.623-1.586-.9034-1.1782-1.7046-2.394-3.47509-2.4765-3.042-.1411-3.00391-1.7217-1.58941-3.8057l-.03859.0025c3.03319,1.7402,4.48539-2.7886,7.45459-1.272-.2637-1.8892-1.5649-1.7847-2.2934-2.3706.06981-.6616.1391-1.3242.2124-1.9834a.48661.48661,0,0,0-.086-.7432,5.17748,5.17748,0,0,1,3.0708-2.1953c1.5894,1.6504.7993,3.5557.5884,5.4048C359.9678,298.4766,359.5718,302.1538,359.1646,305.8277Z"/>
          <path class="cls-32" d="M356.5997,294.3194c.7285.5859,2.0297.4814,2.2934,2.3706-2.9692-1.5166-4.4214,3.0122-7.457,1.27.9101-.8345,1.2871-1.8394.0185-2.5078-1.49509-.7886-2.8354-.3765-3.7587,1.4189,1.3139.3789,2.5483.7329,3.7812,1.0884-1.4145,2.084-1.45259,3.6646,1.58941,3.8057,1.77049.0825,2.57169,1.2983,3.47509,2.4765.0786,2.3052-2.1758,1.9654-3.2998,2.9068-3.5801-.647-1.3526-6.1133-5.6055-6.5606,2.2607,3.7378-2.4473,6.3482-1.168,9.8438a6.47658,6.47658,0,0,1-.77979.4111c-.18061-.2226-.36131-.4424-.542-.6655a34.96429,34.96429,0,0,1-3.06151-3.8213,3.65319,3.65319,0,0,1,.2559-4.1963c1.1118-1.5093,1.7329,1.1978,3.1211.2647-1.3037-1.5694-.5191-5.0909-4.5059-3.8365-.4175.1319-.0078-1.2177.3486-1.8266,3.2383-1.5323,5.7759-4.3384,9.398-5.17,2.00781.3448,4.0146-.9487,6.0234.001a.48562.48562,0,0,1,.084.7437A1.549,1.549,0,0,0,356.5997,294.3194Z"/>
          <path class="cls-33" d="M341.3047,296.7613c-.3564.6089-.7661,1.9585-.3486,1.8266,3.9868-1.2544,3.2022,2.2671,4.5059,3.8365-1.3882.9331-2.0093-1.774-3.1211-.2647a3.65319,3.65319,0,0,0-.2559,4.1963,34.96429,34.96429,0,0,0,3.06151,3.8213q-1.74166,1.437-3.48631,2.8745c-.7685-4.8457-4.6606-8.6973-4.4062-13.8696C337.9063,297.2076,337.1739,292.9146,341.3047,296.7613Z"/>
          <path class="cls-34" d="M346.4683,310.4331c-1.2793-3.497,3.4287-6.1074,1.168-9.8452,4.2529.4473,2.0254,5.9136,5.6055,6.5606.42871,2.7881,3.4824,3.6904,4.7866,6.5586-2.295-.3711-4.17189-.6758-6.0498-.98-.6343-4.4839-1.01709-4.6201-4.9136-1.7349C346.8668,310.8062,346.6651,310.6197,346.4683,310.4331Z"/>
          <path class="cls-32" d="M347.065,310.9922c3.89651-2.8852,4.2793-2.749,4.9136,1.7349-2.1944,1.2739-.3203,2.3047.39991,2.9702,1.05659.9727,3.27579,1.5098,2.729,3.0811-.67871,1.9526-3.00441.1347-4.44921.8798-.3511-.8774-1.8702-.8007-1.712-2.0937l.3257-.2656.314-.2798C351.6236,313.8062,347.8052,313.0435,347.065,310.9922Z"/>
          <path class="cls-35" d="M348.105,318.7832c-.2348-1.6611-.7397-3.0776-2.79-3.101q-1.9461-1.3602-3.898-2.7149,1.2174-.813,2.4371-1.6264,2.21775-.43,4.434-.8633c.0528.2827.106.5625.1582.8432-1.6796,2.5494,2.086,4.7442.4781,7.2886l-.4082.0957Z"/>
          <path class="cls-22" d="M349.586,317.0191c.1963-3.003-4.1563-3.1348-3.89749-6.1758a6.55216,6.55216,0,0,0,.77979-.4116c.1968.188.3985.3745.5967.5605C347.8052,313.0435,351.6236,313.8062,349.586,317.0191Z"/>
          <path class="cls-36" d="M338.2349,295.9893a41.81531,41.81531,0,0,1-3.0649,2.8716c-1.4961,1.2314-6.0908,4.5112-4.0767,5.5874,2.0151,1.0747,9.7979,9.2837,10.3237,8.519a4.53055,4.53055,0,0,0-.54049-4.4053c-1.084-1.371-2.80811-3.5107-2.71141-5.2841C338.2627,301.5039,340.0752,295.2032,338.2349,295.9893Z"/>
          <path class="cls-37" d="M336.9034,309.9229c-1.04589-1.3096-2.2032-2.272-3.98-1.2466q-2.3643-.17655-4.7363-.3481c.4223-.8799.8466-1.7598,1.2656-2.6402q1.6911-1.50075,3.3765-3.0039.2841.3216.56831.645c-.145,3.0494,4.209,3.0166,4.12549,6.0254l-.3032.2901Z"/>
          <path class="cls-37" d="M327.2754,303.2476c1.585-.5493,2.8775-1.3213,2.5035-3.3374q.95655-2.16945,1.91261-4.3482,1.03124,1.04085,2.06389,2.0762.8526,2.094,1.7036,4.1865-.39615.159-.7939.3184c-2.8272-1.1558-4.2529,2.9609-7.061,1.876l-.1719-.3833Z"/>
        </g>
        <path class="cls-5" d="M284.7574,304.8648c-8.314-9.4624,49.95311-22.7715,73.167-8.7246C381.1329,310.1866,294.9732,316.4893,284.7574,304.8648Z"/>
        <g>
          <polygon class="cls-28" points="338.037 312.001 338.232 313.201 337.289 313.974 336.15 313.544 335.955 312.345 336.894 311.569 338.037 312.001"/>
          <polygon class="cls-28" points="340.549 314.188 340.743 315.387 339.8 316.157 338.662 315.726 338.462 314.527 339.407 313.755 340.549 314.188"/>
          <polygon class="cls-28" points="334.855 312.611 335.049 313.817 334.105 314.583 332.968 314.154 332.771 312.95 333.712 312.179 334.855 312.611"/>
          <polygon class="cls-28" points="331.182 311.227 331.382 312.426 330.44 313.199 329.297 312.77 329.1 311.571 330.041 310.796 331.182 311.227"/>
          <polygon class="cls-28" points="328.052 311.951 328.248 313.155 327.312 313.925 326.171 313.495 325.967 312.294 326.91 311.525 328.052 311.951"/>
          <polygon class="cls-28" points="334.274 309.6 334.474 310.798 333.532 311.569 332.389 311.143 332.192 309.942 333.131 309.166 334.274 309.6"/>
          <polygon class="cls-28" points="331.706 307.99 331.898 309.197 330.959 309.968 329.824 309.537 329.622 308.336 330.563 307.562 331.706 307.99"/>
          <polygon class="cls-28" points="336.804 308.271 337.011 309.467 336.06 310.239 334.924 309.805 334.721 308.605 335.671 307.839 336.804 308.271"/>
          <polygon class="cls-28" points="332.416 305.09 332.616 306.29 331.671 307.067 330.535 306.635 330.338 305.434 331.277 304.659 332.416 305.09"/>
          <polygon class="cls-28" points="332.503 317.319 332.706 318.517 331.766 319.288 330.623 318.858 330.424 317.655 331.367 316.885 332.503 317.319"/>
          <polygon class="cls-28" points="335.705 319.283 335.9 320.488 334.96 321.252 333.821 320.825 333.62 319.624 334.563 318.854 335.705 319.283"/>
          <polygon class="cls-28" points="339.355 318.37 339.544 319.571 338.604 320.341 337.463 319.919 337.271 318.711 338.211 317.939 339.355 318.37"/>
          <polygon class="cls-28" points="332.527 320.631 332.731 321.828 331.781 322.601 330.647 322.169 330.448 320.967 331.391 320.197 332.527 320.631"/>
          <polygon class="cls-28" points="328.765 318.828 328.959 320.026 328.015 320.802 326.88 320.369 326.683 319.167 327.625 318.395 328.765 318.828"/>
          <polygon class="cls-28" points="337.466 322.105 337.664 323.303 336.724 324.083 335.585 323.648 335.383 322.444 336.326 321.674 337.466 322.105"/>
          <polygon class="cls-28" points="342.3 320.752 342.496 321.951 341.55 322.72 340.411 322.292 340.212 321.093 341.155 320.321 342.3 320.752"/>
          <polygon class="cls-28" points="329.048 322.866 329.248 324.067 328.305 324.84 327.168 324.413 326.964 323.212 327.912 322.438 329.048 322.866"/>
          <polygon class="cls-28" points="325.537 319.386 325.732 320.587 324.791 321.359 323.656 320.928 323.453 319.731 324.4 318.957 325.537 319.386"/>
          <polygon class="cls-28" points="324.928 316.618 325.127 317.816 324.182 318.587 323.043 318.161 322.849 316.958 323.789 316.189 324.928 316.618"/>
          <polygon class="cls-28" points="340.184 308.14 340.39 309.338 339.441 310.115 338.307 309.689 338.102 308.486 339.051 307.709 340.184 308.14"/>
          <polygon class="cls-28" points="331.671 314.233 331.865 315.438 330.921 316.208 329.783 315.779 329.589 314.576 330.53 313.803 331.671 314.233"/>
          <polygon class="cls-28" points="327.885 314.84 328.079 316.042 327.144 316.81 326 316.388 325.801 315.184 326.746 314.411 327.885 314.84"/>
          <polygon class="cls-28" points="328.985 308.971 329.185 310.174 328.241 310.947 327.101 310.515 326.901 309.311 327.848 308.542 328.985 308.971"/>
          <polygon class="cls-28" points="325.77 309.661 325.968 310.863 325.027 311.635 323.882 311.208 323.689 310.004 324.63 309.233 325.77 309.661"/>
          <polygon class="cls-28" points="324.828 312.927 325.022 314.131 324.084 314.899 322.941 314.472 322.746 313.265 323.688 312.497 324.828 312.927"/>
          <polygon class="cls-28" points="335.523 315.883 335.725 317.084 334.786 317.852 333.645 317.428 333.441 316.226 334.39 315.45 335.523 315.883"/>
          <polygon class="cls-28" points="344.402 313.546 344.606 314.749 343.666 315.518 342.526 315.089 342.33 313.887 343.27 313.115 344.402 313.546"/>
          <polygon class="cls-28" points="344.367 316.674 344.567 317.877 343.629 318.646 342.489 318.219 342.293 317.016 343.233 316.246 344.367 316.674"/>
          <polygon class="cls-28" points="347.972 316.22 348.169 317.426 347.231 318.195 346.087 317.766 345.89 316.564 346.833 315.795 347.972 316.22"/>
        </g>
        <g>
          <polygon class="cls-28" points="374.48 298.396 374.675 299.598 373.733 300.37 372.592 299.939 372.399 298.74 373.337 297.965 374.48 298.396"/>
          <polygon class="cls-28" points="376.992 300.583 377.186 301.782 376.243 302.553 375.105 302.121 374.904 300.922 375.85 300.151 376.992 300.583"/>
          <polygon class="cls-28" points="371.298 299.008 371.492 300.213 370.548 300.979 369.41 300.55 369.214 299.345 370.155 298.575 371.298 299.008"/>
          <polygon class="cls-28" points="367.624 297.623 367.825 298.822 366.883 299.596 365.739 299.166 365.543 297.967 366.483 297.193 367.624 297.623"/>
          <polygon class="cls-28" points="364.495 298.346 364.692 299.551 363.754 300.32 362.614 299.891 362.41 298.69 363.353 297.919 364.495 298.346"/>
          <polygon class="cls-28" points="370.717 295.995 370.917 297.193 369.974 297.965 368.832 297.539 368.635 296.338 369.574 295.562 370.717 295.995"/>
          <polygon class="cls-28" points="368.149 294.385 368.34 295.593 367.401 296.363 366.266 295.932 366.066 294.732 367.005 293.958 368.149 294.385"/>
          <polygon class="cls-28" points="373.247 294.668 373.454 295.862 372.503 296.635 371.367 296.201 371.164 295.001 372.114 294.235 373.247 294.668"/>
          <polygon class="cls-28" points="368.859 291.486 369.059 292.685 368.114 293.463 366.978 293.032 366.781 291.83 367.72 291.055 368.859 291.486"/>
          <polygon class="cls-28" points="368.946 303.715 369.149 304.913 368.209 305.683 367.066 305.253 366.867 304.051 367.81 303.281 368.946 303.715"/>
          <polygon class="cls-28" points="372.147 305.678 372.341 306.882 371.403 307.649 370.264 307.221 370.063 306.019 371.005 305.25 372.147 305.678"/>
          <polygon class="cls-28" points="375.798 304.766 375.987 305.966 375.047 306.736 373.906 306.314 373.714 305.107 374.653 304.336 375.798 304.766"/>
          <polygon class="cls-28" points="368.97 307.026 369.174 308.224 368.224 308.997 367.089 308.565 366.89 307.363 367.834 306.593 368.97 307.026"/>
          <polygon class="cls-28" points="365.207 305.223 365.401 306.422 364.458 307.198 363.323 306.765 363.126 305.563 364.066 304.792 365.207 305.223"/>
          <polygon class="cls-28" points="373.909 308.501 374.107 309.699 373.167 310.478 372.027 310.042 371.825 308.84 372.769 308.069 373.909 308.501"/>
          <polygon class="cls-28" points="378.743 307.148 378.939 308.347 377.993 309.116 376.853 308.688 376.654 307.489 377.598 306.717 378.743 307.148"/>
          <polygon class="cls-28" points="365.491 309.261 365.691 310.463 364.748 311.236 363.611 310.808 363.407 309.608 364.355 308.833 365.491 309.261"/>
          <polygon class="cls-28" points="361.98 305.782 362.175 306.983 361.234 307.755 360.099 307.324 359.897 306.127 360.842 305.353 361.98 305.782"/>
          <polygon class="cls-28" points="361.371 303.013 361.57 304.212 360.625 304.983 359.485 304.557 359.292 303.354 360.233 302.584 361.371 303.013"/>
          <polygon class="cls-28" points="376.626 294.536 376.833 295.733 375.883 296.51 374.75 296.085 374.546 294.882 375.494 294.105 376.626 294.536"/>
          <polygon class="cls-28" points="368.114 300.628 368.308 301.834 367.364 302.605 366.226 302.174 366.031 300.972 366.972 300.2 368.114 300.628"/>
          <polygon class="cls-28" points="364.329 301.235 364.522 302.438 363.586 303.207 362.443 302.784 362.244 301.579 363.189 300.807 364.329 301.235"/>
          <polygon class="cls-28" points="365.428 295.366 365.627 296.57 364.684 297.342 363.544 296.911 363.344 295.707 364.291 294.938 365.428 295.366"/>
          <polygon class="cls-28" points="362.213 296.057 362.411 297.258 361.469 298.03 360.325 297.604 360.131 296.4 361.073 295.628 362.213 296.057"/>
          <polygon class="cls-28" points="361.271 299.323 361.465 300.527 360.526 301.295 359.383 300.867 359.189 299.661 360.13 298.892 361.271 299.323"/>
          <polygon class="cls-28" points="371.966 302.278 372.168 303.479 371.228 304.247 370.088 303.824 369.884 302.621 370.833 301.846 371.966 302.278"/>
          <polygon class="cls-28" points="380.845 299.942 381.049 301.144 380.109 301.914 378.968 301.485 378.773 300.283 379.713 299.511 380.845 299.942"/>
          <polygon class="cls-28" points="380.81 303.07 381.009 304.273 380.071 305.042 378.931 304.616 378.735 303.411 379.676 302.641 380.81 303.07"/>
          <polygon class="cls-28" points="384.415 302.617 384.612 303.822 383.674 304.592 382.53 304.161 382.333 302.96 383.275 302.191 384.415 302.617"/>
        </g>
        <g>
          <polygon class="cls-28" points="371.009 321.802 370.69 322.975 369.512 323.287 368.651 322.424 368.972 321.252 370.148 320.935 371.009 321.802"/>
          <polygon class="cls-28" points="372.389 324.831 372.069 326.004 370.892 326.314 370.035 325.45 370.349 324.275 371.529 323.966 372.389 324.831"/>
          <polygon class="cls-28" points="367.86 321.038 367.537 322.216 366.36 322.521 365.503 321.661 365.823 320.483 366.999 320.171 367.86 321.038"/>
          <polygon class="cls-28" points="365.091 318.255 364.776 319.431 363.599 319.745 362.736 318.88 363.053 317.707 364.231 317.392 365.091 318.255"/>
          <polygon class="cls-28" points="361.943 317.617 361.622 318.796 360.451 319.109 359.589 318.245 359.902 317.067 361.08 316.756 361.943 317.617"/>
          <polygon class="cls-28" points="368.58 318.056 368.264 319.23 367.087 319.541 366.224 318.68 366.542 317.505 367.72 317.188 368.58 318.056"/>
          <polygon class="cls-28" points="366.909 315.527 366.584 316.705 365.409 317.018 364.555 316.155 364.869 314.979 366.046 314.664 366.909 315.527"/>
          <polygon class="cls-28" points="371.433 317.896 371.125 319.069 369.941 319.378 369.087 318.513 369.399 317.337 370.581 317.034 371.433 317.896"/>
          <polygon class="cls-28" points="368.756 313.183 368.442 314.356 367.26 314.673 366.406 313.81 366.723 312.634 367.9 312.318 368.756 313.183"/>
          <polygon class="cls-28" points="363.769 324.349 363.459 325.523 362.283 325.834 361.42 324.97 361.738 323.793 362.915 323.483 363.769 324.349"/>
          <polygon class="cls-28" points="365.869 327.462 365.547 328.638 364.374 328.946 363.515 328.084 363.831 326.908 365.007 326.598 365.869 327.462"/>
          <polygon class="cls-28" points="369.568 328.144 369.245 329.315 368.069 329.626 367.206 328.77 367.531 327.59 368.707 327.278 369.568 328.144"/>
          <polygon class="cls-28" points="362.42 327.373 362.108 328.547 360.924 328.856 360.069 327.993 360.387 326.817 361.565 326.507 362.42 327.373"/>
          <polygon class="cls-28" points="359.74 324.171 359.422 325.344 358.242 325.659 357.388 324.794 357.708 323.618 358.883 323.306 359.74 324.171"/>
          <polygon class="cls-28" points="366.303 330.761 365.986 331.933 364.808 332.252 363.952 331.384 364.265 330.206 365.444 329.895 366.303 330.761"/>
          <polygon class="cls-28" points="371.263 331.531 370.945 332.705 369.766 333.013 368.905 332.149 369.22 330.976 370.4 330.666 371.263 331.531"/>
          <polygon class="cls-28" points="358.326 327.965 358.011 329.14 356.833 329.454 355.975 328.593 356.287 327.417 357.471 327.104 358.326 327.965"/>
          <polygon class="cls-28" points="356.572 323.343 356.253 324.517 355.076 324.83 354.223 323.967 354.534 322.794 355.715 322.481 356.572 323.343"/>
          <polygon class="cls-28" points="357.167 320.571 356.849 321.745 355.67 322.055 354.81 321.194 355.132 320.02 356.308 319.708 357.167 320.571"/>
          <polygon class="cls-28" points="374.562 319.176 374.253 320.352 373.068 320.667 372.213 319.809 372.525 318.629 373.711 318.316 374.562 319.176"/>
          <polygon class="cls-28" points="364.291 321.195 363.968 322.372 362.789 322.683 361.932 321.818 362.253 320.644 363.43 320.33 364.291 321.195"/>
          <polygon class="cls-28" points="360.593 320.178 360.271 321.354 359.102 321.665 358.236 320.807 358.554 319.627 359.735 319.315 360.593 320.178"/>
          <polygon class="cls-28" points="364.026 315.293 363.709 316.471 362.53 316.782 361.671 315.917 361.989 314.74 363.169 314.431 364.026 315.293"/>
          <polygon class="cls-28" points="360.815 314.589 360.495 315.764 359.321 316.077 358.455 315.215 358.776 314.039 359.954 313.727 360.815 314.589"/>
          <polygon class="cls-28" points="358.604 317.171 358.282 318.347 357.11 318.658 356.247 317.794 356.57 316.616 357.744 316.306 358.604 317.171"/>
          <polygon class="cls-28" points="367.112 324.293 366.798 325.468 365.626 325.779 364.763 324.921 365.075 323.742 366.26 323.43 367.112 324.293"/>
          <polygon class="cls-28" points="376.163 325.845 375.849 327.024 374.675 327.333 373.815 326.471 374.135 325.295 375.31 324.982 376.163 325.845"/>
          <polygon class="cls-28" points="374.834 328.676 374.518 329.854 373.344 330.166 372.483 329.305 372.805 328.127 373.98 327.817 374.834 328.676"/>
          <polygon class="cls-28" points="378.302 329.758 377.983 330.936 376.81 331.248 375.947 330.383 376.265 329.208 377.443 328.899 378.302 329.758"/>
        </g>
      </g>
    </g>
  </g>
</svg>
