<svg xmlns="http://www.w3.org/2000/svg" xmlns:xlink="http://www.w3.org/1999/xlink" width="377.93318" height="252.83189" viewBox="0 0 377.93318 252.83189">
  <defs>
    <style>
      .cls-1 {
        fill: #ffb966;
      }

      .cls-2 {
        fill: #e8940f;
      }

      .cls-3 {
        fill: #231f20;
      }

      .cls-4 {
        fill: url(#radial-gradient);
      }

      .cls-5 {
        fill: url(#radial-gradient-2);
      }

      .cls-6 {
        fill: url(#radial-gradient-3);
      }

      .cls-7 {
        fill: #d68209;
      }

      .cls-8 {
        fill: #ffa829;
      }

      .cls-9 {
        fill: #c97506;
      }

      .cls-10 {
        fill: #000068;
        opacity: 0.4;
      }

      .cls-11, .cls-14 {
        fill: #fff;
      }

      .cls-12 {
        fill: #ffb048;
      }

      .cls-13 {
        opacity: 0.6;
      }

      .cls-14 {
        opacity: 0.3;
      }

      .cls-15 {
        fill: #ffdc6c;
      }

      .cls-16 {
        opacity: 0.7;
      }
    </style>
    <radialGradient id="radial-gradient" cx="235.78578" cy="146.38121" r="39.86449" gradientUnits="userSpaceOnUse">
      <stop offset="0" stop-color="#ffeb60"/>
      <stop offset="0.126" stop-color="#fee459"/>
      <stop offset="0.30988" stop-color="#fad245"/>
      <stop offset="0.52807" stop-color="#f5b326"/>
      <stop offset="0.73469" stop-color="#ee9001"/>
      <stop offset="0.7398" stop-color="#ee9001"/>
    </radialGradient>
    <radialGradient id="radial-gradient-2" cx="121.74403" cy="168.21186" r="48.95395" xlink:href="#radial-gradient"/>
    <radialGradient id="radial-gradient-3" cx="118.81131" cy="86.42703" r="56.28434" xlink:href="#radial-gradient"/>
  </defs>
  <g id="图层_2" data-name="图层 2">
    <g id="Layer_1" data-name="Layer 1">
      <g>
        <g>
          <path class="cls-1" d="M87.57378,150.02253s23.6953,62.5908,88.9424,81.4306c38.0801,11.1201,56.6358,3.6953,56.6358,3.6953s-42.6045,8.4522-83.1905-19.1006c-18.082-11.789-39.3545-38.0888-38.5527-47.8388C104.79748,160.89163,92.86388,159.76863,87.57378,150.02253Z"/>
          <path class="cls-2" d="M84.01618,148.18553s16.6797,62.5,79.0069,91.4971c36.3603,17.0488,55.6425,12.6358,55.6425,12.6358s-43.2207,1.625-80.0674-32.0987c-16.4726-14.5429-34.3437-47.9834-32.3681-57.5097C94.99378,154.78523,96.14848,157.97753,84.01618,148.18553Z"/>
          <g>
            <g>
              <g>
                <path class="cls-3" d="M221.68808,151.14163s16.124,17.9277,28.9717,22.083c18,5.8164,18.2373-4.8457,19.6582-18.4678,2.09472-19.9785,8.2011-24.1064,8.2011-24.1064s-16.5566-1.751-26.0459,4.5723C242.9977,141.56053,221.68808,151.14163,221.68808,151.14163Z"/>
                <path class="cls-4" d="M220.77008,149.38383s16.1231,17.9297,28.9737,22.083c17.997,5.8184,18.2373-4.8389,19.6552-18.4629,2.09572-19.9814,8.2012-24.1094,8.2012-24.1094s-16.5586-1.75-26.0449,4.5742C242.0787,139.80573,220.77008,149.38383,220.77008,149.38383Z"/>
                <path class="cls-1" d="M263.19978,155.82713c-3.6973-.9072-31.9873-10.332-31.9873-10.332s17.8447,7.8037,24.5947,10.1133c5.7764,1.96,10.5879,5.0967,12.3692,7.1152.4365-2.497.7138-5.3086,1.0136-8.2715A7.893,7.893,0,0,1,263.19978,155.82713Zm2.4141-8.4921c-3.6973-.4629-27.6504-3.9063-29.4229-4.3721,0,0,12.3848,4.1396,19.2959,5.0605a68.627,68.627,0,0,1,14.0029,3.7803c.2237-1.8437.4698-3.5898.75592-5.1572A7.54632,7.54632,0,0,1,265.61388,147.335Zm-41.0791.625a139.19341,139.19341,0,0,0,33.0381,17.9795c4.0019,1.4931,5.7871,3.6904,6.5664,5.5439a11.34292,11.34292,0,0,0,3.39742-5.9619,45.17643,45.17643,0,0,0-13.81932-5.5528C241.34428,156.98053,223.818,147.55763,224.53478,147.96Zm32.5586-12.4424c4.8994-.6905,14.915-1.9024,16.1259-.5166a1.55859,1.55859,0,0,0,.2793.2304,22.26434,22.26434,0,0,1,2.1954-3.9951C273.05428,131.874,262.23008,134.51073,257.09338,135.51763Zm0,0c-1.6133.2324-2.67868.4023-2.67868.4023A14.50043,14.50043,0,0,0,257.09338,135.51763Zm-12.97068,4.3115s22.02538.9131,25.07908,2.5225a5.89155,5.89155,0,0,1,1.6621,1.207,50.89426,50.89426,0,0,1,1.6494-5.7852c-1.5674.5948-4.3721,1.5254-6.3652,1.3672C263.25348,138.90823,244.1227,139.82913,244.1227,139.82913Z"/>
              </g>
              <g>
                <path class="cls-3" d="M115.62748,162.498s24.0215,49.6221,42.9864,43.3399c18.96582-6.2861,13.2822-29.0742,6.5439-38.6865-9.581-13.6778-23.3183-11.9317-23.3183-11.9317Z"/>
                <path class="cls-5" d="M113.79648,161.35843s24.0225,49.6182,42.9853,43.3369c18.96492-6.2871,13.2823-29.0781,6.543-38.6855-9.58008-13.6778-23.3183-11.9336-23.3183-11.9336Z"/>
                <path class="cls-1" d="M135.97718,186c-7.8868-7.8154-20.2413-23.0156-21.6719-24.7803l-.0274.002c1.2002,1.8808,13.3623,20.7119,26.1846,33.7011a85.13657,85.13657,0,0,0,12.2754,10.4493,10.81031,10.81031,0,0,0,3.5644-.544,22.59968,22.59968,0,0,0,3.6836-1.623C155.44488,201.44733,147.13438,197.04983,135.97718,186Zm28.47552-17.2305a13.53061,13.53061,0,0,1-8.94532,1.5557c-5.5205-.8252-29.6513-9.7734-29.6513-9.7734s25.8632,14.1845,29.9492,14.7636c3.2597.46,9.7617,1.9932,12.27542,2.5928A39.40777,39.40777,0,0,0,164.4527,168.76953Zm-46.04492-7.6894s18.1992,19.1445,28.9961,26.6992c7.9219,5.541,13.7861,10.4287,16.3652,12.6494a16.72587,16.72587,0,0,0,4.2491-6.6875,65.43491,65.43491,0,0,1-19.35448-8.7988C138.61678,178.10553,118.40778,161.08013,118.40778,161.08013Zm3.1973-.5723s16.625,13.3682,28.93062,21.3906c8.91608,5.8106,15.41018,7.8409,18.31648,8.5176a28.32082,28.32082,0,0,0-.044-8.959,32.50631,32.50631,0,0,1-11.26848-.9101C145.46448,176.80863,121.60508,160.50783,121.60508,160.50783Zm40.0273,4.0596a28.50054,28.50054,0,0,0-6.457-6.0459,23.49153,23.49153,0,0,1-6.4736,1.4746c-6.918.5996-17.4356-.9951-17.4356-.9951s9.8682,4.2275,16.6651,5.8506C153.27008,166.11913,159.2857,165.082,161.63238,164.56743Z"/>
              </g>
              <g>
                <path class="cls-3" d="M228.34818,95.14553s-.9072-4.1455-.416-15.1982c.4951-11.1758,1.4092-22.5118,17.8321-13.8672,16.7773,8.8193,21.998,12.6289,31.39942,17.4101,14.44718,7.3535,23.44328,9.5215,23.44328,9.5215l2.9952,21.4063Z"/>
                <path class="cls-2" d="M228.35308,96.45513s-.9072-4.1465-.4189-15.1983c.5-11.1748,1.414-22.5107,17.8349-13.8681,16.7774,8.8232,21.9981,12.6308,31.3995,17.4111,14.4492,7.3584,23.4453,9.5234,23.4453,9.5234l2.9912,21.4063Z"/>
                <path class="cls-1" d="M267.19488,86.06933a44.944,44.944,0,0,1,8.7383-1.8027c-1.3389-.7061-2.6133-1.3975-3.8574-2.0869-2.9326.5879-7.3643,1.8027-10.2783,4.084-4.6856,3.6689-13.71878,11.3466-13.71878,11.3466S261.64408,87.85353,267.19488,86.06933Zm17.7559,2.5821q-2.2911-1.03275-4.8506-2.2813c-3.7227.5508-9.1543,1.6445-12.1592,3.6533-4.874,3.2442-11.0166,7.5801-11.0166,7.5801s13.3447-7.1289,19.3721-7.8779C279.29548,89.36333,282.4957,88.96093,284.95078,88.65143Zm-49.4287-16.875c1.2021-2.4795,2.5713-4.958,3.63862-6.8047a9.47578,9.47578,0,0,0-4.72752-.0225,31.73131,31.73131,0,0,0-1.8037,11.6963c.3389,7.6758.5947,20.0303.5947,20.0303S233.1617,76.65043,235.52208,71.77643Zm12.80762-2.9327c-.71582-.3847-1.43752-.7666-2.207-1.1718-.63972-.3379-1.22562-.5928-1.82042-.875-2.1181,1.7685-5.30458,5.0195-5.7441,8.9004-.6689,5.8613-5.334,20.9785-5.334,20.9785s6.8203-18.1231,10.6846-23.1895A28.43359,28.43359,0,0,1,248.3297,68.84373Zm41.18358,21.7657A47.96708,47.96708,0,0,0,278.61,92.458a62.69688,62.69688,0,0,0-10.959,5.7852s8.082-3.958,12.8955-4.6553c3.1211-.4375,8.8506-1.1367,12.5107-1.5811C291.97808,91.60253,290.7877,91.13673,289.51328,90.60943Zm-30.3848-15.8496c-1.3857-.7832-2.8672-1.6094-4.4834-2.5039-2.8047,1.1484-6.6152,3.2177-7.8965,6.2539-2.1191,5.0166-11.041,17.9521-11.041,17.9521s10.29012-14.5771,14.5772-16.7998C253.33358,78.09183,257.16858,75.89363,259.12848,74.75983Zm-.0322,8.6992c3.85742-1.3067,7.6387-2.3145,10.0586-2.9258q-1.66995-.9654-3.4736-2.0059c-3.1807,1.0157-8.9991,3.2149-13.3477,6.7647a137.40459,137.40459,0,0,0-11.96388,11.3096S252.67538,85.64753,259.09628,83.459Z"/>
              </g>
              <g>
                <path class="cls-3" d="M85.067,81.25393a291.785,291.785,0,0,1,3.166-38.8945c3.2803-23.0747,9.38872-40.7134,16.6333-41.9771,22.6997-3.9785,32.8687,24.0156,54.1226,41.104,17.29782,13.9082,48.7773,34.9473,46.7246,45.9561C203.58558,98.873,85.067,81.25393,85.067,81.25393Z"/>
                <path class="cls-6" d="M85.067,84.06153A291.755,291.755,0,0,1,88.233,45.168c3.2803-23.0743,9.38872-40.7139,16.6333-41.9815,22.6997-3.9751,32.8687,24.0205,54.1226,41.1094,17.29782,13.9072,48.7773,34.9463,46.7246,45.9531C203.58558,101.67973,85.067,84.06153,85.067,84.06153Z"/>
                <path class="cls-1" d="M165.32288,49.27443c-1.9581-1.5049-3.835-2.9619-5.57618-4.3437-6.33892,1.1025-16.10552,3.5302-20.961,8.4463a102.139,102.139,0,0,0-13.45992,17.8945s18.2158-17.8945,26.33792-18.8887A93.16238,93.16238,0,0,0,165.32288,49.27443Zm-10.1221-8.2129c-1.8955-1.7275-3.6787-3.5537-5.418-5.3896-4.7207.248-11.8945,1.6621-16.9355,7.4258-8.1143,9.2851-17.0977,30.581-17.0977,30.581s14.5264-24.9424,22.4365-28.2607C142.902,43.45123,150.11778,41.94733,155.20078,41.06153Zm22.2041,25.9014a96.0101,96.0101,0,0,0,11.3691.7187c-2.123-1.8066-4.33-3.5996-6.5996-5.4062-4.4482-.0879-10.97068.4082-16.2588,3.3711a135.04924,135.04924,0,0,0-12.08,7.2851S169.08258,65.96873,177.40488,66.96293Zm-62.6856-63.3394a22.2938,22.2938,0,0,0-7.57558-.6181c-3.71592,4.4238-9.021,13.0229-11.92192,28.1606-3.7925,19.8711-7.7202,51.3779-7.7202,51.3779s9.7109-51.7119,16.4355-64.9751A43.70554,43.70554,0,0,1,114.71928,3.62353Zm62.3506,54.6538c-2.1533-1.6601-4.2949-3.3086-6.4013-4.9121-4.044-.6562-9.3477-.666-13.6612,2.3272-8.1181,5.6318-19.8076,15.2549-19.8076,15.2549s18.0215-11.9317,27.5234-12.9346A53.69225,53.69225,0,0,1,177.06988,58.27733Zm16.71682,13.8204a79.19671,79.19671,0,0,0-11.43852.1699c-5.3427.664-10.2988,4.3183-10.2988,4.3183s11.6895-2.9931,18.0215-1.0078a24.47763,24.47763,0,0,0,8.2412.9444C196.93518,75.07813,195.41948,73.59283,193.7867,72.09773ZM113.84038,20.229c5.07232-6.7876,9.5479-9.4966,12.1328-10.5664a37.28607,37.28607,0,0,0-4.9824-3.4648,36.89709,36.89709,0,0,0-14.6699,20.6591c-4.3623,15.9077-13.6719,53.0415-13.6719,53.0415S105.91948,30.832,113.84038,20.229Zm10.4922,7.2896a55.33448,55.33448,0,0,1,11.586-7.7945c-1.6807-1.9243-3.3526-3.7671-5.0342-5.4878a19.30524,19.30524,0,0,0-12.292,9.6328c-4.9541,9.6187-17.6211,53.0352-17.6211,53.0352S115.6197,34.81353,124.33258,27.51863Zm6.7364,9.6084a48.07293,48.07293,0,0,1,12.9238-7.899q-1.8663-2.1804-3.6699-4.3159c-3.8623,1.5708-12.8497,5.7959-16.3829,12.2149-4.5537,8.291-16.0405,38.1259-16.0405,38.1259S122.35408,44.42773,131.069,37.127Z"/>
              </g>
              <g>
                <g>
                  <path class="cls-2" d="M5.22078,125.69533s-9.6377-2.8271-2.5005-8.3359c7.0576-5.4483,55.8223-43.7647,157.27742-41.1602,101.45408,2.6133,141.51658,20.4717,175.041,14.8057,12.62788-3.4766,21.33488-7.835,24.38278,3.9228,3.0488,11.7539,3.0488,25.2539-3.4805,27.4307-6.5342,2.1787-16.9824-5.2344-24.3838-1.7461-7.4033,3.4883-142.8232,48.3389-201.60248,48.7686-58.78612.4394-66.18852-3.4873-91.875-13.4981C12.38928,145.87213-10.65862,124.46483,5.22078,125.69533Z"/>
                  <path class="cls-7" d="M361.2867,106.14943a21.72811,21.72811,0,0,0-.53512,3.0039c-1.1026,9.7031-39.04888,7.9404-47.6573,8.3848-8.6015.4394-23.8252,3.9736-59.789,8.1592-35.961,4.1933-66.6289,16.9941-84.502,21.1816-17.8701,4.1924-21.6201,6.6201-63.978-3.3086-3.4438,15.7051-21.5337,23.2109-24.6772,24.1875,11.4658,1.2881,26.6367,1.7979,49.80662,1.6231,58.77928-.4297,194.19918-45.2803,201.60248-48.7686,7.4014-3.4883,17.8496,3.9248,24.3838,1.7461a5.16638,5.16638,0,0,0,1.3389-.6924c1.2392-2.1631,2.42582-4.2646,3.5039-6.1953A33.57784,33.57784,0,0,0,361.2867,106.14943Z"/>
                  <path class="cls-3" d="M59.48888,108.18853s30.166,10.0586,29.67182,33.0234c-.374,13.2891-17.75482,22.3535-22.102,23.0908,10.67678.9932,30.79438-4.7138,29.54928-25.0761C95.3697,118.87113,68.05528,108.93263,59.48888,108.18853Z"/>
                  <path class="cls-8" d="M361.09628,104.02643a62.962,62.962,0,0,0-1.6748-9.0987c-3.0479-11.7578-11.7549-7.3994-24.38278-3.9228-33.52442,5.666-73.58692-12.1924-175.041-14.8057C110.30818,74.92483,73.294,83.46093,47.589,93.15043c12.2065,2.1494,38.6548,8.5019,53.8579,24.8691,20.2324,21.7832,25.834,16.4981,56.6465,9.3408,30.8125-7.1621,111.4199-12.4541,140.3701-17.1162C324.609,106.02153,354.81018,113.73443,361.09628,104.02643Z"/>
                  <path class="cls-9" d="M54.81848,107.35843s30.1709,10.0537,29.6723,33.0234c-.3745,13.2852-17.7495,22.3487-22.0976,23.0909,10.6753.9902,30.7949-4.7159,29.5512-25.0791C90.69878,118.04,63.38578,108.10163,54.81848,107.35843Z"/>
                  <g>
                    <path class="cls-10" d="M26.52738,124.17193a12.16574,12.16574,0,1,0,12.1646-12.0147A12.09238,12.09238,0,0,0,26.52738,124.17193Z"/>
                    <g>
                      <path class="cls-11" d="M26.17638,121.94043a10.79184,10.79184,0,1,0,10.789-10.6572A10.71718,10.71718,0,0,0,26.17638,121.94043Z"/>
                      <path d="M28.40048,121.94043a8.56654,8.56654,0,1,0,8.5649-8.4619A8.51036,8.51036,0,0,0,28.40048,121.94043Z"/>
                      <path class="cls-11" d="M44.05528,121.23053a8.3831,8.3831,0,0,0-2.2193-5.6924,8.275,8.275,0,0,1,2.8868,6.2969,8.06826,8.06826,0,0,1-7.9038,8.2246,7.72958,7.72958,0,0,1-5.6807-2.5244,7.65993,7.65993,0,0,0,5.0181,1.9111A8.06085,8.06085,0,0,0,44.05528,121.23053Z"/>
                      <path class="cls-11" d="M31.1617,119.32623a3.52246,3.52246,0,1,0,3.52538-3.4834A3.50657,3.50657,0,0,0,31.1617,119.32623Z"/>
                      <path class="cls-11" d="M31.01518,124.416a1.16751,1.16751,0,1,0,1.1651-1.1435A1.15887,1.15887,0,0,0,31.01518,124.416Z"/>
                    </g>
                  </g>
                  <path class="cls-12" d="M346.9557,87.73243c-3.42292.6953-7.416,2.0303-11.917,3.2725-33.52442,5.666-73.58692-12.1924-175.041-14.8057-41.29692-1.0625-73.81212,4.6641-98.38382,12.1875,8.813,4.1924,37.333,15.9444,76.0332,13.4795,46.9199-2.9834,155.2568,3.8457,185.541-3.8389C333.43808,95.43163,341.72618,91.75593,346.9557,87.73243Z"/>
                  <path class="cls-11" d="M99.30628,116.65233s16.77142,29.376,48.7607,23.8272c31.9893-5.543,127.085-27.1387,172.9795-30.5098-100.2305,6.3965-126.2344,9.9658-141.207,11.7539-25.8155,3.0909-37.9512,14.7842-57.586,9.2715A47.05415,47.05415,0,0,1,99.30628,116.65233Z"/>
                  <path class="cls-3" d="M4.11578,133.18753s36.231,31.582,63.8184,24.2695c7.6421-1.998,17.8701-19.5351,1.9951-34.2353,1.98242,6.1728,2.5439,26.9687-11.3638,27.0849C44.50648,150.42973,18.07728,144.82813,4.11578,133.18753Z"/>
                </g>
                <path class="cls-9" d="M129.9547,169.38093c50.334-.3692,156.86618-33.3125,191.081-44.9551-56.37982-2.5156-100.57032,17.8281-127.29782,27.9902-27.6523,10.5166-52.1895,7.0127-81.0088,3.8945-4.4272,5.0157-16.2153,10.0313-22.1846,12.336C100.57238,169.27443,113.15388,169.51173,129.9547,169.38093Z"/>
                <path class="cls-1" d="M159.9977,76.19923c-32.542-.8379-59.61482,2.5528-81.66362,7.7012,10.3955,4.5273,36.5893,13.6592,72.5532,10.0947,47.127-4.6699,102.044.7783,123.4629,1.167,18.7881.3418,43.2598,1.8809,58.1934-3.793C299.49858,95.78813,258.94488,78.752,159.9977,76.19923Z"/>
              </g>
            </g>
            <g class="cls-13">
              <path class="cls-14" d="M172.77308,80.88673c52.3193.9727,93.1728,11.5596,93.14062,24.0371-.04892,20.4024-175.06112,21.8067-179.749,1.2676C81.47718,85.65623,145.51128,80.38093,172.77308,80.88673Z"/>
              <path class="cls-14" d="M182.55328,83.63283c25.8926.4815,46.1133,5.7227,46.0996,11.8994-.0254,10.0967-86.6435,10.7891-88.9668.625C137.36578,85.99323,169.05918,83.38283,182.55328,83.63283Z"/>
            </g>
          </g>
        </g>
        <path class="cls-15" d="M308.33948,128.13673s4.0664.875,11.82122,8.0225c7.75488,7.1533,37.959,43.3506,55.39358,33.2265-6.8105-8.122-9.0732-11.1494-7.93158-23.0693,1.14448-11.9219,9.581-39.6113,5.86518-53.9023-3.7119-14.2871.0439-26.2246,4.4453-32.0059,0,0-5.3428-1.4121-22.2529,6.0391-16.9141,7.4521-38.3613,23.7802-45.4024,24.5429C303.24178,91.75593,308.33948,128.13673,308.33948,128.13673Z"/>
        <path class="cls-8" d="M371.82288,170.64363c-15.1309.3935-30.3946-17.8907-29.61818-33.5313.77728-15.6377-.51072-30.8486,4.29488-51.6924,3.0088-13.0205,14.6729-20.3379,23-23.9883a92.314,92.314,0,0,0-13.8193,5.0157c-16.9141,7.4521-38.3613,23.7802-45.4024,24.5429-7.0361.7657-1.9384,37.1465-1.9384,37.1465s4.0664.875,11.82122,8.0225c7.33208,6.7597,34.71,39.4472,52.41308,34.4638C372.32288,170.62993,372.0807,170.63873,371.82288,170.64363Z"/>
        <g class="cls-16">
          <path class="cls-11" d="M311.75058,94.57133s.8252-.502,2.2715-1.3789c1.4511-.8692,3.5254-2.0996,6.0322-3.5039,1.2549-.7022,2.6016-1.5049,4.0508-2.2637,1.4433-.7754,2.9687-1.5937,4.543-2.4424,3.1513-1.7002,6.5673-3.3056,9.9501-5.0215,1.7139-.7695,3.4297-1.5429,5.1182-2.3047,1.6904-.7382,3.3389-1.539,4.9649-2.1816,1.6279-.6211,3.2041-1.2217,4.6972-1.7939,1.4951-.5596,2.9014-1.125,4.208-1.585,5.2881-1.5371,8.8155-2.5605,8.8155-2.5605s-3.5069,1.1416-8.7588,2.8505c-1.3008.5059-2.6953,1.1182-4.1768,1.7276-1.4785.6211-3.0391,1.2715-4.6533,1.9492-1.60838.6953-3.2432,1.5469-4.918,2.3418-1.667.8154-3.3642,1.6435-5.0595,2.4736-3.3458,1.8233-6.7247,3.5391-9.836,5.3389-1.5556.8975-3.0605,1.7627-4.4883,2.5859-1.4297.8047-2.7578,1.6504-3.9951,2.3926-2.4756,1.4854-4.5156,2.7783-5.9404,3.6875-1.4258.9238-2.2393,1.4492-2.2393,1.4492Z"/>
          <path class="cls-11" d="M313.01328,98.43163s.8183-.3418,2.2549-.9375c1.4424-.5859,3.5-1.4345,5.9814-2.374,2.4688-.9814,5.37112-2.0342,8.4824-3.1484,1.55372-.5723,3.1621-1.1348,4.8086-1.6582,1.6416-.5371,3.3067-1.083,4.9766-1.6299,1.6621-.5791,3.35252-.9834,5.001-1.4766,1.6543-.4697,3.2793-.9326,4.85352-1.3799,3.167-.7431,6.13178-1.3779,8.666-1.9531,1.27248-.2431,2.45118-.3447,3.48828-.497,1.039-.1368,1.9443-.2559,2.6904-.3536,1.4932-.1972,2.3418-.3086,2.3418-.3086s-.8467.1416-2.335.3907c-.7441.125-1.6464.2773-2.68348.4492-1.03232.1894-2.20412.333-3.46882.6181-2.5234.6631-5.4668,1.4043-8.6133,2.2559-1.5605.502-3.1767,1.0225-4.8154,1.5508-1.6348.5488-3.31348,1.0117-4.96,1.6465-1.6533.6045-3.30948,1.209-4.93648,1.8037-1.62992.5791-3.22362,1.1953-4.76272,1.8232-3.083,1.2188-5.957,2.3721-8.4014,3.4366-2.45988,1.0263-4.4873,1.9394-5.9082,2.5742-1.4238.6465-2.2353,1.0166-2.2353,1.0166Z"/>
          <path class="cls-11" d="M313.40778,102.39163c0,.002,3.3535-.8096,8.3926-1.8252,2.5205-.5137,5.4639-1.0674,8.6221-1.6113,3.15822-.5283,6.53222-1.0655,9.915-1.4834,1.6904-.2188,3.3789-.4239,5.0488-.5752,1.667-.1807,3.3086-.3047,4.89942-.4024,1.58788-.1318,3.125-.1621,4.585-.2021,1.45608-.0742,2.83688-.0088,4.10938.0117,1.2715-.0019,2.4385.1211,3.4687.2139a20.09129,20.09129,0,0,1,2.667.3301c1.4698.2675,2.3115.4238,2.3115.4238s-.8437-.126-2.3183-.3418a19.43275,19.43275,0,0,0-2.667-.2324c-1.03028-.0567-2.1924-.1397-3.4648-.0889-1.2696.0234-2.6436.0098-4.0997.1328-1.4531.0928-2.9853.1768-4.5683.3672-1.582.1533-3.2188.333-4.877.5771-1.6582.2071-3.3408.4698-5.0224.7481-3.3643.54-6.7178,1.1953-9.8594,1.835-3.13668.6582-6.0615,1.3115-8.5645,1.9111-5.0087,1.1982-8.3193,2.1211-8.3193,2.123Z"/>
          <path class="cls-11" d="M313.05228,106.31453s3.253.4091,8.1368,1.0224c4.8828.5889,11.3965,1.3652,17.914,2.0049,3.2598.3457,6.5205.6416,9.5782.876,1.5302.1162,3.0087.2705,4.4082.3447,1.40522.0742,2.7304.1416,3.956.207,1.2246.0459,2.3486.1602,3.3408.1348.9952-.0117,1.8633-.0234,2.5791-.0332,1.4327-.0186,2.2461-.0303,2.2461-.0303s-.8134.0401-2.2441.1143c-.7139.0371-1.583.0791-2.5811.1299-.9951.0605-2.1201-.0108-3.3457-.0108-1.2256-.0195-2.5537-.042-3.96188-.0605-1.40532-.0215-2.88382-.1211-4.416-.1836-3.06542-.1211-6.334-.2959-9.60162-.5215-6.5341-.3975-13.06338-.9326-17.9609-1.3389-4.89648-.4326-8.1621-.7217-8.1621-.7217Z"/>
          <path class="cls-11" d="M312.82478,111.10843s3.0664,1.0625,7.7197,2.4414c2.32822.6768,5.0459,1.4541,7.9688,2.1934,2.9228.7646,6.0527,1.4785,9.1875,2.1347,3.1367.6553,6.2881,1.1885,9.2451,1.628,1.4814.1757,2.9121.3505,4.2695.5136,1.36332.1045,2.6485.2022,3.8389.293,1.1885.0322,2.2793.0625,3.2441.0859.9698.0489,1.8116-.0234,2.5049-.0468,1.3907-.0625,2.1826-.0977,2.1826-.0977s-.7919.0654-2.1806.1816c-.6934.0489-1.5352.1534-2.5039.1416-.9678.0118-2.0635.0235-3.2539.0372-1.1905-.044-2.4834-.0948-3.8477-.1465-1.3652-.1114-2.8047-.2295-4.293-.3506-2.9716-.3281-6.1416-.7393-9.2988-1.2774-3.1582-.5371-6.3115-1.1347-9.2529-1.788-2.9502-.6299-5.69238-1.3086-8.041-1.8975-4.6895-1.2022-7.8076-2.1572-7.8076-2.1572Z"/>
          <path class="cls-11" d="M312.25738,116.42193s12.23832,5.4248,24.667,9.9687a150.12911,150.12911,0,0,0,17.2285,5.3789,28.717,28.717,0,0,0,5.7823.8184,6.98791,6.98791,0,0,0,1.6259-.1348c.3692-.0859.5674-.1347.5674-.1347s-.1953.0556-.5654.1572a7.23553,7.23553,0,0,1-1.6279.1953,28.518,28.518,0,0,1-5.81548-.6045,147.56922,147.56922,0,0,1-17.36522-4.7344c-12.5361-4.0781-24.9063-9.0547-24.9063-9.0547Z"/>
          <path class="cls-11" d="M312.07088,120.54693s2.8926,2.0439,7.374,4.7998c1.1201.6699,2.3272,1.4345,3.627,2.1719,1.291.7529,2.6582,1.5419,4.081,2.3154,1.4161.8008,2.9004,1.5635,4.4043,2.3447,1.502.7998,3.0528,1.502,4.5899,2.2647,1.5537.6953,3.1074,1.3925,4.6367,2.0791,1.54492.6064,3.0586,1.248,4.5391,1.792,1.4882.5048,2.916,1.0468,4.288,1.4628,1.3741.3936,2.67482.7627,3.8741,1.1045,1.2119.2627,2.3203.5,3.3066.7139a24.22058,24.22058,0,0,0,2.5625.3955c1.4258.1865,2.2393.293,2.2393.293s-.8164-.0772-2.2442-.209c-.7138-.0928-1.5879-.0889-2.5742-.2998-.9902-.1797-2.1064-.377-3.3252-.5938-1.209-.2998-2.5205-.6201-3.9082-.9619-1.3818-.3681-2.8252-.8584-4.3281-1.3095-1.4951-.4932-3.0244-1.0791-4.5899-1.6329-1.54588-.6298-3.1181-1.2695-4.6923-1.9111-1.5577-.707-3.1299-1.3555-4.6534-2.1045-1.5254-.7275-3.0273-1.4394-4.4668-2.1904-1.4463-.7207-2.832-1.4619-4.1455-2.1738-1.3183-.6905-2.54388-1.4161-3.6904-2.0459-4.5439-2.6006-7.52048-4.5625-7.52048-4.5625Z"/>
          <path class="cls-11" d="M311.99858,125.70023s3.0957,2.6953,7.91612,6.3896c2.41108,1.8418,5.23628,3.9551,8.31248,6.0899,3.0693,2.165,6.3876,4.332,9.7382,6.4209,1.6885.9951,3.3604,2.0459,5.0391,2.9756,1.6836.9101,3.3184,1.8935,4.9443,2.6816,1.6231.7881,3.169,1.6602,4.6807,2.2949,1.5039.6563,2.916,1.3418,4.24122,1.8604,1.32808.5088,2.54588.9765,3.62788,1.3877,1.0762.414,2.03912.6543,2.8223.9121,1.5703.4863,2.46782.7627,2.46782.7627s-.90042-.2471-2.48152-.6787c-.7832-.2373-1.7558-.4424-2.8418-.8233-1.0879-.3769-2.3154-.8027-3.6552-1.2675-1.337-.4766-2.7598-1.1163-4.2803-1.7256-1.5283-.5879-3.0889-1.4063-4.7305-2.1465-1.6435-.7344-3.2988-1.669-5.0039-2.5225-1.6992-.8789-3.3945-1.8769-5.1064-2.8183-3.3975-1.9883-6.7666-4.0528-9.8828-6.1202-3.127-2.0419-5.9991-4.0742-8.4541-5.8418-4.89748-3.5478-8.0811-6.1728-8.0811-6.1728Z"/>
        </g>
      </g>
    </g>
  </g>
</svg>
