<svg xmlns="http://www.w3.org/2000/svg" xmlns:xlink="http://www.w3.org/1999/xlink" width="481.29933" height="209.1094" viewBox="0 0 481.29933 209.1094">
  <defs>
    <style>
      .cls-1 {
        fill: none;
      }

      .cls-2, .cls-24 {
        fill: #fff;
      }

      .cls-3, .cls-6 {
        fill: #252124;
      }

      .cls-4, .cls-7 {
        fill: #c18a30;
      }

      .cls-5 {
        clip-path: url(#clip-path);
      }

      .cls-10, .cls-11, .cls-12, .cls-13, .cls-15, .cls-16, .cls-17, .cls-18, .cls-19, .cls-20, .cls-22, .cls-6, .cls-7, .cls-9 {
        fill-rule: evenodd;
      }

      .cls-8 {
        fill: #423e43;
      }

      .cls-9 {
        fill: #db9700;
      }

      .cls-10 {
        fill: #eae2b8;
        opacity: 0.6;
      }

      .cls-11, .cls-14 {
        fill: #231f20;
      }

      .cls-12 {
        fill: #a6a8ab;
      }

      .cls-13 {
        fill: #fffbd4;
      }

      .cls-15 {
        fill: #dfd5b8;
      }

      .cls-16 {
        fill: #c8c0b8;
      }

      .cls-17 {
        fill: #928d89;
      }

      .cls-18 {
        fill: #605d59;
      }

      .cls-19 {
        fill: #b1aaa2;
      }

      .cls-20 {
        fill: #716f6e;
      }

      .cls-21 {
        fill: #474543;
      }

      .cls-22 {
        fill: #282727;
      }

      .cls-23 {
        opacity: 0.5;
      }

      .cls-24 {
        opacity: 0.3;
      }
    </style>
    <clipPath id="clip-path">
      <path class="cls-1" d="M257.65435,66.0103s6.1904-5.5444,7.8945-10.1831c0,0,5.2207,3.6977,8.6357-2.1367a8.17637,8.17637,0,0,0,8.1963-2.9297s2.85009,2.8779,7.35739-1.1236c0,0-.1801,5.1426,6.9644-.8227,0,0,2.1269.3926,1.9038,1.8623,0,0,6.5264-5.396,6.543-.9815,0,0,5.8042-1.9741,5.57661,2.0171,0,0,8.51129-3.3564,8.69239,1.2525,0,0,7.5991-4.2534,8.7202.3354,0,0,8.9092-2.6264,7.67241,3.438,0,0,7.55369-2.9961,7.32469,3.5171,0,0,7.23-3.5498,7.90331,4.0615,0,0,6.77739-2.7593,6.96139,6.6626,0,0,5.0025,1.3262,3.2295,7.9068,0,0,1.9527,2.4961.0332,7.3418,0,0,1.8604,4.5532-.7876,6.7983,0,0,2.2823,10.6733-9.354,12.7817,0,0-13.8154,3.3775-11.5459,11.8716Z"/>
    </clipPath>
  </defs>
  <g id="图层_2" data-name="图层 2">
    <g id="Layer_1" data-name="Layer 1">
      <g>
        <path class="cls-2" d="M5.59715,110.1128c-3.1445-.4214-4.3262,2.6221-2.2168,7.6841,0,0,6.6045,4.2798,9.6455,7.5181-2.771,1.4902-11.352-6.2447-11.352-6.2447-1.2017-.2368-3.3862,2.5606.6777,6.1817,9.8936,6.6445,20.0078,8.8506,30.0415,12.7021C28.02885,125.9815,18.76075,113.043,5.59715,110.1128Z"/>
        <g>
          <g>
            <path class="cls-3" d="M110.40865,161.5699s.8897,40.9126,26.5601,46.4213c25.6768,5.5113,31.5371-10.6777,28.9224-19.6186-3.7163-12.71-20.7715-18.3599-20.7715-18.3599Z"/>
            <path class="cls-4" d="M123.49655,187.0205c-4.9482-8.436-11.0727-23.393-11.7783-25.1318l-.0356-.0098c.3745,1.6875,4.2773,18.6963,12.1655,32.5777a70.82233,70.82233,0,0,0,8.647,12.1235,24.67765,24.67765,0,0,0,4.4736,1.4111,51.6449,51.6449,0,0,0,5.207.8326C137.81885,205.585,130.502,198.9532,123.49655,187.0205Zm42.8306,3.6812a30.93339,30.93339,0,0,1-11.3369-3.4273c-6.0151-3.1713-29.3745-20.166-29.3745-20.166s22.5156,20.9229,26.9868,23.2495c3.5625,1.8575,10.3408,5.917,12.9507,7.4952A16.16622,16.16622,0,0,0,166.32715,190.7017Zm-49.7295-26.9004s10.8067,20.1226,19.3125,29.8208a188.06451,188.06451,0,0,1,12.2227,15.4043,24.06377,24.06377,0,0,0,8.6499-1.8765,88.56789,88.56789,0,0,1-17.8365-14.5879C130.92575,183.6524,116.59765,163.8013,116.59765,163.8013Zm4.0615,1.2173s12.1392,15.9531,22.1499,26.6626a80.054,80.054,0,0,0,16.7818,13.9184,15.46517,15.46517,0,0,0,4.8711-5.3066,64.86646,64.86646,0,0,1-12.7036-6.0083C139.66165,186.2144,120.65915,165.0186,120.65915,165.0186Zm44.6734,21.8379a21.69221,21.69221,0,0,0-4.2437-6.7002,55.48,55.48,0,0,1-8.4004-2.2744,190.52942,190.52942,0,0,1-19.8823-9.0586,197.43126,197.43126,0,0,0,16.3169,11.5459C154.68215,183.7115,162.29935,186.0191,165.33255,186.8565Z"/>
          </g>
          <g>
            <path class="cls-3" d="M251.34575,160.4864s24.351,16.4692,44.63369,20.4755c28.4043,5.6128,29.6983-3.9697,33.1431-16.1899,5.0698-17.9321,15.2261-21.5127,15.2261-21.5127s-26.4365-1.9272-42.2124,3.5664C286.37694,152.3194,251.34575,160.4864,251.34575,160.4864Z"/>
            <path class="cls-4" d="M319.09964,166.9146c-5.8555-.898-50.48049-9.9697-50.48049-9.9697s27.98729,7.4013,38.6299,9.6123c9.10889,1.8906,16.56689,4.8105,19.25529,6.664a66.62553,66.62553,0,0,0,2.3355-7.4136A21.56138,21.56138,0,0,1,319.09964,166.9146Zm4.6035-7.5884c-5.895-.4961-44.06939-4.0981-46.87059-4.5527,0,0,19.53169,3.9829,30.55079,4.9594a175.57861,175.57861,0,0,1,22.1679,3.6963c.5069-1.6533,1.0557-3.2212,1.646-4.6216A21.169,21.169,0,0,1,323.70314,159.3262Zm-66.01609-.3032a281.13221,281.13221,0,0,0,51.51459,16.872c6.2969,1.4224,8.9829,3.4375,10.0708,5.1216a12.38839,12.38839,0,0,0,5.9663-5.2924,104.07681,104.07681,0,0,0-21.7202-5.2857C283.90965,167.4912,256.57375,158.6446,257.68705,159.023Zm53.34369-10.5025c7.9258-.5171,24.1157-1.3964,25.9424-.1279a2.80182,2.80182,0,0,0,.4228.2139,23.7168,23.7168,0,0,1,3.8672-3.5479C336.97164,145.5845,319.36914,147.7202,311.03074,148.5205Zm0,0c-2.6142.1719-4.3389.3037-4.3389.3037A43.26293,43.26293,0,0,0,311.03074,148.5205Zm-21.1909,3.5996s35.2856,1.2891,40.0498,2.7955a10.5063,10.5063,0,0,1,2.5718,1.1235,35.99586,35.99586,0,0,1,3.1343-5.1665,48.179,48.179,0,0,1-10.3321,1.0933C320.63184,151.6944,289.83984,152.1201,289.83984,152.1201Z"/>
          </g>
          <g class="cls-5">
            <path class="cls-4" d="M257.65435,66.0103s6.1904-5.5444,7.8945-10.1831c0,0,5.2207,3.6977,8.6357-2.1367a8.17637,8.17637,0,0,0,8.1963-2.9297s2.85009,2.8779,7.35739-1.1236c0,0-.1801,5.1426,6.9644-.8227,0,0,2.1269.3926,1.9038,1.8623,0,0,6.5264-5.396,6.543-.9815,0,0,5.8042-1.9741,5.57661,2.0171,0,0,8.51129-3.3564,8.69239,1.2525,0,0,7.5991-4.2534,8.7202.3354,0,0,8.9092-2.6264,7.67241,3.438,0,0,7.55369-2.9961,7.32469,3.5171,0,0,7.23-3.5498,7.90331,4.0615,0,0,6.77739-2.7593,6.96139,6.6626,0,0,5.0025,1.3262,3.2295,7.9068,0,0,1.9527,2.4961.0332,7.3418,0,0,1.8604,4.5532-.7876,6.7983,0,0,2.2823,10.6733-9.354,12.7817,0,0-13.8154,3.3775-11.5459,11.8716Z"/>
            <g>
              <path class="cls-6" d="M264.72945,82.1621c2.3746-11.3237,6.6465-20.4882,9.543-26.5937a176.36294,176.36294,0,0,0-7.9072,26.5552,257.75519,257.75519,0,0,0-3.7793,29.8715C262.58155,103.9429,262.44485,93.5596,264.72945,82.1621Z"/>
              <path class="cls-6" d="M272.52975,78.8579c2.3741-11.3232,6.6455-20.4897,9.5425-26.5942a176.82954,176.82954,0,0,0-7.9077,26.5547,258.21514,258.21514,0,0,0-3.7783,29.873C270.38285,100.6377,270.24415,90.2574,272.52975,78.8579Z"/>
              <path class="cls-6" d="M279.54495,77.8643c2.372-11.3218,6.64349-20.4883,9.53759-26.5957a176.87559,176.87559,0,0,0-7.90479,26.5576,257.65584,257.65584,0,0,0-3.7764,29.873C277.396,99.6446,277.25785,89.2642,279.54495,77.8643Z"/>
              <path class="cls-6" d="M288.12305,77.1475c2.373-11.3218,6.64549-20.4878,9.53909-26.5957a176.46442,176.46442,0,0,0-7.9058,26.5605,257.9736,257.9736,0,0,0-3.77929,29.8687C285.97364,98.9278,285.83444,88.5469,288.12305,77.1475Z"/>
              <path class="cls-6" d="M295.07124,77.8741c2.375-11.3228,6.6436-20.4883,9.5396-26.5953a176.20307,176.20307,0,0,0-7.90479,26.5572,257.5452,257.5452,0,0,0-3.77831,29.8701C292.92284,99.6543,292.78564,89.272,295.07124,77.8741Z"/>
              <path class="cls-6" d="M300.74214,79.3946c2.3736-11.3228,6.6431-20.4888,9.5396-26.5943a176.53711,176.53711,0,0,0-7.9043,26.5557,257.73135,257.73135,0,0,0-3.7788,29.873C298.59274,101.1748,298.45364,90.793,300.74214,79.3946Z"/>
              <path class="cls-6" d="M308.02144,79.8389c2.9063-11.0757,7.607-19.8447,10.7891-25.6816a170.1023,170.1023,0,0,0-9.1538,25.7802,252.99751,252.99751,0,0,0-5.1816,29.4361C304.84864,101.354,305.19824,90.9995,308.02144,79.8389Z"/>
              <path class="cls-6" d="M316.479,79.794c2.90519-11.0781,7.604-19.8472,10.78849-25.6846a169.938,169.938,0,0,0-9.1543,25.7822,252.52157,252.52157,0,0,0-5.1821,29.4351C313.30764,101.3052,313.65624,90.9532,316.479,79.794Z"/>
              <path class="cls-6" d="M322.06684,81.397c3.9004-10.478,9.3814-18.3794,13.0835-23.6279a156.43274,156.43274,0,0,0-11.4668,23.9926,238.95589,238.95589,0,0,0-7.8378,28.2559C316.94924,102.147,318.23774,91.9693,322.06684,81.397Z"/>
              <path class="cls-6" d="M327.49174,82.2954c4.9409-9.6284,11.1918-16.4228,15.4077-20.9296a139.59652,139.59652,0,0,0-13.8335,21.5844,219.30259,219.30259,0,0,0-10.6587,26.4488C320.30074,101.835,322.61374,92.0279,327.49174,82.2954Z"/>
              <path class="cls-6" d="M333.76174,83.5591c5.7334-8.7905,12.5332-14.5806,17.1137-18.4072a126.35283,126.35283,0,0,0-15.5957,19.2944c-5.2856,8.2627-9.4829,17.271-12.8364,24.5879C324.96334,101.8291,328.08694,92.4634,333.76174,83.5591Z"/>
              <path class="cls-6" d="M339.91994,90.0396c5.7329-8.7896,12.53511-14.5801,17.1113-18.4077a126.67054,126.67054,0,0,0-15.5947,19.2944c-5.2832,8.2642-9.48049,17.2749-12.836,24.5889C331.12014,108.3091,334.24705,98.9444,339.91994,90.0396Z"/>
              <path class="cls-6" d="M342.12594,96.6304c5.9556-8.5166,12.9038-13.9902,17.583-17.606a122.76288,122.76288,0,0,0-16.0883,18.5616c-5.4932,8.0141-9.917,16.8203-13.458,23.9697C332.86524,114.4776,336.22554,105.2671,342.12594,96.6304Z"/>
              <path class="cls-6" d="M347.23144,98.7657a54.61291,54.61291,0,0,1,13.355-11.5997,84.033,84.033,0,0,0-12.3047,12.3794,134.35887,134.35887,0,0,0-10.5884,16.4561C339.89594,111.0596,342.65234,104.627,347.23144,98.7657Z"/>
              <path class="cls-6" d="M345.35054,104.5699a54.607,54.607,0,0,1,13.355-11.5987,84.14214,84.14214,0,0,0-12.3061,12.3809,134.73558,134.73558,0,0,0-10.5899,16.4546C338.01564,116.8662,340.77005,110.4317,345.35054,104.5699Z"/>
              <path class="cls-6" d="M257.04735,84.1153c2.3736-11.3233,6.6441-20.4893,9.5425-26.5957a176.45333,176.45333,0,0,0-7.9092,26.5561,257.45393,257.45393,0,0,0-3.7768,29.8711C254.90035,105.8946,254.76175,95.5127,257.04735,84.1153Z"/>
            </g>
          </g>
          <g>
            <path class="cls-6" d="M84.84375,78.6177s19.9946-57.3935,42.5269-70.4097c0,0,7.2783,13.1836,27.9692,4.0122,0,0,6.4663,12.7564,30.9717,4.3213,0,0,12.1616,13.71,32.7446,3.9751,0,0,.8853,8.5713,21.7959,6.3506,0,0-12.5298,28.9219-7.1157,32.2622Z"/>
            <g>
              <path class="cls-7" d="M119.19585,43.2969c8.9716-16.2886,21.8925-29.2822,30.6313-37.9346-8.0698,9.8057-18.0234,22.104-26.6787,38.0098-8.1934,15.2407-13.4941,30.6851-17.6812,43.1821C107.76805,74.8296,110.41405,59.7027,119.19585,43.2969Z"/>
              <path class="cls-7" d="M138.95365,39.1284c8.9712-16.291,21.8969-29.2812,30.6396-37.9296-8.0766,9.8051-18.0259,22.103-26.6875,38.0107-8.1914,15.2378-13.4873,30.6807-17.6767,43.1777C127.52835,70.6641,130.16745,55.5376,138.95365,39.1284Z"/>
              <path class="cls-7" d="M156.15385,38.2642c8.9716-16.291,21.8969-29.2803,30.6328-37.9331-8.0723,9.8071-18.022,22.1015-26.6792,38.0146-8.1919,15.2378-13.4927,30.6812-17.6778,43.1787C144.73245,69.7989,147.37305,54.6709,156.15385,38.2642Z"/>
              <path class="cls-7" d="M177.05075,37.9297C186.022,21.6382,198.94435,8.6485,207.68405,0c-8.0771,9.8072-18.0229,22.0996-26.6826,38.0113-8.1929,15.2363-13.4927,30.6806-17.6787,43.1787C165.62355,69.4654,168.26465,54.336,177.05075,37.9297Z"/>
              <path class="cls-7" d="M193.60155,39.5606c8.9697-16.293,21.898-29.2783,30.6309-37.9331-8.0679,9.8081-18.022,22.105-26.6773,38.0151-8.1889,15.2349-13.4956,30.6777-17.6792,43.1763C182.17235,71.0952,184.82325,55.9698,193.60155,39.5606Z"/>
              <path class="cls-7" d="M206.84475,42.2442c8.9668-16.2886,21.8926-29.2808,30.6274-37.9302-8.0678,9.8042-18.0215,22.0996-26.6738,38.0088-8.1914,15.2407-13.4922,30.6811-17.6821,43.1811C195.41745,73.7793,198.05905,58.6509,206.84475,42.2442Z"/>
              <path class="cls-7" d="M224.27345,43.4927c10.1846-15.8877,24.0376-28.2612,33.3809-36.5039-8.7808,9.4307-19.625,21.2632-29.4678,36.7871-9.3247,14.8731-15.7984,30.1001-20.937,42.4287C210.45415,74.5523,214.26805,59.5113,224.27345,43.4927Z"/>
              <path class="cls-7" d="M100.105,45.5039c8.9717-16.2905,21.8965-29.2812,30.6319-37.9345-8.0694,9.8086-18.023,22.1035-26.6792,38.0127-8.1929,15.2387-13.4947,30.6811-17.6807,43.1816C88.67925,77.0376,91.32565,61.9121,100.105,45.5039Z"/>
            </g>
          </g>
          <path class="cls-8" d="M435.03764,92.9883c-7.2442,3.6694-17.58059,8.2715-20.6792,9.085-4.6006,1.209-12.125.4541-27.1192-2.7212a633.652,633.652,0,0,1-73.73919-19.8809c-18.17051-5.9946-22.96881-7.375-48.1543-13.8398-15.7593-4.0449-21.7007-5.7168-27.7725-7.8101-1.478-.5093-4.3003-1.4658-6.2715-2.1206C183.84035,43.9722,152.774,31.8721,83.03125,67.604c-5.1738,2.7857-13.2402,7.4229-17.9268,10.3067a209.37028,209.37028,0,0,1-24.4057,13.2275c-17.1548,7.8643-28.5449,13.2959-30.4619,14.5259a16.9381,16.9381,0,0,0-6.5005,7.3476c-.751,1.9683-.7612,2.2442-.1177,3.3331a15.14571,15.14571,0,0,0,3.917,3.1474c3.5898,2.1856,7.2231,6.1924,6.1997,6.8408-1.665,1.0552-5.0933.1421-8.6523-2.3071l-2.0298-1.397.2759,1.9317a12.98659,12.98659,0,0,0,4.6074,8.2353,86.2107,86.2107,0,0,0,8.1269,4.6704c12.9107,6.6836,23.0635,12.4644,27.7705,15.8135,5.2061,3.7031,10.6031,6.6206,13.8213,7.4712a25.61877,25.61877,0,0,0,6.9444.2134c4.5512-.2778,5.3691-.2012,9.2485.8711a145.11512,145.11512,0,0,0,15.0059,2.5346c5.9135.7471,14.1782,2.0459,18.3667,2.8877,9.1171,1.8321,10.3291,2.0259,26.5678,4.271,19.5547,2.7066,47.9776,4.9107,63.2998,4.9107,13.7359,0,32.0108-1.6792,51.459-4.73,10.5542-1.6543,16.1851-2.8911,18.5337-4.0723a31.99871,31.99871,0,0,0,3.8657-2.6123,70.42789,70.42789,0,0,1,12.5972-7.4316c3.15919-1.2564,30.60449-10.2319,36.81249-12.0391,7.2847-2.1186,36.68361-9.2861,41.4043-10.0923a152.1145,152.1145,0,0,1,25.2031-2.0122c9.0093.0035,12.7388.3374,18.1421,1.6202,4.6836,1.1152,6.3994,1.9746,14.5215,7.2939,8.3218,5.4507,11.1548,7.1074,16.6689,9.1519C435.74564,132.0088,435.25394,112.501,435.03764,92.9883Z"/>
          <path class="cls-2" d="M117.12645,154.1045s14.8589,8.1988,66.0684,5.02c51.2124-3.1787,59.291-6.8618,81.2173-11.8803,21.92769-5.0196,70.68649-14.5586,70.68649-14.5586s-11.5415-.6685-39.2383,3.3476c-27.69819,4.0161-43.85449,13.7198-73.85939,12.2149C174.98535,155.1743,152.70415,154.146,117.12645,154.1045Z"/>
          <path class="cls-3" d="M165.51905,43.8462c-22.416-.0249-47.606,5.9004-82.4785,23.7666-5.1734,2.7842-13.2593,7.4131-17.9448,10.2964a209.61363,209.61363,0,0,1-24.397,13.2383c-17.1558,7.8652-28.5523,13.2895-30.4693,14.5195a16.91533,16.91533,0,0,0-6.4931,7.3555c-.6494,1.7012-.7603,2.1284-.3584,2.9209.5503-.2056,1.1152-.3931,1.6401-.5889a46.72769,46.72769,0,0,1,5.0425-1.1977,10.04757,10.04757,0,0,1,3.9302.104,21.71241,21.71241,0,0,1,4.6235,1.1777c1.2022.3911,3.148.1607,4.4546.2105,1.6782.0625,2.8984-.0406,4.623-.105a21.29715,21.29715,0,0,0,4.7061-.8838,27.18,27.18,0,0,0,5.2319-1.4912,25.44449,25.44449,0,0,0,5.6534-3.4878c1.4316-1.1265,2.6591-2.5996,4.0151-3.7608,1.3921-1.1948,2.418-2.8178,3.6763-4.0781,1.3188-1.3213,2.2968-2.9057,3.5937-4.1606,1.211-1.169,2.5591-2.0992,3.7822-3.3819a27.06111,27.06111,0,0,1,4.2657-3.3842c1.5376-1.0967,2.977-2.2139,4.4541-3.2774a19.92985,19.92985,0,0,1,4.708-1.9746,31.592,31.592,0,0,1,5.3994-1.3872,26.4334,26.4334,0,0,0,4.0981-1.3872c1.9932-.6939,4.2906-3.8882,5.9048-5.2749a14.51293,14.51293,0,0,1,5.2329-3.0674,35.60551,35.60551,0,0,0,5.5679-2.291c1.6831-.9395,3.2891-2.2041,4.9595-3.1719,1.667-.9673,3.3706,1.2027,4.3701,1.8897,1.6948,1.1645,1.6709,3.7475,1.9556,5.4423.1567.9434-2.2056,4.6119-2.5645,5.7793-.5859,1.9043,2.209,4.3311,3.2568,5.5474a46.60684,46.60684,0,0,0,4.7066,4.6655c2.0649,1.795,2.5322,3.2388,2.9219,5.6739.3134,1.9658.4672,3.8877.7558,5.8408.3355,2.2578,2.1743,4.1416,3.1738,6.0732,1.1763,2.2735,1.813,4.6265,3.1724,6.8511,1.7788,2.9131,1.8618,3.5352,3.5088,4.5591,1.4785.9179,4.0459-2.7969,4.5395-3.5713,1.9332-3.0352,1.94-10.0479,2.396-13.6177.3926-3.0854.3453-6.2324.7569-9.3291.352-2.6601,1.563-5.5307,2.3105-8.1328.6978-2.4268,1.4605-4.7949,2.3965-7.144a43.17681,43.17681,0,0,0,1.7232-6.8506c.5126-2.3809,2.0835-3.6402,3.7602-5.2749,2.062-2.0078,3.1104,3.4648,3.3418,4.3711.894,3.5005.4653,7.6274,1.0298,11.2207.3716,2.372.4018,4.6142.9448,6.9555a35.47439,35.47439,0,0,0,2.6485,6.6402,22.91906,22.91906,0,0,1,1.8901,6.6611,44.88982,44.88982,0,0,1,.8418,7.7554c-.0845,2.7138.2451,5.3193.0825,8.0254a26.47723,26.47723,0,0,1-1.2808,7.1455c-.7871,2.3711-.8945,5.5464-1.3667,8.0478a37.218,37.218,0,0,0-.3344,6.8501,17.92868,17.92868,0,0,0,1.8691,7.2495c.9111,2.1138,4.9629.0523,6.3462-.4824,3.0698-1.1865,5.8862-3.2803,8.5527-5.0654,3.6949-2.4722,5.315-6.8399,6.7666-10.8208a72.93465,72.93465,0,0,0,3.5923-14.0171c.6939-4.4233.834-8.8706,1.4512-13.3008a70.7828,70.7828,0,0,1,1.3013-8.0483,36.91107,36.91107,0,0,1,2.8994-7.5435c1.0303-2.0361,1.4053-4.5972,2.2285-6.7456.8877-2.3169,1.2427-4.8584,2.0596-7.144.8667-2.4307,3.0234-2.5923,4.2656-3.0879,2.2466-.8994,4.0835,5.708,4.3711,6.5556,1.0264,3.0323,1.0317,6.441,1.8076,9.5396.877,3.5098,1.231,6.0293,3.0669,9.2246,1.5249,2.6519,1.9502,5.9048,3.1728,8.7427a29.144,29.144,0,0,1,1.7242,8.5307,75.646,75.646,0,0,0,.8403,7.544c.5874,2.9507,1.3589,5.7851,1.9741,8.7407.6885,3.3096,2.4815,3.3999,4.4561,3.9712,2.0849.605,5.581-7.0044,6.1553-8.2368,1.979-4.2344,3.0332-9.1099,4.455-13.5117,1.1748-3.6314,1.8428-7.3926,3.0899-11.0113,1.0464-3.0351,2.7075-5.9297,3.8457-8.9297.9541-2.5161,1.4546-4.9814,2.6474-7.3559,1.295-2.5747,2.2305-2.7656,4.4546-3.5718,2.812-1.0185,5.4971,1.5801,7.271,3.2793,2.1109,2.0225,3.0713,5.3701,3.8657,8.0474.8926,2.999,1.7207,6.0156,2.3965,9.0346.69,3.0874,1.252,6.1509,2.0381,9.2261.8491,3.3237,1.6509,6.6108,2.4165,9.939.6485,2.8159,2.5239,4.4292,4.4336,6.2417,2.2105,2.0967,5.4678-.0576,7.0181-1.3877,2.3896-2.0474,3.2217-7.23,3.8677-10.128.812-3.6518,1.4443-7.2211,2.4785-10.8227a14.60467,14.60467,0,0,1,3.3413-6.5557c1.646-1.8159,3.62249,2.6387,4.3701,3.7823,1.60889,2.455,2.21239,6.0151,3.15379,8.7421.8897,2.5855.8389,5.7242,1.1968,8.4263.4302,3.2373.2007,4.9053,2.144,7.7539,1.6836,2.4654,3.6187-2.1006,4.7066-3.6782a40.934,40.934,0,0,0,4.623-9.4346,58.04021,58.04021,0,0,1,4.1187-8.0483c2.1289-3.7866,1.042-1.9756,3.6777-1.9756.6445,0,4.856,5.9834,5.6523,6.7461,2.3277,2.23,3.7686,5.001,5.2945,7.7534a45.39647,45.39647,0,0,1,2.7539,5.9478c.7646,2.0156,3.8428-4.3013,4.3501-5.1494,1.37161-2.2955,2.0439-5.2051,3.1723-7.6499,1.2642-2.7349,1.4747-3.4542,3.1729-4.8736,1.9243-1.6079,3.584,3.5298,5.5679,5.0635,1.8232,1.4092,3.7417,2.2949,5.5483,3.8672,1.8648,1.6211,3.0288,2.3139,4.3716,4.4751,1.5151,2.4419,1.9824-.3799,2.8369-2.2896.8359-1.8725,2.0723-3.7177,2.9834-5.5478,2.0176-4.0552,1.1558-1.7891,3.34031-1.1973,2.57819.6973.19,5.4077,1.03029,7.9424a18.4118,18.4118,0,0,0,3.4248,5.9673c1.7002,2.062,3.6792-.5269,4.624-1.7862,1.5127-2.017,3.15291-3.603,4.3702-5.8627,1.0463-1.94,1.6425-4.1851,2.5629-6.1553,1.4312-3.0635,3.6343-2.7779,5.7369-2.292,1.0737.25,3.7627,5.2637,4.6235,6.2632,1.6782,1.9458,2.7476,4.4604,4.7075,6.4516,1.292,1.3101,4.1216.2095,4.8745.1045,1.1006-.1557,2.8501-2.1181,4.7061-2.3955a16.73136,16.73136,0,0,0,8.38431-3.2783c2.92869-2.1509,4.56929-3.292,8.13369-4.2666,2.2168-.6055,4.1319.9062,5.8199,2.0815,2.7798,1.9336,2.8066,2.2183,5.4839,1.7017,1.3159-.2534,3.8344-3.6011,4.95851-4.5811,1.35929-1.1816,4.20649-1.4741,5.99119-1.9751,2.5381-.7138,4.6889-3.142,6.3447-5.0649,1.8555-2.1519,1.0303-6.8398,1.0303-9.4336,0-2.4228-.126-4.8218-.3584-7.2085-1.772.9614-3.2622,1.7915-4.0552,2.249-6.2598,3.6182-21.5772,10.6182-25.4683,11.6411-4.6006,1.2081-12.1342.4439-27.1269-2.7309a633.82635,633.82635,0,0,1-73.73639-19.8799c-18.17131-5.9961-22.957-7.3613-48.1435-13.8271-15.7588-4.045-21.707-5.7227-27.7788-7.816-1.4785-.5102-4.2905-1.4653-6.2612-2.123C207.58105,49.834,187.93505,43.8706,165.51905,43.8462Z"/>
          <path class="cls-2" d="M63.32615,88.2115c5.0371-.042,10.0762-.2505,15.1133-.354,6.1284-.0499,12.8291.9462,17.3428,5.4946,2.7202,2.3515,5.3408,5.6523,9.2925,5.5727,3.0879.0513,6.3344.6983,8.5131,3.0635,3.2383,2.1406,4.4595,6.9404.982,9.5103-3.2744,3.6948-7.3208,6.52-11.1983,9.519a33.99883,33.99883,0,0,0-10.747,13.9766,30.602,30.602,0,0,1-9.4629,13.2407,86.971,86.971,0,0,1-14.3618,8.0952c2.8828-3.3906,7.1533-5.0752,11.0234-7.0469,1.0879-.5688,2.4058-1.4336.5264-.3364-1.2427.7085-5.3745,3.1514-4.7071,2.7661a27.76564,27.76564,0,0,0,11.416-13.6606,34.63307,34.63307,0,0,1,10.7881-14.6055c4.0005-3.1958,8.4576-5.853,11.917-9.6894a5.35373,5.35373,0,0,0-.1421-9.295c-2.3305-2.5835-5.8955-2.6704-9.1089-2.914-5.52-.5181-8.2856-6.166-13.0522-8.2886-4.2256-2.0137-9.0068-2.4439-13.5869-3.0952-3.919-.2603-7.8901-.2515-11.7427-1.0899C62.52885,88.7862,62.92925,88.4991,63.32615,88.2115Z"/>
          <path class="cls-2" d="M59.67,95.4497c-.419.4912-1.5655.7725-1.4981,1.4038,1.5669,1.7715,3.8501,2.4507,5.545,4.0723a12.66271,12.66271,0,0,1,4.8232,7.8018c.9712,4.289.04,8.6841-.814,12.8847-.601,2.9947-1.1552,6.2315.0962,9.127,3.1597,10.4702-7.6338,6.4097-12.9023,7.0049-3.3838.435-6.6328,1.7817-9.8335,2.9765q-1.0401.7998-2.0825,1.5992c1.6875.7539,3.6733-.2344,5.4819-.0997,4.1768.0337,8.3169.982,12.4951.8472,2.9893-.436,5.5366-2.4311,8.1563-3.9595,2.0356-1.3247,4.1655-2.8139,5.1132-5.3632,1.4561-2.4219,1.0967-5.5.3291-8.1206-1.8574-4.7203-1.2377-7.4517-1.0952-10.3384.1206-4.6656-.3471-9.7324-3.0454-13.5044a21.509,21.509,0,0,0-9.6157-6.2036A7.94717,7.94717,0,0,0,59.67,95.4497Z"/>
          <g>
            <path class="cls-7" d="M47.79935,99.834c-6.8492-3.2676-16.2046-1.04-20.6094,5.0816-4.5469,5.8979-2.3252,13.5498,4.8047,16.7036,6.8491,3.2685,16.2026,1.0385,20.6094-5.0811C57.15035,110.6426,54.92775,102.9888,47.79935,99.834Z"/>
            <path class="cls-9" d="M25.93315,106.8242c-2.5772,5.6612-.2203,11.8619,6.0615,14.795,6.0708,2.8803,14.1631,1.4389,19.0688-3.0601a34.60341,34.60341,0,0,1-14.664-3.0591A23.468,23.468,0,0,1,25.93315,106.8242Z"/>
            <path class="cls-9" d="M47.79935,99.834c-.1436-.2226-.5694-.3315-.7808-.3877,6.0762,3.439,8.0156,10.6475,3.8193,16.2612-4.2656,5.7833-12.915,8.0088-19.83,5.4683a10.69949,10.69949,0,0,0,.9868.4434c6.8491,3.2685,16.2026,1.0385,20.6094-5.0811C57.15035,110.6426,54.92775,102.9888,47.79935,99.834Z"/>
            <path class="cls-10" d="M44.41745,99.5132c-.144-.2212-.5688-.3296-.9922-.4394,11.5127,6.1504-1.3554,23.1088-13.4931,18.4721.4219.1094.5639.3301.9863.4419,7.061,3.3198,15.9263,1.7124,19.6328-3.2851C54.32715,109.5371,51.543,102.669,44.41745,99.5132Z"/>
            <path class="cls-11" d="M40.88915,102.8623c-2.8965-1.4985-7.1172-.3598-9.147,2.2827-2.0263,2.6397-1.0957,6.0464,2.083,7.4283,2.8965,1.4956,7.1163.3569,9.1431-2.2823A4.8108,4.8108,0,0,0,40.88915,102.8623Z"/>
            <path class="cls-12" d="M36.09615,105.19a2.38252,2.38252,0,0,0-2.8095,1.1308c-.6294.9566-.6221,2.0767.1533,2.4629a2.40787,2.40787,0,0,0,2.812-1.1318A1.52965,1.52965,0,0,0,36.09615,105.19Z"/>
            <path class="cls-13" d="M47.52195,101.0669c-.8471-.2197-1.8755,5.1011-.1098,5.9282C51.15285,108.7124,50.063,102.2852,47.52195,101.0669Z"/>
          </g>
          <g>
            <path class="cls-3" d="M108.55615,138.1158s39.0933,26.2167,61.4922,5.5659c22.4018-20.6558,11.0986-36.9077.9321-40.3457-14.4511-4.8892-31.2036,7.5146-31.2036,7.5146Z"/>
            <path class="cls-4" d="M141.28125,142.562c-11.2563-.896-29.437-4.9921-31.5454-5.4751l-.0327.0274c1.8379.7617,20.4595,8.3164,38.811,10.0317a81.85678,81.85678,0,0,0,17.2051-.1635,28.819,28.819,0,0,0,4.3291-3.3008,60.86022,60.86022,0,0,0,4.2739-4.3765C168.35305,141.2867,157.20655,143.8233,141.28125,142.562Zm32.1836-38.0991a36.217,36.217,0,0,1-10.8272,8.4634c-7.0175,3.5947-38.6713,14.4614-38.6713,14.4614s34.7851-7.4712,39.9721-10.1631c4.1367-2.143,12.502-5.8735,15.7378-7.2988A18.45889,18.45889,0,0,0,173.46485,104.4629Zm-58.6572,29.2715s26.1792,3.0811,41.0092,1.4453a217.93583,217.93583,0,0,1,22.69-1.3779,27.9956,27.9956,0,0,0,4.0332-9.4282c-3.4927,1.4902-14.3516,5.8296-25.6851,7.2324C143.09375,133.3033,114.80765,133.7344,114.80765,133.7344Zm3.8681-3.0405s23.1514-.9341,39.9414-3.3267a93.23669,93.23669,0,0,0,24.3487-6.6748,17.74194,17.74194,0,0,0-1.7271-8.1201c-2.4306,1.7109-8.6636,5.9097-14.1709,8.0483C151.36185,126.731,118.67575,130.6939,118.67575,130.6939Zm50.5035-27.8316a25.02667,25.02667,0,0,0-9.1514-.4165,64.8828,64.8828,0,0,1-7.7705,6.4453c-8.4883,5.9913-21.856,12.8248-21.856,12.8248a230.12875,230.12875,0,0,0,21.8042-7.8057C159.07915,110.8604,166.35795,105.1778,169.17925,102.8623Z"/>
          </g>
          <g>
            <path class="cls-3" d="M480.33594,78.8306c-6.4483-17.376-12.2837.2485-57.5112,16.1357-4.7198,1.6587-15.1026,6.5005-20.4429,7.1162l-6.9331,31.5572c8.3686,1.6186,29.0898,12.4912,38.2505,18.8349,13.4531,9.3164,18.3086,13.8599,25.9634,19.9278,8.3896,6.6455,19.1953,3.5312,18.16741-6.2207C472.82614,118.5337,484.64114,90.4082,480.33594,78.8306Z"/>
            <path class="cls-14" d="M480.33594,78.8306c-5.1704-13.9268-9.96289-5.3691-34.9414,6.7583,4.1787-1.2354,16.5908-4.8413,20.83251-5.355,4.74369-.5766,7.66059,2.023,8.02339,7.5103.3687,5.4912-3.91939,27.7397-4.3798,41.0268-.7198,21.3819,4.3798,35.251-.3628,38.1426-4.3321,2.6387-11.0845,2.5879-16.398-.3052,2.1157,2.0078,4.1773,3.9092,6.5528,5.794,8.3896,6.6455,19.1953,3.5312,18.16741-6.2207C472.82614,118.5337,484.64114,90.4082,480.33594,78.8306Z"/>
            <path class="cls-4" d="M430.72654,104.2149s38.6631-.9629,43.5283-.1944a24.82463,24.82463,0,0,1,5.0288,1.3291c.2769-2.0952.5396-4.1147.7837-5.9995a38.40224,38.40224,0,0,1-10.6777,2.9424C463.54834,102.8662,430.72654,104.2149,430.72654,104.2149Zm-.4873,7.1274s38.9116,1.7339,43.7681,2.5025c1.5473.2456,2.9419.4882,4.15571.7065.23-2.0386.46-3.9893.69489-5.8735a78.08483,78.08483,0,0,1-8.7383,2.2793C465.73734,111.9209,430.23924,111.3423,430.23924,111.3423Zm41.0986,8.8599c-5.83979.5786-39.6396-1.7368-39.6396-1.7368s37.4526,2.6987,40.3701,3.663c1.6299.5342,3.6924,1.4283,5.2212,2.1187q.2373-3.33465.5513-6.4438C477.59574,118.2075,476.37205,119.7051,471.33784,120.2022Zm9.8575-36.8438a16.47716,16.47716,0,0,0-.8594-4.5278,19.99445,19.99445,0,0,0-2.3984-4.8447c-.9166,2.2236-3.7403,6.0508-12.43949,9.8115-6.77731,2.9307-36.231,12.3257-36.231,12.3257s35.99029-10.208,42.07079-11.7466A32.04211,32.04211,0,0,1,481.19534,83.3584Zm-16.1812,46.8589c-7.0522.5796-34.5322-3.4682-34.5322-3.4682s31.1294,5.0102,35.9892,6.3588a66.35871,66.35871,0,0,1,10.1827,4.1177c.0815-3.4775.2011-6.855.4091-10.0386A37.4206,37.4206,0,0,1,465.01414,130.2173Zm4.6196,11.1743c-5.1044-.769-38.1796-9.8257-38.1796-9.8257s29.1923,8.8599,32.5908,10.98c3.2304,2.0142,9.9326,5.2368,12.6904,7.7032-.1279-3.4361-.1689-6.7447-.1465-9.9361C476.16214,140.6607,474.12405,142.0669,469.63374,141.3916Zm5.1065-51.4301c-4.6206,1.1562-44.0137,8.8564-44.0137,8.8564s29.9199-5.3794,36.4771-5.7764c9.4897-.5796,12.8891,3.0816,12.8891,3.0816l.4302-.4751a80.80982,80.80982,0,0,0,.74411-10.4414A10.68165,10.68165,0,0,1,474.74024,89.9615Zm1.9531,63.3691s-.73729.7729-7.0596-.9624c-6.3193-1.7324-39.6352-15.023-39.6352-15.023s30.8804,13.8667,34.0464,16.564c2.5332,2.1597,10.5053,7.7671,13.584,9.9204-.29889-3.1343-.5186-6.1753-.6797-9.1387Zm-48.4004-11.752s31.6206,20.6133,34.2842,24.6582c1.4165,2.1353,2.4873,6.0328,3.186,9.2417,5.0122,1.293,9.7222-.373,11.4463-4.4365-2.0512-.9316-10.6709-4.9414-15.3589-8.6557C456.50394,158.1465,428.29294,141.5786,428.29294,141.5786Z"/>
            <path class="cls-4" d="M463.82274,168.7403a45.71136,45.71136,0,0,1,1.9404,6.7382,11.58789,11.58789,0,0,0,6.8726-.1821c.0742-.0278.144-.0659.2256-.0962a8.49961,8.49961,0,0,0,1.1391-.5566,2.91942,2.91942,0,0,0,.28961-.1787,6.72058,6.72058,0,0,0,.92869-.7012,3.26824,3.26824,0,0,0,.2666-.2358,7.52957,7.52957,0,0,0,.7988-.9097c.0557-.0791.128-.1504.1743-.2324a7.4812,7.4812,0,0,0,.751-1.3438c-1.1753-.5312-4.4912-2.0791-7.98039-3.9892A13.96186,13.96186,0,0,1,463.82274,168.7403Zm10.9175-78.7788c-.1465.0341-.3491.0781-.5293.1196-.0571.9575-.166,2.0874-.3037,3.353,4.4043.8584,6.1855,2.689,6.1855,2.689l.4302-.4751c.1025-.834.1919-1.6319.2759-2.4175.03321-.2871.0591-.5688.0801-.853a66.68581,66.68581,0,0,0,.38811-7.1709A10.68165,10.68165,0,0,1,474.74024,89.9615Zm1.9531,63.3691s-.6836.6279-5.6924-.6138c.2534,2.5835.4546,4.8604.523,6.7954,2.3965,1.7178,4.7344,3.3623,6.105,4.3174-.29889-3.1343-.5186-6.1782-.6797-9.1401Zm-5.4087-39.8247c1.0835.1133,2.023.2309,2.7227.3389,1.5473.2456,2.9419.4882,4.15571.7065.20409-1.8057.40529-3.5308.61139-5.2104.0302-.1929.0488-.3882.0742-.5787a.63329.63329,0,0,0,.0093-.0844,72.58952,72.58952,0,0,1-7.1958,1.9375C471.53464,111.5733,471.41014,112.5401,471.28464,113.5059Zm-1.22559,27.9258c.10009,1.6338.20709,3.2055.335,4.6958a39.97152,39.97152,0,0,1,6.34129,4.1216c-.042-1.169-.07229-2.3018-.0908-3.4424-.0186-1.0855-.0371-2.1612-.0444-3.2232-.0025-1.0859-.0137-2.1758-.0113-3.2412v-.0293C476.17824,140.6519,474.23534,141.9546,470.05905,141.4317Zm6.59479-4.3062c.0395-1.6123.0815-3.2046.1533-4.751.0591-1.771.14891-3.5087.2558-5.1875a35.58765,35.58765,0,0,1-7.2016,2.3081c-.0464,1.626-.0557,3.1978-.0396,4.7344,2.7534,1.0474,5.437,2.3125,6.8321,2.9961Zm-4.0787-33.2969c.6441.0591,1.23.1216,1.6797.1919a24.82463,24.82463,0,0,1,5.0288,1.3291c.0093-.0366.0093-.0771.0162-.1123.2666-2.0527.5234-4.0356.7675-5.8872a41.96974,41.96974,0,0,1-7.206,2.3653C472.76124,102.4097,472.67184,103.1172,472.57514,103.8286Zm8.6202-20.4702a22.84433,22.84433,0,0,0-.2842-2.396,13.28056,13.28056,0,0,0-.5752-2.1318c-.1802-.501-.3652-.96-.5523-1.4028-.03759-.0938-.0839-.1885-.122-.2847-.1465-.3374-.28859-.6621-.4409-.9658-.042-.0928-.0884-.1812-.1373-.2715-.1508-.3057-.309-.5933-.46239-.8628-.03271-.0596-.06731-.1196-.10151-.1743a9.4804,9.4804,0,0,0-.582-.8828c-.691,1.6728-2.46049,4.2622-7.0157,7.042a6.05587,6.05587,0,0,1,2.4566,2.8969A30.89408,30.89408,0,0,1,481.19534,83.3584Zm-9.8575,36.8438c-.2636.0259-.5532.0449-.8369.0678-.0478.4917-.0874.9708-.1328,1.4542a14.25306,14.25306,0,0,1,1.7002.4042c1.6299.5342,3.6924,1.4283,5.2212,2.1187v-.0283q.2373-3.263.54051-6.3135c0-.0303.01079-.0674.01079-.102C477.59574,118.2075,476.37205,119.7051,471.33784,120.2022Z"/>
          </g>
          <g>
            <path class="cls-15" d="M102.91165,164.4278c-9.3423,1.1474-17.8614-2.2784-26.5489-4.7588-2.0727-.5913-4.1103-1.2998-4.9477-3.6157,1.4917-2.7242,6.3774,1.0444,6.8701-3.5923q3.1113-1.0137,6.2178-2.0264c.852,2.1528-2.0508,5.1919.6206,6.4277,2.1533.9952,3.2231-2.0722,4.7505-3.4321,1.0459-.9316,2.7666-3.4419,4.2666-.1528-.6988,2.6172-1.3897,5.2373-2.2388,8.436,4.249-1.4473,5.9546-5.6484,9.9653-5.8613,1.1778,1.7217.3819,4.8681,3.6597,5.0776C105.72115,162.8975,104.03415,163.4541,102.91165,164.4278Z"/>
            <path class="cls-16" d="M102.91165,164.4278c1.1225-.9737,2.8095-1.5303,2.6152-3.4981,1.7949-1.1128,3.6318-2.0757,3.9976-4.5762.6235-4.2924,2.8613-4.0161,5.6157-1.7172l.0015-.0572c-2.8887,4.0581,3.3222,6.7486.7583,10.7442,2.7138-.1089,2.7495-1.9698,3.6831-2.9156q1.3908.28725,2.7797.5743a.68932.68932,0,0,0,1.064-.0157,7.36127,7.36127,0,0,1,2.6802,4.6602c-2.5606,2.021-5.1494.6333-7.7437.0752C113.21635,166.5987,108.06105,165.5196,102.91165,164.4278Z"/>
            <path class="cls-17" d="M119.58305,162.4077c-.9336.9458-.9693,2.8067-3.6831,2.9156,2.5639-3.9956-3.647-6.6861-.7554-10.7442,1.0547,1.4038,2.4253,2.0791,3.5532.377,1.3267-2.0083.9307-3.9683-1.4863-5.5264-.7197,1.8067-1.395,3.5073-2.0713,5.2066-2.7544-2.2989-4.9922-2.5752-5.6157,1.7172-.3658,2.5005-2.2027,3.4634-3.9976,4.5762-3.2778-.2095-2.4819-3.3559-3.6562-5.0801,1.416-4.9853,8.8496-1.061,10.08-7.0249-5.6142,2.6802-8.6489-4.3608-13.7856-3.0361a9.27581,9.27581,0,0,1-.4736-1.1626c.3418-.2261.6796-.4473,1.0214-.6748a50.04285,50.04285,0,0,1,5.8418-3.8066,5.21461,5.21461,0,0,1,5.9131.9546c1.9834,1.7856-1.9409,2.2866-.8149,4.3862,2.4077-1.6309,7.2895-.0215,6.0703-5.8506-.1294-.6064,1.727.1592,2.5405.7519,1.7178,4.8042,5.3389,8.793,6.0117,14.0435-.7695,2.7959.7803,5.8242-.8486,8.5361a.68932.68932,0,0,1-1.064.0157A2.20219,2.20219,0,0,0,119.58305,162.4077Z"/>
            <path class="cls-18" d="M118.26365,140.3867c-.8135-.5927-2.6699-1.3583-2.5405-.7519,1.2192,5.8291-3.6626,4.2197-6.0703,5.8506-1.126-2.0996,2.7983-2.6006.8149-4.3862a5.21461,5.21461,0,0,0-5.9131-.9546,50.04285,50.04285,0,0,0-5.8418,3.8066q-1.7937-2.6697-3.5888-5.3418c6.9765-.4116,12.9804-5.3862,20.2744-4.3008C118.107,135.5078,124.296,135.0708,118.26365,140.3867Z"/>
            <path class="cls-19" d="M98.16215,145.7886c5.1396-1.3247,8.1743,5.7163,13.7885,3.0361-1.2304,5.9639-8.664,2.0396-10.08,7.0249-4.0142.2154-5.7198,4.4165-9.9688,5.8638.8491-3.1987,1.54-5.8188,2.2388-8.436,6.4428-.271,6.6904-.7954,3.1455-6.7207Q97.72415,146.16925,98.16215,145.7886Z"/>
            <path class="cls-17" d="M97.28615,146.5567c3.5449,5.9253,3.2973,6.4497-3.1455,6.7207-1.5-3.2891-3.2207-.7788-4.2666.1528-1.5274,1.3599-2.5972,4.4273-4.7505,3.4321-2.6714-1.2358.2314-4.2749-.6206-6.4277,1.2934-.375,1.3974-2.5391,3.207-2.1299l.3296.4976.3516.4839C92.66015,152.6216,94.27835,147.3155,97.28615,146.5567Z"/>
            <path class="cls-20" d="M86.09715,146.9356c2.3906-.0972,4.4678-.6162,4.7891-3.5196q2.19945-2.5671,4.395-5.1425.9771,1.842,1.9609,3.6811.299,3.2037.6016,6.4058c-.4023.0366-.8105.0727-1.2163.1084-3.3784-2.7373-7.0137,2.29-10.394-.3462l-.0801-.5903Z"/>
            <path class="cls-16" d="M88.39115,149.2862c4.2295.6977,5.0263-5.4532,9.3003-4.6602a9.27581,9.27581,0,0,0,.4736,1.1626q-.4416.38085-.8789.7681C94.27835,147.3155,92.66015,152.6216,88.39115,149.2862Z"/>
            <path class="cls-21" d="M119.78805,136.1431a59.73888,59.73888,0,0,1-3.6401-4.7441c-1.5366-2.293-5.541-9.2657-7.3486-6.5601-1.8067,2.7031-14.5293,12.5811-13.5181,13.4346,1.0098.852,4.2222,1.1943,6.3189-.148,2.0952-1.3423,5.3706-3.4902,7.8681-3.1035C111.96825,135.4092,120.64355,138.8623,119.78805,136.1431Z"/>
            <path class="cls-22" d="M100.22555,132.3057c2.0054-1.3003,3.5298-2.8052,2.3252-5.4663q.58305-3.3282,1.1573-6.6665,1.77975,1.0869,3.5654,2.168,1.89105,2.60445,3.7822,5.206-.4944.3552-.9897.7124c-4.3033-.6299-4.8658,5.5459-9.1201,5.0068l-.3682-.4765Z"/>
            <path class="cls-22" d="M111.03765,119.5948c.5576,2.3227,1.4667,4.2641,4.3789,4.018q2.9391,1.6605,5.8935,3.3179c-1.0796.8779-2.1562,1.7529-3.2319,2.6348q-3.0879.91185-6.1709,1.8291c-.1128-.3916-.228-.7828-.3413-1.1758,2.0342-3.8423-3.5996-6.438-1.6709-10.2637l.5698-.1934Z"/>
          </g>
          <g>
            <path class="cls-15" d="M399.89064,115.1367c.9292,5.4937-1.12159,10.5889-2.55759,15.7627-.34281,1.2339-.75931,2.4517-2.24611,2.9854-1.7964-.8291.5517-3.7837-2.4673-3.9922q-.7185-1.81425-1.439-3.6318c1.37841-.5425,3.4107,1.1167,4.1577-.4844.6011-1.2891-1.4096-1.8657-2.3242-2.7417-.6225-.5986-2.2856-1.5718-.1826-2.5151,1.7134.3618,3.4258.7241,5.5181,1.1665-1.023-2.4815-3.7823-3.4141-4.002-5.7774,1.0938-.7265,3.1528-.3139,3.2236-2.2514C398.84084,113.5064,399.23384,114.4922,399.89064,115.1367Z"/>
            <path class="cls-16" d="M399.89064,115.1367c-.6568-.6445-1.0498-1.6303-2.3194-1.4799-.76019-1.0401-1.4228-2.106-3.0503-2.2769-2.7958-.2915-2.6616-1.6157-1.228-3.2842h-.0337c2.6875,1.6338,4.3091-2.0864,6.9517-.643-.1245-1.6006-1.332-1.5874-1.9658-2.1211.1045-.5503.21091-1.1035.3198-1.6524a.386.386,0,0,0-.0337-.6284,4.87685,4.87685,0,0,1,2.9697-1.6675c1.3628,1.4751.5152,3.0298.20411,4.5694C401.09184,109.0132,400.49654,112.0767,399.89064,115.1367Z"/>
            <path class="cls-17" d="M398.24514,105.3316c.6338.5337,1.8413.5205,1.9658,2.1211-2.6426-1.4434-4.2642,2.2768-6.9556.6416.8921-.6485,1.3013-1.4712.1739-2.104a2.45062,2.45062,0,0,0-3.5528.9765c1.187.3931,2.3018.7613,3.4165,1.1289-1.4336,1.6685-1.5678,2.9927,1.228,3.2842,1.6275.1709,2.29011,1.2368,3.0503,2.2769-.0708,1.938-2.1298,1.5254-3.2246,2.2519-3.2617-.7475-.8647-5.2075-4.7597-5.8252,1.852,3.2647-2.6524,5.1875-1.6924,8.1953a6.41765,6.41765,0,0,1-.7442.3013c-.15329-.1973-.3071-.3931-.4604-.5898a29.48269,29.48269,0,0,1-2.5815-3.3814,2.86355,2.86355,0,0,1,.498-3.5088c1.11961-1.2026,1.5239,1.105,2.8608.4004-1.104-1.3921-.1596-4.3027-3.914-3.4761-.3931.086.0703-1.0224.436-1.5136,3.0806-1.1011,5.5977-3.3135,8.98881-3.8057,1.82909.4058,3.76069-.5654,5.55319.3457a.38489.38489,0,0,1,.0317.6284A1.22423,1.22423,0,0,0,398.24514,105.3316Z"/>
            <path class="cls-18" d="M383.98924,106.5108c-.3657.4912-.8291,1.5996-.436,1.5136,3.7544-.8266,2.81,2.084,3.914,3.4761-1.3369.7046-1.74119-1.603-2.8608-.4004a2.86355,2.86355,0,0,0-.498,3.5088,29.48269,29.48269,0,0,0,2.5815,3.3814q-1.69333,1.10595-3.3931,2.2133c-.4052-4.1108-3.7529-7.5654-3.19479-11.8911C380.82714,106.6919,380.42044,103.0464,383.98924,106.5108Z"/>
            <path class="cls-19" d="M387.89454,118.2793c-.96-3.0083,3.5444-4.9311,1.6924-8.1958,3.895.6177,1.498,5.0777,4.7597,5.8252.2207,2.3633,2.98,3.2959,4.003,5.7774-2.0923-.4424-3.8047-.8047-5.5181-1.1665-.3037-3.8003-.648-3.9371-4.4233-1.7369C388.23874,118.6158,388.06494,118.4473,387.89454,118.2793Z"/>
            <path class="cls-17" d="M388.40824,118.7827c3.7753-2.2002,4.1196-2.0634,4.4233,1.7369-2.103.9433-.4399,1.9165.1826,2.5151.9146.876,2.9253,1.4526,2.3242,2.7417-.747,1.6011-2.77929-.0581-4.1577.4844-.268-.7559-1.6748-.7783-1.4477-1.854l.3183-.2041.3052-.2188C392.43705,121.4043,388.96434,120.5474,388.40824,118.7827Z"/>
            <path class="cls-20" d="M388.88084,125.3819c-.1113-1.4077-.4892-2.625-2.3784-2.7622q-1.70955-1.25325-3.4238-2.5c.7822-.4087,1.5669-.8169,2.3481-1.2261q2.0727-.2358,4.1431-.4727c.0317.2398.0615.479.09321.7173-1.70751,2.0435,1.626,4.1001-.01511,6.1441l-.3828.0571Z"/>
            <path class="cls-16" d="M390.35644,123.9839c.3701-2.5078-3.6362-2.8677-3.2061-5.4038a6.41765,6.41765,0,0,0,.7442-.3013c.1704.1685.3442.337.5137.5039C388.96434,120.5474,392.43705,121.4043,390.35644,123.9839Z"/>
            <path class="cls-21" d="M381.20554,105.6875s-1.5473,1.2862-3.0049,2.2364c-1.458.9482-5.8989,3.4394-4.1098,4.4575,1.791,1.0161,8.4551,8.3491,8.9878,7.7383a3.51873,3.51873,0,0,0-.2232-3.7281c-.9136-1.2138-2.3701-3.1069-2.16939-4.5903C380.88764,110.3184,382.95314,105.1328,381.20554,105.6875Z"/>
            <path class="cls-22" d="M379.10794,117.3072c-.8843-1.1582-1.8907-2.0318-3.5933-1.2735q-2.16945-.28125-4.3462-.5615.668-1.073,1.3325-2.1431,1.6524-1.1637,3.3028-2.3296c.1601.191.3222.3814.4829.5733-.3252,2.5498,3.69141,2.771,3.4267,5.293l-.2964.2251Z"/>
            <path class="cls-22" d="M370.64594,111.1563c1.4976-.3711,2.7349-.9448,2.5176-2.6587q1.01805-1.7688,2.0347-3.541.88621.9324,1.7739,1.8593.65625,1.80765,1.3072,3.6124c-.2476.0732-.5.1469-.75.2221-2.5347-1.1313-4.107,2.2422-6.6275,1.1719l-.1357-.3325Z"/>
          </g>
          <g>
            <polygon class="cls-8" points="376.771 122.273 376.876 123.291 375.958 123.886 374.935 123.46 374.829 122.442 375.745 121.845 376.771 122.273"/>
            <polygon class="cls-8" points="378.951 124.25 379.055 125.268 378.137 125.861 377.114 125.434 377.006 124.416 377.925 123.822 378.951 124.25"/>
            <polygon class="cls-8" points="373.8 122.603 373.903 123.627 372.984 124.215 371.962 123.791 371.855 122.769 372.773 122.176 373.8 122.603"/>
            <polygon class="cls-8" points="370.497 121.232 370.607 122.25 369.69 122.845 368.663 122.421 368.557 121.402 369.474 120.805 370.497 121.232"/>
            <polygon class="cls-8" points="367.566 121.661 367.672 122.684 366.763 123.276 365.735 122.851 365.624 121.83 366.54 121.238 367.566 121.661"/>
            <polygon class="cls-8" points="373.451 120.042 373.56 121.06 372.645 121.653 371.618 121.231 371.51 120.211 372.425 119.613 373.451 120.042"/>
            <polygon class="cls-8" points="371.186 118.546 371.286 119.568 370.371 120.162 369.353 119.736 369.242 118.717 370.155 118.12 371.186 118.546"/>
            <polygon class="cls-8" points="375.867 119.072 375.984 120.087 375.057 120.681 374.039 120.252 373.925 119.233 374.851 118.644 375.867 119.072"/>
            <polygon class="cls-8" points="372.021 116.151 372.13 117.171 371.21 117.768 370.189 117.343 370.083 116.322 370.998 115.725 372.021 116.151"/>
            <polygon class="cls-8" points="371.336 126.42 371.448 127.437 370.533 128.031 369.505 127.604 369.396 126.584 370.315 125.991 371.336 126.42"/>
            <polygon class="cls-8" points="374.163 128.252 374.271 129.273 373.356 129.862 372.332 129.439 372.222 128.418 373.139 127.827 374.163 128.252"/>
            <polygon class="cls-8" points="377.589 127.693 377.687 128.712 376.771 129.305 375.748 128.885 375.646 127.86 376.56 127.266 377.589 127.693"/>
            <polygon class="cls-8" points="371.15 129.202 371.264 130.218 370.34 130.813 369.32 130.386 369.213 129.366 370.129 128.773 371.15 129.202"/>
            <polygon class="cls-8" points="367.794 127.474 367.898 128.491 366.979 129.088 365.96 128.66 365.853 127.64 366.769 127.045 367.794 127.474"/>
            <polygon class="cls-8" points="375.612 130.72 375.72 131.736 374.805 132.338 373.782 131.907 373.67 130.886 374.587 130.294 375.612 130.72"/>
            <polygon class="cls-8" points="380.155 129.858 380.26 130.876 379.34 131.469 378.315 131.045 378.208 130.026 379.127 129.434 380.155 129.858"/>
            <polygon class="cls-8" points="367.802 130.88 367.912 131.899 366.994 132.494 365.97 132.07 365.86 131.051 366.781 130.455 367.802 130.88"/>
            <polygon class="cls-8" points="364.783 127.758 364.887 128.778 363.971 129.372 362.952 128.945 362.838 127.93 363.761 127.333 364.783 127.758"/>
            <polygon class="cls-8" points="364.395 125.401 364.502 126.417 363.583 127.011 362.558 126.588 362.456 125.568 363.37 124.975 364.395 125.401"/>
            <polygon class="cls-8" points="378.992 119.153 379.108 120.172 378.183 120.77 377.165 120.347 377.051 119.326 377.975 118.728 378.992 119.153"/>
            <polygon class="cls-8" points="370.761 123.783 370.864 124.807 369.947 125.398 368.923 124.973 368.821 123.952 369.735 123.357 370.761 123.783"/>
            <polygon class="cls-8" points="367.233 124.077 367.336 125.098 366.427 125.688 365.396 125.268 365.289 124.247 366.208 123.651 367.233 124.077"/>
            <polygon class="cls-8" points="368.617 119.214 368.722 120.235 367.805 120.829 366.779 120.402 366.672 119.38 367.591 118.789 368.617 119.214"/>
            <polygon class="cls-8" points="365.606 119.609 365.714 120.629 364.798 121.224 363.767 120.801 363.666 119.78 364.583 119.187 365.606 119.609"/>
            <polygon class="cls-8" points="364.533 122.297 364.636 123.318 363.723 123.91 362.696 123.486 362.59 122.461 363.507 121.872 364.533 122.297"/>
            <polygon class="cls-8" points="374.209 125.388 374.32 126.408 373.408 126.998 372.381 126.578 372.27 125.556 373.191 124.959 374.209 125.388"/>
            <polygon class="cls-8" points="382.544 123.932 382.656 124.952 381.741 125.544 380.717 125.12 380.612 124.099 381.525 123.504 382.544 123.932"/>
            <polygon class="cls-8" points="382.315 126.555 382.425 127.575 381.512 128.168 380.487 127.745 380.382 126.723 381.298 126.13 382.315 126.555"/>
            <polygon class="cls-8" points="385.667 126.378 385.774 127.402 384.86 127.995 383.834 127.57 383.727 126.548 384.646 125.957 385.667 126.378"/>
          </g>
          <g>
            <polygon class="cls-8" points="224.705 71.484 224.843 72.827 223.631 73.612 222.282 73.05 222.141 71.707 223.349 70.919 224.705 71.484"/>
            <polygon class="cls-8" points="227.58 74.093 227.717 75.436 226.506 76.218 225.155 75.655 225.015 74.311 226.227 73.528 227.58 74.093"/>
            <polygon class="cls-8" points="220.784 71.919 220.92 73.27 219.707 74.047 218.358 73.486 218.219 72.138 219.429 71.355 220.784 71.919"/>
            <polygon class="cls-8" points="216.427 70.11 216.572 71.455 215.362 72.239 214.007 71.678 213.865 70.336 215.076 69.548 216.427 70.11"/>
            <polygon class="cls-8" points="212.561 70.676 212.699 72.026 211.5 72.808 210.145 72.246 209.996 70.899 211.205 70.118 212.561 70.676"/>
            <polygon class="cls-8" points="220.323 68.541 220.468 69.883 219.26 70.667 217.905 70.109 217.764 68.764 218.971 67.974 220.323 68.541"/>
            <polygon class="cls-8" points="217.334 66.565 217.467 67.916 216.26 68.698 214.916 68.136 214.77 66.791 215.976 66.004 217.334 66.565"/>
            <polygon class="cls-8" points="223.513 67.261 223.666 68.6 222.444 69.383 221.099 68.818 220.949 67.473 222.17 66.695 223.513 67.261"/>
            <polygon class="cls-8" points="218.438 63.407 218.581 64.751 217.366 65.54 216.019 64.978 215.879 63.632 217.086 62.844 218.438 63.407"/>
            <polygon class="cls-8" points="217.534 76.956 217.681 78.297 216.473 79.082 215.118 78.519 214.975 77.172 216.185 76.39 217.534 76.956"/>
            <polygon class="cls-8" points="221.264 79.372 221.404 80.721 220.198 81.498 218.847 80.939 218.702 79.593 219.914 78.813 221.264 79.372"/>
            <polygon class="cls-8" points="225.784 78.636 225.913 79.98 224.705 80.761 223.354 80.208 223.22 78.856 224.425 78.072 225.784 78.636"/>
            <polygon class="cls-8" points="217.289 80.625 217.438 81.967 216.219 82.752 214.875 82.188 214.732 80.842 215.94 80.061 217.289 80.625"/>
            <polygon class="cls-8" points="212.86 78.346 212.996 79.688 211.785 80.477 210.44 79.912 210.299 78.565 211.506 77.782 212.86 78.346"/>
            <polygon class="cls-8" points="223.176 82.629 223.317 83.97 222.11 84.764 220.76 84.196 220.612 82.849 221.823 82.066 223.176 82.629"/>
            <polygon class="cls-8" points="229.169 81.492 229.309 82.835 228.093 83.617 226.741 83.057 226.6 81.713 227.813 80.932 229.169 81.492"/>
            <polygon class="cls-8" points="212.87 82.84 213.016 84.185 211.804 84.97 210.453 84.411 210.307 83.066 211.523 82.279 212.87 82.84"/>
            <polygon class="cls-8" points="208.887 78.721 209.024 80.066 207.815 80.851 206.471 80.287 206.321 78.947 207.539 78.162 208.887 78.721"/>
            <polygon class="cls-8" points="208.375 75.611 208.517 76.952 207.303 77.735 205.951 77.177 205.816 75.831 207.023 75.049 208.375 75.611"/>
            <polygon class="cls-8" points="227.635 67.367 227.788 68.711 226.567 69.501 225.224 68.944 225.074 67.595 226.292 66.807 227.635 67.367"/>
            <polygon class="cls-8" points="216.775 73.477 216.911 74.828 215.7 75.607 214.35 75.046 214.214 73.699 215.421 72.915 216.775 73.477"/>
            <polygon class="cls-8" points="212.12 73.864 212.256 75.211 211.055 75.99 209.696 75.436 209.554 74.088 210.768 73.303 212.12 73.864"/>
            <polygon class="cls-8" points="213.944 67.447 214.084 68.796 212.874 69.579 211.521 69.014 211.38 67.667 212.591 66.886 213.944 67.447"/>
            <polygon class="cls-8" points="209.974 67.97 210.116 69.315 208.906 70.1 207.547 69.541 207.413 68.195 208.622 67.412 209.974 67.97"/>
            <polygon class="cls-8" points="208.557 71.516 208.694 72.864 207.488 73.645 206.134 73.084 205.994 71.733 207.203 70.954 208.557 71.516"/>
            <polygon class="cls-8" points="221.324 75.595 221.472 76.94 220.267 77.717 218.913 77.163 218.766 75.816 219.982 75.029 221.324 75.595"/>
            <polygon class="cls-8" points="232.321 73.672 232.468 75.02 231.262 75.801 229.911 75.241 229.771 73.893 230.979 73.109 232.321 73.672"/>
            <polygon class="cls-8" points="232.019 77.134 232.164 78.479 230.959 79.262 229.607 78.704 229.469 77.355 230.677 76.574 232.019 77.134"/>
            <polygon class="cls-8" points="236.444 76.901 236.583 78.252 235.378 79.034 234.022 78.472 233.882 77.126 235.094 76.346 236.444 76.901"/>
          </g>
          <g>
            <polygon class="cls-8" points="174.908 57.468 175.045 58.811 173.834 59.596 172.484 59.035 172.345 57.692 173.553 56.904 174.908 57.468"/>
            <polygon class="cls-8" points="177.783 60.077 177.92 61.42 176.709 62.203 175.359 61.639 175.217 60.296 176.43 59.513 177.783 60.077"/>
            <polygon class="cls-8" points="170.986 57.904 171.124 59.255 169.911 60.032 168.562 59.47 168.422 58.123 169.633 57.339 170.986 57.904"/>
            <polygon class="cls-8" points="166.629 56.094 166.775 57.439 165.564 58.224 164.21 57.663 164.069 56.32 165.279 55.532 166.629 56.094"/>
            <polygon class="cls-8" points="162.764 56.66 162.902 58.01 161.702 58.792 160.348 58.23 160.199 56.884 161.407 56.103 162.764 56.66"/>
            <polygon class="cls-8" points="170.527 54.526 170.671 55.868 169.462 56.651 168.108 56.093 167.966 54.749 169.174 53.959 170.527 54.526"/>
            <polygon class="cls-8" points="167.538 52.55 167.67 53.901 166.462 54.683 165.119 54.121 164.974 52.775 166.178 51.989 167.538 52.55"/>
            <polygon class="cls-8" points="173.716 53.246 173.869 54.584 172.646 55.368 171.302 54.803 171.152 53.458 172.373 52.68 173.716 53.246"/>
            <polygon class="cls-8" points="168.64 49.392 168.784 50.736 167.57 51.525 166.221 50.963 166.083 49.616 167.289 48.828 168.64 49.392"/>
            <polygon class="cls-8" points="167.737 62.941 167.885 64.283 166.677 65.066 165.32 64.503 165.177 63.157 166.388 62.374 167.737 62.941"/>
            <polygon class="cls-8" points="171.468 65.356 171.607 66.705 170.402 67.482 169.05 66.924 168.904 65.577 170.117 64.796 171.468 65.356"/>
            <polygon class="cls-8" points="175.987 64.62 176.116 65.963 174.908 66.745 173.558 66.192 173.423 64.841 174.627 64.057 175.987 64.62"/>
            <polygon class="cls-8" points="167.492 66.611 167.642 67.952 166.422 68.736 165.077 68.173 164.935 66.827 166.144 66.046 167.492 66.611"/>
            <polygon class="cls-8" points="163.063 64.331 163.201 65.673 161.987 66.461 160.643 65.896 160.502 64.549 161.71 63.767 163.063 64.331"/>
            <polygon class="cls-8" points="173.379 68.614 173.521 69.955 172.313 70.748 170.963 70.182 170.814 68.833 172.026 68.05 173.379 68.614"/>
            <polygon class="cls-8" points="179.373 67.477 179.512 68.82 178.297 69.602 176.944 69.042 176.803 67.697 178.016 66.916 179.373 67.477"/>
            <polygon class="cls-8" points="163.074 68.825 163.218 70.168 162.007 70.954 160.656 70.395 160.511 69.051 161.727 68.264 163.074 68.825"/>
            <polygon class="cls-8" points="159.09 64.706 159.227 66.051 158.019 66.835 156.674 66.273 156.525 64.932 157.742 64.146 159.09 64.706"/>
            <polygon class="cls-8" points="158.578 61.596 158.72 62.937 157.507 63.719 156.154 63.161 156.02 61.815 157.227 61.034 158.578 61.596"/>
            <polygon class="cls-8" points="177.839 53.353 177.991 54.695 176.77 55.485 175.427 54.928 175.278 53.58 176.496 52.791 177.839 53.353"/>
            <polygon class="cls-8" points="166.978 59.46 167.115 60.812 165.903 61.591 164.552 61.031 164.417 59.683 165.625 58.899 166.978 59.46"/>
            <polygon class="cls-8" points="162.323 59.848 162.459 61.195 161.259 61.974 159.899 61.42 159.758 60.073 160.971 59.287 162.323 59.848"/>
            <polygon class="cls-8" points="164.147 53.432 164.287 54.78 163.077 55.564 161.724 54.999 161.584 53.652 162.794 52.871 164.147 53.432"/>
            <polygon class="cls-8" points="160.177 53.954 160.318 55.299 159.109 56.084 157.75 55.525 157.615 54.18 158.826 53.396 160.177 53.954"/>
            <polygon class="cls-8" points="158.761 57.5 158.897 58.849 157.69 59.628 156.336 59.069 156.197 57.718 157.407 56.939 158.761 57.5"/>
            <polygon class="cls-8" points="171.528 61.579 171.675 62.925 170.471 63.702 169.115 63.148 168.969 61.8 170.186 61.013 171.528 61.579"/>
            <polygon class="cls-8" points="182.525 59.656 182.671 61.004 181.464 61.784 180.115 61.226 179.975 59.877 181.183 59.094 182.525 59.656"/>
            <polygon class="cls-8" points="182.223 63.118 182.367 64.465 181.163 65.247 179.811 64.688 179.672 63.339 180.881 62.559 182.223 63.118"/>
            <polygon class="cls-8" points="186.646 62.886 186.787 64.237 185.581 65.018 184.226 64.457 184.085 63.109 185.297 62.33 186.646 62.886"/>
          </g>
        </g>
        <g>
          <path class="cls-15" d="M252.31645,171.1924c-4.834,2.7705-10.3247,2.6065-15.6758,3.0479-1.2759.104-2.562.1347-3.5767-1.0762.1568-1.9727,3.7403-.7905,2.8921-3.6948q1.45455-1.30305,2.9111-2.6055c.9859,1.106.1309,3.585,1.8916,3.7339,1.417.1191,1.2637-1.9673,1.7686-3.1289.3477-.7905.686-2.6875,2.2983-1.0405.2515,1.7334.5044,3.4648.8135,5.582,1.9736-1.8189,1.895-4.7305,4.0366-5.7529,1.0601.7753,1.3833,2.8491,3.2271,2.2456C253.48435,169.6431,252.69335,170.3526,252.31645,171.1924Z"/>
          <path class="cls-16" d="M252.31645,171.1924c.3769-.8398,1.1679-1.5493.5869-2.6894.7134-1.0728,1.4848-2.0625,1.0815-3.649-.6924-2.7231.5967-3.0556,2.6577-2.2866l-.0122-.0322c-.603,3.0859,3.4483,3.3223,3.0073,6.3013,1.4595-.67,1.0284-1.7984,1.3106-2.5777.5522-.0923,1.1074-.1836,1.6606-.272a.38688.38688,0,0,0,.5787-.2485,4.87531,4.87531,0,0,1,2.5913,2.2109c-.9136,1.7896-2.6656,1.5293-4.2173,1.7706C258.47755,170.2032,255.39745,170.7017,252.31645,171.1924Z"/>
          <path class="cls-17" d="M260.94825,166.2588c-.2822.7793.1489,1.9077-1.3106,2.5777.441-2.979-3.6103-3.2154-3.0058-6.3042.916.6113,1.8291.7114,2.0347-.564a2.4529,2.4529,0,0,0-2.1465-2.9976c.0415,1.2495.083,2.4224.1225,3.5967-2.061-.769-3.3501-.4365-2.6577,2.2866.4033,1.5865-.3681,2.5762-1.0815,3.649-1.8443.6035-2.1675-1.4703-3.2285-2.2471-.4248-3.3179,4.5893-2.6118,3.8227-6.48-2.4248,2.8667-5.7861-.6958-8.2754,1.2446a6.3095,6.3095,0,0,1-.5395-.5947c.1323-.2114.2617-.4224.3945-.6348a29.54733,29.54733,0,0,1,2.2793-3.5918,2.86481,2.86481,0,0,1,3.4653-.7446c1.5157.6348-.5112,1.8106.6128,2.8228.9248-1.5171,3.9824-1.6372,1.9097-4.8755-.2188-.3384.9834-.2871,1.5708-.1138,2.0972,2.5112,5.0434,4.1074,6.6777,7.1206.2515,1.856,1.8311,3.333,1.5948,5.3296a.38611.38611,0,0,1-.5787.2476A1.22372,1.22372,0,0,0,260.94825,166.2588Z"/>
          <path class="cls-18" d="M254.91505,153.2881c-.5874-.1733-1.7896-.2246-1.5708.1138,2.0727,3.2383-.9849,3.3584-1.9097,4.8755-1.124-1.0122.9029-2.188-.6128-2.8228a2.86481,2.86481,0,0,0-3.4653.7446,29.54733,29.54733,0,0,0-2.2793,3.5918q-1.62675-1.20555-3.251-2.4194c3.7183-1.8008,5.8013-6.1357,10.0542-7.1079C253.65135,150.3833,256.93215,148.7432,254.91505,153.2881Z"/>
          <path class="cls-19" d="M245.22115,161.0205c2.4903-1.9404,5.8516,1.6221,8.2764-1.2446.7666,3.8682-4.2475,3.1621-3.8227,6.48-2.1407,1.0239-2.0621,3.9355-4.0357,5.7544-.3091-2.1172-.562-3.8486-.8135-5.582,3.4595-1.5987,3.4688-1.9683.1011-4.7505C245.02445,161.4605,245.12155,161.2403,245.22115,161.0205Z"/>
          <path class="cls-17" d="M244.92675,161.6778c3.3677,2.7822,3.3584,3.1518-.1011,4.7505-1.6123-1.647-1.9506.25-2.2983,1.0405-.5049,1.1616-.3516,3.248-1.7686,3.1289-1.7607-.1489-.9057-2.6279-1.8916-3.7339.6172-.5132.1514-1.8394,1.2408-1.9995l.3007.228.3096.2114C243.85885,166.3638,243.46245,162.8081,244.92675,161.6778Z"/>
          <path class="cls-20" d="M238.898,164.4024c1.2813-.5918,2.2935-1.3682,1.769-3.187q.58455-2.03835,1.1626-4.0767.9801.88845,1.962,1.7793.9375,1.864,1.8759,3.7246c-.2148.1123-.4267.2232-.6411.334-2.5078-.8955-3.2861,2.9438-5.771,2.1103l-.186-.3388Z"/>
          <path class="cls-16" d="M240.71825,165.3037c2.4819-.5205,1.4341-4.4038,3.9644-4.8779a6.3095,6.3095,0,0,0,.5395.5947c-.1006.2198-.1977.44-.2954.6573C243.46245,162.8081,243.85885,166.3638,240.71825,165.3037Z"/>
          <path class="cls-21" d="M254.72465,150.3921s-1.7412-1.0068-3.1368-2.0473c-1.394-1.0391-5.267-4.3457-5.6035-2.315-.334,2.0318-4.9121,10.8198-4.1548,11.1089a3.52251,3.52251,0,0,0,3.4219-1.4995c.8228-1.2759,2.0952-3.2974,3.5567-3.6216C250.27055,151.6934,255.85015,151.8399,254.72465,150.3921Z"/>
          <path class="cls-22" d="M243.09575,152.439c.7822-1.229,1.2553-2.4761-.0469-3.811q-.4842-2.13285-.9746-4.273c.8237.1709,1.6489.3433,2.4707.5098q1.6647,1.1484,3.3276,2.2939c-.1221.2163-.2466.4336-.3701.6524-2.5059.5766-1.3237,4.4214-3.7822,5.0444l-.3145-.2002Z"/>
          <path class="cls-22" d="M245.94435,142.3741c.8642,1.2749,1.831,2.2402,3.3652,1.4438q2.00835.342,4.0254.6836-.5706,1.15575-1.1328,2.3086-1.467,1.24065-2.9375,2.4761c-.1538-.2085-.3105-.42-.4668-.6289.1851-2.7691-3.5244-3.0787-3.3911-5.8145l.2656-.2397Z"/>
        </g>
        <g>
          <path class="cls-15" d="M216.90285,175.5049c-5.0845,2.2783-10.5308,1.5713-15.8999,1.4795-1.2803-.0225-2.5625-.1196-3.4531-1.4248.3515-1.9468,3.8007-.416,3.2451-3.3901q1.5768-1.1514,3.1548-2.3052c.8715,1.1992-.2251,3.582,1.5122,3.9033,1.3979.2593,1.4521-1.832,2.0703-2.9375.4243-.7529.9482-2.6069,2.3896-.8086.0786,1.751.1587,3.499.2564,5.6362,2.1445-1.6142,2.3535-4.519,4.5864-5.3242.979.876,1.0938,2.9717,2.9888,2.5537C218.21775,174.0801,217.36235,174.7075,216.90285,175.5049Z"/>
          <path class="cls-16" d="M216.90285,175.5049c.4595-.7974,1.3149-1.4248.8511-2.6177.8169-.9961,1.6816-1.9057,1.4389-3.5229-.4199-2.7788.8955-2.9815,2.8706-2.0122l-.0088-.0337c-.9062,3.0107,3.1011,3.6475,2.3667,6.5679,1.5191-.5225,1.2027-1.6871,1.5601-2.4341q.84015-.05715,1.6797-.1065a.386.386,0,0,0,.6001-.1904,4.8822,4.8822,0,0,1,2.3589,2.4575c-1.0855,1.6895-2.8028,1.2588-4.3711,1.3443C223.13285,175.1319,220.01755,175.3238,216.90285,175.5049Z"/>
          <path class="cls-17" d="M225.98145,171.4522c-.3574.747-.041,1.9116-1.5601,2.4341.7344-2.9204-3.2729-3.5572-2.3657-6.5718.8511.7007,1.75.8901,2.0796-.3599a2.4499,2.4499,0,0,0-1.8369-3.1938c-.0825,1.2475-.1577,2.4189-.2349,3.5913-1.9751-.9693-3.2905-.7666-2.8706,2.0122.2427,1.6172-.622,2.5268-1.4389,3.5229-1.8955.418-2.0103-1.6777-2.9898-2.5556-.0937-3.3438,4.8252-2.1446,4.4458-6.0689-2.6968,2.6118-5.688-1.2661-8.3584.4185a6.503,6.503,0,0,1-.4775-.645c.1528-.1978.3022-.3955.4555-.5943a29.366,29.366,0,0,1,2.625-3.3471,2.864,2.864,0,0,1,3.5215-.398c1.4449.7813-.6875,1.751.3301,2.8696,1.0703-1.4179,4.1245-1.2348,2.3828-4.6611-.1836-.3589,1.0069-.1894,1.5752.042,1.8379,2.7065,4.6099,4.5864,5.9385,7.748.0659,1.8711,1.4912,3.4971,1.0586,5.46a.38489.38489,0,0,1-.6001.189A1.22415,1.22415,0,0,0,225.98145,171.4522Z"/>
          <path class="cls-18" d="M221.26415,157.9473c-.5683-.2314-1.7588-.4009-1.5752-.042,1.7417,3.4263-1.3125,3.2432-2.3828,4.6611-1.0176-1.1186,1.1148-2.0883-.3301-2.8696a2.864,2.864,0,0,0-3.5215.398,29.366,29.366,0,0,0-2.625,3.3471q-1.49775-1.36005-2.9956-2.729c3.878-1.4228,6.3809-5.5312,10.71-6.0766C220.29445,154.9317,223.72025,153.6231,221.26415,157.9473Z"/>
          <path class="cls-19" d="M210.85105,164.6812c2.6709-1.6846,5.6621,2.1933,8.3589-.4185.3794,3.9243-4.5395,2.7251-4.4458,6.0689-2.2324.8071-2.4414,3.7119-4.5859,5.3261-.0977-2.1372-.1778-3.8852-.2564-5.6362,3.6011-1.2471,3.6465-1.6142.5708-4.7163C210.61185,165.0987,210.731,164.8887,210.85105,164.6812Z"/>
          <path class="cls-17" d="M210.49265,165.3052c3.0757,3.1021,3.0303,3.4692-.5708,4.7163-1.4414-1.7983-1.9653.0557-2.3896.8086-.6182,1.1055-.6724,3.1968-2.0703,2.9375-1.7373-.3213-.6407-2.7041-1.5122-3.9033.665-.4483.333-1.815,1.4316-1.8652l.2778.2548.2862.2427C208.96635,169.8628,208.92335,166.2857,210.49265,165.3052Z"/>
          <path class="cls-20" d="M204.22465,167.418c1.332-.4595,2.4165-1.1323,2.0747-2.9956q.7851-1.9695,1.562-3.9404.8877.98145,1.7754,1.9638.74925,1.9476,1.498,3.8926c-.2246.0903-.4472.1807-.6699.27-2.4087-1.1406-3.563,2.6035-5.9526,1.5274l-.1509-.3565Z"/>
          <path class="cls-16" d="M205.94535,168.4966c2.5224-.272,1.8647-4.2397,4.4287-4.4604a6.503,6.503,0,0,0,.4775.645c-.1206.2075-.2397.4175-.3589.624C208.92335,166.2857,208.96635,169.8628,205.94535,168.4966Z"/>
          <path class="cls-21" d="M221.36235,155.0469s-1.6338-1.1753-2.9195-2.3486c-1.2837-1.1729-4.81-4.8472-5.3452-2.8584-.5356,1.9883-5.9619,10.2798-5.2363,10.6421a3.5209,3.5209,0,0,0,3.5532-1.1529c.9458-1.1884,2.4121-3.0737,3.898-3.2514C216.79985,155.9004,222.33835,156.5987,221.36235,155.0469Z"/>
          <path class="cls-22" d="M209.58745,155.9307c.8999-1.1465,1.4936-2.3389.332-3.7969q-.27255-2.1708-.5479-4.3481,1.2063.3771,2.4087.7519c1.0274.8721,2.0586,1.7422,3.084,2.6114-.1435.2041-.2891.4086-.4346.6127-2.5503.3257-1.7568,4.2686-4.2627,4.6451l-.2924-.23Z"/>
          <path class="cls-22" d="M213.41845,146.1963c.7354,1.3555,1.6001,2.4116,3.2061,1.771q1.965.53985,3.938,1.0811-.68115,1.0905-1.3555,2.1821-1.58565,1.0899-3.1675,2.1733c-.1338-.2226-.2695-.4472-.4038-.6704.459-2.7383-3.2017-3.4131-2.7983-6.122l.2876-.2134Z"/>
        </g>
        <g>
          <path class="cls-15" d="M179.002,175.6607c-5.3227,1.6465-10.644.2846-15.9624-.4561-1.2681-.1782-2.5298-.4302-3.2559-1.8345.5855-1.8896,3.8243.0484,3.6329-2.9716q1.70355-.9522,3.4096-1.9043c.7202,1.2944-.6567,3.5268,1.0293,4.0566,1.3555.4258,1.6636-1.6426,2.4102-2.6655.5122-.6953,1.2573-2.4717,2.4702-.5122-.1343,1.7466-.2661,3.4917-.4277,5.625,2.3232-1.3423,2.8837-4.2007,5.1972-4.729.8653.9883.7261,3.0825,2.6568,2.8974C180.47905,174.4058,179.55465,174.9253,179.002,175.6607Z"/>
          <path class="cls-16" d="M179.002,175.6607c.5527-.7354,1.4771-1.2549,1.1607-2.4942.9316-.8906,1.9003-1.688,1.8564-3.3237-.0796-2.8096,1.25-2.8516,3.0928-1.6489l-.0049-.0352c-1.2651,2.8794,2.6372,3.9966,1.5547,6.8067,1.5698-.3345,1.3974-1.5284,1.8427-2.2281.5596.0313,1.1207.0645,1.6802.0996a.38706.38706,0,0,0,.6192-.1167,4.87768,4.87768,0,0,1,2.0439,2.7242c-1.2832,1.5454-2.9355.9091-4.5019.8042C185.23145,176.0464,182.11575,175.8579,179.002,175.6607Z"/>
          <path class="cls-17" d="M188.50435,172.7373c-.4453.6997-.2729,1.8936-1.8427,2.2281,1.0825-2.8101-2.8198-3.9273-1.5528-6.8091.7603.7978,1.6289,1.0952,2.108-.1055a2.45169,2.45169,0,0,0-1.4366-3.394c-.2339,1.2285-.4507,2.3823-.6684,3.5371-1.8428-1.2027-3.1724-1.1607-3.0928,1.6489.0439,1.6357-.9248,2.4331-1.8564,3.3237-1.9312.1851-1.792-1.9091-2.6573-2.8994.313-3.331,5.0484-1.5444,5.1475-5.4858-2.9922,2.2661-5.4922-1.9458-8.3472-.5977a6.64578,6.64578,0,0,1-.396-.6977c.1758-.1778.3482-.356.5249-.5347a29.59662,29.59662,0,0,1,3.0108-3.0049,2.86317,2.86317,0,0,1,3.5429.0322c1.3399.9502-.8945,1.6553-.019,2.8892,1.2339-1.2793,4.2427-.7275,2.9302-4.3398-.1387-.3775,1.0229-.065,1.5581.2329,1.497,2.9092,4.021,5.1123,4.956,8.4101-.1611,1.8658,1.0572,3.6533.3902,5.5493a.38507.38507,0,0,1-.6192.1138A1.22466,1.22466,0,0,0,188.50435,172.7373Z"/>
          <path class="cls-18" d="M185.45755,158.7608c-.5352-.2979-1.6968-.6104-1.5581-.2329,1.3125,3.6123-1.6963,3.0605-2.9302,4.3398-.8755-1.2339,1.3589-1.939.019-2.8892a2.86317,2.86317,0,0,0-3.5429-.0322,29.59662,29.59662,0,0,0-3.0108,3.0049q-1.3227-1.53225-2.643-3.0713c4.021-.9433,7.0039-4.7173,11.3657-4.7349C184.85985,155.6509,188.41945,154.7666,185.45755,158.7608Z"/>
          <path class="cls-19" d="M174.30565,164.1836c2.855-1.3481,5.355,2.8638,8.3472.5977-.0991,3.9414-4.8345,2.1548-5.1475,5.4858-2.3135.5303-2.874,3.3887-5.1972,4.731.1616-2.1333.2934-3.8784.4277-5.625,3.7261-.8023,3.8164-1.1616,1.1387-4.6123C174.018,164.5689,174.16065,164.3755,174.30565,164.1836Z"/>
          <path class="cls-17" d="M173.87455,164.7608c2.6777,3.4507,2.5874,3.81-1.1387,4.6123-1.2129-1.9595-1.958-.1831-2.4702.5122-.7466,1.0229-1.0547,3.0913-2.4102,2.6655-1.686-.5298-.3091-2.7622-1.0293-4.0566.7154-.3658.5508-1.7627,1.6485-1.6802l.2441.2886.2554.2744C171.80665,169.0992,172.19725,165.544,173.87455,164.7608Z"/>
          <path class="cls-20" d="M167.39505,166.0987c1.3803-.2959,2.5381-.8321,2.4243-2.7217q1.01655-1.86105,2.0268-3.7241.76245,1.08315,1.5245,2.166.50745,2.02365,1.0151,4.0449c-.2334.0635-.4658.125-.6982.1865-2.252-1.4238-3.8516,2.1529-6.0928.7945l-.1074-.3711Z"/>
          <path class="cls-16" d="M168.97415,167.377c2.5366.0361,2.3637-3.9829,4.9355-3.8911a6.64578,6.64578,0,0,0,.396.6977c-.145.1919-.2876.3853-.4311.5772C172.19725,165.544,171.80665,169.0992,168.97415,167.377Z"/>
          <path class="cls-21" d="M185.90525,155.8931s-1.4785-1.3628-2.6128-2.6846c-1.1323-1.3188-4.187-5.3935-4.9594-3.4848-.7715,1.9091-7.1636,9.4824-6.4869,9.9292a3.52022,3.52022,0,0,0,3.667-.7134c1.083-1.065,2.7652-2.7583,4.2632-2.7549C181.27445,156.1885,186.68705,157.5523,185.90525,155.8931Z"/>
          <path class="cls-22" d="M174.11135,155.3452c1.0312-1.0283,1.7661-2.1411.7876-3.729q-.0045-2.18835-.0156-4.3818,1.152.52,2.2998,1.0381,1.371,1.4838,2.7436,2.9648c-.167.1846-.3349.3716-.5034.5567-2.5723.0136-2.2607,4.0239-4.7949,4.0937l-.2627-.2636Z"/>
          <path class="cls-22" d="M179.09325,146.146c.565,1.4351,1.2964,2.5889,2.9668,2.147q1.8852.7749,3.7783,1.5493-.80775.99975-1.6098,2.0025-1.70445.89055-3.4077,1.7734c-.106-.2363-.212-.4766-.3189-.7153.7876-2.6612-2.7646-3.7749-2.0356-6.4151l.311-.1772Z"/>
        </g>
        <g class="cls-23">
          <path class="cls-24" d="M191.20065,52.4273c51.4869,6.2119,90.649,22.3672,89.3091,36.7153-2.206,23.4614-174.9209,8.0396-177.3784-16.043C100.67335,49.0205,164.36915,49.1885,191.20065,52.4273Z"/>
          <path class="cls-24" d="M200.55175,56.5367c25.4839,3.0737,44.8623,11.0712,44.2036,18.1738-1.0962,11.6108-86.5742,3.9746-87.7929-7.9409C155.74755,54.8496,187.27535,54.9336,200.55175,56.5367Z"/>
        </g>
        <g class="cls-23">
          <path class="cls-24" d="M375.11374,99.6885c28.4732,3.4351,50.1299,12.3691,49.3887,20.3037-1.2188,12.9751-96.7329,4.4463-98.0918-8.8716C325.05124,97.8037,360.27634,97.8975,375.11374,99.6885Z"/>
          <path class="cls-24" d="M380.28414,101.961c14.0938,1.6992,24.8101,6.1225,24.4468,10.0507-.60689,6.4209-47.87689,2.1978-48.5508-4.3916C355.50734,101.0279,372.94284,101.0747,380.28414,101.961Z"/>
        </g>
        <g class="cls-23">
          <path class="cls-24" d="M58.17185,97.0108c20.0889,3.7265,34.9478,16.9184,33.8877,29.9712-1.7378,21.3422-69.3281,13.7514-69.4087-7.9815C22.56985,97.2696,47.70265,95.0684,58.17185,97.0108Z"/>
          <path class="cls-24" d="M61.71,100.3892c9.9439,1.8437,17.2969,8.374,16.773,14.8359-.8609,10.5611-34.3135,6.8018-34.354-3.9511C44.09035,100.5166,56.52935,99.4278,61.71,100.3892Z"/>
        </g>
      </g>
    </g>
  </g>
</svg>
