<svg xmlns="http://www.w3.org/2000/svg" xmlns:xlink="http://www.w3.org/1999/xlink" width="426.07409" height="485.94928" viewBox="0 0 426.07409 485.94928">
  <defs>
    <style>
      .cls-1 {
        fill: #d32300;
      }

      .cls-2 {
        fill: #ff3804;
      }

      .cls-3 {
        fill: none;
      }

      .cls-4 {
        fill: #ff9700;
      }

      .cls-5 {
        fill: #e8e8c3;
      }

      .cls-6 {
        clip-path: url(#clip-path);
      }

      .cls-7 {
        fill: #bfbea5;
      }

      .cls-8 {
        fill: #ea8b00;
        opacity: 0.8;
      }

      .cls-9 {
        fill: #e58200;
      }

      .cls-10 {
        clip-path: url(#clip-path-2);
      }

      .cls-11 {
        clip-path: url(#clip-path-3);
      }

      .cls-12 {
        clip-path: url(#clip-path-4);
      }

      .cls-13 {
        fill: #f22800;
      }

      .cls-14, .cls-18 {
        fill: #212121;
      }

      .cls-14, .cls-15, .cls-16, .cls-17 {
        fill-rule: evenodd;
      }

      .cls-15 {
        fill: #383838;
      }

      .cls-16 {
        fill: #eae2b8;
      }

      .cls-16, .cls-21 {
        opacity: 0.6;
      }

      .cls-17 {
        fill: #fffbd4;
      }

      .cls-19 {
        fill: #191919;
        opacity: 0.2;
      }

      .cls-20 {
        fill: #fff;
        opacity: 0.3;
      }
    </style>
    <clipPath id="clip-path">
      <path class="cls-1" d="M77.18185,333.88628s39.91259,124.0552,111.03369,128.229c0,0-14.2735-10.1621-22.2994-22.6016-8.0283-12.4414-17.5087-23.664-20.4052-35.9746-2.8965-12.3086-17.5376-33.3916-25.1372-42.4141-7.5992-9.0244-9.67-15.7085-1.9253-13.1137,0,0-18.3877-17.5103-35.29149-17.9766C83.157,330.03468,79.17835,334.76908,77.18185,333.88628Z"/>
    </clipPath>
    <clipPath id="clip-path-2">
      <path class="cls-2" d="M59.01585,99.39458s3.6152-30.7217,39.75829-50.6006c0,0-7.8311,14.457-6.024,21.686,0,0,9.6377-25.9028,31.3238-35.3911l-2.2588,14.458s14.4575-23.0415,36.1435-32.5293c0,0-5.8735,9.0362-4.06639,15.813,0,0,13.10209-31.1738,48.794-29.3667,0,0-17.168,12.6499-9.93951,13.1016,7.22851.4521,38.854-12.1983,57.3774-5.8731,0,0-10.3911,5.4214-12.64989,9.9395,0,0,23.94539-5.4214,39.75739,4.9697,0,0-8.1319-.4517-12.6499,2.2588,0,0,27.1074-.9033,40.6616,11.2949,0,0-9.94.4517-11.7466,5.4219,0,0,26.6553,2.7104,47.8897,12.6499,0,0-6.7769,5.8735,0,7.2285,6.77681,1.3555,28.0112,8.584,32.52881,17.6201,0,0-25.752,18.0718-27.55911,32.5293-1.8071,14.4571-2.2588,40.209-33.4326,58.7324C281.74964,191.86138,59.01585,99.39458,59.01585,99.39458Z"/>
    </clipPath>
    <clipPath id="clip-path-3">
      <path class="cls-3" d="M122.73654,346.23688s12.19871,17.6196,21.2343,31.6264c9.0362,14.0039,25.3003,25.752,37.0469,27.1055v-9.0352s21.6856,10.8418,32.0772,12.6504l2.2592-6.7754s24.8487.9024,29.3662,6.7754c4.5181,5.875,2.2593,0,2.2593,0l.5645-4.9687s30.6093,6.7754,54.102-18.0723c23.4932-24.8481,37.9507-36.1431,46.5352-39.3061,8.5835-3.1621,20.3305-33.8838,38.4018-37.0464,0,0-47.8906-8.1324-54.667-22.5899-6.7768-14.457-11.7465-38.854-33.8842-35.2397C275.89425,254.97558,122.73654,346.23688,122.73654,346.23688Z"/>
    </clipPath>
    <clipPath id="clip-path-4">
      <path class="cls-3" d="M316.79114,218.96978a68.08039,68.08039,0,0,1-1.33589-26.8784c-4.36281-13.6788-8.67821-27.3467-11.63671-41.4034-22.6499-14.6767-37.42529-104.5776-134.8985-107.1909-89.71189-2.4053-131.22069,81.4956-156.55269,140.6221-7.354,17.167-11.832,15.4971-12.3496,30.1206-.3037,8.5835,3.3135,14.7583,9.0361,26.8052,6.6953,14.0971-1.9072,41.8427,44.6812,82.0131,46.58929,40.1714,126.34759,44.7857,203.269,16.0845,76.9234-28.7002,54.1275-111.6968,59.7725-120.1582C316.78044,218.97808,316.78774,218.97608,316.79114,218.96978Z"/>
    </clipPath>
  </defs>
  <g id="图层_2" data-name="图层 2">
    <g id="Layer_1" data-name="Layer 1">
      <g>
        <g>
          <g>
            <g>
              <path class="cls-2" d="M300.42884,183.24078s43.7437-26.2442,55.2662-31.3658c11.5161-5.1181,55.6694-26.0424,58.038-23.8891,7.0415,6.4004,11.5157,56.9731,12.1597,87.6958.6421,30.729-3.8408,96.6631-8.3218,97.2993-4.4819.6431-28.976-11.6582-52.063-22.6177-25.1806-11.9468-62.0595-38.8965-71.4838-47.7983-11.5225-10.8789-10.23589-31.3613-3.83889-43.5249C292.85364,193.97758,300.42884,183.24078,300.42884,183.24078Z"/>
              <path class="cls-4" d="M426.01234,215.68168c-.644-30.7227-5.1176-81.2954-12.1596-87.6958-1.2066-1.0972-13.2696,3.8013-26.3306,9.5444a69.14568,69.14568,0,0,1-5.5786,82.7647,69.06567,69.06567,0,0,1,2.2812,78.9629c16.2618,7.7651,30.1953,14.1928,33.4668,13.7231C422.17254,312.34478,426.65494,246.41068,426.01234,215.68168Z"/>
              <g>
                <path class="cls-5" d="M333.06654,198.59478c.6148.4282,1.2134.8481,1.7613,1.2612,12.5835-3.5864,29.50141-8.4004,33.66941-9.5742,6.83009-1.9195,54.19919-17.0654,54.19919-17.0654s-47.5898,12.1635-55.2666,14.5097C362.67,189.17778,345.46644,194.64648,333.06654,198.59478Z"/>
                <path class="cls-5" d="M336.50314,201.14648c.4604.3687.87011.7305,1.2793,1.1006,13.00681-2.3325,27.7675-4.9834,31.3501-5.6675,6.72071-1.2817,55.3686-12.1616,55.3686-12.1616s-43.8447,7.3628-56.3247,9.6035C361.73454,195.17628,348.14914,198.34568,336.50314,201.14648Z"/>
                <path class="cls-5" d="M326.99774,194.78178c.7827.4458,1.5571.8955,2.3403,1.375.3945.2412.7456.4746,1.1187.7134,11.9458-4.5088,31.7383-11.9507,34.8388-12.9893l56.545-22.6108s-52.064,18.56-58.2496,20.4834C359.15394,183.128,338.41034,190.63288,326.99774,194.78178Z"/>
                <path class="cls-5" d="M315.61444,189.38238c.7602.2998,1.5361.6103,2.3174.9428,8.7446-3.9008,35.4819-15.8325,40.1108-17.9672,5.5483-2.5586,59.7407-31.1495,59.7407-31.1495s-69.3486,32.2207-73.8242,34.5669C340.36984,177.65188,322.58174,186.08838,315.61444,189.38238Z"/>
                <path class="cls-5" d="M320.22084,191.33448c1.2867.5855,2.5796,1.2066,3.897,1.8862,10.58741-4.3315,30.9629-12.6738,34.5605-14.2426,4.9126-2.1382,61.67091-27.1031,61.67091-27.1031s-59.31731,22.4131-66.789,25.8199C347.902,180.27978,329.045,187.63238,320.22084,191.33448Z"/>
                <path class="cls-5" d="M424.82344,205.545s-41.6079,1.6006-54.0884,2.2363c-5.6665.292-17.07279.9756-27.8345,1.6416a8.73327,8.73327,0,0,1,.2769,1.5059c10.48481-.0401,21.5766-.1211,27.5576-.2662C377.775,210.49758,424.82344,205.545,424.82344,205.545Z"/>
                <path class="cls-5" d="M424.82344,228.58548s-29.4497-3.8384-46.7251-5.7607c-8.8189-.9756-24.3687-3.0748-37.1939-4.7159-.3076.4644-.6445.9322-1.0024,1.4112-.0791.0991-.189.2119-.27.3139,14.791,2.2705,34.0639,5.169,38.4663,5.5493C385.46064,226.02738,424.82344,228.58548,424.82344,228.58548Z"/>
                <path class="cls-5" d="M335.421,224.09718c16.0479,3.5708,39.2036,8.6748,43.3125,9.2891,6.4043.9643,47.0479,8.3242,47.0479,8.3242s-31.0449-7.6812-48.0064-10.8833c-8.9419-1.6856-26.8696-5.3921-40.7754-8.1709C336.51725,223.12018,335.97625,223.60308,335.421,224.09718Z"/>
                <path class="cls-5" d="M340.25354,204.75488a17.73074,17.73074,0,0,1,1.1705,1.5459c13.5971-1.3091,28.3154-2.7265,32.0815-3.1035,9.6084-.9614,51.6406-8.5395,51.6406-8.5395s-48.7602,5.3374-65.0796,7.2568C354.86194,202.52838,347.485,203.62108,340.25354,204.75488Z"/>
                <path class="cls-5" d="M342.73114,214.40188a12.05818,12.05818,0,0,1-.5332,1.374c11.75731,1.0132,24.9311,2.0879,29.8144,2.249,9.6006.3218,53.4546.6392,53.4546.6392s-56.6553-3.5161-67.2129-3.8384C354.49525,214.709,348.66814,214.55618,342.73114,214.40188Z"/>
                <path class="cls-5" d="M311.96594,240.40818c-.6943.3946-1.36669.7491-2.0322,1.1006,7.8301,6.503,28.1187,23.3189,31.8921,26.2256,4.6929,3.6377,31.5781,22.2012,36.0601,25.3989,4.4814,3.2032,23.0454,13.6553,23.0454,13.6553s-50.5728-37.3476-59.1055-42.8882C335.05484,259.50538,318.53144,245.87408,311.96594,240.40818Z"/>
                <path class="cls-5" d="M322.01925,234.22948c-.979.648-1.95171,1.2847-2.93951,1.9121,19.1402,11.753,50.27151,30.8946,53.5772,33.0948,4.7968,3.1987,48.6504,27.8423,48.6504,27.8423s-36.8135-24.3213-47.6919-30.7222C366.61734,262.24368,340.12274,245.48248,322.01925,234.22948Z"/>
                <path class="cls-5" d="M326.52994,231.11228c-.7305.5293-1.4844,1.0528-2.2378,1.5679,16.10011,9.3726,48.5396,28.2476,53.8062,31.1143,7.0395,3.8413,43.8447,21.1255,43.8447,21.1255s-32.96679-18.5635-43.8447-24.3286C371.028,256.84768,343.25894,240.53668,326.52994,231.11228Z"/>
                <path class="cls-5" d="M316.067,238.01318c-.8032.4868-1.6011.9658-2.38279,1.4229,9.49659,6.6089,51.22319,35.5952,54.813,37.4819,4.05029,2.1343,51.208,31.1494,51.208,31.1494s-39.68551-27.7353-49.92871-33.4931C361.00354,269.63578,325.945,244.98928,316.067,238.01318Z"/>
                <path class="cls-5" d="M333.66614,225.61428c-.5336.4419-1.06.8838-1.6308,1.3408,16.2685,5.374,39.4516,13.0113,44.1391,14.4331,7.3623,2.2412,48.649,12.8013,48.649,12.8013s-41.2867-14.0815-53.7671-17.6055C364.21944,234.66608,347.18574,229.504,333.66614,225.61428Z"/>
                <path class="cls-5" d="M328.88394,229.37938c-.21869.1685-.4531.3365-.67869.5049,16.70509,7.6035,45.48389,20.6836,50.21389,22.7051,6.7187,2.8799,45.4472,17.2837,45.4472,17.2837s-36.1694-15.6836-45.1328-20.1602C372.57044,246.62988,345.30584,235.82718,328.88394,229.37938Z"/>
                <path class="cls-5" d="M307.68864,186.65918c1.3667.4097,2.85161.8843,4.4023,1.4253,7.5005-4.2109,38.4869-21.605,41.46931-23.1914,3.62639-1.9189,62.09669-32.4292,62.09669-32.4292s-54.2012,25.3921-63.59569,30.085C342.68184,167.23688,307.74044,186.62938,307.68864,186.65918Z"/>
                <path class="cls-5" d="M306.08025,186.19438a18.643,18.643,0,0,0,2.60989-1.2432c13.1533-7.2119,43.07911-25.5054,47.0049-27.3149,5.5415-2.563,39.8994-23.4698,39.8994-23.4698s-48.6509,25.3931-53.1333,27.9517c-4.3277,2.4746-36.1397,22.2232-38.2901,23.561Q305.08289,185.90928,306.08025,186.19438Z"/>
              </g>
            </g>
            <g>
              <g>
                <path class="cls-1" d="M77.18185,333.88628s39.91259,124.0552,111.03369,128.229c0,0-14.2735-10.1621-22.2994-22.6016-8.0283-12.4414-17.5087-23.664-20.4052-35.9746-2.8965-12.3086-17.5376-33.3916-25.1372-42.4141-7.5992-9.0244-9.67-15.7085-1.9253-13.1137,0,0-18.3877-17.5103-35.29149-17.9766C83.157,330.03468,79.17835,334.76908,77.18185,333.88628Z"/>
                <g class="cls-6">
                  <g>
                    <path class="cls-7" d="M209.79554,417.51178c4.0205-.711,7.7622.3242,11.4224-1.5957,3.186-1.668,4.3569-4.8536,5.2876-9.1973.8008-3.752.0561-8.4746.477-12.5645.3243-3.1523,1.09971-4.4003,2.419-5.3007q.00435-1.7637.0024-3.4063a6.37225,6.37225,0,0,0-2.5761,1.6055c-1.7994,1.9941-1.3267,5.7929-1.6802,8.9609-.4985,4.4317-.4443,9.543-1.813,13.3438-.9526,2.6445-1.6177,3.9433-4.0195,4.2754-3.3921.4707-7.13089.1347-10.6646.2168-3.0635.0703-5.94429-.3184-8.7597.6406-2.73.9277-4.813,1.8262-8.0474.7519-5.7578-1.9101-10.5874-8.5449-15.84819-12.7363-2.185-1.7383-4.44231-2.3379-6.63331-3.6211a24.628,24.628,0,0,1-6.0986-5.4492c-2.0483-2.3496-4.07709-4.2363-5.435-7.3262a26.99477,26.99477,0,0,1-2.233-8.4004c-.5966-6.3584,2.814-11.0566,4.17291-16.1679,1.27979-4.8257.06789-10.8482,1.56839-15.5835,1.8691-5.8975,7.0498-7.1177,11.8242-8.0064,6.0571-1.1284,10.854-5.2007,16.62641-7.1347,3.08059-1.0328,7.66559.3437,11.19969,1.311,1.4859.4053,5.09331.7881,6.5718-.4395-1.22749-.7368-2.5996-1.6289-4.1064-2.643-4.3482-.4532-9.5518-4.5977-13.7779-3.6055-3.2631.7661-6.1699,2.2524-9.4531,2.9131a58.15229,58.15229,0,0,0-11.3974,3.6098,17.9263,17.9263,0,0,0-10.233,11.3335c-1.6044,4.9507-3.84369,9.146-5.4555,14.0782-1.5386,4.7158-1.5425,10.2773-1.4361,15.9072.107,5.6172-.205,11.2461,2.4668,17.0508,3.0235,6.5683,5.4268,10.9179,10.753,14.1465,5.0547,3.0586,10.1259,5.4589,15.041,9.207,4.9004,3.7402,8.95511,6.9199,14.103,7.1699a24.81941,24.81941,0,0,0,9.20611-.8652C205.47425,419.21488,207.46554,417.92578,209.79554,417.51178Zm-57.3007,2.7773c3.7578,5.6133,8.8422,11.1621,13.85541,13.4238,2.40239,1.0801,4.584,2.2832,6.98,3.6289,2.19429,1.2344,4.63969,1.92,6.64359,4.0801,1.999,2.1563,3.64841,4.8965,5.686,6.9063a17.29969,17.29969,0,0,0,7.2622,3.8359c4.7119,1.4492,10.5586,4.1231,14.6001,2.4785a22.553,22.553,0,0,0,5.208-3.0469,74.38216,74.38216,0,0,0,4.8359-7.3496,3.19193,3.19193,0,0,0-1.146.2539c-3.7641,1.5391-6.6015,5.75-10.8911,5.9473-2.4931.1133-5.40669-.5-7.9731-.5039-2.7227,0-5.0479-1.0762-7.7324-3.3105-5.7627-4.795-10.9209-11.0625-16.8487-15.1739a75.23246,75.23246,0,0,1-16.3808-15.0508,74.157,74.157,0,0,1-7.0059-10.7753c-2.562-4.7832-5.4663-9.0879-7.6367-14.1661-1.627-3.7988-2.7222-7.5449-4.2656-11.3183-1.6211-3.9629-3.5757-7.8653-5.044-11.874a35.50668,35.50668,0,0,1-1.5849-18.6187,31.06232,31.06232,0,0,1,8.6049-17.3882c2.96051-3.0298,4.08551-7.5117,4.918-12.5312.4829-2.9087.4863-7.854,2.19-9.6197,2.6577-2.7509,13.4814-.1787,12.8623-6.6367-1.0083-.3969-2.0196-.7837-3.043-1.1533a12.50862,12.50862,0,0,1-2.1846,1.4507c-1.7954.5845-3.82219.1426-5.6035.5932-2.0464.5191-2.7095,1.878-3.7915,3.8184-2.1509,3.8584-4.2666,6.3135-4.6387,11.7852-.2841,4.1992-3.5322,7.1162-5.3657,10.1303-2.4087,3.9527-4.8516,6.459-5.585,12.0474-.71479,5.4385-2.4365,10.7173-2.2709,16.7139.0859,3.1792,1.3256,5.8725,2.3447,9.0092a107.106,107.106,0,0,1,2.6972,10.752c1.4576,6.7285,5.3228,13.9414,8.2598,20.2852A160.86318,160.86318,0,0,0,152.49484,420.28908Zm69.7138-31.7012c1.4004-3.4023,2.9678-6.4882,4.3462-9.9336.6777-1.6855,1.10841-3.1074,2.3755-4.0234a3.82411,3.82411,0,0,1,.9761-.4219,11.3736,11.3736,0,0,1,.73481-2.6797c-2.55861.1827-4.05171,2.5118-6.02881,4.4239-1.4048,1.3574-2.0766,3.1562-3.1089,4.957-.9628,1.6758-2.3525,2.373-3.6347,3.5781-2.8374,2.6641-1.8423,8.836-5.2525,11.0157-1.395.8906-3.4013.8671-5.082.8964-2.8584.0508-5.5444.6621-8.3975.7188-4.5878.0918-7.5839,3.8047-12.0839-2.4414-4.0328-5.5938-9.8672-10.3047-12.11869-17.4199-1.50151-4.7559-2.91361-10.8028-1.80131-14.8106,1.2305-4.438,5.6192-6.7051,8.8521-8.0918,2.0464-.875,4.7871-1.2182,5.5571-3.8965.5342-1.8598.4497-4.5136,1.1568-6.2968,1.4052-3.5342,5.48731-4.0879,8.5649-4.2066,3.5088-.1338,7.1787,1.3999,10.21141-.4433,1.25489-.7632,4.72269-2.8682,4.88139-5.6041a7.103,7.103,0,0,1-1.2271-.3701c-.5874,2.1685-2.7441,2.9717-4.5742,3.1206-1.5996.1309-3.501-.625-5.1904-.9238a29.76056,29.76056,0,0,0-7.4146-.3052c-3.6865.3111-6.76609,3.3218-8.5498,6.9302-1.23729,2.5015-1.8628,3.4937-4.1089,4.4566a12.85339,12.85339,0,0,0-4.5112,3.2216c-3.1895,3.3116-5.811,6.0806-6.4468,12.0088-.23139,2.1543-.1626,4.3721-.372,6.4317a30.62829,30.62829,0,0,0,.1469,7.5468,74.38462,74.38462,0,0,0,1.9585,7.3047c.9678,3.7989,1.2749,5.8106,4.1724,8.2364,4.146,3.4667,8.8164,8.3554,13.0854,9.6914a39.58873,39.58873,0,0,0,7.6978,1.875c2.8281.289,4.1953-2.0664,6.6914-2.6231,4.104-.916,8.5024,1.707,12.2363-1.0117a14.35621,14.35621,0,0,0,4.2583-4.1758C221.25454,393.36918,221.33514,390.71488,222.20864,388.58788Zm-2.2617-21.5781c.0391-2.9551-1.3662-6.4604-2.6162-9.4131,0,0-4.1343-8.6328-8.4458-7.8511-1.7656.3199-2.74169,1.3062-4.7339.9122-2.4399-.481-3.5996-.8907-5.4263.4604a13.98324,13.98324,0,0,0-4.2651,5.1274c-.8403,2.0469-.5107,3.5186-2.0195,5.1519-3.0796,3.334-9.4644,3.9033-6.6206,12.0498,1.7685,5.0684,7.3852,10.043,10.9111,12.5859,2.07961,1.502,3.9424.9395,5.6899.4864,2.1578-.5625,4.47371-.6406,6.7115-.9922,1.32321-.2109,4.1303-.3027,5.0478-1.5391,1.1069-1.498.69341-5.3066,1.416-7.1855.7202-1.8692,2.2847-2.4766,3.0811-4.1836A13.66875,13.66875,0,0,0,219.94694,367.00978Zm-4.93069-7.5166a25.92507,25.92507,0,0,1,1.26079,5.5635c-.0117,1.7012-.53179,3.334-.7007,4.9883-.3037,2.9746-1.45609,6.5175-2.93309,8.1816-1.02881,1.1602-2.73581.3047-4.31791.1856a9.88719,9.88719,0,0,0-4.8017.7773c-2.7041,1.1016-5.5176,1.6719-8.8081-.5137-4.1055-2.7285-4.9024-8.3652-2.9322-11.4023,1.0508-1.6211,2.7705-2.2891,4.04891-3.5459,1.19479-1.1729,1.94819-3.1236,3.13329-4.2954a15.10356,15.10356,0,0,1,3.80371-2.5274c1.58639-.8457,1.98969-2.4004,3.93839-2.209C209.53434,354.97318,213.23454,355.56058,215.01625,359.49318ZM123.651,408.96288c2.6401,6.6387,6.0249,12.9883,9.2363,19.2598,2.941,5.75,5.5938,9.7617,9.9131,13.4766,4.5283,3.8945,7.1865,7.8418,10.5679,13.25,1.8408,2.9433,3.2295,5.9199,5.3696,8.5254q3.1443,3.8349,6.4321,7.2695c3.5318,3.707,8.07621,5.7246,12.0586,8.2246,1.3091-.5957,2.5923-1.1992,3.8365-1.8203-.0664-.0762-.1324-.1504-.1958-.2168-3.5259-3.8848-7.7188-6.3164-11.24609-10.2735a109.78349,109.78349,0,0,1-11.74761-15.7832c-3.0991-5.0878-6.44039-8.8437-10.0503-13.2187-8.5346-10.3457-18.95409-23.9102-21.8662-37.8887-1.3906-6.6719-1.6006-13.6758-4.4341-20.3906-2.8393-6.7295-5.1484-13.3809-8.0263-20.0962-2.2608-5.2759-5.855-11.7749-6.9527-17.2163a26.68525,26.68525,0,0,1,1.6787-15.4663,100.754,100.754,0,0,0,6.0142-14.8765c1.4399-4.7021,5.4155-7.5786,2.042-13.6958q-2.0406.3648-4.09469.8697c-.44831,1.4824-.13581,2.8647-.20071,4.9824-.0738,2.4546-.9165,4.6445-1.3648,6.8335-.8613,4.2036-2.5346,7.3432-4.0312,10.9131-.98729,2.354-2.5718,4.3593-3.5025,6.8593-.8623,2.3135-.5449,5.2061-.1093,8.1714.7881,5.3706,1.6689,11.1162,3.5293,16.353,2.2319,6.2784,5.3374,12.1929,7.3476,18.5025,1.917,6.0185,3.0581,12.1631,4.4375,18.2041C119.83854,396.49808,121.01774,402.33988,123.651,408.96288ZM60.72,423.44148c4.0341,2.7109,7.6943,5.8183,9.9531,11.4726,1.9238,4.8223,1.3476,9.4746,3.3686,14.2461,2.0562,4.8594,5.0611,8.1602,7.2115,13.1797a28.62572,28.62572,0,0,1,2.2763,6.5547c.0073.0508.0132.1015.0205.1543q1.566.84375,3.1861,1.6738a25.84727,25.84727,0,0,0-.2227-3.418c-.4189-3.2519-2.3472-6.8281-3.7383-10.0781-2.3452-5.4707-2.9946-9.416-4.0786-14.8984-.9209-4.6563-3.5303-10.8516-6.7666-14.0547-3.7959-3.7559-8.1348-4.3672-12.1704-7.2988-3.5898-2.6055-6.7939-6.9688-9.4668-11.6641q-.08415,1.4736-.1479,2.9101c.2055.2754.4043.5411.5878.7872C54.04415,417.46288,56.66765,420.71678,60.72,423.44148Zm48.65619-31.9395c-.165-1.8516.3623-3.3809.105-5.2402a47.26439,47.26439,0,0,0-2.40189-8.2286,56.52405,56.52405,0,0,0-5.65721-11.4667c-2.0703-3.1563-3.585-6.7964-5.7891-9.8702-4.4755-6.2373-8.05319-11.5019-10.02539-19.2822-.9062-3.5742-1.9951-6.6235-1.9575-9.9463.0259-2.1606.2486-4.4844.2862-6.7397a22.26176,22.26176,0,0,0-.9732-5.3174q-2.425,2.46825-4.6367,5.1914c.0283,4.5547-.0391,8.4556,1.1865,13.5137,2.6265,10.8466,10.13379,19.9228,16.24119,28.3237,3.05721,4.2012,6.1216,9.2578,6.7173,14.5215a145.689,145.689,0,0,0,2.56891,16.4043c2.30369,10.0722,6.90619,23.3926,14.45459,30.4648-3.6954-5.3906-5.3462-13.3008-7.2154-19.4902A67.0948,67.0948,0,0,1,109.37614,391.502Zm-49.12549,44.2793c3.0576,3.5078,3.541,5.6152,3.4956,9.873-.039,3.6231,1.8858,7.3731,3.2119,11.1211.1368.3848.3726,1.2559.6724,2.3457q1.6575,1.19835,3.4556,2.4141c-1.189-3.75-2.771-7.8242-2.9912-9.252-1.0123-6.5742-.7056-14.4277-5.314-20.6328-1.8584-2.5-5.1255-4.4609-7.3765-5.8789-1.2539-.7929-3.5127-3.3261-5.4619-5.041-.0049,1.7598.0132,3.457.0586,5.0723.6445.6094,1.2847,1.1836,1.8735,1.7285A109.34385,109.34385,0,0,1,60.25065,435.78128Zm54.02489,7.291c1.7481,4.7617,2.93171,10.416,6.1084,14.2461,4.0708,4.9043,8.0025,3.9082,12.3086,7.3867,5.0132,4.0489,7.4868,10.3438,11.1602,16.0235,1.0874,1.6796,1.9516,3.4609,2.8974,5.2207,1.0962-.0274,2.1905-.0723,3.2862-.1426a34.58041,34.58041,0,0,1-3.4659-6.0332c-3.228-6.9668-8.3037-14.3262-13.6421-18.5059-4.0585-3.1816-8.143-3.4961-12.0786-7.7656a24.18944,24.18944,0,0,1-4.16649-6.0645C115.92054,445.877,115.47034,444.03518,114.27554,443.07228Zm-55.58929-82.8984a43.85213,43.85213,0,0,0,2.1421,5.7109,65.60866,65.60866,0,0,0,9.1469,15.0859c3.9165,4.6543,8.836,7.752,12.9439,12.2813A49.05183,49.05183,0,0,1,93.57,410.26178a168.68235,168.68235,0,0,1,5.768,19.3769,106.00152,106.00152,0,0,1,2.6611,19.6524,37.45932,37.45932,0,0,0,5.168,17.3261c3.1045,5.0371,7.30711,7.086,10.6558,11.6289a24.06893,24.06893,0,0,1,2.6411,4.9161c.6987.1582,1.3984.3144,2.1011.4589-1.8404-3.7695-5.44-7.6855-7.312-10.2324-3.4195-4.6523-6.3287-9.2422-7.6412-15.1172-1.1386-5.0996-1.2231-10.0879-2.0239-15.1777-1.1797-7.5156-3.2407-15.1289-4.5449-22.709-2.9766-17.3183-12.47709-31.8125-24.05419-42.7344-1.9385-1.83-4.041-3.1308-6.0601-4.9336-2.4917-2.2246-3.3657-4.5312-4.6782-7.8584-1.6528-4.1943-3.165-7.7465-3.4009-11.9047-.0351-.6128-.2065-2.148-.3901-3.8277C61.06805,352.74218,59.81215,356.43508,58.68625,360.17388Z"/>
                    <path class="cls-5" d="M141.088,455.04108c1.53421,3.9882,3.5498,6.3984,5.7793,9.8281,2.2715,3.4922,3.794,7.4277,6.2735,10.7187,3.0898,4.1016,6.7797,4.6387,9.87741,8.3145a72.38433,72.38433,0,0,0,7.96089-2.3574,7.09534,7.09534,0,0,0-2.4028-1.0196c-1.8223-.3593-3.2549.6524-5.1606-.1582-1.8389-.7832-3.004-2.457-4.4913-4.2597-2.833-3.4297-5.6953-5.9493-8.03219-10.0918C149.43134,463.42188,143.22084,450.959,141.088,455.04108Zm33.2495-30.7207c2.9532,1.5664,5.9033,2.2832,8.84671,4.3652,2.50149,1.7656,4.89889,3.7851,7.45509,5.3789,4.5591,2.8437,9.8003,4.1875,14.0171,3.4258,3.96581-.7149,6.6953-3.4395,10.248-4.9473,2.7022-1.1465,4.8657-3.1191,7.4419-4.4629.4458-.2344,1.4473-.4824,2.5103-.832q.65475-2.1855,1.1904-4.3496c-2.9014-.0371-5.8311,3.2461-7.9526,4.1582-3.6827,1.5781-7.3399,3.6504-11.2749,4.5058-3.5635.7715-6.5884,2.6485-10.6578,1.4825a48.83932,48.83932,0,0,1-7.9658-2.7657c-2.36469-1.1503-4.0102-3.2128-6.103-5.25-3.57469-3.4707-7.5674-4.3886-11.2656-7.8339-3.8096-3.5469-7.5459-7.3965-11.3189-10.6934-1.65719-1.4453-3.2881-2.6211-4.4917-4.7246-1.2109-2.1172-2.0898-4.7891-3.1797-6.9512a53.92823,53.92823,0,0,1-5.6904-17.4375c-.9209-6.0293-.9126-11.7461-1.249-17.5581-.1758-3.0093-.87939-6.3769-.6611-9.2353.2265-2.9419,1.5434-5.4331,2.6069-7.6968.9975-2.1299,1.2895-4.6362,2.1797-6.7984.7754-1.8828,2.2754-3.1557,3.4355-4.5556,1.3277-1.6035,1.87261-3.9009,3.3809-5.1826a22.35,22.35,0,0,1,5.6538-3.4458c6.58591-2.7901,13.7554-4.7315,20.0434-8.3257-.0053-.0288-.0063-.0591-.0112-.0864q-2.41335-1.45545-4.9585-2.8907c-1.8154,1.3653-3.3305,3.4888-5.25779,4.5679-4.23681,2.375-9.16111,3.2256-13.69821,4.8433a24.07211,24.07211,0,0,0-14.2295,14.7275c-1.4971,4.2178-1.3819,10.207-2.2979,14.9165-.6128,3.1494.18361,6.6655.064,10.1162a74.66681,74.66681,0,0,0,.5215,11.2857c1.7793,14.6953,8.7749,28.9804,18.0713,40.1308,2.288,2.7461,4.8291,4.5137,7.3364,6.582C169.57834,420.84968,171.74725,422.94928,174.33754,424.32038Zm-65.8994.5527c.0562-5.7578-3.1562-13.0684-4.73-19.1875a72.93564,72.93564,0,0,0-10.1513-22.5176c-4.72759-6.7129-10.73829-11.2539-14.84719-18.7959-2.5605-4.7036-4.1982-10.9204-5.3228-16.0024-1.145-5.1763-2.1992-10.3125-3.3662-15.4395q-1.6377,2.8989-3.1128,5.9356a66.88547,66.88547,0,0,0,3.024,10.2744c2.6172,6.8037,5.248,14.4321,9.0517,20.5464,3.9248,6.3115,9.5069,11.0166,13.88429,16.9365C101.26434,397.98248,102.31364,412.31058,108.43814,424.87308Zm32.0064-8.1524c4.5888,6.9649,9.2783,14.4922,15.1606,19.045,2.4712,1.9121,4.4434,4.6347,6.9116,6.5371a66.07073,66.07073,0,0,1,8.0616,6.7012c5.0493,5.3222,12.3437,19.2812,19.27391,23.246,1.09319-.6816,2.165-1.3691,3.19919-2.0722a17.53283,17.53283,0,0,1-1.57719-.9649,49.32512,49.32512,0,0,1-5.70991-5.1601c-2.3618-2.418-4.1963-3.8906-5.9146-7.2071-1.5971-3.08-3.8139-7.1386-5.9922-9.5644-3.3032-3.6836-7.77-6.4961-11.351-8.8398a40.64253,40.64253,0,0,1-12.5-12.8653,91.66612,91.66612,0,0,1-5.5855-9.6738,34.71775,34.71775,0,0,0-4.8213-7.5332c-4.7636-5.8399-5.9756-12.2422-7.9546-19.4024-.9765-3.5234-2.50289-6.9433-3.66689-10.4882-1.06061-3.2266-1.58841-6.5215-2.40781-9.8028-1.4716-5.8945-3.59619-12.4121-3.1606-17.9145.2183-2.7754,1.0747-4.7461,1.0459-7.667a31.73553,31.73553,0,0,1,.31051-6.5518c1.05959-4.9409,3.33789-8.8828,4.07279-14.104a50.49183,50.49183,0,0,0-.519-17.5298,38.55826,38.55826,0,0,0-1.2881-5.7871c-.2305-.6621-.5513-1.3608-.8794-2.0625-.9878.0425-1.9795.1035-2.9717.1909.3379,2.1319,1.4902,5.0835,1.71341,6.5914.35589,2.4199.41649,4.8339.66059,7.3085.7739,7.9146-1.9717,14.7906-4.1128,20.8101-1.04779,2.9473-2.0776,4.439-1.8257,8.3814.1631,2.5459.21391,5.1088.4776,7.7197.3276,3.2363,1.2617,6.6045,1.4956,9.8218.2812,3.8935.1098,6.6523,1.3291,10.7724C126.67884,384.74218,131.07874,402.50788,140.44454,416.72068Zm40.8335-17.9394c-6.8726-5.0645-14.3653-14.8359-16.2901-25.0527-.7168-3.8008-.2651-6.8379.1782-10.1602.4258-3.1851.313-6.9873,1.3516-9.7705,1.2129-3.25,3.7549-3.0776,5.543-5.292.9599-1.1894.5342-3.2466,1.1699-4.5693.5561-1.1524,1.84961-1.4659,2.8374-1.9029l-.5176-.7295c-2.3911-.9585-4.0005,1.4932-5.3281,2.9961-1.71,1.9336-3.6309,2.9703-5.14109,5.3028-1.40431,2.1704-1.604,4.0757-1.50781,7.373.1015,3.46-.9385,5.8677-1.564,8.8443-.708,3.3632.2754,6.1347.7734,9.9824.4156,3.2129.6768,7.3887,2.4419,10.4765,1.8057,3.1582,5.6431,6.4043,7.9893,9.0411,3.1836,3.5742,6.01421,7.6015,9.6968,9.7031,2.352,1.3437,4.7876,1.8398,7.1718,3.0547,1.6944.8652,3.39461,1.9082,5.0245,2.748,3.06,1.5684,5.5498.7403,7.9316-.5117-.981-2.9531-7.9663-2.9473-9.8584-3.4121-1.8076-.4453-4.5542-1.0527-6.2598-2.6973A57.652,57.652,0,0,0,181.278,398.78128Zm-83.4522-92.0845a11.89139,11.89139,0,0,0-.4497-2.2202,56.28881,56.28881,0,0,0-6.1245,3.8145c.8892,3.4995,1.4087,7.271,1.0757,9.0732-.66209,3.5928-1.9292,4.8628-1.086,9.5747.5625,3.1406,4.2471,23.2163,7.5918,22.4639-3.3213-8.5156-6.8144-17.7124-4.35589-25.0215a79.02521,79.02521,0,0,0,2.41649-9.9131A30.85727,30.85727,0,0,0,97.82584,306.69678Zm105.9458,62.4751c1.0684-2.664,2.3018-3.5342,4.5962-4.5215,1.5586-.6738,4.7793-.248,5.3833-2.3086l-.8086.0303c-3.2964-.5332-8.6562-1.2598-10.8652,1.874-1.2935,1.836-.4239,4.7461-2.2783,6.3018-1.6006,1.3447-3.628,2.0537-5.461,3.0146C195.75754,378.47068,203.12025,370.793,203.77164,369.17188Zm-18.9126,8.7207c-1.5259-3.8164-2.7427-7.6758-2.103-11.1445.5356-2.9092,2.0923-5.3164,1.4707-8.5562l-.1729.0752c-1.9965.8487-3.4824,4.4771-5.0971,6.2271-1.9927,2.1601-1.7832,2.289-.5484,6.0185,1.6436,4.9678,1.0054,8.212,4.5977,12.6123,2.28121,2.793,4.039,3.7872,6.6909,5.6836,2.2837,1.6348,4.2886,3.7207,6.6904,4.8379,1.9737.9141,4.1651,1.7364,5.7627.6133,2.2764-1.5996.169-2.8613-1.9463-3.6894C194.44934,388.31248,188.17354,386.18358,184.859,377.89258Zm-115.147,66.166a18.64248,18.64248,0,0,0,.4371,2.0684C70.00605,445.44148,69.85905,444.75,69.71205,444.05858Zm46.71779,19.6387c.79441,2.7774,3.3052,3.8242,4.9292,5.4473a72.39844,72.39844,0,0,1,5.55421,6.4863,72.52035,72.52035,0,0,1,6.65819,9.7559c1.3506.1484,2.7012.2754,4.0586.3711-.0063-.0118-.0146-.0215-.021-.0313-2.561-3.7539-5.185-7.4883-7.9687-10.9199C127.31264,471.93358,119.22914,461.51368,116.42984,463.69728Zm-64.15529-74.0351c-.2026,1.4023-.3935,2.8007-.5664,4.1835a37.89482,37.89482,0,0,0,3.6426,2.5938c3.0327,1.8633,6.4048,2.6602,9.4155,4.7734,2.9893,2.0996,8.0371,6.6524,10.2593,11.045-2.4995-5.709-4.4541-9.2032-9.018-12.918C61.55,395.709,56.55045,393.60358,52.27455,389.66218Zm23.6372,74.9843q1.87365,1.1514,3.857,2.295c-1.2417-2.6192-2.3833-5.5157-3.6909-8.1485-2.1153-4.2578-4.7447-8.2441-5.9287-12.666a87.39652,87.39652,0,0,0,3.644,13.5937C74.45135,461.44728,75.16225,463.07228,75.91175,464.64648Zm3.0928-60.5117c2.4571,3.2188,3.4185,6.5215,4.8413,10.3613,1.128-7.4609-5.6748-15.5078-10.6933-20.4414-2.1211-2.0859-4.4605-3.5859-6.3091-6.1738-1.6026-2.2422-3.0425-4.7617-4.4619-7.1953-1.8174-3.1191-3.7749-6.1504-5.3345-9.4316-.311-.6514-.5835-1.3145-.8418-1.9747q-.83415,3.3897-1.5425,6.7832a44.4704,44.4704,0,0,0,4.1138,8.8379c3.0459,4.9571,6.4643,6.9961,10.4726,9.5547C72.99675,396.84768,75.94455,400.13088,79.00455,404.13478Zm10.0777,50.8731c1.081,7.123,2.01409,12.3711,5.44669,19.4277q4.0716,1.8018,8.3716,3.416c-1.4365-2.6953-2.709-5.4492-4.0776-8.166-1.958-3.8848-4.0518-7.5274-5.7964-11.6055-2.3921-5.5918-4.71-12.539-5.17139-18.2793-.2851-3.5371.5435-7.2676-1.4385-11.0644.5576,4.2676-.0879,8.0547.524,12.3691C87.61835,445.86528,88.37765,450.35748,89.08225,455.00788Zm-14.0567-42.75c.2207.5.4414,1.0097.6719,1.5468A12.18771,12.18771,0,0,0,75.02555,412.25788Z"/>
                  </g>
                </g>
              </g>
              <g>
                <path class="cls-8" d="M118.44644,348.00928c-.05419-.018-.1089-.0317-.167-.0508-.042-.0747-.0874-.1533-.1323-.2275C118.337,347.90478,118.44644,348.00928,118.44644,348.00928Z"/>
                <path class="cls-9" d="M77.18185,333.88628c.8213.3652,1.9804-.2237,3.0576-1.0425,11.44039,37.4687,38.18749,101.2461,91.38769,121.1152,0,0-13.7866-13.7715-20.3516-27.2871-6.5654-13.5137-14.9306-26.498-15.9111-38.0859a45.45837,45.45837,0,0,0-2.5923-10.5078c5.7368,8.7851,11.1045,18.5195,12.7388,25.4609,2.8965,12.3106,12.3769,23.5332,20.4052,35.9727,8.0259,12.4414,22.2994,22.6035,22.2994,22.6035C117.09444,457.94148,77.18185,333.88628,77.18185,333.88628Z"/>
              </g>
            </g>
            <path class="cls-9" d="M124.09194,349.09138s12.19831,17.6196,21.2339,31.6254c9.0361,14.0059,25.3008,25.752,37.0479,27.1075v-9.0371s21.68551,10.8437,32.0766,12.6503l2.2593-6.7753s24.84861.9023,29.3667,6.7753c4.5176,5.875,2.2588,0,2.2588,0l.5644-4.9687s30.6089,6.7773,54.1026-18.0703c23.4927-24.8496,37.9502-36.1445,46.5342-39.3071,8.58391-3.1622,20.33-33.8838,38.4018-37.0464,0,0-47.8891-8.1324-54.6665-22.5894-6.7768-14.458-11.7466-38.854-33.8843-35.2402C277.24964,257.83008,124.09194,349.09138,124.09194,349.09138Z"/>
            <path class="cls-1" d="M122.73654,346.23688s12.19871,17.6196,21.2343,31.6264c9.0362,14.0039,25.3003,25.752,37.0469,27.1055v-9.0352s21.6856,10.8418,32.0772,12.6504l2.2592-6.7754s24.8487.9024,29.3662,6.7754c4.5181,5.875,2.2593,0,2.2593,0l.5645-4.9687s30.6093,6.7754,54.102-18.0723c23.4932-24.8481,37.9507-36.1431,46.5352-39.3061,8.5835-3.1621,20.3305-33.8838,38.4018-37.0464,0,0-47.8906-8.1324-54.667-22.5899-6.7768-14.457-11.7465-38.854-33.8842-35.2397C275.89425,254.97558,122.73654,346.23688,122.73654,346.23688Z"/>
            <path class="cls-4" d="M62.63105,96.00638s3.6138-30.7227,39.75679-50.6006c0,0-7.82959,14.4575-6.0224,21.686,0,0,9.6372-25.9033,31.3232-35.3906l-2.2588,14.457s14.457-23.0415,36.1436-32.5288c0,0-5.8736,9.0357-4.0664,15.8125,0,0,13.102-31.1738,48.7934-29.3662,0,0-17.1679,12.6504-9.9394,13.1021s38.854-12.1983,57.3774-5.8736c0,0-10.3906,5.4219-12.6504,9.94,0,0,23.9453-5.4219,39.7578,4.9692,0,0-8.1323-.4516-12.6504,2.2593,0,0,27.1079-.9043,40.6617,11.2944,0,0-9.9395.4522-11.7466,5.4214,0,0,26.65571,2.711,47.8901,12.6504,0,0-6.7768,5.8726,0,7.228,6.7769,1.3565,28.0108,8.585,32.5288,17.6202,0,0-25.7519,18.0717-27.5591,32.5288-1.80709,14.4575-2.2592,40.2099-33.4326,58.7334C285.36394,188.47268,62.63105,96.00638,62.63105,96.00638Z"/>
            <g>
              <path class="cls-2" d="M59.01585,99.39458s3.6152-30.7217,39.75829-50.6006c0,0-7.8311,14.457-6.024,21.686,0,0,9.6377-25.9028,31.3238-35.3911l-2.2588,14.458s14.4575-23.0415,36.1435-32.5293c0,0-5.8735,9.0362-4.06639,15.813,0,0,13.10209-31.1738,48.794-29.3667,0,0-17.168,12.6499-9.93951,13.1016,7.22851.4521,38.854-12.1983,57.3774-5.8731,0,0-10.3911,5.4214-12.64989,9.9395,0,0,23.94539-5.4214,39.75739,4.9697,0,0-8.1319-.4517-12.6499,2.2588,0,0,27.1074-.9033,40.6616,11.2949,0,0-9.94.4517-11.7466,5.4219,0,0,26.6553,2.7104,47.8897,12.6499,0,0-6.7769,5.8735,0,7.2285,6.77681,1.3555,28.0112,8.584,32.52881,17.6201,0,0-25.752,18.0718-27.55911,32.5293-1.8071,14.4571-2.2588,40.209-33.4326,58.7324C281.74964,191.86138,59.01585,99.39458,59.01585,99.39458Z"/>
              <g class="cls-10">
                <g>
                  <path class="cls-5" d="M316.55144,159.23878c7.34181-.1943,13.3003,1.6572,20.6382-.0425,6.3921-1.479,10.0683-5.103,13.9248-10.1548,3.3281-4.3613,4.479-10.144,7.3203-14.9746,2.1914-3.7226,4.1792-5.0888,6.9351-5.9516q.91845-2.1138,1.7651-4.0806a17.36234,17.36234,0,0,0-5.2998,1.501c-4.14889,2.0947-5.29489,6.7241-7.5444,10.4585-3.1539,5.2285-5.7046,11.3613-10.0381,15.6894-3.0181,3.0113-4.8467,4.461-9.1831,4.4668-6.1275.0069-12.4385-1.0078-18.6114-1.4882-5.3501-.4175-10.1474-1.3531-15.52489-.667-5.21731.667-9.29391,1.3999-14.34911-.4165-9-3.233-13.9497-11.9703-20.9116-17.8506-2.8911-2.4414-6.4976-3.5298-9.63529-5.4248a26.388,26.388,0,0,1-7.76271-7.5288c-2.34129-3.149-4.8867-5.7393-5.6435-9.6646a21.78787,21.78787,0,0,1,.4673-10.4316c2.2505-7.7144,10.5952-12.7832,15.5913-18.6856,4.7134-5.5698,5.7231-12.9844,10.7724-18.4126,6.2891-6.7593,15.90821-7.3725,24.646-7.6553,11.0913-.3603,21.5157-4.4541,32.5298-5.8251,5.87841-.7325,13.1192,1.6665,18.751,3.4033,2.3667.7295,8.4253,1.7788,11.627.5483-1.7491-1.0835-3.6675-2.376-5.7593-3.8374-7.3062-1.2544-14.1909-7.0723-22.0362-6.5757-6.05809.3843-11.8676,1.69-17.9003,1.9429a161.95386,161.95386,0,0,0-21.6397,2.46c-9.0049,1.6113-17.459,5.3745-23.6069,11.9018-5.3404,5.6694-11.39019,10.3286-16.7349,15.9732-5.1064,5.395-7.9849,12.06-10.708,18.8198-2.71829,6.7475-6.1685,13.4404-4.5332,20.8335,1.8496,8.3647,3.77,13.9678,11.3437,18.7046,7.1866,4.4946,14.74421,8.2002,21.3335,13.4975,6.5684,5.2798,11.959,9.7525,20.7618,10.895,5.39791.7007,11.0962,1.1836,16.415.4717C308.17594,160.57178,312.29464,159.35108,316.55144,159.23878Zm-100.834-6.0547c3.6196,7.3394,9.5723,14.8203,17.104,18.3482,3.606,1.6889,6.7686,3.4883,10.23,5.4926,3.1689,1.8365,7.0561,3.0582,9.4165,5.9756,2.3545,2.9097,3.7988,6.4619,6.2949,9.2036,2.6211,2.879,6.982,4.5591,10.6157,5.7867,7.4244,2.5048,16.1861,6.6645,24.0459,5.3564a62.63526,62.63526,0,0,0,10.6084-2.7959c4.3711-2.5952,8.4185-5.2759,12.1856-8.0141a8.68057,8.68057,0,0,0-2.1167.1152c-7.3281,1.23-14.4243,5.8086-21.9668,5.3413-4.3828-.2705-9.1216-1.4844-13.5718-1.9053a19.21647,19.21647,0,0,1-11.7026-5.2324c-7.52-6.688-13.2271-15.0435-21.3882-20.9375-7.6685-5.5395-15.5503-12.6309-20.6362-20.7139a60.37358,60.37358,0,0,1-6.583-14.0551c-1.9776-6.1485-4.7906-11.7837-5.9341-18.2203-.8555-4.8183-.8203-9.4863-1.5493-14.2607-.7657-5.0127-2.1387-10.0063-2.6153-15.0483-.8027-8.4956,2.2105-15.6954,6.8721-22.5669,5.959-8.7832,14.271-14.897,23.9101-19.4219,6.7027-3.145,10.9668-8.3296,15.0059-14.208,2.3408-3.4058,4.8994-9.3296,8.7686-11.1641,6.0327-2.8618,23.477,1.9912,25.7407-5.8467-1.5415-.6396-3.0967-1.2695-4.6812-1.8798a34.3,34.3,0,0,1-4.5395,1.3813c-3.416.4067-6.7046-.4556-10.0264-.206-3.8174.2856-5.6728,1.8056-8.5508,3.9531-5.7251,4.2705-10.6621,6.8647-14.13569,13.3589-2.66551,4.9853-9.80471,7.9477-14.54251,11.2573-6.2202,4.3428-11.7529,6.9458-15.9136,13.5195-4.0488,6.3994-9.7617,12.4409-12.5747,19.6514-1.49119,3.8223-.7324,7.2519-.5849,11.1772a86.60265,86.60265,0,0,1-.877,13.3223c-.9507,8.3018,2.0283,17.5732,3.8462,25.6558A126.81578,126.81578,0,0,0,215.71744,153.18408Zm137.313-26.5649c4.1855-3.8482,8.4956-7.2891,12.6714-11.1895,2.0459-1.9106,3.52641-3.5415,6.1977-4.4331a10.80217,10.80217,0,0,1,1.9136-.3447,16.54541,16.54541,0,0,1,2.6577-3.0894c-4.5322-.1997-8.32659,2.3462-12.7461,4.313-3.1338,1.3951-5.2304,3.441-7.9516,5.4278-2.5342,1.8496-5.3067,2.458-8.1553,3.6919-6.2954,2.7265-7.7603,10.2856-14.7998,12.3364-2.8804.8379-6.3511.4853-9.2817.2436-4.983-.4072-9.9566-.1142-14.9375-.5127-8.0039-.6416-15.12159,3.315-19.7017-4.9033-4.104-7.3623-11.7915-13.9585-12.0176-22.8554-.1499-5.9419.5264-13.4185,4.5249-18.0367,4.4273-5.1152,13.2114-7.1137,19.5376-8.2441,4.001-.7158,8.9331-.6768,11.6509-3.7593,1.8896-2.1406,3.1128-5.3349,5.2612-7.3545,4.2627-4.0039,11.6299-3.9985,17.0303-3.6367,6.15581.4116,11.731,2.8511,17.9429,1.1406,2.5713-.7094,9.6738-2.664,11.3637-5.914a13.4267,13.4267,0,0,1-1.9375-.6446c-2.1391,2.5015-6.2954,3.1079-9.5459,2.9883-2.8452-.1059-5.75139-1.3222-8.5258-1.956a70.60747,70.60747,0,0,0-12.7041-1.5796c-6.5586-.2305-13.4556,2.872-18.4126,6.9023-3.441,2.7959-5.0352,3.8809-9.4312,4.667a34.49914,34.49914,0,0,0-9.4902,3.1211c-7.2446,3.4448-13.2207,6.332-17.3882,13.3315-1.5142,2.544-2.5396,5.211-3.9648,7.6431a30.7594,30.7594,0,0,0-3.647,9.0659c-.6367,2.9073-.1973,6.0484-.3779,9.0733-.2823,4.709-.79059,7.1689,2.9838,10.5483,5.398,4.834,10.9761,11.4531,17.6924,13.7539a78.43431,78.43431,0,0,0,12.3809,3.5078c4.7597.8072,8.3462-1.7881,12.9658-2.0488,7.5942-.4277,13.8643,3.439,21.7476.7935,2.9687-.9952,7.0717-2.4087,9.5444-4.3077C348.90394,132.19188,350.41525,129.02248,353.03044,126.61918Zm7.2251-26.2227c1.59371-3.5327.9668-7.9629.32471-11.7055,0,0-2.71241-11.0191-10.59281-10.7881-3.2295.0942-5.4316,1.1152-8.686.3183-3.9814-.9756-5.7837-1.6572-9.6489-.3383-3.1084,1.0615-7.6182,3.207-10.0498,5.4453-2.5152,2.3159-2.7027,4.1318-6.1621,5.8413-7.0665,3.4912-18.4351,3.1279-17.7115,13.3511.4502,6.3627,7.6226,13.2421,12.4224,16.8657,2.833,2.1391,6.3525,1.7734,9.6196,1.5156,4.0342-.3193,8.0904-.0352,12.1568-.0918,2.40331-.0347,7.31931.3164,9.54831-1.019,2.69869-1.6123,3.94819-6.2417,6.17139-8.3736,2.2129-2.123,5.2417-2.5942,7.5078-4.5078A18.91308,18.91308,0,0,0,360.25554,100.39648Zm-4.6694-9.813s.2382,4.7779-.689,6.8726c-.8994,2.0361-2.6431,3.9067-3.7905,5.8608-2.0659,3.5137-5.8941,7.5694-9.31639,9.3218-2.38581,1.2232-4.90241-.0825-7.58551-.4858a26.27774,26.27774,0,0,0-8.7319.146c-5.2588.8764-10.43559,1.1015-15.0137-2.0581-5.7114-3.9405-4.1811-10.8228.8067-14.1402,2.6591-1.769,5.9882-2.2885,8.85641-3.5849,2.67529-1.209,4.99069-3.4219,7.65189-4.6328a41.46355,41.46355,0,0,1,7.9018-2.4058c3.1904-.751,4.6939-2.5483,7.9766-2.0005C348.41374,84.27148,354.527,85.58258,355.58614,90.58348Zm-184.04889,44.3091c1.15089,8.3877,3.74119,16.5454,6.06989,24.586,2.1337,7.3706,4.65911,12.6103,10.2343,17.769,5.8423,5.4063,8.4136,10.5703,11.4864,17.6016,1.6723,3.8296,2.54441,7.6206,4.9087,11.0952,2.3164,3.4033,4.7949,6.6484,7.4023,9.7597,4.21,5.0215,11.0503,8.1832,16.667,11.8267q3.8694-.747,7.5967-1.5518-.11655-.15225-.2266-.2919c-4.1094-5.2344-10.1274-8.8331-14.2002-14.1499a93.9729,93.9729,0,0,1-12.2236-20.8296c-2.749-6.6031-6.6045-11.6495-10.606-17.4834-9.458-13.7911-20.52589-31.7452-18.354-48.9698,1.0362-8.2207,4.2876-16.645,2.8433-25.1543-1.4468-8.5258-2.0176-16.873-3.5391-25.3901-1.1958-6.689-4.0722-15.064-3.1655-21.7622.9072-6.6904,5.8691-14.1426,10.90141-18.2544A170.6738,170.6738,0,0,0,205.45134,16.856c4.9282-5.3975,13.3105-8.1929,10.6187-16.0737q-3.72885.10245-7.55379.3696c-1.542,1.7041-1.71291,3.4111-2.91991,5.9395-1.3989,2.9277-3.9897,5.4135-5.8989,7.9619-3.6665,4.895-8.1914,8.3808-12.6314,12.4131-2.9282,2.6591-6.7114,4.8022-9.6201,7.6445-2.6889,2.6289-3.6343,6.1494-4.4106,9.7724-1.4082,6.564-2.84909,13.5914-2.3272,20.168.627,7.8882,2.959,15.481,3.18611,23.3701.21579,7.5249-.979,15.0718-1.709,22.5352C171.36444,119.335,170.39034,126.52738,171.53725,134.89258Zm-116.6474,7.042c5.5962,3.9116,10.3423,8.2319,11.3384,15.3755.8476,6.0908-2.5557,11.5713-1.5162,17.6196,1.0581,6.1563,4.5621,10.6021,5.7002,16.9678.4981,2.7876,1.0918,5.46.5625,8.2261-.0127.062-.0317.125-.0449.1885q2.2815,1.2699,4.6641,2.5263a24.732,24.732,0,0,0,1.3769-4.1303c.9532-3.9634-.54-8.565-1.2768-12.6866-1.2403-6.937-.3286-11.7715.623-18.5175.8086-5.7281-.5176-13.5752-4.4765-17.9439-4.6426-5.1216-11.854-6.5635-17.3404-10.7344-4.8803-3.7104-8.185-9.4624-10.3945-15.5249q-.909,1.75125-1.7617,3.4619c.2138.3628.4204.7134.6118,1.0406C46.40055,133.68168,49.27365,138.00788,54.88985,141.93458ZM155.798,111.63728c.6675-2.2432,2.3769-3.9908,2.8877-6.2598.6494-2.8926.375-7.2822.0844-10.2515a43.82552,43.82552,0,0,0-3.8881-14.665c-1.9585-4.1192-2.7066-8.729-4.9424-12.77-4.541-8.2051-8.0288-15.1001-7.4292-24.7432.2744-4.4292-.0381-8.2607,1.7441-12.2349,1.15971-2.5854,2.75-5.3344,3.98-8.0273.8628-1.8862.9155-4.2437,1.0581-6.5313q-5.47845,2.56065-10.7275,5.4615c-2.3023,5.4604-4.4341,10.124-4.9214,16.3838-1.0474,13.4233,7.2851,25.5263,13.541,36.5908,3.1299,5.5337,5.8306,12.0932,4.147,18.497a126.10573,126.10573,0,0,0-4.0196,20.0748c-1.2075,12.4428-.1064,29.1538,9.333,38.8642-3.6235-7.0674-2.3994-16.811-2.4458-24.5332C154.16764,122.22218,154.30484,116.65528,155.798,111.63728ZM47.70335,156.64068c3.4897,4.7036,3.2377,7.3091.9594,12.4013-1.9385,4.334-.5371,9.1446-.1733,13.8511.0381.4829-.0025,1.5659-.0449,2.919q2.2536,1.71015,4.747,3.4589c-.1255-4.6879-.7651-9.8281-.4072-11.5761,1.6416-8.042,6.23-17.3999,1.4414-25.5865-1.9316-3.3027-6.5845-6.1855-9.7573-8.2539-1.7642-1.1513-4.376-4.5581-6.8726-6.9292-.917,2.107-1.7597,4.1416-2.5185,6.085.8047.8359,1.6162,1.6289,2.3559,2.376A110.2948,110.2948,0,0,1,47.70335,156.64068Zm89.94719,17.582c.5723,5.9897-.2969,12.958,3.2363,18.0664,4.5259,6.543,11.86041,5.9932,17.5328,10.8628,6.6035,5.6719,7.643,13.6182,11.081,21.0239a57.28293,57.28293,0,0,1,2.3277,6.731q2.8761.21825,5.7758.3652a27.46551,27.46551,0,0,1-2.896-7.793c-2.0005-8.8754-7.0024-18.5229-14.101-24.4067-5.399-4.4726-12.3208-5.519-16.941-11.2788a20.18122,20.18122,0,0,1-4.0952-7.9487C139.05384,177.84918,139.22525,175.57128,137.65054,174.22268ZM84.05435,65.80668a33.84285,33.84285,0,0,0,.7632,7.1938,52.729,52.729,0,0,0,8.07329,19.5699c4.3901,6.2177,11.3222,10.7338,16.1069,16.832,5.3989,6.8862,8.8403,13.2349,9.68651,22.124a133.23235,133.23235,0,0,1-.00491,24.1567,93.9015,93.9015,0,0,1-5.5356,23.9771c-2.4199,6.8184-2.9126,14.7354.0112,21.6055,2.7832,6.5429,9.0156,9.6836,12.4756,15.6743a18.8115,18.8115,0,0,1,2.04,6.3213q1.69485.4584,3.4082.8974c-1.2421-4.8198-5.4643-10.1015-7.396-13.4589-3.5278-6.1329-6.2031-12.1065-5.4438-19.3604.6592-6.2969,3.0884-12.2837,4.3296-18.5132,1.8349-9.1972,2.1958-18.6562,3.8515-27.9507,3.78521-21.2387-5.2089-40.1518-19.6469-55.1342-2.4185-2.5108-5.3946-4.4122-7.96489-6.9034-3.17141-3.0717-3.497-5.9799-4.05321-10.1801-.7007-5.2955-1.4873-9.7989.2505-14.8179.2559-.7417.752-2.6074,1.2993-4.6509C92.02314,57.294,87.93765,61.51418,84.05435,65.80668Z"/>
                  <path class="cls-5" d="M177.97674,192.94878c.6016,5.0302,2.8506,8.249,4.9487,12.7231,2.13481,4.5537,2.7437,9.5171,5.34281,13.8648,3.24269,5.4209,9.36329,6.6679,12.83979,11.5791q7.46415-.471,15.0274-1.5235a11.73974,11.73974,0,0,0-3.6436-1.6113c-2.976-.727-5.9814.2485-8.8701-1.0361-2.7832-1.2388-3.9409-3.4326-5.5903-5.8345-3.1411-4.5742-6.80419-8.0615-8.7154-13.4092C188.12074,204.35648,183.78434,188.40968,177.97674,192.94878Zm73.5488-31.3604c4.315,2.3589,9.0635,3.7017,13.0933,6.6773,3.4253,2.5283,6.5405,5.3393,10.1513,7.667a41.05857,41.05857,0,0,0,22.545,6.3984c7.249-.21,13.39211-3.0269,20.3354-4.2505,5.2764-.9302,10.0498-2.9385,15.2129-4.1299.895-.206,2.7603-.3384,4.7847-.5849q2.2632-2.5071,4.3139-5.0157c-5.0156-.5175-11.7929,2.9346-15.94279,3.6783-7.20461,1.289-14.62161,3.1743-21.88671,3.5537-6.5821.3427-12.7979,2.0957-19.2554.0332a87.391,87.391,0,0,1-12.3897-4.6192c-3.5068-1.7641-5.2939-4.5058-7.8769-7.2871-4.4058-4.7446-10.8579-6.498-15.4922-11.2314-4.7749-4.874-9.26909-10.0952-14.1108-14.6616-2.1265-2.0064-4.3487-3.6797-5.3482-6.3965-1.0063-2.7349-1.1518-6.0806-1.9253-8.8472a42.53073,42.53073,0,0,1-.8613-21.8232c1.519-7.3736,4.4858-14.2217,6.9038-21.2403,1.2519-3.6328,1.7725-7.7837,3.6279-11.1709,1.9102-3.4868,5.4824-6.2563,8.4966-8.7954,2.834-2.3877,4.6328-5.3427,7.2925-7.7861,2.3169-2.1294,5.5786-3.4077,8.3169-4.8965,3.13081-1.7031,5.2632-4.3691,8.541-5.6543a61.4551,61.4551,0,0,1,11.5894-3.2016c12.8652-2.2671,26.3017-3.417,39.0688-6.6949.0054-.0356.0195-.0708.0259-.1059q-3.4365-2.1387-7.1099-4.2744c-3.8525,1.3388-7.5796,3.6352-11.4785,4.6123-8.5767,2.1508-17.5571,2.3652-26.2651,3.559-11.5733,1.5865-23.9639,6.9248-32.2935,15.315-4.7739,4.8076-7.6719,12.0024-11.6919,17.4941-2.689,3.6729-3.1265,8.0166-5.1157,12.1299a72.48376,72.48376,0,0,0-4.9258,13.6055c-4.50589,17.896.2466,36.1543,10.6104,51.0366,2.55171,3.6641,6.0463,6.1948,9.3271,9.0864C245.06414,156.64988,247.74184,159.52058,251.52554,161.58838Zm-114.5976-10.125c3.0722-6.8896,1.27831-16.1743,1.7109-23.7622.5352-9.3833-1.4932-20.2881-5.9771-28.6382-4.7334-8.8159-12.8139-15.2397-16.0434-24.9477-2.0137-6.0547-1.6406-13.7705-.9653-20.0405.6884-6.3921,1.5127-12.7173,2.13621-19.0499q-4.33666,3.20295-8.46681,6.6001a53.04921,53.04921,0,0,0-.0615,12.8047c1.0244,8.5801,1.6479,18.149,5.0849,26.0972,3.5469,8.2026,10.8013,14.7544,15.3355,22.5645C138.37664,118.07378,132.79414,135.41018,136.92794,151.46338Zm59.7319-4.5273c4.3628,9.0942,8.6079,18.8808,16.4595,25.2969,3.2988,2.6972,5.31391,6.2797,8.6128,8.9648,3.5957,2.9272,7.5415,5.7739,10.521,9.3486,6.0063,7.1992,11.4492,25.1182,21.4218,31.0044,2.2495-.6372,4.4624-1.2881,6.6192-1.9599a24.07676,24.07676,0,0,1-2.23489-1.4136,52.54911,52.54911,0,0,1-7.24071-7.1177c-2.84429-3.2851-5.2661-5.3486-6.5366-9.6015-1.17869-3.9498-2.9263-9.1753-5.44969-12.441-3.82871-4.9541-10.12461-9.0542-15.12461-12.4458-6.4008-4.3423-11.9462-10.0849-15.0371-17.4614-1.853-4.4204-3.63129-7.8657-4.6899-12.5054a28.29431,28.29431,0,0,0-4.4702-9.8115c-5.25-7.7754-4.042-15.647-3.7764-24.5449.1304-4.3828-.7534-8.7295-.9409-13.1685-.16989-4.039.6133-8.0717.8882-12.1377.4946-7.3017.1767-15.4585,3.77391-21.9775,1.814-3.2905,4.31539-5.5122,5.77489-9.0161a34.64967,34.64967,0,0,1,3.9248-7.7974c4.3911-5.7466,10.3794-10.0952,14.3526-16.2304a50.29953,50.29953,0,0,0,8.1552-21.085,31.73825,31.73825,0,0,0,.7564-7.1455,17.30549,17.30549,0,0,0-.46-2.6133c-1.73489-.1108-3.4853-.2002-5.2544-.2583-.5137,2.6094-.04,6.3355-.4331,8.1772-.6289,2.9571-1.772,5.8575-2.6313,8.8643-2.7447,9.6079-11.0616,17.3945-17.8853,24.2554-3.34079,3.3598-5.8965,4.9804-7.4961,9.7436-1.03369,3.0757-2.2695,6.1563-3.1616,9.3277-1.103,3.9297-1.2202,8.1167-2.478,12.0097-1.5244,4.711-3.2476,7.9878-3.2618,13.1241C189.30384,106.37058,187.757,128.377,196.65984,146.93608Zm80.102-14.8062c-9.3061-7.1938-17.2553-20.1264-15.3149-32.6811.7227-4.6709,3.0752-8.2344,5.5596-12.1411,2.3833-3.7486,4.1528-8.3204,7.3926-11.4864,3.7832-3.6943,8.103-3.0708,12.3486-5.4326,2.2793-1.269,2.605-3.8008,4.3906-5.2807,1.5586-1.2915,3.9663-1.4556,5.9063-1.8169l-.5215-.9576c-3.65289-1.542-7.71,1.1333-10.7915,2.7163-3.9649,2.0367-7.8325,2.9639-11.6573,5.5113-3.5576,2.3711-4.8877,4.6196-6.4243,8.5869-1.61279,4.1611-4.6611,6.875-7.2832,10.3384-2.9643,3.915-2.6928,7.394-3.8149,12.0849-.9395,3.919-2.6455,8.9649-1.17869,12.9517,1.50089,4.0815,6.479,8.5981,9.18749,12.1387,3.6758,4.8056,6.5068,10.0932,11.8081,13.2143,3.3872,1.9922,7.355,2.9859,10.8608,4.8325,2.4942,1.3145,4.9029,2.8413,7.2993,4.1119,4.4956,2.3828,9.2447,1.7963,14.0215.6904-.1763-3.7002-12.2959-4.8374-15.3393-5.7046-2.9063-.8286-7.357-2.0049-9.46289-4.2564C281.45525,137.09668,279.65984,134.37158,276.76184,132.12988ZM179.57784,8.149a10.03034,10.03034,0,0,0,.3662-2.7325q-6.42855,1.5279-12.59479,3.566c-.26561,4.3383-1.31291,8.9404-2.82221,11.0468-3.0054,4.1949-5.8574,5.5079-6.8296,11.2915-.6484,3.854-4.6309,28.5083,1.561,28.1548-1.3623-10.7451-2.6694-22.3349,5.3726-30.6904a110.63231,110.63231,0,0,0,9.313-11.48C175.94064,14.59328,178.39274,11.53618,179.57784,8.149Zm151.5009,92.1904c3.231-3.0166,5.8194-3.8574,10.3111-4.6665,3.0493-.5498,8.4165.4878,10.5288-1.8823l-1.4185-.0977c-5.4414-1.1787-14.3652-2.9267-19.81589.4678-3.19291,1.9883-3.18651,5.6157-7.20951,7.1767-3.4712,1.3492-7.35249,1.8667-11.0278,2.7173C312.37374,110.16648,329.111,102.17578,331.07874,100.33938ZM293.76625,107.69c-.67431-4.8242-.79151-9.6436,2.10889-13.6948,2.4336-3.399,6.3755-6.0264,6.9732-10.0093l-.3399.06c-3.8994.6919-8.355,4.794-12.0586,6.6265-4.5732,2.2607-4.2763,2.4497-4.062,7.1221.2866,6.2178-2.4975,10.0005,1.46241,15.8613,2.51079,3.7197,5.04789,5.1997,8.667,7.9048,3.11769,2.3306,5.51609,5.1626,9.10839,6.8906,2.9487,1.4185,6.3267,2.7617,9.6773,1.6787,4.7749-1.5434,1.771-3.4009-1.4698-4.7407C305.01774,121.74368,295.23014,118.16608,293.76625,107.69Zm-233.9292,60.4165a15.78714,15.78714,0,0,0-.3095,2.5508Q59.68355,169.38573,59.83705,168.10648Zm70.89259,31.1767c-.0552,3.4556,3.7588,5.1216,5.7373,7.3326a66.18025,66.18025,0,0,1,6.2822,8.6821c1.9742,3.189,5.0113,8.0112,6.5088,12.7749,2.2666.3984,4.5474.7725,6.8506,1.1079l-.0185-.0391a140.6526,140.6526,0,0,0-8.1817-14.3881C145.35274,210.93168,136.715,197.12648,130.72964,199.28318ZM57.69505,100.086q-1.61505,2.47185-3.1426,4.9175a46.22882,46.22882,0,0,0,4.9775,3.7041c4.2974,2.7299,9.7363,4.2353,13.8667,7.2602,4.1006,3.0059,10.5029,9.2876,12.0899,14.9112-1.3882-7.2486-2.9717-11.753-8.9688-16.9507C70.65935,108.84918,63.07635,105.50878,57.69505,100.086Zm2.2607,93.6997q2.65275,1.69035,5.5034,3.3838c-.8003-3.3408-1.2842-7.0005-2.1914-10.3662-1.4687-5.4493-3.9712-10.6558-3.7402-16.146-.6895,5.5967-1.3662,11.0864-.7027,16.8789A51.29752,51.29752,0,0,0,59.95575,193.78568Zm36.62839-71.9839c2.60011,4.2563,2.5596,8.373,3.0444,13.2041,5.8086-8.7534-1.832-19.5083-7.98729-26.2422-2.5986-2.8428-5.8823-5.0254-7.7553-8.4282a74.74691,74.74691,0,0,1-4.0201-9.3496c-1.5415-4.0342-3.3725-7.9863-4.3833-12.1719a23.78787,23.78787,0,0,1-.4384-2.5063q-3.1986,3.9279-6.1822,7.8764a34.37448,34.37448,0,0,0,2.5713,11.2613c2.7198,6.4399,7.5972,9.4409,13.23,13.1621C89.92694,112.08648,93.34534,116.502,96.58414,121.80178Zm-8.79979,62.5947c-1.8052,8.7085-2.9009,15.1519-.5918,24.1651q6.12959,2.82705,12.75679,5.4648c-1.09909-3.4653-1.8833-6.9726-2.8554-10.4492-1.3911-4.9761-3.13769-9.6841-4.0572-14.855-1.2587-7.0918-1.6918-15.7934.4727-22.7441,1.3335-4.2847,4.6992-8.6182,3.2207-13.4917-1.2353,5.2021-4.31689,9.6367-5.481,14.9038C89.965,173.20318,88.96165,178.70948,87.78435,184.39648Zm-2.2978-53.5175c.1225.6352.2431,1.2836.3647,1.9643A9.56742,9.56742,0,0,0,85.48655,130.879Z"/>
                </g>
              </g>
            </g>
            <g class="cls-11">
              <g>
                <path class="cls-7" d="M330.70764,350.60548c6.1998-.164,11.233,1.3989,17.4288-.0356,5.3969-1.2495,8.5014-4.3096,11.7592-8.5762,2.80961-3.6831,3.7798-8.5664,6.1822-12.646,1.851-3.144,3.5293-4.2979,5.85541-5.0273q.77564-1.78275,1.49169-3.4454a14.65566,14.65566,0,0,0-4.476,1.2686c-3.5049,1.7686-4.4722,5.6777-6.3706,8.8315-2.66509,4.4156-4.816,9.5948-8.47809,13.2491-2.54881,2.5444-4.09321,3.7675-7.75491,3.7724-5.1743.0064-10.5039-.851-15.7177-1.2563-4.5176-.353-8.5699-1.1426-13.1109-.5635-4.4052.5635-7.8476,1.1816-12.1172-.3516-7.6015-2.7299-11.7812-10.1088-17.6606-15.0752-2.4409-2.061-5.4868-2.9809-8.1372-4.5805a22.29408,22.29408,0,0,1-6.5552-6.3584c-1.9775-2.6592-4.1274-4.8477-4.7671-8.1616a18.40028,18.40028,0,0,1,.396-8.8096c1.8994-6.5151,8.9473-10.7964,13.167-15.7813,3.9795-4.7031,4.8325-10.9648,9.0972-15.5488,5.311-5.7085,13.4341-6.2261,20.8135-6.4653,9.36711-.3042,18.1694-3.7608,27.4716-4.9199,4.9644-.6177,11.0791,1.4086,15.835,2.875,1.998.6157,7.1157,1.5024,9.8198.4638-1.477-.9155-3.0991-2.0068-4.8642-3.2412-6.1695-1.06-11.9825-5.9731-18.6094-5.5527-5.11669.3227-10.0225,1.4267-15.11769,1.6396a136.887,136.887,0,0,0-18.27391,2.0777c-7.605,1.3608-14.74509,4.5385-19.936,10.0512-4.5108,4.7881-9.6202,8.7227-14.1333,13.4893-4.313,4.5566-6.7447,10.185-9.044,15.8935-2.2954,5.6993-5.2085,11.3511-3.8281,17.5943,1.5625,7.0639,3.185,11.7964,9.5796,15.7969,6.0703,3.7954,12.4526,6.9248,18.0171,11.3979,5.5468,4.4595,10.09961,8.2373,17.5337,9.2017a54.07357,54.07357,0,0,0,13.8627.3979C323.63444,351.73148,327.11244,350.69928,330.70764,350.60548Zm-85.1562-5.1128c3.0571,6.1978,8.084,12.5156,14.44481,15.4946,3.04449,1.4258,5.71579,2.9463,8.63819,4.6397,2.6772,1.5488,5.96,2.5811,7.9536,5.0449,1.9878,2.4571,3.2085,5.4571,5.3164,7.7735,2.2129,2.4296,5.895,3.8515,8.9644,4.8867,6.27,2.1133,13.66841,5.6269,20.3071,4.5234a53.28662,53.28662,0,0,0,8.959-2.3613c3.6914-2.1914,7.1094-4.4551,10.29-6.7676a7.30558,7.30558,0,0,0-1.7876.0977c-6.1875,1.039-12.18109,4.9043-18.5507,4.5097-3.7022-.2285-7.7027-1.2539-11.461-1.6074a16.24246,16.24246,0,0,1-9.8833-4.4199c-6.35109-5.6485-11.1699-12.7041-18.0625-17.6826-6.4761-4.6783-13.1328-10.6665-17.4272-17.4932a51.01043,51.01043,0,0,1-5.5601-11.8696c-1.6694-5.1924-4.0449-9.9507-5.0107-15.3863-.7232-4.0693-.6929-8.0117-1.3081-12.0434-.647-4.2329-1.8062-8.4507-2.20849-12.709-.67871-7.1743,1.86569-13.2549,5.80319-19.0576,5.0322-7.4175,12.0517-12.5801,20.1919-16.4019,5.6601-2.6562,9.2622-7.0346,12.6723-11.998,1.9781-2.877,4.1387-7.8794,7.4053-9.4287,5.0952-2.417,19.8267,1.6806,21.73831-4.9375-1.30181-.5406-2.61521-1.0723-3.95311-1.5879a29.25965,29.25965,0,0,1-3.834,1.1665c-2.8848.3432-5.6616-.3862-8.4673-.1748-3.2241.2412-4.791,1.5263-7.2217,3.3393-4.8344,3.606-9.00389,5.7974-11.937,11.2818-2.2505,4.2099-8.2803,6.7124-12.2812,9.5063-5.2535,3.668-9.9253,5.8657-13.439,11.4175-3.4189,5.4038-8.2446,10.5068-10.6201,16.5957-1.2588,3.2285-.6182,6.1245-.4942,9.439a73.04148,73.04148,0,0,1-.7402,11.2519c-.80319,7.0103,1.7124,14.8404,3.2485,21.6651A107.09947,107.09947,0,0,0,245.55144,345.49268Zm115.9609-22.4355c3.5367-3.2491,7.1773-6.1553,10.7017-9.4488,1.7275-1.6137,2.979-2.9917,5.2339-3.7436a9.1172,9.1172,0,0,1,1.6172-.291,13.908,13.908,0,0,1,2.2446-2.6089c-3.8296-.1694-7.0327,1.9809-10.7656,3.6416-2.6465,1.1777-4.4151,2.9062-6.71489,4.584-2.14061,1.562-4.48091,2.0766-6.88621,3.1176-5.3174,2.3033-6.5542,8.6861-12.5,10.4175-2.4321.7085-5.36179.4107-7.8374.2066-4.2085-.3443-8.4082-.0957-12.6148-.4326-6.7592-.542-12.7705,2.7993-16.6381-4.1407-3.4659-6.2187-9.95849-11.789-10.1494-19.3022-.1265-5.0176.4443-11.3316,3.8217-15.2324,3.7393-4.3194,11.1568-6.0069,16.4995-6.962,3.3785-.6044,7.5445-.5708,9.8394-3.1743,1.5952-1.8081,2.6284-4.5053,4.4434-6.2114,3.5996-3.3813,9.8227-3.3765,14.3833-3.0718,5.1967.3487,9.9052,2.4092,15.1523.9639,2.1704-.5991,8.1675-2.249,9.5947-4.9941a11.41934,11.41934,0,0,1-1.6357-.5455c-1.80569,2.1133-5.3159,2.626-8.0615,2.5245-2.4024-.0894-4.857-1.1167-7.2007-1.6519a59.599,59.599,0,0,0-10.7281-1.334c-5.5395-.1948-11.3623,2.4253-15.5498,5.8286-2.9052,2.3614-4.2519,3.2774-7.9633,3.9414a29.15341,29.15341,0,0,0-8.0152,2.6363c-6.11809,2.9096-11.1645,5.3476-14.6845,11.2588-1.2788,2.1474-2.1441,4.4003-3.3482,6.4545a26.01009,26.01009,0,0,0-3.0801,7.6558c-.5385,2.4556-.1674,5.1079-.3188,7.6626-.2388,3.9775-.668,6.0542,2.51851,8.9092,4.55959,4.0815,9.26959,9.6719,14.94189,11.6142a66.21129,66.21129,0,0,0,10.45611,2.9624c4.01949.6817,7.04829-1.5097,10.94919-1.7299,6.4136-.3609,11.71,2.9038,18.3667.6699,2.5064-.8399,5.9717-2.0337,8.0615-3.6382C358.02844,327.76418,359.30384,325.08738,361.51234,323.05718Zm6.1031-22.145c1.3462-2.9834.8164-6.7247.2749-9.8843,0,0-2.2906-9.3057-8.9478-9.1109-2.7251.0796-4.585.9414-7.3345.2681-3.36179-.8242-4.8852-1.3994-8.1479-.2856a27.31029,27.31029,0,0,0-8.4873,4.5986c-2.124,1.956-2.2827,3.4892-5.2041,4.9326-5.9673,2.9487-15.5684,2.6426-14.95749,11.2769.37979,5.3715,6.43649,11.1816,10.49019,14.2426,2.3936,1.8062,5.3652,1.4961,8.1235,1.2793,3.4087-.27,6.8335-.0293,10.2661-.0781,2.0313-.0288,6.18221.2676,8.0655-.8599,2.2763-1.3623,3.331-5.2714,5.2094-7.0712,1.8707-1.7935,4.4297-2.1914,6.3428-3.8077A15.97435,15.97435,0,0,0,367.61544,300.91218Zm-3.9434-8.2867s.20121,4.0347-.582,5.8033c-.7593,1.7197-2.2325,3.2998-3.2012,4.9497a22.519,22.519,0,0,1-7.8682,7.873c-2.0156,1.0322-4.1401-.0693-6.4057-.4101a22.17121,22.17121,0,0,0-7.3736.1235c-4.4423.7397-8.8134.9292-12.68009-1.7383-4.82281-3.3276-3.53081-9.1411.68059-11.9419,2.2471-1.4941,5.0581-1.9326,7.4795-3.0273,2.2603-1.021,4.2163-2.8897,6.46291-3.9131a34.9602,34.9602,0,0,1,6.67289-2.0308c2.6948-.6352,3.9638-2.1518,6.7343-1.6899C357.61344,287.295,362.77754,288.40138,363.672,292.62548ZM208.24134,330.045c.9712,7.083,3.1592,13.9731,5.1255,20.7636,1.8013,6.2237,3.9346,10.6485,8.6431,15.0059,4.9336,4.5654,7.1055,8.9258,9.7002,14.8633,1.4116,3.2344,2.1489,6.4355,4.1455,9.3711,1.957,2.873,4.0493,5.6133,6.2515,8.2402,3.55611,4.2422,9.332,6.9102,14.0756,9.9883,2.1783-.418,4.3213-.8535,6.4156-1.3086-.0659-.0859-.1304-.168-.1919-.2481-3.47019-4.4199-8.5528-7.4609-11.9927-11.9492a79.37676,79.37676,0,0,1-10.3223-17.5898c-2.3208-5.5772-5.5776-9.8379-8.9565-14.7656-7.9873-11.646-17.3335-26.8086-15.5005-41.3545.8755-6.9444,3.6216-14.0581,2.4009-21.2447-1.2207-7.1992-1.7027-14.2485-2.9883-21.4414-1.0093-5.6489-3.4399-12.7216-2.6729-18.3784.7662-5.6499,4.9556-11.9433,9.2066-15.416a144.25831,144.25831,0,0,0,15.3018-14.2188c4.1616-4.5581,11.2402-6.9199,8.96771-13.5747q-3.15016.08505-6.37991.3116c-1.3027,1.4399-1.4462,2.8813-2.4668,5.0161-1.1801,2.4721-3.3686,4.5713-4.9809,6.7236-3.0967,4.1348-6.9185,7.0781-10.6675,10.4834-2.4731,2.2451-5.6685,4.0562-8.1245,6.4566-2.271,2.2202-3.0689,5.1918-3.7246,8.2519-1.189,5.5435-2.4063,11.4775-1.9644,17.0322.5288,6.6617,2.4981,13.0743,2.69,19.7359.1821,6.3559-.8272,12.7295-1.4439,19.0307C208.09444,316.90678,207.27264,322.979,208.24134,330.045Zm-98.5092,5.9463c4.72411,3.3037,8.7329,6.9526,9.5742,12.9858.7163,5.1431-2.1592,9.7715-1.2798,14.8784.8926,5.1992,3.852,8.9551,4.813,14.3301.4209,2.3555.9223,4.6113.4751,6.9473-.0108.0527-.0269.1054-.0386.1601q1.9284,1.06935,3.9395,2.1309a20.71745,20.71745,0,0,0,1.1635-3.4864c.8047-3.3457-.4565-7.2343-1.0786-10.7128-1.0473-5.8594-.2768-9.9415.5259-15.6387.6831-4.8384-.4365-11.4654-3.7798-15.1538-3.9214-4.3257-10.0112-5.543-14.645-9.0659-4.1216-3.1333-6.9116-7.9913-8.7778-13.1104q-.7677,1.4781-1.4878,2.9229c.1806.3066.3554.603.5171.8789C102.56164,329.022,104.98694,332.67528,109.73214,335.99128Zm85.2163-25.586c.5649-1.8945,2.00781-3.3696,2.4399-5.2866a31.63714,31.63714,0,0,0,.0713-8.6572,37.0183,37.0183,0,0,0-3.2847-12.3848c-1.6528-3.478-2.2851-7.3716-4.1733-10.7842-3.8355-6.9292-6.7808-12.7519-6.2739-20.896.2319-3.7397-.0327-6.976,1.4726-10.3325.979-2.1836,2.3223-4.5049,3.36091-6.7803a15.99154,15.99154,0,0,0,.89449-5.5146q-4.62823,2.16285-9.0601,4.6128c-1.9438,4.6113-3.7446,8.5493-4.1572,13.8364-.8833,11.3355,6.1533,21.5566,11.4365,30.9004,2.6431,4.6733,4.9248,10.2129,3.502,15.6211a106.47624,106.47624,0,0,0-3.3936,16.9526c-1.021,10.5093-.0913,24.6211,7.8804,32.8218-3.0596-5.9687-2.0259-14.1973-2.06449-20.7183C193.57294,319.34478,193.68764,314.64408,194.94844,310.40528Zm-91.2867,38.0064c2.9473,3.9721,2.7349,6.1718.8111,10.4731-1.6377,3.6592-.4541,7.7217-.147,11.6973.0317.4082-.0015,1.3213-.0391,2.4648q1.9059,1.44435,4.0103,2.9219c-.106-3.9609-.646-8.3008-.3447-9.7773,1.3867-6.7916,5.2622-14.6944,1.2182-21.608-1.63129-2.788-5.561-5.2231-8.2407-6.9707-1.4897-.9721-3.6953-3.8486-5.8042-5.8515-.7739,1.7802-1.4853,3.498-2.1255,5.1391.6787.7056,1.3643,1.3755,1.9893,2.0069A93.09246,93.09246,0,0,1,103.66174,348.41168Zm75.961,14.8481c.4839,5.0586-.24949,10.9434,2.7334,15.2559,3.8218,5.5254,10.01611,5.0625,14.8066,9.1758,5.5772,4.7871,6.4556,11.5,9.3584,17.7558a47.94434,47.94434,0,0,1,1.9658,5.6836c1.6187.1211,3.2432.2266,4.8775.3047a23.08119,23.08119,0,0,1-2.4448-6.5801c-1.691-7.4961-5.9146-15.6406-11.9092-20.6094-4.5601-3.7793-10.4048-4.6621-14.3067-9.5254a17.03477,17.03477,0,0,1-3.458-6.7138C180.80874,366.32228,180.95334,364.39848,179.62274,363.25978ZM134.36,271.70118a28.60312,28.60312,0,0,0,.6455,6.0742,44.50532,44.50532,0,0,0,6.8179,16.5279c3.707,5.2509,9.5615,9.0654,13.602,14.2153,4.5601,5.8149,7.4663,11.1768,8.1807,18.6831a112.52412,112.52412,0,0,1-.0044,20.4004,79.28273,79.28273,0,0,1-4.6753,20.2495c-2.0425,5.7578-2.4595,12.4434.0102,18.2461,2.3497,5.5254,7.6128,8.1777,10.5362,13.2363a15.89687,15.89687,0,0,1,1.7222,5.3399q1.43175.3867,2.8779.7578c-1.0488-4.0703-4.6143-8.5313-6.2461-11.3672-2.9795-5.1797-5.2383-10.2246-4.5967-16.3496.55711-5.3184,2.6089-10.375,3.6567-15.6348,1.54941-7.7671,1.854-15.7553,3.2515-23.6045,3.1973-17.936-4.3984-33.9087-16.5918-46.562-2.042-2.1196-4.5547-3.7256-6.7265-5.8291-2.6783-2.5942-2.9522-5.0498-3.4229-8.5976-.5918-4.4717-1.2554-8.2754.2119-12.5137.2163-.626.6348-2.2017,1.0977-3.9277Q139.28244,266.24493,134.36,271.70118Z"/>
                <path class="cls-7" d="M213.67884,379.07428c.5088,4.248,2.4073,6.9668,4.1792,10.7441,1.80421,3.8457,2.3169,8.0371,4.51321,11.709,2.73779,4.5781,7.90679,5.6308,10.84229,9.7773q6.3033-.3984,12.6914-1.2851a9.88643,9.88643,0,0,0-3.0776-1.3614c-2.5127-.6132-5.0518.209-7.4912-.875-2.3496-1.0468-3.3277-2.9003-4.7207-4.9257-2.6524-3.8653-5.7466-6.8086-7.3604-11.3262C222.24525,388.70708,218.58464,375.24028,213.67884,379.07428Zm62.1128-26.4849c3.645,1.9927,7.6538,3.1265,11.05761,5.6396,2.89259,2.1348,5.52249,4.5093,8.57279,6.4742a34.67546,34.67546,0,0,0,19.0396,5.4043c6.122-.1778,11.3095-2.5567,17.1733-3.5899,4.456-.7851,8.4878-2.4804,12.8467-3.4873.7568-.1748,2.3315-.2871,4.0415-.4941q1.91085-2.1168,3.6426-4.2359c-4.2359-.4375-9.95849,2.4781-13.4634,3.106-6.084,1.0879-12.3482,2.6807-18.4834,3-5.5591.291-10.8091,1.7705-16.26169.0293a73.68984,73.68984,0,0,1-10.46291-3.9009c-2.9624-1.4902-4.4712-3.8057-6.6519-6.1548-3.72119-4.0063-9.1699-5.4868-13.0845-9.4839-4.0322-4.1167-7.8266-8.5258-11.915-12.3828-1.7969-1.6933-3.6729-3.1074-4.5171-5.4018-.8501-2.3091-.97359-5.1343-1.6265-7.4722a35.92451,35.92451,0,0,1-.7275-18.4282c1.2832-6.2276,3.7896-12.0103,5.8315-17.938,1.0562-3.0679,1.4952-6.5732,3.0625-9.4346,1.6138-2.9448,4.6299-5.2827,7.1758-7.4272,2.3931-2.0161,3.91261-4.5127,6.1582-6.5757,1.9571-1.7983,4.7119-2.8784,7.02441-4.1348,2.64459-1.4384,4.44439-3.6894,7.212-4.7754a51.9817,51.9817,0,0,1,9.78759-2.7041c10.8642-1.9135,22.2138-2.8852,32.9946-5.6538.0044-.0298.0171-.0595.0224-.0888q-2.90325-1.8069-6.0053-3.6099c-3.253,1.1299-6.4004,3.0693-9.6929,3.895-7.2436,1.8159-14.8276,1.9966-22.1821,3.0054-9.7735,1.3393-20.2368,5.8486-27.272,12.9336-4.0312,4.0596-6.4785,10.1362-9.874,14.7739-2.27,3.1021-2.6397,6.77-4.3198,10.2441a61.19488,61.19488,0,0,0-4.1602,11.4908c-3.8057,15.1128.2085,30.5317,8.9614,43.0996,2.1548,3.0947,5.1055,5.2319,7.876,7.6738C270.33514,348.419,272.59684,350.84328,275.79164,352.58938Zm-96.7783-8.5503c2.5938-5.8184,1.0791-13.6592,1.44391-20.0674a47.82754,47.82754,0,0,0-5.04691-24.1855c-3.9976-7.4458-10.8223-12.8701-13.5498-21.0679-1.7007-5.1138-1.3848-11.6299-.814-16.9253.5811-5.397,1.2774-10.7388,1.8042-16.0874q-3.6636,2.7048-7.1504,5.5742a44.72055,44.72055,0,0,0-.0527,10.8135c.8662,7.2456,1.3921,15.3272,4.2944,22.0396,2.9961,6.9272,9.1216,12.4594,12.9507,19.0551C180.23554,315.84088,175.52264,330.48148,179.01334,344.03908Zm50.4434-3.8237c3.68451,7.6811,7.27,15.9453,13.9004,21.3628,2.7856,2.2783,4.4878,5.3047,7.2734,7.5722,3.0371,2.4707,6.3686,4.875,8.8853,7.8946,5.0727,6.08,9.66941,21.2129,18.0908,26.1816,1.8999-.5391,3.769-1.0859,5.5903-1.6523a20.288,20.288,0,0,1-1.88769-1.1953,44.30789,44.30789,0,0,1-6.11421-6.0098c-2.4029-2.7754-4.4473-4.5176-5.5201-8.1094-.9961-3.334-2.4716-7.748-4.603-10.5058-3.2329-4.1836-8.5493-7.6465-12.7729-10.5118-5.40479-3.666-10.0879-8.5161-12.6983-14.7461-1.5654-3.7329-3.0674-6.6421-3.9609-10.56a23.90958,23.90958,0,0,0-3.7754-8.2866c-4.4326-6.5664-3.4131-13.2129-3.189-20.7281.1094-3.7016-.6357-7.372-.7949-11.1206-.1436-3.4106.5181-6.8178.7505-10.2505.417-6.167.1489-13.0551,3.1865-18.5615,1.5322-2.7778,3.6445-4.6533,4.8775-7.6128a29.33305,29.33305,0,0,1,3.3139-6.5859c3.709-4.8521,8.7661-8.5249,12.1206-13.7056a42.47683,42.47683,0,0,0,6.88771-17.8071,26.74958,26.74958,0,0,0,.63869-6.0337,14.53227,14.53227,0,0,0-.38869-2.209c-1.46391-.0923-2.94291-.1675-4.436-.2163-.43561,2.2031-.03471,5.3486-.36621,6.9058-.5313,2.4965-1.4976,4.9472-2.2217,7.4848-2.3184,8.1148-9.3423,14.6909-15.1055,20.4849-2.8208,2.8374-4.9795,4.2056-6.3305,8.2285-.87209,2.5977-1.91609,5.1987-2.6705,7.877-.93159,3.3183-1.0302,6.8554-2.0927,10.1421-1.2866,3.979-2.7422,6.7465-2.75389,11.0834C223.24525,305.95808,221.93814,324.54248,229.45674,340.21538Zm67.6474-12.5039c-7.85889-6.0742-14.5713-16.9961-12.9331-27.5996.6089-3.9439,2.5957-6.9541,4.6948-10.2535,2.0123-3.165,3.5059-7.0268,6.2432-9.7002,3.1943-3.1201,6.8423-2.5927,10.4287-4.5869,1.9243-1.0717,2.1988-3.2109,3.70751-4.4604,1.316-1.0894,3.34919-1.2285,4.98729-1.5342l-.4399-.8086c-3.084-1.3017-6.5117.9566-9.1123,2.293-3.35009,1.7207-6.6157,2.5039-9.8457,4.6548-3.00439,2.0024-4.12739,3.9013-5.4253,7.2519-1.3618,3.5147-3.9365,5.8062-6.1509,8.7305-2.5044,3.3066-2.2739,6.2451-3.2221,10.2065-.793,3.3091-2.2344,7.5703-.99609,10.939,1.26849,3.4453,5.47259,7.2598,7.75919,10.2505,3.1045,4.0586,5.4947,8.5234,9.9722,11.1587,2.8609,1.6831,6.2114,2.5215,9.1729,4.0825,2.1059,1.1089,4.1396,2.3989,6.163,3.4717,3.7969,2.0122,7.8082,1.5171,11.8423.583-.1484-3.1245-10.3842-4.0855-12.95359-4.8174-2.45511-.7002-6.21381-1.6929-7.99221-3.5947C301.067,331.90628,299.55144,329.60448,297.10414,327.71148Zm-82.0727-104.7027a8.50666,8.50666,0,0,0,.3095-2.3081q-5.4279,1.2906-10.6372,3.0117c-.2236,3.6641-1.1088,7.5508-2.3833,9.3287-2.5371,3.5429-4.9463,4.6518-5.7675,9.5361-.5474,3.2549-3.9102,24.0757,1.31931,23.7778-1.15141-9.0747-2.25491-18.8623,4.53709-25.9184a93.64734,93.64734,0,0,0,7.8638-9.6949C211.95914,228.45068,214.03044,225.86868,215.03144,223.00878Zm127.9433,77.856c2.7281-2.5488,4.9146-3.2578,8.7071-3.9419,2.5771-.4639,7.1093.4121,8.8925-1.5894l-1.1977-.0815c-4.5952-.9951-12.13139-2.4722-16.7339.394-2.6963,1.6797-2.6934,4.7427-6.0884,6.0616-2.9326,1.1386-6.2094,1.5761-9.3144,2.2944C327.17834,309.16258,341.31414,302.41558,342.97474,300.86478Zm-31.5102,6.2075c-.5694-4.0742-.6685-8.1445,1.78071-11.5654,2.05519-2.8706,5.38429-5.0904,5.88819-8.4536l-.2861.0512c-3.2935.584-7.0557,4.0489-10.18309,5.5953-3.86231,1.9096-3.61231,2.0703-3.43021,6.0146.2417,5.2524-2.1099,8.4468,1.2334,13.396,2.1216,3.1411,4.2642,4.3901,7.3203,6.6748,2.6338,1.9688,4.6582,4.3604,7.6924,5.8193,2.4893,1.1978,5.3423,2.334,8.1729,1.4185,4.0317-1.3042,1.4951-2.8721-1.2417-4.0034C320.96594,318.941,312.70084,315.91948,311.46454,307.07228Zm-197.5557,51.023a13.23468,13.23468,0,0,0-.2617,2.1543C113.73554,359.53228,113.82434,358.81448,113.90884,358.09528Zm59.8696,26.3286c-.0468,2.916,3.1744,4.3242,4.8453,6.1914a55.92637,55.92637,0,0,1,5.3061,7.332c1.6665,2.6934,4.231,6.7637,5.4966,10.7891,1.9136.3359,3.8389.6523,5.7852.9355l-.0162-.0332a118.902,118.902,0,0,0-6.9091-12.1504C186.12764,394.25788,178.83264,382.60158,173.77844,384.42388Zm-61.6796-83.774c-.9073,1.3921-1.7959,2.7769-2.6534,4.1524a38.99759,38.99759,0,0,0,4.2041,3.1284c3.6299,2.3057,8.2222,3.5776,11.7105,6.1318,3.4634,2.5376,8.8696,7.8433,10.2104,12.5928-1.1718-6.1211-2.5097-9.9258-7.5747-14.3154C123.049,308.05028,116.64474,305.23,112.09884,300.64988Zm1.9096,79.1314q2.2413,1.4268,4.6485,2.8574c-.6758-2.8222-1.0845-5.9121-1.8511-8.7558-1.2398-4.6006-3.353-8.9981-3.1587-13.6333-.582,4.7251-1.1533,9.3618-.5933,14.2544A43.52339,43.52339,0,0,0,114.00844,379.78128Zm30.9336-60.792c2.1958,3.5947,2.1616,7.0718,2.5703,11.1509,4.9063-7.3921-1.5464-16.4746-6.7446-22.1612-2.1943-2.4013-4.9678-4.2441-6.5493-7.1176a63.27444,63.27444,0,0,1-3.3955-7.8955,85.63962,85.63962,0,0,1-3.70069-10.2793,19.91546,19.91546,0,0,1-.37111-2.1167q-2.7012,3.3156-5.2197,6.6508a29.00666,29.00666,0,0,0,2.1709,9.5103c2.2964,5.4385,6.4155,7.9727,11.1733,11.1157C139.32094,310.78468,142.20725,314.51418,144.942,318.98928Zm-7.4316,52.8613c-1.5239,7.3545-2.45019,12.7959-.5,20.4092q5.17605,2.38485,10.7739,4.6133c-.9282-2.9277-1.5913-5.8887-2.4116-8.8242-1.1738-4.2012-2.6499-8.1758-3.4263-12.5449-1.0644-5.9883-1.42819-13.337.3994-19.2071,1.126-3.6181,3.9678-7.2783,2.7202-11.394-1.0444,4.393-3.646,8.1386-4.6294,12.5864C139.35225,362.39848,138.505,367.04888,137.51044,371.85058Zm-1.94-45.1953c.1031.5366.2046,1.0835.3081,1.6587A8.07452,8.07452,0,0,0,135.57044,326.65528Z"/>
              </g>
            </g>
            <path class="cls-2" d="M316.79114,219.25688a68.07589,68.07589,0,0,1-1.33589-26.8775c-4.36281-13.6792-8.67821-27.3476-11.63671-41.4033C281.16864,136.29888,266.39325,46.398,168.92,43.78418,79.20815,41.379,37.69935,125.28078,12.36735,184.40728c-7.354,17.1665-11.832,15.497-12.3496,30.1201-.3037,8.584,3.3135,14.7583,9.0361,26.8057,6.6953,14.0961-1.9072,41.8422,44.6812,82.0131,46.58929,40.1714,126.34759,44.7847,203.269,16.084,76.9234-28.7002,54.1275-111.6968,59.7725-120.1577C316.78044,219.26618,316.78774,219.26318,316.79114,219.25688Z"/>
            <g class="cls-12">
              <g>
                <path class="cls-13" d="M216.44744,42.78808a238.27268,238.27268,0,0,0-23.1626-8.2993l-.1602.1738s5.646,1.9063,5.646,19.732c0,17.8222-8.1172,60.4736-9.1738,92.2998-1.0571,31.8247,1.0566,77.0185,2.1182,105.6621,1.0571,28.6479,1.4096,75.1196,1.0571,89.7544-.3208,13.1216-3.1865,22.1118-6.0625,25.6723h.0483c1.2417-.0195,2.4707-.0468,3.6778-.0751.311-.0088.6323-.0186.9477-.0284,1.0054-.0273,1.9995-.0556,2.979-.0937.2432-.0078.4976-.0176.7461-.0176,2.4712-.0937,4.8535-.207,7.1392-.3184a.833.833,0,0,1,.1553-.0185c-.0269-.0947-.0733-.1875-.1045-.2891-1.7608-5.7295-.3575-50.2876-1.4092-82.1196-1.061-31.8301-5.2944-83.3882-5.2944-115.8535,0-32.457,2.46631-46.4653,7.4082-68.105C207.87274,79.55328,209.32874,52.72268,216.44744,42.78808Z"/>
                <path class="cls-13" d="M155.72134,367.56838s-6.352-5.084-7.4082-17.813c-1.0625-12.7373,2.1182-36.9248.35211-57.9336-1.76221-20.999-9.87941-54.105-8.11231-96.1157,1.7607-42.0171-1.7671-78.2905,2.4702-105.0278,4.2275-26.7325,2.4668-45.1944,3.8799-54.7398.8803-5.9951,3.0161-8.9761,5.186-10.8408-5.6934-.9766-11.6143-1.874-17.6914-2.6499a34.1555,34.1555,0,0,1,6.1553,17.9487c.7031,12.0918-5.295,60.4678-4.5904,84.0176.7051,23.5508-.3525,81.4771,1.0562,106.939,1.415,25.4614,3.1763,63.02,3.8857,75.1133.69481,11.8798-.3261,52.5507-5.3823,60.6245,3.3506.1298,6.6772.2529,9.978.3466.1084,0,.2227.0098.3306.0098,3.28951.1016,6.5537.1856,9.771.252h.0884Z"/>
                <path class="cls-13" d="M253.46744,265.09478c.3467-29.2891-4.2378-80.8467-1.7671-109.4893,2.4658-28.6445,4.2378-60.4692,4.9424-70.6557.6577-9.5225,2.8696-12.3829,6.041-16.3545-5.352-3.8174-10.8379-7.439-16.5058-10.8223,1.1084.6968,3.7612,4.043,3.7612,20.1768,0,20.3686-2.4717,61.1044-3.1758,95.476-.7046,34.3726,2.1143,80.8374,2.1143,101.21,0,19.2607-1.8965,60.0737-5.378,73.6338h.0049q3.263-2.95755,6.5894-6.3823a.87194.87194,0,0,1,.063-.066c2.2168-2.2983,4.4448-4.7661,6.6567-7.4199h0C256.06214,325.77638,253.15644,290.607,253.46744,265.09478Z"/>
                <path class="cls-13" d="M284.70625,86.06158q-6.545-5.72535-13.335-11.0093l-.26411.3462s4.2324,6.3691,5.2939,31.8301c1.05621,25.4614-2.1143,64.9267-1.7612,95.4863.3471,30.5498-.71,77.0146-1.062,89.7422a77.34194,77.34194,0,0,1-5.2842,26.123s.0058,0,.0102-.0097q2.565-4.06065,4.9995-8.5249c.0416-.066.0723-.1451.1138-.2159a172.879,172.879,0,0,0,12.99811-30.9746c-1.61671-4.5039-6.13381-18.9565-6.13381-39.8618,0-25.4658-2.1133-75.7485.3515-102.4809C282.66525,114.55078,284.213,93.06208,284.70625,86.06158Z"/>
                <path class="cls-13" d="M122.55484,352.93268c.3521-20.3716.3521-64.9234,1.0571-87.8379.7046-22.9195-6.7031-76.3892-5.2944-101.2149,1.4146-24.8257,2.1191-84.0185,1.4146-103.7553-.669-18.5933-1.5747-31.836,2.7397-38.9898-8.5102-.8037-17.2353-1.313-26.0264-1.4111l-.0053.2998s9.8847,5.0928,12.70311,20.373c2.82269,15.274,3.18019,54.7398,2.82269,82.7471-.3525,28.0034,2.8238,63.0107,3.8804,92.2993,1.0625,29.2788,3.8858,69.3799,2.1187,94.2002-1.7154,24.1968-2.1187,49.523-9.3145,56.1206a1.12352,1.12352,0,0,1,.1812.0098c5.1391.3086,10.2944.5801,15.4331.832a2.36669,2.36669,0,0,0,.2641.0098A40.4854,40.4854,0,0,1,122.55484,352.93268Z"/>
                <path class="cls-13" d="M219.19794,365.61528c.6889-.374,1.3979-.7676,2.1347-1.1875.1709-.0938.33161-.1865.502-.2803,1.9224-1.1123,3.99461-2.3838,6.2012-3.8315a205.70492,205.70492,0,0,1-4.2119-29.6621c-1.4092-24.8243-3.8809-96.754-4.2378-114.5757-.3526-17.8218-.3526-39.4649,4.9423-61.7437,5.295-22.2798,8.4703-69.3847,8.1124-83.3887-.337-13.5976,2.3261-13.9995,6.9995-16.9287q-7.89555-4.38135-16.2666-8.2153c.7192,3.0938,2.6723,14.6543,1.5078,46.1475-1.4107,38.1894-11.6411,80.8413-10.585,109.4853,1.0576,28.6426,4.2334,76.3833,3.8858,103.7515-.358,27.375,3.6103,47.4853-1.9014,61.9419h0c.7256-.3623,1.5024-.7666,2.3052-1.1856C218.78825,365.83888,218.99574,365.71678,219.19794,365.61528Z"/>
                <path class="cls-13" d="M161.99914,367.81058c5.2842.0752,10.418.1025,15.3506.084h.0723c-.062-.1035-.1143-.2237-.17679-.3262-3.17481-5.084-4.58391-37.5498-1.76121-59.8315,2.8184-22.2788-1.7666-52.8291-2.4702-77.0245-.7095-24.1845-6.0049-50.9223-4.2329-84.018,1.7612-33.1021,2.1138-48.376,5.6465-68.7446,3.2221-18.6348,2.34181-34.0542,8.6465-46.3008-2.20169-.5659-4.3985-1.1397-6.6519-1.6543-3.8545-.8833-7.9321-1.7671-12.1689-2.6167,1.6416,3.1816,3.875,9.228,4.5278,19.3818,1.0571,16.5459-6.356,54.1045-6.356,77.0191,0,22.9155.7095,61.7451,2.1187,85.9306,1.4145,24.1904,3.8794,61.1133,2.4653,82.7476-1.4043,21.644-2.4653,49.0185-1.7602,60.4756C165.85364,362.83008,164.62125,365.59568,161.99914,367.81058Z"/>
              </g>
            </g>
            <g>
              <path class="cls-5" d="M109.72184,62.44778c-3.9048.8228-10.6611,6.2783-2.8564,12.8828,7.8051,6.6094,18.7133,4.5278,18.8037-3.8135C125.76384,63.17138,115.78825,61.15628,109.72184,62.44778Z"/>
              <path class="cls-5" d="M95.297,78.66508c-4.106,1.8545-6.87009,6.9863-2.4243,9.0278,4.4487,2.0459,9.5464-3.8242,8.9194-6.3945C101.16325,78.73048,99.22284,76.88628,95.297,78.66508Z"/>
              <path class="cls-5" d="M130.48994,70.74808c-1.1079,1.5049-3.9175,6.811,1.2641,10.1772,5.1739,3.3638,12.2188-.6738,14.0235-7.2348C147.57734,67.12358,136.64125,62.44188,130.48994,70.74808Z"/>
              <path class="cls-5" d="M154.10225,59.26908c-3.74711.916-4.64891,5.4902-1.55911,8.6865,3.0942,3.187,14.207,5.7871,17.01511-2.7944C172.36934,56.57958,159.24084,58.01658,154.10225,59.26908Z"/>
              <path class="cls-5" d="M139.99725,52.231c-2.21781,1.4473-2.56891,5.6587-.27781,8.3687,2.2959,2.7089,10.145-.8399,10.9384-5.3887C151.45625,50.65818,143.985,49.62108,139.99725,52.231Z"/>
              <path class="cls-5" d="M190.91614,60.62938c-3.7685.3692-11.3173,4.941-10.0302,9.6607,1.2846,4.7231,9.2114,5.3764,15.2451-1.6763C202.16614,61.55908,195.56514,60.17288,190.91614,60.62938Z"/>
              <path class="cls-5" d="M218.97825,58.54108c-6.63331-1.1885-8.88091,5.9819-7.28181,11.9863,1.6006,6.0102,8.583,7.8462,14.54981,1.6255C232.22284,65.93068,227.66274,60.09668,218.97825,58.54108Z"/>
              <path class="cls-5" d="M215.36344,91.858c-6.6333-1.1885-8.8799,5.9814-7.2817,11.9868,1.601,6.0102,8.58351,7.8457,14.5503,1.6245C228.60854,99.24808,224.04854,93.41408,215.36344,91.858Z"/>
              <path class="cls-5" d="M187.25014,84.66508c-3.4043,2.0347-6.93889,7.8213-2.6626,11.9472,4.2725,4.1299,8.78471.3067,9.4375-7.6088C194.67794,81.08258,190.34054,82.81838,187.25014,84.66508Z"/>
              <path class="cls-5" d="M163.28925,80.16948c-3.29741,1.0146-6.522,7.854-2.66941,11.9507,3.8593,4.0952,10.143-.8409,9.8588-7.5801C170.19354,77.80418,165.43525,79.50978,163.28925,80.16948Z"/>
              <path class="cls-5" d="M144.57394,88.273c-2.41169,1.4424-4.649,5.4927-1.0738,7.8867,3.5796,2.3921,6.9185,2.667,6.876-1.9473C150.33564,89.58838,147.66374,86.43308,144.57394,88.273Z"/>
              <path class="cls-5" d="M110.65784,90.83888c-3.0913,1.8447-4.3715,7.1958-.6875,8.3374,3.6846,1.1416,6.6304.9693,6.2085-4.102C115.76234,90.004,113.74674,88.99858,110.65784,90.83888Z"/>
              <path class="cls-5" d="M93.37074,102.003c-1.0014,2.3349,2.1558,4.373,3.8238,4.5097,1.663.1372,2.3242-2.7431,1.2758-5.3505C97.43325,98.56348,94.92984,98.35748,93.37074,102.003Z"/>
              <path class="cls-5" d="M84.613,91.20848c-.5112,2.0259-1.9448,3.1988-.0034,5.0386,1.9502,1.836,4.82809-2.542,4.2344-5.5293C88.25555,87.732,85.22915,88.74218,84.613,91.20848Z"/>
              <path class="cls-5" d="M238.95084,78.25928c-3.3174,1.3296-8.3594,9.7954-4.9224,13.8579,3.4439,4.0606,15.0757,5.44,15.3497-2.9262C249.65154,80.81938,244.15934,76.17238,238.95084,78.25928Z"/>
              <path class="cls-5" d="M254.23554,100.92628c-4.9434,1.5171-3.5376,7.2617-.75829,9.1665,2.77629,1.9107,7.706-1.8784,7.59619-5.6655C260.96794,100.64558,258.53974,99.60208,254.23554,100.92628Z"/>
              <path class="cls-5" d="M266.78384,110.85988c-3.937-.3276-8.11959,6.8848-7.6308,11.1221.4863,4.2353,11.9038-1.9566,13.3637-4.3516C273.97084,115.233,270.53094,111.16948,266.78384,110.85988Z"/>
              <path class="cls-5" d="M247.54554,120.18408c-4.09029.4761-4.58,4.6582-.2685,8.3687,4.312,3.7134,5.936-.7705,5.8681-4.9693C253.06954,119.37988,249.66374,119.93558,247.54554,120.18408Z"/>
              <path class="cls-5" d="M239.97725,100.70018c-4.09041.4761-4.58011,4.6587-.26861,8.3697,4.312,3.7129,5.93561-.7705,5.8687-4.9693C245.50114,99.897,242.09534,100.45168,239.97725,100.70018Z"/>
              <path class="cls-5" d="M195.33414,73.16358c-3.0137.4126-3.644,3.4756-2.1811,6.1148,1.4585,2.6386,5.2436,2.5307,6.7685-.7002C201.445,75.35008,199.15394,72.63968,195.33414,73.16358Z"/>
              <path class="cls-5" d="M265.06564,126.55768c-1.82039,1.5498-1.6377,4.5859,1.0688,6.0747,2.7124,1.478,4.3491-3.107,4.1929-5.0064C270.17,125.71978,266.75554,125.126,265.06564,126.55768Z"/>
              <path class="cls-5" d="M221.27554,80.31938c-1.81929,1.5488-1.6367,4.5854,1.0698,6.0737,2.7124,1.4785,4.3497-3.1069,4.1924-5.0063C226.38054,79.48148,222.96594,78.88628,221.27554,80.31938Z"/>
              <path class="cls-5" d="M277.30244,123.16308c-3.7925,1.167-3.6973,2.8418-.3609,4.3741,3.3369,1.539,2.97071-1.6416,2.7823-3.2286C279.546,122.71928,278.92154,122.667,277.30244,123.16308Z"/>
              <path class="cls-5" d="M180.89954,51.10108c-3.7924,1.168-3.6972,2.8413-.3608,4.3745,3.3374,1.5391,2.9702-1.6411,2.7822-3.228C183.14274,50.65778,182.51874,50.606,180.89954,51.10108Z"/>
              <path class="cls-5" d="M280.05925,134.38188c-.91451,1.2803-1.064,5.2637,1.96089,6.7754,3.0245,1.5058,5.31111-3.3413,4.3448-6.8804C285.40154,130.73538,281.12954,132.89948,280.05925,134.38188Z"/>
              <path class="cls-5" d="M200.97674,83.68508c-.9136,1.2803-1.063,5.2642,1.9619,6.7754,3.0244,1.5054,5.311-3.3418,4.3438-6.8804C206.319,80.03858,202.047,82.20268,200.97674,83.68508Z"/>
            </g>
            <g>
              <path class="cls-5" d="M321.46254,216.34918c1.2349-.6607,4.2793-.7232,3.6763,2.812-.6035,3.5346-3.9985,5.4389-5.9067,3.2207C317.32344,220.16508,319.54414,217.37158,321.46254,216.34918Z"/>
              <path class="cls-5" d="M328.99384,217.44388c1.521-.4307,3.4219.3218,2.68941,1.8735-.73191,1.5528-3.42331,1.1304-3.83741.2984C327.43764,218.78568,327.53974,217.85208,328.99384,217.44388Z"/>
              <path class="cls-5" d="M317.76584,223.26518c.6367.1533,2.5888.9414,1.9589,3.0146-.6289,2.0703-3.4316,2.5786-5.39549,1.2256C312.36294,226.14948,314.23994,222.42528,317.76584,223.26518Z"/>
              <path class="cls-5" d="M308.83954,225.51618c1.2114-.6011,2.4868.4233,2.3794,1.9794-.1114,1.5533-2.5059,4.7598-5.1963,3.0899C303.33074,228.91948,307.17694,226.33938,308.83954,225.51618Z"/>
              <path class="cls-5" d="M311.03384,220.44388a2.087,2.087,0,0,1,1.96341,2.1821c-.00291,1.2451-2.91211,2.065-4.14991,1.0239C307.60414,222.60938,309.37564,220.64308,311.03384,220.44388Z"/>
              <path class="cls-5" d="M299.26974,234.19288c1.0957-.7519,4.1518-1.23,4.87251.3272.72219,1.5576-1.25781,3.5219-4.46821,2.9917C296.46114,236.982,297.92,235.11918,299.26974,234.19288Z"/>
              <path class="cls-5" d="M313.30244,189.66258c-2.3628-.0083-2.7046,2.604-1.7886,4.5811.9165,1.9785,3.439,2.1899,5.1226-.3193C318.32484,191.41358,316.39614,189.67388,313.30244,189.66258Z"/>
              <path class="cls-5" d="M314.07044,201.38818c-2.36319-.0088-2.7036,2.6035-1.7885,4.5806.917,1.98,3.4389,2.1909,5.1235-.3189C319.09344,203.13918,317.16425,201.39988,314.07044,201.38818Z"/>
              <path class="cls-5" d="M305.68034,239.813c1.3721-.2236,3.627.5318,3.4116,2.6045-.2134,2.0718-2.2881,2.065-4.2495.0899C302.87814,240.53028,304.43374,240.01568,305.68034,239.813Z"/>
              <path class="cls-5" d="M311.09294,233.19728a2.78209,2.78209,0,0,1,3.4146,2.6035c-.1104,1.9702-2.9117,2.0645-4.356.1924C308.70725,234.12258,310.36784,233.50348,311.09294,233.19728Z"/>
              <path class="cls-5" d="M317.94454,231.14558c.9721-.1578,2.4873.4228,2.0683,1.8735-.4209,1.4502-1.2544,2.2783-2.28459,1.0307C316.695,232.79938,316.69984,231.35108,317.94454,231.14558Z"/>
              <path class="cls-5" d="M327.62174,224.17628c1.2461-.2026,2.7979.9434,2.0669,2.0811-.73,1.1391-1.5601,1.7573-2.5908.3027C326.06414,225.106,326.37764,224.38088,327.62174,224.17628Z"/>
              <path class="cls-5" d="M334.78044,223.26908c.7949.4009.4077,1.6601-.0068,2.0727-.417.4126-1.2437-.2099-1.5518-1.1474C332.91425,223.26368,333.53874,222.64408,334.78044,223.26908Z"/>
              <path class="cls-5" d="M334.69354,218.39508c.5952.4277,1.2431.4199,1.13871,1.351-.10941.9341-1.86971.4087-2.38531-.5268C332.93184,218.28668,333.97184,217.87308,334.69354,218.39508Z"/>
              <path class="cls-5" d="M321.39474,195.26418c-1.06549.6592-2.2959,3.8887-.8614,5.084,1.4356,1.1938,5.5362.9658,5.1231-1.94C325.24434,195.49958,323.06654,194.22758,321.39474,195.26418Z"/>
              <path class="cls-5" d="M328.045,202.168c-1.6157.8233-.7817,2.7207.294,3.2105,1.0737.4917,2.5474-1.1153,2.2803-2.4156C330.35325,201.66218,329.45184,201.44878,328.045,202.168Z"/>
              <path class="cls-5" d="M332.98014,204.83888c-1.3784.125-2.3862,2.8687-1.96089,4.3032.42279,1.4331,3.99169-1.3965,4.35149-2.3125C335.72774,205.91358,334.29364,204.71878,332.98014,204.83888Z"/>
              <path class="cls-5" d="M326.90154,209.22368c-1.38429.4116-1.30029,1.8852.4126,2.9062,1.7143,1.0205,2.0039-.6245,1.72611-2.0718C328.76094,208.61188,327.61684,209.00928,326.90154,209.22368Z"/>
              <path class="cls-5" d="M323.10714,202.95218c-1.3833.4126-1.2994,1.8867.4145,2.9072,1.7139,1.0215,2.0039-.626,1.7251-2.0718C324.96594,202.34038,323.82434,202.73778,323.10714,202.95218Z"/>
              <path class="cls-5" d="M306.02114,196.14558c-1.0156.3247-1.0473,1.4204-.3813,2.2431a1.308,1.308,0,0,0,2.29341-.6514C308.26384,196.52928,307.30825,195.732,306.02114,196.14558Z"/>
              <path class="cls-5" d="M333.338,210.36428a1.28466,1.28466,0,0,0,.7363,2.0332c1.02691.3462,1.315-1.3369,1.1451-1.9839C335.04994,209.76518,333.83464,209.76708,333.338,210.36428Z"/>
              <path class="cls-5" d="M315.41425,197.04548a1.28514,1.28514,0,0,0,.73829,2.0332c1.0254.3466,1.313-1.3365,1.1435-1.983C317.12664,196.44728,315.91174,196.44878,315.41425,197.04548Z"/>
              <path class="cls-5" d="M337.359,208.45018c-1.2402.6338-1.1059,1.2056.1406,1.5328,1.24661.33.9253-.7466.7642-1.2842C338.10714,208.16168,337.88834,208.18118,337.359,208.45018Z"/>
              <path class="cls-5" d="M299.80684,229.37458c1.2807-.5425,1.6318-.0723,1.083,1.0927-.5484,1.166-1.1675.2305-1.4751-.2387C299.10174,229.76228,299.25944,229.608,299.80684,229.37458Z"/>
              <path class="cls-5" d="M338.98944,212.15868a1.7839,1.7839,0,0,0,1.0869,2.2207c1.1367.3379,1.6328-1.476,1.0835-2.6396C340.61344,210.57568,339.27014,211.58208,338.98944,212.15868Z"/>
              <path class="cls-5" d="M308.60754,199.43748a1.78613,1.78613,0,0,0,1.0875,2.2212c1.13621.3355,1.6328-1.4765,1.0844-2.6396C310.23114,197.85358,308.88684,198.86038,308.60754,199.43748Z"/>
            </g>
            <g>
              <path class="cls-5" d="M99.80484,345.10548c-2.5508-3.0713-4.4551-11.5425,5.7642-11.8686,10.2221-.3306,17.477,8.0761,12.3657,14.6689C112.82344,354.50538,103.755,349.88628,99.80484,345.10548Z"/>
              <path class="cls-5" d="M100.507,329.04788c-4.106-1.8545-6.8702-6.9863-2.42479-9.0278,4.44869-2.0459,9.54679,3.8247,8.91989,6.3945C106.37325,328.982,104.43274,330.82668,100.507,329.04788Z"/>
              <path class="cls-5" d="M124.45574,333.45118c-1.1089-1.5044-3.918-6.812,1.2637-10.1767,5.1743-3.3638,12.2187.6728,14.0229,7.2348C141.54264,337.07478,130.60614,341.75688,124.45574,333.45118Z"/>
              <path class="cls-5" d="M148.068,344.93018c-3.748-.916-4.6494-5.4907-1.5591-8.6865,3.09331-3.1875,14.2066-5.7881,17.0142,2.7944C166.33414,347.61968,153.20574,346.18308,148.068,344.93018Z"/>
              <path class="cls-5" d="M133.963,351.96828c-2.2182-1.4468-2.56979-5.6582-.27879-8.3686,2.29639-2.709,10.145.8403,10.939,5.3891C145.421,353.54058,137.95084,354.57718,133.963,351.96828Z"/>
              <path class="cls-5" d="M184.881,343.56938c-3.7676-.3682-11.3169-4.9404-10.0293-9.6602,1.2837-4.7241,9.2104-5.3764,15.2441,1.6768C196.131,342.64018,189.53044,344.02688,184.881,343.56938Z"/>
              <path class="cls-5" d="M212.94354,345.65818c-6.63329,1.189-8.8814-5.9814-7.2818-11.9868,1.6006-6.0097,8.5826-7.8452,14.5503-1.6245C226.18764,338.26758,221.62764,344.10308,212.94354,345.65818Z"/>
              <path class="cls-5" d="M236.68714,338.65578c-6.6333,1.1885-8.8803-5.9819-7.2817-11.9868,1.6006-6.0103,8.5835-7.8452,14.5503-1.6245C249.93184,331.26518,245.37174,337.10008,236.68714,338.65578Z"/>
              <path class="cls-5" d="M181.21554,319.53318c-3.4048-2.0332-6.9395-7.8203-2.6631-11.9462,4.2729-4.1299,8.7851-.3062,9.4384,7.6088C188.64274,323.11628,184.30584,321.38038,181.21554,319.53318Z"/>
              <path class="cls-5" d="M157.25454,324.02978c-3.2978-1.0151-6.522-7.8545-2.6689-11.9507,3.8584-4.0957,10.1421.8414,9.8589,7.5796C164.15834,326.39508,159.40054,324.69,157.25454,324.02978Z"/>
              <path class="cls-5" d="M122.66034,317.52838c-2.4112-1.4429-4.6485-5.4932-1.0723-7.8877,3.5781-2.3921,6.9175-2.667,6.8755,1.9482C128.42254,316.212,125.75064,319.36818,122.66034,317.52838Z"/>
              <path class="cls-5" d="M104.62374,313.36088c-3.0909-1.8457-4.3726-7.1963-.688-8.3374,3.6841-1.1416,6.6299-.9697,6.208,4.1015C109.72725,314.19538,107.71164,315.20118,104.62374,313.36088Z"/>
              <path class="cls-5" d="M87.33665,321.96928c-1.0015-2.3345,2.15519-4.3731,3.82269-4.5098,1.6641-.1367,2.3252,2.7427,1.2764,5.3506C91.39814,325.40918,88.89565,325.61528,87.33665,321.96928Z"/>
              <path class="cls-5" d="M69.28675,325.54738c-1.0014-2.335,2.1553-4.373,3.8233-4.5098,1.6636-.1372,2.3247,2.7432,1.2764,5.3511C73.34835,328.98688,70.84585,329.19288,69.28675,325.54738Z"/>
              <path class="cls-5" d="M83.87765,337.60208c-.5113-2.0264-1.9449-3.1992-.0035-5.0391,1.9507-1.8349,4.8277,2.543,4.2354,5.5293C87.52115,341.07868,84.49335,340.06838,83.87765,337.60208Z"/>
              <path class="cls-5" d="M260.27454,326.20758c-3.3169-1.3301-8.3588-9.7959-4.9218-13.8575,3.4433-4.0605,15.0756-5.4409,15.3496,2.9263C270.97574,323.648,265.48354,328.29448,260.27454,326.20758Z"/>
              <path class="cls-5" d="M283.41374,310.91308c-4.9429-1.5171-3.5371-7.2617-.7583-9.1665,2.7764-1.9106,7.7065,1.8784,7.5972,5.6656C290.14664,311.19388,287.71794,312.23728,283.41374,310.91308Z"/>
              <path class="cls-5" d="M291.05294,299.89558c-3.9375.3276-8.11969-6.8848-7.6314-11.1216.4868-4.2354,11.9038,1.9565,13.3643,4.351C298.24044,295.52248,294.79944,299.58648,291.05294,299.89558Z"/>
              <path class="cls-5" d="M273.31654,294.20408c-4.0908-.4755-4.581-4.6577-.269-8.3686,4.3125-3.7129,5.936.7705,5.8686,4.9692C278.84054,295.00828,275.43474,294.45368,273.31654,294.20408Z"/>
              <path class="cls-5" d="M261.30194,303.76568c-4.0913-.4751-4.5806-4.6577-.2691-8.3687,4.3121-3.7129,5.9351.771,5.8687,4.9693C266.82584,304.56988,263.41964,304.01518,261.30194,303.76568Z"/>
              <path class="cls-5" d="M189.29944,331.03618c-3.0141-.4131-3.6445-3.4761-2.1801-6.1157,1.457-2.6382,5.2431-2.5298,6.7671.7011C195.40984,328.84968,193.11884,331.56008,189.29944,331.03618Z"/>
              <path class="cls-5" d="M286.38984,277.90868c-1.8194-1.5488-1.6367-4.5854,1.0688-6.0737,2.7129-1.4785,4.34961,3.106,4.1924,5.0064C291.49434,278.74608,288.07974,279.34088,286.38984,277.90868Z"/>
              <path class="cls-5" d="M244.62814,314.24468c-1.81989-1.5493-1.6373-4.586,1.0693-6.0742,2.7119-1.4786,4.3491,3.1069,4.1919,5.0068C249.73254,315.08158,246.31854,315.67628,244.62814,314.24468Z"/>
              <path class="cls-5" d="M215.24084,323.88038c-1.8193-1.5498-1.6367-4.5859,1.06941-6.0747,2.71289-1.4775,4.34959,3.1074,4.19239,5.0068C220.34584,324.71828,216.93234,325.31248,215.24084,323.88038Z"/>
              <path class="cls-5" d="M298.62614,281.30378c-3.7925-1.168-3.6968-2.8414-.3608-4.3746,3.3374-1.5385,2.9712,1.6412,2.7822,3.229C300.87025,281.74758,300.24625,281.79938,298.62614,281.30378Z"/>
              <path class="cls-5" d="M174.86444,353.09768c-3.792-1.167-3.6968-2.8418-.3609-4.374,3.3379-1.5391,2.97171,1.6416,2.7828,3.2285C177.109,353.54148,176.48354,353.59378,174.86444,353.09768Z"/>
              <path class="cls-5" d="M301.38294,270.08448c-.914-1.2803-1.0634-5.2637,1.962-6.7749,3.0239-1.5063,5.311,3.3418,4.3437,6.8799C306.72525,273.73148,302.45374,271.56738,301.38294,270.08448Z"/>
              <path class="cls-5" d="M194.94254,320.51368c-.9145-1.2803-1.064-5.2632,1.9609-6.7744,3.0245-1.5068,5.3111,3.3418,4.34481,6.8799C200.28434,324.16118,196.01284,321.99658,194.94254,320.51368Z"/>
            </g>
            <g>
              <path class="cls-5" d="M45.01335,170.48778c-3.1182.5113-6.1079.7647-9.2441,1.3081-1.5367.2657-2.7534.5884-4.0816.0967a3.90125,3.90125,0,0,1-.8276-.5044,9.25045,9.25045,0,0,1-2.2525.6621c1.5298,1.7276,3.9571,1.7559,6.3624,2.3101a19.26133,19.26133,0,0,0,5.1269.0107c1.6836-.059,2.9282.6153,4.4648.9898,3.3946.8301,7.1138-2.5933,10.4878-1.145a10.15467,10.15467,0,0,1,3.4073,3.1943c1.602,1.9961,3.497,3.623,5.1025,5.6128,2.5781,3.1997,6.7857,3.6807,4.9404,9.6113-1.6518,5.3159-1.705,11.5113-5.3857,16.2398-2.4585,3.1562-5.8623,6.8178-9.2388,7.8007-3.7392,1.0865-7.7134-1.0146-10.4438-2.6875-1.7261-1.0571-3.4673-2.8427-5.7383-2.206-1.5776.4434-3.3647,1.6719-4.9839,1.959-3.21.5659-5.8306-2.0738-7.602-4.1948-2.0171-2.419-2.9703-5.689-5.9058-7.0176-1.2163-.5508-4.5708-2.0718-6.5474-.9785a6.61884,6.61884,0,0,1,.417,1.0302c1.8184-.5405,3.5567.6294,4.6631,1.8555.9683,1.0737,1.4883,2.749,2.2085,4.0732a28.96893,28.96893,0,0,0,3.854,5.3711c2.2398,2.4683,6.0073,3.3155,9.4761,2.9854,2.4072-.23,3.4346-.2251,5.333.9375a13.01936,13.01936,0,0,0,4.6977,1.7651c4.0367.7945,7.3858,1.4248,11.8296-.7392,1.6158-.7857,3.1075-1.8125,4.6451-2.5738a22.88226,22.88226,0,0,0,5.1318-3.4301,52.74176,52.74176,0,0,0,3.9722-4.6031c2.0918-2.3579,3.313-3.4599,3.3989-6.5766.1225-4.4571.9355-9.9102-.4839-13.5152a36.06407,36.06407,0,0,0-2.9248-6.2631c-1.353-2.125-3.7295-2.0533-5.4839-3.5708-2.8843-2.4942-3.4809-6.7579-7.4072-8.1973a14.17435,14.17435,0,0,0-5.2212-1.166C48.83955,169.05328,46.96115,170.16848,45.01335,170.48778Z"/>
              <path class="cls-5" d="M95.94454,188.55028c-.5386-2.7768-1.6607-5.1782-1.8374-8.1748-.15089-2.5459-.0704-5.1284-.3726-7.6372a18.98643,18.98643,0,0,0-5.32279-11.4101c-2.6704-2.4849-6.0483-3.211-9.0376-5.0572-2.2724-1.4028-4.8212-2.062-7.1625-3.2876-.4078-.2124-1.1265-.8105-1.9522-1.4072q-1.86765.50025-3.6562,1.0772c1.5659,2.0649,5.4394,2.6865,7.2319,3.7841,3.1094,1.9048,6.5483,3.5743,9.2944,5.9756,2.4907,2.1773,5.4448,3.4873,6.87159,6.875a43.12414,43.12414,0,0,1,2.4585,6.8452c.502,2.1783-.0205,4.2496-.2778,6.626-.4375,4.0557,1.1181,7.2788.7675,11.4102-.3618,4.2558-.9697,8.5903-1.1777,12.7075a13.58157,13.58157,0,0,1-.7998,5.2559c-.7983,1.7885-2.16059,3.5864-3.05569,5.31a38.30028,38.30028,0,0,1-8.9233,11.7056c-3.6577,3.3071-7.6103,5.8227-11.4399,8.623-1.981,1.4502-3.9224,3.4312-6.0166,4.5371-2.1558,1.1372-4.5977,1.3057-6.7452,1.5518-2.018.2339-3.9086,1.1328-5.8881,1.4575a17.314,17.314,0,0,1-5.0328-.4189c-1.8359-.231-3.7207.3989-5.4321-.1035a22.78076,22.78076,0,0,1-5.48-2.4751c-5.54-3.4205-10.811-7.6289-16.7436-10.4854-.0171.0156-.0366.0288-.0542.0454q.31935,2.3481.7246,4.7769c1.9375.6806,4.2363.8149,6.0366,1.6987,3.9634,1.9473,7.2525,5.0493,10.8579,7.542a23.48528,23.48528,0,0,0,17.9761,3.5586c3.7324-.8032,7.8071-3.523,11.5615-4.9531,2.5108-.9566,4.503-3.0679,6.9512-4.5054a55.27369,55.27369,0,0,0,7.5083-5.3438c9.1724-7.7338,15.20119-18.9707,17.80419-30.4531a38.062,38.062,0,0,0,.52151-8.0825A35.9689,35.9689,0,0,0,95.94454,188.55028Zm-13.23149,10.2286c.2705,7.0883-2.3681,16.6875-8.3686,22.5498a22.54676,22.54676,0,0,1-7.1138,4.353c-2.4341,1.1045-4.9976,2.8594-7.4907,3.3525-2.9092.5762-4.1831-1.2954-6.6949-1.582-1.3466-.1519-2.5346,1.0532-3.7954,1.187-1.101.1177-2.0273-.6592-2.872-1.1645l-.2188.687c.6494,2.1123,3.2241,2.1674,4.9907,2.4433,2.274.3555,4.0435,1.2544,6.4825,1.2935,2.2675.0346,3.6938-.6646,5.9179-2.1856,2.3345-1.5971,4.5684-1.9238,6.9654-2.7939,2.7114-.9824,4.0864-2.8984,6.4712-4.9453,1.9897-1.7114,4.7319-3.7359,5.896-6.3447,1.1904-2.6675,1.3281-6.8091,1.8623-9.6275.7236-3.8257,1.9511-7.6006,1.3833-11.1279-.3628-2.2525-1.3555-4.1914-1.8228-6.4116-.334-1.5777-.5439-3.2383-.8603-4.7593-.5933-2.853-2.5333-4.2466-4.7012-5.3789-1.503,1.9951,2.334,6.9262,3.0483,8.4687.6841,1.4737,1.7739,3.6817,1.5698,5.6104A43.60826,43.60826,0,0,0,82.71305,198.77888Z"/>
            </g>
            <path class="cls-5" d="M34.30245,155.58888c.5307-.9053,1.084-1.812,1.6963-2.7373,2.0234-3.0591,3.6845-6.1406,5.9829-9.084,1.7197-2.2036,3.5551-4.0957,5.2837-6.2456,1.8144-2.2573,3.5034-4.6758,5.3847-6.8652a26.04727,26.04727,0,0,1,10.1729-7.2813,19.45724,19.45724,0,0,1,12.2534-1.2441c2.5337.5889,5.3931-.3345,8.48-1.603,1.7895-.7373,4.6054-2.4375,6.07569-2.1045,2.2949.5161,3.7841,7.3637,7.2924,4.7993-.0483-.6909-.1044-1.3814-.1723-2.0728a6.88333,6.88333,0,0,1-1.4238-.7031c-.8238-.7871-1.1246-2.0571-1.8682-2.8818-.8545-.9483-1.8101-.8472-3.209-.7749-2.78519.143-4.76119-.1773-7.97949,1.5009-2.4702,1.2872-5.0176.5035-7.2349.5303-2.9091.0352-5.0043-.4487-8.3862,1.0694-3.2944,1.4785-6.769,2.3481-10.1401,4.5019a23.851,23.851,0,0,0-4.4898,4.3931c-1.7505,1.9028-3.5337,3.5024-5.3896,5.186-3.436,3.1187-6.4873,7.7295-9.2988,11.5318a120.62124,120.62124,0,0,0-6.7442,10.2163Q32.43455,155.60673,34.30245,155.58888Z"/>
            <path class="cls-5" d="M73.04115,140.14748c-1.0058.1758-2.0219-.1523-3.0078.0894a16.29247,16.29247,0,0,0-4.0215,1.9614,19.11567,19.11567,0,0,0-4.9731,4.3725c-1.229,1.566-2.8843,2.7549-4.0288,4.4146-2.3223,3.3706-4.3359,6.0757-8.2217,7.7168-1.7832.7554-3.2197,1.6216-5.1191,1.6987-1.2359.0503-2.6182-.0356-3.9107.0069a8.27982,8.27982,0,0,0-2.7573.8574q2.06685,1.6413,4.2207,3.1294a21.81558,21.81558,0,0,0,7.3584-1.2652c5.4487-2.2031,8.5557-7.812,11.6611-12.4091,1.5547-2.2998,3.5909-4.6309,6.4204-5.2188a54.97391,54.97391,0,0,0,8.6265-2.3354c5.0967-1.9493,11.4107-5.6304,13.3682-11.2071-2.0562,2.7901-6.1016,4.208-9.1099,5.7281A24.04984,24.04984,0,0,1,73.04115,140.14748Z"/>
            <path class="cls-5" d="M68.114,112.41408c.9477-.3804,2.0102-.2705,2.9238-.7114a16.3169,16.3169,0,0,0,3.5259-2.7549,19.103,19.103,0,0,0,3.9556-5.3115c.8759-1.7876,2.248-3.294,3.0224-5.1563,1.5694-3.7798,2.9776-6.8432,6.4375-9.2568,1.58689-1.1099,2.812-2.2564,4.65429-2.7266,1.19681-.3066,2.5684-.5078,3.82381-.8193a8.2726,8.2726,0,0,0,2.518-1.4126q-2.36132-1.17705-4.77881-2.1826a21.81114,21.81114,0,0,0-6.93459,2.7671c-4.8715,3.2876-6.7446,9.4204-8.8261,14.563-1.042,2.5727-2.5493,5.2758-5.1953,6.4399a54.98749,54.98749,0,0,0-7.9507,4.0776c-4.5811,2.9659-9.9917,7.8794-10.7466,13.7422,1.4307-3.1567,5.0928-5.3852,7.7197-7.498A24.10045,24.10045,0,0,1,68.114,112.41408Z"/>
            <g>
              <path class="cls-14" d="M48.85025,179.32868c-6.874-4.0249-16.1216-1.5235-20.3686,5.7187a14.19594,14.19594,0,0,0,5.1284,20.0537c6.8765,4.0254,16.1211,1.521,20.3682-5.7187A14.19509,14.19509,0,0,0,48.85025,179.32868Z"/>
              <path class="cls-15" d="M27.27415,187.30518a14.559,14.559,0,0,0,6.3359,17.7959c6.0942,3.5469,14.1025,1.9668,18.8804-3.3305a30.19483,30.19483,0,0,1-14.6338-3.9117A26.31424,26.31424,0,0,1,27.27415,187.30518Z"/>
              <path class="cls-15" d="M48.85025,179.32868a1.41645,1.41645,0,0,0-.7842-.4776,14.65192,14.65192,0,0,1,4.1412,19.5088,15.49678,15.49678,0,0,1-19.5865,6.1934,10.3085,10.3085,0,0,0,.9893.5478c6.8765,4.0254,16.1211,1.521,20.3682-5.7187A14.19509,14.19509,0,0,0,48.85025,179.32868Z"/>
              <path class="cls-16" d="M45.48305,178.88628c-.1484-.2671-.5713-.4053-.9951-.5445,11.5718,7.5542-.8545,27.607-13.0141,21.8516.4233.1401.5673.4077.9902.5464,7.0874,4.0928,15.8603,2.3237,19.4365-3.5869C55.54165,191.04058,52.634,182.78028,45.48305,178.88628Z"/>
              <path class="cls-17" d="M42.04705,182.82618c-2.9072-1.8398-7.0771-.5503-9.0356,2.5718a6.27918,6.27918,0,0,0,2.228,8.9194c2.9087,1.8394,7.0752.5498,9.0327-2.5718C46.02115,188.55568,45.23455,184.53368,42.04705,182.82618Z"/>
              <path class="cls-14" d="M37.33855,185.52838c-.7788-.479-2.0991-.0244-2.77,1.3042-.6035,1.1308-.5742,2.4692.2046,2.9453.9907.5469,2.1645-.1734,2.7685-1.3042A2.06755,2.06755,0,0,0,37.33855,185.52838Z"/>
              <path class="cls-17" d="M48.60325,180.79588c-.8472-.2768-1.7559,6.0669.0161,7.0879C52.37175,190.001,51.15345,182.29738,48.60325,180.79588Z"/>
            </g>
            <g>
              <g>
                <path class="cls-18" d="M78.095,247.021s65.93259,44.3921,94.59319,15.3252c28.6602-29.0551,7.3872-55.1342-8.9082-61.5175-23.1426-9.0816-45.3511,8.0117-45.3511,8.0117Z"/>
                <path class="cls-18" d="M128.82784,257.44628c-17.2989-2.6172-45.89069-10.894-49.21389-11.8637l-.0386.039c2.9815,1.3653,33.12159,14.9834,61.37209,19.6402a123.98126,123.98126,0,0,0,26.0283,1.6587,30.89433,30.89433,0,0,0,5.7124-4.5743,61.67325,61.67325,0,0,0,5.3584-6.2046C169.51144,258.50738,153.27654,261.14988,128.82784,257.44628Zm39.0166-54.6235a38.41631,38.41631,0,0,1-14.2456,11.7285c-9.7193,4.71-54.9053,17.7949-54.9053,17.7949s50.8008-7.5478,57.9736-11.082c5.7212-2.8154,17.4439-7.5786,21.9834-9.4023A39.89152,39.89152,0,0,0,167.84444,202.82278ZM86.446,241.02688s40.461,7.6123,62.51319,6.7656a317.6868,317.6868,0,0,1,34.0195.4195,34.29645,34.29645,0,0,0,3.7037-13.9654c-4.9126,1.8902-20.2505,7.3179-37.0625,8.1924C129.18714,243.51318,86.446,241.02688,86.446,241.02688Zm5.084-4.2178s34.8408,1.1509,59.6694-.6484c17.98-1.3027,29.9361-5.3516,35.1905-7.4893a33.003,33.003,0,0,0-4.6983-12.5918c-3.2431,2.3369-11.6137,8.0596-19.4116,10.7178C140.04314,234.38188,91.52994,236.80908,91.52994,236.80908Zm69.40531-36.9057a39.82359,39.82359,0,0,0-13.97411-1.6563,68.56169,68.56169,0,0,1-10.125,8.9961c-11.3223,8.1939-29.83889,17.1489-29.83889,17.1489s18.77829-4.54,31.04739-9.5005C147.67254,211.004,157.25014,203.12938,160.93525,199.90338Z"/>
              </g>
              <g>
                <path class="cls-2" d="M75.59785,247.021s65.93209,44.3921,94.59179,15.3252c28.66061-29.0551,7.3867-55.1342-8.9077-61.5175-23.1431-9.0816-45.3501,8.0117-45.3501,8.0117Z"/>
                <path class="cls-5" d="M126.33025,257.44628c-17.29981-2.6172-45.8921-10.894-49.2148-11.8637l-.0391.039c2.9814,1.3653,33.12349,14.9834,61.37349,19.6402a123.99357,123.99357,0,0,0,26.0293,1.6587,30.85324,30.85324,0,0,0,5.7105-4.5743,61.63832,61.63832,0,0,0,5.3603-6.2046C167.01384,258.50738,150.77894,261.14988,126.33025,257.44628Zm39.01709-54.6235a38.42955,38.42955,0,0,1-14.2476,11.7285c-9.7153,4.71-54.9033,17.7949-54.9033,17.7949s50.79981-7.5478,57.9736-11.082c5.7193-2.8154,17.4449-7.5786,21.983-9.4023A39.88407,39.88407,0,0,0,165.34734,202.82278ZM83.947,241.02688s40.46,7.6123,62.51509,6.7656a317.72066,317.72066,0,0,1,34.0201.4195,34.30822,34.30822,0,0,0,3.7026-13.9654c-4.9136,1.8902-20.25149,7.3179-37.062,8.1924C126.68914,243.51318,83.947,241.02688,83.947,241.02688Zm5.0864-4.2178s34.8399,1.1509,59.667-.6484c17.9815-1.3027,29.9395-5.3516,35.1914-7.4893a33.01079,33.01079,0,0,0-4.6992-12.5918c-3.2422,2.3369-11.61229,8.0596-19.4106,10.7178C137.54464,234.38188,89.03335,236.80908,89.03335,236.80908Zm69.4029-36.9057a39.81187,39.81187,0,0,0-13.97221-1.6563,68.68047,68.68047,0,0,1-10.125,8.9961c-11.3242,8.1939-29.8399,17.1489-29.8399,17.1489s18.7789-4.54,31.0484-9.5005C145.17544,211.004,154.75214,203.12938,158.43625,199.90338Z"/>
              </g>
            </g>
            <path class="cls-19" d="M256.83664,271.34668c-34.4078-7.707-66.356-24.5664-99.8599-35.2666-32.104-10.2529-64.3477-23.0669-97.61619-29.3027a197.91192,197.91192,0,0,0-32.2969.0991c-8.915,1.6299-17.7192,3.7324-26.4712,6.1436-.0107.2339-.0234.4599-.0322.7031-.3032,8.584,3.3135,14.7578,9.0361,26.8052,6.6958,14.0962-1.9067,41.8422,44.6817,82.0131,46.58879,40.1714,126.34709,44.7847,203.269,16.084,34.9209-13.0288,49.2783-37.2451,55.0874-60.6001A268.03658,268.03658,0,0,1,256.83664,271.34668Z"/>
            <path class="cls-19" d="M196.98354,322.39068c-52.1675-14.1206-100.7988-39.9038-154.19679-49.2915-8.9707-.8863-17.9589-1.4458-26.9575-1.8008,4.6177,13.5732,14.1817,30.2651,37.0103,49.9487,46.58879,40.1709,126.34709,44.7861,203.269,16.0855a108.02637,108.02637,0,0,0,11.3291-4.9732C243.82925,333.19488,219.41525,328.46148,196.98354,322.39068Z"/>
          </g>
          <g>
            <path class="cls-20" d="M177.78334,49.418c48.0362,2.7319,86.708,29.3443,88.1543,60.4214,2.3672,50.8164-157.7685,53.2769-164.4912,2.0933C94.72234,60.75048,152.75064,47.99368,177.78334,49.418Z"/>
            <path class="cls-20" d="M187.06464,56.316c23.7744,1.351,42.914,14.5229,43.6308,29.9047,1.1709,25.149-78.0835,26.3667-81.4116,1.0352C145.95525,61.92388,174.67594,55.61088,187.06464,56.316Z"/>
          </g>
        </g>
        <g class="cls-21">
          <path class="cls-20" d="M177.78334,49.418c48.0362,2.7319,86.708,29.3443,88.1543,60.4214,2.3672,50.8164-157.7685,53.2769-164.4912,2.0933C94.72234,60.75048,152.75064,47.99368,177.78334,49.418Z"/>
          <path class="cls-20" d="M187.06464,56.316c23.7744,1.351,42.914,14.5229,43.6308,29.9047,1.1709,25.149-78.0835,26.3667-81.4116,1.0352C145.95525,61.92388,174.67594,55.61088,187.06464,56.316Z"/>
        </g>
      </g>
    </g>
  </g>
</svg>
