<svg xmlns="http://www.w3.org/2000/svg" width="50.84356mm" height="50.00501mm" viewBox="0 0 144.12349 141.74649">
  <defs>
    <style>
      .cls-1 {
        fill: #775c2f;
      }
    </style>
  </defs>
  <g id="图层_2" data-name="图层 2">
    <g id="Vrstva_1" data-name="Vrstva 1">
      <g>
        <path class="cls-1" d="M69.56589,61.83983c-.0918.0952-.05468.3589.0869.5869.3056.4912,3.7099.565,3.7099.0777C73.36269,62.15433,69.86369,61.54243,69.56589,61.83983Z"/>
        <path class="cls-1" d="M92.70449,88.98533a1.31188,1.31188,0,0,0-.60928,1.0044c-.13292.9009.17868,1.044,1.05458.4893C93.80221,90.06783,93.40959,88.75343,92.70449,88.98533Z"/>
        <path class="cls-1" d="M85.36079,68.41743c.9238-1.9018.8603-2.521-.1719-1.6626a9.04744,9.04744,0,0,1-1.42968.9302c-1.35352.6856-1.76372,1.7237-.92972,2.3438C83.84709,70.78613,84.37449,70.45063,85.36079,68.41743Z"/>
        <path class="cls-1" d="M39.81389,68.10251c-1.6914.27882-3.7764,1.28522-3.7764,1.81882,0,.4913.7998.3584,3.6582-.6074C42.558,68.34373,42.62839,67.63673,39.81389,68.10251Z"/>
        <path class="cls-1" d="M40.25529,71.78173c-1.5644,1.5674-1.41308,1.9092.6426,1.436a4.45465,4.45465,0,0,1,1.9726-.1767c.3829.3838-.9902,2.6303-1.6054,2.6303-.92388,0-1.1328,1.14118-.3184,1.7359a1.99583,1.99583,0,0,1,.7754.9536c.0274.2319.0723.5083.0996.61568a10.95749,10.95749,0,0,0,2.835.19442c3.1406,0,3.2627-.462.2021-.7701-1.8457-.1855-2.0273-.2924-2.13858-1.2592a5.44342,5.44342,0,0,1,.875-2.7539c1.47458-2.51522,1.34758-3.2325-.61922-3.4961A2.44764,2.44764,0,0,0,40.25529,71.78173Z"/>
        <path class="cls-1" d="M89.69179,68.28413c0-.2129-.6982-.38862-1.5547-.38862s-1.5556.17572-1.5556.38862c0,.21338.6992.3882,1.5556.3882S89.69179,68.49751,89.69179,68.28413Z"/>
        <path class="cls-1" d="M94.57949,84.56983c.291-.4746-.581-1.1885-1.0781-.8799a.972.972,0,0,0-.3096.752C93.19179,85.101,94.19379,85.19533,94.57949,84.56983Z"/>
        <path class="cls-1" d="M88.06779,70.37693c-1.457.291-1.6504.4365-1.30858.9912.32228.521.834.52538,1.792.0127C89.76509,70.72993,89.46229,70.09813,88.06779,70.37693Z"/>
        <path class="cls-1" d="M50.69379,95.64063c-.30858-.3076-1.3457.5151-1.8604,1.4785-.2089.3926-.2304.71338-.0468.71338C49.31,97.83251,50.97409,95.92133,50.69379,95.64063Z"/>
        <path class="cls-1" d="M64.892,74.82123c.668.6685,1.3653.5674,2.2637-.331.9238-.9243.7002-1.54-.5586-1.54C65.392,72.95023,64.26309,74.19043,64.892,74.82123Z"/>
        <path class="cls-1" d="M60.76609,73.71823c1.1298.0127,3.2646-.768,3.2646-1.1963,0-.521-.5098-.4326-2.3867.418Q59.95214,73.70823,60.76609,73.71823Z"/>
        <path class="cls-1" d="M50.66939,79.72363c2.3125.6313,2.4756.6577,2.4756.4326,0-.3691-1.4122-.9033-3.1114-1.17972C47.82069,78.61623,48.186,79.04633,50.66939,79.72363Z"/>
        <path class="cls-1" d="M61.06,62.643c.5859,1.5279,3.1904.2222,6.0059-3.0112,2.4687-2.8369,1.6718-4.4614-1.22468-2.4941C62.51509,59.39551,60.642,61.55323,61.06,62.643Z"/>
        <path class="cls-1" d="M61.31,51.95363a7.21189,7.21189,0,0,1-1.5371,1.9448c-.1582,0-.59568.7446-.97168,1.6519-.374.9086-.80372,1.915-.95412,2.2358a2.35123,2.35123,0,0,0-.125,1.2632c.28812,1.3457,1.2549.4116,1.2549-1.2105a4.7802,4.7802,0,0,1,1.1494-2.0112,6.90689,6.90689,0,0,0,1.168-1.6572c.0312-.5908,2.0761-2.2168,2.7939-2.2168.8897,0,.9092-.3145.0781-1.232C63.17329,49.62693,62.66159,49.84813,61.31,51.95363Z"/>
        <path class="cls-1" d="M61.95359,67.56493c-1.1905-1.1538-1.3428-1.2026-1.837-.60742-.4746.57182-.3798.78032.7979,1.76562C63.33829,70.748,64.22409,69.76313,61.95359,67.56493Z"/>
        <path class="cls-1" d="M38.62049,26.29243a1.62487,1.62487,0,0,1-1.02728-.582c-.44822-.5415-1.94532-.8354-1.94532-.3833a13.71909,13.71909,0,0,0,2.1377,3.4927,13.04414,13.04414,0,0,0,3.8564,3.584c2.8135,1.6391,2.8887-.5147.1299-3.7188-1.123-1.3076-2.4541-2.8594-2.958-3.4526l-.916-1.0772.6348,1.0679C39.05021,26.09813,39.06679,26.29243,38.62049,26.29243Zm2.2461,2.9707c.1329.354.18462.7002.1114.772-.1856.1875-1.05278-.7192-1.05278-1.0972C39.92521,28.375,40.61469,28.61323,40.86659,29.26313Z"/>
        <path class="cls-1" d="M32.60879,11.518c.2813-.0019-.2754-.6821-1.2363-1.5141-1.8272-1.5821-2.332-1.6675-2.332-.4053,0,.4145-.2539.7534-.5625.7534a.98166.98166,0,0,0-.7657.33548c-.3017.48732.4541,2.86322,1.0293,3.227.668.42532,1.85162.40822,1.85162-.02538,0-.1992.59768-.1704,1.36128.0635,1.7696.5444,2.0293.2183.9883-1.24512C32.36269,11.89251,32.25729,11.51951,32.60879,11.518Z"/>
        <path class="cls-1" d="M42.64589,36.69873c0,.4614.3994.542,1.9678.3911,1.8408-.1758,3.1123-.792,2.6318-1.2729a7.21038,7.21038,0,0,0-2.4052.0463C43.27189,36.04683,42.64589,36.28613,42.64589,36.69873Z"/>
        <path class="cls-1" d="M68.28169,43.04443c-1.8018-.93992-2.7041-.729-1.68948.3935.56838.6265,3.27048,1.1119,3.27048.5865A6.71317,6.71317,0,0,0,68.28169,43.04443Z"/>
        <path class="cls-1" d="M139.23479,81.665c-4.4551,1.3599-5.6084,1.8149-5.6084,2.20948,0,.53172.2041.48092,5.6367-1.39408C144.56289,80.64743,144.54239,80.04633,139.23479,81.665Z"/>
        <path class="cls-1" d="M98.83339,85.00633a.93358.93358,0,0,0-1.4951.9946c.2705.70458,1.0694.7154,1.6416.0254C99.31489,85.62113,99.28169,85.37843,98.83339,85.00633Z"/>
        <path class="cls-1" d="M64.83149,25.80863c-1.4356,1.271-.77928,1.0708,1.5879-.4874,1.1347-.7485,1.8486-1.3608,1.583-1.3608A6.79911,6.79911,0,0,0,64.83149,25.80863Z"/>
        <path class="cls-1" d="M99.12049,67.50143a7.31713,7.31713,0,0,1-1.1132-.2265c-.58208-.1573-.8799-.0137-1.0254.49258-.1104.39022-.3291,1.01662-.4844,1.39212-.19728.481-.0957.6792.34572.6792.34378,0,.625-.1792.625-.3984,0-.2178.43748-.5654.97268-.7681C99.33149,68.333,99.80709,67.51413,99.12049,67.50143Z"/>
        <path class="cls-1" d="M97.83339,88.89063a.68367.68367,0,0,0-.7539.7788c0,.8184.6133.9932,1.5069.4248C99.28269,89.65233,98.80409,88.89063,97.83339,88.89063Z"/>
        <path class="cls-1" d="M95.29049,81.21683c-.1162.1181.0683.7548.4082,1.4165.6279,1.2143,1.3906,1.6137,1.3681.7163C97.04929,82.71683,95.56979,80.93843,95.29049,81.21683Z"/>
        <path class="cls-1" d="M69.28069,22.94623c-.4297.3311-.6016.6031-.3896.606a3.70473,3.70473,0,0,0,1.3603-.7578,3.68285,3.68285,0,0,1,1.459-.77.45836.45836,0,0,0,.4863-.4073C72.19669,21.19483,70.61659,21.91351,69.28069,22.94623Z"/>
        <path class="cls-1" d="M97.12449,51.17623c.4873,0,.42772-1.4565-.0704-1.7656-.5957-.3672-.75388-.0762-.498.9102C96.68009,50.79151,96.936,51.17623,97.12449,51.17623Z"/>
        <path class="cls-1" d="M102.47409,91.64993c.6289-.3975.2539-1.2046-.5586-1.2046-.3077,0-.5586.3501-.5586.7763C101.35689,92.06733,101.642,92.17723,102.47409,91.64993Z"/>
        <path class="cls-1" d="M120.57169,89.92433c.1787.4663.3584.5053.7637.1684a1.33362,1.33362,0,0,1,1.2051-.1767c.5918.2236.6211.1474.2314-.5781C122.00729,87.91213,120.00629,88.44773,120.57169,89.92433Z"/>
        <path class="cls-1" d="M21.65179,93.75733c0-.6836-3.5781-6.0415-4.543-6.7969-2.7363-2.1533-7.8437.021-10.0429,4.2759-.503.97018-.4903,1.1728.11032,1.9028a8.60641,8.60641,0,0,0,3.36818,1.5821c3.3437.9477,3.6406,1.2211,2.7773,2.5395a2.28237,2.28237,0,0,0-.459,1.5737c.1241.3272.7481.5547,1.5118.5547,2.30372,0,4.0332-2.5439,3.0185-4.4404-.4033-.751-.3271-1.084.5205-2.335l.9902-1.4619,1.02352,1.1055a11.85422,11.85422,0,0,1,1.55558,2.1264,3.0182,3.0182,0,0,0,1.2159,1.2852c.5449.209.5078.0752-.1817-.6592A3.48428,3.48428,0,0,1,21.65179,93.75733Zm-10.3047-1.53182c0,1.88192-.17188,1.97032-2.0391,1.04012-1.7529-.8735-1.6093-1.81012.625-4.0415,1.8438-1.8447,1.9415-1.8877,4.1797-1.8584l2.2901.0317-1.5977.565C12.436,88.80323,11.34709,90.145,11.34709,92.22551Zm1.3633-.21918c-.4893-.3101-.377-.5781.67382-1.63282,1.52638-1.53218,2.29688-1.15378,1.56938.77C14.476,92.40473,13.767,92.68113,12.71039,92.00633ZM15.6,97.87251a.64178.64178,0,0,1-1.0654.10012c-.415-.4126.1055-.8984.7129-.6655C15.56,97.42723,15.71921,97.68263,15.6,97.87251Zm.6084-.81738c-.2138,0-.3877-.3403-.3877-.7539a1.2951,1.2951,0,0,1,.3877-.9961c.2207-.1372.3897.19.3897.75538C16.59809,96.60693,16.42129,97.05513,16.20839,97.05513Z"/>
        <path class="cls-1" d="M22.59709,8.84133a.46184.46184,0,0,0-.16888-.628.43459.43459,0,0,1-.19832-.5732,1.44539,1.44539,0,0,0-.0674-1.0283c-.2314-.6055-.3037-.5694-.52728.2724a6.60969,6.60969,0,0,0-.07812,2.2212c.1357.9302.3828,1.2466.9638,1.2466.6407,0,.69632-.1016.3106-.5664A.94848.94848,0,0,1,22.59709,8.84133Z"/>
        <path class="cls-1" d="M21.59121,122.60793c-.85252-.6319-1.36522-.7202-2.89252-.4883-1.9922.2978-3.4864,1.5273-5.0176,4.1323a3.68535,3.68535,0,0,1-2.0488,1.6973c-.6963.2036-1.209.5386-1.1426.7451a11.45653,11.45653,0,0,0,3.4072,1.2236c3.6104.9385,4.1445.8985,6.3272-.4785C22.89009,127.75783,23.61859,124.11523,21.59121,122.60793Zm.04988,1.393a26.13853,26.13853,0,0,1-5.8204.4771c0-.4512,2.4073-1.3711,3.5762-1.3667C20.63029,123.11523,22.019,123.666,21.64109,124.00093Z"/>
        <path class="cls-1" d="M4.69479,120.23433c-1.5879-.5424-1.8692-.5381-3.0821.0396-1.5937.7598-2.0478,1.8408-1.1757,2.8013a1.42911,1.42911,0,0,1,.3671,1.3735.8217.8217,0,0,0,.2813,1.0205,2.29455,2.29455,0,0,0,.8476.3525c.8653.0147,2.96-1.2319,4.1309-2.4594C7.64009,121.70413,7.39889,121.15573,4.69479,120.23433Zm-.7334,2.0943c-.2901.4663-.2471.4663-.9717,0-.4697-.3037-.4082-.3799.3144-.3843C3.80409,121.94043,4.09521,122.10933,3.96139,122.32863Z"/>
        <path class="cls-1" d="M125.20649,106.31393c2.748,2.6011,5.5801,9.6367,7.6582,19.0269.248,1.1221.6211,2.0395.8271,2.0395s.2862-.3056.1748-.6792c-.1093-.373-.3066-1.3794-.4375-2.2358-1.2031-7.8574-4.33488-15.5586-7.6943-18.9297-1.8584-1.8623-3.8799-3.1914-4.26658-2.8032-.11332.1138-.31052.0337-.44242-.1773-.1299-.2109.374-.5844,1.1231-.8305a4.05923,4.05923,0,0,0,2.0312-1.5874,3.34708,3.34708,0,0,1,.8838-1.1382,38.6598,38.6598,0,0,1,5.2188,1.7212c3.0371,1.13228,2.955,1.1137,2.955.6699a14.00545,14.00545,0,0,0-3.5136-1.8364c-2.9258-1.251-3.4971-1.63822-3.4024-2.295.082-.5581.3692-.75922.9883-.69622.53322.05712.873-.11578.873-.44928,0-1.1645,2.252-2.4746,5.07622-2.94972,1.92188-.32418,2.64848-.59228,2.36918-.87248-.418-.41752-4.9766.0571-6.376.66448-.94918.41122-.8506-.20458.3017-1.90478a5.11463,5.11463,0,0,0,.9258-1.9003c-.2099-1.71392.11332-2.5948,1.1934-3.232,1.00192-.5903,1.08492-.7656.623-1.2866a9.61877,9.61877,0,0,1-.8115-3.4722,12.695,12.695,0,0,0-1.5674-5.2964c-1.3496-2.5439-1.36518-2.9619-.2285-6.22072a51.142,51.142,0,0,0,2.8066-14.38378c.1221-3.6093-.0332-6.0263-.3886-6.0263-.1914,0-.26368,1.0058-.1582,2.2363a23.52555,23.52555,0,0,1-.4434,5.541c-1.2129,6.2774-1.2812,6.3745-1.3789,1.9429-.0508-2.2446-.0449-4.2568.0117-4.4722.0567-.21092.3164-1.7002.5762-3.3042a27.474,27.474,0,0,1,.7412-3.5449c.18072-.4175.0361-.7212-.4307-.90282-.666-.25928-.6679-.29838-.0253-.77438.583-.4278.6191-.6885.2392-1.8179a7.33516,7.33516,0,0,0-.93648-1.9014,8.052,8.052,0,0,1-.95612-2.3344c-.25488-.9615-.7236-2.5118-1.0381-3.4468l-.5752-1.6978,1.4893-1.4121c.8203-.7773,2.9736-2.8105,4.78912-4.5239a34.1036,34.1036,0,0,0,4.77628-5.5415c1.4659-2.4155,1.4698-2.4361.72372-3.2383-1.33692-1.43652-1.27842-2.623.21768-4.2773.9834-1.0889,1.2784-1.7056,1.0928-2.2911-.1777-.5634.10552-1.25.9639-2.3335.9717-1.229,1.1357-1.68162.8193-2.2734-.3125-.5884-.1992-.9204.5625-1.6357a3.01949,3.01949,0,0,0,.9561-1.3926c0-.7178-2.7217-.2212-3.7178.6807a2.75282,2.75282,0,0,1-1.4043.7246c-.332,0-1.0859.69578-1.6748,1.5454-1.31538,1.90038-3.65138,3.3081-7.54,4.539-3.3496,1.063-7.8243,3.1988-7.8243,3.7368,0,.1958-.6582.2452-1.4755.1075a2.62775,2.62775,0,0,0-2.4922.5488,3.661,3.661,0,0,1-1.626.79928,14.885,14.885,0,0,1-3.582-2.70848,20.22071,20.22071,0,0,0-4.7227-3.3764c-1.6953-.647-1.7715-.64512-2.30468.0825a1.54133,1.54133,0,0,1-1.31252.62938c-.418-.06638-.7597.07912-.7597.32132,0,.8149-1.2911.2006-1.9112-.9068-.7627-1.3633-2.7724-2.6352-3.0312-1.917-.2412.6709-2.5186.6138-3.4375-.084-.7061-.5332-.6534-.5742.7998-.6123l1.5556-.0424-1.331-.4795a3.07337,3.07337,0,0,1-1.6299-1.2339c-.2822-.71542-.3115-.709-.5605.1201a1.45742,1.45742,0,0,1-2.5791.1963,4.45716,4.45716,0,0,0-1.67578-1.1362c-.64162-.2481-2.28422-.9205-3.64942-1.4932-2.01658-.8482-2.6377-.959-3.3057-.6045a6.85858,6.85858,0,0,1-2.5703.4243c-8.0293-.0635-18.1709,1.17678-21.3838,2.6133-1.8467.8257-8.7393,1.0059-9.3701.2451a2.35841,2.35841,0,0,0-1.5821-.5361,28.63091,28.63091,0,0,1-6.8105-1.68652,24.65241,24.65241,0,0,0-3.4277-1.00928,60.50371,60.50371,0,0,1-10.98338-4.1924c-1.962-1.1421-2.99032-1.5059-2.67682-.6914A4.749,4.749,0,0,0,25.90859,1.79a7.22176,7.22176,0,0,1,1.5752.9429,4.26645,4.26645,0,0,1-1.5273.1611c-1.8906.0273-3.75.9492-4.0235,2-.2636,1.0093.0293,1.0029,1.1231-.0254,1.1523-1.082,1.6758-.6787,1.4375,1.1104-.2246,1.6738.3877,4.1196,2.4101,9.622.7852,2.1392,1.6856,4.5879,1.9971,5.4424,2.5449,6.96,8.3272,14.9697,10.8018,14.9697,1.0859,0,1.5469-.9223.9863-1.97262-.4785-.89208-1.7363-1.03958-1.4004-.16548.4111,1.0747-.7422.60248-2.1435-.8741-2.7901-2.9409-6.1123-8.7968-7.8584-13.853-.5821-1.6865-1.2813-3.5249-1.5567-4.0845a3.11536,3.11536,0,0,1-.3603-1.60592,4.85759,4.85759,0,0,0-.61038-2.12158,7.50261,7.50261,0,0,1-.63672-3.9707c.0752-1.709-.0518-2.5664-.4316-2.8814-1.8018-1.4951.8212-1.1879,4.4755.522,5.2774,2.47168,12.1104,8.8931,11.503,10.8101a.68417.68417,0,0,0,.3242.8701c.2969.1143,1.1328,1.9116,1.8594,3.9966a14.37181,14.37181,0,0,0,3.5576,6.2632,19.68358,19.68358,0,0,0,2.2353,2.2915c0-.2779,4.3174,1.2724,4.9082,1.7617.4043.3374.9746.0254,2.5323-1.37552,1.249-1.12448,2.1504-1.67038,2.3759-1.44478.4102.4116-.28708,2.0019-.8769,2.0019-.19918,0-.25.293-.1123.6514.1943.5044.0947.5908-.4346.3867a1.94853,1.94853,0,0,0-1.7119.544c-.6006.4746-1.0811.6372-1.1641.3901a.585.585,0,0,0-.4677-.4165c-.42,0-1.7295,2.8149-2.2989,4.9365-.6631,2.48-3.3593,4.0923-4.457,2.6699-.4873-.6318-2.5713-.3979-2.5713.2857a3.78163,3.78163,0,0,0,2.3135,2.2168,9.31608,9.31608,0,0,0,2.707-1.3731,7.69481,7.69481,0,0,1,2.24612-1.2109c.209.209-3.22262,4.2866-5.23632,6.2197-1.0918,1.0493-1.7783,1.4292-2.2901,1.26558-1.9482-.61908-8.4208,4.84722-7.1923,6.07522,1.1738,1.1714,6.7265-2.8193,12.46872-8.9663,4.582-4.9062,6.47268-7.2754,8.11818-10.1758a6.70826,6.70826,0,0,1,3.3369-3.2353c1.8018-.9346,2.2598-1.0317,2.9912-.6392,1.1221.6011,3.1846.2491,4.6475-.7929,1.3711-.9751,1.4218-1.2808.3906-2.24272-.7617-.71-.752-.73048.97262-1.81838a8.517,8.517,0,0,0,1.74418-1.2832c0-.5332-2.4199.5645-4.5899,2.0801-2.65128,1.85448-5.9736,3.6563-6.7402,3.6563-.2578,0-.0488-.4473.46292-.9956.58588-.6216.70308-.9029.31638-.7549-.791.30368-1.3418-1.9785-.6699-2.7852.7969-.9619-.0274-1.0664-1.5703-.1992-1.57518.8857-2.9795,1.0659-3.8721.4995-.71-.4492-.1182-.8188,2.665-1.6577,4.6348-1.3984,6.2207-2.2373,6.2207-3.2905,0-.2945.3516-.5367.7774-.5367,1.0215,0,.9814.4698-.1934,2.3326-1.0722,1.6987-1.17378,2.1621-.5586,2.542,1.30182.8066,3.4473-4.044,2.6055-5.8916-.3535-.7754-.3379-1.0503.07032-1.3038.30278-.1865-.35452-.28172-1.57622-.2275a12.975,12.975,0,0,0-4.623,1.25778c-4.0605,1.87112-7.6523,3.23542-8.5234,3.23542-1.5157,0-.8125-.6822,1.622-1.5699,1.336-.4868,3.2168-1.22752,4.1787-1.64552,3.6026-1.56928,6.04892-2.67768,6.7393-3.05318a3.27863,3.27863,0,0,1,1.9053-.1279c.997.2197,1.15332.1582.9531-.3657-.1992-.51522.0469-.6231,1.3994-.6138,1.7686.0127,1.7471.0698-.6933,1.7124-1.6221,1.0913-.2813.876,2.333-.377a10.45219,10.45219,0,0,1,5.7705-1.3256c2.7334-.0191,3.0703.0585,3.2539.7563.1123.4272.3584.7783.5459.7783.7285,0,.2949.6739-.7246,1.1309-2.43358,1.0937-7.5274,4.0088-7.3379,4.2007.1142.1123.958-.2246,1.8769-.7535,2.8008-1.60692,3.3965-1.7006,2.0821-.3286-.8545.8921-.9825,1.1924-.5079,1.1924a1.13106,1.13106,0,0,0,.878-.3955c.1484-.24322.6474-.085,1.2861.4053.5723.4394,1.4727,1.12348,2.002,1.5171.7617.5713.8652.8286.5019,1.2656-.3691.44478-.2314.63478.7188.9917,1.0117.3828,1.2627.3389,1.8183-.3096.7393-.8642,1.4776-.9746,1.78812-.2676.11818.2676.12008-.13472.00488-.894-.2051-1.332-.1426-1.4189,1.8047-2.477,1.4306-.7818,1.8652-1.19,1.498-1.418-.2851-.1768-.39258-.4458-.2363-.6011.3535-.354,2.22272,1.3652,2.22272,2.0469,0,.2788-.43662.793-.96982,1.1426-.6845.4477-.9111.8794-.7763,1.4648.2695,1.1836-1.5567,2.5029-2.5821,1.8638-.6181-.3858-.705-.3355-.624.3735.0713.6426-.5674,1.2315-2.9521,2.7202a18.473,18.473,0,0,1-3.5508,1.9029c-1.04888,0-1.3184-3.24032-.38188-4.5791.58888-.8418.57128-.8638-.68062-.8589-1.6162.0083-2.2207.3843-2.1319,1.333.042.4599-.4492,1.0991-1.2929,1.6763-1.2412.853-1.2705.9101-.3233.6757,1.1524-.2885,1.5821.2173,2.05472,2.4131.25978,1.211.20308,1.2783-2.082,2.4302-2.94732,1.4868-3.70022,1.4912-4.57032.0185a3.4478,3.4478,0,0,0-.8965-1.16012,15.39161,15.39161,0,0,0-4.2871,1.76372,35.54655,35.54655,0,0,0-4.3379,4.478c-1.57418,1.9497-3.57418,5.8076-3.0117,5.8076.1972,0,.664-.6587,1.0351-1.46a7.33874,7.33874,0,0,1,1.6348-2.2358c1.4902-1.20852,3.8867-2.1558,4.8428-1.91552a3.50079,3.50079,0,0,0,2.1982-.54448,17.25751,17.25751,0,0,1,2.7871-1.2211c.8028-.254,1.459-.5777,1.461-.7232a18.029,18.029,0,0,1,3.4003-1.979c1.8711-.9448,3.5957-1.8179,3.834-1.9438.2403-.125,2.0381-1.3189,3.9991-2.6563,3.5478-2.4194,4.0849-2.6435,5.2558-2.1938.7998.3076.794.9321-.0098.9321-.41888,0-.54388.209-.3798.6352a2.052,2.052,0,0,1-.3487,1.544c-.56338.8603-.5381.9365.5274,1.4873,1.5166.7842,3.15922,2.8018,3.15922,3.8789a4.0996,4.0996,0,0,1-1.459,2.2256c-1.98832,1.833-2.378,2.0307-3.002,1.5122-.42382-.3521-.63472-.2725-.97852.3711-.3672.688-.293.9385.459,1.5674,1.1933.9931,1.8037.95988,3.5088-.1983a6.41575,6.41575,0,0,1,1.8349-.9721c.2227,0,.8301.6767,1.3555,1.5058,1.1992,1.89848,2.7832,3.1577,3.9707,3.1577.5059,0,.9199.1773.9199.3902,0,.9765,1.2129.207,2.6953-1.7149a11.01925,11.01925,0,0,1,2.1856-2.3213.9242.9242,0,0,0,.5615-.7856c0-.3145.3486-.6792.77832-.8145.42778-.1347.77738-.4975.77738-.8046a2.57443,2.57443,0,0,1,.7793-1.334c.623-.62652.6582-.7788.1738-.7788a3.31977,3.31977,0,0,0-1.5898.9917c-.8096.81-1.0948.9008-1.5674.5083-.7637-.6329-1.40328.2954-.877,1.2758.2793.52148.0635,1.0064-.94428,2.1036-1.624,1.77388-2.56062,1.5986-3.836-.7217-.57032-1.0337-1.21672-1.6768-1.76752-1.7549-.4766-.0674-.8672-.2783-.8672-.4707,0-.333,3.30172-2.88282,7.7754-6.0049,1.1748-.8208,2.2246-1.5991,2.3301-1.7295.6015-.7295,2.8281-2.3428,3.0488-2.209a2.75354,2.75354,0,0,1,.2597,1.4619c0,1.1094-.1777,1.3584-1.19528,1.6895a5.69667,5.69667,0,0,0-1.80952.9727c-.337.3222-1.85448,1.4238-3.3731,2.4497a11.73692,11.73692,0,0,0-2.7598,2.2353c0,.6514,2.0049.3941,3.3331-.4263a4.51344,4.51344,0,0,1,2.3369-.6811c.8818.0986,1.1181-.0889,1.4931-1.1836.4688-1.3628,1.77932-2.4893,1.77932-1.5273a3.53969,3.53969,0,0,1-.65042,1.44278c-.6279.89462-.622.91852.19342.70462.72848-.1899.81048-.0952.60548.7149-.1856.7407-.0801.937.5.937a3.55475,3.55475,0,0,0,1.64252-.6397c.79688-.5566.834-.6831.29008-.98682-.45408-.25438-.5244-.52928-.2559-1.01368.2032-.3657.7412-1.57032,1.1963-2.6777.7549-1.8394.959-2.03562,2.3447-2.2705,1.3565-.229,2.1846-.9653,1.087-.9653-.24418,0-.3457-.34382-.2325-.7764.2627-1.0039-.13468-.9849-1.4716.0654-1.044.8228-1.0928.82718-1.6084.1221-.9766-1.3325-.6475-2.27592,1.041-2.98492l1.5644-.65478,1.5664,1.4336a13.3163,13.3163,0,0,1,3.628,4.6407c.2441.7783.1416.8754-.917.8754-1.2344,0-1.7198.7574-.5117.8018.5498.0186.5234.0884-.1407.3565a2.1379,2.1379,0,0,0-1.0703,1.5839,9.40383,9.40383,0,0,1-1.0586,2.5586c-.6201,1.0039-1.0039,1.26128-1.6523,1.1075-.708-.1666-.9766.11178-1.6934,1.7529-.8769,2.0102-1.8027,2.75288-2.5312,2.02488-.293-.292-.2002-.69.3173-1.35648.4043-.51852,1.4317-1.8349,2.2881-2.9233,3.0157-3.8457,4.4844-7.0728,3.2168-7.0728a1.68567,1.68567,0,0,0-1.47948,1.732c-.01562,1.0395-1.41112,3.2788-3.67872,5.9062-1.48628,1.7198-1.9785,2.0625-2.6592,1.8462-.74408-.23482-.7783-.19482-.3017.3799.47462.56928.2812.9038-1.6328,2.8491-1.1953,1.2134-2.0821,2.34718-1.9737,2.523a1.77977,1.77977,0,0,0,1.1954.3164,6.415,6.415,0,0,1,4.25872,2.6323c1.03518,1.5269,1.69338,3.1523,1.36138,3.356a17.656,17.656,0,0,1-3.751-2.6963c-1.9063-1.5796-3.5586-2.7671-3.6768-2.6407-.1152.12648.0079.3101.27642.4048,1.01858.3653.46.979-.68072.751-.6582-.1304-1.166-.0669-1.166.1455a.384.384,0,0,0,.38672.3799c.21488,0,.39068.2617.39068.5845a.64657.64657,0,0,0,.6797.5884c1.0752.0083,6.9648,3.7822,8.4199,5.3935,1.2324,1.3648.2168.9238-2.1426-.9302-2.4922-1.9565-3.2969-2.2695-1.875-.7275l.9434,1.0229-1.2657-.6455a29.61518,29.61518,0,0,1-3.9668-2.96582,16.46347,16.46347,0,0,0-3.1045-2.32028c-.6904,0-.4599.75728.5606,1.8584,1.0742,1.1577,1.1699,1.4727.5654,1.8457-.2812.1729-.2636.4263.04692.8013.625.7514.21578.688-1.62892-.2505a4.30531,4.30531,0,0,0-2.0254-.6309c-.25.0928.418.5547,1.48732,1.023a6.736,6.736,0,0,1,2.23338,1.3711.9066.9066,0,0,0,.9922.333c.4307-.1094,1.6406.5107,3.1123,1.5927a19.36067,19.36067,0,0,1,2.41112,1.93848c0,.25982-4.77932-1.67478-5.21292-2.10938-.4892-.4868-2.1757-.5063-2.1757-.0229,0,.2007-.3496.4727-.77738.6074-1.15622.3667-.94532.94288.584,1.5821,1.43158.5991,1.55858.81,1.01268,1.6709-.4746.7504-3.1768-.1583-3.4385-1.1543-.1445-.5484-.4209-.6705-1.11718-.4976-1.38082.3477-1.14452-.481.42778-1.5,1.5019-.97022,1.7246-1.4614.6679-1.4614-.5,0-.6904-.2935-.67768-1.0489.01168-.83692-.22172-1.1167-1.15822-1.3901-1.0244-.2974-1.3672-.8076-2.6924-3.9927-2.831-6.8003-4.3369-7.37012-10.7158-4.0542-5.8457,3.0352-6.30758,3.2134-8.3027,3.1768-1.8741-.0342-1.88088-.0274-1.17288.7549.61428.6792,1.00488.7553,2.76078.5337a5.17726,5.17726,0,0,1,2.0498-.0484,5.03718,5.03718,0,0,1-1.0665,1.1939c-.9218.8554-.999,1.0908-.582,1.76018a4.19791,4.19791,0,0,1,.4834,1.87212c0,2.3857,4.6113,5.0288,6.1289,3.5122.3457-.3472.51662-.2915.7149.2275a2.09613,2.09613,0,0,0,1.08.9961c.8106.314.8106.3223.045.5967-.4278.1543-1.9004.71338-3.2735,1.2446a7.3179,7.3179,0,0,1-4.0166.7212c-1.3144-.2085-1.5009-.14742-1.3877.4473.1934,1.0249,2.1787,1.0635,4.836.0947,2.7451-.9995,4.9218-1.5625,5.1572-1.3286.0947.0947-.1201.4917-.4746.8818-.7412.82038-.8262,1.4683-.2412,1.8306.6006.3706,1.3594-.4067,2.6719-2.7314,1.2929-2.295,1.74022-2.7022,2.5869-2.377.4267.1641.4746.397.1845.91018a43.64984,43.64984,0,0,0-2.2519,5.73192c2.1328,1.1074,2.96872,1.1729,4.84472.3926,2.01268-.8418,1.21188-1.5737-1.05472-.9663-1.1767.3183-1.7724.3266-2.07128.0293-.29682-.2959-.24222-.4151.18458-.4151a2.2979,2.2979,0,0,0,1.3037-.7783,2.73779,2.73779,0,0,1,1.9815-.7788,2.37,2.37,0,0,0,1.49122-.3437c.30168-.4913,3.35538.6328,4.41788,1.622.8809.8228.8809.8355.0957,1.1255-.4355.1611-.792.48-.792.7075,0,.65238.9366.8438,2.0479.4219.7813-.2954,1.5859-.1914,3.4697.4473,2.1026.7148,2.3145.86718,1.4815,1.0698-.7735.1875-.1289.5063,3.1084,1.5435,2.2451.7197,3.8642,1.3798,3.5967,1.4726-.30178.1011-.3965.5171-.2491,1.103.3741,1.48728-.708,1.1685-2.7422-.8095q-2.5503-2.47785-2.5488-1.4473a7.55073,7.55073,0,0,0,2.0938,2.8433c.72952.5971.7119.6289-.5147.8735-1.5469.3101-2.17478.0039-1.55078-.7471.68558-.82662-.85152-.72562-2.01662.1289a24.15379,24.15379,0,0,1-2.2881,1.41748c-1.6328.87942-3.5,2.55472-3.5,3.13042,0,.23.3506.6348.7774.9048a1.565,1.565,0,0,1,.77832.9956c0,.8335,1.61818,2.082,3.51658,2.7148,3.5449,1.1875,4.6758,1.8965,4.4072,2.7696-.38378,1.2553-.54,1.2656-1.5634.0761-1.4375-1.6728-1.6241-.8691-.2032.8985a6.92481,6.92481,0,0,1,1.2286,1.9174c0,.211.32122.4873.7089.6099a4.42708,4.42708,0,0,1,1.5762,1.398,3.11866,3.11866,0,0,1,.6055,2.9492c-.2383,1.584-.36138,1.7529-1.1582,1.601-.6328-.1206-.94918.042-1.0821.5484-.1308.5019-.5488.71728-1.3984.71728a6.21958,6.21958,0,0,0-2.6602.89742,32.22432,32.22432,0,0,1-5.1289,2.4732,2.14981,2.14981,0,0,1-1.9433-.1011,17.00741,17.00741,0,0,0-2.6397-.9243c-.9101-.2378-1.6513-.5567-1.6504-.708.001-.1524.5245-.57422,1.1651-.937,2.29-1.3037.9648-2.0039-1.6904-.8946a5.05153,5.05153,0,0,1-5.0342-.2695c-1.17968-.6186-1.4444-.8965-.9512-1.0019.3779-.0806.5947-.2935.4863-.4708s.3418-.5083,1.0039-.7402c1.3868-.4834,1.3282-1.4619-.0791-1.2954a3.58775,3.58775,0,0,1-1.8115-.36282c-.6797-.36028-.9892-.36278-1.3418-.01268a1.98421,1.98421,0,0,1-2.6426-.1284c-.4004-.4854-.3672-.728.1817-1.3355a1.61843,1.61843,0,0,0,.43362-1.4936c-.20022-.63282-.002-.7949,1.22748-.9976a21.88885,21.88885,0,0,1,2.8779-.2465c1.9512-.0064,3.8399-.42,3.8399-.8428,0-.1948-1.6192-.3037-3.5977-.2417-2.1679.0649-3.6328-.0445-3.6875-.2803-.0586-.2446,1.3086-.3457,3.6914-.272,2.93852.0904,3.9619-.0171,4.56452-.479.668-.5117.69628-.6494.19918-.9746a.71362.71362,0,0,0-.9541-.00632,7.18574,7.18574,0,0,1-2.833.36912c-3.458,0-3.5313-.4936-.6309-4.2334a8.32455,8.32455,0,0,1,2.3262.542c1.7002.5337,2.3711.5928,2.9102.2554a1.70349,1.70349,0,0,1,1.3007-.2085c.3868.14938.59772.0102.59772-.395,0-.3418-.07232-.6245-.16022-.6245a4.02438,4.02438,0,0,1-.7793-.2359c-.3916-.1499-.6152-.0254-.6152.3482,0,.4853-.27928.5205-1.65228.2148-2.49032-.561-2.53322-.9785-.127-1.2783,2.02928-.25292,3.08008-.9922,1.41408-.9922a1.3084,1.3084,0,0,1-.99608-.3872,1.9383,1.9383,0,0,0-1.36042-.3901,1.94888,1.94888,0,0,1-1.3603-.3882c-.36328-.5865-.9707-.4683-.9707.1855,0,.5928-1.2383,1.0425-2.4082.8775-.9639-.1348-.9463.6162.0273,1.1142,1.3985.7149,1.3692.81058-.9043,3.0669-1.73438,1.7212-2.3808,2.1304-3.0556,1.9468-.8077-.2217-.8155-.2027-.1436.33488.6465.52152.6563.65632.124,1.48052a4.11588,4.11588,0,0,0-.4931,2.1704c.0595.8213-.083,1.2642-.4082,1.2642-.5254,0-1.1172,1.6728-.7832,2.2148.1054.1709-1.97468.8228-4.6241,1.4473-4.51358,1.063-4.8623,1.09278-5.5322.4849a3.0412,3.0412,0,0,0-1.6601-.6773c-.8106-.0264-.751-.103.4199-.5522,1.2422-.481,1.2734-.5293.3603-.5557a11.40313,11.40313,0,0,0-3.4873,1.1758,18.84294,18.84294,0,0,1-3.666,1.3945l-1.1787.1939v-5.4698l1.6318-.4135a14.00227,14.00227,0,0,1,2.6465-.4092c.6367,0,.9199-.1602.7568-.4263-.1748-.28032-1.1435-.333-2.88758-.1582l-2.62312.2637-.8906-1.4922a20.05906,20.05906,0,0,0-2.6211-3.1968c-1.3496-1.3286-1.8067-1.5869-2.0723-1.1684a2.33117,2.33117,0,0,0-.3486.9848c-.0127.9053-1.0801.8423-1.5039-.0859-.585-1.2852-1.1807-1.1797-2.7783.4805l-1.3604,1.4165,1.1162-.272c.8672-.2119,1.45512-.0376,2.625.771a4.96551,4.96551,0,0,1,1.5069,1.3496,5.03912,5.03912,0,0,0,.9677,1.46l.9688,1.1474-.8711.5884c-1.5059,1.0127-.3711,1.2324,1.5986.3081,2.8213-1.3203,3.3838-1.0566,3.2705,1.5444-.125,2.8789-.6328,3.9292-2.3467,4.8472-.7978.4263-1.4501,1.0332-1.4501,1.34958,0,.67142.8994.958,4.8398,1.54442a16.88981,16.88981,0,0,1,3.0996.6353c.8789.8769-3.9922,1.2441-6.7715.5078-.85738-.2256-2.0801-.4912-2.7236-.5923-5.4815-.8506-9.21-3.3164-8.5664-5.6636.2187-.7978.1963-.8168-.1983-.18162a3.25,3.25,0,0,0-.1972,2.04052c.248,1.3218.2422,1.3291-1.2266,1.33448a11.43077,11.43077,0,0,0-2.3555.24122c-.7089.19-.832.1089-.6289-.4165a.63491.63491,0,0,1,.8789-.4131c1.0733.40238-.3095-.7788-2.0039-1.7138l-1.4668-.8116-3.0039.8037a20.13392,20.13392,0,0,0-4.1601,1.5318c-.999.6304-1.0625.7656-.4707.9932a6.16565,6.16565,0,0,0,2.7129-.3672c2.459-.7652,5.46972-1.19972,6.2509-.8985,1.3291.5083-.9336,3.5611-4.1435,5.5879-2.5801,1.6275-5.93068,1.2085-5.4375-.6816a2.2228,2.2228,0,0,1,.9746-1.18952c.5098-.27188.6396-.54.3848-.79688-.2539-.2553-.7959-.1733-1.5977.2403-.9648.4995-1.21088.873-1.21088,1.84958,0,1.28912.92768,2.64312,1.81048,2.64312.2871,0,.52152.1225.52152.27,0,.5761-1.72852,2.06488-2.40042,2.06488-.7637,0-.9551-.58008-.3203-.97208.5566-.3438.4785-.9722-.1182-.9722-.7197,0-2.9922,1.9551-2.9922,2.57028,0,.28322.3916.72222.8672.977l.8672.46442-.8838.3921c-1.2861.5762-.9238,1.64548.5196,1.5381,4.4062-.3291,5.581-.9917,4.289-2.417-.3613-.3994-.4922-.8272-.291-.9492a2.62475,2.62475,0,0,0,.58792-1.3487c.18848-.9423.502-1.1948,1.94428-1.5561a15.0893,15.0893,0,0,0,3.7969-1.833c2.7637-1.8584,4.6553-2.6348,5.167-2.1221a1.65423,1.65423,0,0,0,1.0127.396,3.00166,3.00166,0,0,1,1.95212,1.9009,1.56593,1.56593,0,0,1-.57812.8188c-1.4375,1.1914-5.25288,7.5279-5.25288,8.71978a1.55311,1.55311,0,0,0,.86618,1.05022,7.01353,7.01353,0,0,1,1.3877.9854c.9697.9702,2.3242.5591,4.707-1.4214,1.4873-1.2407,2.7032-1.9453,3.3487-1.9453a4.522,4.522,0,0,0,1.81442-.4277c.79488-.4244,5.43358.0293,8.28708.8076,1.0948.2998,1.1055.32218.1875.3608-.9912.0376-4.09958,1.8931-3.7539,2.2359a4.69623,4.69623,0,0,0,1.9512-.6163c3.4824-1.5859,3.3867-.7065-.127,1.167-2.5166,1.3409-4.0527,2.6944-3.0576,2.6944a2.67082,2.67082,0,0,0,1.34672-.6822,58.50486,58.50486,0,0,1,7.23438-3.9365c1.0117-.3647-.3379.8482-2.7266,2.4556a45.96871,45.96871,0,0,0-4.165,3.1641c-1.7334,1.5683-1.1514,1.4047,1.0283-.2872a7.03715,7.03715,0,0,1,1.749-1.1137,7.96112,7.96112,0,0,0,1.8604-1.166,7.6902,7.6902,0,0,1,1.8476-1.1563c.8985,0-.1289,1.1284-4.834,5.30958-6.6543,5.91652-12.9658,12.35352-14.8925,15.19142a29.18651,29.18651,0,0,1-1.76758,2.4385,11.92854,11.92854,0,0,0-1.90432,4.2607c0,1.1626.7197.9683,1.02932-.2739A14.21988,14.21988,0,0,1,41.351,137.999a8.07208,8.07208,0,0,0,.90822-2.0943,3.15271,3.15271,0,0,1,1.06838-1.3818c.5888-.5063.9648-.9219.8359-.9219-.3594,0,9.6943-10.0429,12.4981-12.4853,3.8545-3.3516,4.93362-4.2315,5.1894-4.2315.1309,0,.2363.6036.2363,1.3374a2.55755,2.55755,0,0,0,.3243,1.5381c.17962.1094.3242-.5361.3242-1.437a6.58484,6.58484,0,0,1,.4765-2.5288c.46492-.8691,4.8653-4.354,5.5-4.354.1758,0,.1582.561-.038,1.24458-.3799,1.32282-.0206,1.85012,1.2627,1.86042a1.1825,1.1825,0,0,1,.9101.41358c.1729.27832.4238.26612.7949-.04448.7139-.5903.3457-1.1411-.7656-1.1411-1.2305,0-1.418-.3061-.9121-1.4975a4.48225,4.48225,0,0,1,3.2012-2.9468c1.4814-.2783,4.5488.122,4.2783.5591a2.69,2.69,0,0,0,.4189,1.4931c.6983,1.4029,2.35352,1.9995,5.5586,2.002,1.752,0,2.0157-.0869,1.6348-.5454a6.14359,6.14359,0,0,0-2.79488-.8174,5.91215,5.91215,0,0,1-3.38382-1.1919c-.5733-.5039-.86718-.9238-.6494-.9297.9453-.0303,7.6826,1.8623,7.9101,2.22308a7.89744,7.89744,0,0,0,2.0752,1.25052c2.1416,1.0044,3.8115,2.4492,3.8115,3.2989,0,.3549.3399.6015.8233.6015.45412,0,6.2764.0313,6.95312.6099.80958.6938,7.55658.1055,9.52828-.8316,1.72272-.8159,8.2588-7.5239,9.4219-9.6679.2559-.4737,1.3281-1.0064,2.8789-1.4312l2.4707-.6816Zm4.1445-41.1411c.333-.5176.376-.5176.376,0a2.57036,2.57036,0,0,1-.376,1.167c-.3359.5186-.3789.5186-.3789,0A2.57484,2.57484,0,0,1,129.351,65.17283Zm-88.0215-14.624c-2.3164,1.5576-2.9121,1.3613-1.11328-.3672a9.64533,9.64533,0,0,1,3.795-2.1138C44.42721,48.06783,42.84709,49.52973,41.32949,50.54883Zm12.4102-12.1109c-.7549.53858-.8604.2959-.5801-1.35542.4551-2.67728,1.168-4.25688,1.8135-4.00978a4.42767,4.42767,0,0,0,1.3144.2193.67425.67425,0,0,1,.7452.6401C57.03269,34.52783,54.644,37.79293,53.73969,38.43793Zm8.3721-17.8125c.5146-.6181,1.1416-.7338,1.1416-.2084,0,.1879-.3594.43648-.7998.5502C61.79829,21.14163,61.73579,21.07813,62.11179,20.62543Zm12.3203-11.8398c.62012-.0127.6162-.06012-.0606-.5723-.6709-.5083-.6787-.5844-.0918-.8105.876-.3355,1.8037.5063,1.8037,1.6362,0,.70848-.2099.9253-.90618.9253C73.77479,9.96433,73.04629,8.811,74.43209,8.78563Zm-12.7334-.3735c1.1767-.253,2.4433-.544,2.8183-.6455.375-.104.6817,0,.6817.228a.42274.42274,0,0,1-.4248.4145,3.71563,3.71563,0,0,0-1.4151.7769c-1.2363.9731-1.3017.979,3.3477-.2202,3.6406-.938,3.9463-.96,5.0703-.3794,1.0889.563,1.623,1.3779.9053,1.3779-.1612,0-2.3897.3687-4.9571.8208-6.6953,1.1773-8.2841,1.3213-7.6787.69338.8926-.92388.502-1.05028-.957-.30718-1.9365.9874-4.002.9683-4.002-.038C55.08729,10.69333,59.46039,8.89351,61.69869,8.41213Zm-5.2481,5.8286c-.6943-.2974-.667-.3369.26862-.3609a1.74524,1.74524,0,0,1,1.28608.3609C58.29139,14.70551,57.52869,14.70551,56.45059,14.24073Zm-6.2441,0c.333,0,.6055.1753.6055.3887a.37927.37927,0,0,1-.3653.3896.83481.83481,0,0,1-.6064-.3896C49.70839,14.416,49.87249,14.24073,50.20649,14.24073Zm-3.4766-3.47122a4.33436,4.33436,0,0,1,1.36132.55372c.53418.3071.79688.5566.58208.5566a4.27664,4.27664,0,0,1-1.3613-.5566C46.77779,11.01951,46.51509,10.76951,46.72989,10.76951Zm-3.09368-2.335c.417.67682-.05862.81942-.59182.17732C42.73769,8.24313,43.49359,8.20651,43.63621,8.43451Zm-4.49612,1.71492a39.77025,39.77025,0,0,0-3.5625-2.9868,17.64327,17.64327,0,0,1-2.52638-2.1172c.31738-.3164,6.041,1.9775,6.874,2.7563a11.98681,11.98681,0,0,0,2.31058,1.582c1.2637.6392,1.2949.7056.60542,1.2115A2.76961,2.76961,0,0,1,39.14009,10.14943Zm3.0136,3.5088c-.6796-.9331-.6718-.9522.4668-1.5425a3.46985,3.46985,0,0,1,3.8282.0083c1.209.8476,1.0918,1.164-.6992,1.8794C43.65079,14.84473,42.96821,14.77883,42.15369,13.65823Zm1.6622,2.9902c0-.5933,3.6406-2.0317,4.0664-1.606.5273.5274-.4307,1.1285-1.8106,1.1363a1.82386,1.82386,0,0,0-1.2861.3935C44.49849,17.041,43.81589,17.09133,43.81589,16.64843Zm14.0136,10.228-.6152.874c-.5195.7383-.9707.8775-2.8965.8775a4.96408,4.96408,0,0,1-2.8164-.5337,3.9461,3.9461,0,0,0-1.3516-.793c-1.39058-.4409-3.8535-3.4829-4.7421-5.853a7.71938,7.71938,0,0,1-.668-2.42972,16.74862,16.74862,0,0,1,3.1621-.32618c2.5937-.13282,2.9228-.0761,2.5117.4209a1.565,1.565,0,0,1-.914.5757,2.32387,2.32387,0,0,0-.9747.3482c-.4355.2749-.3418.5981.48542,1.6831a4.98437,4.98437,0,0,1,1.02338,1.9746c0,.3476.5401.9145,1.1992,1.2529.7833.40478,1.1202.8213.9756,1.19778-.1211.31832-.0908.50292.0655.41312a13.23233,13.23233,0,0,1,2.9209.0761Zm-5.1191-4.082a30.28712,30.28712,0,0,0,6.8301-2.3638,1.57811,1.57811,0,0,1,.9619-.3589c.38382,0,.2539.231-.3711.6582a6.51954,6.51954,0,0,0-1.1836.981,9.26705,9.26705,0,0,1-2.3272,1.0918c-2.2246.813-5.2519,1.0503-4.8378.3794A1.20547,1.20547,0,0,1,52.71039,22.79443ZM50.42329,10.352c-.4258-.2754-.1328-.37652,1.0937-.3828,1.0176-.0034,1.5801.147,1.4336.3828C52.645,10.84573,51.187,10.84573,50.42329,10.352Zm6.959,7.3101c-3.6787,1.3686-4.625,1.5146-4.625.7075,0-.5889,7.58-2.8984,8.0322-2.4458C61.13809,16.27193,61.19869,16.24313,57.38229,17.66213Zm17.6328-4.6553c-1.6221.4966-7.9317.4473-9.9063-.0762l-1.2715-.3354,1.5772-.4746c2.4795-.74712,6.4258-1.0586,7.0332-.5537.3252.269.5273.2861.5273.0439,0-.5264,2.1377-.8159,2.8936-.3916C76.89589,11.79493,76.53849,12.54151,75.01509,13.00683Zm2.625-1.8765c0-.2153.4463-.3896.99312-.3896.56448,0,.89158.168.75488.3896a1.2849,1.2849,0,0,1-.9941.38918C77.978,11.51951,77.64009,11.34573,77.64009,11.13033Zm.2099,1.97118c-.2705-.43648,1.1807-.95258,1.7295-.61228a.84026.84026,0,0,1,.3926.6089C79.97209,13.57123,78.143,13.57613,77.85,13.10151Zm1.1504-3.52628c-1.4736,0-1.9394-.9258-.6396-1.2642.8047-.2119,2,.3242,2,.89548C80.36079,9.40873,79.74849,9.57523,79.00039,9.57523Zm5.2979-1.5508c.9922.0112,2.2832.4736,2.2832.8178,0,.57328-1.8145.38628-2.334-.2402C83.85879,8.13423,83.86859,8.02,84.29829,8.02443Zm-1.9785.0654c.4365.0693.7949.3003.7998.5122.0058.4746-.94238.7168-1.3213.3389C81.267,8.40913,81.53849,7.96773,82.31979,8.08983Zm-1.0284,3.98c.3506-.9141,1.1895-.44732,1.3301.7436.0889.7437-.0527,1.03808-.498,1.03808C81.38809,13.85151,80.95839,12.93551,81.29139,12.06983Zm.8487,3.7275c-.3614,0-.6133-.3325-.6133-.812,0-.9473.9082-.8144,1.0986.1631A.487.487,0,0,1,82.14009,15.79733Zm1.04,6.5493q-5.5737-.4767-2.6553-1.9677c1.0039-.5142,1.3916-.9698,1.3916-1.6343a1.25616,1.25616,0,0,1,.5557-1.1343c.6426-.2471,1.6152.72118,1.0645,1.0601a2.15546,2.15546,0,0,0-.2061,2.6133,1.4225,1.4225,0,0,1,.5303.7802C83.86079,22.25193,83.55409,22.37843,83.18009,22.34663Zm.7617-9.4477c-.09658-1.5235-.0107-1.7686.6328-1.7686.8985,0,1.4239.6075,1.76662,2.0406.17578.7378.10158,1.0712-.24022,1.0761a6.557,6.557,0,0,0-1.2685.21148C84.14789,14.64251,84.04139,14.45551,83.94179,12.89893Zm.5772,3.03758a.48066.48066,0,0,1-.05278-.56638c.24218-.39262,1.33788-.0098,1.33788.4682C85.80409,16.23733,84.88809,16.30663,84.519,15.93651Zm2.1289,4.91362a.79407.79407,0,0,1-.666-1.1392.44836.44836,0,0,0-.1719-.60742,1.42587,1.42587,0,0,1,.0195-1.96338c.5762-.356.6436-.22562.9551,1.8623C86.96229,20.21293,86.91739,20.85013,86.64789,20.85013Zm1.0508-9.524c.1474-1.4995.5468-1.89162,1.5859-1.5625.68562.2178.8164.5186.7207,1.6485-.0879,1.0122-.3496,1.4682-.9805,1.7007C87.96229,13.50143,87.53849,12.93063,87.69869,11.32613Zm2.0918,6.0186a1.282,1.282,0,0,1-1.211-1.3989,2.05923,2.05923,0,0,0-.1855-1.2212c-.1865-.2989-.0781-.5786.28322-.7149.96868-.372,1.40428.188,1.40428,1.8096C90.08149,16.66113,89.94869,17.34763,89.79049,17.34473ZM65.976,36.791a.37961.37961,0,0,1-.3906-.3657.83349.83349,0,0,1,.3906-.6065c.2129-.1328.3877.03168.3877.3672C66.36369,36.519,66.18889,36.791,65.976,36.791Zm22.961-9.7198c-.96978,0-1.4473-.7631-.754-1.2026.8965-.5683,1.5088-.3955,1.5088.4238A.68331.68331,0,0,1,88.937,27.07123Zm.6767,13.2134a4.93028,4.93028,0,0,1-2.0586.753c-.5605-.0235-.6181-.0948-.2021-.2574a4.19446,4.19446,0,0,0,1.292-1.13472c.747-.95358,1.61422-1.17728,2.0156-.52978C90.78949,39.32913,90.31979,39.852,89.61369,40.28463Zm10.8154-24.1079c.2637-.2627.6934-.0708,1.3116.5855.6269.6674.7431.9746.3642.96528C101.16549,17.70651,99.98969,16.61813,100.42909,16.17673Zm-3.5507-2.26222c.6113.07332,1.1836.35112,1.2714.61722.2325.7056-1.26658.6011-1.874-.1299C95.82559,13.86083,95.89789,13.80073,96.87839,13.91451Zm-.0391,6.085c-.1484-.24118-.0303-.34228.2832-.23728.3164.1069.54.71628.54,1.477,0,1.4302-.413,1.74028-1.4912,1.1172-.6836-.397-.6787-.4497.1055-1.1772C96.72989,20.75873,96.97989,20.227,96.83929,19.99951Zm-1.2168-7.69528c.7061.0029.76172.0756.29.38128-.7529.48732-1.166.48732-1.166,0C94.74649,12.47163,95.14009,12.29933,95.62249,12.30423Zm-1.8076,5.9292a.79428.79428,0,0,1,.07032.726c-.12992.39408-.22272.39408-.46782-.0014C93.09321,18.43313,93.41939,17.83793,93.81489,18.23343Zm-2.044-7.8814a2.29655,2.29655,0,0,1,1.2266.7783c.6895.76218.67772.7784-.5234.7784-.9688,0-1.2276-.1646-1.2276-.7784C91.24649,10.70313,91.48279,10.352,91.77089,10.352Zm.24032,2.6133c.87688-.2295,1.86328.65818,1.19328,1.0727a.4741.4741,0,0,0-.1777.6407,4.162,4.162,0,0,1,.3418,1.334c.1201,1.0957-.0459,1.1352-1.2461.29878C90.96229,15.50293,90.88621,13.25973,92.01121,12.96533Zm-.375,7.8374c0-1.0947.06638-1.1641.67968-.6929.374.2862.7285.5445.7871.57568.0586.02882-.0039.34232-.13678.69342C92.53269,22.50483,91.63621,22.11573,91.63621,20.80273Zm1.36128,2.6704c0-.9697.17972-1.2847.7754-1.3618a2.341,2.341,0,0,1,1.36332.2861c.48828.3228.39348.541-.584,1.3496C93.05021,24.98583,92.99749,24.976,92.99749,23.47313Zm2.6641,10.0273c-.8096.6143-1.07038.6729-1.4102.3316-.3359-.33552.5879-1.7066,1.1484-1.7066C96.23969,32.12543,96.39589,32.94383,95.66159,33.50043Zm-.1387-2.978c0-.6855.0996-.7427.5801-.3442.3183.2661.4843.6352.36622.8252C96.07759,31.63623,95.52289,31.35643,95.52289,30.52243Zm5.0566,2.2715c-1.81928,1.3291-3.498,2.5801-3.7324,2.7769-.8476.7163-2.7851,1.5708-3.0225,1.3344-.6591-.6572.0713-1.4194,3.7413-3.917,3.6171-2.4619,8.0664-4.94672,8.0664-4.5034C105.63229,28.86423,103.73579,30.48433,100.57949,32.79393Zm4.0059-4.771c-1.6699.8784-3.7744,2.0733-4.6797,2.6553a8.08562,8.08562,0,0,1-2.041,1.0581c-.4102,0-.4258-.1001-.5283-3.207-.0655-1.962-.2569-2.19882-1.03418-1.2642-.74612.8965-1.44342.6943-1.67872-.4849-.166-.8261.04-1.3276.9033-2.206.9453-.9585,1.2109-1.0586,1.7246-.6328a2.08394,2.08394,0,0,1,.6064,1.4272c0,.6646.2168.9238.7735.9238.5527,0,.7432-.2197.6582-.7656a2.32867,2.32867,0,0,0-.3858-1.0381,1.42693,1.42693,0,0,1-.26948-.86522c0-.46388.10348-.49168.46878-.12788.6084.6074,1.4765.5976,1.4726-.0225a4.7117,4.7117,0,0,0-.5371-1.5093,1.92566,1.92566,0,0,1-.2285-1.5185,1.29664,1.29664,0,0,0,.1074-1.0171c-.1103-.2866-.0449-.5205.1446-.5205.6074,0,2.0917,1.2085,1.8886,1.5376-.10938.1738.0625.53118.3789.7939.4121.34228.5176.9414.3701,2.0855-.5908,4.5883-.5947,4.5249.0127,4.5249.3321,0,.58792-.3457.58792-.791a1.13124,1.13124,0,0,1,.58208-1.0127.91693.91693,0,0,0,.58392-.75642c0-.435.20118-.44918,1.07038-.07908C107.81979,26.18651,107.76309,26.34763,104.58539,28.02293Zm-.5078-5.4326c0-.9614.0234-.9692,1.14262-.3921a4.7072,4.7072,0,0,1,1.38278.981c.1465.23728-.3106.392-1.1407.392C104.23969,23.57123,104.07759,23.45751,104.07759,22.59033Zm2.7344-4.0781c-.9903.52828-1.0586.5141-1.9551-.3833-.8282-.8257-.9102-1.2276-.5332-2.6245.3281-1.231.60352-1.1123,1.999.8686C107.48969,18.02783,107.51409,18.13573,106.812,18.51223Zm.3027-4.4204c.414-.2564,4.3496,1.9965,4.3496,2.4902,0,.209-.6914.3799-1.53908.3799a2.88012,2.88012,0,0,1-2.332-.8516C106.76509,15.22463,106.57759,14.42383,107.11469,14.09183Zm2.8174,11.0361a.83579.83579,0,0,1-.6065-.3892c-.1328-.2148.0313-.3886.3672-.3886.334,0,.6055.1738.6055.3886A.3793.3793,0,0,1,109.93209,25.12793Zm2.0966-1.9141c-.2636.42868-2.3886.481-2.6347.0664-.3945-.6743-.6856-2.8193-.3819-2.8193C109.62839,20.46093,112.25139,22.85493,112.02869,23.21383Zm2.2481-2.7529a1.39827,1.39827,0,0,0-1.0625.3892c-.3887.62838-.74408.4668-2.1377-.9712l-1.3203-1.36042h1.7578a3.01945,3.01945,0,0,1,2.6719.97122C115.08929,20.45023,115.08929,20.46093,114.27679,20.46093Zm-7.3682,22.62058c.6055-.5,1.6573.04832,1.2784.66462-.3165.5102-1.7754.5839-1.7754.0903A1.32953,1.32953,0,0,1,106.90859,43.08151Zm1.93462,4.729c-.43852.27-2.82132-1.15138-2.82132-1.68308,0-.73192,1.4131-.40092,2.294.53808C108.79629,47.17573,109.03459,47.69043,108.84321,47.81051Zm.377-2.00778c-.25982.25678-.48342.23578-.67192-.0698a.7259.7259,0,0,1,.1074-.8457q.3882-.3897.6699.06928A.72185.72185,0,0,1,109.22021,45.80273Zm-5.19732,3.7969c-.8692-.7574-.8731-.7784-.0645-.3863a3.18985,3.18985,0,0,1,1.09182.7998C105.433,50.63083,105.01509,50.46243,104.02289,49.59963Zm-18.5332-3.4722a1.13985,1.13985,0,0,1,.89652.3843c.30468.4912-.209.4912-.97072,0C84.91249,46.18651,84.92329,46.13373,85.48969,46.12743Zm-3.0703,3.6387c.1582-.1582.4902-.0821.7402.1665.5879.58688.2598.9155-.4648.4663C82.38621,50.208,82.26309,49.92333,82.41939,49.76613Zm-3.0508-1.292c.5488-.51762,1.207-.7974,1.5557-.66362.8916.34182.7392.78472-.5264,1.53132C78.352,50.55073,77.72209,50.019,79.36859,48.47413Zm-.709,6.979a1.02162,1.02162,0,0,1-.8867-.5991c-.3613-.9439.0625-1.0337.8359-.1792C79.25339,55.38523,79.25921,55.45313,78.65959,55.45313Zm2.97462.3882c-.48832,0-1.458-1.1099-1.19722-1.3711.1025-.1035.5058.1626.8935.5927C81.71821,55.49073,81.85489,55.84133,81.63421,55.84133Zm4.61718-3.4375a4.03074,4.03074,0,0,1-2.333,1.1064c-1.2744,0-1.6133-.2573-1.6133-1.2129a1.4317,1.4317,0,0,0-.6816-1.0893c-.6035-.3511-.6074-.398-.041-.4082a.96336.96336,0,0,1,.8613.57168c.2549.65972,1.8037.80472,1.8037.16652,0-.6899,1.0596-1.5273,1.92972-1.5273C87.58049,50.01073,87.61659,51.18363,86.25139,52.40383Zm.6875-8.2256c1.1582,0,1.9746.4175,1.9746,1.0127,0,.6201-.1738.6308-1.65228.0903C86.03069,44.83,85.84029,44.17823,86.93889,44.17823Zm2.44632,4.0312c-.457.2827-1.47362-.8247-1.10062-1.1982.1445-.1436.5352.0146.8721.3525C89.519,47.726,89.61179,48.07033,89.38521,48.20943Zm-34.25392,37.96c-.457,0-.8858-1.1367-.6006-1.5986.3398-.5464.9473-.0064.9473.8413C55.478,85.83,55.32069,86.16943,55.13129,86.16943Zm3.4385,1.3125a4.58193,4.58193,0,0,1-1.2461.4473c-1.18748.29828-1.251.0756-.7559-2.6538l.2705-1.4766.9561,1.7519A4.907,4.907,0,0,1,58.56979,87.48193Zm69.2812-5.044c-.1904.1192-.2812.7681-.2012,1.4429.1153.9956-.1132,1.4683-1.2148,2.5064-1.3691,1.2905-1.4893,2.3022-.3584,2.9868.751.4551.1631,1.8667-.96,2.3076a9.4878,9.4878,0,0,1-2.8447.3667c-1.7529-.0312-2.6846.4175-1.88868.9116a9.98729,9.98729,0,0,0,2.55378.28858,5.36425,5.36425,0,0,1,2.3847.39452c.3174.5142-.6396,1.4683-1.4746,1.4683a1.05014,1.05014,0,0,0-.9531.67918,9.55761,9.55761,0,0,1-.5703,1.35642,5.2889,5.2889,0,0,0-.3614,1.9912c0,1.1641-.1406,1.3477-1.2148,1.5621-3.23728.6464-4.291.351-6.7559-1.9019a11.63033,11.63033,0,0,0-2.8183-2.1304c-.6895-.0019-.6055-1.9238.0976-2.1938a.91372.91372,0,0,0,.584-.7529,1.373,1.373,0,0,1,.7656-.9366c.6094-.32712.7159-.66012.5206-1.6347-.209-1.0503-.1485-1.1875.4287-.9659a3.09449,3.09449,0,0,0,2.5615-.8671,48.73359,48.73359,0,0,1,7.1025-5.2759,7.639,7.639,0,0,0,2.1992-1.5332c.9493-1.0137,2.127-1.312,2.5391-.6431A.41443.41443,0,0,1,127.851,82.43793Zm-13.2412-13.5292c.35842.4301.2998.5356-.2783.5166-1.0147-.0357-2.4766-.6622-2.4766-1.0606C111.85489,67.85151,114.103,68.29933,114.60979,68.90873Zm-3.9228-4.9068c0-.4487,2.5371.4453,4.2841,1.5083,1.5996.9771.8916,1.0298-1.5713.1182C111.33249,64.86373,110.687,64.478,110.687,64.00193Zm2.7246,7.5855c.5254-.3247,3.1093.6328,3.1093,1.1543,0,.2231-.3515.6284-.7793.894-.7207.4492-.93938.34378-.8232-.3945.0254-.1621-.3916-.291-.9268-.291C113.01509,72.95023,112.63809,72.06643,113.41159,71.58743Zm-.1973,4.47208c.3594-.58248,1.3613-.46868,1.3613.15192,0,.66008-1.0527,1.1265-1.3711.6074A.79427.79427,0,0,1,113.21429,76.05951Zm1.0723,3.72612c-.1309-.68412.2011-1.60012,1.0625-2.9429,1.2578-1.9599,1.6972-2.2788,2.1425-1.5615.1309.2149-.02138.3901-.3437.3901-.7744,0-1.044.4957-.6309,1.1626.2735.4444.5274.4551,1.3799.066,1.40432-.6402,2.5108-.2417,2.5108.9052,0,.6021-.73048,1.6128-2.1407,2.9536a9.89712,9.89712,0,0,0-2.1357,2.5064,3.81328,3.81328,0,0,1-.8037,1.4873c-1.4463,1.8374-.0977,2.4678,1.7051.7969.9941-.9239,2.9863-1.5669,2.9863-.96582a12.67245,12.67245,0,0,1-2.4912,1.892c-2.6338,1.73152-4.085,2.03132-4.9239,1.023-.4072-.49368-.413-.77-.0273-1.38568C113.41449,84.769,114.48379,80.81593,114.28659,79.78563Zm11.80462-19.8628c.95708-1.1265.98148-1.1338.72368-.1924a4.87636,4.87636,0,0,1-1.0049,1.7383C124.65469,62.66943,124.89979,61.32763,126.09121,59.92283Zm-.61712-6.73532c-.0088-1.18118.1347-1.63918.4736-1.52738a1.18627,1.18627,0,0,1,.5976.9092,2.4065,2.4065,0,0,1-.4736,1.5254C125.519,54.82423,125.48579,54.77143,125.47409,53.18751Zm2.0898,12.89012c-.6074,1.7808-1.3242,2.4302-1.3242,1.1963,0-.85942,1.1777-3.2652,1.5996-3.2652C128.28069,64.00873,128.29049,63.94533,127.56389,66.07763Zm.8731,3.5503c-.127.3291-.4151.6011-.6436.6011-.2881,0-.2813-.25052.0186-.814C128.29629,68.51413,128.80021,68.685,128.437,69.62793Zm-1.0772,2.78658a1.77574,1.77574,0,0,1-.5381,1.314c-.47648.39452-.582.36912-.582-.14988,0-.3438.1621-.6284.3594-.6284s.4394-.3081.539-.68172C127.27869,71.729,127.32559,71.76073,127.35979,72.41451Zm-.7334-8.79588c-.4258.2276-.7754.3482-.7754.2651a5.29847,5.29847,0,0,1,.7754-1.0439c.6074-.6977.7793-.75732.7793-.2676A1.4347,1.4347,0,0,1,126.62639,63.61863Zm-.1914,15.3833c.002-1.1528.8486-1.1518,1.1367.0044.3076,1.22118.4102,1.0903-1.47748,1.8731-1.91412.7929-2.27642.7846-2.11432-.0552.0772-.4004.6035-.7593,1.292-.8789C126.08339,79.80463,126.435,79.521,126.435,79.00193Zm-1.3633-13.10742c0,2.00782-.8496,2.16412-2.5176.45562l-1.4902-1.5254.94732-.4346C123.50921,63.70893,125.07169,64.47651,125.07169,65.89451Zm-3.4961,8.41652c0,.874-.1582.9702-1.5566.9702-1.7832,0-1.9707-.4136-.5977-1.3164C120.82369,73.04733,121.57559,73.16743,121.57559,74.311Zm2.7207-14.5806c-.2148,0-.3906.2427-.3906.53808a5.24176,5.24176,0,0,1-1.5566,1.94292,7.92511,7.92511,0,0,1-1.8672,1.4072,1.20522,1.20522,0,0,1-.9746-1.4072c.1132-.2964.0117-.5371-.2246-.5371a.41223.41223,0,0,1-.4307-.3887c0-.2134.4141-.3896.9189-.3896a3.84671,3.84671,0,0,0,1.9414-.8023c.5616-.4429,1.2051-.6899,1.4297-.5508a.9624.9624,0,0,0,.9776-.2153c.3974-.33112.5634-.3413.5634-.0332A.41439.41439,0,0,1,124.29629,59.73043Zm-5.6787-4.5747c-.5693-.3799-1.4306-2.042-1.042-2.0127a3.99817,3.99817,0,0,1,1.209,1.1656C119.64009,55.39063,119.56389,55.78413,118.61759,55.15573Zm1.4014,15.4512c0,.4829-.6182.4658-2.042-.0527-1.13178-.4136-1.4502-1.1031-.51078-1.1031C118.39979,69.45113,120.019,70.185,120.019,70.60693Zm7.6738,5.8428c-.8965,0-1.8418-.63922-1.8418-1.2447,0-.6689,1.9317-.2802,2.332.4663C128.54439,76.34423,128.47889,76.44973,127.69279,76.44973Zm2.0449,6.9985c-.2129,0-.3867-.2739-.3867-.6069,0-.3335.1738-.4981.3867-.3662a.83031.83031,0,0,1,.3887.60638A.378.378,0,0,1,129.73769,83.44823Zm.2578-2.42972c.086.481.01272.87362-.164.87362-.36528,0-1.7676-4.28862-1.4922-4.5625C128.89889,76.768,129.45649,78.00833,129.99549,81.01851Zm-1.958-20.04338a1.00527,1.00527,0,0,1,.1651-.8755c.2793-.4385.3594-.37312.3633.3105C128.57169,61.30863,128.37349,61.52143,128.03749,60.97513Zm.3995-4.5669c-.127.33-.4151.6015-.6436.6015-.2881,0-.2813-.251.0186-.8125C128.29629,55.29593,128.80021,55.46583,128.437,56.40823Zm-.5196-5.9776c-.2148.2154-1.166-.2109-2.3945-1.0713l-2.041-1.4282-1.1016,1.2066-1.1016,1.206,1.10752.458q2.28507.94635,1.60348,2.15378c-.2481.44492-.4522.51272-.6348.21492-.3681-.5943-1.7715-.5576-1.8262.0488a7.497,7.497,0,0,0,.02352,1.1655c.03708.3745-.084.6782-.27442.6782-.5303,0-1.9151-1.6416-2.2129-2.6225-.30568-1.0103-1.0694-1.1323-1.7676-.2905a1.5683,1.5683,0,0,1-.8242.582c-.668,0-.3272-1.1436.6533-2.2002.79882-.8628,1.0615-.9658,1.333-.5273.2637.4306.4424.3208.8115-.4893.8809-1.9321,4.2227-2.4595,6.90532-1.0928C127.92909,49.31693,128.44089,49.90913,127.91739,50.43063Zm.0469-8.292c.3633,1.1665-.37108,1.1328-1.1494-.0566-.6328-.9668-1.2471-3.7358-.8291-3.7358C126.26121,38.34623,127.56779,40.84863,127.96429,42.13863Zm1.9092-14.4048a17.66627,17.66627,0,0,0-2.0987,1.7671,4.16043,4.16043,0,0,1-1.43258,1.0699c-.88572,0-.73342-.59532.60058-2.3521,1.1846-1.5527,1.6563-1.8857,2.6992-1.9043C131.17329,26.289,131.25729,26.79493,129.87349,27.73383Zm7.42972-13.88232c1.03018,0,.72948,1.76082-.38972,2.272-1.2119.54982-1.6142.56252-1.9248.06442C134.685,15.69433,136.50921,13.85151,137.30321,13.85151Zm-1.34282,5.35312c0,.1918-.6231.5415-1.3848.77388-1.2168.372-1.3681.34622-1.2617-.22608C133.44479,19.06883,135.96039,18.54983,135.96039,19.20463Zm-3.625-2.48c.2266-.5889,1.291-.7505,1.291-.1968,0,.1899-.3359.4321-.748.5381C132.353,17.205,132.19089,17.10251,132.33539,16.72463Zm.2891,5.292a5.11943,5.11943,0,0,0,1.26172-.2266c.65038-.2056.64938-.1738-.043.3892-.85162.6928-1.77152.81-1.77152.226C132.07169,22.19193,132.32069,22.01663,132.62449,22.01663Zm-.9581,5.873c.9463-1.7363,4.8252-4.6948,5.4004-4.11912.2862.28812-2.2822,2.86182-3.1259,3.12992-.3868.122-.7032.4536-.7032.7338,0,.2808-.4297.59528-.955.69628C131.49949,28.478,131.39009,28.40043,131.66639,27.88963Zm-.5107-7.3086c.1338.1362-.1729.4024-.6816.5918-1.5645.5825-3.8477.8989-3.8477.5352C126.62639,21.28373,130.81489,20.24263,131.15569,20.581Zm-3.6084-4.7519a5.93663,5.93663,0,0,1,1.71-.8101c.3545,0,1.0488,1.18648.7812,1.3379-.0586.0317-.5957.269-1.1924.5268C126.52579,17.87943,125.53269,17.07273,127.54729,15.82913Zm-2.4463,7.497a21.97971,21.97971,0,0,0,3.085-.3403.94486.94486,0,0,1,.749.18068c.7803.48242-.54878,1.06932-3.5117,1.55032-3.1192.5063-3.3545.5063-3.6758-.0127C121.26309,23.92283,122.227,23.52543,125.101,23.32613Zm-4.3037,16.3389c0-.7432,1.9365-2.4561,2.79492-2.4731.75588-.0137.88768.16258,1.249,1.6772l.26568,1.10938-1.2051-.85838c-1.3457-.958-1.3398-.96-2.2969.8222a3.73864,3.73864,0,0,1-1.13668,1.4283c-.54982.1855-.60162-.5528-.06052-.8882A1.04623,1.04623,0,0,0,120.79729,39.665Zm.9111-4.1479c.793.1538.9571.3061.5821.54238-.7149.45362-1.3975.42392-1.7041-.07218C120.21229,35.38473,120.46329,35.27933,121.70839,35.51713Zm2.2461-7.3877c-.7256-.7227-.498-1.0582.7168-1.0582.83992,0,1.0957.1519.9424.5528A1.0137,1.0137,0,0,1,123.95449,28.12943Zm-3.3525,3.8017a3.21243,3.21243,0,0,1,.8779,1.7173.97174.97174,0,0,1-.55468.7026c-.45312.1504-.63282-.2553-1.07032-2.4199l-.2353-1.1684Zm-2.4912-12.0078c-.3565-.4302-.2383-.59182.5928-.79882,1.247-.31348,2.2119.39062,1.3105.95852C119.20259,20.59713,118.63229,20.54933,118.11079,19.92333Zm-1.8985,18.4229c.4414-1.0298,1.6075-3.5884,1.75592-3.8458.04878-.0844.33108.0508.63278.2999.457.3793.4629.6757.0264,1.9028a9.80928,9.80928,0,0,0-.5371,2.5181c-.0078.5888-.2022,1.06928-.4287,1.06928-.2246,0-.294.18992-.15138.42042.14348.2319-.23732.9404-.84472,1.5732-.8926.9322-1,1.2173-.5537,1.4937.4287.2656.4521.4639.0947.8921-.5088.6138-.2442,1.063.625,1.063a14.80479,14.80479,0,0,0,3.4551-2.5796c2.6377-2.36182,2.9638-2.544,3.8339-2.1475.9668.4409,1.0938.7403.9668,2.2974-.038.4819.1192.875.3457.875.2305,0,.418.3589.418.7954,0,.5254.2168.7554.6387.6792a.72293.72293,0,0,1,.81052.3721c.10938.3105-.22752.499-.93262.518l-1.1006.0318,1.2637.5522c.6953.3037,1.2627.7324,1.2627.9487,0,.21588-.6924.043-1.54-.3916a7.18012,7.18012,0,0,0-2.2539-.7846,1.84724,1.84724,0,0,1-1.1329-.418c-.5-.4995-5.3359,1.8027-6.5039,3.09908-.9218,1.01862-1.4004,1.04452-1.4004.07182a.96381.96381,0,0,0-.4492-.8945C113.44479,48.40333,114.38809,42.62793,116.21229,38.34623Zm-2.122,1.7167c.1318.1329.0517.4263-.1778.6583-.27828.27828-.497.2846-.6611.019C112.976,40.29293,113.71821,39.69143,114.09029,40.06293Zm-1.2647,1.9195c.9229-.91992,1-.52492.3408,1.7236-.61418,2.0986-.9228,2.3838-1.6377,1.52048C111.06879,44.67183,111.68889,43.12063,112.82559,41.98243Zm-2.2676,10.8784c-.4726-.4707-.2695-.8862.3233-.6582.3213.124.583.3794.583.5713C111.46429,53.18113,110.92909,53.23383,110.558,52.86083Zm-2.4472,5.4272c.3086-.3081,4.2949,1.77248,5.6875,2.9678,2.209,1.8921.4824,1.4068-2.8457-.8012A13.39112,13.39112,0,0,1,108.11079,58.288Zm-3.06058-2.5991c-1.51662-.7173-1.79682-.98242-1.27342-1.2002.7012-.291,3.4102,1.11578,3.4102,1.7744C107.187,56.72463,107.30021,56.75633,105.05021,55.68893Zm-4.49512,1.9092c.8408-.26562,9.3584,3.4111,11.127,4.8032.58.4556.8994.812.7109.7954-.9893-.0971-4.8135-1.5844-8.8994-3.4594a16.34774,16.34774,0,0,0-2.6231-.9493C99.62449,58.50923,99.47309,57.94193,100.55509,57.59813Zm4.1065,5.19038c-2.31838-.93988-2.2149-.85348-1.9239-1.61278.31552-.8183,2.2266-.17722,3.97952,1.337C108.27389,63.86133,107.54629,63.958,104.66159,62.78851Zm-13.4151-8.13328c0-.5605,1.01172-.4404,1.5283.1797.2491.3028.3116.6372.1348.7471C92.49949,55.83493,91.24649,55.13863,91.24649,54.65523Zm14.5801,12.273a34.81588,34.81588,0,0,0-4.5693-1.3491c-.7823-.0191-.91308-.6255-.1934-.89162.69732-.25928,9.3525,2.59082,9.5361,3.13912C110.83149,68.52293,110.05609,68.37693,105.82659,66.92823Zm-4.86038-3.3941a55.50111,55.50111,0,0,0-6.538-1.6899c-1.82332-.1318-1.917-.4282-.34282-1.082,1.3174-.55472,1.50782-.51272,5.582,1.1328a41.91448,41.91448,0,0,0,4.7149,1.7148,43.803,43.803,0,0,1,7.2578,2.7783C112.29239,66.98923,112.72409,67.10493,100.96621,63.53413Zm8.22078,24.2325c-.6836-.4327-.21678-1.9873.5947-1.9873.3789,0,.5127-.2149.3642-.5831-.1308-.32172-.3418-.84272-.46968-1.1591-.15622-.3848.10448-.708.77638-.9639,1.3603-.5171,1.2773-1.0801-.4453-2.9976a6.09268,6.09268,0,0,0-3.20708-2.0629c-3.01362-.7637-3.17382-.8399-2.96092-1.3921.1582-.4112-.082-.481-1.044-.2974a8.976,8.976,0,0,0-1.9248.582c-.3759.1924-.6796.19728-.6796.0127,0-.7592,2.3984-1.4785,7.9687-2.3911,2.7637-.4502,3.6211.3726,4.6992,4.5132a6.50984,6.50984,0,0,1,.1426,3.7642,11.70287,11.70287,0,0,1-2.15818,4.707C110.15769,88.19673,109.92521,88.23343,109.187,87.76663Zm.0429,12.4262c1.001-.0254,1.5977-.8037.61532-.8037-.24812,0-.34282-.1118-.20712-.2485.3653-.3652,2.2803.9966,2.0108,1.4321-.2784.4487-1.6455.4385-2.711-.0181C108.24949,100.25833,108.28169,100.21773,109.22989,100.19283Zm-3.7656,3.8169c-.3906.63378-2.7324.3604-3.5234-.4101-.2539-.24712-.01468-.28712.6836-.1138a2.07834,2.07834,0,0,0,1.5683-.146C104.79339,102.84423,105.84421,103.39693,105.46429,104.00973Zm-12.8789-5.3989c.332,0,.6064.1729.6064.3882a.38074.38074,0,0,1-.3642.3901.83822.83822,0,0,1-.60738-.3901C92.08729,98.78373,92.25139,98.61083,92.58539,98.61083Zm-1.11918,1.34768c.56448.42622.60748.56732.17.559-.73642-.01458-2.334-.64738-2.334-.92378C89.30221,99.16743,90.73869,99.40913,91.46621,99.95851ZM86.935,97.61713c.6113.3755.5215,1.5948-.1582,2.1592a1.79511,1.79511,0,0,0-.584,1.2139c0,.481-.2773.73-.8125.73-.7353,0-.78708-.1538-.5605-1.6519.25-1.6474.248-1.65182-.459-.7734-.6563.8218-.7617.8369-1.5742.2715-.4795-.3355-.8702-.753-.8702-.92392C81.91639,98.208,86.40769,97.29051,86.935,97.61713Zm-.5674,9.5176c.3662.59478-.27238.7046-1.8271.3164-1.3828-.3462-1.9024-1.1328-1.0791-1.6391C83.86369,105.56,85.99359,106.52933,86.36759,107.13473Zm-2.2383-11.0488c.6006.5337.79792.8691.4405.74658a5.10729,5.10729,0,0,0-2.4805.58012,17.28383,17.28383,0,0,1-1.875.7627c-.0254-.0264-.7969-.2266-1.7129-.4483-.918-.2197-1.6113-.56352-1.5449-.7661.1553-.46142,4.0635-1.8496,5.2148-1.8496A3.77584,3.77584,0,0,1,84.12929,96.08593Zm-18.1767-2.5293c.4394,0,.7998.1748.7998.3857,0,.2154-.251.3907-.5596.3907a1.026,1.026,0,0,1-.8008-.3907C65.25921,93.73143,65.51209,93.55663,65.95259,93.55663Zm-4.52538,4.0288A26.47188,26.47188,0,0,1,67.687,96.29051a5.14257,5.14257,0,0,0,2.4658-1.03128c1.7529-1.3364,10.1709-2.9301,11.1572-2.1093.9463.7841.74222,1.0449-1.2402,1.5903-1.0157.27828-3.68358,1.2632-5.9297,2.187a29.32347,29.32347,0,0,1-4.4727,1.6016c-.2129-.0435-1.9629-.13332-3.8867-.2007C62.228,98.20551,61.01509,97.999,61.42721,97.58543Zm14.98438,1.6079c.5761.22318.5625.3111-.1329.82418a29.83377,29.83377,0,0,1-3.0253,1.72372c-2.4883,1.27-2.6123,1.3056-2.6123.7759C70.64109,101.55563,75.41249,98.80663,76.41159,99.19333Zm-5.5752.1958a1.32264,1.32264,0,0,1,1.0166-.3901c.4277,0,.6679.1748.5381.3901a1.346,1.346,0,0,1-1.0186.3872C70.94479,99.77633,70.70359,99.60013,70.83639,99.38913Zm2.331-1.1684a1.06858,1.06858,0,0,1,.8242-.38822c.3204,0,.47462.17722.3418.38822a1.05061,1.05061,0,0,1-.82218.3901C73.19089,98.61083,73.03659,98.43551,73.16739,98.22073Zm-6.1279,4.8974a1.57082,1.57082,0,0,0,.292-.9385c.0039-.4536.3955-.6894,1.2695-.7758,1.4824-.1416,1.5293.0166.458,1.5185a2.56164,2.56164,0,0,1-1.5556,1.1309C66.73679,104.05323,66.52679,103.63133,67.03949,103.11813Zm-1.0498,2.8711c-1.9746,1.0088-2.1094.98928-1.3399-.1875a1.95208,1.95208,0,0,1,1.7588-.97022C67.90569,104.83151,67.82559,105.05373,65.98969,105.98923Zm-19-7.4731c.3594.812,7.2519,2.5332,11.957,2.98238,2.6904.25732,3.2774.78862,1.9746,1.79-1.1015.84672-3.8828.937-8.0947.26422-2.3213-.3711-2.4453-.4448-2.2266-1.3149.2959-1.1822-.7099-1.6382-1.6806-.75832-1.1875,1.07562-3.1416.45452-2.0391-.64748.6582-.6582.5166-1.4927-.2344-1.3648a.68887.68887,0,0,1-.80468-.5654A.61583.61583,0,0,1,46.98969,98.51613Zm-.6582,3.9819c.9805,0,1.0722.8032.1806,1.5762-1.0117.8774-1.0224.8794-1.332.3774C44.84709,103.90913,45.67721,102.498,46.33149,102.498Zm-4.6289,8.3872c-.6289.6304-1.77738.7466-1.77738.1802a23.97877,23.97877,0,0,1,2.43168-4.5825c.4648-.5865,1.7051-.6392,2.0449-.08842.1348.21632-.293,1.07132-.9492,1.90042a8.429,8.429,0,0,0-1.19338,1.7705A1.94561,1.94561,0,0,1,41.70259,110.88523Zm4.8203-.8374c-1.8848,1.8545-3.877,3.0674-3.877,2.3584a17.59809,17.59809,0,0,1,1.7998-2.542c1.8623-2.373,3.02052-3.0903,3.7686-2.3428C48.53559,107.84323,48.09321,108.50783,46.52289,110.04783Zm3.9375-4.0776c-1.291.9199-1.2227.9048-1.9395.4507-.4453-.2842-.3964-.5455.28232-1.4991.63768-.8945,1.042-1.11132,1.80368-.9638C51.90669,104.20463,51.84909,104.98093,50.46039,105.97023Zm9.293,3.0317c-.961,0-1.3536-.0762-.875-.1689a5.66143,5.66143,0,0,1,1.7519,0C61.11079,108.92573,60.71721,109.00193,59.75339,109.00193Zm2.3476-3.2153a1.25479,1.25479,0,0,0-.17378,1.1328c.208.53808-.07912.6328-1.88872.6328-1.1728,0-2.6348.0645-3.248.1416-1.5137.1939-4.1504-.1152-4.5772-.5337-.20308-.2007-.1396-.8393.1514-1.543l.4951-1.20162,2.3779.25342c2.5938.2783,3.5078.751,2.5733,1.32858-.46.28422-.4795.45512-.09478.83992.38378.3838.48438.34808.48438-.1792a.62563.62563,0,0,1,.5821-.66072c.3212,0,.583-.164.583-.36228,0-.53072,1.4287-.8965,2.35252-.6015C62.31879,105.22363,62.41349,105.40913,62.101,105.78663Zm1.7129,3.3222c-1.6289,0-1.4785-.6132.2129-.86032.7998-.11818,1.1719-.01068,1.1719.34372C65.19869,108.92573,64.70449,109.10883,63.81389,109.10883Zm3.1328,1.5528a.96956.96956,0,0,1-1.5547,0c-.1367-.2217.1983-.3882.7764-.3882C66.74949,110.27343,67.08439,110.43993,66.94669,110.66163Zm2.1836-2.3369c-2.6523.4995-2.8652.4931-2.6797-.0611a10.53014,10.53014,0,0,1,3.43362-1.4697c3.05368-.9438,4.64848-1.10842,4.64258-.4756C74.52479,106.73823,71.41159,107.896,69.13029,108.32473Zm2.5391-3.1499c-3.07518.9492-3.4834.9936-3.2735.3608a23.81077,23.81077,0,0,1,4.5645-2.727c4.1807-2.1475,4.457-2.2339,5.3223-1.6665.5019.3291.9111.6918.9111.8056C79.19379,102.29493,74.52479,104.29783,71.66939,105.17483Zm7.9922-5.773c.5429-.0254,2.2548.8965,2.2548,1.2153a.33763.33763,0,0,1-.3466.3248C81.15569,100.94193,79.269,99.42093,79.66159,99.40183Zm8.4531,11.44968a14.02679,14.02679,0,0,0-3.8828-1.60108c-2.5918-.6411-3.8574-1.31-2.4883-1.31a9.92761,9.92761,0,0,1,2.1191.3979,13.65255,13.65255,0,0,0,2.6856.4541,3.25127,3.25127,0,0,1,2.41992,1.2554,5.72225,5.72225,0,0,1,1.10158,1.4912C90.08829,112.05273,89.52089,111.85351,88.11469,110.85151Zm26.791-2.03948a49.69771,49.69771,0,0,1-10.25,6.8676c-2.2676,1.004-4.8936,1.0191-8.4746.0547a18.82955,18.82955,0,0,1-2.7207-.852c-.7988-1.50782-2.294-4.8433-2.8164-6.27982a5.16224,5.16224,0,0,0-1.38478-2.23968.83438.83438,0,0,1-.49712-.9175c.1368-.3589-.1748-.6245-.9306-.7901a5.98059,5.98059,0,0,0-1.4844-.1845c-.7656.1411-1.3555-.0484-1.1562-.3716a3.33524,3.33524,0,0,1,1.9541-.1455c1.5898.1816,1.78122.10788,2.208-.8228.53222-1.1704,1.6777-1.3369,2.7216-.394a4.45247,4.45247,0,0,0,2.6543.65768c1.3418.02052,1.962.18992,1.962.53812,0,.2807.165.5083.3652.5083a.76769.76769,0,0,0,.4414-1.3242c-.5664-.6817-.0957-1.0494,3.2578-2.5547,1.83992-.8247,2.7988-1.0757,3.0762-.7974.2763.2764.1914.4004-.2676.4004a1.34955,1.34955,0,0,0-1.0215.916c-.2597.6831-.7539.9849-1.9346,1.1724-1.6494.2637-2.30758,1.4092-.80658,1.4092,1.06248,0,.98538.68888-.09762.87788-.8331.14552-.8252.17242.2187.60942a7.45313,7.45313,0,0,0,2.4092.4594c1.582,0,2.0449.5826,1.2021,1.5127-.81338.899-.81538,2.3741-.0049,2.3741a.99107.99107,0,0,0,.8233-.773c.15622-.5937.417-.7192,1.1318-.5425.85742.2154.9278.1206.9278-1.2866,0-1.5332.72462-3.6108,1.2617-3.6152.1621-.0025.292-.2764.292-.6094,0-.3491.1865-.4917.4365-.3355.2891.1773.373,1.1919.2461,2.9551-.1318,1.8413-.0576,2.6387.2324,2.542a1.55583,1.55583,0,0,0,.6348-1.0381c.1953-.81442.2617-.8393.7402-.2636a1.73928,1.73928,0,0,0,1.0625.63518c.6172,0,.7256-1.00438.1465-1.36278a1.6264,1.6264,0,0,1-.3877-1.1899c0-.583-.2256-.9492-.583-.9492-.334,0-.584-.3477-.584-.8174,0-.6958.1621-.7832,1.0684-.5708,2.3535.5508,3.122,1.0547,3.3515,2.1982.1348.6812.47272,1.1367.8428,1.1367.33892,0,.5068-.1757.374-.3901-.1328-.2148.1211-.38772.5606-.38772.61032,0,.8008.24852.8008,1.05032C116.90769,106.64113,116.35689,107.44673,114.90569,108.812Zm4.0586-4.7588c-.2305.8857-.53908.9722-1.1758.3359-.3281-.32862-.3008-.583.1143-.99662C118.61759,102.67533,119.226,103.05513,118.96429,104.05323Zm2.3184.8921c-.879-.169-1.2969-1.669-.4668-1.669.6914,0,2.7031,1.1641,2.7031,1.5635C123.519,105.22363,122.88129,105.25343,121.28269,104.94533Z"/>
        <path class="cls-1" d="M51.58829,50.75973a2.60667,2.60667,0,0,0,1.5684,1.5821c.7744,0,1.917-1.7681,2.1513-3.3306.4649-3.1055-.3847-3.251-3.33778-.5659-1.81062,1.6435-1.99812,1.9345-1.25592,1.9453C51.19569,50.39643,51.58829,50.56151,51.58829,50.75973Z"/>
        <path class="cls-1" d="M79.97209,73.33593c0-.584-.3105-.4873-2.50588.7681-2.32032,1.3271-3.51362,2.5039-3.14742,3.0991a.84913.84913,0,0,0,1.5478-.2705,6.91741,6.91741,0,0,1,2.1661-1.9444A6.053,6.053,0,0,0,79.97209,73.33593Z"/>
        <path class="cls-1" d="M70.91639,42.73583a13.77488,13.77488,0,0,0,3.2237-.021,20.93319,20.93319,0,0,0,4.3476-.5298,5.27751,5.27751,0,0,1,1.9434-.3418c1.0312,0,3.8164-1.2002,3.8184-1.6455.0029-.3374-3.6231.1001-4.1036.4981-.3193.2656-.6836.3818-.8066.2573-.12308-.1235-.6729-.0537-1.2197.1538-1.292.4917-1.9991-.1182-1.2217-1.0566.6191-.751.4795-.7105-2.0742.5971-1.7246.8838-1.8828.9029-2.5547.291-1.043-.9433-1.3672-.7993-1.1094.4912C71.30409,42.15133,71.21621,42.62793,70.91639,42.73583Z"/>
        <path class="cls-1" d="M76.34121,83.15523c.53228.8755,1.68558-.2954,1.68558-1.7065a1.88456,1.88456,0,0,0-.3477-1.28222C77.29529,79.93013,76.059,82.68893,76.34121,83.15523Z"/>
        <path class="cls-1" d="M81.91639,64.71923c0-.6206-3.2988.1816-4.5087,1.0991a4.47076,4.47076,0,0,1-2.8174.9116c-1.3096,0-1.6153.1348-1.6153.7105a1.67962,1.67962,0,0,0,.2276.9429c.5342.5361,3.1152.0551,3.8535-.71682a4.64862,4.64862,0,0,1,2.1123-1.07618C80.49159,66.333,81.91639,65.36283,81.91639,64.71923Z"/>
        <path class="cls-1" d="M76.48089,71.78173c1.0205,0,3.1016-1.0566,3.1016-1.5781q0-.389-.751.0083c-1.23928.6645-2.2471.479-2.52928-.4702l-.26172-.8731-.416.8501a2.18038,2.18038,0,0,0-.1856,1.4595A1.16428,1.16428,0,0,0,76.48089,71.78173Z"/>
        <path class="cls-1" d="M120.21229,96.66793c.29592.4771,1.3633.5147,1.3633.0469a1.47357,1.47357,0,0,0-.5498-.7978C120.41739,95.41063,119.79239,95.98683,120.21229,96.66793Z"/>
        <path class="cls-1" d="M73.07169,86.25193a5.389,5.389,0,0,1-2.1504.8609c-.8066.143-1.3652.42768-1.2402.6303.4219.6817,2.3105.376,3.4863-.5693.6426-.5147,1.0362-1.0674.8779-1.2276C73.88621,85.78563,73.44959,85.92283,73.07169,86.25193Z"/>
        <path class="cls-1" d="M52.99949,120.78273c.58-.01522,1.4218-1.0489,1.2519-1.5381-.07418-.2129-1.1846.5654-2.4687,1.7256-1.2813,1.1601-2.1407,2.11328-1.9102,2.124a4.11688,4.11688,0,0,0,1.55472-1.1455A4.2969,4.2969,0,0,1,52.99949,120.78273Z"/>
        <path class="cls-1" d="M45.79339,63.22993c-1.5469,0-3.002,1.89458-1.95218,2.544.71288.439,5.92968-1.4531,7.33008-2.6577,1.4512-1.2505,3.5332-2.2632,4.0254-1.9595.1738.1074.207.5303.0742.9409-.1406.4512-.0332.8101.2774.9004,2.0215.6128,1.9687.4473.8447,2.6519a19.903,19.903,0,0,1-1.6357,2.7451c-.5352.6274-.5137.771.2148,1.499.6768.6768.7344.9448.3516,1.6787a7.54873,7.54873,0,0,1-1.1241,1.544c-.371.3715-.56338.852-.4287,1.06978.1446.23392.7461.28272,1.4619.12012a9.75455,9.75455,0,0,1,2.0909-.2407c.4824.0234.8769-.1323.8769-.3428,0-.2114-.4277-.3848-.9492-.3848-1.3164,0-1.4785-.4594-.7666-2.1645a5.31968,5.31968,0,0,0,.4297-2.4317,8.99463,8.99463,0,0,1,.9385-3.6069,15.55307,15.55307,0,0,0,1.1201-3.3413c-.002-.8926-2.1533-2.2256-3.7295-2.3081a7.05958,7.05958,0,0,1-2.3809-.6729l-1.1757-.60742-2.625,2.51272A12.01316,12.01316,0,0,1,45.79339,63.22993Z"/>
      </g>
    </g>
  </g>
</svg>
