<svg xmlns="http://www.w3.org/2000/svg" width="88.06565" height="74.31717" viewBox="0 0 88.06565 74.31717">
  <defs>
    <style>
      .cls-1 {
        fill: #d16666;
      }

      .cls-2 {
        fill: #ca9e67;
      }

      .cls-3 {
        fill: #e8ceae;
      }

      .cls-4 {
        fill: #7b6a58;
      }

      .cls-5 {
        fill: #b17f4a;
      }

      .cls-6 {
        fill: #634e42;
      }

      .cls-7 {
        fill: #ededed;
      }

      .cls-8 {
        fill: #3c3c3b;
      }

      .cls-9 {
        fill: #fff;
      }

      .cls-10 {
        fill: #9e8871;
      }
    </style>
  </defs>
  <g id="图层_2" data-name="图层 2">
    <g id="Layer_1" data-name="Layer 1">
      <g>
        <rect class="cls-1" x="48.66728" y="50.94741" width="2.00084" height="20.62712" transform="translate(-24.70535 35.02291) rotate(-31.53405)"/>
        <path class="cls-2" d="M19.187,56.06237s54.3175,13.9259,55.465-26.0526a19.673,19.673,0,0,0-.2203-3.3231c-.0919-.6334-.2111-1.3036-.3581-1.9829-.0091-.0918-.0183-.1836-.02749-.2662-.36721-3.6995-.48651-7.0594,2.79069-10.8231.2019-.202.3855-.4131.5692-.6243.0275-.0367.055-.0642.0826-.101h-.0092a8.40657,8.40657,0,0,0,.9363-1.4412,6.87912,6.87912,0,0,0,.8079-3.5893c0-.0459-.0092-.0827-.0092-.1286a6.85875,6.85875,0,0,0-.6334-2.3959c-1.5973-3.4058-5.9394-5.6549-10.8506-5.2968-4.39729.3213-8.0141,2.6438-9.5105,5.7007h-.0091a38.50668,38.50668,0,0,1-4.9113,7.3806c-.1468.1745-.2938.3397-.4406.5141a.07178.07178,0,0,0-.03679.0368C43.9636,23.84087,31.3504,29.19277,21.0689,51.68347c-.3122.6885-.6242,1.4046-.9364,2.1298C19.8112,54.54767,19.49911,55.29117,19.187,56.06237Z"/>
        <path class="cls-3" d="M.86911,66.67857q10.03679-7.3539,20.07349-14.7078c.0421-.0939.0842-.1944.1263-.2873a10.20861,10.20861,0,0,1,.9514-.5024l.0135-.0099a8.53465,8.53465,0,0,1,3.3928-1.77,4.69962,4.69962,0,0,1,2.0396.1134c.6994-.1626,1.3974-.3294,2.08491-.53,7.22459-2.093,12.98039-7.4816,18.18539-12.9161,5.205-5.4437,10.33661-11.2362,17.07461-14.5777,2.093-1.0281,4.70019-1.7809,6.67379-.5324a7.79132,7.79132,0,0,1,2.5245,3.4057c.0092.0276.0275.0459.03671.0735.00919.0826.01839.1744.02749.2662a22.996,22.996,0,0,1,.5784,5.306c-.931,32.433-36.8537,29.3891-50.3812,27.0848a32.15315,32.15315,0,0,0-4.3096,2.8129,54.55456,54.55456,0,0,0-7.6945,7.4767H0A9.1237,9.1237,0,0,1,.86911,66.67857Z"/>
        <path class="cls-4" d="M6.7949,67.38417H0a9.1237,9.1237,0,0,1,.86911-.7056q10.58234-7.75365,21.16469-15.5074a8.71043,8.71043,0,0,1,3.3188-1.7487C18.8084,55.25427,13.4878,61.617,6.7949,67.38417Z"/>
        <path class="cls-5" d="M17.50711,53.08677c9.70309-2.1022,20.07029-6.3267,29.22269-10.1823,6.7197-2.8182,13.1578-5.9669,16.6768-13.6997,2.2341-4.9092,1.2943-9.2011-2.7356-12.7721l-.0616-.0546a9.21357,9.21357,0,0,0-11.4699-.3761C41.5095,21.56307,25.3444,34.848,17.50711,53.08677Z"/>
        <path class="cls-4" d="M26.0835,38.47207a78.36042,78.36042,0,0,0-5.5165,11.6465c8.8974-1.9418,17.184-5.844,25.5763-9.4054,6.1616-2.6032,12.0651-5.5117,15.29181-12.6545,2.04859-4.5347,1.18689-8.4991-2.50841-11.7976l-.0564-.0504a7.81951,7.81951,0,0,0-7.1486-1.5327,9.07047,9.07047,0,0,1,8.8877,1.7001l.0616.0545c4.0299,3.571,4.9697,7.8629,2.7356,12.7722-3.5189,7.7327-9.9571,10.8814-16.6768,13.6997-9.1524,3.8556-19.5196,8.0801-29.22269,10.1823A72.57561,72.57561,0,0,1,26.0835,38.47207Z"/>
        <path class="cls-3" d="M67.3304,20.51667c.2344.9487.0488,2.0157.5418,2.8594a2.70184,2.70184,0,0,0,2.2096,1.188,7.979,7.979,0,0,0,2.567-.4225,7.85408,7.85408,0,0,0-2.4048-4.5343c-1.2093-1.2568-2.6192-2.3096-3.8076-3.5863a7.49133,7.49133,0,0,1-2.2492-4.6025,3.87534,3.87534,0,0,1,2.69791-3.9901,5.28816,5.28816,0,0,0-3.52911,8.2833C64.5718,17.43007,66.8253,18.47327,67.3304,20.51667Z"/>
        <path class="cls-3" d="M70.1079,20.582a12.43875,12.43875,0,0,0,1.9645,3.0936c.7344.9272,1.45971,1.8544,2.1848,2.7908.0551.0734.1194.1468.1745.2203-.0919-.6334-.2111-1.3036-.3581-1.9829-.0091-.0918-.0183-.1836-.02749-.2662-.36721-3.6995-.48651-7.0594,2.79069-10.8231.2019-.202.3855-.4131.5692-.6243.0275-.0367.055-.0642.0826-.101h-.0092a8.40657,8.40657,0,0,0,.9363-1.4412,17.951,17.951,0,0,0-2.9651.459,8.26853,8.26853,0,0,0-4.2778,2.4878A6.29348,6.29348,0,0,0,70.1079,20.582Z"/>
        <path class="cls-3" d="M57.1506,30.88747l-.2667.0353a3.041,3.041,0,0,0-.3173.0498c-.1109.0554-.2304.1134-.3588.1684a6.42449,6.42449,0,0,0-.8535.7425,4.05458,4.05458,0,0,1-.62919.4866,2.14021,2.14021,0,0,1-.938.2276l-.26071.0088-.0331.0007-.0083.0001c.01111.0037-.1278-.0303-.072-.0166l-.0131-.003-.0524-.0117-.1057-.0237a2.37111,2.37111,0,0,1-.4496-.122,3.379,3.379,0,0,1-.557-.3469c-.1293-.131-.274-.2711-.3932-.4103-.449-.5876-.7445-1.0225-1.1547-1.1246l-.1639-.0413-.0808-.0253c-.0907-.0084.1182.0094.0933.0078l-.0082.0001-.0165.0003-.033.0005-.06609.001-.26551.0043c-.0878.0008-.1963-.0035-.2024.032a3.465,3.465,0,0,0-.5786.3679,6.53856,6.53856,0,0,1-1.0194.709,4.01913,4.01913,0,0,1-.7469.2363l-.3871.0042-.1944-.0041-.0969-.0035-.0483-.0022-.0242-.0011-.0121-.0007c.0191.0058-.21219-.0503-.1181-.0278l-.5287-.1707a3.35513,3.35513,0,0,1-.7319-.5073,6.60722,6.60722,0,0,1-.7392-.9925,1.99119,1.99119,0,0,0-.5074-.5632c-.0812-.0716-.2074-.0745-.3055-.129l-.03939-.0172-.01971-.0089-.0099-.0045c.1982.0166.0502.0043.0923.0079l-.0082-.0004-.13149-.0073-.26131-.0146c-.2242-.0324-.203.051-.2966.0483-.0606-.0148-.2063.1002-.3115.134-.2348.1318-.5041.3284-.8002.5238-.1601.0939-.3398.1809-.5047.264a4.58423,4.58423,0,0,1-.5744.1444,2.98388,2.98388,0,0,1-.55529-.0229,1.25273,1.25273,0,0,1-.31741-.0531l-.1958-.0791a2.37564,2.37564,0,0,1-.811-.5116,4.10876,4.10876,0,0,1-.4424-.661,6.34189,6.34189,0,0,0-.5765-.9741l-.298-.2773a3.07825,3.07825,0,0,0-.2734-.1425l-.2421-.1179s.09261.0139.2663.0402a3.15407,3.15407,0,0,1,.3308.0606q.17835.08415.4144.2138a4.94235,4.94235,0,0,1,.8499.8697,3.52318,3.52318,0,0,0,.461.4546,1.65821,1.65821,0,0,0,.5835.2252l.2062.0461c-.059-.0131.0791-.0156.1083-.0226a2.11678,2.11678,0,0,0,.32321-.0378c.09809-.0511.19679-.0757.298-.1213l.306-.2139c.21589-.1821.45129-.4054.77109-.6442a2.14328,2.14328,0,0,1,.58891-.3187,2.31283,2.31283,0,0,1,.70739-.1475l.26161-.0042.13149-.0021.0083-.0001.1086.009.02161.0053.04329.0107.0868.0221a2.94092,2.94092,0,0,1,.6882.2356,2.89742,2.89742,0,0,1,1.01171.9512,5.8165,5.8165,0,0,0,.58019.7657c.0854.0785.1169.0671.1581.1479l.5319.1597c.0996.024-.1263-.0295-.1013-.0244l.0053-.0002.0105-.0005.0211-.0008.0419-.0008.0834.0014.1681.0151c.1014-.0401.1963-.0463.3075-.0925a5.73228,5.73228,0,0,0,.7894-.5401,2.82055,2.82055,0,0,1,1.3374-.5962.93361.93361,0,0,1,.324-.0169l.2653.0146.2331.0174.1704.0529.3354.1142a2.3549,2.3549,0,0,1,1.0434.8333c.2305.3275.382.6154.5298.8565l.2228.3011a1.17345,1.17345,0,0,1,.1841.184,1.80592,1.80592,0,0,0,.3775.1733l.1003.0405.0498.02.0124.005c.0601.0146-.0747-.0167-.0591-.0136l.0051.0005.02.0017.1603.017a1.59986,1.59986,0,0,0,1.19891-.3144,4.99638,4.99638,0,0,1,1.08059-.5588c.1829-.0355.3413-.0583.4721-.0731.1275.0067.233.0359.3201.0474Z"/>
        <path class="cls-3" d="M50.9553,34.45867l-.2293.036a2.61825,2.61825,0,0,0-.2726.0496c-.094.0506-.194.1029-.3005.1515a5.8769,5.8769,0,0,0-.71779.6512,3.45322,3.45322,0,0,1-.54421.4324,1.88718,1.88718,0,0,1-.82879.2096l-.23121.0093-.0293.0008-.0074.0002c.0114.0037-.12709-.0301-.07109-.0164l-.01131-.0024-.0453-.0095-.0912-.0192a2.01175,2.01175,0,0,1-.3914-.1013,2.86111,2.86111,0,0,1-.505-.3096c-.1153-.1146-.2445-.2388-.35-.3604-.3981-.5169-.6484-.8585-.9633-.927l-.1288-.0304-.0632-.0199c-.0903-.0082.1189.0097.09451.008l-.00711.0002-.0142.0003-.0283.0006-.0568.0012-.2283.005c-.0754.0011-.1712-.0019-.1654.0285-.0381.0505-.2191.1081-.4442.3003a2.68887,2.68887,0,0,1-2.3685.8011l-.45419-.1475a2.93331,2.93331,0,0,1-.66941-.4613,5.69548,5.69548,0,0,1-.64659-.8691c-.31-.4481-.45641-.5758-.94131-.5993-.1994-.0285-.15569.0424-.2261.0346-.03659-.0191-.1642.0785-.2483.1021-.196.1059-.4298.273-.6899.4419-.14139.0817-.3016.1584-.4479.2305a3.84038,3.84038,0,0,1-.5131.1257,2.629,2.629,0,0,1-.4936-.0239,1.16872,1.16872,0,0,1-.2876-.0511l-.1675-.0702a2.14244,2.14244,0,0,1-.7132-.4598,3.5075,3.5075,0,0,1-.379-.5828,5.76085,5.76085,0,0,0-.4764-.8446l-.2479-.2429a2.56132,2.56132,0,0,0-.231-.1282l-.2064-.1069.2306.0291a2.70353,2.70353,0,0,1,.2884.0464q.15645.069.3644.1793a4.272,4.272,0,0,1,.7497.7403,2.8922,2.8922,0,0,0,.3976.3764,1.48146,1.48146,0,0,0,.4856.1734l.1781.0372c-.0685-.0163.0592-.0167.0783-.0246a1.75533,1.75533,0,0,0,.2616-.0367c.078-.045.1557-.0648.2368-.1027l.24911-.1804c.17989-.1556.37989-.3495.66079-.5622a1.8779,1.8779,0,0,1,.5257-.2869,2.135,2.135,0,0,1,.6369-.1338l.2249-.0049.1131-.0024.007-.0002.10761.0089.01929.0046.0389.0093.0779.0194a2.61855,2.61855,0,0,1,.6185.21,2.57188,2.57188,0,0,1,.905.8449,4.88284,4.88284,0,0,0,.4877.6423c.0672.0602.0751.0367.0955.1019l.4575.1365c.0993.0239-.127-.0298-.1025-.0246l.0041-.0003.00811-.0005.01619-.0009.0322-.001.0639.001a1.09823,1.09823,0,0,1,.1291.0143c.0767-.0329.14561-.0338.2335-.0694a4.82666,4.82666,0,0,0,.6624-.4523,2.50289,2.50289,0,0,1,1.2029-.5286.839.839,0,0,1,.2871-.0135l.228.0139.21471.0169.15269.0473.3004.1034a2.09732,2.09732,0,0,1,.9306.7483c.2016.2907.3291.5393.4511.7439l.1796.2512a.6239.6239,0,0,1,.132.1467,1.45605,1.45605,0,0,0,.3195.1525l.0858.036.0426.0179.01071.0044c.05969.0145-.07541-.017-.06011-.0138l.0042.0004.0163.0017.1307.0164a1.31921,1.31921,0,0,0,1.0047-.2422,4.32306,4.32306,0,0,1,.9449-.4675c.161-.0291.2999-.0462.4138-.0561a2.76194,2.76194,0,0,1,.2753.0476Z"/>
        <path class="cls-3" d="M45.0968,37.43037l-.1879.0368a2.11683,2.11683,0,0,0-.223.0495c-.0752.045-.1535.0911-.23579.1327a5.41444,5.41444,0,0,0-.56741.5499,2.78486,2.78486,0,0,1-.4501.3723,1.6057,1.6057,0,0,1-.7078.1897l-.1984.01-.2235-.0381a1.60583,1.60583,0,0,1-.3271-.0784,2.33245,2.33245,0,0,1-.4474-.2683c-.0995-.0964-.2118-.2029-.302-.305-.3417-.4384-.5418-.6768-.7511-.7082-.0389.0042-.1709-.0519-.1251-.0212l-.187.0058c-.0616.0013-.1434,0-.1245.0248.0165.0385-.1143.0685-.2951.2252a2.3157,2.3157,0,0,1-2.05949.6804l-.37171-.1218a2.4886,2.4886,0,0,1-.6002-.4103,4.69341,4.69341,0,0,1-.544-.7324c-.2519-.3496-.2899-.4135-.665-.4465-.1719-.0243-.1034.0328-.148.0193-.01-.0239-.1175.0544-.1783.067-.15279.077-.3474.2115-.5677.351-.1206.0683-.2592.1335-.3848.1933a3.07285,3.07285,0,0,1-.4452.1051,2.23619,2.23619,0,0,1-.4253-.0251,1.0779,1.0779,0,0,1-.2545-.0487l-.13629-.0605a1.89533,1.89533,0,0,1-.60471-.4025,2.83126,2.83126,0,0,1-.3087-.496,5.28766,5.28766,0,0,0-.3655-.7012l-.1925-.2047a2.05266,2.05266,0,0,0-.184-.1124l-.1669-.0946.1911.0168a1.08643,1.08643,0,0,1,.5504.1717,3.55188,3.55188,0,0,1,.63881.5969,2.171,2.171,0,0,0,.32729.2896,1.40247,1.40247,0,0,0,.3771.1161l.1468.0276c-.0789-.0201.0373-.0182.0453-.0271a1.334,1.334,0,0,0,.1932-.0356,1.32,1.32,0,0,1,.1689-.082l.1861-.1432c.1401-.1263.3008-.2875.5386-.4714a1.58628,1.58628,0,0,1,.45571-.2517,1.944,1.944,0,0,1,.55879-.1185l.18421-.0057.09259-.0029.0058-.0002.1063.0089.0169.0038.0339.0078.0682.0164a2.25794,2.25794,0,0,1,.5411.1815,2.21239,2.21239,0,0,1,.7869.7272,3.83689,3.83689,0,0,0,.3851.5055c.0471.04.0288.003.0263.0509l.375.1108c.0988.0239-.1279-.03-.1038-.0248l.00271-.0003.00549-.0006.0108-.001.0214-.0012.0422.0006a.501.501,0,0,1,.0859.0134c.0494-.025.0895-.0201.1515-.0438a3.7814,3.7814,0,0,0,.5218-.3552,2.1583,2.1583,0,0,1,1.05391-.4536.72873.72873,0,0,1,.24609-.0096l.1868.013.19411.0163.13319.0413.2615.0912a1.81313,1.81313,0,0,1,.8057.6543c.16961.2498.2703.4548.3639.6191l.1316.1958a.25147.25147,0,0,1,.0744.1054c.0358.0486.1753.0869.2552.1296l.0698.031.03471.0154.00859.0038c.05941.0144-.076-.0173-.061-.014l.0031.0003.0122.0016.0979.0158a1.004,1.004,0,0,0,.7896-.1622,3.59659,3.59659,0,0,1,.7945-.3663,1.03627,1.03627,0,0,1,.5749.0105Z"/>
        <path class="cls-6" d="M39.0415,41.37857a40.14121,40.14121,0,0,1-9.2276,4.3608q-1.78455.66435-3.5692,1.3286,5.40975-3.2442,10.8196-6.4886a5.4371,5.4371,0,0,1,1.2859-.6245c.5177-.1466,1.2523.0124,1.297.5487C39.67811,40.87457,39.3463,41.16477,39.0415,41.37857Z"/>
        <path class="cls-6" d="M34.1344,40.53687a82.5967,82.5967,0,0,1-9.9938,7.0166q4.3797-3.6591,8.38251-7.7401a2.43409,2.43409,0,0,1,1.14019-.7859c.4582-.0988,1.0295.1935,1.034.6622A1.20306,1.20306,0,0,1,34.1344,40.53687Z"/>
        <path class="cls-6" d="M30.4023,38.26887c.31981-.059.5831.3145.545.6375a1.57851,1.57851,0,0,1-.4885.8251q-3.63915,3.9672-7.3474,7.8703c.2246-.3921.4734-.7696.722-1.1469a42.435,42.435,0,0,1,6.2045-7.9588A.7747.7747,0,0,1,30.4023,38.26887Z"/>
        <path class="cls-6" d="M71.2189,27.47337c-.084-.6137-.023-1.3912.5464-1.6348a.99553.99553,0,0,1,1.1044.3323,2.05258,2.05258,0,0,1,.4028,1.1482,4.61,4.61,0,0,1-1.0653,3.3591A10.34683,10.34683,0,0,1,71.2189,27.47337Z"/>
        <path class="cls-6" d="M69.5524,34.041c.1942-.588.59071-1.2596,1.2093-1.2282a.9954.9954,0,0,1,.846.7839,2.05293,2.05293,0,0,1-.1428,1.2083,4.6102,4.6102,0,0,1-2.4333,2.5491A10.34833,10.34833,0,0,1,69.5524,34.041Z"/>
        <path class="cls-6" d="M68.9336,40.85457c.1942-.5881.5908-1.2597,1.2093-1.2283a.99564.99564,0,0,1,.846.7839,2.05325,2.05325,0,0,1-.14279,1.2084,4.6101,4.6101,0,0,1-2.43331,2.549A10.34773,10.34773,0,0,1,68.9336,40.85457Z"/>
        <path class="cls-6" d="M63.8023,43.12567c.1942-.588.59081-1.2596,1.2093-1.2282a.99539.99539,0,0,1,.846.7839,2.05293,2.05293,0,0,1-.1428,1.2083,4.61024,4.61024,0,0,1-2.4333,2.5491A10.34861,10.34861,0,0,1,63.8023,43.12567Z"/>
        <path class="cls-6" d="M58.2837,43.02747c.31441-.5337.844-1.1062,1.4419-.9445a.99547.99547,0,0,1,.661.9451,2.05382,2.05382,0,0,1-.3954,1.1508,4.60992,4.60992,0,0,1-2.9176,1.9764A10.35085,10.35085,0,0,1,58.2837,43.02747Z"/>
        <path class="cls-6" d="M50.2656,54.11787c.5382-.3064,1.2826-.5393,1.7207-.1016a.99566.99566,0,0,1,.10281,1.1488,2.05331,2.05331,0,0,1-.91561.8013,4.61014,4.61014,0,0,1-3.5143.262A10.34715,10.34715,0,0,1,50.2656,54.11787Z"/>
        <path class="cls-6" d="M40.3645,55.36217c.60961-.1095,1.3889-.0809,1.656.4779a.99549.99549,0,0,1-.286,1.1173,2.05319,2.05319,0,0,1-1.13039.4502,4.60925,4.60925,0,0,1-3.40051-.9246A10.34821,10.34821,0,0,1,40.3645,55.36217Z"/>
        <path class="cls-6" d="M41.29411,50.11777c.51919-.3377,1.24839-.6142,1.71159-.2031a.99548.99548,0,0,1,.1706,1.1407,2.05337,2.05337,0,0,1-.8667.854,4.60975,4.60975,0,0,1-3.4926.4693A10.34713,10.34713,0,0,1,41.29411,50.11777Z"/>
        <path class="cls-6" d="M55.9269,49.574c.4645-.4096,1.1459-.7891,1.6639-.4497a.99546.99546,0,0,1,.3345,1.1038,2.05339,2.05339,0,0,1-.7333.9709,4.61,4.61,0,0,1-3.3874.9718A10.34591,10.34591,0,0,1,55.9269,49.574Z"/>
        <path class="cls-6" d="M46.1864,51.57657c.505-.3586,1.2223-.6647,1.7019-.2728a.99554.99554,0,0,1,.2171,1.1327,2.05373,2.05373,0,0,1-.8311.8888,4.61028,4.61028,0,0,1-3.4706.6115A10.34994,10.34994,0,0,1,46.1864,51.57657Z"/>
        <path class="cls-6" d="M50.9944,46.04477c.4646-.4095,1.1459-.789,1.664-.4496a.99547.99547,0,0,1,.3345,1.1037,2.05338,2.05338,0,0,1-.7334.971,4.61,4.61,0,0,1-3.38739.9718A10.35267,10.35267,0,0,1,50.9944,46.04477Z"/>
        <path class="cls-6" d="M61.8265,49.41567c.3962-.4761,1.0112-.9557,1.5752-.6998a.99538.99538,0,0,1,.5,1.0393,2.05333,2.05333,0,0,1-.57559,1.072,4.60948,4.60948,0,0,1-3.198,1.4803A10.345,10.345,0,0,1,61.8265,49.41567Z"/>
        <path class="cls-6" d="M63.8023,36.31217c.1942-.5881.59081-1.2597,1.2093-1.2282a.9954.9954,0,0,1,.846.7838,2.05326,2.05326,0,0,1-.1428,1.2084,4.61024,4.61024,0,0,1-2.4333,2.5491A10.34817,10.34817,0,0,1,63.8023,36.31217Z"/>
        <path class="cls-6" d="M66.503,29.17767c-.084-.6136-.023-1.3911.5464-1.6347a.99568.99568,0,0,1,1.1045.3323,2.05323,2.05323,0,0,1,.4027,1.1482,4.60963,4.60963,0,0,1-1.0653,3.3591A10.34632,10.34632,0,0,1,66.503,29.17767Z"/>
        <path class="cls-4" d="M68.8962,8.19827a6.23581,6.23581,0,0,0,4.6083.762c1.1842-.2663,2.27661-.8813,3.47-1.1016a7.38684,7.38684,0,0,1,2.2491,0c0-.0459-.0092-.0827-.0092-.1286a6.85875,6.85875,0,0,0-.6334-2.3959,5.89781,5.89781,0,0,1-1.8544.4498,3.45066,3.45066,0,0,1-1.5881-.2203,11.9141,11.9141,0,0,1-1.1016-.615,5.31751,5.31751,0,0,0-5.3886.716,1.75214,1.75214,0,0,0-.7435.8904C67.7395,7.22527,68.3087,7.84027,68.8962,8.19827Z"/>
        <g>
          <path class="cls-7" d="M70.277,6.65407a1.6859,1.6859,0,1,0,1.6859-1.6859A1.686,1.686,0,0,0,70.277,6.65407Z"/>
          <circle class="cls-8" cx="71.9629" cy="6.65407" r="1.2177"/>
          <circle class="cls-9" cx="72.7477" cy="6.23067" r="0.4755"/>
        </g>
        <path class="cls-4" d="M76.2362,9.30647a1.73775,1.73775,0,0,1-.1087-.8486,5.61609,5.61609,0,0,1,.9992-3.6209.69246.69246,0,0,1,.3601-.245c.121-.0235,7.3834.2991,10.2166,1.241.1842.0612.4068.2001.3545.3871-.5167.5502-8.9756,4.4548-9.3016,4.4828a4.01282,4.01282,0,0,1-1.99019-.8411A1.73425,1.73425,0,0,1,76.2362,9.30647Z"/>
        <path class="cls-10" d="M80.54011,7.12467c1.49249-.3497,3.99919-.6025,5.51169-.8465.4776-.0771,1.2109-.1251,1.97531-.2205a.19939.19939,0,0,1,.03079.1624c-.5166.5502-8.9756,4.4548-9.3016,4.4828a4.01335,4.01335,0,0,1-1.99019-.8411,1.73461,1.73461,0,0,1-.52991-.5554,1.05048,1.05048,0,0,1-.0815-.315A19.07223,19.07223,0,0,1,80.54011,7.12467Z"/>
        <path class="cls-1" d="M48.969,71.89717a5.78248,5.78248,0,0,1-2.58889-.542.74988.74988,0,1,1,.66209-1.3457,6.81813,6.81813,0,0,0,4.1006.1553c.4248-.0732.9824-.2119,1.6416-.376,3.4424-.8525,9.2022-2.2783,14.0459.3506a.74985.74985,0,1,1-.7148,1.3184c-4.334-2.3506-9.7403-1.0127-12.9698-.2129-.7021.1738-1.2958.3203-1.749.3984A14.38575,14.38575,0,0,1,48.969,71.89717Z"/>
        <path class="cls-1" d="M64.7024,74.31717a.74991.74991,0,0,1-.4199-.1289c-3.5987-2.4375-6.1836-3.3868-9.2207-3.3868a.75.75,0,0,1,0-1.5c3.3681,0,6.1884,1.0215,10.0625,3.6446a.75006.75006,0,0,1-.4219,1.3711Z"/>
        <path class="cls-1" d="M55.0627,70.80147a.75.75,0,0,1-.4033-1.3828,23.823,23.823,0,0,1,4.5225-2.3564,10.82158,10.82158,0,0,1,5.2197-.669c.1533.0225.3037.0469.4551.0723a.74974.74974,0,0,1-.25,1.4785c-.1377-.0234-.2764-.0459-.4141-.0654a9.38018,9.38018,0,0,0-4.4951.5918,22.52529,22.52529,0,0,0-4.23339,2.2138A.7471.7471,0,0,1,55.0627,70.80147Z"/>
      </g>
    </g>
  </g>
</svg>
