<svg xmlns="http://www.w3.org/2000/svg" width="69.0709" height="84.00118" viewBox="0 0 69.0709 84.00118">
  <defs>
    <style>
      .cls-1 {
        fill: #3c3c3b;
      }

      .cls-2 {
        fill: #be1622;
      }

      .cls-3 {
        fill: #f39200;
      }

      .cls-4 {
        fill: #f9b233;
      }

      .cls-5 {
        fill: #e94e1b;
      }

      .cls-6 {
        fill: #303030;
      }

      .cls-7 {
        fill: #ededed;
      }

      .cls-8 {
        fill: #36a9e1;
      }

      .cls-9 {
        fill: #fff;
      }

      .cls-10 {
        fill: #dadada;
      }

      .cls-11 {
        fill: #878787;
      }
    </style>
  </defs>
  <g id="图层_2" data-name="图层 2">
    <g id="Layer_1" data-name="Layer 1">
      <g>
        <path class="cls-1" d="M17.5074,46.36348l-.4774,6.3158-.3488,4.6726-1.735,22.9222a4.03465,4.03465,0,0,1-4.0208,3.7271H4.1598a4.03046,4.03046,0,0,1-3.8923-5.0674l6.4994-24.4461,1.0098-3.8005,1.1474-4.3237Z"/>
        <path class="cls-2" d="M17.03,52.67928l-.3488,4.6726a19.55334,19.55334,0,0,1-8.776-2.1298,5.73175,5.73175,0,0,1-1.1383-.7344l1.0098-3.8005a7.4196,7.4196,0,0,1,4.2778.404q1.8177.5508,3.6352,1.1016A8.319,8.319,0,0,1,17.03,52.67928Z"/>
        <path class="cls-1" d="M23.4101,50.20988c-6.1139,7.9957-15.7252,4.0759-16.9094.2662a2.451,2.451,0,0,1-.1194-.6701c-.3029.8721-2.4785,7.041-2.4785,7.041a44.89115,44.89115,0,0,1-1.1934-10.1806c0-11.1168,4.4155-21.233,13.063-26.998,2.3408-3.3966,3.0477-7.6193,3.2956-12.0808.5783-4.1952,3.1211-5.6548,5.5354-6.0587a11.8586,11.8586,0,0,1,4.7277.2387c.1285.514.2387,1.0281.3397,1.5514a24.87209,24.87209,0,0,1-.3397,10.3824l1.533,5.967c.1561,1.4779.2479,2.9192.2846,4.342C31.4149,34.18178,28.762,42.866,23.4101,50.20988Z"/>
        <path class="cls-3" d="M69.0709,10.33238l-2.5153-.1101-.0184.0183a4.25753,4.25753,0,0,1-.2845.4223,4.80467,4.80467,0,0,1-3.1487,1.891c-9.079,1.3587-27.6223,2.7356-33.7729.9915l-.9272-3.3966-.2937-1.0832c1.6523-1.8452,1.9737-4.3146,1.2209-7.298.2478-.0367.4957-.0827.7528-.1194,11.3187-1.7901,32.2122-3.984,37.6743,4.5625A8.65176,8.65176,0,0,1,69.0709,10.33238Z"/>
        <path class="cls-4" d="M48.3947.91628a117.97348,117.97348,0,0,0-17.9604,1.606,3.34666,3.34666,0,0,1,0,1.6711c16.8986-1.2623,26.9397-.5994,36.5062,2.4715C64.4642,2.84938,58.2597.91628,48.3947.91628Z"/>
        <path class="cls-5" d="M66.5556,10.22228l-.0184.0183a4.25753,4.25753,0,0,1-.2845.4223,4.80467,4.80467,0,0,1-3.1487,1.891c-7.3624,1.1016-20.9578,2.2124-29.1095,1.6616a23.26665,23.26665,0,0,1-4.6634-.6701l-1.2118-4.4523-.0091-.0275c15.7618-.4039,25.4283-.101,31.129.2938A48.73769,48.73769,0,0,1,66.5556,10.22228Z"/>
        <path class="cls-1" d="M30.6989,6.44928a6.98718,6.98718,0,0,1-2.295,3.6995l-.2937-1.0832c1.6523-1.8452,1.9737-4.3146,1.2209-7.298.2478-.0367.4957-.0827.7528-.1194A6.91112,6.91112,0,0,1,30.6989,6.44928Z"/>
        <path class="cls-1" d="M33.9945,14.21548a23.26665,23.26665,0,0,1-4.6634-.6701l-1.2118-4.4523a7.18478,7.18478,0,0,1,5.8752,5.1224Z"/>
        <path class="cls-1" d="M69.0709,10.33238l-2.5153-.1101a48.73769,48.73769,0,0,0-7.3164-.8629,1.7479,1.7479,0,0,1-.2846-.5876,1.95409,1.95409,0,0,1,.56-1.7166,4.43248,4.43248,0,0,1,1.5789-.9731A7.81714,7.81714,0,0,1,66.932,5.77a5.10968,5.10968,0,0,1,.8262.4407A8.65176,8.65176,0,0,1,69.0709,10.33238Z"/>
        <path class="cls-6" d="M25.0624,4.92538c-.4957,2.0931-1.0006,4.1953-1.4963,6.2883a22.425,22.425,0,0,1-2.1114,6.1413c-.8262,1.4321-1.9737,2.6714-2.7448,4.1402-2.9742,5.6639.2479,13.2649-3.1487,18.6902-1.3402,2.139-3.5251,3.5802-5.3427,5.3336a19.64915,19.64915,0,0,0-3.7178,4.9571,2.451,2.451,0,0,1-.1194-.6701c-.3029.8721-2.4785,7.041-2.4785,7.041a44.89115,44.89115,0,0,1-1.1934-10.1806c0-11.1168,4.4155-21.233,13.063-26.998,2.3408-3.3966,3.0477-7.6193,3.2956-12.0808.5783-4.1952,3.1211-5.6548,5.5354-6.0587a2.13062,2.13062,0,0,1,.4774.6242A4.165,4.165,0,0,1,25.0624,4.92538Z"/>
        <path class="cls-7" d="M31.1487,24.01038a6.20168,6.20168,0,0,1-5.0673,1.7259c-2.3593-.3764-6.0404-2.5337-6.6371-4.847-.5507-2.1022,1.019-4.8929,3.2956-6.3708.358-2.0013-.5691-3.9566-.2019-5.9487.0826-.4314.1652-.8812.2661-1.3127A5.59142,5.59142,0,0,1,24.1077,4.595,5.59925,5.59925,0,0,1,28.56,3.24548c.3672,0,.7435.0368,1.1108.0735a24.87209,24.87209,0,0,1-.3397,10.3824S31.8204,19.12978,31.1487,24.01038Z"/>
        <path class="cls-4" d="M28.762,5.45788a3.18541,3.18541,0,0,1-.9548,2.295,3.021,3.021,0,0,1-2.4051.1927c-.8813-.1927-1.7442-.413-2.598-.6885A5.59142,5.59142,0,0,1,24.1077,4.595,5.59925,5.59925,0,0,1,28.56,3.24548a1.97891,1.97891,0,0,1,.2478.7436A5.25592,5.25592,0,0,1,28.762,5.45788Z"/>
        <circle class="cls-8" cx="26.5689" cy="5.66588" r="1.5296"/>
        <circle class="cls-1" cx="26.5689" cy="5.66588" r="1.0789"/>
        <path class="cls-9" d="M26.25,5.22928a.49025.49025,0,1,1-.4903-.4902A.49028.49028,0,0,1,26.25,5.22928Z"/>
        <rect class="cls-10" y="60.25878" width="34.0601" height="3.9291"/>
        <path class="cls-11" d="M14.1688,59.12328c-.5815.3635-1.4432.772-2.0247,1.1355a5.93144,5.93144,0,0,1,2.8084.3346,2.11293,2.11293,0,0,1,.3573,2.7761c-.5431.8533-1.5019.8184-2.6636.8027,4.2026,1.4835,4.2183-2.5487,3.5428-3.4364.9897.4734,1.836,3.5859-1.4631,3.4425,3.4425,1.1905,3.9302-1.7069,2.4241-3.5142,1.1618.2869,2.797,3.3421-.3012,3.5142,3.299,1.004,3.5142-2.4528,1.3339-3.7293-1.3938-.8162-1.8376-.6633-2.7505-1.7582-.5474-.6566-1.5251-4.3474-2.1586-6.0048a.72224.72224,0,0,0-1.2952.6395C12.8592,55.864,13.288,56.58478,14.1688,59.12328Z"/>
        <path class="cls-11" d="M20.9642,59.12328c-.5815.3635-1.4433.772-2.0248,1.1355a5.93188,5.93188,0,0,1,2.8085.3346,2.11292,2.11292,0,0,1,.3572,2.7761c-.543.8533-1.5018.8184-2.6635.8027,4.2025,1.4835,4.2183-2.5487,3.5427-3.4364.9898.4734,1.836,3.5859-1.463,3.4425,3.4425,1.1905,3.9301-1.7069,2.4241-3.5142,1.1618.2869,2.797,3.3421-.3013,3.5142,3.2991,1.004,3.5142-2.4528,1.334-3.7293-1.3938-.8162-1.8376-.6633-2.7505-1.7582-.5475-.6566-1.5252-4.3474-2.1587-6.0048a.72224.72224,0,0,0-1.2952.6395C19.6546,55.864,20.0833,56.58478,20.9642,59.12328Z"/>
      </g>
    </g>
  </g>
</svg>
