<svg xmlns="http://www.w3.org/2000/svg" width="70.86917" height="82.9828" viewBox="0 0 70.86917 82.9828">
  <defs>
    <style>
      .cls-1 {
        fill: #edaa31;
      }

      .cls-2 {
        fill: #f9b233;
      }

      .cls-3 {
        fill: #db9d2d;
      }

      .cls-4 {
        fill: #cbbba0;
      }

      .cls-5 {
        fill: #e94e1b;
      }

      .cls-6 {
        fill: #634e42;
      }

      .cls-7 {
        fill: #523d32;
      }

      .cls-8 {
        fill: #755c4e;
      }

      .cls-9 {
        fill: #fff;
      }
    </style>
  </defs>
  <g id="图层_2" data-name="图层 2">
    <g id="Layer_1" data-name="Layer 1">
      <g>
        <g>
          <path class="cls-1" d="M52.10677,77.91454c-.2443.0464-1.5792-1.5787-2.5694-1.8579a15.86368,15.86368,0,0,0-4.7473-.2372,7.08764,7.08764,0,0,1-4.7334-1.1701c-.9389-.7487-1.8958-2.0158-1.0639-3.1547.3384-.401.4418.394.5039.5848a2.84913,2.84913,0,0,0,1.0927,1.4421,7.02523,7.02523,0,0,0,4.3442.9209,15.00382,15.00382,0,0,1,4.7533.5076c1.1275.2957,2.4199,2.9645,2.4199,2.9645Z"/>
          <path class="cls-1" d="M51.55717,81.09794c-.239.0263-1.535-2.3384-2.2108-2.6046a12.18409,12.18409,0,0,0-4.2407-.8666,8.17436,8.17436,0,0,1-4.5326-1.3483c-.9728-.73-2.2865-2.0551-1.4874-3.308.4954-.7767.5341.2579.6636.6361a3.11773,3.11773,0,0,0,1.2936,1.5438,9.757,9.757,0,0,0,4.7369,1.0604,8.97,8.97,0,0,1,4.1774,1.1679C50.68247,77.76374,51.62107,81.08854,51.55717,81.09794Z"/>
          <g>
            <path class="cls-2" d="M44.31357,77.97124c-3.0668-.6601-3.0914-2.6655-3.0921-2.7035q-.0165-4.9164-.0252-9.8441c-.0055-1.3453-.0102-2.6968-.0087-4.0473-.004-.392-.5193-.1982-.8477-.1972-.7573-.0005-1.5156.0052-2.2729.0047-.0011,1.1801.003,2.3674.0081,3.5485-.0021.391-.0033.7759.0008,1.1679-.0011.1323-.0011.2586.004.3919-.0002.3787-.0014.7636-.0017,1.1422-.0026.2269.001.4546.0045.6824-.0045.3654-.002.7256-.0004,1.0919q.00015.3126.0005.625c.0025.3601-.0001.7132.0024,1.0734-.0005.1703-.0009.3407.0049.512-.0012.3848-.0015.7635.0035,1.1493q-.0006.2556-.0013.5111c-.002.391.0011.7891.0051,1.181-.0001.2371,0,.4721.0002.7073a1.50714,1.50714,0,0,1-.2563.0876,23.10619,23.10619,0,0,0-2.6327.4486c-1.4126.4555-1.8129,2.65-1.8129,2.65a11.55217,11.55217,0,0,1,2.0168-1.6996,21.57115,21.57115,0,0,0,3.4453-.4915c1.2276,3.4425,7.2216,3.5115,8.4855,4.2458.6009.3558,1.7441,2.7499,1.9937,2.7697,0,0-.5321-2.8849-1.0412-3.3752A7.55927,7.55927,0,0,0,44.31357,77.97124Z"/>
            <path class="cls-2" d="M49.337,82.97834l.0188.0018Z"/>
            <path class="cls-2" d="M49.35577,82.98014c.0238.0023.0479.0046,0,0Z"/>
            <path class="cls-2" d="M33.39567,78.15394c-.118.0314.1291-.0312,0,0Z"/>
          </g>
          <path class="cls-3" d="M39.64237,65.47354c.0079.241-.6426.4523-1.5665.4267-.0041-.392-.0029-.7768-.0008-1.1679C38.98257,64.95114,39.64717,65.19024,39.64237,65.47354Z"/>
          <path class="cls-3" d="M39.50737,67.08164c-.0372.2469-.6181.3739-1.4292.3528.0003-.3787.0015-.7636.0017-1.1423C38.95557,66.51254,39.54637,66.82244,39.50737,67.08164Z"/>
          <path class="cls-3" d="M39.25937,68.68544c.0178.2172-.4598.4546-1.1771.5232-.0016-.3663-.0041-.7265.0004-1.0919C38.76217,68.257,39.24017,68.43634,39.25937,68.68544Z"/>
          <path class="cls-3" d="M39.16507,70.40064c-.0027.2269-.4349.4142-1.0799.5064-.0026-.3602.0001-.7133-.0024-1.0734C38.73937,69.95784,39.17477,70.16864,39.16507,70.40064Z"/>
          <path class="cls-3" d="M39.54577,71.97924c.0254.25-.575.5066-1.4522.5891-.005-.3858-.0047-.7645-.0035-1.1493C38.92607,71.526,39.52927,71.71164,39.54577,71.97924Z"/>
          <path class="cls-3" d="M39.61747,73.68164c.0245.2562-.6105.5329-1.5201.5789-.004-.392-.0071-.7901-.005-1.1811C38.95737,73.20344,39.59757,73.39464,39.61747,73.68164Z"/>
        </g>
        <path class="cls-4" d="M70.86917,12.68324a25.69827,25.69827,0,0,1-5.6168.8383v-3.373A7.46534,7.46534,0,0,1,70.86917,12.68324Z"/>
        <path class="cls-5" d="M66.90977,5.09444a1.2665,1.2665,0,0,0-.9935.0382c.0972-1.2198-.4445-2.2522-1.3359-2.4172a1.86821,1.86821,0,0,0-1.7213.7941c-.2327-1.2633-1.0233-2.2038-2.0004-2.2261a2.12711,2.12711,0,0,0-1.8534,1.3569c-.7363-1.8137-2.3534-2.95-3.7257-2.5657-1.4441.4045-2.068,2.3381-1.3937,4.319s2.3917,3.2588,3.8358,2.8543a17.475,17.475,0,0,1,2.9679.1429c.5671.0129,2.12.4168,2.7201.5279a16.5225,16.5225,0,0,1,1.5364.8421c.7166.3158,1.7372-.249,2.2795-1.2614S67.62647,5.41034,66.90977,5.09444Z"/>
        <path class="cls-6" d="M65.10887,15.53214a7.9736,7.9736,0,0,1-4.1507,1.7493c.4619,2.2191,1.3919,5.378,2.3157,9.052C67,41.205,70.62627,64.43234,42.84537,67.04214a25.38249,25.38249,0,0,1-12.2583-1.9361,29.203,29.203,0,0,1-7.3525-4.4949,3.51756,3.51756,0,0,1-3.102,2.7116,3.62462,3.62462,0,0,1-4.1319-2.8361,3.06587,3.06587,0,0,1,.4431-2.089,3.69619,3.69619,0,0,1-1.5104.8492,3.74011,3.74011,0,0,1-4.6062-2.1455,3.11249,3.11249,0,0,1,1.0173-3.4646,3.99435,3.99435,0,0,1-3.7511-.4473,3.12146,3.12146,0,0,1-.5805-4.6703,3.60484,3.60484,0,0,1,1.2983-.9284.01952.01952,0,0,0-.0063-.017,3.60635,3.60635,0,0,1-.6116.0622,3.52683,3.52683,0,0,1-3.7637-3.2268,3.37756,3.37756,0,0,1,2.5965-3.2664,3.93009,3.93009,0,0,1-2.4155-.6906,3.122,3.122,0,0,1-.6553-4.6591,3.64573,3.64573,0,0,1,1.8787-1.1548,3.64973,3.64973,0,0,1-3.2019-2.2248,3.25535,3.25535,0,0,1,2.2656-4.2288c.0624-.0227.1249-.034.1873-.051a3.65426,3.65426,0,0,1-3.1083-2.0549,3.2234,3.2234,0,0,1,2.016-4.3307,2.48632,2.48632,0,0,1,.2934-.0963,4.04671,4.04671,0,0,1-.7365-.0453,3.36846,3.36846,0,0,1-2.996-3.8325,3.64185,3.64185,0,0,1,4.2255-2.7173,4.07541,4.07541,0,0,1,.5368.1245,27.02361,27.02361,0,0,1,3.5514,1.0813c9.406,3.6231,12.2334,11.2711,19.2613,13.6827a28.87451,28.87451,0,0,1,11.6467-2.3889c.8488,0,1.6914.0396,2.5153.1076,5.7235-6.0744,6.1104-14.7584,12.714-19.0835a8.38376,8.38376,0,0,1,5.2053-1.687c3.2144,0,5.9295,1.5738,6.8033,3.7363a3.97272,3.97272,0,0,1,.2996,1.4776v.0226A4.51266,4.51266,0,0,1,65.10887,15.53214Z"/>
        <path class="cls-7" d="M56.20847,38.74814c0,5.5478-6.5474,13.1506-16.9332,13.1506-10.3922,0-21.1588-6.6517-21.1588-6.6517s.6429-.6624,1.7539-1.704c3.67-3.4362,12.4706-11.0277,20.2599-12.5902,7.0342-1.4152,12.2147,1.0643,14.6114,4.0986A6.172,6.172,0,0,1,56.20847,38.74814Z"/>
        <path class="cls-6" d="M54.74167,35.05144c-1.5291,4.5289-5.8732,9.1936-12.9261,10.6428-9.1813,1.8852-20.0041-1.5001-21.9452-2.1512,1.0486-.9793,2.5154-2.304,4.263-3.7306,4.3565-3.5552,10.4358-7.7444,15.9969-8.8596,6.3913-1.285,11.2473.6397,13.8811,3.2778A8.97367,8.97367,0,0,1,54.74167,35.05144Z"/>
        <path class="cls-8" d="M54.01137,34.23064a17.59052,17.59052,0,0,1-12.9199,7.75c-6.0667.7472-12.614-.7813-16.9581-2.1682,4.3565-3.5552,10.4358-7.7444,15.9969-8.8596C46.52157,29.66784,51.37757,31.59254,54.01137,34.23064Z"/>
        <path class="cls-8" d="M42.84537,67.04214a25.38249,25.38249,0,0,1-12.2583-1.9361,29.203,29.203,0,0,1-7.3525-4.4949c29.3788,3.7533,43.8279-8.6614,37.7236-43.3297.4619,2.2191,1.3919,5.378,2.3157,9.052C67,41.205,70.62627,64.43234,42.84537,67.04214Z"/>
        <path class="cls-7" d="M42.84537,67.04214a25.38249,25.38249,0,0,1-12.2583-1.9361c24.6477,1.0926,36.8935-10.456,32.6868-38.7726C67,41.205,70.62627,64.43234,42.84537,67.04214Z"/>
        <path class="cls-8" d="M19.74277,55.41014c-9.5379-8.5923-10.4651-17.9925-11.3739-39.1522a24.4843,24.4843,0,0,1,4.645,2.3959c4.3788,2.8642,7.1236,6.5545,10.5385,9.0882a15.03427,15.03427,0,0,0,4.0759,2.2031C21.87247,33.204,12.09587,41.21814,19.74277,55.41014Z"/>
        <path class="cls-6" d="M15.96057,48.49774c-4.7919-8.5832-5.5354-17.1664-2.9467-29.8439,4.3788,2.8642,7.1236,6.5545,10.5385,9.0882C18.54017,31.54244,14.244,38.26214,15.96057,48.49774Z"/>
        <path class="cls-5" d="M66.81277,12.10724v.0226a4.51266,4.51266,0,0,1-1.7039,3.4023,6.36983,6.36983,0,0,1-1.885.2717,4.23167,4.23167,0,0,1-4.1381-2.4738c-.9362-2.1569-.3433-4.2232,1.835-4.8459,3.8947-1.1096,3.6076,1.5455,5.5924,2.1455A3.97272,3.97272,0,0,1,66.81277,12.10724Z"/>
        <path class="cls-5" d="M67.671,18.26264c0,2.133-2.2617,3.2701-4.1099,3.2701a3.63213,3.63213,0,0,1-3.3464-3.8621,3.63222,3.63222,0,0,1,3.3464-3.8622C65.40927,13.80844,67.671,16.12964,67.671,18.26264Z"/>
        <path class="cls-4" d="M64.58917,11.19224a1.54819,1.54819,0,0,1-3.0817,0,1.54819,1.54819,0,0,1,3.0817,0Z"/>
        <ellipse class="cls-6" cx="63.04837" cy="11.19224" rx="0.9335" ry="0.8467"/>
        <path class="cls-9" d="M62.88957,10.85024a.46757.46757,0,1,1-.4654-.4221A.44537.44537,0,0,1,62.88957,10.85024Z"/>
      </g>
    </g>
  </g>
</svg>
