<svg xmlns="http://www.w3.org/2000/svg" width="44.93634" height="123.0833" viewBox="0 0 44.93634 123.0833">
  <defs>
    <style>
      .cls-1 {
        fill: #dadada;
      }

      .cls-2 {
        fill: #f9b233;
      }

      .cls-3 {
        fill: #ededed;
      }

      .cls-4 {
        fill: #fff;
      }

      .cls-5 {
        fill: #3c3c3b;
      }

      .cls-6 {
        fill: #575756;
      }

      .cls-7 {
        fill: #f2e5ac;
      }

      .cls-8 {
        fill: #7b6a58;
      }
    </style>
  </defs>
  <g id="图层_2" data-name="图层 2">
    <g id="Layer_1" data-name="Layer 1">
      <g>
        <g>
          <path class="cls-1" d="M18.6237,69.2302c.9259,11.1154-1.6002,20.3991-5.6421,20.7358S4.9124,81.5648,3.9865,70.4495s1.6001-20.399,5.6421-20.7357S17.6977,58.1149,18.6237,69.2302Z"/>
          <ellipse class="cls-1" cx="32.60613" cy="69.83987" rx="20.19575" ry="7.34393" transform="translate(-38.64526 99.23388) rotate(-87.39163)"/>
        </g>
        <g>
          <path class="cls-2" d="M42.6799.9115c-9.6523,8.7823-4.6405,27.7428-11.3636,31.7837,1.1768,1.5969,2.8036,2.8083,4.4804,2.4476,2.9671-4.6827,3.4793-11.9447,3.6269-17.652S39.8025,5.669,42.6799.9115Z"/>
          <path class="cls-2" d="M32.9559,0c-6.762,11.1612,3.4263,27.9187-1.8731,33.702,1.5817,1.1972,3.4855,1.8969,4.9909,1.075,1.5157-5.3324-.0548-12.441-1.5335-17.9554S31.5475,5.3787,32.9559,0Z"/>
          <path class="cls-2" d="M23.8634,1.7182C20.3563,14.2879,34.6805,27.6833,31.134,34.6799c1.8457.7271,3.8676.8883,5.0961-.3085.0239-5.5436-3.4027-11.9668-6.3115-16.8794S23.9553,7.2775,23.8634,1.7182Z"/>
          <path class="cls-2" d="M15.8129,9.373c.5842,11.9228,16.884,19.4153,15.8253,26.512,1.8118.0983,3.6134-.3453,4.3343-1.7388-1.5794-4.8187-6.4077-9.405-10.3506-12.8294C21.679,17.8922,17.4974,14.1719,15.8129,9.373Z"/>
          <path class="cls-2" d="M8.7932,16.5355c4.3793,11.1843,22.3276,13.105,23.5928,20.213,1.7597-.487,3.3357-1.4877,3.5765-3.0478-3.0511-4.0897-9.1265-6.9161-13.9849-8.9182S11.9382,20.5725,8.7932,16.5355Z"/>
          <path class="cls-2" d="M6.3524,26.6784c7.3286,8.5822,23.854,4.7659,27.164,10.6872,1.4123-.9738,2.5037-2.347,2.2376-3.8062-3.967-2.6921-10.2302-3.3324-15.1594-3.6153S10.3864,29.295,6.3524,26.6784Z"/>
          <path class="cls-2" d="M11.428,34.5562c7.4041,5.2418,19.5286-.9922,23.2761,2.969.9085-1.0375,1.488-2.3229.9928-3.4074-3.6224-1.3153-8.6293-.5786-12.5263.1734S15.0878,35.7993,11.428,34.5562Z"/>
        </g>
        <path class="cls-3" d="M31.8989,96.8777v.0092c-.6518,2.9467-1.3127,5.9027-1.9553,8.8403H13.8787c-.6885-3.0386-1.3861-6.0771-2.0654-9.0973C8.9032,83.5944,6.4247,70.8344,7.0489,60.0755c.0551-1.0465.1468-2.0747.2662-3.0844A11.26339,11.26339,0,0,1,15.0078,47.6a21.90357,21.90357,0,0,1,13.9902.101,11.18682,11.18682,0,0,1,7.4908,9.3727c.1286,1.1199.2295,2.249.2846,3.4057C37.3242,71.4402,34.7263,84.0901,31.8989,96.8777Z"/>
        <path class="cls-3" d="M27.7033,123.0833H16.0925c-3.6672,0-6.4536-2.696-5.8409-5.6515l3.1119-15.0123H30.4323l3.1119,15.0123C34.1569,120.3873,31.3706,123.0833,27.7033,123.0833Z"/>
        <g>
          <path class="cls-3" d="M40.5716,31.4112c-.881-3.0982-26.2392-9.0269-25.9949,19.5073.2147,2.5245,18.6672,13.6673,19.4623,7.809C31.736,32.9029,41.6779,46.7875,40.5716,31.4112Z"/>
          <path class="cls-3" d="M33.5486,28.3835a5.83962,5.83962,0,0,0,.3143,6.5138c1.4167,1.8308,3.9791,3.6059,6.1847,2.9029,2.2301-4.2635,1.6457-10.3594.9344-15.1181s-1.4011-9.866.729-14.1803c-5.9588,3.7846-4.2969,15.1435-5.9732,17.6195C34.8574,27.4216,34.3856,27.0548,33.5486,28.3835Z"/>
          <path class="cls-3" d="M40.1019,33.4001c-.7777-1.5293-1.6369-2.9886-2.4547-4.313-2.5279-4.0941-5.1733-8.517-4.9144-13.3215-3.6414,5.3207,1.0466,13.9428,1.4556,17.6345Z"/>
          <path class="cls-3" d="M37.7145,33.4001c-.4644-.447-.9253-.878-1.3742-1.2906-3.5424-3.2562-7.287-6.7971-8.3394-11.4921-1.4643,4.3336,1.5584,9.1307,3.9365,12.7827Z"/>
        </g>
        <path class="cls-4" d="M36.3684,35.3066a2.48145,2.48145,0,1,1-2.4815-2.4814A2.48141,2.48141,0,0,1,36.3684,35.3066Z"/>
        <circle class="cls-5" cx="33.8869" cy="35.3066" r="1.5402"/>
        <path class="cls-4" d="M33.4317,34.6833a.6999.6999,0,1,1-.6999-.6998A.69989.69989,0,0,1,33.4317,34.6833Z"/>
        <path class="cls-5" d="M35.4297,39.7666c.2411,1.514-.4884,3.1326-1.5428,4.7864,3.0349,2.1191,5.9939,2.6214,8.7931-.283l.2056.1293C41.6184,41.6543,37.3323,42.6619,35.4297,39.7666Z"/>
        <path class="cls-6" d="M40.6579,35.8981a17.83547,17.83547,0,0,1-5.2308,3.8393c.0017.0097.0011.0196.0026.0292,1.9026,2.8953,6.1887,1.8877,7.4559,4.6327l.9808.6166C46.3526,40.457,44.1846,36.8823,40.6579,35.8981Z"/>
        <path class="cls-5" d="M39.6112,39.8103c0,.3572-.4246.6467-.9484.6467s-.9483-.2895-.9483-.6467.4246-.6466.9483-.6466S39.6112,39.4532,39.6112,39.8103Z"/>
        <path class="cls-7" d="M26.5469,116.8317q1.10115,1.21095,2.2022,2.4219-.06135-4.24275-.4715-8.4707a48.95652,48.95652,0,0,0-1.9593-10.4014,2.62779,2.62779,0,0,1-1.3081,1.3554,1.178,1.178,0,0,1-1.5533-.6939c-.2907,1.5003-2.2494,2.15-3.6887,1.6362A8.05824,8.05824,0,0,1,16.39,99.6795q-.6969,7.28925-1.3939,14.5786.82005-.9291,1.64-1.8584a41.38922,41.38922,0,0,0,.5044,5.8322c.0663.4187.2094.9177.6194,1.0255.4558.1197.8394-.3376,1.0893-.7371q1.2894-2.0613,2.5789-4.1226a26.02726,26.02726,0,0,0,1.1517,2.9009,2.9654,2.9654,0,0,0,2.4626,1.6676C26.0837,118.9401,27.0368,117.751,26.5469,116.8317Z"/>
        <path class="cls-7" d="M12.3732,98.1078c-.1927-.4865-.3763-.9822-.5599-1.4779C8.9032,83.5944,6.4247,70.8344,7.0489,60.0755a81.17449,81.17449,0,0,1,3.0844,15.5691c.1561-.459.3122-.9272.4682-1.3953a33.35427,33.35427,0,0,1,.2571,10.8047q.3579-.7986.716-1.5973A69.281,69.281,0,0,0,12.3732,98.1078Z"/>
        <path class="cls-7" d="M31.8989,96.8777c.6176-7.1995.5124-14.2998,1.5328-21.4534.1609-1.1285,1.3177-2.7736,1.4887-3.9008.5819-3.8355,1.1551-7.2258,1.853-11.0441C37.3242,71.4402,34.7263,84.0901,31.8989,96.8777Z"/>
        <path class="cls-6" d="M13.9506,88.0817a1.49524,1.49524,0,0,1,1.9515.8479,3.03182,3.03182,0,0,1-.0321,1.023c-.1467,1.4086.4232,2.7809.6616,4.177a1.35622,1.35622,0,0,1-.1915,1.1742,1.4599,1.4599,0,0,1-1.0816.3015,1.07608,1.07608,0,0,1-.5895-.1102,3.46231,3.46231,0,0,1-.3283-.3058.35865.35865,0,0,0-.4122-.0716,1.58389,1.58389,0,0,0,.224-1.1643q-.1458-2.10945-.2918-4.2189a1.1754,1.1754,0,0,0-.1384-.5699c-.0888-.1364-.235-.2372-.2869-.3914C13.3335,88.4704,13.6496,88.1887,13.9506,88.0817Z"/>
        <path class="cls-6" d="M27.0739,88.0817a1.49527,1.49527,0,0,1,1.9515.8479,3.03439,3.03439,0,0,1-.0321,1.023c-.1468,1.4086.4232,2.7809.6616,4.177a1.35655,1.35655,0,0,1-.1915,1.1742,1.4599,1.4599,0,0,1-1.0816.3015,1.07608,1.07608,0,0,1-.5895-.1102,3.43821,3.43821,0,0,1-.3283-.3058.35867.35867,0,0,0-.4122-.0716,1.58436,1.58436,0,0,0,.224-1.1643l-.2919-4.2189a1.17532,1.17532,0,0,0-.1383-.5699c-.0888-.1364-.2351-.2372-.287-.3914C26.4568,88.4704,26.7728,88.1887,27.0739,88.0817Z"/>
        <g>
          <rect class="cls-8" y="94.0431" width="43.8664" height="3.929"/>
          <path class="cls-5" d="M15.1645,92.9379a1.00083,1.00083,0,0,0-1.0857-.1801.91381.91381,0,0,0-.4991.9651,7.32462,7.32462,0,0,0,.4195.9039c.1878.5484-.0725,1.1419-.0791,1.7216-.0148,1.3169,1.2722,2.5035.9215,3.7729a12.08343,12.08343,0,0,0,.7755-5.6934A2.072,2.072,0,0,0,15.1645,92.9379Z"/>
          <path class="cls-5" d="M17.5743,92.9379a1.001,1.001,0,0,0-1.0858-.1801.91408.91408,0,0,0-.4991.9651,7.32462,7.32462,0,0,0,.4195.9039c.1878.5484-.0725,1.1419-.079,1.7216-.0149,1.3169,1.2721,2.5035.9215,3.7729a12.086,12.086,0,0,0,.7755-5.6934A2.07247,2.07247,0,0,0,17.5743,92.9379Z"/>
          <path class="cls-5" d="M12.9341,92.9379a1.00083,1.00083,0,0,0-1.0857-.1801.91381.91381,0,0,0-.4991.9651,7.32462,7.32462,0,0,0,.4195.9039c.1878.5484-.0725,1.1419-.0791,1.7216-.0148,1.3169,1.2722,2.5035.9215,3.7729a12.08343,12.08343,0,0,0,.7755-5.6934A2.072,2.072,0,0,0,12.9341,92.9379Z"/>
          <path class="cls-5" d="M30.3687,92.9379a1.00083,1.00083,0,0,0-1.0857-.1801.91381.91381,0,0,0-.4991.9651,7.32462,7.32462,0,0,0,.4195.9039c.1878.5484-.0725,1.1419-.0791,1.7216-.0148,1.3169,1.2722,2.5035.9215,3.7729a12.08473,12.08473,0,0,0,.7756-5.6934A2.07253,2.07253,0,0,0,30.3687,92.9379Z"/>
          <path class="cls-5" d="M32.7785,92.9379a1.001,1.001,0,0,0-1.0858-.1801.91408.91408,0,0,0-.4991.9651,7.3393,7.3393,0,0,0,.4195.9039c.1878.5484-.0725,1.1419-.079,1.7216-.0148,1.3169,1.2721,2.5035.9215,3.7729a12.086,12.086,0,0,0,.7755-5.6934A2.072,2.072,0,0,0,32.7785,92.9379Z"/>
          <path class="cls-5" d="M28.1384,92.9379a1.001,1.001,0,0,0-1.0858-.1801.91381.91381,0,0,0-.4991.9651,7.32462,7.32462,0,0,0,.4195.9039c.1878.5484-.0725,1.1419-.079,1.7216-.0149,1.3169,1.2721,2.5035.9214,3.7729a12.08473,12.08473,0,0,0,.7756-5.6934A2.07292,2.07292,0,0,0,28.1384,92.9379Z"/>
        </g>
        <path class="cls-7" d="M22.2071,88.4363a8.19708,8.19708,0,0,0,1.453-1.8957,13.9769,13.9769,0,0,1,.4137,1.4003,16.18878,16.18878,0,0,0,4.9831-8.7601,16.6879,16.6879,0,0,1-6.6193,13.5549,2.95955,2.95955,0,0,1-.1799-1.4745,3.08767,3.08767,0,0,1-.6338,1.3177,20.81336,20.81336,0,0,1-1.1179-1.8256,2.25688,2.25688,0,0,1-.6798,1.5016c-.5195-1.4536-2.1917-2.126-3.1152-3.3629a6.81666,6.81666,0,0,1-.9443-2.0692,19.06362,19.06362,0,0,1-1.014-7.5059,13.40555,13.40555,0,0,0,3.0628,7.0116l.4266-1.6852a14.21176,14.21176,0,0,0,2.4449,3.3231,2.51872,2.51872,0,0,1,.6714-1.4496A2.56439,2.56439,0,0,0,22.2071,88.4363Z"/>
      </g>
    </g>
  </g>
</svg>
