<svg xmlns="http://www.w3.org/2000/svg" width="88.38676" height="62.0388" viewBox="0 0 88.38676 62.0388">
  <defs>
    <style>
      .cls-1 {
        fill: #dadada;
      }

      .cls-2 {
        fill: #f39200;
      }

      .cls-3 {
        fill: #e68200;
      }

      .cls-4 {
        fill: #ededed;
      }

      .cls-5 {
        fill: #d98200;
      }

      .cls-6 {
        fill: #7d4e24;
      }

      .cls-7 {
        fill: #f6f6f6;
      }

      .cls-8 {
        fill: #3c3c3b;
      }

      .cls-9 {
        fill: #fff;
      }
    </style>
  </defs>
  <g id="图层_2" data-name="图层 2">
    <g id="Layer_1" data-name="Layer 1">
      <g>
        <path class="cls-1" d="M16.71474,39.705a26.79287,26.79287,0,0,1-2.5412-1.5931A30.55707,30.55707,0,0,1,2.019,20.0045a23.88265,23.88265,0,0,0,11.3851,4.1732q.87435,2.26155,1.7563,4.5074c-1.018-.7538-2.0361-1.5154-3.0541-2.2692a13.75657,13.75657,0,0,0,2.7899,7.0487q-2.5296-2.3898-5.0669-4.7639a26.59108,26.59108,0,0,0,4.7638,8.7195A25.64539,25.64539,0,0,0,16.71474,39.705Z"/>
        <g>
          <g>
            <path class="cls-2" d="M55.34414,57.7499c-3.1789.6645-4.858,2.1413-5.2986,4.2889l-11.5573-4.3294a1.34953,1.34953,0,0,1,.2894-2.6007l18.7411-2.5798C54.32444,54.0788,53.54654,55.815,55.34414,57.7499Z"/>
            <path class="cls-3" d="M42.36454,55.9392c1.3421.0496,2.6937.1685,4.0344.2614,2.323.161,4.7129.2835,7.0317.6784a3.1589,3.1589,0,0,1-.1495-1.6714,3.32791,3.32791,0,0,1,.3434-.9639L41.34514,55.934C41.69284,55.9327,42.03674,55.9271,42.36454,55.9392Z"/>
            <path class="cls-3" d="M45.61444,56.9339c-1.4457-.071-2.8804-.2035-4.3273-.2406-.2103-.0054-.4218-.0103-.633-.0197-.0089.0044-.0135.0116-.023.0156-.2327.0967-.2295.1039-.4558.2122l9.1375,3.6158a6.19555,6.19555,0,0,1,3.1023-3.0186C50.15964,57.1654,47.84394,57.0435,45.61444,56.9339Z"/>
            <path class="cls-2" d="M41.30284,55.7869c-.0715,1.4468-2.7583,1.7095-3.0011-.2233l-1.2094-9.6352a3.57426,3.57426,0,0,0,2.7454-.619Z"/>
          </g>
          <path class="cls-4" d="M57.63224,7.024a12.7394,12.7394,0,0,0,4.3004,14.8262c7.3377,5.9117,11.30449,8.5719,11.30449,8.5719-1.6226-10.4176-6.8683-11.7776-5.4759-16.3433C69.12373,9.611,57.63224,7.024,57.63224,7.024Z"/>
          <path class="cls-4" d="M23.54584,22.7944l-8.9527,14.6258-.4196.6917-2.5024,4.0877c-6.1006-3.536-13.0793-14.4859-11.424-23.5551.5829.4896,1.1735.9403,1.7719,1.36a23.88265,23.88265,0,0,0,11.3851,4.1732A21.03379,21.03379,0,0,0,23.54584,22.7944Z"/>
          <path class="cls-4" d="M73.88123,35.3929c0,8.8341-15.64579,14.8363-33.02849,14.8363S7.82424,43.8674,7.82424,35.0334s25.7486-17.3603,43.1313-17.3603S73.88123,26.5588,73.88123,35.3929Z"/>
          <path class="cls-1" d="M67.78693,22.2523a16.74616,16.74616,0,0,1,3.2447,10.2911c0,8.8341-15.64569,14.8362-33.02839,14.8362-11.6674,0-22.5442-2.8688-28.4406-7.4248,4.5298,6.1791,17.347,10.2744,31.2901,10.2744,17.3827,0,33.02849-6.0022,33.02849-14.8363A16.01468,16.01468,0,0,0,67.78693,22.2523Z"/>
          <path class="cls-1" d="M64.98223,33.3036c1.7689,9.2594-5.77929,14.1578-20.36449,14.8523-18.4019.8763-27.3646-9.1678-28.1483-15.0025C27.39334,37.7379,60.70844,10.9329,64.98223,33.3036Z"/>
          <path class="cls-4" d="M41.70514,44.2883c-11.0318,0-17.8944-4.3752-20.971-8.4024,4.4021-.4614,9.6592-2.4191,15.1842-4.4765,6.3924-2.3804,13.0023-4.842,17.9645-4.842,4.3487,0,6.4824,1.8852,7.3654,6.5067a7.003,7.003,0,0,1-1.1092,5.9537c-1.6544,2.1004-5.8342,4.7095-16.3499,5.2101C43.08974,44.2713,42.38894,44.2883,41.70514,44.2883Z"/>
          <path class="cls-1" d="M29.278,35.5212l17.17.6021a29.03149,29.03149,0,0,1-7.8329-3.7028,62.17511,62.17511,0,0,0,13.6864.1864q-3.71385-1.5723-7.4277-3.1445,5.346.31905,10.6919.6382-3.7668-1.3737-7.5337-2.7475a6.88764,6.88764,0,0,0-2.5489-.5754,6.87663,6.87663,0,0,0-2.5134.7523,110.0358,110.0358,0,0,1-15.1542,5.9009,53.674,53.674,0,0,1-9.1967,1.7121A35.19659,35.19659,0,0,0,33.403,36.9215Q31.34054,36.22145,29.278,35.5212Z"/>
          <path class="cls-4" d="M78.22023,9.0598c0,4.3991-4.8257,6.7115-10.459,6.7115s-10.2-3.5662-10.2-7.9653S64.16693,0,69.80023,0,78.22023,4.6606,78.22023,9.0598Z"/>
          <path class="cls-2" d="M87.68593,14.8559c-4.338,1.2206-8.4218.7813-13.895-.1469a2.39037,2.39037,0,0,0-.0339-2.2653.83288.83288,0,0,1,.7066-1.1968c2.0213-.1362,3.4666.0669,3.7566-2.1871,2.7722,2.8402,5.4475,3.6197,9.2723,3.8974a.96067.96067,0,0,1,.8827,1.1025l-.0026.0168A.96578.96578,0,0,1,87.68593,14.8559Z"/>
          <path class="cls-5" d="M87.68623,13.7388c-4.2675,1.2007-8.29589.7923-13.6362-.105a4.202,4.202,0,0,1-.2588,1.0752c5.4732.9282,9.557,1.3675,13.895.1469a.96577.96577,0,0,0,.6867-.7794l.0026-.0168a.94508.94508,0,0,0-.17219-.7021A.94688.94688,0,0,1,87.68623,13.7388Z"/>
          <path class="cls-6" d="M79.46693,11.6745c0,.1744-.2791.3157-.6234.3157s-.6233-.1413-.6233-.3157.27911-.3157.6233-.3157S79.46693,11.5002,79.46693,11.6745Z"/>
          <circle class="cls-7" cx="71.38303" cy="7.3855" r="1.5705"/>
          <path class="cls-8" d="M72.32763,7.3855a.97165.97165,0,1,1-.9716-.9716A.97169.97169,0,0,1,72.32763,7.3855Z"/>
          <path class="cls-9" d="M71.06883,6.9923a.44155.44155,0,1,1-.44149-.4415A.44148.44148,0,0,1,71.06883,6.9923Z"/>
        </g>
      </g>
    </g>
  </g>
</svg>
