<svg xmlns="http://www.w3.org/2000/svg" width="77.81241" height="80.80091" viewBox="0 0 77.81241 80.80091">
  <defs>
    <style>
      .cls-1 {
        fill: #e94e1b;
      }

      .cls-2 {
        fill: #d44719;
      }

      .cls-3 {
        fill: #c6c6c6;
      }

      .cls-4 {
        fill: #ededed;
      }

      .cls-5 {
        fill: #b2b2b2;
      }

      .cls-6 {
        fill: #575756;
      }

      .cls-7 {
        fill: #dadada;
      }

      .cls-8 {
        fill: #3c3c3b;
      }

      .cls-9 {
        fill: #fff;
      }

      .cls-10 {
        fill: #d64819;
      }

      .cls-11 {
        fill: #a33713;
      }
    </style>
  </defs>
  <g id="图层_2" data-name="图层 2">
    <g id="Layer_1" data-name="Layer 1">
      <g>
        <g>
          <path class="cls-1" d="M49.1953,74.771c-3.78369.2404-8.3268,1.1807-12.0919,1.4444a1.52964,1.52964,0,0,1-1.6184-1.4102,43.37649,43.37649,0,0,1-.2597-6.8627c-.8461-.0665-1.5758.2126-2.4219.1461a56.09031,56.09031,0,0,1,.3473,7.3824,1.389,1.389,0,0,1-.8494,1.1829,1.28677,1.28677,0,0,0-.0079,2.5425c6.3265.8044,11.9275.5852,18.1337,1.6005a.26582.26582,0,0,0,.2217-.4619c-1.4049-1.2608-1.8901-2.3059-.5595-2.9659a.26532.26532,0,0,0-.0255-.4851c-1.2948-.4707-1.1051-1.138-.6456-1.6786A.26722.26722,0,0,0,49.1953,74.771Z"/>
          <path class="cls-2" d="M50.6322,80.318a4.20418,4.20418,0,0,0-2.517-1.0859c-4.5654-.3242-9.36659-.1775-11.5465-1.9566a3.75779,3.75779,0,0,1-1.0799-2.4688,43.38984,43.38984,0,0,1-.2596-6.8628c-.8461-.0665-1.5758.2126-2.4219.1461a56.10947,56.10947,0,0,1,.34731,7.3824,1.38921,1.38921,0,0,1-.84941,1.1829,1.28677,1.28677,0,0,0-.008,2.5425c6.3237.804,11.9226.5854,18.1255,1.5992a.26816.26816,0,0,0,.2284-.4619Z"/>
        </g>
        <g>
          <path class="cls-3" d="M67.86061,10.65087a12.03068,12.03068,0,0,1-2.74371,1.6646,5.97043,5.97043,0,0,0-2.5569,2.1747,5.71472,5.71472,0,0,0-.8489,2.0144,5.85613,5.85613,0,0,0-.02649,2.316l2.56129,13.462a28.161,28.161,0,0,1-4.7281,21.7531,52.13628,52.13628,0,0,1-9.6528,10.2004,23.96842,23.96842,0,0,1-3.6693,2.44,24.94978,24.94978,0,0,1-18.7109,2.0843c-7.7737-2.1963-14.4493-8.5755-26.4589-10.9854l6.5112-4.4504,10.1434-6.9372a51.03908,51.03908,0,0,1,22.011-11.6061c.011-.0009.0215-.0073.0325-.0082.3902-.0993.7868-.188,1.1834-.2767l2.196-.4783a8.87691,8.87691,0,0,0,6.883-7.3324L52.537,9.97027a24.76728,24.76728,0,0,1,.6572-2.8451c1.3151-4.3673,3.5918-5.7933,7.5958-6.8223,4.39961-1.1287,8.2404.9669,9.2603,5.1266C70.4649,7.13267,69.8119,9.04187,67.86061,10.65087Z"/>
          <path class="cls-4" d="M38.1664,69.4a25.87282,25.87282,0,0,1-10.8855-.2682C19.5071,66.93557,12.00961,60.62267,0,58.21287l7.5371-4.8883,27.5586-2.3199C29.0228,57.63787,29.8307,68.94487,38.1664,69.4Z"/>
          <path class="cls-5" d="M41.7342,57.92947a15.59626,15.59626,0,0,1-4.3008,2.1057,25.65926,25.65926,0,0,1-5.9107,1.1286c-10.96709.901-29.1423-7.0896-29.1423-7.0896s4.2615-3.1652,9.8656-6.6869c.4995-.3132,1.0095-.6329,1.5305-.9535.5425-.328,1.0956-.6624,1.6546-.9918.3374-.2.6803-.4004,1.0177-.6004,4.8394-2.8097,10.08881-5.4159,14.2793-6.3997,10.7082-2.5287,14.7858.737,15.74851,8.754A11.20371,11.20371,0,0,1,41.7342,57.92947Z"/>
          <path class="cls-6" d="M31.7229,60.76267c-11.7314-.3777-21.1772-5.6063-21.8261-11.8722-4.40219,2.869-7.5183,5.1832-7.5183,5.1832s18.1766,7.9933,29.14411,7.0901a29.67713,29.67713,0,0,0,3.07209-.4118C33.6528,60.78727,32.69561,60.79407,31.7229,60.76267Z"/>
          <path class="cls-4" d="M41.7342,57.92947a15.59626,15.59626,0,0,1-4.3008,2.1057c-10.4303-.9431-18.9989-2.6518-23.0153-7.7549a10.692,10.692,0,0,1-2.1721-4.893c.4995-.3132,1.0095-.6329,1.5305-.9535a9.3847,9.3847,0,0,0,1.9394,4.824c3.6752,4.6668,12.3073,6.276,22.2901,7.1627-9.7449-1.7425-17.6181-4.1352-21.0281-9.2672a10.2953,10.2953,0,0,1-1.5468-3.7113c.3374-.2.6803-.4004,1.0177-.6004a9.36034,9.36034,0,0,0,1.4465,3.7031C21.45761,53.90737,30.93861,56.198,41.7342,57.92947Z"/>
          <path class="cls-7" d="M59.5178,54.03567a52.13628,52.13628,0,0,1-9.6528,10.2004,23.96842,23.96842,0,0,1-3.6693,2.44q2.8704-3.679,5.7466-7.3531c2.3386-2.9921,4.7294-6.0883,5.7505-9.739,1.0207-3.6562.34-8.0603-2.6316-10.4173-2.6448-2.0911-6.3047-2.1041-9.6548-2.5139a13.49718,13.49718,0,0,1-5.6824-1.8797c.3902-.0993.7868-.188,1.1834-.2767l2.196-.4783a8.85469,8.85469,0,0,0,5.6674-4.0196,12.17683,12.17683,0,0,0,2.7027-2.4804,33.52486,33.52486,0,0,0,3.4308-6.0621,15.25582,15.25582,0,0,1,4.133-5.5455,7.24452,7.24452,0,0,1,3.5227-1.4203,5.71472,5.71472,0,0,0-.8489,2.0144,5.85613,5.85613,0,0,0-.02649,2.316l2.56129,13.462A28.161,28.161,0,0,1,59.5178,54.03567Z"/>
          <path class="cls-5" d="M67.86061,10.65087a12.03068,12.03068,0,0,1-2.74371,1.6646,5.95187,5.95187,0,0,0-3.4058,4.1891,38.69153,38.69153,0,0,1-5.2372,13.4709c-2.1579,3.2316-6.1137,4.8986-9.9895,5.2138a27.36448,27.36448,0,0,1-6.7929-.408c.4012-.1001.8083-.1953,1.2159-.2849l2.196-.4783a8.87175,8.87175,0,0,0,6.883-7.3324L52.537,9.97027a24.76728,24.76728,0,0,1,.6572-2.8451,9.56474,9.56474,0,0,0,3.4867,3.7417C59.96861,12.771,64.3392,11.95477,67.86061,10.65087Z"/>
          <path class="cls-5" d="M66.58361,3.24917c.08509.2627-.24731.5233-.593.6861a5.96209,5.96209,0,0,1-3.63311.3117,7.1782,7.1782,0,0,1-2.91989-1.4125,3.221,3.221,0,0,0,1.83559-.0614,12.82771,12.82771,0,0,1,1.8018-.4702,5.9958,5.9958,0,0,1,2.9284.5327C66.2542,2.93517,66.521,3.056,66.58361,3.24917Z"/>
          <path class="cls-4" d="M64.5363,3.27137a.74869.74869,0,1,1-.8089-.6833A.74874.74874,0,0,1,64.5363,3.27137Z"/>
          <path class="cls-8" d="M64.3714,3.28527a.58325.58325,0,1,1-.6301-.5323A.58317.58317,0,0,1,64.3714,3.28527Z"/>
          <path class="cls-9" d="M63.59861,3.11347a.265.265,0,1,1-.28631-.2419A.265.265,0,0,1,63.59861,3.11347Z"/>
          <path class="cls-1" d="M76.6739,7.91427a6.95088,6.95088,0,0,1-6.346-3.5931c-.2662-.4696-.7669-1.3669-1.1035-1.9457a.99178.99178,0,0,0-.9425-.4892l-.0925.0078a1.07243,1.07243,0,0,0-.9664,1.1826l.0013.0151c.0595.707,1.3174,4.1471-.1718,5.5316a1.56407,1.56407,0,0,0-.5614,1.1434c.0166.9727.9894,1.0289,1.7322.9617,2.8754-.2602,4.8341-.3886,7.7095-.6489.67681-.0612,1.978-.1611,1.8737-1.1639A1.16551,1.16551,0,0,0,76.6739,7.91427Z"/>
          <path class="cls-10" d="M76.52961,9.30167c-3.513.1963-5.90351.2811-9.41651.4773-.1993.0111-.4117.0136-.6218.0042.0284.9552.9917,1.0123,1.7298.9455,2.8754-.2602,4.8341-.3887,7.70951-.6489.61439-.0556,1.73179-.1506,1.85689-.9162A8.21912,8.21912,0,0,1,76.52961,9.30167Z"/>
          <path class="cls-11" d="M71.68461,7.79287c-.09711.1784-.49661.1485-.89241-.0668s-.6381-.5344-.5411-.7128.4966-.1485.89251.0668S71.78161,7.61447,71.68461,7.79287Z"/>
        </g>
      </g>
    </g>
  </g>
</svg>
