<svg xmlns="http://www.w3.org/2000/svg" width="59.12095" height="127.43004" viewBox="0 0 59.12095 127.43004">
  <defs>
    <style>
      .cls-1 {
        fill: #7b6a58;
      }

      .cls-2 {
        fill: #333332;
      }

      .cls-3 {
        fill: #e6332a;
      }

      .cls-4 {
        fill: #1d71b8;
      }

      .cls-5 {
        fill: #36a9e1;
      }

      .cls-6 {
        fill: #f9b233;
      }

      .cls-7 {
        fill: #1d1d1b;
        opacity: 0.2;
      }

      .cls-8 {
        fill: #e94e1b;
      }

      .cls-9 {
        fill: #f6f6f6;
      }

      .cls-10 {
        fill: #3c3c3b;
      }

      .cls-11 {
        fill: #be1622;
      }

      .cls-12 {
        fill: #dadada;
      }

      .cls-13 {
        fill: #ededed;
      }

      .cls-14 {
        fill: #fff;
      }
    </style>
  </defs>
  <g id="图层_2" data-name="图层 2">
    <g id="Layer_1" data-name="Layer 1">
      <g>
        <path class="cls-1" d="M53.17592,80.61664C47.99822,77.92534,3.815,54.959,3.815,54.959c-5.8739-2.4732-4.2338-9.5957,0-8.1932,0,0,47.3956,24.6518,51.8951,26.5548C62.18973,76.061,58.35352,83.30794,53.17592,80.61664Z"/>
        <g>
          <path class="cls-2" d="M35.75732,71.56254c-.845-.8388-2.0602-1.994-1.7747-3.4839a3.47862,3.47862,0,0,1,3.1597-2.7874,6.68226,6.68226,0,0,1,3.11041.2973c2.40009,1.2282,2.95139,1.565,4.47859,2.2859.8191-1.5927-1.24959-2.5597-2.6434-3.3923a14.70722,14.70722,0,0,0-5.0694-.9584,4.40848,4.40848,0,0,0-1.4785.6288,5.43164,5.43164,0,0,0-2.2174,2.6048,4.62466,4.62466,0,0,0-.0732,3.283C33.86662,71.74674,35.00342,71.88554,35.75732,71.56254Z"/>
          <path class="cls-2" d="M39.26152,63.70674a9.73488,9.73488,0,0,1-3.3755-3.2965c-.1749-.2845-.3349-.5778-.4949-.8709-.118-.2163-.2361-.4326-.34739-.6525a5.64989,5.64989,0,0,1-.55581-1.5241,19.76948,19.76948,0,0,1-2.8445,1.3883c.788,1.2936,4.7162,5.0522,4.9179,5.9966A6.19581,6.19581,0,0,1,39.26152,63.70674Z"/>
        </g>
        <ellipse class="cls-3" cx="32.11084" cy="46.97344" rx="17.70129" ry="13.60436" transform="translate(-21.86022 64.99383) rotate(-74.1073)"/>
        <path class="cls-4" d="M28.15332,106.63994c0,.7289-.7289,0-.7289-1.4579-2.9158,2.1868,0,6.5605-2.9158,8.7473-.729-1.4579-.729-3.6447-1.45789-3.6447a2.82738,2.82738,0,0,0-.67651-.3562q.24585,3.7149.51251,7.4285a31.45764,31.45764,0,0,0,1.54549,8.9967c.6302,1.0619,1.29651,1.7446,2.1891.05q2.5458-13.94145,4.0491-28.0465.32865-3.0846.6152-6.1734c-.073-.0408-.1371-.0831-.2165-.1227A103.21727,103.21727,0,0,0,28.15332,106.63994Z"/>
        <path class="cls-3" d="M34.64173,55.08084c.285-3.1581.555-6.4391-.54071-9.4146s-3.9795-5.5469-7.1311-5.1971c-3.7249.4133-5.9203,4.4522-6.5866,8.1403a47.09928,47.09928,0,0,0-.4134,9.6452q.69585,25.85715,2.4043,51.6738a2.82738,2.82738,0,0,1,.67651.3562c.72889,0,.72889,2.1868,1.45789,3.6447,2.9158-2.1868,0-6.5605,2.9158-8.7473,0,1.4579.7289,2.1868.7289,1.4579a103.21727,103.21727,0,0,1,2.9158-14.5789c.0794.0396.1435.0819.2165.1227q.2856-3.0309.5554-6.0633Q33.24127,70.60054,34.64173,55.08084Z"/>
        <path class="cls-5" d="M19.34152,58.52944q.72885,14.76105,1.7878,29.5032a31.46053,31.46053,0,0,0,1.5456,8.9966c.8627,2.5732,1.5571,1.9118,2.189.05q2.54595-13.9413,4.0492-28.0465c.37261-3.4976.69461-7.0002,1.0118-10.5033Z"/>
        <path class="cls-3" d="M51.53792,4.45624a5.58836,5.58836,0,0,0-2.4274-2.9814,13.14675,13.14675,0,0,0-6.2033-1.4141c-4.29349-.2041-18.0341-1.0643-19.441,21.2561,1.0222,14.6891-13.5023,14.5348-14.0664,46.2276a1.77227,1.77227,0,0,0,1.9084,1.7975c32.4168-2.5916,43.2694-35.1048,31.56251-48.0251-.62681-1.4434-.05831-3.7104-2.25971-5.5473a3.36529,3.36529,0,0,0-.554-.3791,2.20225,2.20225,0,0,0-.2259-.1166c.0291-.0292.0655-.0511.0947-.0802,1.6911-1.4142,1.4287-.7727,2.5221-2.0848a6.82549,6.82549,0,0,1,2.1942-1.6401c1.7422-.8966,3.8051-1.4215,5.2702-2.4565a4.174,4.174,0,0,0,1.6621-2.1286A3.79073,3.79073,0,0,0,51.53792,4.45624Z"/>
        <path class="cls-6" d="M19.406,42.49264c2.1868-2.9158,3.64471-2.9158,6.5605-2.1868-2.1869,3.6447-2.91579,8.0184-3.6447,12.3921.72891-.729,1.4578-2.1869,2.9157-2.9158v2.9158c3.6448-.729,4.3737-3.6448,8.0184-1.4579,1.4579-2.1869,2.91581-3.6447,4.3737-5.8316.729.729.729,1.4579.729,2.9158,2.9157,0,2.1868-5.1026,5.1026-2.9158,1.5026-4.508,2.3171-9.0159,3.862-13.2874a21.098,21.098,0,0,0-1.4004-5.8763c-2.211,5.0938-6.4692,10.2799-11.209,9.6874.729-1.4579-1.4579-1.4579-.7289-2.9158h-2.9158v-2.9157c-4.3737.7289-5.1026,5.1026-8.7473,6.5605,0-2.1869,2.1868-3.6448,0-5.8316a10.66694,10.66694,0,0,1-2.1696,2.3589c-1.3799,2.2237-3.0221,4.5153-4.6032,7.3838A30.36841,30.36841,0,0,1,19.406,37.39Z"/>
        <path class="cls-4" d="M43.46122,45.40844c-2.9158-2.1868-2.1869,2.9158-5.1026,2.9158,0-1.4579,0-2.1868-.729-2.9158-1.45789,2.1869-2.9158,3.6447-4.3737,5.8316-3.6447-2.1869-4.3736.7289-8.0184,1.4579v-2.9158c-1.4579.7289-2.18679,2.1868-2.9157,2.9158.72891-4.3737,1.4578-8.7474,3.6447-12.3921-2.91579-.729-4.3737-.729-6.5605,2.1868V37.39a30.36841,30.36841,0,0,0-3.857,3.1822c-3.0681,5.5661-5.906,13.3087-6.1492,26.9722a1.77227,1.77227,0,0,0,1.9084,1.7975c25.3094-2.0234,37.4693-22.284,36.015-37.2209C45.77832,36.39254,44.96382,40.90044,43.46122,45.40844Z"/>
        <path class="cls-3" d="M51.53792,4.45624a5.58836,5.58836,0,0,0-2.4274-2.9814,13.14675,13.14675,0,0,0-6.2033-1.4141c-4.29349-.2041-18.0341-1.0643-19.441,21.2561.3544,5.0928-1.16049,8.4014-3.314,11.8716a10.66694,10.66694,0,0,0,2.1696-2.3589c2.1868,2.1868,0,3.6447,0,5.8316,3.6447-1.4579,4.3736-5.8316,8.7473-6.5605v2.9157h2.9158c-.729,1.4579,1.4579,1.4579.7289,2.9158,4.7398.5925,8.998-4.5936,11.209-9.6874a16.53986,16.53986,0,0,0-3.05209-4.9279c-.62681-1.4434-.05831-3.7104-2.25971-5.5473a3.36529,3.36529,0,0,0-.554-.3791,2.20225,2.20225,0,0,0-.2259-.1166c.0291-.0292.0655-.0511.0947-.0802,1.6911-1.4142,1.4287-.7727,2.5221-2.0848a6.82549,6.82549,0,0,1,2.1942-1.6401c1.7422-.8966,3.8051-1.4215,5.2702-2.4565a4.174,4.174,0,0,0,1.6621-2.1286A3.79073,3.79073,0,0,0,51.53792,4.45624Z"/>
        <path class="cls-7" d="M19.77052,66.74044a13.6267,13.6267,0,0,1,4.7306-5.2689q-.06345,1.3674-.127,2.7349c3.6183-3.1562,7.3967-6.5503,8.8383-11.1303a44.94068,44.94068,0,0,1-8.4691,5.4132,17.43085,17.43085,0,0,1,1.3542-4.176A12.31477,12.31477,0,0,0,22.56073,56.89q-.12017-1.43535-.24051-2.8706-1.98045,1.6311-3.9609,3.2624A68.98988,68.98988,0,0,1,22.41,42.716a5.322,5.322,0,0,0-2.1268,1.8336,35.70753,35.70753,0,0,0-4.7604,8.0187q.9588-5.5239,1.4401-11.1167a27.10757,27.10757,0,0,0-3.1053,9.1427q-1.12515,5.721-1.6883,11.5334a7.63587,7.63587,0,0,0,.319,3.8829,17.52185,17.52185,0,0,1,2.2491-6.0047q.1263,2.0409.2527,4.0818c.0287.4648.1665,1.0555.6277,1.1201a19.12187,19.12187,0,0,1,4.53691-6.6676A38.60559,38.60559,0,0,1,19.77052,66.74044Z"/>
        <path class="cls-8" d="M31.04432,5.66514c.4258-.3578,1.0262-.4414,1.4703-.7763.4669-.3521.7028-.9357,1.1325-1.3325a3.673,3.673,0,0,1,1.4695-.7108q1.4583-.4425,2.9435-.7891a.9087.9087,0,0,1,.7258.0376.81549.81549,0,0,1,.2716.4631,5.15954,5.15954,0,0,1-.0966,2.8611,15.38921,15.38921,0,0,1-1.1577,2.6556l-1.4841,2.8932a3.86186,3.86186,0,0,0-2.7637-1.8688,4.63246,4.63246,0,0,1-1.0112-.173.87414.87414,0,0,1-.6134-.7469,1.42354,1.42354,0,0,1-.8865-2.5132Z"/>
        <path class="cls-9" d="M44.64212,11.46874a6.82549,6.82549,0,0,0-2.1942,1.6401c-1.0934,1.3121-.831.6706-2.5221,2.0848a6.128,6.128,0,0,0-1.41409-1.0716,7.54159,7.54159,0,0,1-3.34591-6.8083c.2187-2.6461,1.3097-4.9738,4.3256-5.6388.3868-.0853,4.5772-.0012,4.1438,6.5635C43.49712,10.331,45.72822,9.66824,44.64212,11.46874Z"/>
        <path class="cls-10" d="M48.43792,9.50074a9.5944,9.5944,0,0,0-4.2505-2.7872c-1.2729,4.556-4.1649,4.5017-4.3596,8.5592a12.2045,12.2045,0,0,0,3.1168,1.4897,5.492,5.492,0,0,0,3.4075-.0495,4.50918,4.50918,0,0,0,1.2613-.7361,4.75863,4.75863,0,0,0,.8245-6.4761Z"/>
        <path class="cls-11" d="M48.08122,3.65384c-2.1022-.1134-3.4932.2047-4.4067,2.325a3.52,3.52,0,0,0-.0894.4237,4.61084,4.61084,0,0,0,1.057,3.4844.551.551,0,0,0,.2697.2114c.17491.051.3426-.0656.4957-.1531a7.4662,7.4662,0,0,1,2.9668-.5978,9.178,9.178,0,0,0,1.538-.3352,4.174,4.174,0,0,0,1.6621-2.1286,3.65232,3.65232,0,0,0,.1044-1.881A6.38085,6.38085,0,0,0,48.08122,3.65384Z"/>
        <path class="cls-12" d="M43.92722,7.20044a6.542,6.542,0,0,0-.0927,3.5961c.6108,2.9783,2.421,3.0243,2.3515,8.8125,7.7209-5.6964,6.7875-10.5506,4.73371-13.1154C49.90112,5.22154,45.34432,3.37254,43.92722,7.20044Z"/>
        <g>
          <path class="cls-13" d="M41.78832,3.63394a1.74645,1.74645,0,1,1-1.7465-1.7465A1.74643,1.74643,0,0,1,41.78832,3.63394Z"/>
          <circle class="cls-10" cx="40.04182" cy="3.63394" r="1.084"/>
          <path class="cls-14" d="M39.72142,3.19524a.49255.49255,0,1,1-.4926-.4925A.49254.49254,0,0,1,39.72142,3.19524Z"/>
        </g>
      </g>
    </g>
  </g>
</svg>
