<svg xmlns="http://www.w3.org/2000/svg" width="112.97003" height="80.5491" viewBox="0 0 112.97003 80.5491">
  <defs>
    <style>
      .cls-1 {
        fill: #ededed;
      }

      .cls-2 {
        fill: #dedede;
      }

      .cls-3 {
        fill: #f39200;
      }

      .cls-4 {
        fill: #dadada;
      }

      .cls-5 {
        fill: #b2b2b2;
      }

      .cls-6 {
        fill: #9d9d9c;
      }

      .cls-7 {
        fill: #878787;
      }

      .cls-8 {
        fill: #de7a00;
      }

      .cls-9 {
        fill: #ba6600;
      }

      .cls-10 {
        fill: #f6f6f6;
      }

      .cls-11 {
        fill: #3c3c3b;
      }

      .cls-12 {
        fill: #fff;
      }
    </style>
  </defs>
  <g id="图层_2" data-name="图层 2">
    <g id="Layer_1" data-name="Layer 1">
      <g>
        <path class="cls-1" d="M3.97214,60.4504l37.4998-9.6385,1.8131,2.5575c-12.0593,8.2394-30.002,9.0059-39.1224,8.7983A.87207.87207,0,0,1,3.97214,60.4504Z"/>
        <path class="cls-2" d="M.71984,57.7289l38.0958-6.917,1.6245,2.6813C27.81954,60.844,9.86824,60.3183.78634,59.4554A.872.872,0,0,1,.71984,57.7289Z"/>
        <g>
          <path class="cls-3" d="M64.03164,79.6011l9.8173.948c-.1667-1.2519.7176-2.2358,3.651-2.6968a68.2331,68.2331,0,0,0-12.4227,0l.1038-10.4132.1879-6.3343h-1.6562l-.2789,6.4708s.0856,10.2738-.4086,10.5985l-3.25,1.3542,3.7494.0641A2.45489,2.45489,0,0,1,64.03164,79.6011Z"/>
          <path class="cls-3" d="M63.02524,67.6209c0,1.1678.6343,2.1145,1.4167,2.1145s1.4166-.9467,1.4166-2.1145-.6342-2.1144-1.4166-2.1144S63.02524,66.4532,63.02524,67.6209Z"/>
        </g>
        <path class="cls-1" d="M62.38674,33.829l12.1687-16.7117L80.71124,4.925l.0038.0004C81.65574,2.1066,85.36083,0,89.79723,0c5.1471,0,9.3197,2.8331,9.3197,6.3278,0,2.2122-1.6737,4.1562-4.2075,5.2854a7.81474,7.81474,0,0,0-4.6521,5.853L88.18454,36.2628Z"/>
        <path class="cls-4" d="M92.93633,6.3175q-1.4286.5004-2.857,1.001a.86753.86753,0,0,1-.6439.0511.88921.88921,0,0,1-.3312-.3542,13.79868,13.79868,0,0,0-2.6713-3.047c1.4538-1.4684,7.1287-1.0742,8.5042-.5541a1.27863,1.27863,0,0,1,.52541.3205.96724.96724,0,0,1,.06319,1.0687,2.07189,2.07189,0,0,1-.8228.766A10.10032,10.10032,0,0,1,92.93633,6.3175Z"/>
        <path class="cls-1" d="M10.47,52.5s76,26.5,77.71-13.51V31.25l-19.02-5.8c-.47.28-.94.57-1.4.85C48.52,37.91,29.45,47.41,10.68,52.44Z"/>
        <path class="cls-4" d="M10.68,52.44c22.64,4.77,55.95,7.26,57.08-19.08V26.3C48.52,37.91,29.45,47.41,10.68,52.44Z"/>
        <path class="cls-5" d="M20.22,48.08s55.11,15.23,56.17-9.33a20.11145,20.11145,0,0,0-.47-4.5c-1-4.42-3.6-7.58-7.96-8.07a1.86465,1.86465,0,0,0-.2.1c-5.96,2.79-12.87,6.33-19.77,9.77-2.78,1.39-5.55,2.77-8.26,4.07C32.32,43.68,25.39,46.7,20.22,48.08Z"/>
        <path class="cls-6" d="M39.73,40.12c8.71,1.51,18.14,1.79,29.11-4.3.93-.51,1.83-1.04,2.69-1.62-.21-3.39-1.41-6.22-3.77-7.92-5.96,2.79-12.87,6.33-19.77,9.77C45.21,37.44,42.44,38.82,39.73,40.12Z"/>
        <path class="cls-7" d="M37.89,44.91c11.03.55,22.91,1.42,35.64-8.63.83-.65,1.63-1.32,2.39-2.03-1-4.42-3.6-7.58-7.96-8.07C61.97,35.8125,39.27,44.54,37.89,44.91Z"/>
        <path class="cls-3" d="M97.67693,9.7047c1.6908-1.3324,9.9448-.8438,15.2931-.8816V8.7894a3.34128,3.34128,0,0,0-3.3412-3.3413c-4.036.0481-9.6071-.007-10.8805-.8815-.2887,1.0732-2.238,1.8037-4.0552,2.2592a.92411.92411,0,0,0-.0922,1.7665Z"/>
        <path class="cls-3" d="M93.99554,7.7185a.90623.90623,0,0,1,.69759-.8927c1.8172-.4555,3.7665-1.1861,4.0552-2.2592,1.2733.8745,6.8445.9296,10.8805.8815A3.34128,3.34128,0,0,1,112.97,8.7894v.0337c-.2316.0017-.4751.0012-.7169.0011C106.16723,5.4022,100.08143,7.4369,93.99554,7.7185Z"/>
        <path class="cls-8" d="M112.25313,8.8242c-5.3405-.0034-12.95859-.3942-14.5762.8805l-3.076-1.1124a.89921.89921,0,0,1-.60539-.8738C100.08143,7.4369,106.16723,5.4022,112.25313,8.8242Z"/>
        <path class="cls-9" d="M99.65754,6.0625c0,.1208.39179.2188.875.2188s.875-.098.875-.2188-.39171-.2187-.875-.2187S99.65754,5.9417,99.65754,6.0625Z"/>
        <g>
          <circle class="cls-10" cx="92.63403" cy="4.5186" r="1.1522"/>
          <circle class="cls-11" cx="92.63403" cy="4.5186" r="0.8186"/>
          <path class="cls-12" d="M92.876,4.1874a.372.372,0,1,0,.3719-.372A.372.372,0,0,0,92.876,4.1874Z"/>
        </g>
        <path class="cls-1" d="M61.345,59.9375c0,2.2437,1.3865,4.0625,3.0969,4.0625s3.0968-1.8188,3.0968-4.0625-1.3865-4.0625-3.0968-4.0625S61.345,57.6939,61.345,59.9375Z"/>
      </g>
    </g>
  </g>
</svg>
