<svg xmlns="http://www.w3.org/2000/svg" width="106.11895" height="82.92558" viewBox="0 0 106.11895 82.92558">
  <defs>
    <style>
      .cls-1 {
        fill: #7a9e19;
      }

      .cls-2 {
        fill: #634e42;
      }

      .cls-3 {
        fill: #3c3c3b;
      }

      .cls-4 {
        fill: #95c11f;
      }

      .cls-5 {
        fill: #7b6a58;
      }

      .cls-6 {
        fill: #ededed;
      }

      .cls-7 {
        fill: #e6332a;
      }

      .cls-8 {
        fill: #fff;
      }
    </style>
  </defs>
  <g id="图层_2" data-name="图层 2">
    <g id="Layer_1" data-name="Layer 1">
      <g>
        <path class="cls-1" d="M65.9552,26.7759A46.16432,46.16432,0,0,1,60.3317,35.64c-2.4912,2.9133-5.48539,5.0961-8.3063,3.7143C29.3278,28.2059,21.4928,13.6476,13.8445,0A180.04721,180.04721,0,0,1,38.324,9.6951,147.3614,147.3614,0,0,1,65.9552,26.7759Z"/>
        <path class="cls-2" d="M54.3068,51.0569,49.3536,76.014l-1.2069,6.0678c-2.0116,1.3059-3.6407,1.352-4.3266-1.7148-2.282,1.3784-3.6407.7716-4.1552-1.6423-2.0709,1.2334-3.7264.9168-4.7289-1.8731-2.3018,1.0487-3.9968.8508-4.5113-1.7874-2.5392,1.3323-4.3002,1.24-4.4783-1.7741l3.2186-4.5047L44.1367,47.8119Z"/>
        <path class="cls-3" d="M54.3068,51.0569,49.3536,76.014c-1.7016.9695-3.0537.8112-3.6538-1.8533-2.137,1.2927-3.4099.7255-3.8979-1.5434-1.9391,1.1542-3.49559.864-4.4322-1.7544-2.1567.9894-3.7528.7981-4.2343-1.6752-1.9522,1.0289-3.423,1.1476-3.9704-.4023L44.1367,47.8119Z"/>
        <path class="cls-4" d="M77.6085,19.9264a5.50032,5.50032,0,0,1-.8838,2.8493,7.83016,7.83016,0,0,1-.9827,1.2992,1.32155,1.32155,0,0,1-.0924.1056.023.023,0,0,1-.0132.0066,11.14515,11.14515,0,0,1-2.5062,1.9786,7.39242,7.39242,0,0,0-1.728,3.245,14.96821,14.96821,0,0,0-.4024,3.0998c.0528.5276.0792,1.0751.0792,1.6357,0,.2242-.0066.4551-.0198.6859a19.22662,19.22662,0,0,1-.3694,3.1394,24.99389,24.99389,0,0,1-6.98449,12.5709c-4.907,5.0126-12.70941,9.7612-24.69991,13.1843-3.0339.864,3.1526-12.129,9.5436-24.8582.8112-1.6093,1.6291-3.0867,2.4601-4.4189a38.5229,38.5229,0,0,1,2.50621-3.5879A51.29663,51.29663,0,0,1,57.189,25.4468q.4749-.643.8508-1.2465c.099-.1583.1913-.31.277-.4617a.30829.30829,0,0,0,.033-.066,8.23936,8.23936,0,0,0,.48151-1.0421,6.39438,6.39438,0,0,0,.38909-1.5169c.0066-.0396.0132-.0858.0198-.1451a8.83926,8.83926,0,0,1,.5606-2.4535c1.2268-2.6448,4.3464-4.5838,8.0794-4.5838,3.245,0,6.6086,1.0354,8.4092,2.902A4.40089,4.40089,0,0,1,77.6085,19.9264Z"/>
        <path class="cls-5" d="M57.62431,25.3215A46.16434,46.16434,0,0,1,54.8015,35.4323c-1.5434,3.5088-3.77919,6.4635-6.8791,5.9556C22.9719,37.2724,11.265,25.5985,0,14.7424a180.03438,180.03438,0,0,1,26.2366,2.2095A147.3597,147.3597,0,0,1,57.62431,25.3215Z"/>
        <path class="cls-6" d="M70.9998,32.5105c.0528.5276.0792,1.0751.0792,1.6357a19.80359,19.80359,0,0,1-.3892,3.8253,24.99389,24.99389,0,0,1-6.98449,12.5709c0-.033.00659-.0593.00659-.0923.1385-1.5895.6661-3.1197.9167-4.6894a6.252,6.252,0,0,0-.7518-4.6036c-.5606-.7848-1.3917-1.3389-2.0314-2.071-2.3942-2.7239-1.5302-6.9779-2.8229-10.368a17.51876,17.51876,0,0,0-1.8335-3.2713,17.26221,17.26221,0,0,0,1.1278-1.7082c.7519.5936,1.4642,1.2597,2.20951,1.8467A17.91655,17.91655,0,0,0,71.4022,29.4107,14.96821,14.96821,0,0,0,70.9998,32.5105Z"/>
        <path class="cls-3" d="M77.6085,19.9264a5.50032,5.50032,0,0,1-.8838,2.8493,7.83016,7.83016,0,0,1-.9827,1.2992c-.277.0528-.56069.0858-.8311.1187q-5.26305.6036-10.5197,1.2004a9.44094,9.44094,0,0,1-2.3612.0726,7.44627,7.44627,0,0,1-2.7634-1.0817,3.6004,3.6004,0,0,1-.9168-.7123,8.23936,8.23936,0,0,0,.48151-1.0421,6.39438,6.39438,0,0,0,.38909-1.5169c.0066-.0396.0132-.0858.0198-.1451a22.04643,22.04643,0,0,0,10.23611,1.1212,2.81,2.81,0,0,0,1.22669-.3759,1.021,1.021,0,0,0,.4354-1.1212c-.83109-.5936-1.9655-.2836-2.9746-.1187s-2.3216-.0265-2.6118-1.0092a1.68727,1.68727,0,0,1,.6266-1.6686,4.61619,4.61619,0,0,1,3.8781-.6266,10.54987,10.54987,0,0,0,4.01661.3562c.73209-.1583,1.49059-.5144,2.21609-.6925A4.40089,4.40089,0,0,1,77.6085,19.9264Z"/>
        <path class="cls-7" d="M76.7247,22.7757a8.55141,8.55141,0,0,1-1.0751,1.4048.023.023,0,0,1-.0132.0066,11.14515,11.14515,0,0,1-2.5062,1.9786,7.39242,7.39242,0,0,0-1.728,3.245,14.96821,14.96821,0,0,0-.4024,3.0998c.0528.5276.0792,1.0751.0792,1.6357,0,.2242-.0066.4551-.0198.6859h-.0461a4.59413,4.59413,0,0,1-3.2121-2.1237,13.77172,13.77172,0,0,0-2.5326-3.0405c-1.2004-.8904-2.803-1.1542-3.9045-2.1699a9.73111,9.73111,0,0,1-2.1699-2.0116,7.91951,7.91951,0,0,0-1.1542-1.2861c.099-.1583.1913-.31.277-.4617a8.02149,8.02149,0,0,0,.51451-1.1081,10.0589,10.0589,0,0,1,.96949.5409,9.24553,9.24553,0,0,0,5.6589.831c1.9324-.2374,3.8055-.7849,5.7248-1.0685C72.03531,22.8152,75.9069,22.4789,76.7247,22.7757Z"/>
        <path class="cls-3" d="M36.6439,20.5646a.935.935,0,0,1-.922.9035l-24.8184-.7188c-2.0569-.0595-3.7907-1.042-3.7126-2.1898h0c.0781-1.1477,1.9292-1.8862,3.9752-1.6664l24.6867,2.6514a.93489.93489,0,0,1,.7911,1.0201Z"/>
        <path class="cls-3" d="M43.8964,21.8053a.935.935,0,0,1-.7962,1.0161L18.4004,25.3489c-2.047.2095-3.8943-.5383-3.9667-1.6864h0c-.07239-1.1481,1.6664-2.1219,3.72361-2.1711l24.82159-.5942a.93494.93494,0,0,1,.9175.9081Z"/>
        <path class="cls-3" d="M43.088,21.9421,24.12031,25.5457c-2.02151.3841-3.57831,1.6284-3.31961,2.7494s2.2032,1.5574,4.18861,1.0169L43.088,24.385Z"/>
        <path class="cls-3" d="M43.088,23.5021,30.0489,28.829c-1.905.7782-3.1833,2.3071-2.707,3.3543s2.4687,1.0884,4.3072.1641L43.088,26.596Z"/>
        <path class="cls-3" d="M43.088,26.6109v-.7L34.845,31.626c-1.6911,1.1724-2.6078,2.942-1.9159,3.8611s2.6459.5277,4.2404-.773l9.9334-8.1032Z"/>
        <path class="cls-3" d="M46.4107,26.6109l-6.8272,6.5048c-1.4898,1.4195-2.1223,3.3093-1.2969,4.1106s2.69571.1129,4.0703-1.4183l8.2561-9.1971Z"/>
        <path class="cls-3" d="M49.2926,26.6109l-5.2836,7.827c-1.1514,1.7055-1.3646,3.687-.38669,4.293s2.65729-.4669,3.67209-2.257l5.5917-9.863Z"/>
        <path class="cls-3" d="M52.1308,26.6109l-4.3181,8.7543c-.9103,1.8455-.8538,3.8376.197,4.3059s2.5699-.8218,3.3335-2.7326l4.1273-10.3276Z"/>
        <path class="cls-4" d="M57.62431,25.3215c1.30189,1.0193.58,6.6215-2.82281,10.1108A71.90135,71.90135,0,0,1,26.2366,16.9519,147.3597,147.3597,0,0,1,57.62431,25.3215Z"/>
        <path class="cls-6" d="M69.7731,18.6943a1.19545,1.19545,0,1,1-1.1954-1.1954A1.19542,1.19542,0,0,1,69.7731,18.6943Z"/>
        <path class="cls-3" d="M69.3196,18.6943a.742.742,0,1,1-.7419-.7419A.74191.74191,0,0,1,69.3196,18.6943Z"/>
        <path class="cls-8" d="M68.35831,18.3941a.33716.33716,0,1,1-.33711-.3372A.33716.33716,0,0,1,68.35831,18.3941Z"/>
        <path class="cls-3" d="M73.9229,20.5484l-.7162-1.8446c10.5662-4.1048,22.0767-4.5154,31.8155-1.3175,1.7117.5131,1.327,2.2719-.51,1.4297C95.21331,15.7746,84.0537,16.6121,73.9229,20.5484Z"/>
      </g>
    </g>
  </g>
</svg>
