<svg xmlns="http://www.w3.org/2000/svg" width="108.365" height="78.46668" viewBox="0 0 108.365 78.46668">
  <defs>
    <style>
      .cls-1 {
        fill: #e94e1b;
      }

      .cls-2 {
        fill: #878787;
      }

      .cls-3 {
        fill: #dadada;
      }

      .cls-4 {
        fill: #3c3c3b;
      }

      .cls-5 {
        fill: #ededed;
      }

      .cls-6 {
        fill: #fff;
      }

      .cls-7 {
        fill: #c44217;
      }
    </style>
  </defs>
  <g id="图层_2" data-name="图层 2">
    <g id="Layer_1" data-name="Layer 1">
      <g>
        <path class="cls-1" d="M79.94889,78.38368c1.0488-2.8365-3.9975-2.413-4.7035-2.7538a7.78687,7.78687,0,0,1-1.2043-.7447c-.8614-.6372-1.7809-1.2461-2.65009-1.8726a4.458,4.458,0,0,1-1.88661-2.5132c-.064-.2903-.0837-.5904-.1701-.8749a1.07164,1.07164,0,0,0-.5254-.6876c-.353-.1625-.7876-.0258-1.1432-.1826a9.13616,9.13616,0,0,0,1.40731,2.9713,7.60713,7.60713,0,0,0,1.25949,1.1676c1.1408.8845,3.5618,2.6718,3.645,2.7948s-1.0099.2884-1.4948.3837a1.78124,1.78124,0,0,0-1.43569.9606,1.57688,1.57688,0,0,0,.36659,1.4344,2.26808,2.26808,0,0,1-.0972-.7108.75166.75166,0,0,1,.3333-.6079c1.719-.9669,5.1851-.5953,5.9011-.5378a3.52651,3.52651,0,0,1,1.9445.6109A1.30312,1.30312,0,0,1,79.94889,78.38368Z"/>
        <path class="cls-2" d="M80.89989,51.096a17.21438,17.21438,0,0,1-11.7716,7.2886,33.87235,33.87235,0,0,0-3.718.7385c-.7198.1788-1.4462.3728-2.164.5883-2.5462.7416-5.0829,1.6595-7.3278,2.5248-2.2606-3.5253-4.1348-8.0809-4.2084-15.1799-.0082-.6995.0048-1.4149.0308-2.1605q.0141-.35445.02811-.7089c.006-.1624.01929-.3252.03269-.4881.0169-.3693.0481-.7468.0789-1.1315-.00159-.0294.0041-.0592.0026-.0886.0532-.6513.1204-1.318.2084-2.008.005-.0445.01-.089.01541-.1261.02639-.193.04509-.393.07849-.5937.0033-.0739.0141-.1481.0248-.2224.0992-.7569.2188-1.5444.3596-2.3477a.30967.30967,0,0,1,.0104-.0816c.0119-.0523.016-.1115.028-.1637a1.13224,1.13224,0,0,0,.021-.1559,1.18032,1.18032,0,0,0,.0219-.1411,15.12479,15.12479,0,0,0,.2-2.8476L52.833,33.453a7.27393,7.27393,0,0,0-.94821-3.2351c-.0004-.0073-.0077-.0069-.0081-.0143a.40817.40817,0,0,0-.0729-.1213,7.89033,7.89033,0,0,0-2.5753-2.5284c-.7326-.4688-1.473-.9447-2.2363-1.434-.0684-.0405-.1373-.0884-.21319-.1285-2.153-1.3943-4.42021-2.8561-6.82211-4.3549a.40608.40608,0,0,0-.06889-.0479c-2.20371-1.3768-4.51261-2.7922-6.95381-4.2005-.11419-.0675-.2357-.1346-.3576-.2091-2.3727-1.3677-4.8633-2.7365-7.4919-4.0683-.1216-.0671-.25-.1265-.3789-.1932-2.7652-1.4055-5.67579-2.7737-8.7591-4.0663-2.9565-1.2625-6.0636-2.4506-9.3432-3.5558,27.1857-1.9677,51.2189,4.8259,63.1774,9.3311,2.68511,1.0119,5.7037,1.9248,7.1274,4.4121a3.60346,3.60346,0,0,1,.3081.7939c1.2715,4.7208-2.3083,19.0829.78061,27.1687A8.929,8.929,0,0,0,80.89989,51.096Z"/>
        <g>
          <polygon class="cls-3" points="63.724 66.353 0 61.733 63.724 63.128 63.724 66.353"/>
          <polygon class="cls-3" points="64.957 65.54 0.995 65.211 64.083 63.472 64.957 65.54"/>
          <path class="cls-3" d="M71.14119,67.73878c-.1974,2.3022.1727,4.7136-1.4323,4.576-2.9594-.2538-8.6682-3.6226-8.4708-5.9248s2.7565-3.9629,5.7158-3.7091A4.53916,4.53916,0,0,1,71.14119,67.73878Z"/>
          <path class="cls-3" d="M97.41579,40.87428c0,2.2585-2.14,4.1681-5.09,4.8002-2.1729,3.0158-.665,5.5246-.586,9.3305.1909,9.2647-1.047,16.0733-22.0917,14.6049-25.3643-1.7778-43.42609-7.4933-34.8133-7.1971,7.737.2634,37.2365-5.0965,46.2641-18.3647a15.50805,15.50805,0,0,0,1.87011-3.6413,3.77233,3.77233,0,0,1,.35549-1.1524v-.0065c.97451-1.9755,3.6743-3.4043,6.8481-3.4043,3.3648,0,6.1962,1.5935,7.0061,3.7533a3.02678,3.02678,0,0,1,.1515.5135A3.31827,3.31827,0,0,1,97.41579,40.87428Z"/>
          <path class="cls-4" d="M97.33019,40.11038c-1.7516.2108-4.471-.7111-7.05219.4742-2.08741.9613-3.997,2.3375-6.19621,2.996a12.35988,12.35988,0,0,1-2.9829.4675,15.50805,15.50805,0,0,0,1.87011-3.6413,3.77233,3.77233,0,0,1,.35549-1.1524v-.0065c.97451-1.9755,3.6743-3.4043,6.8481-3.4043,3.3648,0,6.1962,1.5935,7.0061,3.7533A3.02678,3.02678,0,0,1,97.33019,40.11038Z"/>
          <g>
            <path class="cls-5" d="M93.672,38.18268a.6095.6095,0,1,1-.60951-.6095A.60955.60955,0,0,1,93.672,38.18268Z"/>
            <path class="cls-4" d="M93.56269,38.18268a.5002.5002,0,1,1-.5002-.5002A.50029.50029,0,0,1,93.56269,38.18268Z"/>
            <circle class="cls-6" cx="92.77869" cy="38.02968" r="0.1719"/>
          </g>
          <g>
            <path class="cls-1" d="M97.17869,39.59688a1.61857,1.61857,0,0,1-.5488,1.0118.44132.44132,0,0,0,.1077.6985,1.04893,1.04893,0,0,1,.55.5141,37.90212,37.90212,0,0,1,11.07741.0989C106.00889,40.26168,101.33729,39.441,97.17869,39.59688Z"/>
            <path class="cls-7" d="M96.51679,40.86718a.43715.43715,0,0,0,.2209.44,1.04906,1.04906,0,0,1,.5499.5141,37.90212,37.90212,0,0,1,11.07741.0989c-.03921-.0277-.08421-.0531-.12481-.0803A48.60894,48.60894,0,0,0,96.51679,40.86718Z"/>
          </g>
          <path class="cls-3" d="M82.336,49.75888a17.21459,17.21459,0,0,1-12.14721,6.6439,33.84381,33.84381,0,0,0-3.7524.5371c-.72839.1398-1.4641.2943-2.1925.4709-2.5825.6033-5.165,1.3832-7.4532,2.1263-2.0674-3.642-3.6934-8.2919-3.3844-15.3846.0294-.6989.0809-1.4126.1471-2.1557l.0663-.7063c.0147-.1619.0367-.3237.0588-.4856.0368-.3679.0883-.7431.1398-1.1257,0-.0295.0073-.0589.0073-.0883.0883-.6475.1913-1.3096.31641-1.9939.00739-.0441.01469-.0883.02209-.1251.0368-.1913.0662-.3899.1104-.5886.0073-.0735.022-.1471.0368-.2207.1398-.7504.3016-1.5303.4855-2.325a.31105.31105,0,0,1,.0148-.0809c.0147-.0515.022-.1104.0367-.1619a1.13588,1.13588,0,0,0,.0295-.1545,1.18676,1.18676,0,0,0,.0294-.1397,15.13753,15.13753,0,0,0,.3532-2.8327v-.3385a7.27465,7.27465,0,0,0-.7726-3.2814c0-.0074-.0073-.0074-.0073-.0147a.41108.41108,0,0,0-.0662-.1251,7.89067,7.89067,0,0,0-2.4354-2.6634c-.7063-.5077-1.42-1.0227-2.1557-1.5524-.06619-.0442-.1325-.0957-.206-.1398-2.0749-1.5083-4.26-3.0902-6.5776-4.7162a.40794.40794,0,0,0-.0663-.0515c-2.12629-1.4936-4.3556-3.0313-6.7174-4.569-.1103-.0736-.2281-.1472-.3458-.2281-2.2955-1.4936-4.7088-2.9945-7.2618-4.466-.1178-.0736-.2428-.1398-.3679-.2134-2.6855-1.5524-5.5181-3.0754-8.52739-4.5322-2.88411-1.42-5.92271-2.7738-9.138-4.054,27.25219-.5003,50.88449,7.5782,62.583,12.7211,2.62659,1.1552,5.59169,2.2294,6.87919,4.7898a3.59989,3.59989,0,0,1,.2649.8093c1.0154,4.7824-3.3329,18.9309-.6842,27.1713A8.92915,8.92915,0,0,0,82.336,49.75888Z"/>
          <path class="cls-5" d="M65.03849,13.97938c-.0662.2354-1.0374.2281-2.737.0221-.8534-.103-1.88349-.2575-3.0754-.4635-.596-.0957-1.2287-.206-1.9056-.3238q-1.01535-.1545-2.1411-.3311c-1.5009-.2427-3.1416-.515-4.8927-.8314-1.7584-.309-3.6493-.5665-5.6285-.9049-.7137-.1251-1.4347-.2428-2.1705-.3679-.0735-.0074-.1471-.0221-.22069-.0368-2.26611-.3605-4.18521-.39-6.64991-.7725-.02209-.0074-.4072.0846-.4292.092-1.08889-.1693-1.7021-.3373-2.8204-.5212-1.1772-.1618-1.7721-.0849-2.9198-.2542-2.6856-1.5524-6.6854-3.7532-9.69469-5.21,3.89219.3311,8.11539.9344,12.54459,1.5377,4.6058.7579,8.9982,1.4642,12.9566,2.3324,1.9791.4267,3.8627.8019,5.61381,1.236q2.6265.66225,4.84849,1.2655c.7431.1987,1.4421.39,2.1116.5739.6622.1987,1.2802.412,1.8615.6033,1.1551.3826,2.14841.7358,2.95041,1.0448C64.25129,13.28778,65.10469,13.744,65.03849,13.97938Z"/>
          <path class="cls-5" d="M69.144,17.90828c-.05891.2355-.95651.2576-2.52361.103-1.5672-.1324-3.7818-.5297-6.5482-.9049-5.4961-.8682-11.7451-1.3599-20.1326-2.6917-.905-.1397-2.0385-.2597-2.9214-.3995-2.2956-1.4936-5.8169-3.7219-8.3699-5.1934,2.05271.2281,4.2085.5003,6.4378.8167a.10335.10335,0,0,1,.0662.0074q1.95345.26475,3.9878.5738c1.0595.1766,2.09691.3532,3.12691.5224.07359.0147.14719.0294.22069.0368,3.0019.515,5.864,1.0301,8.5127,1.6113,1.8173.39,3.5389.7357,5.1429,1.133s3.0975.7726,4.4513,1.1405a59.75968,59.75968,0,0,1,6.3495,2.0159C68.423,17.24618,69.20279,17.66548,69.144,17.90828Z"/>
          <path class="cls-5" d="M70.68169,21.82988c-.0662.2354-.9638.2648-2.5236.1103-1.5745-.1398-3.7818-.5297-6.5482-.9123-4.878-.7725-9.527-.4743-16.7741-1.622-2.1263-1.4936-6.2181-4.3523-8.5799-5.89,1.44211.1913,2.921.4047,4.4219.6327,4.2159.7064,8.233,1.3759,11.8603,2.1705,1.80991.3826,3.53891.7358,5.14291,1.1257q2.40583.59595,4.45129,1.1404a64.02691,64.02691,0,0,1,6.3495,2.016C69.95329,21.16768,70.74059,21.59438,70.68169,21.82988Z"/>
          <path class="cls-5" d="M73.87479,26.42828c-.0661.2355-.96379.2502-2.5236.0662-1.5671-.1618-3.7626-.6914-6.5334-1.0153-4.122-.4819-7.7349-.4786-13.6062-1.4866-2.0748-1.5083-5.8544-4.2302-8.172-5.8562.3163.0515.6327.103.95641.1545,4.20849.7652,8.211,1.4862,11.82349,2.3323,1.81.4194,3.5316.7947,5.1282,1.2067,1.5966.4267,3.0828.8314,4.4292,1.2139a60.14063,60.14063,0,0,1,6.3202,2.119C73.16119,25.75878,73.94109,26.20018,73.87479,26.42828Z"/>
          <path class="cls-5" d="M73.33779,29.56258c-.0663.2355-.9639.2649-2.5237.1104-1.5745-.1398-3.8192-.0454-6.5857-.4206-2.8032-.4488-5.6056-.3045-9.3212-.8931a13.38065,13.38065,0,0,0-2.9283-3.8145c-.7063-.5077-1.42-1.0227-2.1557-1.5524,1.86881.3384,3.664.6842,5.371,1.0595,1.8173.3825,3.5389.7357,5.1429,1.1256q2.40586.596,4.4512,1.1478a60.29506,60.29506,0,0,1,6.3496,2.016C72.61669,28.90778,73.39659,29.32718,73.33779,29.56258Z"/>
          <path class="cls-5" d="M70.40949,32.39518c-.0589.2355-.95649.2649-2.5163.1104-1.5745-.1398-3.7354.0926-6.5019-.2826-1.81729-.287-3.9176-.6267-6.1396-.9799a11.908,11.908,0,0,0-.9404-4.2193c1.0153.2207,2.1704.7583,3.1048.9864,1.60391.3973,3.0902.7799,4.444,1.1404a59.95973,59.95973,0,0,1,6.3568,2.016C69.68839,31.73308,70.47569,32.15978,70.40949,32.39518Z"/>
          <path class="cls-5" d="M68.37139,34.68338c-.0515.2428-.9417.3091-2.5162.2281-1.5745-.0662-3.8039-.3458-6.585-.6106q-2.00865-.2319-4.363-.5003a15.13753,15.13753,0,0,0,.3532-2.8327v-.0662c1.5965.309,3.0828.6254,4.4292.9344a63.47961,63.47961,0,0,1,6.4305,1.729C67.621,34.05808,68.423,34.448,68.37139,34.68338Z"/>
          <path class="cls-5" d="M66.21569,37.36888c-.0515.2355-.9418.309-2.5163.2281-1.5745-.0662-3.8038-.3458-6.5849-.618-.8829-.103-1.8174-.2134-2.8032-.3164.1398-.7504.3016-1.5303.4855-2.325a.31105.31105,0,0,1,.0148-.0809c.0147-.0515.022-.1104.0367-.1619s.13971-.6881.147-.7396c.9344.1913,1.8249.3938,2.6636.5851,2.737.5812,4.8045,1.8247,6.3054,2.3029C65.46519,36.74358,66.26719,37.12608,66.21569,37.36888Z"/>
          <path class="cls-5" d="M65.28129,40.24568c-.0515.2354-.9418.309-2.51629.2281-1.57451-.0662-3.80381-.3458-6.58491-.6107-.7505-.0883-1.5304-.1765-2.3545-.2722.0883-.6475.1913-1.3096.31641-1.9939.00739-.0441.01469-.0883.02209-.1251.0368-.1913.24091-1.3237.2851-1.5223.8093.1766,1.95281.6444,2.6886.8136,2.737.5812,4.39121,1.8786,5.8921,2.3568C64.53079,39.62028,65.33279,40.01018,65.28129,40.24568Z"/>
          <path class="cls-5" d="M61.345,41.25c-.03671.2354-.927.3384-2.50151.309-1.3023-.0147-3.0607-.1471-5.2018-.3016q.03315-.35325.0662-.7063c.0148-.1619.0368-.3238.0589-.4857.0368-.3678.0883-.7431.1398-1.1256,2.141.434,3.8847.8976,5.1503,1.2581C60.57249,40.64668,61.38919,41.00718,61.345,41.25Z"/>
          <path class="cls-5" d="M79.65789,45.51368a5.85918,5.85918,0,0,1-.184,1.3906,7.92982,7.92982,0,0,1-2.8841,3.7376,43.60085,43.60085,0,0,1-10.1534,6.298c-.6916.309-1.3979.5959-2.1042.8682a1.54475,1.54475,0,0,1-.0883-.3973c-.16189-1.2655.9786-2.4648,1.9718-3.3845A36.03487,36.03487,0,0,0,77.42119,31.711c.5003-4.5984.206-9.631,2.9209-13.3686C81.35749,23.12478,77.00919,37.27328,79.65789,45.51368Z"/>
        </g>
      </g>
    </g>
  </g>
</svg>
