<svg xmlns="http://www.w3.org/2000/svg" width="30.5615" height="29.8222" viewBox="0 0 30.5615 29.8222">
  <defs>
    <style>
      .cls-1 {
        isolation: isolate;
      }

      .cls-2 {
        fill: #d15d1e;
      }

      .cls-3 {
        fill: #c1bcb9;
        mix-blend-mode: multiply;
      }

      .cls-4 {
        fill: #ea773d;
      }

      .cls-5 {
        fill: #c1501f;
      }

      .cls-6 {
        fill: #a84a20;
      }

      .cls-7 {
        fill: #605252;
      }

      .cls-8 {
        fill: #332929;
      }
    </style>
  </defs>
  <g class="cls-1">
    <g id="图层_2" data-name="图层 2">
      <g id="Layer_1" data-name="Layer 1">
        <g>
          <polygon class="cls-2" points="4.928 6.041 4.79 4.708 4.56 3.603 5.02 2.913 5.526 2.822 6.631 4.386 6.354 5.949 4.928 6.041"/>
          <polygon class="cls-2" points="4.375 13.8 5.317 14.608 5.048 15.685 3.904 16.291 2.492 15.348 1.413 14.07 0.807 14.001 0.807 14.339 0.404 14.27 0 14.608 0.269 15.549 0.538 16.626 1.413 16.964 1.75 17.435 2.692 18.646 6.058 20.464 7.136 20.396 7.405 23.83 8.953 26.321 10.703 27.331 15.886 29.081 18.512 29.216 19.993 28.476 21.609 23.965 22.012 20.263 18.984 15.281 16.425 12.117 14.608 11.78 13.396 11.578 12.454 10.636 10.568 9.626 10.03 8.078 9.02 6.328 7.876 5.588 5.317 5.521 2.288 7.203 0.875 10.098 0.74 10.636 0.404 11.242 1.413 13.194 1.952 13.395 2.222 13.934 2.827 13.868 4.375 13.8"/>
          <polygon class="cls-2" points="12.05 19.118 9.828 19.724 8.751 20.936 8.212 23.022 8.28 24.773 9.02 26.791 9.76 27.87 8.548 27.667 6.462 27.667 5.655 27.87 5.317 29.081 5.788 29.35 5.924 29.822 8.415 29.822 12.52 29.619 15.078 29.552 15.483 28.476 16.425 28.071 17.031 25.783 15.82 23.224 14.204 20.396 12.05 19.118"/>
          <polygon class="cls-3" points="17.031 25.783 16.307 24.251 16.088 24.436 15.82 26.254 14.54 27.532 12.454 27.802 10.433 27.263 9.155 25.177 8.751 22.618 9.304 20.313 8.751 20.936 8.212 23.022 8.28 24.773 9.02 26.791 9.76 27.87 9.011 27.744 9.424 28.139 10.568 28.34 13.194 28.678 13.599 29.417 13.783 29.587 15.078 29.552 15.483 28.476 16.425 28.071 17.031 25.783"/>
          <path class="cls-3" d="M5.601,29.2426l.187.1075.1363.4721h.1689l.167-.875s.7403-.2695.8081-.4716l-.9433.1337S5.8017,28.9702,5.601,29.2426Z"/>
          <polygon class="cls-4" points="11.579 19.657 10.03 20.464 9.492 22.551 9.828 24.773 10.77 24.504 10.905 21.339 11.848 20.127 12.252 19.791 11.579 19.657"/>
          <polygon class="cls-3" points="10.636 15.819 9.492 17.166 7.943 18.512 6.058 18.849 3.972 18.378 2.086 16.964 1.75 16.357 0.875 16.156 0.223 15.389 0.269 15.549 0.538 16.626 1.413 16.964 1.75 17.435 2.692 18.646 6.058 20.464 7.136 20.396 7.143 20.494 7.741 20.195 9.02 19.388 9.828 18.109 10.838 16.156 10.636 15.819"/>
          <polygon class="cls-5" points="5.586 14.204 4.996 14.332 5.317 14.608 5.048 15.685 3.904 16.291 2.929 15.641 3.231 16.223 4.645 16.896 6.664 16.964 6.799 15.954 5.991 14.742 5.586 14.204"/>
          <path class="cls-3" d="M16.4253,12.1172l-1.8174-.3374-1.2119-.2022-.9019-.9023c.0166.1382.0259.2451.0259.2973,0,.2696,1.1455,1.0103,1.3467,1.0767.2026.0679,1.4145.8081,1.4145.8081l1.6826,2.0195,2.6924,3.9048,1.0098,4.1738-1.749,4.8462-2.0723,1.3282,1.6675.0864,1.4809-.7407,1.6157-4.5108.4034-3.7021-3.0284-4.982Z"/>
          <polygon class="cls-5" points="5.183 13.329 6.799 12.184 7.741 10.77 8.079 7.473 7.876 6.597 8.415 6.664 8.617 10.906 8.212 12.655 6.664 13.194 5.183 13.329"/>
          <g>
            <polygon class="cls-4" points="1.413 13.194 1.952 13.395 2.222 13.934 2.827 13.868 4.158 13.809 3.972 12.924 2.827 12.251 2.019 11.108 1.345 9.963 0.908 10.029 0.875 10.098 0.74 10.636 0.404 11.242 1.413 13.194"/>
            <polygon class="cls-4" points="1.413 14.07 1.337 14.062 1.772 14.496 1.413 14.07"/>
          </g>
          <polygon class="cls-6" points="19.926 28.206 20.868 28.879 22.35 28.744 24.032 25.984 25.983 20.936 24.974 17.032 23.427 13.329 23.697 10.905 24.571 10.569 25.243 12.184 26.994 13.262 29.754 12.319 30.561 7.337 26.523 1.615 21.407 0 17.637 1.144 14.742 5.722 14.405 8.414 15.145 11.511 16.83 13.598 19.79 17.771 21.339 21.271 20.868 25.177 19.926 28.206"/>
          <path class="cls-3" d="M24.5713,10.5693l.6718,1.6152,1.751,1.0772,1.0293-.3525-.6929-.2544-1.1445-.8077-.3359-1.749.8745-1.9526L25.1098,5.9243l-2.9619-.2022S20.936,8.2798,20.8681,8.6162c-.0669.3364.875,4.0386.875,4.0386s2.0869,3.5683,2.1548,3.8378c.0659.2696,1.48,4.0396,1.48,4.0396s-.146,1.6431-.2505,2.6177l.856-2.2134-1.0093-3.9043-1.5469-3.7036.2695-2.4238Z"/>
          <path class="cls-3" d="M19.9257,28.206l.3399.2432,1.3432-1.9248s1.0777-2.5596,1.1446-2.8286c.0664-.2696.4707-4.3765.4707-4.3765l-1.0093-2.7588-3.0303-3.9057-2.7592-2.5567L15.3481,7.539s.5381-2.8281.6738-3.0966c.1333-.2686,1.6827-2.6919,1.6827-2.6919L18.6025.851l-.9653.2935L14.7421,5.7221,14.4047,8.414l.7408,3.0972,1.6841,2.0864,2.9609,4.1739,1.5483,3.5-.4707,3.9057Z"/>
          <polygon class="cls-2" points="21.407 0 19.792 0.489 21.676 0.875 24.771 1.952 26.859 3.567 28.61 6.799 28.745 8.683 29.754 10.299 29.342 12.458 29.754 12.319 30.561 7.337 26.523 1.615 21.407 0"/>
          <polygon class="cls-4" points="3.029 8.515 3.466 7.64 4.106 7.372 5.117 7.64 5.015 8.381 4.51 8.986 3.736 9.088 3.129 8.717 3.029 8.515"/>
          <polygon class="cls-7" points="4.004 7.556 3.576 7.784 3.349 8.186 3.222 8.49 3.273 8.642 3.853 8.894 4.409 8.843 4.813 8.465 4.964 8.085 4.989 7.784 4.409 7.531 4.004 7.556"/>
          <polygon class="cls-8" points="4.29 7.624 3.955 7.675 3.703 7.825 3.601 8.027 3.601 8.33 3.753 8.65 4.022 8.751 4.409 8.701 4.695 8.448 4.746 8.027 4.611 7.742 4.29 7.624"/>
          <polygon class="cls-7" points="4.038 7.909 4.005 8.111 4.157 8.128 4.274 7.926 4.038 7.909"/>
          <polygon class="cls-6" points="0.404 11.242 0.704 11.823 0.975 11.476 0.942 11.174 1.345 11.074 1.345 10.77 1.11 10.738 0.684 10.738 0.404 11.242"/>
          <polygon class="cls-6" points="1.411 13.191 1.413 13.194 1.827 13.35 2.827 13.329 3.669 13.025 3.803 12.823 3.635 12.723 3.03 13.025 2.121 13.262 1.411 13.191"/>
          <polygon class="cls-4" points="7.994 6.142 9.074 6.42 9.02 6.328 7.876 5.588 5.317 5.521 2.288 7.203 1.622 8.567 2.843 7.304 4.661 6.547 6.529 5.94 7.994 6.142"/>
          <polygon class="cls-2" points="5.722 5.887 6.042 6.299 6.637 6.345 7.78 6.162 8.145 5.247 8.1 3.784 7.916 2.686 7.184 2.642 5.813 3.875 5.86 4.927 5.722 5.887"/>
          <polygon class="cls-4" points="6.544 3.555 6.133 4.104 6.133 5.476 5.924 6.147 6.042 6.299 6.637 6.345 7.042 6.279 7.23 5.155 7.14 4.377 6.544 3.555"/>
          <path class="cls-6" d="M7.6591,6.1797l.1206-.0181L8.145,5.247,8.0996,3.7842,7.916,2.686l-.7315-.0444L5.8125,3.875l.0473,1.0517-.1377.9605.3199.4116.0537.0034a6.54789,6.54789,0,0,0,.2661-.9643V4.104l.5952-.9146.5478-.3203.3199.4116L7.916,4.5151l-.0454.7774Z"/>
        </g>
      </g>
    </g>
  </g>
</svg>
