<svg xmlns="http://www.w3.org/2000/svg" width="99.9805" height="49.0313" viewBox="0 0 99.9805 49.0313">
  <defs>
    <style>
      .cls-1 {
        fill: #634e77;
      }

      .cls-2 {
        fill: #936e99;
      }

      .cls-3 {
        fill: #563e4e;
      }

      .cls-4 {
        fill: #4b2d47;
      }
    </style>
  </defs>
  <g id="图层_2" data-name="图层 2">
    <g id="Layer_1" data-name="Layer 1">
      <g>
        <polygon class="cls-1" points="11.825 12.692 9.409 11.887 8.171 9.412 8.791 8.173 10.277 8.543 12.629 10.833 11.825 12.692"/>
        <path class="cls-2" d="M11.8252,12.6919l.2266-.5244-1.7285-.6831a10.50777,10.50777,0,0,1-1.208-1.2554,11.891,11.891,0,0,0-.7549-1.1958l-.1895.3784,1.2383,2.4756Z"/>
        <polygon class="cls-3" points="31.944 27.549 32.131 33.494 32.131 36.711 32.997 40.737 28.602 42.717 27.178 44.573 27.178 45.131 29.406 45.752 33.182 45.997 37.639 43.336 35.844 28.912 31.944 27.549"/>
        <polygon class="cls-3" points="79.922 32.936 80.603 35.908 82.214 38.445 81.037 40.798 80.48 42.346 77.633 42.778 77.014 43.707 77.014 44.697 81.347 45.193 84.874 44.327 85.618 36.773 82.461 32.192 79.922 32.936"/>
        <polygon class="cls-4" points="92.366 8.914 95.771 11.824 98.744 14.548 99.672 16.097 99.98 18.202 98.93 18.883 96.514 17.457 92.366 8.914"/>
        <polygon class="cls-1" points="7.739 18.388 4.519 21.978 0.99 25.134 0 27.488 0.681 30.397 4.272 34.978 8.854 35.782 11.515 35.844 11.825 35.537 12.506 35.968 13.93 35.659 15.911 33.987 16.467 31.822 18.325 31.139 20.367 30.087 21.048 27.117 22.905 27.117 25.629 27.734 26.806 25.877 27.921 27.549 30.272 28.912 31.264 28.602 33.801 30.025 34.854 31.45 35.225 37.764 36.463 42.778 33.616 44.451 31.636 45.441 30.768 47.483 34.235 49.031 39.932 48.04 41.54 45.873 43.025 44.451 43.522 43.212 43.645 38.258 44.326 35.844 45.378 35.288 48.288 35.597 54.604 36.959 65.065 37.641 73.979 36.587 79.428 35.164 81.78 33.308 82.646 33.926 83.638 36.216 84.442 37.454 84.256 39.807 83.143 43.088 80.666 44.263 79.365 45.256 79.304 46.863 81.223 47.483 87.785 46.556 89.519 45.813 89.89 44.079 91.499 42.346 92.366 40.984 91.994 39.497 92.924 34.42 93.479 33.368 95.771 29.839 97.999 23.587 97.442 15.848 90.756 5.512 81.531 1.858 75.898 0 69.584 1.487 63.083 3.157 52.064 3.157 40.426 2.909 37.639 2.354 34.854 2.476 33.739 1.981 32.315 2.105 31.387 2.787 30.026 2.6 26.992 2.662 25.135 3.466 22.225 4.086 19.005 5.572 14.116 8.359 10.771 11.576 10.771 13.683 8.421 14.302 7.491 14.672 7.244 16.528 8.047 17.149 7.924 17.953 7.739 18.388"/>
        <polygon class="cls-4" points="93.759 20.955 93.294 19.563 89.579 18.355 87.259 15.198 86.516 14.085 84.842 13.806 82.43 13.249 77.879 9.999 76.115 8.233 76.486 9.163 79.086 12.691 80.943 18.169 80.201 21.513 77.415 23.834 70.543 24.577 62.465 24.577 57.171 27.363 52.807 27.549 48.258 26.249 45.285 22.999 41.478 19.563 36.186 17.242 32.843 15.384 32.748 13.527 33.119 10.927 33.214 8.885 31.913 6.006 32.006 7.027 32.099 10.278 31.355 12.691 31.355 15.755 30.984 19.006 30.056 25.413 28.434 27.847 30.272 28.912 31.264 28.602 33.801 30.025 34.564 31.056 35.535 28.848 37.764 29.036 42.964 32.749 44.635 34.143 45.242 35.359 45.378 35.288 48.288 35.597 54.604 36.959 65.065 37.641 73.979 36.587 79.428 35.164 81.78 33.308 81.941 33.423 85.866 29.5 93.387 22.44 93.759 20.955"/>
        <polygon class="cls-4" points="93.479 33.368 95.771 29.839 97.999 23.587 97.513 16.827 96.545 20.77 94.873 23.834 92.364 25.971 88.465 28.941 86.516 31.728 84.564 34.514 86.144 36.463 86.887 38.692 86.887 40.736 86.422 43.149 87.351 44.635 89.66 45.149 89.89 44.079 91.499 42.346 92.366 40.984 91.994 39.497 92.924 34.42 93.479 33.368"/>
        <polygon class="cls-4" points="87.785 46.556 88.799 46.121 88.187 45.563 85.492 44.729 84.874 44.327 83.45 45.378 83.098 47.218 87.785 46.556"/>
        <polygon class="cls-4" points="43.707 35.906 42.87 36.649 42.034 35.906 40.735 34.143 41.106 39.064 40.735 41.663 39.527 43.336 38.784 44.635 41.385 45.378 41.758 45.665 43.025 44.451 43.522 43.212 43.645 38.258 44.189 36.329 43.707 35.906"/>
        <polygon class="cls-4" points="44.326 35.844 44.374 35.819 43.242 34.42 40.735 32.936 41.571 34.143 42.776 35.535 43.95 37.176 44.326 35.844"/>
        <polygon class="cls-4" points="36.186 30.428 34.852 31.446 34.854 31.45 34.928 32.703 36.741 32.284 38.691 32.471 39.621 32.377 37.671 30.892 36.186 30.428"/>
        <polygon class="cls-4" points="42.499 44.356 41.478 45.007 40.364 46.122 38.229 47.421 34.513 47.979 31.702 47.901 34.235 49.031 39.932 48.04 41.54 45.873 42.644 44.816 42.499 44.356"/>
        <polygon class="cls-4" points="16.776 13.434 19.656 13.621 22.721 15.477 23.463 15.198 21.233 12.691 18.448 12.042 16.776 13.434"/>
        <polygon class="cls-4" points="27.921 20.77 25.969 24.113 24.112 25.413 19.748 25.042 20.491 26.806 21.002 27.318 21.048 27.117 22.905 27.117 25.629 27.734 26.806 25.877 27.212 26.486 28.106 23.555 27.921 20.77"/>
        <polygon class="cls-4" points="20.12 24.949 19.562 23.555 19.098 20.213 19.377 17.056 19.377 15.663 18.448 18.541 18.634 22.814 19.562 26.249 20.898 27.775 21.048 27.117 21.448 27.117 20.12 24.949"/>
        <polygon class="cls-4" points="26.848 25.94 27.753 27.297 28.198 26.157 29.221 23.834 29.406 21.048 28.756 17.427 28.663 14.27 28.849 12.042 27.827 11.762 27.549 12.97 26.806 13.714 25.135 12.784 24.855 11.671 24.112 11.671 24.112 13.341 26.249 16.406 27.455 20.955 27.271 24.67 26.848 25.94"/>
        <polygon class="cls-4" points="22.066 27.117 21.606 26.063 20.212 26.341 18.727 28.385 16.312 30.057 15.661 30.241 15.198 31.542 14.269 32.841 12.064 35.688 12.506 35.968 13.93 35.659 15.911 33.987 16.467 31.822 18.325 31.139 20.367 30.087 21.048 27.117 22.066 27.117"/>
        <path class="cls-2" d="M91.6309,6.8628l-.875-1.3511L81.5313,1.8579,75.8985,0,69.584,1.4868l-6.50089,1.67H52.0645L40.4258,2.9092,37.6387,2.354l-2.7851.1221-1.1143-.4946-1.4238.124-.9287.6811-1.3604-.1865-3.0342.062-1.8574.8042-2.9101.6201L19.0049,5.5723,14.1163,8.3589l-.7168.6885,2.4482-.7227,3.9932-2.1333,3.15721-1.4853,3.99319-.836,3.8076-.1865.9287.835,1.02051-.9278L36.2784,3.499h2.97071S44.2637,4.6113,44.543,4.6113,55.4073,5.8194,55.4073,5.8194l9.0996-.2793,9.3808-1.7632,5.1983-1.021,5.9433,1.4848,4.3653,1.67Z"/>
        <polygon class="cls-2" points="75.557 13.806 76.486 15.941 76.207 17.613 68.5 19.099 63.857 20.122 59.679 19.841 57.078 18.541 57.449 15.106 57.449 13.155 61.906 13.714 68.872 13.063 73.514 12.506 75.557 13.806"/>
        <polygon class="cls-2" points="77.042 5.447 76.671 6.655 78.158 8.233 83.729 9.533 86.051 8.605 85.772 7.213 82.151 6.562 79.365 5.911 77.042 5.447"/>
        <polygon class="cls-2" points="10.771 11.576 10.771 13.683 8.421 14.302 7.491 14.672 7.244 16.528 8.047 17.149 7.924 17.953 7.739 18.388 4.519 21.978 0.99 25.134 0 27.488 0.389 29.146 1.918 28.105 5.355 24.484 7.583 21.328 11.02 19.192 10.647 17.613 11.392 15.755 12.506 15.106 13.341 12.784 13.806 10.556 13.951 8.516 10.771 11.576"/>
        <polygon class="cls-4" points="15.267 34.529 11.299 34.328 7.49 32.192 5.912 30.335 4.891 29.036 2.756 29.036 0.13 28.041 0.681 30.397 4.272 34.978 8.854 35.782 11.515 35.844 11.825 35.537 12.506 35.968 13.93 35.659 15.267 34.529"/>
        <polygon class="cls-2" points="3.033 30.521 2.756 29.036 3.592 27.641 4.891 27.363 5.727 27.734 5.511 28.292 3.033 30.521"/>
        <polygon class="cls-3" points="3.592 30.475 3.545 29.638 3.869 28.755 4.798 28.337 5.494 28.199 5.633 28.711 5.355 29.174 4.38 29.732 3.917 30.196 3.592 30.475"/>
        <polygon class="cls-1" points="13.852 15.431 12.134 15.848 11.344 17.056 11.344 18.217 11.717 19.425 13.667 20.493 15.477 19.656 15.941 17.752 15.291 15.848 14.224 15.337 13.852 15.431"/>
        <polygon class="cls-3" points="11.994 17.381 12.599 18.403 13.108 18.263 13.154 18.541 13.991 18.355 14.362 17.427 13.573 16.499 12.413 16.452 11.994 17.381"/>
        <polygon class="cls-2" points="15.568 16.663 15.291 15.848 14.224 15.337 13.852 15.431 12.134 15.848 11.344 17.056 11.344 18.217 11.717 19.425 11.753 19.444 11.855 18.589 12.181 17.659 12.783 17.009 14.13 16.499 15.568 16.663"/>
        <polygon class="cls-4" points="15.523 18.403 14.64 19.33 13.434 19.518 12.514 19.861 13.667 20.493 15.477 19.656 15.937 17.767 15.523 18.403"/>
        <polygon class="cls-2" points="13.76 12.181 14.548 10.742 14.92 8.652 16.219 6.703 17.845 6.47 19.005 7.585 18.494 9.255 16.73 11.392 15.198 12.831 14.874 13.249 13.76 12.181"/>
        <polygon class="cls-1" points="15.059 11.995 15.754 10.229 16.545 8.049 17.381 7.492 18.31 7.77 18.217 8.559 17.24 10.138 15.059 11.995"/>
        <polygon class="cls-2" points="35.639 43.264 33.616 44.451 31.636 45.441 31.239 46.374 32.377 46.307 33.988 46.059 36.463 45.688 38.445 45.688 36.712 45.192 35.639 43.264"/>
      </g>
    </g>
  </g>
</svg>
