<svg xmlns="http://www.w3.org/2000/svg" width="80.8516" height="36.1426" viewBox="0 0 80.8516 36.1426">
  <defs>
    <style>
      .cls-1 {
        isolation: isolate;
      }

      .cls-2 {
        fill: #5e4f41;
      }

      .cls-3 {
        fill: #9a8a73;
      }

      .cls-4 {
        fill: #81715f;
      }

      .cls-5 {
        fill: #c0b198;
      }

      .cls-6 {
        fill: #332921;
      }

      .cls-7 {
        fill: #bcb4aa;
        mix-blend-mode: multiply;
      }

      .cls-8 {
        fill: #a79782;
      }
    </style>
  </defs>
  <g class="cls-1">
    <g id="图层_2" data-name="图层 2">
      <g id="Layer_1" data-name="Layer 1">
        <g>
          <polygon class="cls-2" points="73.073 5.815 74.644 3.928 75.666 4.871 75.588 5.971 74.409 6.678 73.073 5.815"/>
          <polygon class="cls-2" points="37.008 28.679 40.15 30.879 42.272 32.529 43.451 32.921 43.765 33.943 47.93 34.415 48.244 33.629 46.987 32.058 43.844 30.879 41.723 27.972 43.844 26.636 45.887 25.065 46.516 23.022 41.88 22.865 37.008 28.679"/>
          <path class="cls-3" d="M48.2441,33.6289l-1.2568-1.5713-3.1435-1.1782-.5176-.7085-.0332.001s-1.4912.3144-1.57029.5508c-.044.1318-.21391.665-.35261,1.1045l.9024.7016,1.1787.3926.31351,1.0215,4.165.4721Z"/>
          <polygon class="cls-2" points="65.059 22.943 66.472 25.222 69.379 27.815 70.795 28.993 70.638 30.565 68.752 32.529 67.337 32.686 67.022 31.979 68.28 30.25 67.809 29.308 63.173 27.107 65.059 22.943"/>
          <polygon class="cls-3" points="70.795 28.993 69.379 27.815 69.195 27.648 68.987 27.736 67.573 27.972 67.521 29.171 67.809 29.308 68.28 30.25 67.022 31.979 67.337 32.686 68.752 32.529 70.638 30.565 70.795 28.993"/>
          <path class="cls-4" d="M76.6875,9.7427l.707,1.021,3.4571,2.1221-.3145,1.8076-1.4912.8642-5.3437.2364-2.35749.4697L68.6738,18.4649l-2.123,3.6923-1.8067,2.8296-.7851,1.3355-.3926,4.164.0781,2.1211.628,1.0215,1.8086.7861,1.2558,1.022v.7056l-4.3203-.2349-.4726-.7856-1.0215-.4707-.3926-1.8867-1.4141-3.6138-2.9853-2.9072-.8653-.7862-2.2783.314-6.208-1.1787-2.5928-1.0205-2.0429.7846-3.9287,4.4009-2.5137,1.7285-.6279.3931,3.1416,1.8071,3.6933,1.0215,1.96391.8648.15819,1.0996-3.3789-.0786H39.0498L38.5,34.8081l-1.4131-.3931-4.6357-1.8076-1.8858-1.1782.5489-1.8857,1.7295-1.5718L30.25,26.479s-4.4775-5.1074-4.3994-5.3432c.07911-.2359-1.0225-6.5201-1.0225-6.5201l1.4151-4.2446L29.9356,6.521,40.4648,1.1782,47.3789,0l3.457.4712,5.1084,2.5933,5.73441,1.8852,4.00779.3145,4.4795-.9434,2.6719.9434,2.3574,1.414Z"/>
          <polygon class="cls-4" points="26.794 10.686 22.786 14.38 17.915 17.914 10.372 21.372 5.343 23.494 1.808 25.928 0 28.286 0.236 32.214 1.492 33.157 6.286 33.314 15.086 29.543 20.979 25.378 24.121 22.55 26.558 19.015 26.794 10.686"/>
          <polygon class="cls-5" points="77.472 11.315 76.216 10.136 75.822 8.958 74.722 6.756 73.151 6.836 70.638 7.779 68.28 9.664 66.314 11.942 65.686 15.007 66.393 17.207 68.08 19.496 68.674 18.465 71.345 16.264 73.702 15.794 79.046 15.558 79.946 15.036 80.301 13.672 79.359 12.494 77.472 11.315"/>
          <polygon class="cls-2" points="72.884 15.958 72.602 14.771 74.253 13.515 76.138 12.886 76.53 11.392 77.185 10.459 76.687 9.743 75.783 7.885 73.623 8.486 71.186 10.214 69.379 13.122 69.459 15.479 70.477 16.979 71.345 16.264 72.884 15.958"/>
          <polygon class="cls-6" points="79.831 13.515 80.301 13.672 80.668 13.939 80.852 12.886 80.521 12.682 79.752 12.886 79.831 13.515"/>
          <polygon class="cls-7" points="79.971 15.021 77.708 15.086 74.565 15.007 72.365 15.321 68.908 16.972 67.26 19.643 66.002 22.236 64.744 23.651 64.817 24.871 66.551 22.157 68.674 18.465 71.345 16.264 73.702 15.794 79.046 15.558 79.971 15.021"/>
          <path class="cls-5" d="M44.6299,35.6724l-.15819-1.0996L42.5078,33.708l-3.6933-1.0215-1.6387-.9423a7.954,7.954,0,0,0-1.1895.9423c-.2353.3135,0,.8638.1563,1.1001.041.0601.165.2041.32711.3882l.61719.2402,1.4131.3931.5498.7857H41.251Z"/>
          <path class="cls-5" d="M64.2725,33.6289l-.628-1.0215-.041-1.1289-.3515-.1279-1.4141-.3926s-.501.6675-.9229,1.2564l.2149.5503.3926,1.8867,1.0215.4707.4726.7856,4.3203.2349V35.437l-1.2558-1.022Z"/>
          <path class="cls-7" d="M42.9014,35.2007l-.7871-.9424H41.0156l-1.0215.7857-2.7509-1.336-4.3203-2.0434-.6299-1.335,1.17871-1.1787,1.25779-1.0225.0781-1.9634-1.414-2.5141-4.5577-2.9863L26.794,16.1065l-1.3555-3.3223-.6104,1.8315s1.10161,6.2842,1.0225,6.5201c-.0781.2358,4.3994,5.3432,4.3994,5.3432l2.5938,1.4927-1.7295,1.5718-.5489,1.8857,1.8858,1.1782,4.6357,1.8076,1.4131.3931.5498.7857H41.251l1.6758.0385Z"/>
          <path class="cls-7" d="M66.2363,35.044l-1.4131-.2359-1.2568.2359-1.0224-.8648-.7852-2.0425-1.0225-2.7505-1.9638-2.1215-1.17779-1.8072.94239-2.1992.7861-2.7505-2.2792-.6289-5.4219-.3144-5.73539-1.4131L43.5293,15.8716l-1.4922,1.1001.8643,3.5361L41.6436,22.315a24.44377,24.44377,0,0,0-.7852,2.5146c0,.3135-1.88769,2.5142-1.9648,2.8276a13.30635,13.30635,0,0,1-.9297,1.6851l.8506-.5845,3.9287-4.4009,2.0429-.7846,2.5928,1.0205,6.208,1.1787,2.2783-.314.8653.7862,2.9853,2.9072,1.4141,3.6138.3926,1.8867,1.0215.4707.4726.7856,3.5508.1939Z"/>
          <path class="cls-4" d="M74.75,10.4238l2.1475,1.3609c.15621-.1563-1.5723-1.8843-1.5723-1.8843Z"/>
          <polygon class="cls-6" points="75.64 9.009 75.588 9.481 75.64 10.267 74.75 10.424 73.755 9.795 74.75 9.533 75.64 9.009"/>
          <path class="cls-8" d="M71.2041,4.688,70.166,4.3208l-4.4795.9434-4.00779-.3145L55.9443,3.0645,50.8359.4712,47.3789,0,40.4648,1.1782,29.9356,6.521,26.8555,9.7334,30.4082,7.543l6.52051-3.0645L44.7861,1.4932l4.8721.5493L52.959,3.9282s7.6211,2.6719,8.01271,2.6719A38.93585,38.93585,0,0,0,65.2949,6.521c.2354-.1562,2.6719-.3921,2.9073-.6294.2363-.2339,2.0429-.7847,2.2773-.9419A4.73174,4.73174,0,0,1,71.2041,4.688Z"/>
          <polygon class="cls-2" points="68.517 7.463 71.108 6.365 71.58 5.107 71.345 2.986 70.166 2.122 68.752 3.143 68.28 4.95 68.517 7.463"/>
          <polygon class="cls-5" points="70.166 2.122 68.752 3.143 68.28 4.95 68.517 7.463 69.788 6.925 69.379 4.479 69.93 3.065 70.638 3.3 70.952 4.321 70.716 5.971 70.672 6.55 71.108 6.365 71.58 5.107 71.345 2.986 70.166 2.122"/>
          <polygon class="cls-2" points="9.899 30.958 8.249 28.993 6.6 25.85 7.205 22.708 5.343 23.494 5.207 23.586 4.557 29.151 6.992 31.743 8.188 32.499 10.504 31.507 9.899 30.958"/>
          <path class="cls-2" d="M6.1025,33.3086,4.8721,31.979s-1.416-1.729-1.4942-1.9648c-.0781-.2344-.7841-2.1211-.7841-2.1211l.1826-2.6328-.9688.6679L0,28.2861l.2363,3.9278,1.2559.9433Z"/>
          <path class="cls-2" d="M12.4932,28.3648c-.2364-.2364-1.0996-2.1211-1.336-2.3575a6.00811,6.00811,0,0,1-.4707-1.6504l.8125-3.5014-1.1269.5161-.3281.1382-.9307,2.2978s.1582,3.2212.2373,3.4571c.07811.2348,1.4922,3.1435,1.4922,3.1435l.792.6152,2.1338-.9155C13.333,29.4844,12.6504,28.523,12.4932,28.3648Z"/>
          <path class="cls-2" d="M17.3418,27.9492l-.4492-.4497L15.4785,24.75l-.9433-2.6719.26751-2.7382-1.76751.81a19.7288,19.7288,0,0,0-.1504,2.4795c.0791.4712,1.1787,3.7715,1.33691,4.1646.09959.2509.77729,1.5605,1.25489,2.4731Z"/>
          <path class="cls-2" d="M21.1934,25.1851l-.1358-.042-1.33589-1.0215s-1.09961-1.1787-1.41411-1.5713c-.3135-.3931-1.1797-2.0425-1.1797-2.0425l-.2177-2.1328-1.0694.4893c-.04.916-.1025,2.52-.0478,2.7426.0791.314,1.0224,2.3584,1.0224,2.3584l1.9629,1.8062.9473.4922,1.2539-.8853Z"/>
          <path class="cls-2" d="M22.9424,21.9209l-1.17769-1.021-1.335-2.1211-.583-2.2661-1.18561.8599a3.16838,3.16838,0,0,0,.1954.935c.2373.3926.9443,2.4346,1.1015,2.7495.1572.3145,1.4141,1.9649,1.4932,2.2012a3.78922,3.78922,0,0,0,1.3164.5108l1.3193-1.1875Z"/>
          <path class="cls-2" d="M25.417,20.6699l-1.6885-1.813-1.5703-1.8852-.4639-1.7993-.80659.5844.16989,1.4502,1.8076,1.9654a14.89756,14.89756,0,0,0,2.3096,1.8496Z"/>
          <polygon class="cls-7" points="20.979 25.378 24.121 22.55 26.558 19.015 26.653 15.621 25.615 16.186 22.708 21.372 17.758 24.514 8.643 29.465 3.3 30.644 0.864 29.701 0.07 29.47 0.236 32.214 1.492 33.157 6.286 33.314 15.086 29.543 20.979 25.378"/>
        </g>
      </g>
    </g>
  </g>
</svg>
