<svg xmlns="http://www.w3.org/2000/svg" width="108.0771" height="66.1538" viewBox="0 0 108.0771 66.1538">
  <defs>
    <style>
      .cls-1 {
        fill: #5b2a15;
      }

      .cls-2 {
        fill: #442115;
      }

      .cls-3 {
        fill: #6b331f;
      }

      .cls-4 {
        fill: #723b1f;
      }
    </style>
  </defs>
  <g id="图层_2" data-name="图层 2">
    <g id="Layer_1" data-name="Layer 1">
      <g>
        <path class="cls-1" d="M79.3848,29.4351l-.8907,4.6074-.4472,4.6094-1.1895,3.4179.29791,4.9063,1.04,6.541.44729,3.8652,1.1884,1.3379,2.82431,1.3379,1.19039,1.1895v1.6367l-3.56839.5937-4.75781-.1484-3.4189-.8926-.7432-2.3789-1.6348-.5937-.2968-1.6348-.8926-.4473-.29689-1.4843a15.68013,15.68013,0,0,0-.29781-1.9336c-.1485-.4473-2.5264-7.2832-2.5264-7.2832l3.2695-11.3008,5.9473-8.4732Z"/>
        <path class="cls-2" d="M70.5781,46.3452l-2.00679,4.125-.794,3.0254c-.56541-1.6406-2.36521-6.8144-2.36521-6.8144l3.2695-11.3008,5.7871-8.2456c.1797-.0064.3604-.0166.542-.0239l4.3741,2.3242-.8907,4.6074-.4472,4.6094-1.1895,3.4179.29791,4.9063.57319,3.5918c-.707-1.2891-1.3545-2.4375-1.3545-2.4375l-2.3398-3.0117Z"/>
        <polygon class="cls-2" points="96.183 11.298 96.407 9.514 95.888 8.176 94.697 7.284 93.582 7.21 91.501 8.102 96.036 11.224 96.183 11.298"/>
        <polygon class="cls-2" points="29.287 40.437 27.056 46.828 24.678 51.14 22.745 54.855 23.042 57.382 25.866 59.167 27.948 60.505 28.691 62.14 26.61 62.884 24.083 62.884 20.961 62.884 16.947 61.544 15.757 57.085 17.839 48.314 23.489 38.503 29.287 40.437"/>
        <path class="cls-3" d="M107.9297,23.9351l-1.1905-.4468-4.3115-4.0142-2.0801-5.0537-3.7158-3.5683-4.4609-3.42-5.35259-1.04-4.30951.4463L76.5615,5.2036,66.8984,0,62.8838.148,50.2471,2.9737l-11.1485.7421L24.083,2.5264l-4.3106.5952-9.664,7.7305-9.8106,11L0,34.6382.5937,45.937l3.42,6.541,1.7841,8.7696,2.377,3.8652,2.5293,1.041H17.541c.2979-.5937,3.8672-.1484,3.8672-.1484l1.6338-.2969-.8916-2.9726-3.7158-1.0411-.8936-2.3789.1494-3.1211,5.7988-13.2324,2.8243-.7422,4.6074.7422,3.7168-2.0801,5.7988.7422,6.3916.8926,5.501-3.123v4.164l.74321,7.4336,1.041,1.9317L53.666,54.1128l.5957.8906,1.041.4473.4444,1.4863.5957,1.7832-.4463,1.1895.5947,1.3379.7432,3.4199,4.45991.5957,5.05469.2969,3.419-1.041V62.5855l-1.7842-1.3379-2.377-.8906-1.1894-2.0821.8906-5.3515,2.52831-12.0411,4.90629-7.4335,1.9316-2.9747,4.9053.4483,1.4873,3.1201,3.5683-.4453,5.0547-1.7842,2.8243-2.3779,3.7177-.1485,5.2012.2979,1.3389-.1494.7422-1.041,1.9335-.5938,2.2295-2.3789Z"/>
        <path class="cls-1" d="M0,34.6382.2978,21.8521l9.8106-11,9.664-7.7305,4.3106-.5952L39.0986,3.7158l11.1485-.7421L62.8838.148,66.8984,0l9.6631,5.2036,5.9473,1.6348,4.30951-.4463,5.35259,1.04,4.4609,3.42,3.10551,2.9824-.28221,2.0718L96.332,17.2451l-1.4863,1.189-1.1885-1.041.8916-3.1216V12.3384l-4.1621-.5947-3.4199.8935-4.9063-1.6367L75.9668,9.6631l-3.27249-2.231-2.37691.5953L68.23531,9.5137,66.5996,7.5811,64.9648,5.2036l-4.459-1.7837-4.163,1.4854S49.208,6.2437,48.7607,6.2437c-.4453,0-12.4873,1.6352-12.4873,1.6352l-4.4599,5.3526-3.7178-.5943-6.6895-2.082-4.6084-.8921L11.001,13.5288,6.98631,19.9209l-.89261,6.69-.14739,5.3515,2.081,5.5.14749,4.9063L6.2422,47.1245,5.499,50.8433,6.98631,56.937l.89259,3.1211.8926,2.8262L8.498,65.2456l-.3232-.1328-2.377-3.8652L4.0137,52.478l-3.42-6.541Z"/>
        <polygon class="cls-4" points="8.043 13.169 10.108 10.852 19.772 3.122 24.083 2.526 39.099 3.716 50.247 2.974 62.884 0.148 66.898 0 76.561 5.204 82.509 6.838 86.818 6.392 92.171 7.432 96.632 10.852 99.355 13.469 98.117 13.379 94.846 10.11 91.725 8.029 88.304 7.434 80.574 7.434 76.71 6.988 74.331 5.204 66.451 1.636 62.587 1.338 52.774 3.42 47.274 4.311 35.529 4.46 26.758 3.866 20.069 4.46 15.907 7.135 9.514 12.339 8.043 13.169"/>
        <polygon class="cls-1" points="71.916 33.189 71.916 29.732 72.026 25.05 72.026 22.151 74.591 21.034 79.385 23.154 82.173 25.83 84.849 23.712 88.305 21.482 91.315 19.697 89.866 22.039 91.427 25.384 94.325 24.826 97.114 23.712 99.9 20.813 101.477 17.166 102.428 19.474 102.974 19.982 99.344 26.499 97.414 29.332 96.632 29.287 92.914 29.435 90.09 31.813 85.035 33.597 81.467 34.042 79.979 30.922 75.074 30.474 73.143 33.449 71.589 35.802 71.916 33.189"/>
        <polygon class="cls-2" points="99.752 17.17 99.826 17.69 99.381 17.914 99.602 18.731 99.752 19.102 99.381 19.251 97.598 17.988 98.191 17.69 99.752 17.17"/>
        <polygon class="cls-4" points="93.496 29.412 94.697 26.908 96.481 25.57 99.009 23.34 100.793 20.516 101.87 18.12 102.428 19.474 106.739 23.488 107.93 23.935 108.077 25.421 105.848 27.8 103.914 28.394 103.172 29.435 101.833 29.584 96.632 29.287 93.496 29.412"/>
        <path class="cls-1" d="M94.9941,13.2315c0-.2237-.29679-1.562-.29679-1.562L92.7646,10.0352l-1.5605.1479L89.792,11.2984l-.22369,2.081.44629,1.189,1.3399-.148,1.9316-.7436Z"/>
        <path class="cls-2" d="M91.3262,14.4238l-1.3116.1446-.44629-1.189.22369-2.081,1.4121-1.1153,1.5605-.1479,1.93271,1.6343s.29679,1.3383.29679,1.562l-.3242.0839-.7168-1.498-1.1142-1.1138H91.4267l-.5947,1.1895.3721,2.0063Z"/>
        <polygon class="cls-1" points="106.366 24.082 106.869 23.536 107.93 23.935 108.077 25.421 107.182 26.375 106.813 25.718 106.888 24.902 106.294 24.751 106.366 24.082"/>
        <polygon class="cls-1" points="100.271 27.205 102.651 27.874 104.852 28.107 103.914 28.394 103.878 28.445 102.875 28.246 101.982 28.097 100.793 27.874 99.529 27.725 98.414 27.798 97.969 27.502 98.414 26.982 100.271 27.205"/>
        <polygon class="cls-1" points="34.638 40.882 30.921 42.962 26.313 42.22 23.489 42.962 19.8 51.382 19.4 50.136 19.289 44.783 19.622 39.878 21.185 33.078 20.738 27.168 21.853 26.499 24.083 28.505 32.668 31.962 40.026 33.412 46.382 32.408 50.174 29.843 55.191 25.718 56.752 26.276 56.529 28.729 58.09 32.853 60.654 35.195 64.222 37.425 66.228 41.439 67.121 46.195 65.708 52.923 64.817 58.275 66.007 60.357 68.384 61.248 70.168 62.585 70.168 64.519 66.749 65.56 61.694 65.263 57.234 64.667 56.491 61.248 55.896 59.91 56.343 58.72 55.747 56.937 55.303 55.451 54.262 55.003 53.666 54.113 54.113 52.923 53.072 50.992 52.329 43.558 52.329 39.394 46.828 42.517 40.436 41.624 34.638 40.882"/>
        <path class="cls-1" d="M16.8349,64.1851l.7061,1.9687h-.6855l-.4649-1.3008-1.3389-1.1152C15.2744,63.1812,16.8349,64.1851,16.8349,64.1851Z"/>
        <path class="cls-1" d="M20.40431,63.6265l.89159,1.4492-.0615.9102c-.16509-.0196-.4424-.0469-.7725-.0743l-.1699-1.2812-1.3369-1.1152-1.0039-.334C18.0625,62.7359,20.40431,63.6265,20.40431,63.6265Z"/>
        <path class="cls-2" d="M25.3096,39.4331l.8925-2.9004,3.2325.5567,8.3632.7812,5.3516.5567,6.3545-1.002,3.9023-1.5605,1.4502,3.2324-.5576,2.7871.1113,6.0215,1.1143,4.6836,2.0078,3.457-.66889,3.3438-.68261,1.1621-.2842-.6426.4463-1.1895-.5957-1.7832-.4444-1.4863-1.041-.4473-.5957-.8906.44731-1.1894-1.041-1.9317-.74321-7.4336v-4.164l-5.501,3.123-6.3916-.8926-5.7988-.7422-3.7168,2.0801-4.6074-.7422-2.4444.6426C24.333,41.7359,25.3096,39.4331,25.3096,39.4331Z"/>
        <polygon class="cls-2" points="59.136 64.921 57.234 64.667 56.691 62.167 58.2 62.957 59.136 64.921"/>
        <polygon class="cls-2" points="66 65.515 64.876 65.449 64.779 64.296 63.106 62.957 62.773 62.289 65.56 63.404 66 65.515"/>
        <path class="cls-2" d="M65.5596,62.3999c.1132-.4453,2.3408.4473,2.3408.4473l.8926,1.0019.2861,1.002-.6953.2109-.2598-1.2129-1.6728-1.2246Z"/>
      </g>
    </g>
  </g>
</svg>
