<svg xmlns="http://www.w3.org/2000/svg" width="107.5542" height="54.6788" viewBox="0 0 107.5542 54.6788">
  <defs>
    <style>
      .cls-1 {
        fill: #5e4d4f;
      }

      .cls-2 {
        fill: #47383b;
      }

      .cls-3 {
        fill: #6d5b5d;
      }

      .cls-4 {
        fill: #aa8984;
      }

      .cls-5 {
        fill: #c4b3ab;
      }
    </style>
  </defs>
  <g id="图层_2" data-name="图层 2">
    <g id="Layer_1" data-name="Layer 1">
      <g>
        <polygon class="cls-1" points="1.524 26.302 2.042 31.188 3.083 34.408 2.667 37.423 1.212 41.999 1.212 43.972 2.979 44.805 4.436 48.027 4.123 50.834 4.436 51.663 13.685 52.392 14.934 51.562 15.142 50.834 14.414 49.689 12.855 48.962 10.671 47.611 10.152 45.74 11.191 41.479 12.127 34.929 1.524 26.302"/>
        <polygon class="cls-2" points="14.934 51.562 15.142 50.834 14.414 49.689 12.855 48.962 10.671 47.611 10.152 45.74 11.191 41.479 12.127 34.929 1.524 26.302 2.042 31.188 3.083 34.408 2.667 37.423 1.212 41.999 1.212 43.972 2.631 44.641 2.564 42.309 4.33 39.918 7.138 40.854 9.008 45.115 9.32 47.715 11.607 48.754 13.167 50.209 13.799 52.316 14.934 51.562"/>
        <polygon class="cls-1" points="5.682 49.689 5.37 47.819 3.948 46.949 4.436 48.027 4.123 50.834 4.436 51.663 5.578 51.755 5.682 49.689"/>
        <polygon class="cls-1" points="77.547 32.642 76.506 37.11 75.569 41.893 75.364 44.7 76.193 47.819 77.649 48.649 78.481 49.897 78.587 50.937 74.219 51.041 71.725 49.481 72.348 43.036 76.506 29.733 77.547 32.642"/>
        <polygon class="cls-3" points="81.012 30.425 81.705 30.425 84.686 33.057 87.248 33.405 87.872 33.542 88.704 34.583 90.298 37.699 94.249 40.818 95.704 40.889 99.723 39.431 100.624 37.838 101.248 37.008 100.07 35.274 100.07 34.166 101.939 33.126 104.782 32.435 106.237 29.8 107.554 27.306 107.554 26.612 106.791 27.097 104.503 29.246 102.633 29.661 99.307 29.314 97.713 28.829 97.435 27.999 98.129 26.475 98.89 24.741 98.476 24.117 96.051 24.048 94.04 23.493 93.625 22.178 92.237 14.971 91.407 12.96 85.516 10.259 80.561 6.551 75.05 2.393 71.933 0.625 67.151 0 62.993 0.625 58.524 1.975 52.909 3.224 44.594 3.744 33.263 2.289 26.299 0 24.74 0.105 16.632 3.224 9.771 3.12 7.898 4.575 1.248 13.618 0 18.193 0.104 26.302 3.118 33.162 8.731 38.67 11.434 40.127 12.68 42.517 12.995 46.572 13.306 47.922 14.76 48.547 16.84 49.379 17.879 50.313 18.399 53.225 19.542 53.848 22.765 54.367 28.689 54.679 29.833 53.952 29.833 52.808 28.066 50.729 24.117 49.066 22.453 45.637 20.375 39.608 20.165 38.256 20.165 37.008 22.973 34.305 23.7 32.227 24.843 32.435 33.679 37.32 38.98 39.502 49.999 39.398 58.314 38.776 61.33 36.28 62.993 35.968 64.345 38.358 65.281 39.608 64.76 44.7 64.864 47.402 65.488 49.169 64.656 50.937 64.656 52.081 67.566 53.639 71.725 53.848 75.259 53.328 75.259 51.251 73.491 50.106 72.245 48.027 72.348 45.323 73.804 40.439 75.05 34.513 76.091 34.826 76.922 33.68 77.338 31.707 78.481 31.29 79.832 31.81 80.665 31.497 81.012 30.425"/>
        <polygon class="cls-1" points="81.233 30.425 81.079 29.212 81.704 27.341 83.679 24.013 85.966 21.414 88.979 20.376 88.877 16.529 89.604 14.347 88.461 14.971 86.07 16.529 83.576 19.231 80.561 18.921 77.858 16.01 75.987 12.891 75.259 9.772 74.012 9.254 73.699 10.499 73.699 13.688 74.809 19.787 76.264 24.153 74.844 25.781 70.997 30.043 70.479 29.212 68.918 28.691 65.382 29.628 63.929 30.25 63.408 26.821 63.825 24.327 62.993 24.223 61.537 25.781 59.146 27.443 52.287 28.379 42.411 29.939 26.818 26.404 20.997 25.055 17.254 20.583 16.111 17.359 16.423 14.658 15.799 14.658 15.489 16.01 15.696 19.856 18.711 23.91 23.075 28.068 23.907 30.666 23.907 32.264 24.843 32.435 33.679 37.32 38.98 39.502 49.999 39.398 58.314 38.776 61.33 36.28 62.993 35.968 64.345 38.358 65.281 39.608 64.76 44.7 64.864 47.402 65.488 49.169 64.84 50.543 66.423 49.897 68.503 49.274 69.75 48.962 69.437 47.611 70.271 42.517 70.997 38.358 73.596 35.656 74.823 35.598 75.05 34.513 76.091 34.826 76.922 33.68 77.338 31.707 78.481 31.29 79.832 31.81 80.665 31.497 81.012 30.425 81.233 30.425"/>
        <polygon class="cls-4" points="82.848 10.292 86.902 11.956 90.349 12.476 85.516 10.259 80.561 6.551 75.05 2.393 71.933 0.625 67.151 0 62.993 0.625 58.524 1.975 52.909 3.224 44.594 3.744 33.263 2.289 26.299 0 24.74 0.105 16.632 3.224 9.771 3.12 7.898 4.575 1.248 13.618 0.872 14.994 3.846 10.709 7.794 5.613 9.978 4.159 13.826 4.368 18.19 4.471 22.869 3.224 28.482 3.224 35.341 5.198 45.321 6.445 52.909 6.343 58.108 5.304 64.76 3.848 69.542 3.224 75.259 4.888 79.313 7.486 82.848 10.292"/>
        <polygon class="cls-4" points="94.33 23.574 94.873 24.949 95.981 26.612 96.951 27.582 97.478 27.906 98.129 26.475 98.89 24.741 98.476 24.117 96.051 24.048 94.33 23.574"/>
        <polygon class="cls-5" points="98.638 24.362 98.476 24.117 96.051 24.048 94.33 23.574 94.738 24.61 96.535 24.949 98.638 24.362"/>
        <polygon class="cls-3" points="96.459 27.092 96.951 27.582 97.478 27.906 98.129 26.475 98.271 26.147 96.459 27.092"/>
        <polygon class="cls-3" points="92.256 23.599 90.799 23.131 89.448 23.754 89.189 25.262 89.264 26.129 89.968 27.184 92.256 27.289 93.294 25.989 93.034 24.378 92.256 23.599"/>
        <polygon class="cls-2" points="90.799 24.117 90.384 24.898 90.695 25.729 92.046 25.938 92.099 25.469 92.306 24.586 90.799 24.117"/>
        <polygon class="cls-4" points="93.034 24.378 92.256 23.599 90.799 23.131 89.448 23.754 89.369 24.211 90.28 24.171 91.58 24.586 93.291 25.976 93.034 24.378"/>
        <polygon class="cls-1" points="92.656 26.788 91.838 26.821 90.175 26.612 89.237 25.818 89.264 26.129 89.968 27.184 92.256 27.289 92.656 26.788"/>
        <polygon class="cls-1" points="95.115 40.386 94.23 39.449 92.567 37.631 92.41 36.28 91.112 33.733 88.979 32.227 86.018 31.759 82.692 29.991 81.461 26.162 80.197 31.239 80.387 31.603 80.665 31.497 81.012 30.425 81.705 30.425 84.686 33.057 87.248 33.405 87.872 33.542 88.704 34.583 90.298 37.699 94.249 40.818 95.704 40.889 96.206 40.705 95.115 40.386"/>
        <polygon class="cls-1" points="100.07 35.274 100.07 34.166 100.692 33.821 100 33.473 99.531 34.513 99.74 35.656 100.104 37.008 99.219 38.515 97.495 40.239 99.723 39.431 100.624 37.838 101.248 37.008 100.07 35.274"/>
        <polygon class="cls-4" points="98.51 37.855 98.875 36.558 98.51 35.311 97.991 35.153 97.471 35.311 97.575 36.401 97.991 37.546 98.51 37.855"/>
        <polygon class="cls-2" points="97.263 35.554 98.025 35.726 98.336 36.453 98.336 37.146 98.093 37.942 97.678 37.32 97.435 36.522 97.263 35.554"/>
        <polygon class="cls-4" points="73.201 49.62 71.656 50.176 67.497 50.592 66.944 51.144 69.022 50.937 72.487 51.215 75.259 51.322 75.259 51.251 73.491 50.106 73.201 49.62"/>
        <polygon class="cls-1" points="24.011 29.108 22.453 32.952 19.334 35.76 18.711 38.67 19.645 42.309 21.31 45.221 23.251 47.284 22.453 45.637 20.375 39.608 20.165 38.256 20.165 37.008 22.973 34.305 23.7 32.227 24.843 32.435 25.648 32.878 26.61 30.355 24.011 29.108"/>
        <polygon class="cls-1" points="17.776 48.547 18.85 45.428 21.032 44.389 19.161 39.608 13.618 38.776 10.604 37.008 5.509 32.851 1.455 24.637 0.769 15.372 0 18.193 0.104 26.302 3.118 33.162 8.731 38.67 11.434 40.127 12.68 42.517 12.995 46.572 13.306 47.922 14.76 48.547 16.84 49.379 17.879 50.313 18.399 53.225 18.513 53.285 19.334 52.497 18.606 50.626 17.776 48.547"/>
        <polygon class="cls-1" points="6.444 31.291 9.251 34.616 12.473 36.073 13.824 36.488 13.721 35.933 9.703 33.924 6.894 30.873 6.444 31.291"/>
        <polygon class="cls-4" points="28.066 50.729 25.001 49.438 22.869 51.144 21.205 51.769 22.973 51.871 27.13 51.144 28.075 50.739 28.066 50.729"/>
        <polygon class="cls-4" points="107.554 26.612 106.791 27.097 104.503 29.246 102.633 29.661 99.307 29.314 98.388 29.036 98.335 30.078 98.752 32.089 99.168 33.267 100.165 34.114 101.939 33.126 104.782 32.435 106.237 29.8 107.554 27.306 107.554 26.612"/>
        <polygon class="cls-5" points="104.018 30.078 106.167 28.624 107.345 26.744 106.791 27.097 104.503 29.246 102.633 29.661 99.307 29.314 98.388 29.036 98.335 30.078 98.37 30.24 101.663 30.493 104.018 30.078"/>
        <polygon class="cls-3" points="104.435 31.603 101.179 32.504 98.958 32.669 99.168 33.267 100.165 34.114 101.939 33.126 104.782 32.435 105.618 30.922 104.435 31.603"/>
        <polygon class="cls-3" points="87.838 13.307 89.293 12.684 91.476 11.331 96.983 10.813 98.335 10.813 98.335 11.331 96.256 12.996 93.763 14.347 92.203 13.828 90.021 14.763 89.293 15.49 87.838 13.307"/>
        <polygon class="cls-1" points="90.021 14.763 92.203 13.828 93.763 14.347 96.256 12.996 96.807 12.555 95.529 12.684 93.034 12.996 91.476 13.516 90.021 14.243 89.961 14.82 90.021 14.763"/>
        <polygon class="cls-2" points="55.231 36.593 48.059 37.11 36.831 35.138 27.27 31.082 23.252 28.617 23.907 30.666 23.907 32.264 24.843 32.435 33.679 37.32 38.98 39.502 49.999 39.398 58.314 38.776 61.33 36.28 62.282 36.101 55.231 36.593"/>
        <polygon class="cls-2" points="79.817 31.446 78.983 29.887 78.411 28.12 78.203 24.013 77.517 23.279 77.467 23.325 77.269 25.364 77.164 28.899 75.502 30.719 71.238 32.642 72.799 32.902 75.605 33.524 76.589 34.14 76.922 33.68 77.338 31.707 78.481 31.29 79.832 31.81 79.906 31.781 79.817 31.446"/>
        <polygon class="cls-3" points="74.012 10.743 74.256 12.407 74.87 15.595 75.971 19.475 77.073 22.731 77.809 25.295 77.931 27.443 78.421 30.493 79.033 30.633 79.278 29.523 78.849 26.475 78.667 24.188 78.237 22.523 76.646 18.228 75.114 13.099 74.378 10.813 74.012 10.743"/>
        <polygon class="cls-2" points="75.292 34.408 76.158 34.729 76.49 34.274 76.229 33.993 74.618 33.37 72.591 33.316 69.94 33.473 66.51 34.15 64.432 34.772 63.34 35.5 63.025 36.026 63.734 37.28 64.274 36.903 65.314 36.176 66.614 35.604 68.692 35.397 73.06 34.565 75.292 34.408"/>
        <polygon class="cls-3" points="70.271 33.542 73.734 33.474 75.952 34.097 76.352 34.465 76.826 33.813 75.952 33.195 72.972 32.365 69.716 32.573 65.488 33.126 63.547 34.235 62.283 36.101 62.993 35.968 63.059 36.085 64.31 34.998 66.944 34.235 70.271 33.542"/>
        <polygon class="cls-2" points="64.968 35.864 63.651 36.212 63.337 36.579 64.345 38.358 65.281 39.608 64.76 44.7 64.864 47.402 65.348 48.776 65.661 45.845 66.146 41.131 66.075 38.844 64.968 35.864"/>
        <polygon class="cls-1" points="71.725 53.848 75.259 53.328 75.259 52.956 73.56 53.12 70.234 52.983 67.255 52.774 64.656 51.557 64.656 52.081 67.566 53.639 71.725 53.848"/>
        <polygon class="cls-1" points="28.689 54.679 29.833 53.952 29.833 53.859 28.308 54.229 23.872 54.021 20.892 53.745 19.161 53.396 18.928 53.513 19.542 53.848 22.765 54.367 28.689 54.679"/>
        <path class="cls-2" d="M11.607,51.8038,9.5264,51.251l-2.7016-.5556s-1.605-.5713-2.587-.8926L4.1231,50.834l.313.8291,7.5649.5957Z"/>
        <polygon class="cls-4" points="92.272 11.816 95.529 11.609 97.08 10.813 96.983 10.813 91.476 11.331 89.293 12.684 89.049 12.787 89.916 12.787 92.272 11.816"/>
      </g>
    </g>
  </g>
</svg>
