<svg xmlns="http://www.w3.org/2000/svg" width="96.3579" height="62.0703" viewBox="0 0 96.3579 62.0703">
  <defs>
    <style>
      .cls-1 {
        fill: #965427;
      }

      .cls-2 {
        fill: #c3773b;
      }

      .cls-3 {
        fill: #ad6432;
      }

      .cls-4 {
        fill: #dd8b52;
      }

      .cls-5 {
        fill: #692300;
      }

      .cls-6 {
        fill: #9a3919;
      }

      .cls-7 {
        fill: #562d11;
      }

      .cls-8 {
        fill: #e8b980;
      }
    </style>
  </defs>
  <g id="图层_2" data-name="图层 2">
    <g id="Layer_1" data-name="Layer 1">
      <g>
        <polygon class="cls-1" points="24.865 59.202 28.132 59.226 29.579 58.347 29.871 56.079 30.873 55.257 31 53.041 30.401 51.485 30.328 46.001 31.522 41.634 26.813 41.547 22.741 53.704 24.865 59.202"/>
        <polygon class="cls-1" points="75.149 28.477 75.508 32.689 75.477 36.843 78.245 45.392 80.654 49.507 81.42 51.008 81.076 52.502 79.015 54.258 77.205 59.785 74.925 60.933 71.048 60.962 68.668 60.502 69.067 59.01 69.905 57.852 71.125 57.641 72.401 57.593 73.677 57.269 75.642 53.405 74.666 50.296 71.265 45.62 70.29 34.479 73.002 26.635 75.149 28.477"/>
        <polygon class="cls-2" points="0.058 13.748 0 14.303 0.768 15.359 1.424 16.472 2.363 17.088 2.526 17.586 3.318 19.088 4.149 19.039 7.204 17.703 8.577 19.485 8.564 21.147 8.753 26.078 8.468 27.239 9.13 27.631 10.186 27.196 11.059 29.086 11.27 30.472 12.098 30.976 12.873 31.313 12.477 32.196 12.414 33.359 12.748 32.975 13.302 32.979 13.35 34.252 13.784 35.362 14.175 35.09 15.004 35.149 15.548 36.759 17.848 40.599 19.114 41.66 20.317 43.827 20.503 48.925 20.627 55.131 19.953 56.509 18.06 57.66 16.164 59.696 16.214 60.472 17.653 60.592 17.927 61.092 23.133 61.13 25.131 60.534 25.315 58.151 26.044 56.774 27.053 55.119 27.449 54.125 26.519 52.178 26.764 48.691 27.456 44.817 28.8 42.668 34.505 42.707 38.211 43.342 40.263 43.078 41.159 41.757 43.264 41.493 47.649 40.306 52.315 38.344 56.036 37.096 59.742 37.952 61.227 39.181 63.023 43.958 64.376 48.397 67.669 52.796 67.716 54.126 63.087 58.525 61.703 58.569 60.873 58.288 59.707 59.055 59.04 59.273 57.977 60.648 57.695 61.367 60.737 61.943 63.285 62.07 66.67 61.152 70.298 57.412 74.148 53.118 73.169 50.397 72.568 41.309 74.225 34.01 74.925 28.808 77.424 36.08 80.25 43.744 84.597 48.039 88.122 50.888 88.518 49.894 82.133 43.977 78.861 36.477 75.884 26.709 71.767 21.085 68.572 18.349 63.33 15.765 61.17 15.529 54.795 16.205 48.147 16.38 36.63 15.803 34.864 14.902 33.382 13.12 31.727 12.058 29.032 9.324 24.792 5.527 20.78 1.181 18.239 0 14.247 0.524 7.864 2.475 7.135 3.799 6.68 5.402 7.503 6.517 6.276 7.781 4.604 9.32 4.212 9.982 0.058 13.748"/>
        <polygon class="cls-3" points="67.271 46.368 65.981 40.93 66.125 35.947 67.038 32.076 67.072 27.201 64.867 25.637 61.648 26.5 59.634 29.255 58.622 31.576 54.068 33.427 46.408 35.699 40.315 35.769 31.458 34.821 23.788 32.242 23.722 32.219 13.779 28.273 8.736 26.15 8.468 27.239 9.13 27.631 10.186 27.196 11.059 29.086 11.27 30.472 12.098 30.976 12.873 31.313 12.477 32.196 12.414 33.359 12.748 32.975 13.302 32.979 13.35 34.252 13.784 35.362 14.175 35.09 15.004 35.149 15.548 36.759 17.848 40.599 19.114 41.66 20.275 43.751 22.445 40.74 22.411 45.505 23.475 51.825 24.005 55.264 23.208 58.359 21.211 58.899 19.431 59.995 19.238 61.101 23.133 61.13 25.131 60.534 25.315 58.151 26.044 56.774 27.053 55.119 27.449 54.125 26.519 52.178 26.764 48.691 27.456 44.817 28.8 42.668 34.505 42.707 38.211 43.342 40.263 43.078 41.159 41.757 43.264 41.493 47.649 40.306 52.315 38.344 56.036 37.096 59.742 37.952 61.227 39.181 63.023 43.958 64.376 48.397 67.669 52.796 67.716 54.126 63.69 57.952 64.419 58.203 64.976 57.873 65.754 57.436 68.759 55.573 69.991 53.698 69.451 51.59 67.271 46.368"/>
        <polygon class="cls-3" points="78.084 36.473 76.024 30.254 75.263 28.145 74.152 28.469 73.129 32.339 71.635 40.195 71.935 44.849 72.796 48.29 73.067 48.867 72.568 41.309 74.225 34.01 74.925 28.808 77.424 36.08 78.589 39.242 78.084 36.473"/>
        <polygon class="cls-3" points="74.053 52.854 73.431 52.726 71.312 54.816 67.072 59.218 64.736 60.642 64.325 61.789 66.67 61.152 70.298 57.412 74.148 53.118 74.053 52.854"/>
        <polygon class="cls-3" points="19.222 58.332 18.164 58.935 17.438 59.815 17.364 60.568 17.653 60.592 17.927 61.092 17.881 60.095 19.222 58.332"/>
        <polygon class="cls-3" points="61.529 59.691 60.616 59.602 59.162 59.509 58.831 59.542 58.221 60.334 59.16 59.966 60.863 59.894 61.529 59.691"/>
        <polygon class="cls-4" points="75.884 26.709 71.767 21.085 68.572 18.349 63.33 15.765 61.17 15.529 54.795 16.205 48.147 16.38 36.63 15.803 34.864 14.902 33.382 13.12 33.159 12.978 32.432 14.083 33.66 16.667 39.638 17.457 47.36 18.176 55.001 18.394 58.999 17.176 61.909 16.862 64.478 17.794 71.759 22.166 74.974 26.01 76.366 28.928 76.594 29.041 75.884 26.709"/>
        <polygon class="cls-5" points="88.409 49.449 87.789 50.942 89.435 53.278 91.369 53.956 93.976 53.588 96.358 53.493 95.039 51.656 90.627 49.076 88.854 49.12 88.409 49.449"/>
        <polygon class="cls-5" points="52.315 38.344 56.036 37.096 59.742 37.952 61.117 39.09 60.686 37.294 60.457 34.466 60.137 32.722 57.554 33.782 51.966 36.902 48.468 37.957 41.234 38.905 34.265 37.525 31.288 35.512 29.893 32.677 31.241 30.276 31.832 28.703 32.519 25.466 31.712 22.222 31.307 20.474 31.977 19.729 32.736 18.405 33.323 17.579 34.827 16.343 36.156 16.352 36.669 15.804 36.63 15.803 34.864 14.902 33.382 13.12 31.727 12.058 29.032 9.324 24.792 5.527 20.78 1.181 18.239 0 14.247 0.524 7.864 2.475 7.135 3.799 6.68 5.402 7.503 6.517 7.37 6.653 8.393 6.272 9.383 7.027 11.03 9.199 10.002 13.761 9.14 18.243 8.575 19.796 8.564 21.147 8.753 26.078 8.468 27.239 9.13 27.631 10.186 27.196 11.059 29.086 11.27 30.472 12.098 30.976 12.873 31.313 12.477 32.196 12.414 33.359 12.748 32.975 13.302 32.979 13.35 34.252 13.784 35.362 14.175 35.09 15.004 35.149 15.548 36.759 17.848 40.599 19.114 41.66 20.317 43.827 20.324 43.987 20.846 43.582 23.021 41.271 24.042 37.789 26.706 37.144 28.858 38.152 29.178 40.232 28.855 42.668 34.505 42.707 38.211 43.342 40.263 43.078 41.159 41.757 43.264 41.493 47.649 40.306 52.315 38.344"/>
        <polygon class="cls-6" points="20.541 15.414 21.652 11.101 19.951 4.774 15.559 3.166 12.565 3.56 10.142 5.455 9.797 7.28 9.74 7.499 11.03 9.199 10.002 13.761 9.14 18.243 8.575 19.796 8.564 21.147 8.714 25.017 9.511 24.56 10.686 22.907 13.275 20.93 17.861 18.635 20.541 15.414"/>
        <polygon class="cls-6" points="23.43 4.052 25.005 6.721 28.801 10.484 31.853 13.914 34.664 15.678 35.088 16.345 36.156 16.352 36.669 15.804 36.63 15.803 34.864 14.902 33.382 13.12 31.727 12.058 29.032 9.324 24.792 5.527 23.43 4.052"/>
        <polygon class="cls-6" points="16.486 1.095 18.599 0.167 18.239 0 14.247 0.524 7.864 2.475 7.135 3.799 6.68 5.402 7.503 6.517 7.37 6.653 7.913 6.451 8.32 4.611 12.159 2.311 16.486 1.095"/>
        <polygon class="cls-5" points="14.418 7.727 15.581 7.847 17.011 9.518 17.327 11.735 16.922 14.114 15.801 16.268 15.124 17.869 14.894 18.974 14.737 17.81 15.36 15.877 16.264 13.28 16.168 11.118 15.345 10.06 15.004 11.055 14.496 12.658 13.882 13.373 13.819 14.37 13.923 15.314 13.645 15.477 13.438 13.481 14.003 11.823 14.625 9.778 13.911 9.108 14.418 7.727"/>
        <polygon class="cls-5" points="13.357 17.137 13.122 18.962 11.843 19.839 10.503 21.272 9.83 22.54 10.273 22.489 11.782 20.614 12.952 19.793 13.785 19.189 13.96 17.971 13.913 16.808 13.357 17.137"/>
        <polygon class="cls-5" points="12.743 17.852 12.35 18.626 11.628 18.841 10.85 19.169 11.631 18.509 12.466 17.684 12.477 16.354 12.753 16.245 12.743 17.852"/>
        <path class="cls-6" d="M7.7065,17.2627l-1.2793.7676.001.0127.7754-.3399,1.3731,1.7822-.0054.7168.1113.004s1.2881-1.9864,1.3433-2.1504a6.97486,6.97486,0,0,0-.3775-1.3887Z"/>
        <polygon class="cls-4" points="7.158 10.419 7.029 10.998 6.364 11.203 5.532 11.197 5.033 11.276 5.036 10.902 5.995 10.411 7.158 10.419"/>
        <polygon class="cls-7" points="6.123 9.996 7.451 10.089 7.281 10.586 6.449 10.829 5.869 10.576 5.036 10.902 6.123 9.996"/>
        <polygon class="cls-3" points="6.148 10.107 6.209 9.472 6.6 9.225 7.232 9.672 7.257 10.116 6.148 10.107"/>
        <path class="cls-8" d="M6.1279,17.2803l-.4365-1.083-.7954-1.086s-1.1343-.2568-1.2173-.2568-1.4668-.0938-1.5508-.0938c-.083,0-.5766-.5859-.5766-.5859l-.8316.2139s-.1562.1992-.3398.4365l.3877.5342.6567,1.1123.9385.6162.1631.498.792,1.502.831-.0488,1.9331-.8448Z"/>
        <polygon class="cls-5" points="0.017 14.144 0 14.303 0.768 15.359 1.108 15.935 1.186 14.865 1.855 14.288 1.859 13.706 0.444 14.193 0.017 14.144"/>
        <polygon class="cls-4" points="4.286 17.232 4.89 17.236 5.595 17.305 5.906 17.162 6.14 16.477 6.065 15.147 5.533 14.105 4.742 14.39 4.302 14.968 4.482 16.03 4.413 16.797 4.286 17.232"/>
        <path class="cls-7" d="M1.9619,16.8643s1.4937.2587,1.6191.2597c.1241.001,1.5367.0518,1.5367.0518l.75-.2012.0791.374-.418.2041-.5371-.2109-.708-.0039L3.29,17.2051l-1.1225-.0498Z"/>
        <polygon class="cls-2" points="11.102 6.821 12.395 8.081 13.214 10.433 14.37 9.242 14.645 7.106 13.768 5.797 12.104 6.16 11.102 6.821"/>
        <polygon class="cls-3" points="11.667 7.371 12.395 8.081 12.831 9.331 13.807 8.017 13.76 7.17 13.074 6.898 11.667 7.371"/>
        <path class="cls-6" d="M20.835,9.2119l2.2055,1.3447,1.0366,2.2227,1.48,2.335.8159,2.0576.1582,1.2187s-5.7387-3.0859-5.7939-3.3623c-.0513-.2783-1.4707-3.5566-1.4707-3.5566Z"/>
        <path class="cls-6" d="M27.6733,17.374l-2.9726-2.6797-1.9883-.7617-1.5645-2.1719-.6811,2.6563-1.2617,2.0674L16.6968,18.71l-.5933,1.7421s-.7681,2.8174-.7705,3.2334a33.1432,33.1432,0,0,1-1.0195,3.3174l-1.4302,2.5655-1.6436.6962.0303.2071.8281.5039.7745.3369-.396.8838-.063,1.1631.3344-.3848.5542.0049.0474,1.2725.4346,1.1103.3911-.2725.8291.0596.5439,1.6094,1.3286,2.2207.6836-1.0713.6797-1.9053A11.08552,11.08552,0,0,0,19.25,34.0156a28.57454,28.57454,0,0,1,.9331-2.8183l.7329,2.167-.6807,2.4043.6622.2529,1.5122-2.3164-.3111-2.9922.1949-4.3193,1.1855-3.0665,3.4907-.2246,2.4165-1.1464Z"/>
        <polygon class="cls-6" points="21.069 7.302 21.241 8.338 21.776 9.242 22.492 9.833 22.494 9.428 21.963 8.118 21.565 7.171 21.069 7.302"/>
        <polygon class="cls-5" points="20.377 11.368 20.651 11.869 20.137 13.914 19.127 15.791 17.956 16.835 17.009 17.716 16.674 18.267 16.507 18.211 16.904 16.94 18.352 15.565 19.531 13.579 19.929 11.92 20.049 10.702 20.377 11.368"/>
        <path class="cls-5" d="M21.2915,15.1973l-.7891,1.9892.0996,1.6621-.0683,1.6602-.3931.8848.2202.333a5.31176,5.31176,0,0,0,.5596-.9932c.001-.166.5176-2.8213.5176-2.8213l.6787-2.0439.4541-1.4366-.7734-.2841Z"/>
        <path class="cls-6" d="M24.0386,10.5635l.5996,1.4443.707,1.7774.9873,1.2812.9898,1.1699.8232,1.003.3281.6113.2798-.3858-1.0395-1.7812s-1.5913-2.335-1.6446-2.5029c-.0537-.1661-1.0923-2.333-1.0923-2.333l-.8222-1.0596L23.1094,8.6738l-.0645,1.2744Z"/>
        <polygon class="cls-6" points="14.159 21.461 12.71 22.505 12.476 24.386 11.857 25.767 11.298 26.54 11.406 26.815 12.244 25.936 13.144 23.893 13.984 22.624 14.82 21.799 15.271 20.694 14.159 21.461"/>
        <polygon class="cls-6" points="17.387 3.039 18.283 1.772 19.446 1.615 20.607 2.065 20.439 2.341 19.164 2.387 18.217 3.156 17.387 3.039"/>
        <polygon class="cls-6" points="15.065 2.58 16.122 1.923 17.067 1.486 17.394 1.766 16.618 2.26 16.172 2.699 15.065 2.58"/>
        <polygon class="cls-6" points="28.969 18.242 30.016 19.135 30.673 20.081 30.898 19.86 30.076 18.305 28.969 18.242"/>
        <polygon class="cls-6" points="29.072 19.461 29.178 20.127 30.008 20.354 29.956 19.855 29.072 19.461"/>
        <polygon class="cls-6" points="29.266 23.506 30.254 24.843 30.74 26.509 31.123 27.23 31.508 27.509 31.131 26.233 31.029 24.791 30.539 23.683 29.382 22.787 28.605 23.003 29.266 23.506"/>
        <polygon class="cls-6" points="28.662 14.64 30.486 15.205 31.31 16.319 31.636 17.151 32.244 17.322 32.521 17.158 32.027 16.711 31.756 15.879 31.041 14.987 30.381 14.374 29.164 14.144 28.394 13.253 27.837 13.967 28.662 14.64"/>
        <polygon class="cls-6" points="24.164 24.302 24.929 25.912 26.03 26.751 27.299 27.479 27.688 27.316 26.202 26.032 26.098 24.978 26.102 24.093 24.164 24.302"/>
        <polygon class="cls-2" points="2.16 15.266 2.076 15.369 2.158 15.453 2.262 15.37 2.16 15.266"/>
        <polygon class="cls-2" points="2.575 15.331 2.47 15.496 2.615 15.602 2.802 15.519 2.72 15.352 2.575 15.331"/>
        <polygon class="cls-2" points="3.156 15.419 3.092 15.583 3.237 15.709 3.403 15.628 3.363 15.419 3.156 15.419"/>
        <polygon class="cls-2" points="3.903 15.466 3.818 15.651 3.942 15.756 4.13 15.735 4.153 15.507 3.903 15.466"/>
        <polygon class="cls-2" points="4.693 15.43 4.651 15.574 4.818 15.596 4.879 15.451 4.839 15.325 4.693 15.43"/>
        <polygon class="cls-2" points="2.385 15.868 2.363 15.974 2.467 15.994 2.572 15.85 2.49 15.725 2.385 15.868"/>
        <polygon class="cls-2" points="3.09 15.896 3.027 16.039 3.151 16.124 3.256 16.083 3.257 15.918 3.09 15.896"/>
        <polygon class="cls-2" points="3.878 16.066 3.836 16.21 4.004 16.233 4.108 16.089 4.024 16.026 3.878 16.066"/>
        <polygon class="cls-2" points="4.668 16.01 4.562 16.176 4.77 16.303 4.896 16.157 4.813 15.991 4.668 16.01"/>
        <polygon class="cls-2" points="2.609 16.39 2.587 16.493 2.65 16.535 2.735 16.412 2.713 16.308 2.609 16.39"/>
        <polygon class="cls-2" points="3.355 16.459 3.336 16.582 3.375 16.665 3.562 16.647 3.543 16.459 3.481 16.397 3.355 16.459"/>
        <polygon class="cls-2" points="4.331 16.567 4.352 16.733 4.539 16.716 4.519 16.529 4.436 16.485 4.331 16.567"/>
      </g>
    </g>
  </g>
</svg>
