<svg xmlns="http://www.w3.org/2000/svg" width="87.5997" height="64.9209" viewBox="0 0 87.5997 64.9209">
  <defs>
    <style>
      .cls-1 {
        fill: #d77105;
      }

      .cls-2 {
        fill: #dba871;
      }

      .cls-3 {
        fill: #ee9908;
      }

      .cls-4 {
        fill: #e2cd9c;
      }

      .cls-5 {
        fill: #f2d9a7;
      }

      .cls-6 {
        fill: #563823;
      }

      .cls-7 {
        fill: #514339;
      }

      .cls-8 {
        fill: #da8640;
      }

      .cls-9 {
        fill: #635042;
      }
    </style>
  </defs>
  <g id="图层_2" data-name="图层 2">
    <g id="Layer_1" data-name="Layer 1">
      <g>
        <polygon class="cls-1" points="74.013 3.182 74.394 1.516 75.604 0 76.059 0.453 76.286 3.561 74.013 3.182"/>
        <polygon class="cls-2" points="62.649 41.133 63.862 45.527 64.165 54.012 64.165 58.33 63.937 59.315 65.529 60.376 65.529 61.513 65.833 62.648 67.953 62.952 71.816 62.876 70.074 53.178 67.195 39.921 62.649 41.133"/>
        <polygon class="cls-2" points="23.712 50.072 24.47 51.588 25.985 52.876 27.955 57.195 28.259 59.769 29.016 60.906 29.016 61.892 30.683 62.799 34.318 62.952 35.453 62.193 36.213 62.118 35.833 60.148 34.469 59.468 32.727 58.936 30.531 53.558 30.984 51.966 33.106 49.238 35.606 45.377 36.364 39.846 31.213 40.377 23.712 50.072"/>
        <polygon class="cls-3" points="86.993 12.297 87.6 11.539 87.296 10.404 83.861 7.954 82.575 6.969 82.119 6.06 79.392 4.924 76.589 3.03 73.862 2.728 70.149 5.151 67.119 9.696 63.407 17.272 60.983 18.56 55.151 19.241 50.831 20.453 42.12 20.757 33.029 20.983 27.045 20.529 22.047 21.059 18.107 22.877 15.758 29.24 14.018 36.741 12.122 42.953 10.531 45.453 7.197 46.739 4.396 46.06 2.274 44.241 2.122 41.361 2.045 40.302 0.91 39.998 0 40.755 0.152 43.481 1.212 46.814 3.865 48.558 7.5 49.089 11.818 48.255 13.94 45.527 15.304 42.725 16.667 37.8 17.197 36.892 18.333 41.058 18.409 45.224 18.107 48.711 15.985 51.438 16.289 53.406 18.182 55.755 20 61.361 21.743 62.193 22.349 63.938 26.818 64.921 28.636 64.392 28.712 63.86 29.471 63.709 29.016 61.892 27.804 60.677 24.697 60.148 23.485 57.647 22.349 53.862 23.635 51.514 27.728 48.938 31.666 44.997 34.015 42.044 36.439 40.982 39.015 41.286 46.741 43.481 54.847 43.481 61.59 42.27 64.089 41.816 65.452 43.938 66.892 48.558 67.271 56.286 67.044 60.148 68.181 61.361 68.408 63.027 69.619 64.164 73.18 64.392 73.711 63.86 75.302 63.938 76.589 63.483 76.362 61.892 75.225 61.134 73.18 60.071 72.195 56.286 72.271 47.271 73.635 41.438 76.21 34.24 76.969 28.181 76.74 25.983 77.573 21.135 79.392 15.983 80.906 15.832 83.33 17.044 84.771 16.894 85.907 15.832 85.981 14.62 86.993 12.297"/>
        <polygon class="cls-3" points="74.845 4.318 75.604 2.802 77.573 1.212 78.028 1.516 77.12 6.516 76.135 6.136 74.845 4.318"/>
        <polygon class="cls-4" points="20.53 47.397 22.45 40.429 22.955 35.277 19.521 33.053 18.004 31.539 16.996 33.46 14.876 40.932 12.854 45.882 10.531 47.499 7.904 47.9 5.077 47.801 1.742 46.185 0.835 43.762 0.835 41.74 0.961 40.012 0.91 39.998 0 40.755 0.152 43.481 1.212 46.814 3.865 48.558 7.5 49.089 11.818 48.255 13.94 45.527 15.304 42.725 16.667 37.8 17.197 36.892 18.333 41.058 18.409 45.224 18.107 48.711 15.985 51.438 16.289 53.406 16.918 54.186 16.996 52.245 18.812 49.922 20.53 47.397"/>
        <polygon class="cls-1" points="70.528 55.68 69.519 47.801 69.417 41.337 68.609 37.901 68.408 32.246 67.601 29.013 66.993 27.903 65.681 31.235 64.166 34.266 56.488 36.489 48.408 37.498 38.813 36.589 37.197 35.478 38.409 33.56 41.035 32.347 42.046 30.831 39.116 29.216 32.854 29.619 29.52 31.74 25.884 39.417 25.076 45.074 22.147 49.416 20.531 53.154 21.643 56.487 23.755 58.202 23.485 57.647 22.349 53.862 23.635 51.514 27.728 48.938 31.666 44.997 34.015 42.044 36.439 40.982 39.015 41.286 46.741 43.481 54.847 43.481 61.59 42.27 64.089 41.816 65.452 43.938 66.892 48.558 67.271 56.286 67.044 60.148 68.181 61.361 68.408 63.027 69.619 64.164 73.154 64.39 73.154 62.447 70.63 60.427 70.528 55.68"/>
        <polygon class="cls-5" points="84.771 16.894 85.907 15.832 85.97 14.798 84.57 14.873 83.457 13.155 81.437 10.731 79.619 11.338 75.781 13.964 75.781 16.993 74.77 25.983 72.852 34.065 72.145 38.61 72.448 42.246 73.098 43.732 73.635 41.438 76.21 34.24 76.969 28.181 76.74 25.983 77.573 21.135 79.392 15.983 80.906 15.832 83.33 17.044 84.771 16.894"/>
        <polygon class="cls-4" points="68.077 61.251 68.306 58.104 68.51 54.973 68.206 48.711 67.093 44.568 64.771 40.528 64.468 38.71 63.862 37.194 62.044 38.407 55.883 39.619 46.187 39.821 39.42 39.217 36.39 37.498 34.975 37.901 32.854 40.73 29.621 44.568 25.481 48.609 22.349 50.528 21.44 53.659 23.155 59.415 24.672 60.427 24.713 60.151 24.697 60.148 23.485 57.647 22.349 53.862 23.635 51.514 27.728 48.938 31.666 44.997 34.015 42.044 36.439 40.982 39.015 41.286 46.741 43.481 54.847 43.481 61.59 42.27 64.089 41.816 65.452 43.938 66.892 48.558 67.271 56.286 67.044 60.148 68.077 61.251"/>
        <polygon class="cls-1" points="74.469 61.84 73.154 61.436 73.862 62.142 74.568 63.456 74.568 63.901 75.302 63.938 75.325 63.928 75.073 62.751 74.469 61.84"/>
        <polygon class="cls-1" points="28.712 63.052 26.996 62.043 27.097 62.549 27.905 63.356 28.284 64.493 28.636 64.392 28.712 63.86 28.89 63.825 28.712 63.052"/>
        <polygon class="cls-4" points="34.469 60.527 33.458 60.427 33.458 60.831 34.57 61.336 34.926 62.546 35.453 62.193 35.277 60.931 34.469 60.527"/>
        <polygon class="cls-5" points="80.591 7.803 80.705 8.334 81.311 8.521 82.068 8.521 82.522 8.598 82.522 8.257 81.65 7.803 80.591 7.803"/>
        <polygon class="cls-6" points="81.538 7.423 80.325 7.499 80.477 7.954 81.235 8.182 81.767 7.954 82.522 8.257 81.538 7.423"/>
        <polygon class="cls-1" points="81.513 7.525 81.462 6.944 81.108 6.718 80.526 7.121 80.503 7.525 81.513 7.525"/>
        <polygon class="cls-6" points="87.6 11.539 87.519 11.238 86.727 11.212 86.083 10.908 85.818 11.173 86.425 11.703 86.841 12.083 86.913 12.482 86.993 12.297 87.6 11.539"/>
        <polygon class="cls-7" points="85.024 15.038 85.963 14.958 85.981 14.626 85.362 14.734 84.454 14.771 83.28 14.658 82.258 14.47 81.728 14.696 81.689 14.96 82.637 14.96 83.772 14.923 85.024 15.038"/>
        <polygon class="cls-1" points="77.991 1.717 77.497 2.299 76.791 3.965 77.044 5.53 77.216 5.978 77.991 1.717"/>
        <polygon class="cls-8" points="46.774 30.926 45.912 31.214 45.336 32.112 45.443 33.229 46.198 33.874 47.241 33.802 47.709 32.4 47.673 31.537 46.774 30.926"/>
        <polygon class="cls-7" points="46.27 30.352 46.487 31.321 45.805 32.184 45.336 32.581 44.796 32.148 44.868 31.106 45.624 30.494 46.27 30.352"/>
        <polygon class="cls-7" points="47.457 30.89 46.991 31.321 47.097 32.004 47.457 32.292 48.034 32.4 48.177 31.61 47.854 30.926 47.457 30.89"/>
        <polygon class="cls-7" points="45.84 33.012 45.191 33.012 44.653 33.406 44.58 34.017 45.408 33.981 45.877 33.659 45.84 33.012"/>
        <path class="cls-7" d="M47.2784,33.2285l-.541.3925-.0704.794.6475.1074s.6113-.1074.6113-.2158c0-.1074-.2529-.9356-.2529-.9356Z"/>
        <polygon class="cls-8" points="50.118 28.156 49.219 28.554 48.896 29.811 49.472 30.746 50.729 30.279 50.729 28.806 50.118 28.156"/>
        <path class="cls-7" d="M49.7588,27.4384c0,.1075-.1064.791-.1064.791l.6807.504.43351-.4317-.43351-.792Z"/>
        <polygon class="cls-7" points="48.86 28.446 49.436 29.021 49.398 29.811 49.472 30.746 48.788 30.818 48.355 30.207 48.068 28.878 48.86 28.446"/>
        <path class="cls-7" d="M51.1602,29.6308s-.6465.002-.6465.1455c0,.1426-.1084.7178-.1084.8262s-.0361.5762-.0361.5762l.54-.1084a3.21966,3.21966,0,0,0,.3946-.7911A3.62333,3.62333,0,0,0,51.1602,29.6308Z"/>
        <polygon class="cls-8" points="43.442 26.378 42.747 26.965 42.546 28.012 43.059 29.009 44.001 29.329 44.942 28.878 44.856 27.4 44.503 26.614 43.442 26.378"/>
        <polygon class="cls-7" points="42.761 26.029 43.32 26.853 43.006 27.907 42.72 28.448 42.057 28.246 41.738 27.252 42.213 26.404 42.761 26.029"/>
        <polygon class="cls-7" points="44.062 26.093 43.788 26.666 44.142 27.26 44.582 27.395 45.158 27.281 44.998 26.493 44.445 25.978 44.062 26.093"/>
        <polygon class="cls-7" points="43.346 28.662 42.745 28.901 42.392 29.469 42.551 30.063 43.307 29.723 43.62 29.249 43.346 28.662"/>
        <path class="cls-7" d="M44.7627,28.3291l-.3535.5673.2256.7618.6406-.1397s.5293-.3281.4883-.4277c-.042-.0996-.581-.7754-.581-.7754Z"/>
        <polygon class="cls-8" points="47.896 25.479 47.006 25.535 46.34 26.505 46.538 27.479 47.755 27.474 48.213 26.221 47.896 25.479"/>
        <path class="cls-7" d="M47.8125,24.7548c-.0312.0918-.33689.6387-.33689.6387l.42389.6426.5029-.2344-.1211-.8076Z"/>
        <polygon class="cls-7" points="46.734 25.332 47.046 26.001 46.768 26.662 46.538 27.479 45.934 27.329 45.757 26.674 45.929 25.453 46.734 25.332"/>
        <path class="cls-7" d="M48.3223,27.0576s-.5498-.2012-.5928-.0782c-.0468.1221-.3173.5782-.3515.67-.0332.0908-.211.4785-.211.4785l.4942.0752s.5273-.3965.583-.5498A3.19148,3.19148,0,0,0,48.3223,27.0576Z"/>
        <polygon class="cls-8" points="52.031 24.65 51.321 24.222 50.354 24.354 49.644 25.088 49.641 25.997 50.309 26.678 51.561 26.172 52.138 25.637 52.031 24.65"/>
        <polygon class="cls-7" points="52.133 23.96 51.585 24.684 50.581 24.721 50.029 24.63 50.011 24.001 50.777 23.433 51.65 23.597 52.133 23.96"/>
        <polygon class="cls-7" points="52.46 25.104 51.885 25.035 51.473 25.514 51.486 25.935 51.751 26.397 52.387 26.029 52.669 25.401 52.46 25.104"/>
        <polygon class="cls-7" points="50.027 25.235 49.644 24.785 49.05 24.646 48.586 24.957 49.099 25.511 49.6 25.644 50.027 25.235"/>
        <path class="cls-7" d="M50.7295,26.3613l-.5937-.1397-.5918.419.30861.5127s.43459.3603.51069.2988c.0752-.0654.501-.7305.501-.7305Z"/>
        <polygon class="cls-8" points="54.161 21.364 53.341 21.725 53.044 22.873 53.569 23.728 54.719 23.3 54.719 21.955 54.161 21.364"/>
        <path class="cls-7" d="M53.834,20.708c0,.0966-.0986.7207-.0986.7207l.623.4609.3936-.3945-.3936-.7217Z"/>
        <polygon class="cls-7" points="53.011 21.627 53.539 22.151 53.505 22.873 53.569 23.728 52.947 23.792 52.553 23.233 52.291 22.019 53.011 21.627"/>
        <path class="cls-7" d="M55.1124,22.7089s-.59179,0-.59179.1319c0,.1308-.09771.6552-.09771.7558,0,.0967-.0322.5235-.0322.5235l.4922-.0967a2.95389,2.95389,0,0,0,.3613-.7236A3.29261,3.29261,0,0,0,55.1124,22.7089Z"/>
        <polygon class="cls-8" points="63.182 20.926 62.36 21.286 62.064 22.435 62.591 23.289 63.738 22.861 63.738 21.517 63.182 20.926"/>
        <path class="cls-7" d="M62.85261,20.2695c0,.0976-.09771.7207-.09771.7207l.6231.459.3935-.3926-.3935-.7217Z"/>
        <polygon class="cls-7" points="62.03 21.188 62.559 21.713 62.524 22.435 62.591 23.289 61.968 23.354 61.573 22.797 61.31 21.583 62.03 21.188"/>
        <path class="cls-7" d="M64.1329,22.2705s-.5928,0-.5928.1308c0,.1319-.0957.6572-.0957.7559,0,.0976-.0342.5254-.0342.5254l.4922-.0987a2.92258,2.92258,0,0,0,.3623-.7226A3.26951,3.26951,0,0,0,64.1329,22.2705Z"/>
        <polygon class="cls-8" points="57.086 19.301 56.452 19.836 56.269 20.794 56.737 21.702 57.596 21.995 58.455 21.583 58.379 20.234 58.055 19.515 57.086 19.301"/>
        <polygon class="cls-7" points="57.652 19.04 57.403 19.563 57.726 20.106 58.127 20.229 58.652 20.125 58.506 19.405 58 18.935 57.652 19.04"/>
        <polygon class="cls-7" points="57 21.386 56.45 21.605 56.128 22.123 56.272 22.664 56.962 22.354 57.248 21.922 57 21.386"/>
        <path class="cls-7" d="M58.2911,21.082l-.3243.5176.2081.6953.5869-.1299s.4795-.2959.4443-.3887c-.0381-.0908-.5312-.706-.5312-.706Z"/>
        <polygon class="cls-8" points="54.458 30.282 53.669 30.545 53.144 31.365 53.243 32.384 53.933 32.975 54.884 32.906 55.31 31.628 55.277 30.84 54.458 30.282"/>
        <polygon class="cls-7" points="53.997 29.758 54.194 30.644 53.569 31.431 53.144 31.793 52.651 31.398 52.719 30.447 53.406 29.889 53.997 29.758"/>
        <polygon class="cls-7" points="55.081 30.249 54.655 30.644 54.752 31.267 55.081 31.529 55.606 31.628 55.737 30.906 55.442 30.282 55.081 30.249"/>
        <polygon class="cls-7" points="53.604 32.188 53.012 32.188 52.521 32.548 52.455 33.104 53.21 33.071 53.636 32.777 53.604 32.188"/>
        <path class="cls-7" d="M54.9161,32.3837l-.4932.3614-.0635.7216.5908.0977s.5567-.0977.5567-.1943c0-.1006-.2295-.8545-.2295-.8545Z"/>
        <polygon class="cls-8" points="55.04 25.588 54.406 26.123 54.223 27.081 54.691 27.989 55.551 28.283 56.411 27.869 56.333 26.522 56.01 25.802 55.04 25.588"/>
        <polygon class="cls-7" points="54.418 25.271 54.931 26.022 54.645 26.983 54.381 27.478 53.776 27.294 53.485 26.386 53.919 25.612 54.418 25.271"/>
        <polygon class="cls-7" points="55.608 25.326 55.358 25.851 55.68 26.394 56.082 26.516 56.606 26.412 56.461 25.693 55.956 25.224 55.608 25.326"/>
        <polygon class="cls-7" points="54.954 27.673 54.405 27.892 54.081 28.409 54.228 28.952 54.916 28.642 55.204 28.209 54.954 27.673"/>
        <path class="cls-7" d="M56.2471,27.3681l-.3242.5186.2061.6953.5859-.1279s.4805-.2989.4433-.3887c-.0351-.0928-.5292-.708-.5292-.708Z"/>
        <polygon class="cls-8" points="59.589 24.142 58.778 24.195 58.168 25.081 58.35 25.971 59.459 25.965 59.879 24.819 59.589 24.142"/>
        <path class="cls-7" d="M59.5118,23.4814c-.0303.085-.3077.584-.3077.584l.3868.5869.459-.2119-.1114-.7393Z"/>
        <polygon class="cls-7" points="58.528 24.009 58.812 24.62 58.558 25.225 58.35 25.971 57.798 25.833 57.637 25.235 57.791 24.12 58.528 24.009"/>
        <path class="cls-7" d="M59.97761,25.5849s-.501-.1826-.541-.0723c-.044.1124-.29011.5284-.32031.6114-.0303.084-.1914.4375-.1914.4375l.4492.0703s.4814-.3643.5322-.502A2.92551,2.92551,0,0,0,59.97761,25.5849Z"/>
        <polygon class="cls-8" points="50.53 35.192 49.648 35.488 49.062 36.405 49.171 37.546 49.942 38.207 51.008 38.133 51.486 36.7 51.448 35.817 50.53 35.192"/>
        <polygon class="cls-7" points="50.016 34.605 50.234 35.599 49.536 36.478 49.062 36.884 48.509 36.442 48.582 35.377 49.353 34.753 50.016 34.605"/>
        <polygon class="cls-7" points="51.227 35.156 50.751 35.599 50.862 36.296 51.227 36.59 51.815 36.7 51.963 35.892 51.633 35.192 51.227 35.156"/>
        <polygon class="cls-7" points="49.573 37.326 48.912 37.326 48.36 37.729 48.288 38.354 49.133 38.317 49.611 37.987 49.573 37.326"/>
        <path class="cls-7" d="M51.045,37.5459l-.5518.4033-.0723.8086.6612.1103s.623-.1103.623-.2207c0-.1094-.2568-.9541-.2568-.9541Z"/>
        <polygon class="cls-8" points="60.571 29.522 59.762 29.574 59.152 30.459 59.334 31.351 60.445 31.345 60.862 30.198 60.571 29.522"/>
        <path class="cls-7" d="M60.4961,28.8613c-.0283.083-.3066.584-.3066.584l.3867.5859.46-.2129-.1113-.7383Z"/>
        <polygon class="cls-7" points="59.512 29.387 59.796 29.999 59.544 30.603 59.334 31.351 58.782 31.212 58.621 30.613 58.774 29.499 59.512 29.387"/>
        <path class="cls-7" d="M60.9629,30.9638s-.5039-.1836-.5429-.0703c-.041.1094-.2901.5274-.31939.6104-.03021.0849-.19241.4375-.19241.4375l.4502.0703s.4815-.3653.5323-.5039A2.93009,2.93009,0,0,0,60.9629,30.9638Z"/>
        <polygon class="cls-8" points="39.919 24.773 39.099 25.133 38.803 26.282 39.328 27.137 40.477 26.709 40.477 25.363 39.919 24.773"/>
        <path class="cls-7" d="M39.5899,24.1162c0,.0986-.0986.7216-.0986.7216l.623.459.3955-.3926-.3955-.7216Z"/>
        <polygon class="cls-7" points="38.77 25.035 39.296 25.56 39.263 26.282 39.328 27.137 38.705 27.201 38.311 26.645 38.049 25.429 38.77 25.035"/>
        <path class="cls-7" d="M40.8702,26.1181s-.5918.001-.5918.1309c0,.1328-.0967.6572-.0967.7549,0,.0986-.0332.5253-.0332.5253l.4922-.0976a2.94013,2.94013,0,0,0,.3623-.7227A3.25082,3.25082,0,0,0,40.8702,26.1181Z"/>
        <polygon class="cls-8" points="43.98 21.876 43.346 22.412 43.164 23.369 43.63 24.278 44.49 24.571 45.35 24.156 45.271 22.809 44.949 22.09 43.98 21.876"/>
        <polygon class="cls-7" points="43.358 21.56 43.869 22.309 43.583 23.272 43.319 23.767 42.72 23.582 42.427 22.675 42.858 21.899 43.358 21.56"/>
        <polygon class="cls-7" points="44.547 21.614 44.297 22.139 44.619 22.681 45.021 22.803 45.547 22.701 45.401 21.981 44.896 21.512 44.547 21.614"/>
        <polygon class="cls-7" points="43.894 23.961 43.345 24.179 43.023 24.698 43.167 25.241 43.856 24.93 44.144 24.498 43.894 23.961"/>
        <path class="cls-7" d="M45.18561,23.6572l-.32321.5176.208.6953.5839-.127s.4815-.2998.4454-.3916c-.0362-.0898-.5303-.706-.5303-.706Z"/>
        <polygon class="cls-8" points="36.714 22.469 35.985 22.788 35.723 23.809 36.189 24.565 37.208 24.188 37.208 22.993 36.714 22.469"/>
        <path class="cls-7" d="M36.4209,21.8867c0,.0859-.0869.6406-.0869.6406l.5537.4072.3477-.3496-.3477-.6406Z"/>
        <polygon class="cls-7" points="35.693 22.701 36.16 23.169 36.13 23.809 36.189 24.565 35.636 24.623 35.287 24.129 35.054 23.051 35.693 22.701"/>
        <path class="cls-7" d="M37.5577,23.6621s-.5245,0-.5245.1162-.0859.584-.0859.6718c0,.086-.0303.4639-.0303.4639l.4375-.0859a2.59907,2.59907,0,0,0,.3204-.6397A2.91007,2.91007,0,0,0,37.5577,23.6621Z"/>
        <polygon class="cls-8" points="31.307 21.027 30.744 21.503 30.579 22.353 30.995 23.158 31.76 23.419 32.521 23.051 32.451 21.856 32.165 21.218 31.307 21.027"/>
        <polygon class="cls-7" points="31.229 22.877 30.741 23.07 30.456 23.531 30.585 24.013 31.195 23.735 31.449 23.354 31.229 22.877"/>
        <path class="cls-7" d="M32.375,22.6074l-.2861.4599.1836.6153.5195-.1133s.4258-.2647.39361-.3457c-.03131-.0791-.46971-.626-.46971-.626Z"/>
        <polygon class="cls-8" points="33.524 25.324 32.806 25.369 32.265 26.155 32.426 26.944 33.412 26.94 33.782 25.925 33.524 25.324"/>
        <path class="cls-7" d="M33.4581,24.7382c-.0254.0743-.27249.5176-.27249.5176l.34279.5195.40521-.1894-.09761-.6533Z"/>
        <polygon class="cls-7" points="32.585 25.204 32.837 25.747 32.612 26.283 32.426 26.944 31.938 26.823 31.794 26.293 31.931 25.302 32.585 25.204"/>
        <path class="cls-7" d="M33.8721,26.6035s-.4463-.1631-.4824-.0655c-.03609.0996-.2559.4698-.2822.544-.0274.0732-.17189.3887-.17189.3887l.39939.0595s.4277-.3203.4727-.4453A2.68494,2.68494,0,0,0,33.8721,26.6035Z"/>
        <polygon class="cls-8" points="35.985 27.668 35.164 28.028 34.869 29.178 35.395 30.031 36.543 29.603 36.543 28.259 35.985 27.668"/>
        <path class="cls-7" d="M35.6563,27.0107c0,.0986-.09769.7217-.09769.7217l.62209.4599.3945-.3935-.3945-.7217Z"/>
        <polygon class="cls-7" points="34.835 27.93 35.362 28.455 35.327 29.178 35.395 30.031 34.771 30.096 34.377 29.539 34.113 28.325 34.835 27.93"/>
        <path class="cls-7" d="M36.93661,29.0126s-.59091,0-.59091.1329c0,.1298-.0986.6552-.0986.7529,0,.0996-.0322.5264-.0322.5264l.4922-.0987a2.9202,2.9202,0,0,0,.3603-.7236A3.31954,3.31954,0,0,0,36.93661,29.0126Z"/>
        <polygon class="cls-8" points="32.392 30.886 31.582 30.936 30.973 31.823 31.153 32.713 32.263 32.709 32.683 31.563 32.392 30.886"/>
        <path class="cls-7" d="M32.3165,30.2236c-.0303.0849-.3086.5849-.3086.5849l.38771.586.458-.2129-.11141-.7373Z"/>
        <polygon class="cls-7" points="31.332 30.751 31.616 31.361 31.362 31.966 31.153 32.713 30.603 32.574 30.442 31.978 30.596 30.861 31.332 30.751"/>
        <path class="cls-7" d="M32.7823,32.3281s-.503-.1846-.543-.0733c-.043.1123-.2881.5284-.3193.6123-.0313.083-.19139.4366-.19139.4366l.45109.0693s.4805-.3623.5313-.501A3.09181,3.09181,0,0,0,32.7823,32.3281Z"/>
        <polygon class="cls-8" points="38.482 32.069 37.79 32.373 37.539 33.344 37.983 34.065 38.955 33.705 38.955 32.568 38.482 32.069"/>
        <path class="cls-7" d="M38.2051,31.5156c0,.082-.083.6084-.083.6084l.5283.3896.3311-.334-.3311-.6093Z"/>
        <polygon class="cls-7" points="37.513 32.29 37.957 32.734 37.927 33.344 37.983 34.065 37.458 34.119 37.125 33.648 36.901 32.622 37.513 32.29"/>
        <path class="cls-7" d="M39.2862,33.205s-.4981.001-.4981.1123c0,.1094-.083.5528-.083.6368,0,.082-.0293.4443-.0293.4443l.417-.085a2.45351,2.45351,0,0,0,.3037-.6084A2.79615,2.79615,0,0,0,39.2862,33.205Z"/>
        <polygon class="cls-8" points="40.755 35.705 40.062 36.009 39.812 36.98 40.257 37.701 41.226 37.341 41.226 36.204 40.755 35.705"/>
        <path class="cls-7" d="M40.47761,35.1513c0,.0821-.083.6084-.083.6084l.52629.3887.3331-.333-.3331-.6084Z"/>
        <polygon class="cls-7" points="39.784 35.926 40.228 36.37 40.2 36.98 40.257 37.701 39.728 37.755 39.396 37.284 39.175 36.258 39.784 35.926"/>
        <path class="cls-7" d="M41.55861,36.8427s-.499,0-.499.1094c0,.1113-.084.5547-.084.6387,0,.083-.02631.4433-.02631.4433l.416-.084a2.461,2.461,0,0,0,.3047-.6093A2.783,2.783,0,0,0,41.55861,36.8427Z"/>
        <polygon class="cls-8" points="27.494 23.458 26.895 23.096 26.082 23.207 25.483 23.825 25.481 24.593 26.043 25.166 27.098 24.741 27.585 24.289 27.494 23.458"/>
        <polygon class="cls-7" points="27.58 22.875 27.12 23.486 26.272 23.516 25.808 23.441 25.792 22.91 26.437 22.433 27.173 22.569 27.58 22.875"/>
        <polygon class="cls-7" points="27.857 23.84 27.371 23.781 27.023 24.185 27.035 24.539 27.26 24.93 27.793 24.62 28.033 24.089 27.857 23.84"/>
        <polygon class="cls-7" points="25.808 23.949 25.483 23.571 24.985 23.454 24.592 23.716 25.023 24.183 25.446 24.295 25.808 23.949"/>
        <path class="cls-7" d="M26.3975,24.9003l-.5-.1201-.5.3555.2617.4307s.3672.3046.4307.25c.0625-.0528.4219-.6123.4219-.6123Z"/>
        <g>
          <path class="cls-9" d="M22.01961,22.6171c0,.0987-.09771.7227-.09771.7227l.624.46.3946-.3946-.3946-.7226Z"/>
          <polygon class="cls-9" points="21.2 23.536 21.726 24.061 21.691 24.783 21.759 25.637 21.135 25.702 20.741 25.145 20.478 23.93 21.2 23.536"/>
          <path class="cls-9" d="M23.3008,24.6191s-.5918,0-.5918.1318-.0976.6563-.0976.7549c0,.0977-.0313.5234-.0313.5234l.4922-.0966a2.96467,2.96467,0,0,0,.3604-.7227A3.31058,3.31058,0,0,0,23.3008,24.6191Z"/>
        </g>
        <g>
          <path class="cls-9" d="M30.1387,26.7402c-.082.0557-.6484.3301-.6484.3301l-.0244.7734.5478.1025.3701-.7353Z"/>
          <polygon class="cls-9" points="28.917 26.587 28.783 27.319 28.171 27.702 27.506 28.242 27.097 27.767 27.332 27.124 28.181 26.218 28.917 26.587"/>
          <path class="cls-9" d="M29.2207,28.9326s-.3369-.4864-.4462-.4112c-.1065.0723-.5957.2911-.6748.3467-.08109.0567-.4532.2725-.4532.2725l.3623.3476a2.99522,2.99522,0,0,0,.79981-.1103A3.2849,3.2849,0,0,0,29.2207,28.9326Z"/>
        </g>
        <path class="cls-9" d="M25.0801,26.6904c-.0517.0937-.4756.6308-.4756.6308l.3467.7696.582-.1631.0127-.8955Z"/>
        <polygon class="cls-9" points="23.814 27.124 24.031 27.9 23.614 28.568 23.223 29.412 22.599 29.141 22.521 28.403 22.92 27.111 23.814 27.124"/>
        <path class="cls-9" d="M25.22661,29.2695s-.55861-.3154-.62991-.1904c-.0703.123-.4424.5693-.49509.6621-.05081.0937-.31051.4795-.31051.4795l.51851.1709a3.158,3.158,0,0,0,.72759-.4922A3.552,3.552,0,0,0,25.22661,29.2695Z"/>
        <polygon class="cls-9" points="20.215 26.703 19.496 26.892 18.966 27.613 19.534 28.104 20.479 28.181 20.593 27.12 20.215 26.703"/>
        <path class="cls-9" d="M20.93561,30.4912l-.26661.3789.5684.6445a3.20979,3.20979,0,0,0,.3789-.4932,3.90871,3.90871,0,0,0-.0372-.7197Z"/>
        <path class="cls-9" d="M25.668,34.0888l-.5293.7949s.4922.5694.6045.5694a1.4483,1.4483,0,0,0,.5703-.6065c0-.1132.03711-.6435.03711-.6435Z"/>
        <path class="cls-9" d="M21.35161,33.6347l-.49411.6055.6074.6435s.7578-.3017.7578-.416v-.7578Z"/>
        <polygon class="cls-9" points="18.473 31.815 17.146 32.611 16.845 32.006 16.921 30.794 17.867 30.491 18.358 30.87 18.473 31.815"/>
        <path class="cls-9" d="M19.9493,32.3095l-.1133.4922s.9463.3779.9844.2647a6.19274,6.19274,0,0,0,0-.834l-.4541-.2647Z"/>
        <polygon class="cls-9" points="17.979 33.939 17.186 34.392 17.639 34.884 18.282 34.619 18.435 34.089 17.979 33.939"/>
        <path class="cls-9" d="M15.51861,35.0732s-.37991.4941-.19041.6455a4.59813,4.59813,0,0,0,.834.377s.2275-.8331.2275-.9444a1.63906,1.63906,0,0,0-.1523-.4179Z"/>
        <polygon class="cls-9" points="24.912 38.898 24.951 39.696 25.707 39.922 26.236 39.24 25.896 38.71 24.912 38.898"/>
        <path class="cls-9" d="M29.9874,37.2334s-.795.9091-.72079,1.0214c.07619.1153.79689.7969.79689.7969l.5684-.4551.1875-.833-.4531-.4541Z"/>
        <path class="cls-9" d="M27.9424,40.415l-.7959-.3047-.3037.6836.5684.832s.834-.0381.834-.1504c0-.1142.0371-.9853.0371-.9853Z"/>
        <path class="cls-9" d="M27.7901,39.4306l.1523.4151s.6817.2275.7188.0761a8.28007,8.28007,0,0,1,.3789-.7949l-.5313-.5303Z"/>
        <path class="cls-9" d="M26.76761,37.8779l.45409.4922s.4561-.3037.4561-.417.0742-.7959.0742-.7959l-.6436-.0391Z"/>
        <path class="cls-9" d="M31.0479,41.2099l-.6055.4541.6436.4561s1.0605.1884,1.0605.0742a11.48047,11.48047,0,0,0-.417-1.0977Z"/>
        <path class="cls-9" d="M27.8282,43.2558l-.3028.7188.3409.416s.833-.1885.833-.3399a4.98283,4.98283,0,0,0-.30469-.833Z"/>
        <polygon class="cls-9" points="33.662 35.567 33.397 36.399 34.153 36.931 34.533 36.475 34.608 35.756 33.662 35.567"/>
        <path class="cls-9" d="M26.6163,31.5146l.1132.7178s.6817.0771.7579-.0371a2.80188,2.80188,0,0,0,.1523-.6055l-.3037-.5684-.5303.0752Z"/>
        <path class="cls-9" d="M20.51661,39.4667l-.68061.7969s.3037.4912.417.5303c.1133.0381,1.249.416,1.3261.1885.0752-.2276.3028-1.3252.3028-1.3252Z"/>
        <path class="cls-9" d="M21.6915,37.8017l.1904.6817s.4551-.1905.4922-.3028c.0381-.1142.1894-.6826.1894-.6826l-.5693-.3799Z"/>
        <path class="cls-9" d="M19.26661,37.0058s-.415.5303-.30071.5303c.1132,0,.9472-.0381.9472-.0381l.1514-.6445-.37989-.1875Z"/>
        <polygon class="cls-9" points="63.356 26.237 62.701 26.842 63.206 27.549 63.964 27.195 63.913 26.286 63.356 26.237"/>
        <path class="cls-9" d="M65.4278,23.913l-.4541,1.1612.8594.5058a5.22576,5.22576,0,0,0,.6543-.9599c0-.1524-.2012-1.3643-.2012-1.3643Z"/>
        <path class="cls-9" d="M65.8331,28.4072l-1.2139.8584.3037,1.1621,1.6162.5557a4.20142,4.20142,0,0,0,.60551-.8584c0-.1524-.15141-1.3643-.15141-1.3643Z"/>
        <path class="cls-9" d="M67.8008,27.1953v.9082l.75881.0507s.45409-.3535.45409-.5048a7.37851,7.37851,0,0,0-.45409-1.0596Z"/>
        <polygon class="cls-9" points="65.731 26.488 65.681 27.296 66.59 27.347 66.64 26.59 66.338 26.237 65.731 26.488"/>
        <path class="cls-9" d="M63.004,31.3876l-.0518.8584.9609.4034a1.78275,1.78275,0,0,0,.3526-.7061,4.47313,4.47313,0,0,0-.3526-1.0107Z"/>
        <path class="cls-9" d="M69.3174,33.9628l-.4541,1.3653.6045.2519s.5557.0508.5557-.1533c0-.2012.0508-1.3613.0508-1.3613Z"/>
        <path class="cls-9" d="M67.044,33.3564s-.2022.4551-.0508.6064c.15141.1524.96.6563,1.0098.4043.0517-.2519.1523-.8584.1523-.8584l-.3545-.7578Z"/>
        <path class="cls-9" d="M69.5674,32.1445s-.3525.6064-.1504.6572.961.251.961.251l.2519-.8574-.5049-.7578Z"/>
        <path class="cls-9" d="M68.459,30.4277l-.60639.6074.55559.5039s.7579,0,.7579-.3037c0-.3027.10151-1.0615.10151-1.0615Z"/>
        <polygon class="cls-9" points="72.7 29.316 72.346 30.276 73.054 30.578 73.559 30.174 73.458 29.418 72.7 29.316"/>
        <path class="cls-9" d="M73.9122,33.2548a14.3199,14.3199,0,0,0-1.3643.4551l-.0498.961a2.26621,2.26621,0,0,0,.707.3535c.2022,0,1.06151-.1524,1.06151-.4053v-.8574Z"/>
        <path class="cls-9" d="M71.7413,36.0332l.40331.5058s.707.2022.707-.0498v-.8594l-.75781-.4043Z"/>
        <path class="cls-9" d="M67.0928,38.9638c-.1494.0996-.706,1.2617-.5537,1.3125a3.522,3.522,0,0,1,.5537.3526l.8086-.2002.1016-1.2647Z"/>
        <path class="cls-9" d="M70.0743,39.6191s-.3536.7578-.2539.9092a6.7682,6.7682,0,0,0,.8095.6572s.3535-.1514.4033-.3535a7.97582,7.97582,0,0,0,0-1.1123Z"/>
        <polygon class="cls-9" points="56.538 34.821 56.741 35.78 58.003 36.135 58.257 35.124 57.701 34.367 56.538 34.821"/>
        <polygon class="cls-9" points="59.872 34.014 59.569 34.671 60.125 34.771 60.478 34.165 60.327 33.762 59.872 34.014"/>
        <path class="cls-9" d="M61.336,34.9218s0,.4551.1543.6074c.1494.1504,1.0576.8077,1.1084.504a4.37133,4.37133,0,0,0,.1533-1.3125c-.1025-.1524-1.0127-.9092-1.1631-.8086C61.4375,34.0136,61.336,34.9218,61.336,34.9218Z"/>
        <path class="cls-9" d="M63.80961,34.6191l-.19921.5557a1.86792,1.86792,0,0,0,.707.1533c.20121-.0508.8086-.5069.7559-.6572a2.25871,2.25871,0,0,0-.3018-.4561Z"/>
        <path class="cls-9" d="M59.0645,36.7412l-.0518.6054s.3545.2032.5567.0508c.20121-.1523.8076-.708.8076-.708l-.3027-.4033Z"/>
        <path class="cls-9" d="M55.5293,37.498s-.2031.5566,0,.5566c.2012,0,1.0088.4532,1.1114.1495.1006-.3028.25091-.8575.25091-.8575l-.75781-.5039Z"/>
        <path class="cls-9" d="M13.8135,38.457s.253,1.1133.4053.9599a4.94052,4.94052,0,0,0,.4531-.7578l-.3037-.7578Z"/>
        <path class="cls-9" d="M14.9747,39.7197l-.6065.6054.457.5577s.4532.0488.4532-.1006a6.52148,6.52148,0,0,1,.1513-.7588Z"/>
        <path class="cls-9" d="M14.3682,42.5996s-.8584.2002-.8584.3535a2.42945,2.42945,0,0,0,.2539.6064s.3028.2022.50491.0996c.20309-.0996.35349-.6562.35349-.6562Z"/>
        <path class="cls-9" d="M12.1485,44.0644s-.2031.4541.0498.6563c.2519.2011.8574.3535.9072.0996.0518-.252.1026-.9092.1026-.9092l-.35449-.5049Z"/>
        <path class="cls-9" d="M9.7227,46.2363l-.0508.7568.6065.2022.5048-.9092s-.1513-.4551-.3027-.4551A3.41464,3.41464,0,0,0,9.7227,46.2363Z"/>
        <path class="cls-9" d="M5.3291,46.9423s-.8076.7588-.3027.958c.5059.2041,1.4649.6573,1.4649.4561,0-.2022.15031-1.1611.15031-1.1611L6.1875,46.791Z"/>
        <path class="cls-9" d="M.68361,41.2861s.10159.7588.30279.7588a2.02474,2.02474,0,0,0,.5049-.1026l.3027-.455V40.4794a2.74969,2.74969,0,0,0-.6553,0,.43483.43483,0,0,0-.3037.4034A.79759.79759,0,0,1,.68361,41.2861Z"/>
        <path class="cls-9" d="M22.60161,44.4189s-.10061.958.05179,1.0068a4.42422,4.42422,0,0,0,.5527.1016l.4053-.707-.5049-.7051Z"/>
        <path class="cls-9" d="M19.7237,44.2646s-.70709,1.0625-.3028,1.2119a2.23913,2.23913,0,0,0,.9581.2539c.4033,0,1.0107-.2539,1.0107-.4541,0-.2021-.0508-1.1611-.2022-1.1611S19.7237,44.2646,19.7237,44.2646Z"/>
        <path class="cls-9" d="M21.9444,42.7001s.1513.9083.3535.8594c.2031-.0508.6572-.1533.707-.3037.0508-.1523.5059-.6572.253-.7578-.253-.1025-.4541-.4531-.7569-.4043C22.1973,42.1435,21.9444,42.7001,21.9444,42.7001Z"/>
        <path class="cls-9" d="M20.47861,48.9628s.457.6055.60639.5557a.59523.59523,0,0,0,.3047-.5049c0-.2031-.0508-.7588-.2022-.7588h-.4052Z"/>
        <path class="cls-9" d="M23.8643,46.7392s-.1523.8096,0,.8096a3.96088,3.96088,0,0,0,.4541-.0498l.4043-.3545-.252-.5557Z"/>
        <path class="cls-9" d="M27.3487,46.083s-.1016.8105.0508.8593c.1513.0508.4043.253.5556.2022s.4541-.5557.4541-.5557l-.2011-.8584Z"/>
        <path class="cls-9" d="M44.1651,39.3662l-.3018,1.1132,1.0098.4034s.8086-.5577.8086-.8096-.7588-1.1094-.7588-1.1094Z"/>
        <path class="cls-9" d="M41.89461,39.1132s-.50591.4053-.20221.5059c.3028.1006.90821.2529.90821.2529l-.05171-.8095-.253-.3028Z"/>
        <path class="cls-9" d="M42.3995,33.1552s-.4561.5547-.1036.6563a6.9153,6.9153,0,0,0,1.01271.1513l.20119-1.1103-.707-.3027Z"/>
        <path class="cls-9" d="M48.003,41.2353s-.2012.707.4052.6055c.6065-.1006,1.1612-.3535,1.0616-.5547-.1016-.2022-.1016-.8067-.4551-.8067S48.003,41.2353,48.003,41.2353Z"/>
        <path class="cls-9" d="M44.1651,35.2255s.10251.9092.3047.96c.2002.0508,1.0595.252,1.0595.1006s-.1513-1.2617-.1513-1.2617l-.2022-.2032Z"/>
        <path class="cls-9" d="M70.2764,25.3271s-.3545,1.0605-.0517,1.1104c.3037.0507.8593.3544,1.0615.2031.2031-.1524.2529-.7071.2529-.8584,0-.1533-.2021-.708-.4053-.6572C70.93361,25.1757,70.2764,25.3271,70.2764,25.3271Z"/>
        <path class="cls-9" d="M82.4483,10.58l-.2022.5049s.3008.4043.4532.2529a1.498,1.498,0,0,0,.2509-.3544l-.09959-.4034Z"/>
        <path class="cls-9" d="M79.8213,11.6914l-.4541.5048s.4541.2032.6045.1514a2.71919,2.71919,0,0,0,.50491-.3525l.04979-.5567Z"/>
        <path class="cls-9" d="M81.084,12.8525s-.5049.1016-.4541.2519c.0489.1524.1006.2032.3526.2032a.54458.54458,0,0,0,.4043-.2032Z"/>
        <polygon class="cls-9" points="78.913 13.863 79.063 14.216 79.418 14.065 79.418 13.509 78.913 13.863"/>
        <path class="cls-9" d="M76.085,15.7314s-.0518.8584.2012.8086a1.332,1.332,0,0,0,.707-.5566,5.2231,5.2231,0,0,0,.1006-.6563Z"/>
        <path class="cls-9" d="M76.7911,17.4482s.1533.4541.4033.5049c.2519.0498.4033-.4033.4033-.4033l-.2012-.8086Z"/>
        <polygon class="cls-9" points="75.981 13.408 76.186 13.964 76.74 13.711 76.54 13.004 75.981 13.408"/>
        <path class="cls-9" d="M73.5079,11.8417l-.7569.961.6065.7568s.5547-.3525.6054-.5556a9.94369,9.94369,0,0,0,.0498-1.1114Z"/>
        <path class="cls-9" d="M71.89261,14.7714s-.40331.7569,0,.7569c.40239,0,.90819-.0498.90819-.251,0-.2022-.1523-1.0107-.1523-1.0107Z"/>
        <path class="cls-9" d="M69.8204,12.499s-.4034.708-.0997.708a1.98679,1.98679,0,0,0,.6573-.1533l.1504-.6543-.252-.2539Z"/>
        <path class="cls-9" d="M73.5079,22.3974s.1015.8584.30271.8584c.20209,0,.80959-.2012.86029-.4023.0479-.2032.3008-.8096.09871-.9112-.20121-.0996-.65531-.2519-.65531-.2519Z"/>
        <path class="cls-9" d="M72.4981,19.2656c.0498.2021.6064.3545.6064.3545l.253-.5557-.3037-.7578s-.5557-.3535-.6563-.0508A2.50465,2.50465,0,0,0,72.4981,19.2656Z"/>
        <path class="cls-9" d="M74.6202,15.4785s-.6075.3535-.6573.5566c-.0507.2012.4541.7061.4541.7061a.63937.63937,0,0,0,.4043-.1514,3.92892,3.92892,0,0,0,.4034-.8076Z"/>
        <path class="cls-9" d="M69.9717,37.3466s-.1006.7578.0518.7578a2.11712,2.11712,0,0,0,.45411-.0996l.40529-.5576-.3038-.5039Z"/>
        <path class="cls-9" d="M66.18561,36.5888l.40429.6055s.4541-.1514.5029-.3027a5.72673,5.72673,0,0,0-.0996-1.0616,1.376,1.376,0,0,0-.5537-.1006C66.2862,35.7802,66.18561,36.5888,66.18561,36.5888Z"/>
        <path class="cls-9" d="M69.6192,42.9033l-.6055.6562s.6572.8076.9082.7559c.252-.0508.5059-.251.5059-.4551,0-.2012-.1006-.9072-.1006-.9072Z"/>
        <path class="cls-9" d="M66.6397,42.7998s-.3535.456-.2529.6582c.1006.2011.455.3535.5566.2011.1006-.1504,0-.8066,0-.8066Z"/>
        <path class="cls-9" d="M55.0245,40.8828s-.4541.9082-.1514.9082.6074.0498.7559-.0996a1.35259,1.35259,0,0,0,.3037-.8086,4.70665,4.70665,0,0,0-.2022-.4541Z"/>
        <path class="cls-9" d="M53.9639,35.3281s-.5557.7558-.40429.9082a4.97518,4.97518,0,0,0,1.31349.2529l.3027-.9092-.3027-.708Z"/>
        <path class="cls-9" d="M71.2862,43.206s.1015.959.3047.8584c.2011-.1025.5029-.3027.5029-.456a4.65949,4.65949,0,0,0-.4033-.8594Z"/>
        <path class="cls-9" d="M71.084,45.9824s.35261.6572.4551.4043a3.6727,3.6727,0,0,1,.3027-.5557l-.3525-.5547Z"/>
        <path class="cls-9" d="M68.4082,47.5986s-.8085.3017-.8085.5058c0,.2022.0507.6553.3017.6553a1.731,1.731,0,0,0,.65821-.251Z"/>
        <path class="cls-9" d="M67.5489,45.6806s-.1524.6055.0508.6055c.2011,0,.3535.1504.455,0a4.47908,4.47908,0,0,0,.251-.5059l-.3027-.4531Z"/>
        <polygon class="cls-9" points="70.528 51.741 70.023 52.496 70.63 52.75 70.983 52.347 70.934 51.792 70.528 51.741"/>
        <polygon class="cls-9" points="70.125 49.719 70.327 50.276 70.68 50.125 70.883 49.519 70.478 49.164 70.125 49.719"/>
        <path class="cls-9" d="M68.459,55.3261s-.6582.5049-.6582.6553a.4546.4546,0,0,0,.5547.4043c.4063-.0488.9619-.2529.9619-.4043a2.92633,2.92633,0,0,0-.4033-.7061Z"/>
        <path class="cls-9" d="M68.2559,23.1054s-1.0605,1.211-.8086,1.2617c.2529.0498.708.4053.9082.3536a6.83492,6.83492,0,0,0,1.0615-.959l-.5029-.8076Z"/>
        <path class="cls-9" d="M60.93361,27.2959s.10059,1.2128.35259,1.1113c.2529-.0996.5049-.1514.5547-.4033.05271-.2539.456-.959.1015-1.0098A2.34961,2.34961,0,0,0,60.93361,27.2959Z"/>
        <path class="cls-9" d="M65.4278,20.3779s.04981,1.0605.2519,1.0097c.2022-.0498.8077-.3027.8077-.3027s.2519-.8086.1025-.8584a6.33426,6.33426,0,0,1-.7568-.5058Z"/>
        <path class="cls-9" d="M69.417,20.9834s-.14939.6572,0,.707a6.84188,6.84188,0,0,0,.8077.1015l.1533-.9599-.4063-.4541Z"/>
        <polygon class="cls-9" points="68.306 19.569 68.355 20.024 68.863 19.872 68.963 19.266 68.659 19.015 68.306 19.569"/>
        <path class="cls-9" d="M70.3272,18.2558l.4551.7588s.65431-.0498.65431-.2529c0-.2022-.09961-1.0596-.09961-1.0596l-.6573-.3545Z"/>
        <path class="cls-9" d="M65.5293,17.7021l.3526.5029s.456-.0488.456-.2021c0-.1504-.2529-1.1094-.2529-1.1094l-.6572-.1025Z"/>
        <path class="cls-9" d="M67.4971,16.6406s-.251.6572-.0498.6572a7.03717,7.03717,0,0,1,.7588.1006l.0996-.4053-.0996-.5556Z"/>
        <path class="cls-9" d="M63.80961,18.4072a1.60493,1.60493,0,0,0,.10349.6074c.1006.1514.3028.6553.5547.3535a3.30259,3.30259,0,0,0,.4551-1.0107c.0508-.1524-.5059-.8584-.5059-.8584Z"/>
        <path class="cls-9" d="M74.2168,26.4375l.502.4541s.8594-.2012.709-.4541a13.198,13.198,0,0,0-1.1113-1.1612Z"/>
        <polygon class="cls-9" points="76.032 23.609 75.981 24.014 76.54 24.064 76.64 23.56 76.488 23.307 76.032 23.609"/>
        <path class="cls-9" d="M76.2354,20.4775s-.3535.456-.1504.5059a2.20517,2.20517,0,0,0,.4551.0507l.2002-.8584-.1006-.1513Z"/>
        <polygon class="cls-9" points="67.347 13.358 67.497 14.115 67.901 13.863 68.003 13.104 67.347 13.358"/>
        <polygon class="cls-9" points="69.112 14.52 68.762 15.075 69.366 15.378 69.671 14.771 69.567 14.166 69.112 14.52"/>
        <path class="cls-9" d="M65.8331,14.3671s-.5567.5059-.2041.6065c.3544.1015,1.01261.3535,1.0605.1514a6.95223,6.95223,0,0,0,.0498-.9092Z"/>
        <path class="cls-9" d="M70.0235,9.7714s-.1524.6065,0,.6573c.1504.0507.8076.3027.91011,0,.09959-.3028.35259-.8584.253-1.0108a6.018,6.018,0,0,0-1.01271-.6054Z"/>
        <path class="cls-9" d="M79.0127,6.4375l.4541.4062s.3545-.3545.3047-.5059c-.0508-.1523-.6064-.5556-.6064-.5556Z"/>
        <path class="cls-9" d="M77.7999,6.3378s.05171.3516.2011.3516c.1543,0,.3545-.2002.3545-.2002l-.0498-.3037Z"/>
        <path class="cls-9" d="M78.4571,8.3584s.4043.6054.5058.4541a3.99976,3.99976,0,0,0,.253-.6065s-.1524-.3037-.3028-.3037C78.7608,7.9023,78.4571,8.3584,78.4571,8.3584Z"/>
        <path class="cls-9" d="M75.0225,8.206s-.2012.7578,0,.708a1.26111,1.26111,0,0,0,.45611-.3545s.35349-.706.14939-.706C75.4278,7.8535,75.0225,8.206,75.0225,8.206Z"/>
        <path class="cls-9" d="M73.5079,7.8535s-.5547.3535-.1504.4531c.4033.1016.90911.3037.959.1523.0498-.1523.1523-.707.1523-.707Z"/>
        <polygon class="cls-9" points="73.609 9.367 73.661 10.024 74.217 10.075 74.417 9.114 73.609 9.367"/>
        <path class="cls-9" d="M76.18561,10.8837v.5049s.55469,0,.55469-.1533v-.7559Z"/>
        <path class="cls-9" d="M71.4893,5.831s0,.7598.2012.7598c.20211,0,.6552,0,.6552-.3037,0-.3028-.1005-1.211-.2519-1.211-.1523,0-.7568.0508-.7568.3028A.83041.83041,0,0,0,71.4893,5.831Z"/>
        <path class="cls-9" d="M69.9219,7.247s-.5049.0508-.5049.2022.3037.5049.3037.5049l.4532-.2022.1025-.5049Z"/>
        <path class="cls-9" d="M68.2061,9.7714s-.8594.4551-.8594.6065a1.00008,1.00008,0,0,0,.5547.6562,6.58955,6.58955,0,0,0,.8604.0508l.1523-.959Z"/>
        <path class="cls-9" d="M15.47561,42.1035l-.40041.292a1.38587,1.38587,0,0,0,.10941.5732l.11919-.2441Z"/>
        <path class="cls-9" d="M15.9854,38.3584s-.4551.6054-.2022.8583a5.77426,5.77426,0,0,1,.36241.4737l.38959-1.4121Z"/>
        <path class="cls-9" d="M12.6514,42.7998a2.06867,2.06867,0,0,1,.4541-.3526c.1524-.0517,0-.707,0-.707l-.4707-.4707-.44819,1.4765A1.03534,1.03534,0,0,0,12.6514,42.7998Z"/>
        <path class="cls-9" d="M4.7217,46.1376l-.32609-.0781L3.2999,45.1191c-.0948.0488-.1641.0869-.1934.1045a1.20421,1.20421,0,0,0-.3535.709c0,.2011.9609.5556,1.164.706C4.0694,46.7558,4.51961,46.3388,4.7217,46.1376Z"/>
        <path class="cls-9" d="M2.2745,44.2412l-.0127-.212c-.1299.0567-.2354.1348-.2168.2354a.94249.94249,0,0,0,.3037.4561l.4414-.0362Z"/>
        <path class="cls-9" d="M8.0059,46.5888l-.166-.0967-.6426.2471-.0752-.0185-.1269.2216s-.1504.4551.0498.5059a1.899,1.899,0,0,0,.55761,0Z"/>
        <polygon class="cls-8" points="35.16 20.93 33.766 20.965 33.653 21.13 33.814 21.92 34.8 21.916 35.16 20.93"/>
        <polygon class="cls-7" points="33.224 20.979 33.183 21.269 33.325 21.797 33.814 21.92 33.999 21.257 34.127 20.957 33.224 20.979"/>
        <polygon class="cls-7" points="32.229 21.851 32.694 21.758 32.565 21.12 32.364 20.933 31.765 20.888 31.587 21.26 31.874 21.741 32.229 21.851"/>
        <path class="cls-7" d="M35.2598,21.5781s-.4473-.1631-.4824-.0645c-.0371.0987-.2559.4678-.2832.543-.0264.0742-.168.3877-.168.3877l.3975.0615s.4277-.3213.4736-.4453A2.84228,2.84228,0,0,0,35.2598,21.5781Z"/>
        <polygon class="cls-7" points="30.31 21.048 29.926 21.734 30.187 22.541 30.721 22.703 30.953 22.267 31.209 21.411 30.8 20.814 30.668 20.804 30.31 21.048"/>
        <polygon class="cls-8" points="39.751 23.021 40.702 22.957 41.129 21.677 41.096 20.89 40.944 20.785 39.338 20.825 38.962 21.413 39.061 22.431 39.751 23.021"/>
        <polygon class="cls-7" points="40.57 21.314 40.898 21.578 41.425 21.677 41.556 20.953 41.469 20.773 40.489 20.798 40.57 21.314"/>
        <polygon class="cls-7" points="39.918 20.81 38.511 20.847 38.471 21.446 38.962 21.841 39.389 21.479 39.918 20.81"/>
        <polygon class="cls-7" points="39.423 22.232 38.829 22.232 38.339 22.596 38.272 23.152 39.028 23.121 39.456 22.824 39.423 22.232"/>
        <path class="cls-7" d="M40.7354,22.4306l-.4932.3623-.0664.7207.59281.1006s.55759-.1006.55759-.1973c0-.0996-.2305-.8544-.2305-.8544Z"/>
        <polygon class="cls-8" points="48.575 22.434 49.437 22.019 49.357 20.674 49.283 20.507 47.375 20.573 47.25 21.232 47.716 22.141 48.575 22.434"/>
        <polygon class="cls-7" points="48.706 20.544 49.106 20.666 49.633 20.563 49.617 20.495 48.695 20.526 48.706 20.544"/>
        <polygon class="cls-7" points="47.84 20.558 46.532 20.603 46.803 21.445 47.406 21.629 47.669 21.135 47.84 20.558"/>
        <polygon class="cls-7" points="47.979 21.824 47.429 22.043 47.107 22.56 47.254 23.104 47.941 22.794 48.229 22.36 47.979 21.824"/>
        <path class="cls-7" d="M49.2715,21.5195l-.3232.5185.208.6944.584-.128s.4824-.2978.44531-.3906c-.03611-.0898-.53031-.7051-.53031-.7051Z"/>
        <polygon class="cls-8" points="50.832 20.453 50.893 20.745 52.004 20.74 52.254 20.055 50.832 20.453"/>
        <polygon class="cls-7" points="50.831 20.453 50.305 20.471 50.342 20.606 50.893 20.745 50.987 20.411 50.831 20.453"/>
        <path class="cls-7" d="M52.5215,20.3593s-.50189-.1836-.542-.0722c-.04289.1113-.289.5293-.3213.6113-.0283.085-.1904.4385-.1904.4385l.4502.0683s.4824-.3623.5322-.5019A2.89,2.89,0,0,0,52.5215,20.3593Z"/>
        <polygon class="cls-7" points="56.426 21.189 56.689 20.696 56.976 19.734 56.53 19.079 56.279 19.11 55.964 19.326 55.532 20.098 55.822 21.007 56.426 21.189"/>
        <polygon class="cls-8" points="60.264 18.644 59.732 19.417 59.913 20.307 61.024 20.302 61.443 19.156 61.151 18.479 61.132 18.48 60.983 18.56 60.264 18.644"/>
        <polygon class="cls-7" points="60.88 18.57 61.155 18.987 61.614 18.775 61.538 18.266 60.983 18.56 60.88 18.57"/>
        <polygon class="cls-7" points="59.913 20.307 60.123 19.56 60.376 18.954 60.232 18.647 59.314 18.755 59.2 19.571 59.362 20.169 59.913 20.307"/>
        <path class="cls-7" d="M61.5411,19.9209s-.501-.1836-.542-.0723c-.0401.1123-.2891.5283-.3184.6133-.0312.083-.1933.4355-.1933.4355l.4501.0693s.4825-.3623.5342-.5019A3.04194,3.04194,0,0,0,61.5411,19.9209Z"/>
      </g>
    </g>
  </g>
</svg>
