<svg xmlns="http://www.w3.org/2000/svg" width="82.6826" height="155.7481" viewBox="0 0 82.6826 155.7481">
  <defs>
    <style>
      .cls-1 {
        fill: #b95c31;
      }

      .cls-2 {
        fill: #ffa62e;
      }

      .cls-3 {
        fill: #7a4b21;
      }

      .cls-4 {
        fill: #e17b29;
      }

      .cls-5 {
        fill: #efb484;
      }

      .cls-6 {
        fill: #fcc695;
      }

      .cls-7 {
        fill: #8c4000;
      }

      .cls-8 {
        fill: #9e4233;
      }
    </style>
  </defs>
  <g id="图层_2" data-name="图层 2">
    <g id="Layer_1" data-name="Layer 1">
      <g>
        <polygon class="cls-1" points="53.932 91.197 53.382 97.879 52.742 104.108 50.27 110.423 49.627 115.827 49.445 118.757 49.627 120.864 49.81 122.234 48.895 123.978 48.254 125.807 47.888 131.851 47.888 142.655 47.706 143.845 48.895 145.585 49.72 147.965 50.178 150.896 49.627 151.445 46.699 151.445 44.044 146.407 43.22 139.631 44.5 116.191 45.874 91.747 53.932 91.197"/>
        <polygon class="cls-2" points="49.828 148.653 50.178 150.896 49.627 151.445 46.699 151.445 45.576 149.317 49.828 148.653"/>
        <path class="cls-3" d="M59.6084,8.3775l-2.7481,3.1596L55.3501,16.481,51.2304,28.4302,48.3476,38.5933,44.7744,48.7569l-2.4707,3.9829-2.3359,1.9223-1.7857,2.4722,3.022-.5498,4.395-3.2964s4.9434-10.8491,4.9434-11.6743c0-.8232,7.5556-25.5454,7.5556-25.5454Z"/>
        <polygon class="cls-2" points="4.763 83.23 3.755 85.886 2.656 90.921 2.473 99.712 3.207 107.037 3.939 114.268 3.665 118.938 3.207 120.678 3.755 121.411 4.946 116.469 4.854 111.248 4.122 104.655 3.572 99.163 4.488 91.654 4.763 83.23"/>
        <polygon class="cls-1" points="2.473 119.58 3.939 119.214 4.579 120.588 4.029 123.793 3.113 127.362 1.923 131.302 1.833 136.244 2.381 138.718 0.917 136.795 0 130.659 0.457 126.354 1.65 121.777 2.473 119.58"/>
        <polygon class="cls-1" points="23.898 106.762 22.619 115.735 19.963 123.058 18.68 127.088 19.32 130.203 22.252 142.655 23.259 147.508 24.266 148.787 25.548 151.627 24.54 152.361 21.336 152.361 19.779 151.902 19.779 149.888 19.047 148.516 18.497 147.689 19.23 145.495 18.771 141.281 16.116 133.774 13.644 128.37 11.812 122.053 15.568 105.939 23.898 106.762"/>
        <polygon class="cls-4" points="68.033 6.226 67.941 3.021 67.941 1.373 68.765 0.732 68.398 0.091 65.01 0 64.92 0.732 65.652 1.099 65.468 5.86 68.033 6.226"/>
        <polygon class="cls-2" points="82.683 16.068 81.995 18.129 81.583 19.503 80.348 19.365 75.266 18.678 72.794 18.953 69.085 18.953 67.437 18.404 64.827 20.876 62.767 31.176 61.943 42.988 59.059 53.288 55.899 64.551 55.763 75.677 56.725 82.544 55.213 90.097 51.917 94.353 50.407 101.909 48.21 108.227 46.974 113.995 46.699 119.765 47.659 121.962 47.659 123.609 46.011 125.12 45.599 129.516 44.913 145.449 46.699 148.605 48.073 151.491 48.348 153.414 45.599 154.099 42.027 153.552 40.656 153.001 40.656 151.902 41.342 149.568 39.83 148.742 38.869 147.094 40.105 143.389 41.066 132.536 41.48 125.531 40.38 124.021 40.93 120.313 39.557 109.049 37.908 104.108 34.2 106.855 24.862 109.049 21.701 108.09 17.72 107.542 16.07 116.743 14.285 124.159 13.186 125.669 12.775 128.555 11.4 131.987 11.949 139.54 12.912 147.782 13.461 149.568 14.971 151.902 15.796 154.924 12.912 155.337 9.339 155.748 8.516 154.374 9.205 151.354 7.831 150.393 7.831 146.683 7.968 141.189 7.418 133.774 6.182 128.277 7.691 124.021 7.555 113.306 4.671 102.869 3.572 91.471 4.396 83.23 9.616 79.247 14.697 77.736 21.29 74.303 29.667 68.809 32.827 66.887 35.023 62.628 36.81 56.997 42.027 54.662 45.051 51.778 49.995 38.593 54.252 23.898 57.136 14.833 59.608 8.378 62.355 6.455 62.539 5.31 60.981 2.289 60.249 2.38 59.608 1.556 61.256 0.091 63.363 0.183 63.454 0.823 62.997 1.556 64.094 3.571 65.102 5.127 67.575 5.86 69.77 5.768 70.963 6.684 72.427 8.973 74.715 9.889 78.012 11.72 81.401 14.282 82.683 16.068"/>
        <polygon class="cls-2" points="62.08 8.698 60.707 8.148 58.236 6.409 56.313 5.584 55.581 6.043 56.037 8.606 58.968 10.896 61.715 10.345 62.08 8.698"/>
        <polygon class="cls-5" points="69.497 9.523 67.848 9.523 67.024 9.065 67.848 8.24 69.77 8.698 69.497 9.523"/>
        <polygon class="cls-3" points="69.68 9.842 68.354 10.896 66.842 10.667 66.842 9.752 66.705 9.293 67.894 8.926 69.176 9.155 69.68 9.842"/>
        <polygon class="cls-5" points="81.377 16.218 80.865 14.782 79.633 14.167 78.813 14.474 81.377 16.218"/>
        <polygon class="cls-3" points="80.796 16.39 80.523 15.021 79.427 14.816 78.607 15.5 80.796 16.39"/>
        <polygon class="cls-4" points="49.995 93.668 51.093 87.9 51.093 81.718 49.445 76.362 48.759 69.221 52.878 61.118 55.489 50.679 59.883 32.275 63.454 20.327 63.729 17.305 64.14 16.619 67.299 17.579 70.871 18.267 74.168 17.991 75.233 18.682 72.794 18.953 69.085 18.953 67.437 18.404 64.827 20.876 62.767 31.176 61.943 42.988 59.059 53.288 55.899 64.551 55.763 75.677 56.725 82.544 55.213 90.097 51.917 94.353 50.407 101.909 50.131 97.239 49.995 93.668"/>
        <path class="cls-4" d="M4.6709,102.8692,3.5722,91.4712l.4727-4.727,1.3125,4.1772,1.7861,6.729,3.021,3.9829,3.5699.687,2.1987-.687s-.4121-2.0595-.5498-2.6089c-.1367-.5488-1.2349-5.2187-1.2349-5.2187l.1367-1.5122.5494.2759L16.0698,96.69l1.0991,4.2558,1.6489,1.3745,5.355-.9609s5.0825-1.7856,5.3579-2.1968c.2749-.4136,5.6294-5.2212,5.6294-5.2212l2.8853-5.3545.8237.9605-.8237,4.394.8237,5.6324,2.7476,11.5366.9604,6.4555-.1367,4.1187v2.6123l-.2734,10.7109-.8247,8.792-1.3745,2.7471,1.5122,1.9219-.7603.7597-.8896-.4863-.961-1.6484,1.2363-3.7051.961-10.8525.4136-7.0049-1.0997-1.5098.5499-3.709-1.3736-11.2632-1.6489-4.9414-3.7075,2.7466-9.3384,2.1948-3.1606-.9589-3.9815-.5489-1.6499,9.2012-1.7847,7.4165-1.0986,1.5098-.4111,2.8862-1.3755,3.4316.5493,7.5533.9629,8.2422.5488,1.7861,1.5103,2.334.8252,3.0215-2.8843.413-3.5733.4112-.8232-1.3741.6895-3.0205-1.3741-.9609v-3.71l.1368-5.4941-.5494-7.4141-1.2363-5.497,1.5088-4.2559-.1357-10.7158Z"/>
        <polygon class="cls-3" points="65.01 0 68.398 0.091 68.765 0.732 67.941 1.373 67.941 1.732 65.638 1.466 65.652 1.099 64.92 0.732 65.01 0"/>
        <polygon class="cls-3" points="62.08 1.716 61.098 2.512 60.981 2.289 60.249 2.38 59.608 1.556 61.256 0.091 63.363 0.183 63.454 0.823 62.997 1.556 63.041 1.637 62.08 1.716"/>
        <polygon class="cls-4" points="56.496 7.874 56.496 6.775 58.236 8.423 60.34 9.338 61.92 9.418 61.715 10.345 60.506 10.588 59.608 10.345 58.143 9.523 56.496 7.874"/>
        <polygon class="cls-5" points="12.912 147.782 13.461 149.568 14.971 151.902 15.796 154.924 12.912 155.337 9.339 155.748 8.516 154.374 9.205 151.354 7.831 150.393 7.831 146.683 7.968 141.189 7.418 133.774 7.341 133.432 9.8 131.209 11.262 128.096 13.277 120.222 16.025 107.401 16.94 103.191 21.336 103.74 25.364 102.092 35.07 98.979 35.984 101.359 37.295 104.561 34.2 106.855 24.862 109.049 21.701 108.09 17.72 107.542 16.07 116.743 14.285 124.159 13.186 125.669 12.775 128.555 11.4 131.987 11.949 139.54 12.912 147.782"/>
        <polygon class="cls-6" points="40.656 153.001 40.656 151.902 41.342 149.568 39.83 148.742 38.869 147.094 40.105 143.389 41.066 132.536 41.48 125.531 40.38 124.021 40.47 123.425 42.394 123.336 47.659 122.405 47.659 123.609 46.011 125.12 45.599 129.516 44.913 145.449 46.699 148.605 48.073 151.491 48.348 153.414 45.599 154.099 42.027 153.552 40.656 153.001"/>
        <polygon class="cls-5" points="41.342 143.8 39.968 146.547 41.48 148.469 40.72 149.229 39.83 148.742 38.869 147.094 40.105 143.389 41.066 132.536 41.48 125.531 40.38 124.021 40.47 123.425 42.394 123.336 42.44 123.326 42.44 124.297 42.167 135.008 41.342 143.8"/>
        <polygon class="cls-2" points="47.472 150.232 48.073 151.491 48.348 153.414 45.599 154.099 42.027 153.552 40.656 153.001 40.656 151.902 40.798 151.416 43.401 151.537 47.472 150.232"/>
        <polygon class="cls-2" points="21.154 150.712 24.768 149.9 25.548 151.627 24.54 152.361 21.336 152.361 19.779 151.902 19.779 150.658 21.154 150.712"/>
        <polygon class="cls-2" points="15 152.005 15.796 154.924 12.912 155.337 9.339 155.748 8.516 154.374 8.605 153.99 11.262 153.368 15 152.005"/>
        <polygon class="cls-7" points="60.776 17.717 61.393 18.541 61.736 22.935 59.472 23.073 58.372 23.004 58.098 21.494 57.754 20.463 57.136 19.64 57.342 18.404 60.776 17.717"/>
        <path class="cls-7" d="M59.4013,26.0264l2.542.6186.2071.4795s.1367.8926-.0703.9615c-.2056.0693-2.8155,1.0991-2.8155,1.0991l-.8232-.7549Z"/>
        <polygon class="cls-7" points="56.86 37.22 56.93 37.975 54.87 40.584 53.359 42.164 52.671 42.096 53.291 39.897 53.428 37.426 54.526 36.533 56.86 37.22"/>
        <path class="cls-7" d="M49.9946,42.5762l1.7857,1.0991s.8911,2.6778.8911,2.8833c0,.2066-.2046,2.2666-.2046,2.2666l-2.2666.8926-.8233-2.4038-.3442-3.502Z"/>
        <polygon class="cls-7" points="45.189 53.083 47.933 53.838 48.965 54.937 48.62 57.821 47.248 59.127 43.609 59.057 43.609 55.005 45.189 53.083"/>
        <polygon class="cls-7" points="54.319 51.229 55.419 51.778 57.479 54.731 55.692 58.645 54.803 58.508 52.534 54.113 54.319 51.229"/>
        <polygon class="cls-7" points="41.752 59.675 43.881 60.225 44.364 63.178 42.097 66.131 40.242 66.887 38.388 63.453 39.557 61.323 41.752 59.675"/>
        <polygon class="cls-7" points="48.073 62.972 48.483 62.902 51.849 64.276 51.78 65.856 50.131 69.839 48.278 69.564 45.599 66.474 45.805 65.306 48.073 62.972"/>
        <polygon class="cls-7" points="43.881 69.977 45.599 69.977 48.416 72.174 47.865 73.685 46.286 77.049 42.784 77.393 40.448 73.135 41.066 71.899 43.881 69.977"/>
        <polygon class="cls-7" points="50.957 74.44 53.771 77.324 53.497 78.561 51.23 79.865 49.445 77.941 49.651 75.813 50.957 74.44"/>
        <polygon class="cls-7" points="36.741 67.503 37.428 68.122 37.839 73.342 37.29 73.342 33.65 72.792 32.14 70.114 32.551 68.053 36.741 67.503"/>
        <polygon class="cls-7" points="38.869 75.195 39.626 75.813 40.242 80.07 39.692 80.826 34.818 81.924 32.964 79.11 32.551 76.293 33.65 74.646 38.869 75.195"/>
        <polygon class="cls-7" points="45.531 81.169 47.454 81.924 46.699 83.985 45.462 85.222 43.401 83.709 43.059 82.405 45.531 81.169"/>
        <polygon class="cls-7" points="48.552 85.427 49.582 86.594 49.513 87.969 48.552 88.105 47.316 86.732 48.552 85.427"/>
        <path class="cls-7" d="M42.167,86.3208l1.4419.5493.479,1.7857-1.3042,1.3721s-1.3037.1377-1.3037-.0689c0-.2046-1.0323-2.4043-1.0323-2.4043Z"/>
        <polygon class="cls-7" points="43.881 95.66 45.942 97.446 46.354 99.505 45.393 100.192 42.99 99.643 42.167 96.14 43.881 95.66"/>
        <polygon class="cls-7" points="32.689 84.74 33.65 85.702 34.473 90.097 31.522 91.747 29.667 89.959 28.568 89.136 29.531 86.457 31.178 85.084 32.689 84.74"/>
        <polygon class="cls-7" points="28.432 76.019 29.255 77.186 29.942 81.856 29.392 82.405 25.339 80.758 23.005 79.247 23.761 78.011 26.234 77.049 28.432 76.019"/>
        <path class="cls-7" d="M26.0254,82.6807l.7578,1.2358s-.3433.6856-.5488.6856c-.209,0-1.2354-.0674-1.4424-.4116-.2056-.3433-.7554-1.8536-.7554-1.8536Z"/>
        <polygon class="cls-7" points="20.328 83.779 21.908 84.123 24.723 89.959 23.005 91.882 20.74 93.05 18.818 91.676 16.963 89.342 17.651 86.388 19.435 84.535 20.328 83.779"/>
        <polygon class="cls-7" points="12.156 83.092 13.461 83.985 12.912 86.114 11.539 87.144 10.577 86.663 10.304 84.74 12.156 83.092"/>
        <polygon class="cls-7" points="23.212 95.589 23.419 97.239 20.74 100.055 19.505 100.468 18.475 98.818 17.992 94.973 19.71 94.286 22.318 95.247 23.212 95.589"/>
        <polygon class="cls-7" points="28.98 92.362 30.491 93.599 30.491 96.278 29.531 97.582 28.568 98.269 24.723 95.867 26.166 93.05 27.332 92.707 28.98 92.362"/>
        <path class="cls-7" d="M53.0156,28.1641l1.2368-4.2666.0523-.168,1.1845.0987.8907,1.1684.4804,2.4712-.4804,1.168s-1.5772.2749-1.7852.2749A11.05143,11.05143,0,0,1,53.0156,28.1641Z"/>
        <polygon class="cls-7" points="51.482 33.453 52.265 30.76 54.595 31.658 54.733 33.168 51.78 33.58 51.482 33.453"/>
        <polygon class="cls-7" points="58.854 37.495 57.411 35.022 57.479 32.962 59.265 31.176 60.707 32.275 61.393 33.305 62.621 33.264 62.202 39.265 58.854 37.495"/>
        <polygon class="cls-7" points="54.663 44.431 55.763 43.538 57.618 42.164 58.785 41.614 60.365 42.782 61.744 43.702 60.469 48.252 54.663 45.186 54.663 44.431"/>
        <polygon class="cls-8" points="58.7 37.231 59.883 32.275 60.037 31.763 60.707 32.275 61.393 33.305 62.621 33.264 62.345 37.233 62.202 39.265 58.854 37.495 58.7 37.231"/>
        <polygon class="cls-8" points="57.5 42.25 57.618 42.164 58.785 41.614 60.365 42.782 61.744 43.702 60.469 48.252 56.56 46.187 57.5 42.25"/>
        <path class="cls-8" d="M61.5918,26.5586l.3515.0864.2071.4795s.1367.8926-.0703.9615c-.0806.0278-.5445.2065-1.0679.4126Z"/>
        <polygon class="cls-8" points="53.946 56.849 55.236 51.687 55.419 51.778 57.479 54.731 55.692 58.645 54.803 58.508 53.946 56.849"/>
        <polygon class="cls-8" points="48.759 69.221 51.372 64.081 51.849 64.276 51.78 65.856 50.131 69.839 48.799 69.642 48.759 69.221"/>
        <polygon class="cls-8" points="49.651 75.813 50.957 74.44 53.771 77.324 53.497 78.561 51.23 79.865 50.171 78.725 49.561 76.741 49.651 75.813"/>
        <polygon class="cls-4" points="81.746 18.959 77.325 17.854 77.325 17.305 81.866 18.566 81.746 18.959"/>
      </g>
    </g>
  </g>
</svg>
