<svg xmlns="http://www.w3.org/2000/svg" width="103.5991" height="104.041" viewBox="0 0 103.5991 104.041">
  <defs>
    <style>
      .cls-1 {
        fill: #592b22;
      }

      .cls-2 {
        fill: #c18f74;
      }

      .cls-3 {
        fill: #b28056;
      }

      .cls-4 {
        fill: #824a37;
      }

      .cls-5 {
        fill: #68352a;
      }

      .cls-6 {
        fill: #d3aa8c;
      }

      .cls-7 {
        fill: #9e6e49;
      }
    </style>
  </defs>
  <g id="图层_2" data-name="图层 2">
    <g id="Layer_1" data-name="Layer 1">
      <g>
        <path class="cls-1" d="M33.3842,58.0264,27.7319,62l-3.4448,4.6816s-3.0899,7.3301-3.2671,7.5957a18.11185,18.11185,0,0,0-.5293,2.4737l2.914,14.5722,2.4727,2.3848.3535.9707.7949.7949,1.3247,3.7979-.6186.4414-5.2988-.5303L19.519,98.0361V96.1807l.9717-1.502-.0889-1.5898-1.8545-2.1192.6182-3.1787-1.9439-9.539-3.0908-5.5645L21.7265,55.377l11.5698-1.6778Z"/>
        <polygon class="cls-2" points="19.519 98.036 22.433 99.183 27.732 99.713 28.35 99.272 27.026 95.474 26.231 94.679 25.877 93.708 23.405 91.323 22.097 84.783 18.9 81.387 18.076 82.445 19.166 87.791 18.547 90.97 20.402 93.089 20.491 94.679 19.519 96.181 19.519 98.036"/>
        <polygon class="cls-3" points="28.35 99.272 27.075 95.613 25.79 96.356 23.581 97.063 19.519 96.987 19.519 98.036 22.433 99.183 27.732 99.713 28.35 99.272"/>
        <polygon class="cls-1" points="62.265 62.973 64.12 67.213 64.297 75.955 63.236 84.435 63.148 93.178 64.031 95.386 64.561 96.711 64.297 98.389 67.829 99.185 69.861 99.008 70.745 97.772 70.479 95.827 67.829 94.149 67.564 91.148 67.741 83.287 69.065 75.778 70.214 64.474 62.265 62.973"/>
        <polygon class="cls-2" points="71.98 98.74 70.479 95.827 67.829 94.149 67.564 91.148 67.622 88.575 66.195 85.626 64.738 83.373 63.943 85.229 63.225 85.588 63.148 93.178 64.031 95.386 64.561 96.711 64.297 98.389 67.829 99.185 69.861 99.008 71.98 98.74"/>
        <polygon class="cls-3" points="69.861 99.008 71.98 98.74 70.479 95.827 69.123 94.968 68.094 95.738 65.444 97.151 64.464 97.33 64.297 98.389 67.829 99.185 69.861 99.008"/>
        <path class="cls-1" d="M11.4814,34.0029H5.8286L2.5615,40.0098,1.0595,51.9316l.7066,8.3907L1.0595,64.915,0,68.3604a51.99368,51.99368,0,0,1,2.914,4.5917c0,.3536.7071,8.8321.7071,9.0977,0,.2647-.9717,3.3555-.9717,3.3555l-.9712,1.0605v.794l1.501-.794,1.1484,2.208.2656,2.7383,1.2354,2.6494.5298-.2646-.7056-2.209.7944-3.0908L8.832,83.1982l1.6782-11.6591Z"/>
        <polygon class="cls-1" points="90.44 8.037 92.736 6.714 91.324 4.77 89.203 2.649 84.875 2.385 75.425 3.887 71.097 7.949 63.943 20.579 60.588 27.292 60.411 29.676 86.554 8.744 90.44 8.037"/>
        <path class="cls-4" d="M100.8613,17.9297l1.501,1.3242,1.2368,1.7656-.3535,4.6817-3.3555,2.1191-2.1206-.7939L95.915,25.877l-5.8291-1.5889-1.855.1777.1763,3.0899L87.2597,38.5078,83.2861,52.1973l-.354,6.4472-5.4756,6.1826-.9722,8.0362-.9712,7.5078L75.3359,91.499l.9722,5.7403,2.209,2.4736.1762,3.71-5.7407.6181-1.8555-.707.3535-2.8242-1.5893-1.502.0879-3.5342.354-10.5088V76.5752L68.624,67.0361l-3.002-2.4736-7.4189-1.1484-6.0059-.5303-11.3047-.9707-8.7441-3.5332-2.3853.0879-3.1792,1.8545-7.8603,7.6836-3.2671,7.4199-2.2969,3.6201,1.148,7.5068,2.3847,9.628,2.6504,1.6767.795,1.2373,1.0595,3.8858-.9726.5312-4.9453-1.2373-3.6206-1.3242.8828-2.2959-1.2369-3.0918-.7944-1.1484-.707-5.2989-.1768-6.8007L6.9775,71.1865l.9707-3.7099L7.6831,62,3.4443,51.1367l1.2368-8.5664L9.186,33.915l8.3896-6.7998,7.5957-.1777,9.627,3.3574s5.2988,1.2363,5.7402,1.2363c.4429,0,12.3653-.0888,12.3653-.0888l5.0346-1.9434,2.9141-1.9433,1.2363-.795L70.1259,14.75l5.2989-5.7412,3.4443-2.8272L84.2568,4.416l4.5049,2.0322,4.3271,5.3868,3.7984,3.3564Z"/>
        <path class="cls-5" d="M78.5171,99.7129l-2.209-2.4736-.9722-5.7403.1772-11.1279.9712-7.5078.9722-8.0362,2.2314-2.5195c.0113-.4785.0201-.793.0201-.793l-.794-4.1064-2.9155-4.3721-2.7817-6.0957-.5308-2.7802-1.0591-.2657-.397,1.5909-.1328,4.9013-2.7832,6.4912-.396,5.5635.5,4.4238.2061.1709,1.6792,9.5391v8.3896l-.354,10.5088-.0879,3.5342,1.5893,1.502-.3535,2.8242,1.8555.707,5.7407-.6181Z"/>
        <polygon class="cls-5" points="66.195 61.778 54.934 58.733 43.276 56.481 35.46 52.771 31.882 47.737 28.968 41.907 22.874 36.476 17.31 38.198 12.011 41.774 6.447 48.002 4.207 53.092 7.683 62 7.948 67.477 6.977 71.187 9.626 82.315 9.803 89.115 10.51 94.414 11.305 95.563 12.542 98.654 11.659 100.95 15.279 102.274 20.225 103.512 21.197 102.981 20.138 99.095 19.343 97.857 16.692 96.181 14.308 86.553 13.16 79.046 15.457 75.426 18.724 68.006 26.584 60.322 29.763 58.468 32.148 58.38 40.892 61.913 52.197 62.884 58.203 63.414 65.622 64.563 66.779 65.515 66.195 61.778"/>
        <polygon class="cls-4" points="23.537 45.352 26.981 51.844 25.922 54.758 21.284 57.143 17.576 59.792 14.926 56.348 16.117 48.134 18.9 44.557 23.537 45.352"/>
        <polygon class="cls-6" points="78.517 99.713 76.308 97.239 75.336 91.499 75.436 85.245 74.276 83.505 74.011 81.784 73.481 80.724 72.157 84.036 70.265 86.08 69.949 95.474 69.861 99.008 71.451 100.51 71.097 103.334 72.953 104.041 78.693 103.423 78.517 99.713"/>
        <polygon class="cls-6" points="19.343 97.857 16.692 96.181 14.603 87.746 13.072 87.349 11.083 86.023 9.758 87.349 9.803 89.115 10.51 94.414 11.305 95.563 12.542 98.654 11.659 100.95 15.279 102.274 20.225 103.512 21.197 102.981 20.138 99.095 19.343 97.857"/>
        <polygon class="cls-5" points="100.706 21.638 98.918 19.982 97.328 17.863 94.944 15.479 93.022 14.021 93.42 14.616 95.075 16.141 97.726 19.055 99.183 20.91 100.706 21.638"/>
        <polygon class="cls-5" points="102.654 22.722 103.054 21.791 102.354 20.627 102.128 21.052 101.837 21.466 102.654 22.722"/>
        <polygon class="cls-5" points="101.699 22.169 102.56 22.631 102.56 22.897 101.766 22.5 101.699 22.169"/>
        <polygon class="cls-5" points="101.459 26.828 100.243 25.612 97.328 24.686 94.546 24.288 92.294 24.023 88.452 22.301 83.02 18.988 83.948 21.24 86.332 23.89 88.273 24.46 90.086 24.288 95.915 25.877 97.769 27.026 99.89 27.82 101.459 26.828"/>
        <polygon class="cls-5" points="102.097 25.215 100.64 24.553 99.05 24.421 100.243 25.083 101.699 25.745 102.091 26.43 102.64 26.084 102.097 25.215"/>
        <polygon class="cls-5" points="92.691 13.623 92.426 12.431 91.101 11.702 89.843 11.637 88.319 11.967 88.253 13.092 88.915 14.088 91.234 14.088 92.691 13.623"/>
        <polygon class="cls-1" points="91.764 12.96 91.896 12.299 90.737 12.464 89.909 13.225 89.975 13.558 92.294 13.358 91.764 12.96"/>
        <polygon class="cls-5" points="87.127 23.626 86.332 30.382 82.887 37.668 81.96 46.279 82.357 49.458 83.273 52.432 83.286 52.197 87.26 38.508 88.407 27.556 88.231 24.466 88.892 24.402 87.127 23.626"/>
        <path class="cls-5" d="M88.7617,6.4482,84.2568,4.416,78.8691,6.1816,75.4248,9.0088,70.1259,14.75,62.0888,26.7607l-1.2363.795L57.9384,29.499l-5.0346,1.9434s-6.3399.0469-9.9444.0722l2.437,1.3848,8.3462.794,6.6231.2656,2.2524-4.2403L67.122,23.626l5.2998-6.4932,4.3711-6.624,5.7857-3.1133,2.959-.5957,3.9746,2.2529,2.6948,1.6856Z"/>
        <polygon class="cls-4" points="82.579 7.396 83.286 5.886 83.551 4 87.26 0 87.79 0.377 87.084 3.17 85.581 5.66 85.052 7.094 84.168 7.773 82.579 7.396"/>
        <polygon class="cls-1" points="86.332 2.098 85.272 3.952 84.941 6.005 85.358 6.265 85.581 5.66 87.084 3.17 87.621 1.048 86.332 2.098"/>
        <polygon class="cls-3" points="14.308 100.42 13.022 101.448 15.279 102.274 20.225 103.512 21.197 102.981 20.138 99.095 19.755 98.499 17.576 98.83 14.308 100.42"/>
        <polygon class="cls-7" points="20.138 99.095 19.755 98.499 17.576 98.83 14.986 100.091 15.544 99.979 19.077 99.625 20.281 99.625 20.138 99.095"/>
        <polygon class="cls-3" points="78.517 99.713 77.931 99.059 75.513 101.038 71.247 102.145 71.097 103.334 72.953 104.041 80.106 103.334 78.517 99.713"/>
        <polygon class="cls-7" points="78.517 99.713 77.931 99.059 75.513 101.038 73.829 101.475 75.248 101.567 77.015 100.596 78.527 99.932 78.517 99.713"/>
        <polygon class="cls-3" points="100.772 17.597 100.706 18.591 99.448 22.235 99.037 23.008 96.4 20.933 92.646 18.148 88.673 14.838 86.387 12.544 87.922 5.608 87.06 5.476 86.155 8.082 85.67 11.128 84.787 10.333 82.844 7.109 81.828 4.814 81.033 5.343 82.357 8.258 85.317 12.895 85.758 15.677 87.127 20.513 88.519 24.619 89.378 24.553 87.922 20.048 87.26 16.825 86.863 15.544 86.509 14.175 90.902 18.062 97.527 23.029 98.619 23.793 98.321 24.355 96.4 26.319 97.129 26.805 99.028 25.105 100.022 23.184 100.817 21.107 101.434 18.326 100.772 17.597"/>
        <polygon class="cls-7" points="98.83 23.67 96.313 21.727 89.512 16.429 85.936 13.071 84.346 10.863 82.27 7.507 81.326 5.148 81.033 5.343 82.357 8.258 85.317 12.895 85.381 13.305 85.891 13.733 86.288 14.705 87.039 17.664 87.657 20.667 87.257 20.896 88.519 24.619 89.378 24.553 87.922 20.048 87.26 16.825 86.863 15.544 86.509 14.175 90.902 18.062 97.527 23.029 98.619 23.793 98.321 24.355 96.4 26.319 97.129 26.805 98.496 25.582 98.079 25.348 98.3 24.686 98.83 23.67"/>
        <polygon class="cls-7" points="86.376 8.965 87.542 5.55 87.06 5.476 86.155 8.082 85.67 11.128 85.627 11.088 85.758 11.614 86.376 8.965"/>
        <polygon class="cls-5" points="66.152 21.107 66.417 20.799 64.55 19.507 64.232 20.07 66.152 21.107"/>
        <polygon class="cls-5" points="65.753 21.771 65.887 21.505 63.973 20.529 63.943 20.579 63.83 20.808 65.753 21.771"/>
        <polygon class="cls-5" points="69.066 16.78 69.199 16.383 67.115 14.98 66.876 15.401 69.066 16.78"/>
        <polygon class="cls-5" points="69.817 15.677 69.817 15.366 67.788 13.793 67.62 14.091 69.817 15.677"/>
        <polygon class="cls-5" points="69.852 10.148 72.025 13.071 72.466 12.453 70.006 9.876 69.852 10.148"/>
        <polygon class="cls-5" points="74.498 10.289 74.764 10.068 72.175 6.939 71.9 7.197 74.498 10.289"/>
        <polygon class="cls-5" points="74.939 9.716 75.205 9.493 72.931 6.229 72.668 6.476 74.939 9.716"/>
        <polygon class="cls-5" points="75.359 3.948 74.836 4.44 75.336 5.608 76.705 8.832 76.97 8.743 75.359 3.948"/>
        <polygon class="cls-5" points="76.794 6.182 77.766 7.64 78.03 7.418 76.3 3.747 75.849 3.819 76.794 6.182"/>
        <polygon class="cls-5" points="78.075 7.022 78.384 6.844 76.948 3.646 76.659 3.69 78.075 7.022"/>
        <polygon class="cls-5" points="80.846 3.025 80.494 3.081 80.415 5.917 80.724 5.917 80.846 3.025"/>
        <polygon class="cls-5" points="82.491 5.166 82.712 5.122 82.366 2.783 82.017 2.84 82.491 5.166"/>
        <polygon class="cls-5" points="90.288 3.735 88.365 6.624 88.541 6.89 90.557 4.002 90.288 3.735"/>
      </g>
    </g>
  </g>
</svg>
