<svg xmlns="http://www.w3.org/2000/svg" width="195.21826" height="161.22899" viewBox="0 0 195.21826 161.22899">
  <defs>
    <style>
      .cls-1 {
        fill: #9c7438;
      }

      .cls-2 {
        fill: #4b3d17;
      }

      .cls-3 {
        fill: #ffd85a;
      }

      .cls-4 {
        fill: #e5e5e5;
      }

      .cls-5 {
        fill: #fb7420;
      }

      .cls-6 {
        fill: #111312;
      }

      .cls-7 {
        fill: #cd5917;
      }

      .cls-8 {
        fill: #cfba9f;
      }

      .cls-9 {
        fill: #b69162;
      }

      .cls-10 {
        fill: #fff;
      }

      .cls-11 {
        fill: #f13222;
      }

      .cls-12 {
        fill: #bf4e16;
      }
    </style>
  </defs>
  <g id="图层_2" data-name="图层 2">
    <g id="Layer_1" data-name="Layer 1">
      <g>
        <path class="cls-1" d="M56.9573,22.03069c-.99879,2.2843-1.83879,4.6383-2.6206,7.0081q-1.17779,3.5547-2.15219,7.1758c-1.32,4.8202-2.38781,9.7077-3.29771,14.6243q-.68415,3.68775-1.2256,7.4003c-.1724,1.238-.3641,2.4747-.52069,3.7151l-.452,3.7243c-.55851,4.9709-.95471,9.9598-1.22041,14.9552-.1144,2.4982-.2229,4.9977-.2602,7.4982l-.0408,1.8753c-.0164.6251-.0259,1.2503-.0217,1.8755l.00911,3.7509c-.00781,1.2503.04509,2.4999.07629,3.7495l.0525,1.8744c.0154.6247.034,1.2494.0713,1.8735.1406,2.4961.2416,4.9934.4695,7.4831.0982,1.2455.1973,2.4908.3141,3.7344.1346,1.2424.2579,2.4851.4046,3.7257.25871,2.4838.6275,4.9563.9849,7.4265.1753,1.2355.3826,2.4672.604,3.6963.2127,1.2301.4382,2.4581.6651,3.6848.4798,2.4502,1.03071,4.8884,1.6124,7.3164l.3248-.0444c-.0056-.6255-.0219-1.2493-.0397-1.8725s-.0296-1.247-.0556-1.8685c-.0379-1.2448-.1117-2.4842-.1477-3.727-.04-1.2424-.08149-2.4836-.1357-3.7225-.0474-1.2396-.1162-2.4762-.1434-3.7161-.07339-2.4778-.2001-4.9483-.2521-7.4222-.0289-1.2367-.08129-2.4711-.12229-3.7059q-.0315-1.854-.08161-3.7054c-.2273-9.8758-.2943-19.7389.0171-29.5994.1768-4.9284.427-9.8544.7768-14.7759l.28971-3.6891.326-3.6869c.10289-1.2301.25059-2.4546.36979-3.6835.11221-1.23.2685-2.4538.4035-3.6815.2884-2.4523.594-4.904.94-7.3512.1665-1.2248.355-2.4461.535-3.6699.2024-1.2188.3713-2.4463.5889-3.6636C54.824,31.73159,55.7384,26.85809,56.9573,22.03069Z"/>
        <path class="cls-2" d="M10.19551,73.40189a21.03674,21.03674,0,0,1,2.55309,1.3185c.4205.235.8181.5023,1.2256.7587l1.1957.8072a49.75942,49.75942,0,0,1,4.5288,3.5864c.35781.3226.7261.6362,1.076.9675l1.0502.9956c.35361.3295.68561.6784,1.0255,1.0209l1.0148,1.0337.9795,1.0656c.3245.3573.6582.708.9682,1.0771l.9461,1.0966.4701.5514.454.5635.9059,1.1301.4532.5657.43631.5773.86559,1.1612c.28841.3874.5799.773.8513,1.1716.5489.7932,1.115,1.577,1.6506,2.3801l1.5724,2.4311c2.0448,3.2739,3.91411,6.6528,5.64,10.1a132.51169,132.51169,0,0,1,8.3712,21.4789c.2694.921.5141,1.8491.7602,2.7763.2424.9282.5028,1.8508.7273,2.783.429,1.8696.8592,3.7372,1.2388,5.6145.1734.9428.3509,1.8838.5125,2.828.165.9433.3329,1.8852.4732,2.8324.2631,1.8986.4984,3.8002.6851,5.7068l-.2854.0623c-.6674-1.7995-1.286-3.6042-1.8771-5.4118-.621-1.8-1.2409-3.5958-1.8295-5.3967l-.9321-2.6848c-.3134-.8935-.6089-1.7912-.9138-2.6856-.6378-1.7799-1.2745-3.5573-1.8955-5.3375-.3289-.8837-.6673-1.7638-.9854-2.6502-.32539-.8839-.633-1.7743-.9888-2.6459-.6792-1.7551-1.3361-3.5186-2.0542-5.2553-1.37239-3.5017-2.899-6.932-4.4641-10.3438-1.6121-3.388-3.3181-6.7284-5.1506-9.9997q-2.75985-4.8999-5.962-9.5304l-.3989-.5796-.41379-.5678-.822-1.1419c-.54871-.7617-1.13631-1.4911-1.69991-2.2435-1.16809-1.467-2.3554-2.9268-3.62109-4.3173A49.62931,49.62931,0,0,0,10.19551,73.40189Z"/>
        <path class="cls-1" d="M0,90.71289a17.16265,17.16265,0,0,1,2.6448-.2556l.6678-.0128c.22291-.0019.4446.0102.6676.0148.2226.0076.4464.01.6692.022l.6676.0484a32.53953,32.53953,0,0,1,5.3019.8859,37.59291,37.59291,0,0,1,9.9427,4.2406l1.1457.7316c.3791.2484.7738.478,1.134.7521l1.0984.802c.3635.271.7406.5275,1.083.8235l1.0501.8641.5255.433c.1763.1434.3489.2906.51121.4482l1.98609,1.8578a61.37364,61.37364,0,0,1,6.9105,8.3409c.5002.7492,1.0043,1.4964,1.4972,2.251.2568.3716.469.7676.7016,1.1526l.6843,1.1622c.952,1.5305,1.7265,3.1493,2.5556,4.7409.10071.2002.2089.3973.3036.6001l.2786.611.5461,1.227.5456,1.2265.2727.6132c.0916.2041.1838.4079.259.6184l.9548,2.5034c.3167.8342.6409,1.6665.9008,2.5192.2754.8475.5471,1.6958.8087,2.5467l.3965,1.2743c.13231.4244.2326.8585.3461,1.2883.2195.862.4484,1.72.659,2.5827l.3188,1.2923c.10841.4298.1847.8681.2728,1.303.1709.8711.3455,1.7401.5043,2.6122.157.8722.34031,1.7371.4469,2.6189.2402,1.7571.4523,3.5162.6155,5.2784l-.2855.0623c-.6435-1.6543-1.238-3.3118-1.8044-4.9712l-.2104-.6226-.2313-.6162-.4553-1.2329c-.3057-.8207-.5956-1.6442-.8893-2.4658l-.2192-.6161c-.0716-.2058-.13969-.4126-.2222-.6147l-.474-1.2184c-.3178-.8111-.6174-1.6268-.92649-2.4386l-.22991-.6093c-.0777-.2026-.145-.4089-.232-.608l-.496-1.2025c-.3336-.8004-.657-1.6034-.9766-2.4072a112.04028,112.04028,0,0,0-9.399-18.3131,69.7744,69.7744,0,0,0-6.2203-8.0948l-1.76519-1.8374c-.07431-.0761-.14591-.1551-.22231-.2286l-.23269-.2167-.463-.4364-.92671-.8747c-.3022-.3011-.6368-.5608-.9591-.837l-.9739-.8219c-.3168-.286-.6656-.5264-1.0008-.7876L19.0437,97.95c-.1665-.1336-.3459-.2467-.52119-.3664l-.52821-.3568c-.35179-.2387-.6999-.4856-1.0561-.7188l-1.092-.6619-.5471-.3322c-.1814-.113-.37359-.2039-.5593-.3091l-1.1256-.6116c-.186-.1069-.3808-.1933-.5733-.2859l-.5789-.2755c-.7653-.3876-1.5623-.6978-2.353-1.0377a37.49934,37.49934,0,0,0-4.9329-1.5472A25.71884,25.71884,0,0,0,0,90.71289Z"/>
        <path class="cls-1" d="M11.1839,54.874c1.5351,1.6065,2.95861,3.3198,4.3381,5.0642q2.0739,2.615,3.99751,5.3478c2.58,3.6308,4.96939,7.3951,7.23559,11.2321q1.7013,2.8773,3.2906,5.8193c.5232.9835,1.0621,1.9599,1.5727,2.9504l1.51811,2.979q2.983,5.985,5.59809,12.1447c.8603,2.0561,1.716,4.1151,2.5125,6.1967l.608,1.5572c.205.5182.4043,1.0386.592,1.5632l1.14041,3.1425c.38909,1.0442.72719,2.1064,1.08349,3.1619l.5296,1.5849c.1784.5277.35391,1.0563.5137,1.59.6461,2.1325,1.3258,4.2537,1.897,6.4074.2989,1.0726.597,2.1453.8799,3.222.2675,1.0811.5445,2.1591.8014,3.2424.5436,2.1582.9915,4.3407,1.4483,6.5177.2314,1.0879.4347,2.1822.62561,3.2788.19839,1.0948.38549,2.1917.57089,3.2879.3482,2.1978.6332,4.4072.8893,6.6175l-.2854.0623c-.18679-.5253-.364-1.0524-.53979-1.5795s-.35681-1.0528-.52531-1.5811c-.3492-1.0535-.66669-2.1135-1.0169-3.1648-.3467-1.0522-.6919-2.1038-1.0256-3.1574-.3397-1.0521-.6605-2.1083-1.0171-3.1545-.6969-2.0964-1.3469-4.2031-2.0604-6.2898-.3542-1.044-.6881-2.0933-1.03169-3.1395q-.54106-1.56135-1.06561-3.1265c-2.832-8.336-5.7942-16.6124-9.07239-24.7707q-2.48432-6.1068-5.172-12.1304l-1.37141-2.9993-1.4011-2.9863c-.4626-.9982-.9609-1.9779-1.4368-2.9701-.4703-.9952-.9756-1.9718-1.4644-2.9581-.9918-1.9644-1.9978-3.9231-3.0364-5.8657-.5142-.9742-1.0457-1.9388-1.57089-2.9081-.54241-.9582-1.05941-1.934-1.614-2.8863C15.9382,62.34129,13.6814,58.54179,11.1839,54.874Z"/>
        <path class="cls-2" d="M20.64351,34.80839c1.46,2.0209,2.77959,4.1436,4.04549,6.294q1.9041,3.22455,3.6233,6.5571c2.3111,4.4313,4.3898,8.9817,6.3204,13.5941q1.4499,3.459,2.7653,6.9728c.4308,1.1734.88,2.3413,1.2958,3.5205l1.2306,3.5441q2.39805,7.1097,4.3603,14.3573c.641,2.4174,1.2764,4.8371,1.8426,7.273l.437,1.8241c.1485.6075.29021,1.2164.4184,1.8283l.7857,3.6678c.2724,1.2203.4854,2.4527.7196,3.6806l.3457,1.8429c.1173.6139.2314,1.2283.3271,1.8461.3913,2.4693.8215,4.9313,1.1262,7.4128.1678,1.238.3347,2.4761.484,3.7162.1316,1.2427.2743,2.4833.3937,3.7269.2732,2.4822.4365,4.9767.6104,7.4666.09041,1.2446.1487,2.4922.1927,3.7404.05271,1.2472.0924,2.4951.1305,3.742.05,2.4963.028,4.9958-.0262,7.4919l-.3268.0255c-.127-.6126-.2432-1.2256-.35779-1.8385s-.23521-1.2249-.34141-1.8379c-.2267-1.2246-.417-2.4515-.6452-3.6737-.224-1.2227-.44639-2.4445-.6558-3.6668-.2162-1.2215-.4109-2.4446-.6469-3.6621-.4531-2.4372-.8526-4.8784-1.32569-7.3072-.23371-1.2148-.444-2.4322-.66541-3.6478q-.3621-1.81845-.7051-3.6385c-1.8697-9.6999-3.8934-19.3534-6.2862-28.9242q-1.82505-7.16865-3.8889-14.2761l-1.0645-3.5441-1.0995-3.5342c-.3611-1.1804-.7648-2.3458-1.1416-3.5216-.3702-1.1783-.7822-2.3412-1.1742-3.5125-.8012-2.3356-1.6191-4.6669-2.47559-6.9854-.42221-1.1616-.86511-2.3154-1.30031-3.4732-.4559-1.1483-.881-2.3121-1.3515-3.4557C24.7831,43.83729,22.8572,39.26809,20.64351,34.80839Z"/>
        <path class="cls-1" d="M72.06251,46.98329c-1.66261,4.1141-3.06211,8.3059-4.38031,12.5157-.34,1.0484-.6383,2.1116-.965,3.1631-.30769,1.0587-.6224,2.1141-.9182,3.1752-.6029,2.1187-1.17049,4.2462-1.7231,6.3763-.26839,1.0675-.555,2.129-.8036,3.2013-.2545,1.0706-.5337,2.1337-.774,3.2074l-.73579,3.2155-.70391,3.222q-1.3602,6.4542-2.48109,12.9515c-1.47291,8.668-2.61211,17.3844-3.61131,26.1315q-.18,1.64085-.3781,3.2814c-.1139,1.0952-.21759,2.1915-.3423,3.2869-.2546,2.1905-.4429,4.3871-.6792,6.5837-.1266,1.098-.216,2.1981-.3248,3.2984-.1027,1.1005-.2169,2.2013-.3325,3.303-.1193,1.1018-.2046,2.205-.3225,3.3087-.0524.552-.1179,1.104-.1778,1.6564-.0601.5524-.1214,1.1051-.1924,1.6581l-.2923-.0002c-.2186-2.2144-.4087-4.4339-.5346-6.6556-.0514-1.1107-.1013-2.2222-.1396-3.3342-.0461-1.1122-.0795-2.2247-.0841-3.3369-.01549-2.2244-.0407-4.4522.0326-6.6766.0213-1.1132.0633-2.2254.0955-3.3386.048-1.1122.1118-2.2237.1762-3.3354.1015-2.2258.3156-4.4429.4947-6.6639.043-.5555.10251-1.1093.1649-1.6628l.1812-1.6611c.12441-1.1072.22941-2.2169.3882-3.3199l.4478-3.3128c.0722-.5525.1565-1.1033.2469-1.6532l.2638-1.6508c.3369-2.2032.7363-4.3968,1.1408-6.5886q1.26225-6.56745,2.8944-13.0558l.8516-3.2333c.2891-1.0762.6084-2.1447.9111-3.2169q.933-3.21015,1.9813-6.3849c1.4006-4.2303,2.9371-8.4159,4.6883-12.5114q1.29555-3.07725,2.7721-6.0741C69.87551,50.85519,70.9032,48.87879,72.06251,46.98329Z"/>
        <path class="cls-1" d="M80.8878,68.56829c-.9279,1.5135-1.7928,3.0549-2.63929,4.6035-.84751,1.5476-1.65731,3.1127-2.45621,4.6795q-2.36955,4.7166-4.4812,9.5311c-.3607.798-.6932,1.6091-1.0339,2.4156-.3485.8028-.6774,1.6143-1.00569,2.4253L68.7777,93.439l-.4743,1.2234c-.3187.8143-.6438,1.6255-.9395,2.4485l-.454,1.2299c-.1497.4104-.3108.8164-.4519,1.23l-.87349,2.4705c-.54341,1.6605-1.129,3.3052-1.63291,4.9773-.5333,1.6621-1.014,3.3402-1.5126,5.0124l-.6876,2.5256c-.11589.4206-.2395.8391-.3492,1.2612l-.3224,1.2685-.6516,2.5353-.6106,2.5462c-.2213.8451-.4019,1.6991-.59309,2.5514-.18181.854-.40131,1.7013-.58061,2.5565-.33639,1.7143-.7528,3.4176-1.0648,5.1406-.1733.8589-.33659,1.7199-.51859,2.5793-.16051.8623-.30631,1.7272-.47471,2.5906-.3482,1.7258-.6098,3.4644-.9374,5.2028-.1737.8686-.2933,1.7424-.4497,2.6154-.0718.437-.1563.8737-.2354,1.3111-.0793.4375-.1599.8753-.2502,1.3133l-.292-.0124c-.0402-.4442-.0708-.8886-.1-1.3335-.029-.4447-.06359-.8903-.0851-1.3355-.04649-.8907-.1044-1.7841-.1032-2.6747-.0074-.8911-.01329-1.7836-.0075-2.6764-.01179-.8944.0376-1.784.0725-2.6762.0335-.8923.0856-1.7836.1303-2.6767.0675-.8902.1536-1.7788.2298-2.6695.0385-.4453.0784-.8907.1237-1.3354.04491-.4447.1082-.8867.1614-1.3305.108-.8873.22651-1.7736.3486-2.6597.0545-.4442.1382-.8832.2062-1.3252.07-.4416.1458-.8824.2226-1.3229.1536-.8811.297-1.7647.4813-2.64l.5495-2.6274c.1874-.875.4068-1.7425.6211-2.6113.8519-3.4764,1.8738-6.9108,3.0297-10.297.5648-1.6977,1.186-3.3759,1.8199-5.048l.9925-2.4922c.328-.8315.6954-1.6475,1.0454-2.4697.34671-.8237.7228-1.6349,1.0922-2.4484l.55951-1.2177.58649-1.2052c.771-1.6113,1.59251-3.1982,2.4418-4.7684,1.6985-3.1405,3.5332-6.2052,5.522-9.1632A71.86861,71.86861,0,0,1,80.8878,68.56829Z"/>
        <path class="cls-2" d="M60.5177,136.01749c.5327-2.2406,1.0767-4.4788,1.5994-6.7215.51841-2.1967,1.0117-4.3988,1.5188-6.5979l.3779-1.6498.3842-1.5954c.2731-1.0559.5668-2.1059.9012-3.1434a56.02187,56.02187,0,0,1,5.3758-11.8768,54.1782,54.1782,0,0,1,3.68851-5.3844l1.01439-1.2797c.3423-.4232.70261-.8316,1.0528-1.2487l1.1122-1.3221c.3638-.4564.7335-.9078,1.08761-1.3713a50.89022,50.89022,0,0,0,3.84839-5.8281,50.126,50.126,0,0,0,2.9718-6.2889c.4059-1.0844.7996-2.1702,1.1255-3.2776.34231-1.0981.6218-2.2289.8876-3.3209.5258-2.2049,1.0276-4.418,1.4415-6.6611-1.0446,2.0277-2.0014,4.0854-2.9343,6.1513-.22949.5181-.4591,1.0379-.6939,1.5393l-.347.7585-.3605.7514q-.177.3765-.369.7457l-.3708.743q-.38235.7371-.7772,1.4648c-1.0533,1.9406-2.2004,3.8182-3.4238,5.6351q-1.849,2.71695-3.9461,5.2321c-.3464.4209-.7075.8297-1.0619,1.2433l-.5481.6062c-.1817.2012-.3633.4001-.5598.6264-.3827.4408-.7751.8736-1.1493,1.3217l-1.10909,1.356a56.39919,56.39919,0,0,0-3.96341,5.7749,56.38863,56.38863,0,0,0-5.6338,12.788c-.3363,1.1174-.6292,2.247-.89879,3.3813-.12391.5675-.25671,1.1426-.37241,1.7035l-.3301,1.6602c-.4368,2.2141-.8876,4.4252-1.313,6.6418-.4829,2.4786-.9437,4.9619-1.4143,7.4431Z"/>
        <g>
          <path class="cls-2" d="M119.2902,121.34679a1.92925,1.92925,0,0,0,1.9192-1.7568c5.2785-58.8433,1.2227-75.5659,1.0474-76.2491a1.92915,1.92915,0,0,0-3.7388.9528h0c.041.1641,4.0398,17.0812-1.1514,74.9515a1.92938,1.92938,0,0,0,1.7491,2.0939C119.1742,121.34429,119.23251,121.34679,119.2902,121.34679Z"/>
          <path class="cls-2" d="M62.28351,102.36339c3.80159,8.089,8.44669,20.3736,12.27819,37.7004H78.51c-3.98249-18.294-8.8857-31.2126-12.88649-39.6636C59.1408,86.70729,53.5883,81.36979,53.3552,81.14929a1.92914,1.92914,0,0,0-2.6548,2.7997C50.7536,83.99989,56.0922,89.18929,62.28351,102.36339Z"/>
          <path class="cls-1" d="M88.3902,140.06379h3.8924c-6.0884-45.7545-11.1996-67.295-11.2605-67.5482a1.92911,1.92911,0,0,0-3.7512.9024C77.3312,73.66859,82.3654,94.90579,88.3902,140.06379Z"/>
          <path class="cls-1" d="M92.077,75.74639a306.4953,306.4953,0,0,1,11.7016,64.3174H107.65a310.389,310.389,0,0,0-11.9304-65.6004c-6.2485-20.5509-12.3397-31.1687-12.5959-31.6108a1.92921,1.92921,0,0,0-3.3379,1.9354C79.8739,44.94079,85.97051,55.613,92.077,75.74639Z"/>
          <path class="cls-1" d="M119.4806,140.06379c1.3371-34.9013,10.1558-60.6173,17.7256-76.5674,9.0254-19.0174,18.1732-28.4985,18.2646-28.5921a1.92905,1.92905,0,0,0-2.7604-2.6954c-.3914.4007-9.6912,10.0401-18.9897,29.6332a182.37545,182.37545,0,0,0-12.7883,37.1876,219.30186,219.30186,0,0,0-5.2958,41.0341Z"/>
          <path class="cls-2" d="M119.4266,140.06379c.9548-32.4836,7.3787-49.1384,12.9117-57.5166,6.4727-9.8008,13.0425-10.4557,13.108-10.4611a1.91976,1.91976,0,0,0,1.7984-2.0413,1.94128,1.94128,0,0,0-2.0528-1.8084c-1.183.0715-27.6442,2.5162-29.6275,71.8274Z"/>
          <path class="cls-1" d="M127.587,140.06379c4.168-26.2844,15.7011-42.1365,25.7602-51.2632,13.68131-12.4133,27.5075-15.3888,27.6455-15.4174a1.92911,1.92911,0,1,0-.7827-3.778c-.6059.1255-15.0026,3.2249-29.4554,16.338a80.89292,80.89292,0,0,0-19.9505,28.3642,105.44969,105.44969,0,0,0-7.1489,25.7564Z"/>
          <path class="cls-1" d="M126.7,140.06379c2.1094-23.5909,8.4284-32.2631,13.9511-35.1643,7.3411-3.8559,15.2399,1.5923,15.319,1.6477a1.92907,1.92907,0,0,0,2.2301-3.1483c-.3979-.283-9.8585-6.8681-19.3079-1.9335-8.8484,4.6205-14.2252,17.5767-16.0639,38.5984Z"/>
          <path class="cls-2" d="M107.0953,55.97719a791.85585,791.85585,0,0,1-.4344,84.0866h3.8641a795.05747,795.05747,0,0,0,.4177-84.3926c-1.3239-24.9743-3.6369-38.428-3.66019-38.5611a1.92906,1.92906,0,0,0-3.80071.6631C103.5047,17.90459,105.786,31.19929,107.0953,55.97719Z"/>
          <g>
            <g>
              <g>
                <path class="cls-3" d="M111.7741,101.84449c3.0395,3.0395,9.4185,4.0817,9.4185,4.0817s-1.0423-6.3789-4.0817-9.4185c-3.0396-3.0395-5.6129-3.2234-7.0866-1.7497S108.73451,98.805,111.7741,101.84449Z"/>
                <path class="cls-3" d="M130.6111,110.008c-3.03959-3.0395-9.4185-4.0818-9.4185-4.0818s1.0422,6.379,4.0817,9.4185,5.6128,3.2235,7.0865,1.7498S133.6506,113.04749,130.6111,110.008Z"/>
              </g>
              <g>
                <path class="cls-3" d="M117.1109,115.34469c3.0394-3.0395,4.0817-9.4185,4.0817-9.4185s-6.379,1.0423-9.4185,4.0818-3.2235,5.6128-1.7498,7.0865S114.0713,118.38429,117.1109,115.34469Z"/>
                <path class="cls-3" d="M125.2743,96.50769c-3.0395,3.0396-4.0817,9.4185-4.0817,9.4185s6.37891-1.0422,9.4185-4.0817,3.2235-5.6128,1.7497-7.0865S128.3138,93.46819,125.2743,96.50769Z"/>
              </g>
            </g>
            <g>
              <g>
                <path class="cls-4" d="M116.5391,94.15459c0,5.3007,4.6535,11.7716,4.6535,11.7716s4.6534-6.4709,4.6534-11.7716-2.0834-7.7048-4.6534-7.7048S116.5391,88.85389,116.5391,94.15459Z"/>
                <path class="cls-4" d="M125.846,117.69789c0-5.3007-4.6534-11.7717-4.6534-11.7717s-4.6535,6.471-4.6535,11.7717,2.08341,7.7048,4.6535,7.7048S125.846,122.99859,125.846,117.69789Z"/>
              </g>
              <g>
                <path class="cls-4" d="M109.4209,110.57969c5.3007,0,11.7717-4.6535,11.7717-4.6535s-6.471-4.6534-11.7717-4.6534-7.7048,2.0834-7.7048,4.6534S104.1202,110.57969,109.4209,110.57969Z"/>
                <path class="cls-4" d="M132.9642,101.27279c-5.30069,0-11.7716,4.6534-11.7716,4.6534s6.47091,4.6535,11.7716,4.6535,7.7048-2.0834,7.7048-4.6535S138.2649,101.27279,132.9642,101.27279Z"/>
              </g>
            </g>
            <path class="cls-5" d="M114.9876,105.92619a6.205,6.205,0,1,0,6.205-6.2049A6.205,6.205,0,0,0,114.9876,105.92619Z"/>
          </g>
          <g>
            <g>
              <g>
                <path class="cls-3" d="M102.88151,67.57339c2.33819,2.1729,7.10009,2.7728,7.10009,2.7728s-.9468-4.7052-3.28509-6.8781c-2.33811-2.1728-4.25261-2.2394-5.30611-1.1058C100.3368,63.49609,100.5433,65.40059,102.88151,67.57339Z"/>
                <path class="cls-3" d="M117.0817,73.11879c-2.3383-2.1729-7.1001-2.7726-7.1001-2.7726s.9468,4.7052,3.2851,6.878c2.3381,2.1727,4.2526,2.2393,5.3061,1.1057S119.4198,75.29159,117.0817,73.11879Z"/>
              </g>
              <g>
                <path class="cls-3" d="M107.2088,77.44609c2.1729-2.3381,2.7728-7.0999,2.7728-7.0999s-4.7052.9468-6.87809,3.2849c-2.17281,2.3383-2.23931,4.2528-1.10561,5.3063S105.0361,79.78439,107.2088,77.44609Z"/>
                <path class="cls-3" d="M112.7543,63.246c-2.17279,2.3382-2.7727,7.1002-2.7727,7.1002s4.7052-.947,6.878-3.2851,2.2393-4.2528,1.1057-5.3062S114.9271,60.90789,112.7543,63.246Z"/>
              </g>
            </g>
            <g>
              <g>
                <path class="cls-4" d="M106.2083,61.73749c.1441,3.9333,3.7733,8.6087,3.7733,8.6087s3.2771-4.9284,3.13291-8.8618-1.75551-5.6609-3.66261-5.5909S106.0642,57.80409,106.2083,61.73749Z"/>
                <path class="cls-4" d="M113.7549,78.95469c-.1442-3.9333-3.7733-8.6085-3.7733-8.6085s-3.2772,4.9283-3.1329,8.8616c.1441,3.9335,1.7555,5.6608,3.6626,5.5909S113.899,82.88809,113.7549,78.95469Z"/>
              </g>
              <g>
                <path class="cls-4" d="M101.373,74.11939c3.9334-.1442,8.6086-3.7732,8.6086-3.7732s-4.9283-3.2772-8.8618-3.1331c-3.93329.1443-5.6607,1.7557-5.5908,3.6628S97.4396,74.26349,101.373,74.11939Z"/>
                <path class="cls-4" d="M118.5902,66.57289c-3.9334.1441-8.6086,3.7733-8.6086,3.7733s4.9283,3.277,8.8618,3.1329c3.9333-.1441,5.6607-1.7557,5.5908-3.6627S122.5236,66.42859,118.5902,66.57289Z"/>
              </g>
            </g>
            <path class="cls-5" d="M105.3772,70.51489a4.60744,4.60744,0,1,0,4.4356-4.7732A4.60752,4.60752,0,0,0,105.3772,70.51489Z"/>
          </g>
          <g>
            <g>
              <g>
                <path class="cls-3" d="M97.548,21.87929c3.61-1.2545,6.9158-5.9548,6.9158-5.9548s-5.5081-1.6379-9.1181-.3836-4.7544,3.2422-4.14619,4.9925S93.938,23.13359,97.548,21.87929Z"/>
                <path class="cls-3" d="M111.37951,9.96959c-3.60991,1.2545-6.91571,5.9549-6.91571,5.9549s5.5081,1.6379,9.1181.3836,4.7543-3.2422,4.1462-4.9925S114.98951,8.71529,111.37951,9.96959Z"/>
              </g>
              <g>
                <path class="cls-3" d="M110.41851,22.84029c-1.25431-3.61-5.95471-6.9158-5.95471-6.9158s-1.6379,5.5081-.3836,9.1181,3.2421,4.7544,4.9924,4.1462S111.6729,26.45019,110.41851,22.84029Z"/>
                <path class="cls-3" d="M98.509,9.00859c1.2543,3.61,5.9548,6.9159,5.9548,6.9159s1.6379-5.5082.3836-9.1182-3.2422-4.7543-4.9925-4.1461S97.2547,5.39879,98.509,9.00859Z"/>
              </g>
            </g>
            <g>
              <g>
                <path class="cls-4" d="M93.2412,15.08659c4.2415,2.0539,11.2226.8379,11.2226.8379s-3.3747-6.231-7.6162-8.2851-6.9725-1.3186-7.9684.7379S88.9997,13.03249,93.2412,15.08659Z"/>
                <path class="cls-4" d="M115.6864,16.76239c-4.2416-2.0539-11.2226-.8379-11.2226-.8379s3.37471,6.231,7.616,8.285c4.2415,2.0541,6.9726,1.3186,7.9685-.7378S119.9277,18.81639,115.6864,16.76239Z"/>
              </g>
              <g>
                <path class="cls-4" d="M103.6259,27.147c2.0539-4.2415.8379-11.2225.8379-11.2225s-6.231,3.3746-8.2851,7.616-1.3186,6.9726.7379,7.9686C98.9731,32.50489,101.5718,31.38839,103.6259,27.147Z"/>
                <path class="cls-4" d="M105.3017,4.70189c-2.054,4.2415-.8379,11.2226-.8379,11.2226s6.231-3.3747,8.2851-7.6162,1.3184-6.9725-.738-7.9684S107.3558.46049,105.3017,4.70189Z"/>
              </g>
            </g>
            <path class="cls-5" d="M102.0594,20.88949A5.5166,5.5166,0,1,0,99.4988,13.52,5.51658,5.51658,0,0,0,102.0594,20.88949Z"/>
          </g>
          <g>
            <g>
              <g>
                <path class="cls-3" d="M72.4849,69.26249c2.024,2.4682,6.6615,3.7044,6.6615,3.7044s-.30389-4.7898-2.3278-7.258-3.912-2.7922-5.1088-1.811C70.5131,64.87929,70.461,66.79429,72.4849,69.26249Z"/>
                <path class="cls-3" d="M85.808,76.67129c-2.0239-2.4682-6.6616-3.7044-6.6616-3.7044s.30411,4.7898,2.328,7.258,3.912,2.7922,5.1087,1.811C87.7798,81.05449,87.832,79.13949,85.808,76.67129Z"/>
              </g>
              <g>
                <path class="cls-3" d="M75.442,79.62839c2.4682-2.0239,3.7044-6.6615,3.7044-6.6615s-4.7898.3039-7.258,2.328c-2.4682,2.0239-2.7922,3.912-1.8108,5.1086C71.0588,81.60019,72.9738,81.65229,75.442,79.62839Z"/>
                <path class="cls-3" d="M82.851,66.30539c-2.4682,2.0239-3.7046,6.6615-3.7046,6.6615s4.79-.304,7.2582-2.328,2.7922-3.912,1.8108-5.1087S85.3192,64.28139,82.851,66.30539Z"/>
              </g>
            </g>
            <g>
              <g>
                <path class="cls-4" d="M76.568,63.92819c-.3873,3.917,2.5784,9.0387,2.5784,9.0387s3.9116-4.4416,4.299-8.3586c.3873-3.9168-.9766-5.8458-2.8756-6.0336S76.95551,60.01129,76.568,63.92819Z"/>
                <path class="cls-4" d="M81.7248,82.00559c.3875-3.917-2.5784-9.0387-2.5784-9.0387s-3.9115,4.4416-4.2988,8.3586c-.3874,3.9168.9765,5.8457,2.8756,6.0336C79.6223,87.54679,81.33751,85.92249,81.7248,82.00559Z"/>
              </g>
              <g>
                <path class="cls-4" d="M70.1078,75.54529c3.9169.3874,9.0386-2.5784,9.0386-2.5784s-4.4416-3.9115-8.3584-4.299c-3.917-.3873-5.8458.9766-6.0336,2.8757S66.1909,75.158,70.1078,75.54529Z"/>
                <path class="cls-4" d="M88.1851,70.38849c-3.9169-.3874-9.0387,2.5784-9.0387,2.5784s4.4416,3.9115,8.3586,4.2988c3.917.3875,5.8458-.9764,6.0336-2.8755S92.1021,70.77579,88.1851,70.38849Z"/>
              </g>
            </g>
            <path class="cls-5" d="M74.5614,72.51339a4.60747,4.60747,0,1,0,5.0385-4.1316A4.60739,4.60739,0,0,0,74.5614,72.51339Z"/>
          </g>
          <g>
            <g>
              <g>
                <path class="cls-3" d="M70.1577,106.49569c3.4916,1.1238,8.7404-.5695,8.7404-.5695s-3.2757-4.4371-6.7673-5.5608c-3.4915-1.1239-5.5168-.2612-6.0617,1.4316S66.6662,105.37189,70.1577,106.49569Z"/>
                <path class="cls-3" d="M87.63851,105.35679c-3.49141-1.1239-8.74041.5694-8.74041.5694s3.2758,4.4372,6.7673,5.5609c3.4916,1.1239,5.5168.2612,6.0618-1.4317S91.1301,106.48049,87.63851,105.35679Z"/>
              </g>
              <g>
                <path class="cls-3" d="M79.4676,114.66659c1.12391-3.4914-.5695-8.7404-.5695-8.7404s-4.437,3.2758-5.5608,6.7673-.2613,5.5168,1.4317,6.0618C76.4618,119.30019,78.3439,118.15819,79.4676,114.66659Z"/>
                <path class="cls-3" d="M78.3287,97.18569c-1.1238,3.4916.5694,8.7405.5694,8.7405s4.4372-3.2757,5.5609-6.7672c1.1239-3.4916.2612-5.5168-1.4316-6.0618S79.45251,93.69429,78.3287,97.18569Z"/>
              </g>
            </g>
            <g>
              <g>
                <path class="cls-4" d="M70.7803,98.80149c2.0645,4.0243,8.1178,7.1247,8.1178,7.1247s1.0127-6.7253-1.0518-10.7495c-2.0646-4.0244-4.58279-5.0383-6.534-4.0373S68.7158,94.77719,70.7803,98.80149Z"/>
                <path class="cls-4" d="M87.016,113.05089c-2.06449-4.0244-8.1179-7.1247-8.1179-7.1247s-1.01259,6.7253,1.0519,10.7496c2.0647,4.0244,4.5828,5.0383,6.534,4.0373S89.08051,117.07529,87.016,113.05089Z"/>
              </g>
              <g>
                <path class="cls-4" d="M71.77351,114.04409c4.02419-2.0645,7.12459-8.1179,7.12459-8.1179s-6.7252-1.0126-10.7495,1.0519-5.0383,4.5828-4.0372,6.534C65.1123,115.46329,67.7491,116.10859,71.77351,114.04409Z"/>
                <path class="cls-4" d="M86.0229,97.80839c-4.02439,2.0645-7.1248,8.1178-7.1248,8.1178s6.72541,1.0127,10.7496-1.0518c4.0244-2.0647,5.0383-4.5828,4.0373-6.534S90.0473,95.74389,86.0229,97.80839Z"/>
              </g>
            </g>
            <path class="cls-5" d="M74.1873,108.34289a5.2946,5.2946,0,1,0,2.29421-7.1275A5.29469,5.29469,0,0,0,74.1873,108.34289Z"/>
          </g>
          <g>
            <g>
              <g>
                <path class="cls-3" d="M74.1199,44.29819c2.93.943,7.3349-.4779,7.3349-.4779s-2.749-3.7235-5.679-4.6667c-2.93-.943-4.6297-.2191-5.0868,1.2015C70.2317,41.77569,71.1899,43.35509,74.1199,44.29819Z"/>
                <path class="cls-3" d="M88.7896,43.34239c-2.93-.9431-7.3348.4779-7.3348.4779s2.7489,3.7235,5.6789,4.6666,4.6297.2191,5.0869-1.2014C92.6778,45.86479,91.7196,44.28539,88.7896,43.34239Z"/>
              </g>
              <g>
                <path class="cls-3" d="M81.9327,51.155c.943-2.93-.4779-7.3347-.4779-7.3347s-3.7236,2.7489-4.6666,5.6789-.2193,4.6296,1.2014,5.0869C79.4101,55.04339,80.98951,54.085,81.9327,51.155Z"/>
                <path class="cls-3" d="M80.9768,36.48549c-.9431,2.93.478,7.3348.478,7.3348s3.7235-2.7489,4.6665-5.6789.2193-4.6297-1.2014-5.087C83.4994,32.59719,81.92,33.55549,80.9768,36.48549Z"/>
              </g>
            </g>
            <g>
              <g>
                <path class="cls-4" d="M74.6424,37.84129c1.7326,3.3772,6.8124,5.979,6.8124,5.979s.84971-5.6437-.8828-9.0209-3.8457-4.2279-5.4831-3.388C73.4514,32.25149,72.9099,34.46429,74.6424,37.84129Z"/>
                <path class="cls-4" d="M88.2671,49.79919c-1.73259-3.3772-6.8123-5.9789-6.8123-5.9789s-.8498,5.6437.88271,9.0209,3.84569,4.2278,5.48309,3.3879S89.9996,53.17629,88.2671,49.79919Z"/>
              </g>
              <g>
                <path class="cls-4" d="M75.4759,50.63259c3.3771-1.7325,5.9789-6.8123,5.9789-6.8123s-5.6438-.8499-9.0209.8827-4.228,3.8458-3.3879,5.4831S72.0987,52.36519,75.4759,50.63259Z"/>
                <path class="cls-4" d="M87.4336,37.008c-3.37709,1.7325-5.9788,6.8123-5.9788,6.8123s5.64371.8498,9.0208-.8828,4.228-3.8457,3.38791-5.4831C93.0236,35.817,90.8108,35.27549,87.4336,37.008Z"/>
              </g>
            </g>
            <path class="cls-5" d="M77.50151,45.84829A4.4431,4.4431,0,1,0,79.4267,39.867,4.443,4.443,0,0,0,77.50151,45.84829Z"/>
          </g>
          <g>
            <g>
              <g>
                <path class="cls-3" d="M45.5583,79.06579c1.9836,2.3536,6.4714,3.4853,6.4714,3.4853s-.3553-4.6146-2.339-6.9681c-1.9838-2.3537-3.8085-2.6415-4.9497-1.6797S43.5746,76.71229,45.5583,79.06579Z"/>
                <path class="cls-3" d="M58.5013,86.03639c-1.9837-2.3536-6.4716-3.4853-6.4716-3.4853s.3555,4.6147,2.3392,6.9682,3.8085,2.6414,4.9497,1.6796S60.485,88.39,58.5013,86.03639Z"/>
              </g>
              <g>
                <path class="cls-3" d="M48.5446,89.02259c2.3535-1.9836,3.4851-6.4715,3.4851-6.4715s-4.6146.3555-6.96819,2.3391-2.64131,3.8085-1.67951,4.9496S46.1909,91.00629,48.5446,89.02259Z"/>
                <path class="cls-3" d="M55.515,76.07959c-2.35349,1.9837-3.4853,6.4715-3.4853,6.4715s4.6147-.3554,6.9684-2.339c2.3535-1.9838,2.6413-3.8085,1.6795-4.9497S57.8687,74.096,55.515,76.07959Z"/>
              </g>
            </g>
            <g>
              <g>
                <path class="cls-4" d="M49.426,73.86919c-.3227,3.782,2.6037,8.6819,2.6037,8.6819s3.714-4.3336,4.0365-8.1156c.3225-3.7818-1.01769-5.624-2.8513-5.7803S49.74851,70.08739,49.426,73.86919Z"/>
                <path class="cls-4" d="M54.6336,91.23309c.3225-3.782-2.6039-8.682-2.6039-8.682s-3.7138,4.3337-4.0363,8.1157c-.3225,3.7818,1.0177,5.624,2.8513,5.7803S54.3111,95.01489,54.6336,91.23309Z"/>
              </g>
              <g>
                <path class="cls-4" d="M43.348,85.155c3.7818.3225,8.6817-2.6039,8.6817-2.6039s-4.3336-3.7139-8.1155-4.0364-5.624,1.0176-5.7804,2.8514C37.97751,83.19969,39.566,84.83249,43.348,85.155Z"/>
                <path class="cls-4" d="M60.7116,79.94729c-3.7818-.3225-8.6819,2.6038-8.6819,2.6038s4.33381,3.7138,8.1157,4.0364,5.624-1.0177,5.7804-2.8513S64.4936,80.26979,60.7116,79.94729Z"/>
              </g>
            </g>
            <path class="cls-5" d="M47.6027,82.17359a4.44317,4.44317,0,1,0,4.8046-4.0495A4.44325,4.44325,0,0,0,47.6027,82.17359Z"/>
          </g>
          <g>
            <g>
              <g>
                <path class="cls-3" d="M174.8403,67.87959c1.9836,2.3535,6.4714,3.4853,6.4714,3.4853s-.3553-4.6147-2.3391-6.9682-3.8084-2.6414-4.9496-1.6796S172.8566,65.526,174.8403,67.87959Z"/>
                <path class="cls-3" d="M187.7833,74.85019c-1.98379-2.3536-6.4716-3.4853-6.4716-3.4853s.3555,4.6146,2.3392,6.9682,3.8085,2.6415,4.9497,1.6797C189.7416,79.051,189.767,77.20369,187.7833,74.85019Z"/>
              </g>
              <g>
                <path class="cls-3" d="M177.8264,77.83639c2.3537-1.9837,3.4853-6.4715,3.4853-6.4715s-4.6146.3555-6.96819,2.3391-2.64131,3.8084-1.67951,4.9496S175.4729,79.82,177.8264,77.83639Z"/>
                <path class="cls-3" d="M184.797,64.89329c-2.35349,1.9838-3.4853,6.4716-3.4853,6.4716s4.6147-.3555,6.9683-2.3391,2.6414-3.8085,1.6796-4.9496S187.1507,62.90969,184.797,64.89329Z"/>
              </g>
            </g>
            <g>
              <g>
                <path class="cls-4" d="M178.7078,62.683c-.3225,3.7819,2.6039,8.6819,2.6039,8.6819s3.7139-4.3337,4.0365-8.1156-1.01769-5.624-2.8514-5.7803C180.6632,57.31249,179.03051,58.90109,178.7078,62.683Z"/>
                <path class="cls-4" d="M183.9156,80.04679c.3225-3.782-2.6039-8.6819-2.6039-8.6819s-3.7138,4.3336-4.0363,8.1156c-.3225,3.7818,1.0176,5.624,2.8512,5.7803C181.9604,85.41729,183.5931,83.82859,183.9156,80.04679Z"/>
              </g>
              <g>
                <path class="cls-4" d="M172.6299,73.96869c3.7819.3226,8.6818-2.6038,8.6818-2.6038s-4.3336-3.7138-8.1155-4.0363-5.624,1.0176-5.7804,2.8512S168.848,73.64619,172.6299,73.96869Z"/>
                <path class="cls-4" d="M189.9936,68.761c-3.7818-.3225-8.6819,2.6039-8.6819,2.6039s4.33381,3.7138,8.1156,4.0364,5.624-1.0176,5.7805-2.8513C195.3641,70.71639,193.7756,69.08349,189.9936,68.761Z"/>
              </g>
            </g>
            <path class="cls-5" d="M176.8847,70.98729a4.44317,4.44317,0,1,0,4.8046-4.0494A4.44317,4.44317,0,0,0,176.8847,70.98729Z"/>
          </g>
          <g>
            <g>
              <g>
                <path class="cls-3" d="M113.5443,39.23489c1.9837,2.3536,6.4716,3.4853,6.4716,3.4853s-.3555-4.6146-2.3392-6.9681c-1.9837-2.3537-3.8085-2.6415-4.9497-1.6797S111.5606,36.88139,113.5443,39.23489Z"/>
                <path class="cls-3" d="M126.4873,46.20549c-1.9836-2.3536-6.4714-3.4853-6.4714-3.4853s.3553,4.6147,2.339,6.9682,3.8085,2.6414,4.9497,1.6796S128.471,48.55909,126.4873,46.20549Z"/>
              </g>
              <g>
                <path class="cls-3" d="M116.5306,49.19169c2.3535-1.9836,3.4853-6.4715,3.4853-6.4715s-4.6147.3555-6.96839,2.3391c-2.35351,1.9838-2.64131,3.8085-1.67951,4.9496S114.1769,51.17539,116.5306,49.19169Z"/>
                <path class="cls-3" d="M123.501,36.24869c-2.35349,1.9837-3.4851,6.4715-3.4851,6.4715s4.6145-.3554,6.9681-2.3392c2.3536-1.9836,2.6414-3.8084,1.6796-4.9495S125.8547,34.26509,123.501,36.24869Z"/>
              </g>
            </g>
            <g>
              <g>
                <path class="cls-4" d="M117.412,34.03829c-.32249,3.7819,2.6039,8.6819,2.6039,8.6819s3.7138-4.3336,4.0363-8.1156c.3225-3.7818-1.01769-5.624-2.8513-5.7803S117.73451,30.25649,117.412,34.03829Z"/>
                <path class="cls-4" d="M122.6196,51.40219c.3225-3.782-2.6037-8.682-2.6037-8.682s-3.714,4.3337-4.0365,8.1155c-.3225,3.782,1.0177,5.624,2.8512,5.7805C120.6644,56.77259,122.2971,55.184,122.6196,51.40219Z"/>
              </g>
              <g>
                <path class="cls-4" d="M111.3339,45.32409c3.7819.3225,8.682-2.6039,8.682-2.6039s-4.3338-3.7139-8.1157-4.0364-5.624,1.0176-5.7804,2.8514C105.96351,43.36879,107.552,45.00159,111.3339,45.32409Z"/>
                <path class="cls-4" d="M128.6976,40.11639c-3.7818-.3225-8.6817,2.6038-8.6817,2.6038s4.33361,3.7138,8.1154,4.0364c3.782.3225,5.624-1.0177,5.7805-2.8513C134.0681,42.07159,132.4796,40.43889,128.6976,40.11639Z"/>
              </g>
            </g>
            <path class="cls-5" d="M115.5887,42.34269a4.44317,4.44317,0,1,0,4.8046-4.0495A4.44332,4.44332,0,0,0,115.5887,42.34269Z"/>
          </g>
          <g>
            <g>
              <g>
                <path class="cls-3" d="M146.869,36.20609c3.0079.6529,7.2533-1.1904,7.2533-1.1904s-3.09879-3.4379-6.1067-4.091-4.629.2331-4.9456,1.6915S143.861,35.553,146.869,36.20609Z"/>
                <path class="cls-3" d="M161.3756,33.82519c-3.0079-.653-7.2533,1.1905-7.2533,1.1905s3.0988,3.4379,6.1067,4.0909,4.629-.233,4.9456-1.6915S164.3836,34.47829,161.3756,33.82519Z"/>
              </g>
              <g>
                <path class="cls-3" d="M155.3127,42.269c.6531-3.0081-1.1904-7.2533-1.1904-7.2533s-3.4379,3.0987-4.091,6.1067.2331,4.6288,1.6915,4.9456C153.1813,46.38459,154.6597,45.277,155.3127,42.269Z"/>
                <path class="cls-3" d="M152.9319,27.76229c-.6531,3.008,1.1904,7.2534,1.1904,7.2534s3.4379-3.0988,4.091-6.1067-.2331-4.629-1.6915-4.9456S153.5849,24.75439,152.9319,27.76229Z"/>
              </g>
            </g>
            <g>
              <g>
                <path class="cls-4" d="M146.7598,29.72909c2.0534,3.1922,7.3625,5.2866,7.3625,5.2866s.2957-5.6997-1.7577-8.892-4.2395-3.833-5.78709-2.8374C145.0297,24.28189,144.7064,26.53679,146.7598,29.72909Z"/>
                <path class="cls-4" d="M161.4848,40.30219c-2.0534-3.1922-7.3625-5.2865-7.3625-5.2865s-.2957,5.6996,1.7576,8.8919c2.0534,3.1921,4.2394,3.833,5.7872,2.8374S163.5382,43.49439,161.4848,40.30219Z"/>
              </g>
              <g>
                <path class="cls-4" d="M148.8357,42.37819c3.1922-2.0534,5.2866-7.3625,5.2866-7.3625s-5.6997-.2958-8.8919,1.7576-3.833,4.2394-2.8375,5.7872S145.6434,44.43159,148.8357,42.37819Z"/>
                <path class="cls-4" d="M159.4089,27.653c-3.1922,2.0534-5.2866,7.3627-5.2866,7.3627s5.6997.2957,8.8919-1.7577,3.833-4.2395,2.8375-5.7872S162.6012,25.59969,159.4089,27.653Z"/>
              </g>
            </g>
            <path class="cls-5" d="M150.38551,37.41929a4.4431,4.4431,0,1,0,1.33319-6.1405A4.44295,4.44295,0,0,0,150.38551,37.41929Z"/>
          </g>
          <g>
            <g>
              <g>
                <path class="cls-3" d="M149.7936,101.04579c2.2345,2.651,7.2896,3.9258,7.2896,3.9258s-.4003-5.1979-2.6348-7.8491-4.29-2.9754-5.5753-1.892S147.5591,98.39459,149.7936,101.04579Z"/>
                <path class="cls-3" d="M164.3729,108.89759c-2.2345-2.6512-7.2897-3.926-7.2897-3.926s.4005,5.1981,2.635,7.8492,4.2898,2.9753,5.5752,1.8919S166.6073,111.54869,164.3729,108.89759Z"/>
              </g>
              <g>
                <path class="cls-3" d="M153.1574,112.26119c2.6512-2.2344,3.9258-7.2896,3.9258-7.2896s-5.1979.4003-7.8491,2.6348-2.9754,4.29-1.8919,5.5754S150.5063,114.49569,153.1574,112.26119Z"/>
                <path class="cls-3" d="M161.0092,97.682c-2.6512,2.2344-3.926,7.2896-3.926,7.2896s5.1981-.4003,7.84931-2.6348,2.97519-4.29,1.892-5.5754C165.741,95.476,163.6603,95.44749,161.0092,97.682Z"/>
              </g>
            </g>
            <g>
              <g>
                <path class="cls-4" d="M154.1503,95.19219c-.3634,4.26,2.9329,9.7794,2.9329,9.7794s4.1834-4.8816,4.5468-9.1416c.3632-4.26-1.1464-6.3349-3.2118-6.511S154.51351,90.93219,154.1503,95.19219Z"/>
                <path class="cls-4" d="M160.0163,114.75109c.3633-4.26-2.9331-9.7795-2.9331-9.7795s-4.1832,4.8816-4.5466,9.1416c-.3632,4.26,1.1464,6.3351,3.2118,6.5112S159.6529,119.01109,160.0163,114.75109Z"/>
              </g>
              <g>
                <path class="cls-4" d="M147.3039,107.90469c4.2599.3632,9.7793-2.9331,9.7793-2.9331s-4.8814-4.1834-9.1415-4.5466c-4.26-.3634-6.335,1.1462-6.5111,3.2118C141.25451,105.70219,143.0439,107.54129,147.3039,107.90469Z"/>
                <path class="cls-4" d="M166.8628,102.03869c-4.26-.3634-9.7796,2.9329-9.7796,2.9329s4.8816,4.1834,9.1416,4.5468c4.26.3632,6.3351-1.1464,6.5112-3.2118S171.1227,102.40189,166.8628,102.03869Z"/>
              </g>
            </g>
            <path class="cls-5" d="M152.0966,104.54639a5.0048,5.0048,0,1,0,5.412-4.5615A5.00475,5.00475,0,0,0,152.0966,104.54639Z"/>
          </g>
          <g>
            <g>
              <g>
                <path class="cls-3" d="M136.568,70.73149c3.49151,1.1237,8.74051-.5695,8.74051-.5695s-3.27591-4.4371-6.76731-5.5609c-3.4916-1.1239-5.5169-.2612-6.06169,1.4316C131.93451,67.72559,133.0764,69.60759,136.568,70.73149Z"/>
                <path class="cls-3" d="M154.0489,69.59249c-3.4916-1.1239-8.74039.5695-8.74039.5695s3.27559,4.4371,6.76719,5.5609,5.5169.2612,6.06181-1.4316C158.6823,72.59829,157.5404,70.71639,154.0489,69.59249Z"/>
              </g>
              <g>
                <path class="cls-3" d="M145.8778,78.90239c1.1239-3.4916-.56929-8.7404-.56929-8.7404s-4.43721,3.2757-5.561,6.7673c-1.12381,3.4914-.26111,5.5168,1.43169,6.0617S144.7541,82.39389,145.8778,78.90239Z"/>
                <path class="cls-3" d="M144.739,61.42159c-1.1239,3.4914.56951,8.7404.56951,8.7404s4.437-3.2758,5.56079-6.7673.2613-5.5168-1.4317-6.0617C147.7448,56.78819,145.8627,57.93,144.739,61.42159Z"/>
              </g>
            </g>
            <g>
              <g>
                <path class="cls-4" d="M137.1906,63.03719c2.0646,4.0244,8.11791,7.1248,8.11791,7.1248s1.01249-6.7252-1.052-10.7496-4.58281-5.0382-6.53391-4.0373C135.7714,56.37619,135.1261,59.013,137.1906,63.03719Z"/>
                <path class="cls-4" d="M153.4262,77.28679c-2.0645-4.0244-8.11769-7.1248-8.11769-7.1248s-1.01271,6.7252,1.05179,10.7496,4.5827,5.0382,6.5339,4.0371C154.8454,83.94779,155.4907,81.311,153.4262,77.28679Z"/>
              </g>
              <g>
                <path class="cls-4" d="M138.1837,78.27979c4.0244-2.0645,7.12481-8.1178,7.12481-8.1178s-6.72541-1.0127-10.74971,1.0519-5.0381,4.5827-4.0372,6.5339S134.1593,80.34439,138.1837,78.27979Z"/>
                <path class="cls-4" d="M152.4331,62.04409c-4.0243,2.0646-7.12459,8.1179-7.12459,8.1179s6.72519,1.0126,10.74959-1.0519c4.0242-2.0645,5.0381-4.5827,4.0371-6.5339S156.45751,59.97959,152.4331,62.04409Z"/>
              </g>
            </g>
            <path class="cls-5" d="M140.59751,72.57879a5.29466,5.29466,0,1,0,2.29419-7.1276A5.29463,5.29463,0,0,0,140.59751,72.57879Z"/>
          </g>
        </g>
        <path class="cls-2" d="M24.2348,135.08379a72.81085,72.81085,0,0,0,111.7808,0Z"/>
        <g>
          <g>
            <path class="cls-6" d="M84.85651,142.96369a.99164.99164,0,0,0,.86709-.5086l15.4102-27.608a.99189.99189,0,1,0-1.7322-.9669l-15.4102,27.6079a.99222.99222,0,0,0,.86511,1.4756Z"/>
            <path class="cls-6" d="M74.6203,142.96369a.9913.9913,0,0,0,.8668-.5086l15.41041-27.608a.9919.9919,0,1,0-1.73221-.9669l-15.4104,27.6079a.99235.99235,0,0,0,.8654,1.4756Z"/>
            <path class="cls-7" d="M46.3717,47.83089a19.23971,19.23971,0,0,1,34.8941-11.1882h0l54.7086,72.1991-12.8166,6.4683a88.4529,88.4529,0,0,1-39.8555,9.4875h0a36.663,36.663,0,0,1-25.9253-10.7387h-.0003A36.66382,36.66382,0,0,1,46.638,88.13359V51.03029l.00351-.0015A19.33231,19.33231,0,0,1,46.3717,47.83089Z"/>
            <path class="cls-8" d="M97.8871,119.102a37.99712,37.99712,0,0,0,24.1842-28.6082l13.9031,18.348-12.8166,6.4683a88.4529,88.4529,0,0,1-39.8555,9.4875h0c-.2757,0-.551-.0039-.826-.0101Z"/>
            <polygon class="cls-6" points="135.974 108.842 191.559 139.395 165.791 139.395 131.124 111.29 135.974 108.842"/>
            <path class="cls-9" d="M80.18151,66.38029h0a2.91325,2.91325,0,0,1-.34071-5.0023l13.2569-9.1207,42.8767,56.5845L94.0518,88.66859A12.42191,12.42191,0,0,1,87.0162,77.475h0A12.42246,12.42246,0,0,0,80.18151,66.38029Z"/>
            <path class="cls-6" d="M104.9547,84.08759a.99194.99194,0,0,0,.7897-1.5912L101.1,76.36609a.992.992,0,0,0-1.5811,1.1984l4.6444,6.1301A.98976.98976,0,0,0,104.9547,84.08759Z"/>
            <path class="cls-6" d="M102.6326,85.99559a.99194.99194,0,0,0,.7896-1.5912l-4.6449-6.1296a.99187.99187,0,0,0-1.581,1.1982l4.6448,6.1298A.99018.99018,0,0,0,102.6326,85.99559Z"/>
            <path class="cls-6" d="M100.3103,87.90409a.99194.99194,0,0,0,.7897-1.5912l-4.6449-6.1296a.992.992,0,0,0-1.5811,1.1985l4.6449,6.1295A.99014.99014,0,0,0,100.3103,87.90409Z"/>
            <path class="cls-6" d="M97.9877,89.81229a.99219.99219,0,0,0,.7896-1.5914l-4.6451-6.1296a.992.992,0,0,0-1.5811,1.1985l4.6452,6.1295A.98992.98992,0,0,0,97.9877,89.81229Z"/>
            <path class="cls-6" d="M65.6147,28.58809a19.21336,19.21336,0,0,1,15.6511,8.0546l11.8319,15.6146h0l-7.152,4.9205-11.3328-7.7335a19.6903,19.6903,0,0,0-11.0982-3.426h-.0003a19.68914,19.68914,0,0,0-13.9223,5.7669L46.638,54.739v-3.7087l.00351-.0015A19.23063,19.23063,0,0,1,65.6147,28.58809Z"/>
            <path class="cls-10" d="M58.0128,41.19589a3.8493,3.8493,0,1,0,3.8493-3.8496A3.84925,3.84925,0,0,0,58.0128,41.19589Z"/>
            <path class="cls-6" d="M59.2739,41.19589a2.58831,2.58831,0,1,0,2.5882-2.5885A2.58817,2.58817,0,0,0,59.2739,41.19589Z"/>
            <path class="cls-8" d="M49.7664,36.91979a19.182,19.182,0,0,0-2.0493,3.8444l-.0101.0098-1.8263-1.5569a13.15952,13.15952,0,0,1-3.4056-4.4873v-.0003Z"/>
            <polygon class="cls-6" points="99.274 91.182 114.143 80.03 135.974 108.842 99.274 91.182"/>
            <g>
              <rect class="cls-10" x="116.46417" y="79.43637" width="0.93307" height="34.10463" transform="translate(-21.03051 159.33421) rotate(-64.01942)"/>
              <rect class="cls-10" x="115.74286" y="79.9266" width="0.93314" height="24.88173" transform="translate(-17.73068 156.37081) rotate(-64.01978)"/>
              <polygon class="cls-10" points="122.669 92.266 107.859 85.16 108.262 84.317 123.072 91.423 122.669 92.266"/>
              <rect class="cls-10" x="114.45081" y="80.1733" width="0.93388" height="8.00567" transform="translate(-11.4372 149.94954) rotate(-63.72141)"/>
            </g>
            <path class="cls-6" d="M61.8618,142.96369H93.0977a.9921.9921,0,0,0,0-1.9842H61.8618a.9921.9921,0,0,0,0,1.9842Z"/>
          </g>
          <path class="cls-2" d="M38.50551,45.131a.99274.99274,0,0,0,.90479-.5841c4.5515-10.0804,9.4614-9.3911,9.5095-9.3834a.99807.99807,0,0,0,1.1469-.7979.9844.9844,0,0,0-.7707-1.1503c-.2596-.0496-6.4264-1.1512-11.6943,10.5148a.993.993,0,0,0,.90381,1.4009Z"/>
          <path class="cls-6" d="M45.7258,32.11939,57.0861,30.578l-.0052.0057a19.32,19.32,0,0,0-7.5985,6.7626l-2.4457-.9487a10.11913,10.11913,0,0,0-6.7701-.1955A7.01627,7.01627,0,0,1,45.7258,32.11939Z"/>
          <path class="cls-11" d="M34.456,46.26359a5.06785,5.06785,0,1,0,5.068-5.0677A5.06789,5.06789,0,0,0,34.456,46.26359Z"/>
        </g>
        <g>
          <g>
            <path class="cls-8" d="M59.5971,79.69389a5.27137,5.27137,0,0,1-10.5371,0Z"/>
            <polygon class="cls-1" points="55.898 79.694 54.329 82.414 52.759 79.694 55.898 79.694"/>
          </g>
          <g>
            <path class="cls-8" d="M72.8886,79.69389a5.27137,5.27137,0,0,1-10.53709,0Z"/>
            <polygon class="cls-1" points="69.19 79.694 67.62 82.414 66.051 79.694 69.19 79.694"/>
          </g>
          <g>
            <path class="cls-8" d="M85.9612,79.69389a5.27137,5.27137,0,0,1-10.5371,0Z"/>
            <polygon class="cls-1" points="82.262 79.694 80.693 82.414 79.123 79.694 82.262 79.694"/>
          </g>
          <g>
            <path class="cls-8" d="M59.5971,93.70029a5.27137,5.27137,0,0,1-10.5371,0Z"/>
            <polygon class="cls-1" points="55.898 93.7 54.329 96.421 52.759 93.7 55.898 93.7"/>
          </g>
          <g>
            <path class="cls-8" d="M72.8886,93.70029a5.27137,5.27137,0,0,1-10.53709,0Z"/>
            <polygon class="cls-1" points="69.19 93.7 67.62 96.421 66.051 93.7 69.19 93.7"/>
          </g>
          <g>
            <path class="cls-8" d="M85.9612,93.70029a5.27137,5.27137,0,0,1-10.5371,0Z"/>
            <polygon class="cls-1" points="82.262 93.7 80.693 96.421 79.123 93.7 82.262 93.7"/>
          </g>
          <g>
            <path class="cls-8" d="M66.041,86.85269a5.27137,5.27137,0,0,1-10.5371,0Z"/>
            <polygon class="cls-1" points="62.342 86.853 60.773 89.573 59.203 86.853 62.342 86.853"/>
          </g>
          <g>
            <path class="cls-8" d="M79.1137,86.85269a5.27137,5.27137,0,0,1-10.5371,0Z"/>
            <polygon class="cls-1" points="75.415 86.853 73.845 89.573 72.276 86.853 75.415 86.853"/>
          </g>
          <g>
            <path class="cls-8" d="M66.041,72.29139a5.27137,5.27137,0,0,1-10.5371,0Z"/>
            <polygon class="cls-1" points="62.342 72.291 60.773 75.012 59.203 72.291 62.342 72.291"/>
          </g>
          <g>
            <path class="cls-8" d="M70.73151,66.60809a3.3467,3.3467,0,0,1-6.68981,0Z"/>
            <polygon class="cls-1" points="68.383 66.608 67.387 68.335 66.39 66.608 68.383 66.608"/>
          </g>
          <g>
            <path class="cls-8" d="M79.291,66.60809a3.34674,3.34674,0,0,1-6.6899,0Z"/>
            <polygon class="cls-1" points="76.943 66.608 75.946 68.335 74.95 66.608 76.943 66.608"/>
          </g>
          <g>
            <path class="cls-8" d="M62.1721,66.60809a3.34674,3.34674,0,0,1-6.6899,0Z"/>
            <polygon class="cls-1" points="59.824 66.608 58.827 68.335 57.831 66.608 59.824 66.608"/>
          </g>
          <g>
            <path class="cls-8" d="M70.73151,101.93529a3.3467,3.3467,0,0,1-6.68981,0Z"/>
            <polygon class="cls-1" points="68.383 101.935 67.387 103.663 66.39 101.935 68.383 101.935"/>
          </g>
          <g>
            <path class="cls-8" d="M80.0691,101.93529a3.34669,3.34669,0,0,1-6.6898,0Z"/>
            <polygon class="cls-1" points="77.721 101.935 76.724 103.663 75.728 101.935 77.721 101.935"/>
          </g>
          <g>
            <path class="cls-8" d="M88.3173,86.99519a3.34669,3.34669,0,0,1-6.68979,0Z"/>
            <polygon class="cls-1" points="85.969 86.995 84.972 88.722 83.976 86.995 85.969 86.995"/>
          </g>
          <g>
            <path class="cls-8" d="M53.6126,86.99519a3.34669,3.34669,0,0,1-6.6898,0Z"/>
            <polygon class="cls-1" points="51.264 86.995 50.268 88.722 49.271 86.995 51.264 86.995"/>
          </g>
          <g>
            <path class="cls-8" d="M53.6126,72.66219a3.34669,3.34669,0,0,1-6.6898,0Z"/>
            <polygon class="cls-1" points="51.264 72.662 50.268 74.389 49.271 72.662 51.264 72.662"/>
          </g>
          <g>
            <path class="cls-8" d="M62.3277,101.93529a3.34669,3.34669,0,0,1-6.6898,0Z"/>
            <polygon class="cls-1" points="59.979 101.935 58.983 103.663 57.986 101.935 59.979 101.935"/>
          </g>
          <g>
            <path class="cls-8" d="M79.1137,72.29139a5.27137,5.27137,0,0,1-10.5371,0Z"/>
            <polygon class="cls-1" points="75.415 72.291 73.845 75.012 72.276 72.291 75.415 72.291"/>
          </g>
        </g>
        <polygon class="cls-12" points="97.633 101.734 95.988 98.884 94.342 96.034 97.633 96.034 100.924 96.034 99.279 98.884 97.633 101.734"/>
        <polygon class="cls-12" points="97.633 111.305 95.988 108.455 94.342 105.605 97.633 105.605 100.924 105.605 99.279 108.455 97.633 111.305"/>
        <polygon class="cls-12" points="106.259 114.356 104.614 111.506 102.968 108.656 106.259 108.656 109.55 108.656 107.905 111.506 106.259 114.356"/>
        <polygon class="cls-12" points="90.397 116.441 88.751 113.591 87.106 110.741 90.397 110.741 93.688 110.741 92.042 113.591 90.397 116.441"/>
        <polygon class="cls-12" points="81.526 114.107 79.88 111.257 78.235 108.407 81.526 108.407 84.817 108.407 83.171 111.257 81.526 114.107"/>
        <polygon class="cls-12" points="83.393 123.211 81.748 120.361 80.102 117.511 83.393 117.511 86.684 117.511 85.039 120.361 83.393 123.211"/>
        <polygon class="cls-12" points="74.289 119.242 72.644 116.392 70.998 113.542 74.289 113.542 77.58 113.542 75.935 116.392 74.289 119.242"/>
        <polygon class="cls-12" points="67.053 114.107 65.407 111.257 63.762 108.407 67.053 108.407 70.344 108.407 68.698 111.257 67.053 114.107"/>
        <polygon class="cls-1" points="90.008 65.24 88.362 62.39 86.717 59.54 90.008 59.54 93.299 59.54 91.653 62.39 90.008 65.24"/>
        <polygon class="cls-12" points="89.93 106.403 88.284 103.553 86.639 100.703 89.93 100.703 93.221 100.703 91.575 103.553 89.93 106.403"/>
        <polygon class="cls-12" points="105.804 105.703 104.158 102.853 102.513 100.003 105.804 100.003 109.095 100.003 107.449 102.853 105.804 105.703"/>
      </g>
    </g>
  </g>
</svg>
