<svg xmlns="http://www.w3.org/2000/svg" width="33.19284" height="34.12974" viewBox="0 0 33.19284 34.12974">
  <defs>
    <style>
      .cls-1 {
        fill: #fff1e0;
      }

      .cls-1, .cls-2 {
        fill-rule: evenodd;
      }

      .cls-2 {
        fill: #473a27;
      }
    </style>
  </defs>
  <g id="图层_2" data-name="图层 2">
    <g id="Livello_1" data-name="Livello 1">
      <g>
        <path class="cls-1" d="M13.10251,15.59748l.25679-.1963c.1895-.0019.708.0176.7071-.1347-.002-.167-1.0323-.2256-1.0293.1377.0009.1269.0478.0039.06541.1933Zm2.00389,4.2657v.0322l-.0957.001v-.0323l.0957-.0009Zm8.6367.3408c.0713-.0996-.0215-.0518.1279-.0655-.06049.0821.0118.0635-.1279.0655Zm.4248-6.3819-.001-.0644.0967-.001.001.0645-.0967.0009Zm.9717,5.9346-.0176-.1123.1133.0137-.0957.0986Zm-4.6504.5371c-.0293.1201-.001.0899-.1269.1016v-.0606l.1269-.041Zm5.584,8.2315c-.0908.0009-.0596-.0127-.09769-.0635.09869-.001.13289-.0195.19439.0625l-.0967.001Zm-14.4766-8.5655-.0009-.0654.1611-.001v.0645l-.1602.0019Zm10.9366-5.2851c-.1182,0-.05469-.1192.0634-.1299-.0058.0625.002.1289-.0634.1299Zm-.3438,15.3681c.001.1426-.1348.0079-.1621-.0312.04-.0195.1611-.0752.1621.0312ZM9.4033,20.03888l.0986.042c-.0713.1016-.1309.1201-.23139.0479l.13279-.0899Zm14.8486-.3232-.1269.002c.0097-.1348.0244-.1514.166-.1622l-.0391.1602Zm-10.6992-.6758c-.002-.2344.3115.0684.001.0967l-.001-.0967Zm13.2344-.539a.88677.88677,0,0,1,.3525-.2286c-.0303.1153-.2373.2188-.3525.2286ZM7.51851,21.44618c.03219-.125.07129-.1582.22459-.1631-.0117.1494-.0713.1582-.22459.1631Zm8.59079-1.1729c.1944-.0019-.0937.3682-.0957.0967-.001-.0742.0215-.0967.0957-.0967Zm8.4209,8.6856c-.1064,0-.09469-.0577-.09669-.1573l.128-.0371c.02729.0489.06929.1924-.03131.1944Zm.1045-20.5205c.0059-.086.05081-.1934.127-.1944.1377-.001.04.1895-.127.1944ZM8.8134,18.535c.0977-.0009.0889.0371.0977.128-.125.0312-.14259.0605-.22659-.0625.05759-.0391.05669-.0645.12889-.0655Zm14.83011,1.4121-.16111.002c.0166-.1631.1338-.1309.2568-.1318-.0068.0908.002.1289-.09569.1298ZM6.3593,17.913c.1807-.0166.2891-.1338.3867-.003a1.29726,1.29726,0,0,1-.3847.0762l-.002-.0732Zm10.461-.8672c.03221-.126.1611-.1309.3213-.1328-.044.1718-.1768.1308-.3213.1328Zm-2.8086,2.8926c.04-.1729.1699-.127.289-.1006-.0439.1718-.166.1279-.289.1006Zm1.3261.5351c-.0019-.1641.1748-.0762.2256-.0029l-.0381.0947-.08979.0361c-.05081-.0332-.09671-.042-.09771-.1279ZM2.85251,21.97158c0-.0743.18359-.1465.25679-.1631l.0274.0371-.0303.1221c-.04489.0126-.252.1367-.25389.0039Zm21.36029-3.1895-.0966.001c.0302-.1192.3291-.251.4482-.2617a.92615.92615,0,0,1-.3516.2607Zm-9.6347-.2686.1289.0665.0029.1269c-.1465.0479-.2598.0742-.2578-.124l.126-.0694Zm7.9472,2.4415c-.1845.0019.0459-.1924.2881-.1954a.26221.26221,0,0,1-.2881.1954Zm-6.4257,1.8632c.1347-.0019.1914.0801.1953.2237-.1836.0009-.4326-.2227-.1953-.2237Zm-6.4512-4.58c.0469-.1827.20411-.1631.3525-.1641.002.2422-.1631.2246-.3525.1641Zm11.2363,3.3691.0987.0449.0029.1231c-.1904.1025-.1963.0166-.3867.0029l.00191-.0596.28319-.1113Zm5.3262-2.6826a.38853.38853,0,0,1-.1611-.0625.3506.3506,0,0,1,.0312-.1963l.35351.0635c-.03321.0517-.15431.1953-.22361.1953Zm-4.749,5.584c.0029.2597-.31639.0957-.3233-.126.1104-.0274.3223-.0645.3233.126Zm-4.2569-4.1172c.1846-.001.251.1172.293.2871-.1748.0019-.3867-.0303-.3887-.1895-.0009-.0742.0215-.0966.0957-.0976Zm-6.414-.584a1.28,1.28,0,0,1,.35351.0596l.001.1289c-.15631.0498-.43071.0722-.45221-.1573l.0977-.0312ZM32.5234,4.40608h-.1621a.34575.34575,0,0,1-.0645-.2509.3339.3339,0,0,1,.3526.0234c0,.0527.0009.1055,0,.1592l-.126.0683ZM4.4091,23.11708a.31617.31617,0,0,1,.4815-.2627l-.03709.0957c-.15821.0478-.19241.1592-.44441.167Zm7.6748-2.4649a.30491.30491,0,0,0,.0987.043c-.0225.3076-.37009.1494-.5782.1338l-.00089-.0977.48039-.0791Zm-8.0976,1.9531c.0137-.1865.4746-.4169.6396-.457.0987.1944-.4648.4414-.6396.457Zm3.11421-4.6992c.17389-.042.36329-.1474.48339.0283l-.0371.0948c-.2226.0683-.44329.2236-.44629-.1231ZM5.3857,24.23518c-.001-.1689.1885-.2265.3203-.2285.1113.3447-.3164.6192-.3203.2285Zm9.7656-2.9873c.0918,0,.2578.0449.2598.1592.001.1689-.5811.0684-.708.0039a.5321.5321,0,0,1,.4482-.1631Zm9.46-1.1806c.0029,0,.11521-.0586.1279-.0664a.54644.54644,0,0,0-.0762-.2852.40939.40939,0,0,0-.4394.291,1.65605,1.65605,0,0,0,.3877.0606Zm-10.2119.7295.1357.0722.002.1592a.92963.92963,0,0,1-.22459.0342c-.125.1894-.17191.2461-.38481.1972-.002-.208.0976-.2822.3115-.3007l.1602-.1621Zm6.9463-5.5645c.0029-.1445.7011-.8633.7041-.4893.0019.1348-.5704.4776-.7041.4893Zm-8.6827,5.1689c-.1152,0-.1621-.1445-.163-.2568-.001-.1426.5791-.126.581.124.001.1631-.3271.1319-.418.1328Zm12.418,9.1612c.0596.0547.18951.2988.0147.2881a.666.666,0,0,0-.0147-.2881ZM2.5146,23.68148c.0645-.1396.79591-.9443.7998-.5224.0029.2314-.37789.0673-.3828.4228.3271.084-.2197.4649-.417.0996Zm19.66991,1.4903c.14939.2226.34959.2792.35159.5839-.5274.127-.1152-.4433-.584-.4785-.0684-.2822-.1738-.2392-.38959-.3506-.00491-.5254.54389.1289.622.2452ZM5.3066,22.59358c-.002-.2646.959-.5781,1.1982-.7392.1534-.1045.1846-.208.4356-.21-.00389.3447-.7676.4678-1.0137.6318-.0879.0586-.61719.6446-.6201.3174Zm9.9248-3.1181c-.3721.0029-.3916-.5762-.1982-.5772.0732-.001.1757.1592.48531.1563a.5264.5264,0,0,1,.32129.0625c.0068.2939-.3691.3564-.6084.3584ZM27.874,3.31918c-.43949.0625-1.0069.1895-1.0674-.4726.2441-.0674.3818.0869.6084.1591.1269.0411.6797.0801.459.3135Zm-1.1992-.7939c-.11429.0009-.4522-.0616-.4532-.2217-.0029-.3477,1.4073-.1231,1.4532.374-.4209.0029-.6485-.1562-1-.1523Zm-4.0879,27.4101a.09927.09927,0,0,1,.0029-.1015.8759.8759,0,0,0-.0029.1015Zm-.7793.7227v.1025l-.1602-.0381c-.1084-.3916-1.7558-1.0244-1.17189-1.3408.17189-.0019.95219.1563.96979.3457-.1299.001-.5821-.2646-.5801.0049.0019.2246.9394.5479.9424.9258Zm-16.876-6.7725a5.30232,5.30232,0,0,0,2.081-1.4043c-.1757-.1523-.6035.3926-.8652.4268a1.83994,1.83994,0,0,0-1.2158.9775Zm16.6777-4.5a.75493.75493,0,0,1,.3203.0352c.0391.1474.378.3769.00591.3808-.167.001-.24611,0-.292-.1904-.26761.0078-.14651.3672-.51171.4551a1.18263,1.18263,0,0,1,.09371-.3545l-.03711-.0635c-.291-.0019-.1845.3233-.4756.3252l-.1289.001c.0049-.3789.7334-1.1289,1.0254-.5889Zm2.49221,8.4815c-.35251.0029-.49411-.7286-.75971-.9161-.1202-.0839-1.212-.999-.6426-1.0039.2168-.0019.7148.6885.7939.8819.0586.1474,1.0967,1.0342.60841,1.0381ZM21.0351,16.45888c.3809-.0508,1.15241-.4746,1.4483-.1416-.253.4892-1.7198.5966-2.2168.4013.0625-.248.5898-.2334.7685-.2597Zm-.2881,14.4023c-.0078-.835-1.02149-1.6768-1.4707-2.3066-.126-.1758-.3594-.667-.6181-.6709.0625.6767.8769.7685.8818,1.3779.27051.499.7783.9355.916,1.5049.02251.0058.293.2832.291.0947Zm-3.0683-4.5146c.0791.1337.1474.2802.2285.4169.1875.3184.3642.3809.5547.7676l-.0371.0948c-.5547.0195-.74029-1.0665-1.1534-1.3848-.1572-.1211-.4023-.1963-.4033-.4346a2.38,2.38,0,0,0-.3369-.6328c-.0312-.04-.7129-.6465-.3516-.6494a11.423,11.423,0,0,1,1.4991,1.8223Zm3.6416-3.2539c.2636-.002-.0664-.251-.0645-.0645a.07563.07563,0,0,0,.0645.0645Zm1.0498-1.4913c-.18259.001-.711-.3134-.7071.167.002.2803.5137.2442.2618.417a1.09052,1.09052,0,0,0-.61329-.0908c-.06451.25-.15821.2988-.15531.5811.001.1396-.1924.1543-.1914.3242.002.1748.0674.1767.0684.3525.0068.8115.4961.043.6992-.2705.1797-.2773.5498-.5215.5469-.8672-.002-.209.8974-.9746.4746-.9717-.1788.002-.19339.3565-.3838.3584Zm-5.6963.5987-.2569.0351c.1631.5889.6797-.2314.4483-.2295-.1065,0-.1533.1221-.1914.1944Zm.34471-1.0977c.001.1182.15819.0635.16019-.0986-.07619.0078-.16119.0303-.16019.0986Zm1.18949-.2685c-.001-.083-.1407-.0635-.1944-.0625l-.03509.1269c.06049.0293.23039.0635.22949-.0644Zm1.7431-3.1407c-.0029-.2441.4805-.2597.4785-.4873-.0039-.4004-.4482.0401-.5263.0899a3.52262,3.52262,0,0,1-1.3047.5068c-.2725.002-.3067.4043-.5108.4229a.5483.5483,0,0,1,.4092-.4912c.39651-.1143.6739-.4844,1.1602-.4893.1416-.0762.0849-.0186.1601-.1641-.414-.1572-1.2871.293-1.6816.4893-.1719.0859-.3623.083-.5361.1767a.85843.85843,0,0,1-.0293.2901c-.1612-.0117-.125-.0615-.1944-.1914l-.1289.001a5.12893,5.12893,0,0,1-1.1894.333l.00091.0605a9.87621,9.87621,0,0,0,1.35159-.1055c.2197-.0019.0049.334.0039.419.0694-.002.5127-.3223.5147-.0693.0019.1845-.36919.3164-.4678.4667-.02339.0352-.6152.9952-.127.7237l.083.1015-.02239.1631c.41109-.0381.87109-.9326,1.28219-.7207.002.2842-.3281.3321-.5195.4805-.3321.2568-.7295.8926.0127.4902l-.002-.1279c.1641-.1113.167-.165.3545-.0674l.002.1602a1.12451,1.12451,0,0,1-.2901.0674.83482.83482,0,0,1-.6396.457c-.1201.001-.0957.1103-.0947.1933a.35.35,0,0,1-.2569.0665l-.09859-.1915c-.294.003-.65141.3819-.18951.4844.0508.21.1807.2031.1328.418l-.1611.001c-.0703-.2881-.4228-.4483-.4189-.0606.0009.1875-.2334.4707-.3164.6475.0302.0449.16211.1689.163.1914,0,.125-.17089.3564.1319.3535.53421-.0049.6123-.5879.8847-.8867a5.90561,5.90561,0,0,1,1.545-1.0996c.2968-.1543,1.4082-.9727,1.4052-1.334-.4043-.21.02931-.2578.2237-.2598.0615-.1201.1308-1.4834-.1748-1.4804-.1602.0019-.417.1611-.419-.0284Zm2.8731,9.4405c.0742.1064.0488.0781.1416.1357-.0469-.0469-.0948-.0918-.1416-.1357Zm1.19631,1.7939a.29539.29539,0,0,1-.10841.1358c.038-.0801.042-.0713.10841-.1358Zm-9.50981-14.374c.1269-.0703.1465-.1651.25781-.002-.05571.7491-.81441.5303-.61031.2305l.29-.0019.0625-.2266Zm.21681-1,.03319.0957c.417-.0029.21-.3486-.03319-.0957ZM12.914,16.08188c-.001-.168.4776-.2051.6162-.2568.2022-.0752.0967-.2393.5186-.3203.3476-.0684.38871-.0196.6045-.2364.292-.2939,1.0029-.0927.123.1201-.09179.4083-.5273.4239-1.0273.4278-.0938.1455-.8311.7109-.835.2656Zm2.3418-1.084c.3252.083.6358-.2636.2871-.2607a.255.255,0,0,0-.2871.2607Zm.5625,1.6055-.0654-.0645.001.0655.0644-.001Zm1.11721-4.6807c.001.1817.29.0733.28909-.0351-.001-.1504-.29109-.0918-.28909.0351Zm-.38871,3.2891a2.12166,2.12166,0,0,0-.7705.3291c-.1826.3096-.5595.2158-.4785.5518.4346-.004.6572-.1026.7363-.4581.294-.0703.5801-.0351.5772-.3916.3906-.2666.7138.042.833-.4902-.2852-.1875-.2832.168-.5147.1963-.2382.0293-.3632-.0107-.3828.2627Zm.5498.3174c.2403-.002.2676-.0996.418-.1006.4414-.0039-.751.5889-.418.1006Zm-1.2978-1.0196c-.0029-.3261.8633-.3496,1.0029-.4834.0889-.0859,1.17581-.7822,1.1797-.374.002.2432-.8477.3682-.9492.5039a1.5629,1.5629,0,0,1-1.0069.416c-.0556.001-.2255.0264-.2265-.0625Zm2.2392-1.7275-.0009-.0957h-.1289l.0009.0967.1289-.001Zm-.4658,1.9375.1299.0947c.14941-.0361.8262-.1855.5117-.3906-.2344.0566-.5254.1182-.6416.2959Zm.5029-1.4551c.003.3418.7383-.1992.2559-.1943-.06349,0-.2568.1465-.2559.1943Zm1.752-2.1416c.1426.1065.2617-.1308.127-.1299-.0987.001-.0918.0704-.127.1299Zm.4219.3184c.0029.4082.4717-.0684.1924-.0654a.33215.33215,0,0,0-.1924.0654Zm.0244-.8379c.001.1963.5156.0449.5146-.0684-.0009-.1797-.5166-.082-.5146.0684Zm-1.6748,3.5908c.0596-.2666.3555-.1875.6201-.2851.3916-.1446.1572-.2735.457-.4444.17481-.1006.5244-.1855.6416-.2637.1661-.1093.42-.6562.6211-.2841-.25189.4863-.4716.5625-.9687.8047-.1494.0732-.28219.0146-.3789.0742-.1289.081.0039.1523-.19729.2539-.22261.1123-.56441.2959-.79491.1445Zm1.2822-4.2305c.002.2012.3408.0284.4512.0274.2041-.002.582.207.5791-.1338-.001-.0908-.0752-.124-.1309-.1602-.1543.0752-.9004.0977-.8994.2666Zm1.3574.4385c.1475-.0019.4541-.3271.15731-.3242-.128.001-.39461.3262-.15731.3242Zm.5782-.1347c-.4483.0039.54-.7998.5449-.2627.0019.1582-.4395.2617-.5449.2627Zm.45411,3.8613a.45579.45579,0,0,0,.416-.2617l-.12311-.1036c-.1211.0645-.3593.1436-.3584.3018a.07473.07473,0,0,0,.06551.0635Zm.81049,4.1806c-.001-.1425-.1084-.2216-.2598-.2236-.0742.2451.2618.4268.2598.2236Zm.1133-5.2519c.1074-.001.0937-.0586.0957-.1621-.1768-.0527-.3467.164-.0957.1621Zm.0078.8379a.18274.18274,0,0,0,.1592-.1631c-.0029-.3594-.5186.166-.1592.1631Zm.3955,4.1963c-.0117-.2315-.1758-.2207-.293-.042l.0372.1113.2558-.0693Zm-.333-7.9981c.1191-.0009.3213-.0752.3203-.1963-.0019-.2412-.6562.1993-.3203.1963Zm.1592,3.3809c.1035-.001.1611.0068.1601-.0986-.0009-.1231-.1582-.0635-.1601.0986Zm.30171,1.3496c.09769-.0029.08889-.0371.09569-.1289-.1152.0312-.0859.0029-.09569.1289Zm.045,1.3203c.00089.1123.15039.0723.16009-.0654-.0713.0019-.16109-.0088-.16009.0654Zm-.42291-.3828c.3418-.0098.3701-.4102.5361-.5596.1397-.126.2559-.1689.0362-.2822-.23639.127-.3242.6123-.5733.6807l.001.1611Zm.5547-2.7422c.1728-.0019.4668-.3584.126-.3555-.166.001-.4082.3584-.126.3555Zm.3447-1.0986c.208-.3535-.2763-.3321-.1933.0019l.1933-.0019Zm-.05949,4.0273c-.07431,0-.09671-.0215-.09771-.0967-.0029-.249.3193-.2041.4775-.163l.0371.1269a1.053,1.053,0,0,1-.41689.1328Zm-.24521,1.419c.2676-.002.9766-.5235.5108-.5196-.21.002-.3018.167-.3838.293-.21579.002-.3174-.0244-.3203.1963a.81176.81176,0,0,0,.1933.0303Zm.7989-.9082c-.1709-.2422-.4912.1377-.0664.1279l.0664-.1279Zm.373-1.2608c.19831-.0019.4658-.3906.125-.3877-.26069.003-.498.3916-.125.3877Zm.1367.8692a.32621.32621,0,0,0,.1924-.0664c-.0029-.4307-.4834.0683-.1924.0664Zm-1.457,2.6543a.3412.3412,0,0,1-.2529.5498c-.06349-.0918-.0596-.1924-.1631-.1914-.4248.0029-.3721.4541.0683.4502.15431-.001.7872-.6192.9932-.6211.0957-.001.0869.0634.2256.0625.1611-.002.8857-.3946.5449-.3916-.0898.0009-.1728.0986-.418.1005.01761-.2421.211-.7802.5088-.7138-.0048.331-.2353.1318-.2539.3896.2256-.0078.63771-.164.64071-.3935-.29891-.0762-.50791-.8848-.67781-.1221l-.2295-.0879-.2851.0352a.372.372,0,0,0-.1953-.0694c-.1241.001-.1641.1299-.2891.1309-.1211.001-.0606-.0205-.1934-.0303.0186.5928.7715-.2256.7764.3154.001.1426-.7021.4366-.7998.587Zm1.791-1.3692h.127l.05761.1221-.05571.1006c-.23629.0078-.3095-.2217-.1289-.2227Zm-.0283-6.668c.12791-.0009.4453-.3906.1904-.3876-.1728.0009-.4336.3896-.1904.3876Zm.3223,1.7442-.1455-.0059c-.0284.1719-.212.3701.0039.3867l.1416-.3808Zm-.0381,1.1201h.0644l-.0009-.0644h-.0645l.001.0644Zm.2724-4.7598c-.3564-.0068-.7939.5567-.791.8995a3.19019,3.19019,0,0,0,.4219.3183c.3379-.1836.0937-.3086.0908-.6133-.001-.0654.1123-.1621.1377-.2021l.1406-.4024Zm-1.7763,2.3262a.48616.48616,0,0,1,.1259-.2588c.51471-.0049.0791-.2285-.0214-.3838l.3046-.164.4229.2187.01461.2461.18269.2354a1.03131,1.03131,0,0,0-.1573.3554c.003.3711,1.3204.0186,1.3243.4073a1.986,1.986,0,0,1-.1563.581c-.5156.0049-.3633-.4795-.5518-.4785-.4638.0049-.6904.9727-1.1503.9766-.2686.0029.4111-.7959.4091-1.0342-.0009-.0938-.2109-.6104-.3281-.6094-.1396.002-.416.2871-.4189-.0918Zm1.9472,1.6572c.06841-.0009.0899-.0859.0957-.1621l-.1591.0078-.03719.1211c.08889.043-.02241.0342.10059.0332Zm-.289,3.6094c.1797-.001.75-.5215.3818-.5185-.1797.0019-.6211.5214-.3818.5185Zm1.2207-7.4512c.1133-.0009.1386-.0673.1592-.163-.1114-.0616-.19049-.0166-.2237.1308.0791.044-.00779.0322.0645.0322Zm.1601,6.9883.0645-.001-.001-.0966-.0644.0009.0009.0967Zm.416-.2939-.0009-.1289c-.1182.0117-.1192.0117-.128.1299l.1289-.001Zm-.1279-6.9561c.2959-.0722.2901-.3535-.0029-.4189l-.09859.3213.10149.0976Zm.1016,7.6651a.17382.17382,0,0,0-.0957.0976c.0029.2715.4404-.1006.0957-.0976Zm.3135-1.0655c.1406-.0009.1445-.041.19141-.1308-.22171-.3252-.46681.1328-.19141.1308Zm.039.8369c.1406-.0009.06941.0176.1289-.0654l-.1279-.0381-.001.1035Zm-.0703-7.7626c.1318-.004.3096-.1231.1914-.2598-.1709.042-.1924.1045-.1914.2598Zm.3154-.7754c.11431-.001.503-.5205.1885-.5176-.4521.0039-.6016.5205-.1885.5176Zm.1719,8.3086c.125-.001.2481-.2276.0625-.2256-.1699.0009-.2783.2275-.0625.2256Zm.0215-1.127c.3506-.0039.1035-.5449-.1289-.0957.0342.0498.043.0957.1289.0957Zm-.083-9.2451c.12891-.001.2861-.4317.2851-.5498-.0009-.0821-.1113-.1475-.164-.2237.1006-.2128.0097-.2763-.1621-.1601.00191.1572-.2276.9365.041.9336Zm.376-1.0977c.1211-.0009.12791-.1045.12791-.1943l-.12891-.0654-.1358.124.0743.1357Zm.1172,2.2217c.0654-.001.1289-.0049.1279-.0654-.001-.1182-.11919-.0528-.1279.0654Zm.1953,7.3418h0Zm.0673-10.2129a.17209.17209,0,0,0-.0976-.1914l-.127.0674.001.1592.09771.0332.12589-.0684Zm-.0732,2.4502.0645-.001-.0645.001Zm-.4238-.5439c-.001-.1328.0888-.1719.1914-.2276.0859.0449.4531.2266.4541.3184.0019.2431-.2412.0566-.3223.0029-.1494.002-.3222.0498-.3232-.0937Zm.667-1.0371c.1035,0,0-.1299.1582-.2276.3574-.2178.1152-.3896-.1299-.2236l.0342.0127-.1455.4121c.0712.0371-.0401.0273.083.0264Zm-.503-2.2178c.1895.3515.2793.7812.8077.7578.8252-.0371.958-.8535.60441-1.416-.07811-.125-.40331-.1563-.61421-.1543-.4873.0049-.7119.4267-.7979.8125Zm1.3008,1.373c.1387-.0009.2442-.3769-.0986-.1924.001.0831-.0215.1944.0986.1924Zm.1758,5.2168c-.2949.003-.2002.249.0039.3545.1484-.0801.2539-.3564-.0039-.3545Zm.0088.9346c.0058.1982.1953.2773.1943.0625-.0019-.1445-.1123-.083-.1943-.0625Zm.3535-.1328c.1397-.001.1523-.2627-.0986-.1279l.0019.1289.0967-.001Zm.4658-1.9043-.1289.001c.0108.1191.0108.1191.1299.1279l-.001-.1289Zm-18.09859,7.7021-.19341.002a.70332.70332,0,0,0-.7998.0166c.1524-.249.1533-.0078.253-.459.0849-.3838.5908-.3281.8369-.5195.1592-.1221.083-.253.2529-.4209.4229-.4151,1.2891-1.1162,1.8828-1.0147.2373.0274.9649-.3027.9629-.501-.0019-.2373-.5947.0899-.708.0391a1.51857,1.51857,0,0,1,.22271-.3242c.46379.1426.54289-.2119.80849-.4824.1084-.1104.212-.168.3047-.2754.1133-.1348.045-.3487.294-.3496.3467-.0039.2256-.3291.5127-.3282.0293-.4013.7568-.1572.9912-.3349l.00291-.124a.76534.76534,0,0,1,.48149-.1016c.1767-.0947.2089-.1953.417-.1963a.32891.32891,0,0,0-.292-.3193c-.003-.2715.83-.6758,1.0879-.8155.3623-.0039.6054-.3515.80561.0567-.07421.1289-.35351.1221-.35151.293.0019.1992.2919.0175.3603-.0284a.4351.4351,0,0,0,.2158-.331c.209-.0508.708-.3545.6133.0595-.21189.0508-.5098.126-.1592.2911.3672-.0889.1992.2236.4532.2207a.79775.79775,0,0,0,.6738-.2959c-.4238-.6201.5176-.5938.9277-.626.1289-.002.09861.1435.09961.2305-.22651.0908-.58011.0468-.57611.3593,0,.1211-.1182.0977-.1592.2598a2.78566,2.78566,0,0,0,.8369-.04l.0615.1943c.7422.0947-.1826.3389.2988.4463.376-.0908.4815-.0459.4473-.4229.04881-.0742.2393-.2422.0293-.2578l-.5469-.0332c.0342-.1709-.0635-.2129-.0683-.3799l.1582-.0996c.0097-.4209.7041-.7675.709-.1338.0019.1592-.3418.3897.0039.3868.14061-.2725.30761-.3975.1318-.6836.123-.2852.2139-.8018.5957-.8047.1777-.0264.6426-.1699.6455.1553.001.081-.376.583-.0918.58.2988-.0019.3692-.6631.7041-.5859.0352.1299.0557.1045.1621.1592a.28785.28785,0,0,0,.1905-.2588l.1289-.001.0019.1602c.21491.1416.2568-.1084.3516-.293l-.0674-.127c-.2315.001-.4346-.1259-.6436-.124-.1054.001-.0839.0977-.2568.0986-.001,0-.29689-.3613-.3262-.415a1.2,1.2,0,0,1,.543-.5527c.0781.039.291.1465.2891-.0352,0-.0801-.17679-.1015-.25979-.2549.06149-.1181.67279-.4023.67479-.2002.001.1338-.5273.6817-.1875.6788.2295-.002.3184-.4512.3164-.6465.1904-.3682-.2598-.2022-.26169-.5137a2.10147,2.10147,0,0,0,.23239-.5049,1.62927,1.62927,0,0,1,.1445-.5615c-.1093-.4502-.3603-.3662-.0468-.8438a1.03266,1.03266,0,0,0,.12891-.7031c-.11531-.2129-.08791-.1172-.292-.2226a1.67687,1.67687,0,0,1,.21969-.711,3.26189,3.26189,0,0,1-.167-.6103c-.0029-.3135.5088-.5293.7344-.6514.167-.001.2666.127.4521.125.3233.167.211-.0342.4512-.0361.2295-.002.2578.0615.2559-.1963-.003-.374-.2657-.1641-.3252-.3828.1093-.001.6445.0615.6455.1552.0019.2588-.2295.3731-.1172.6426.1914-.0156.2725-.2832.5713-.2929-.0381.4111.1054.5712.5185.5029.125-.0147.3203.5029.4825.624.1211.0908.2011.0303.2031.2158l-.3203.1641c.0009.374.3174-.0996.5468.0264l-.0761.2539a.47457.47457,0,0,1,.2402.0351c-.0478.1758-.1748.1572-.19039.3555.10539-.0029.38469-.2041.38669-.0029.0029.2666-.7783.2685-.4463.4873a1.204,1.204,0,0,1,.2891-.0352c-.0352.1367-.06349.0566-.06249.1621.00089.0723.11329.0371.13079.2236-.3857.0938-.25879.2901-.3633.5791.1749.0401.4991.1915.501.418.001.0801-.0898.2588-.1904.2598-.1484.001-.0078-.5899-.3252-.3506.20511.3809-.1621.4863-.0498.8359l.0566.001.001.0645-.1611.0009c-.1953.2969.06541.1397.0683.3858.002.206-.3427.2441-.4902.3457.1934.3369.1582.1894-.0176.5293.001.1562.13091.2431.13191.3847a.91723.91723,0,0,1-.06161.2911c-.1757.0566-.35539-.0977-.3525.164.62111.3213-.2061.9063-.21289,1.419-.43651.2988.03609.3857.03909.7412-.16309.3135-.0713.5732-.2188.8701l.09571.2598a.28547.28547,0,0,0-.15431.29c.0811.041.1944.0547.19531.1592.002.2051-.35741-.2686-.35351.164.001.125-.1269.2129-.126.3233l.003.2578-.294.1602a.706.706,0,0,1,.1397.582c-.3213.0889-.5459.1787-.543.5205.001.0771-.0517.0947-.0947.1621-.6309.0049.248.5772-.2529.582-.0625,0-.0577.0098-.0967.0323a.7211.7211,0,0,0,.0986.1923c.001.0831-.1133.2051-.1582.2911.002.1963.1318.2988.1328.4824l-.1269.0371a.42012.42012,0,0,1-.03619-.2285c-.17871.0019-.21481.0449-.25491.2275-.1992.0059-.36709.1543-.1582.292a.29025.29025,0,0,0,.1905-.2598l.1933-.0019a1.7129,1.7129,0,0,1-.666.9414c-.0791.0439-.3232.085-.3222.1953.0019.2754.6386-.2959.8349-.2978-.0058.4531-.6865.789-.98139,1.0468-.12011.1055-.61531.6016-.61921.128.2666-.5157-.6435.0088-.6406.2949a.9252.9252,0,0,0,.6455.1553c.0557,0,.5117-.3789.5137-.1661.0019.2266-.4033.4043-.5752.4883l-.1611-.0967a4.62375,4.62375,0,0,1-.6426.3623c-.1358.001-.1543-.0634-.3223-.0615a2.49958,2.49958,0,0,0-.4678.3067c-.40039.2714-.831.9297-1.3896.9336l-.0645-.1602a3.38519,3.38519,0,0,0-1.3164.5273c0,.0938.0655.1514.0655.2247.0019.1699-.5323.4238-.7686.4257-.0117,0-.1934-.1084-.2266-.1269a2.60716,2.60716,0,0,1-.9638.2666l-.001-.0635a.5833.5833,0,0,0,.416-.3584,1.48381,1.48381,0,0,1,.4815-.1016c.1982-.0019.1972.1485.4189.0293-.0019-.2304.2803-.3935.0928-.5166l-.2569.0684-.09569-.0391c.02929-.2002-.06831-.248-.07031-.4121-.0009-.1758.376-.1367.44731-.455a1.20536,1.20536,0,0,0,.54689-.0694c-.002-.1855-.1201-.1601-.2588-.1269-.1875-.0967-.2637-.2871-.4863-.2852-.1563.085-.4122.1182-.4151.3584l.2256-.0019.0312.0966-.0634.128a.541.541,0,0,1-.3213-.0928c-.1904.0937-.9307.3955-.9346-.0879-.0029-.3086.4805-.2666.4785-.4561-.0029-.33.1592-.2773.3848-.2607.02051-.2744.6924-.6182.9287-.6201.0772-.001.1436.0635.25781.0615.041,0,.40919-.1152.48239-.1338l.0371-.1592-.1044-.0312-.3487.1396a.69029.69029,0,0,0-.4238-.166,1.04419,1.04419,0,0,1-.3525.1641c-.043,0-.3887-.3486-.3868.0361.002.1475.2256.0469.2276.1582a2.55446,2.55446,0,0,1-.8662.3946c-.1358-.0704-.6143-.2002-.6162-.3809-.0049-.5342,1.9316-.1904,1.9267-.6621,0-.0752-.0674-.0947-.0986-.2246a1.32724,1.32724,0,0,1,.3535-.0674c.0381,0,.1035.124.2598.1592.208-.0508.32811-.0596.417-.2295-.2295-.1504-.7403.1601-.7432-.1543,0-.0567.6572-.5537.0928-.5488a2.95708,2.95708,0,0,1-1.0606.332c.0674-.2627,1.0596-.375,1.0576-.5899-.0009-.1211-.02149-.0605-.0341-.1923.2529-.1348.7959-.0293.8017-.4268a3.8679,3.8679,0,0,1-.418-.0322c.0264-.3789,1.2422-.5557,1.4502-1.0283.1495-.337.3135-.0489.4043-.4014.1983-.0488.4502-.044.4483-.294-.003-.2773-.63189.0938-.708.1348-.1621.002-.2305-.126-.3877-.125a3.355,3.355,0,0,0-.70319.5859c-.10931.1622-.45991.5791-.70311.587-.0136-.4209-.5595.2421-.8027.2646-.0059-.5752-.5029-.0264-.7158.1914a4.56409,4.56409,0,0,1-1.294.8359c-.164.085-.7011.2852-.5537.542l-.0371.0948c-.18459.0527-.2793-.043-.47659.0068l-.00391.2871c-.1777.0049-.2734-.0918-.4453-.0898a2.95992,2.95992,0,0,1-1.2851.4619l-.001-.1934a2.09636,2.09636,0,0,0-.9541.2774c-.1465.1015-.041.2099-.2852.2949a1.65935,1.65935,0,0,1-.5586.1533c.0137-.1894.4034-.3916.53521-.5283.25-.2588.46289-.169.75779-.3096.1377-.0654.15921-.1855.2969-.251.123-.0595.2637-.0625.3965-.1211a10.50077,10.50077,0,0,0,1.7441-.873c.2715-.1855.38871-.1777.5938-.4697.1894-.2676.8906-.0938.8974-.6514.1279-.0693.3379-.0889.4258-.1572.1455-.1133.13671-.2451.2246-.3213.0986-.083.5977-.4365.5967-.5313-.0029-.3056.7373-.416.73341-.8769l-.09771-.0293c-.3232.1728-.3525.4277-.73629.5205a.773.773,0,0,0-.02931.2578,3.06428,3.06428,0,0,0-.3789.1709c-.3584.2627-.4014.6611-.8691.7744.0048.4639-.8379.4434-1.086.8799-.09669.1709-.1806.1416-.374.208a3.7326,3.7326,0,0,0-1.1738.6348c-.2998.3096-.9434.2842-1.3301.418-.1924.0664-.1143.2207-.2852.2939a1.41543,1.41543,0,0,0-.3779.1719c-.1572.1074-.1455.1787-.3359.2451a6.22461,6.22461,0,0,0-1.1592.4902,7.68217,7.68217,0,0,1-2.5.8965,6.80736,6.80736,0,0,1-1.6123.2998l-.001-.1279c1.05271-.2559,2.0498-.8721,3.0772-1.2246a3.43251,3.43251,0,0,0,.8691-.4229,9.24985,9.24985,0,0,1,.8672-.3945c-.0059-.5996-1.1504.3975-1.3174.3984a.61911.61911,0,0,1-.19339-.0293c-.13961.0948-.14841.1299-.32121.1309-.0381,0-.4385.3262-.7374.3291-.0683.001-.1113-.1602-.2265-.1592-.2588.0029-.7334.1484-.7373.457l-.10259.0909c-.415.0234-.748.497-1.24511.5019l-.0556-.1015a.56428.56428,0,0,1,.5029-.2891c.13181-.001.6435-.1094.6426-.1992a1.87,1.87,0,0,0-.0342-.2246c.2041-.3106,1.3789-.6836,1.3769-.8828-.0029-.3282-.9189.1982-1.04.2558-.4189.1983-.7588.5078-1.1943.6787a11.17774,11.17774,0,0,0-1.295.5469c-.2089.0019-.2851-.0137-.45019.1328-.33881-.1963-.49211-.1816-.706.2324a.36455.36455,0,0,1-.32621-.3838c-.001-.0869.4727-.166.5781-.166a1.40547,1.40547,0,0,0,.57911-.167c.35839-.1836.99319-.9101,1.376-.914.09479-.001.16409.0957.25879.0947a2.8841,2.8841,0,0,0,.7041-.4902c.3154-.003.45411-.2286.70411-.3614.03029-.0166.73829-.2304.77249-.2314.10351-.001.1709.0947.291.0937Z"/>
        <path class="cls-2" d="M2.85251,21.97158c.00189.1328.209.0087.25389-.0039l.0303-.1221-.0274-.0371c-.0732.0166-.25679.0888-.25679.1631Zm26.30959-8.002h0Zm-.0059-7.7627.0645-.001-.0645.001ZM15.8183,16.60338l-.0644.001-.001-.0655.0654.0645Zm10.0225-3.0547-.001-.0644h.0645l.0009.0644Zm1.5351,2.3701-.0009-.0967.0644-.0009.001.0966-.0645.001Zm-3.65039-1.0947c.00979-.126-.01951-.0977.09569-.1289-.0068.0918.002.126-.09569.1289Zm4.39259,1.2812.001-.1035.1279.0381c-.05949.083.0117.0645-.1289.0654Zm-10.2099-3.4189h.1289l.0009.0957-.1289.001-.0009-.0967Zm11.0586-6.0586c.0048-.0635-.003-.1289.0634-.1299.1074-.001.0674.128-.0634.1299Zm2.1054,1.2686.1289-.001.001.1289c-.1191-.0088-.1191-.0088-.1299-.1279Zm-3.4092,7.7295c.0088-.1182.0098-.1182.128-.1299l.0009.1289-.1289.001Zm-6.247,7.4013c.0009.084-.1592.0879-.1602.001-.001-.084.1602-.0879.1602-.001Zm2.4511-6.8183c-.167.0009-.0888-.125.0635-.1299-.0049.0625.00291.1289-.0635.1299Zm-6.84859,4.8935c-.001-.0683.084-.0908.16019-.0986-.002.1621-.15919.2168-.16019.0986Zm2.80859-9.9795c.0352-.0595.0283-.1289.127-.1299.1347-.0009.0156.2364-.127.1299Zm3.5967,2.3516c.001-.0713-.0108-.1611.0635-.1621.1601-.001.1093.1601-.0635.1621Zm2.8603-.7022c-.123.001-.0117.0098-.10059-.0332l.03719-.1211.1591-.0078c-.0058.0762-.02729.1612-.0957.1621ZM18.08,20.93148c-.123.001-.0117.0098-.10149-.0332l.03509-.1269c.1924-.002.2735.1582.0664.1601Zm9.7198-4.4043c-.3438.003.09371-.3691.09571-.0976.00089.0273-.06841.0976-.09571.0976Zm2.9355-6.7275-.0967.001-.0019-.1289c.2509-.1348.2383.1269.0986.1279Zm-3.5195-.8692c-.07229,0,.0146.0118-.0645-.0322.03321-.1474.1123-.1924.2237-.1308-.0206.0957-.0459.1621-.1592.163Zm-4.0215,4.127c-.251.0019-.0811-.2148.0957-.1621-.002.1035.0117.1611-.0957.1621Zm7.3183-2.9336c-.1152.002-.1269-.0752-.1308-.1914.2773-.0693.2031.1914.1308.1914Zm-2.4648-1.7812c-.001-.1553.0205-.2178.1914-.2598.1182.1367-.0596.2558-.1914.2598Zm1.05571-4.5176-.09771-.0332-.001-.1592.127-.0674a.17209.17209,0,0,1,.0976.1914l-.12589.0684ZM25.79,12.62588l-.0527.1835c-.2159-.0166-.0323-.2148-.0039-.3867l.1455.0059-.0889.1973Zm-11.06249.9277c.24319-.2529.45019.0928.03319.0957l-.03319-.0957ZM28.8496,4.40608h-.0625l-.0743-.1357.1358-.124.12891.0654c0,.0898-.00681.1934-.12791.1943Zm-.3145,11.4698c-.2158.0019-.1074-.2247.0625-.2256.1856-.002.0625.2246-.0625.2256Zm-11.59959-3.9532c-.002-.1269.28809-.1855.28909-.0351.00091.1084-.28809.2168-.28909.0351ZM30.1972,3.78108c-.1201.002-.0976-.1093-.0986-.1924.3428-.1845.2373.1915.0986.1924Zm-9.9482,7.6602c.2939-.2236.4131.1572.0654.1601-.0762.001-.0654-.1084-.0654-.1601Zm4.4258,5.1455c-.4248.0098-.1045-.3701.0664-.1279l-.0664.1279Zm-1.333,1.5742-.0372-.1113c.1172-.1787.2813-.1895.293.042l-.2558.0693Zm2.372-.5859c-.2988.0097-.3008-.2246-.0019-.2227l.05761.1221-.05571.1006Zm-.4629-1.5078c-.291.0019.1895-.4971.1924-.0664a.32621.32621,0,0,1-.1924.0664Zm-1.0039-4.1465-.1933.0019c-.083-.334.4013-.3554.1933-.0019Zm-1.0449,1.9746c-.3594.0029.1563-.5225.1592-.1631a.18274.18274,0,0,1-.1592.1631Zm4.877,1.373c-.2754.002-.0303-.456.19141-.1308-.04691.0898-.05081.1299-.19141.1308Zm-5.0938,3.1387c-.1553.001-.1982-.208-.1641-.3213.2207.0029.3555.3194.1641.3213Zm5.5713-3.6582c-.0859,0-.0947-.0459-.1289-.0957.2324-.4492.4795.0918.1289.0957Zm-5.292-4.6553c-.3359.003.3184-.4375.3203-.1963.001.1211-.2012.1954-.3203.1963Zm-2.0264.3086c-.2373.002.02931-.3232.15731-.3242.29679-.0029-.00981.3223-.15731.3242Zm-3.1631,2.8623c-.0019-.1269.4151-.3281.418-.0674.001.1182-.416.2745-.418.0674Zm9.5889-4.5957-.10149-.0976.09859-.3213c.293.0654.2988.3467.0029.4189Zm-2.1074,2.0156c-.2432.002.0176-.3867.1904-.3876.2549-.003-.06249.3867-.1904.3876Zm4.8203-1.332c-.542-.2803.1553-.5381.1592-.1621.001.1045-.0899.125-.1592.1621Zm-10.1035,1.251c-.002-.1504.5137-.2481.5146-.0684.001.1133-.5136.2647-.5146.0684Zm-5.0176,4.3945c.0029-.2636.4473-.3681.4502-.1328.001.1738-.335.1621-.4502.1328Zm1.8408.5313c.2403-.002.2676-.0996.418-.1006.4414-.0039-.751.5889-.418.1006Zm5.17391-1.4004a.07473.07473,0,0,1-.06551-.0635c-.0009-.1582.2373-.2373.3584-.3018l.12311.1036a.45579.45579,0,0,1-.416.2617Zm1.63179-1.1094c-.4434.0039.28521-.6074.2881-.2607.001.0927-.209.2597-.2881.2607Zm5.4971-8.3935c-.1231.0009-.0118.0107-.083-.0264l.1455-.4121-.0342-.0127c.2451-.166.4873.0058.1299.2236-.1582.0977-.0547.2276-.1582.2276ZM16.6738,22.20008c.0381-.0723.0849-.1944.1914-.1944.2314-.0019-.2852.8184-.4483.2295l.2569-.0351Zm7.51371-6.252c-.07431,0-.09671-.0215-.09771-.0967-.0029-.249.3193-.2041.4775-.163l.0371.1269a1.053,1.053,0,0,1-.41689.1328Zm.92669-.75c-.583.0059.2832-.6885.2881-.2597.001.0947-.1875.2587-.2881.2597Zm-7.542-.4785c.1162-.1777.4072-.2393.6416-.2959.3145.2051-.36229.3545-.5117.3906l-.1299-.0947Zm8.4229,1.6621c-.2393.0029.2021-.5166.3818-.5185.3682-.003-.2021.5175-.3818.5185Zm3.2871-10.498c-.0576.0009-.17969-.0967-.2266-.127-.3105.0029-.4814-.1318-.1318-.3213.0849.044.7373.4444.3584.4483Zm-5.9346,9.8779c.3418-.0098.3701-.4102.5361-.5596.1397-.126.2559-.1689.0362-.2822-.23639.127-.3242.6123-.5733.6807l.001.1611Zm-1.5312-5.4941c.3222-.003.8222-.4258.3183-.4219-.2851.0029-.5703.4238-.3183.4219Zm6.5468-2.7002a.25873.25873,0,0,1,.0274-.5166c.5244-.0039.1553.5146-.0274.5166Zm-13.8525,6.9863c.1269-.0703.1465-.1651.25781-.002-.05571.7491-.81441.5303-.61031.2305l.29-.0019.0625-.2266Zm9.4316,2.8135a.81176.81176,0,0,1-.1933-.0303c.0029-.2207.10451-.1943.3203-.1963.0654-.0996.543-.4961.5459-.1982.0019.1943-.4492.4228-.6729.4248Zm-10.83979-1.7696c-.02341-.2548-.15721-.4502.35059-.4541.1211.0098.6123-.0293.6133.1231s-.5176.1328-.7071.1347l-.25679.1963-.06251.1289c-.1201.001-.18749-.0947-.291-.0937-.0342.001-.7422.2148-.77249.2314-.25.1328-.38871.3584-.70411.3614a2.8841,2.8841,0,0,1-.7041.4902c-.0947.001-.164-.0957-.25879-.0947-.21191.0019-.77151.4531-.96091.5888A1.65151,1.65151,0,0,1,8.29,17.702c-.0947.001-.5147.1045-.5137.166a.36455.36455,0,0,0,.32621.3838c.21389-.414.36719-.4287.706-.2324.16509-.1465.24129-.1309.45019-.1328.5596-.3027,1.1885-.4473,1.7334-.7549.2549-.1435.48541-.3428.7559-.4707.1211-.0576,1.0371-.584,1.04-.2558.002.1992-1.1728.5722-1.3769.8828a1.87,1.87,0,0,1,.0342.2246c.0019.1904-.961.0986-1.1455.4883l.0556.1015c.49711-.0049.83011-.4785,1.24511-.5019.17779-.1563.08989-.3106.36039-.4112a1.42255,1.42255,0,0,1,.4795-.1367c.1152-.001.1582.1602.2265.1592.3487-.0029.544-.3272.8663-.3301.08-.001.1211-.082.19231-.1299a.61911.61911,0,0,0,.19339.0293c.167-.0009,1.3115-.998,1.3174-.3984a9.24985,9.24985,0,0,0-.8672.3945,7.93272,7.93272,0,0,1-1.4951.6699,17.49659,17.49659,0,0,1-2.4512.9776l.001.1279a6.80736,6.80736,0,0,0,1.6123-.2998,24.58919,24.58919,0,0,0,3.6592-1.3867c.1904-.0664.1787-.1377.3359-.2451a1.41543,1.41543,0,0,1,.3779-.1719c.1709-.0732.0928-.2275.2852-.2939.3867-.1338,1.0303-.1084,1.3301-.418a3.7326,3.7326,0,0,1,1.1738-.6348c.4492-.1543.5908-.5361,1.0732-.7012.2686-.0918.3897-.0908.3868-.3867.4677-.1133.5107-.5117.8691-.7744a3.06428,3.06428,0,0,1,.3789-.1709.773.773,0,0,1,.02931-.2578c.38379-.0928.41309-.3477.73629-.5205l.09771.0293c.00389.4609-.73631.5713-.73341.8769.001.0948-.4981.4483-.5967.5313-.08789.0762-.0791.208-.2246.3213-.0879.0683-.2979.0879-.4258.1572-.0068.5576-.708.3838-.8974.6514a2.86791,2.86791,0,0,1-.9014.6787c-.2852.1953-.3994.0908-.7061.3603-.3037.2676-.7773.2569-1.1269.4248-.13769.0655-.1592.1856-.2969.251-.2949.1406-.50779.0508-.75779.3096-.13181.1367-.52151.3389-.53521.5283a1.65935,1.65935,0,0,0,.5586-.1533c.2442-.085.1387-.1934.2852-.2949a2.09636,2.09636,0,0,1,.9541-.2774l.001.1934a2.95992,2.95992,0,0,0,1.2851-.4619c.1719-.002.2676.0947.4453.0898l.00391-.2871c.19729-.0498.292.0459.47659-.0068.042-.1065.0049-.0928.0039-.1914-.0019-.2491,1.044-.6475,1.2891-.8096.2285-.1524,1.3017-1.3164,1.3076-.6631.2432-.0225.7891-.6855.8027-.2646.2432-.0079.5938-.4248.70311-.587a3.355,3.355,0,0,1,.70319-.5859c.1572-.001.2256.127.3877.125.07611-.041.705-.4121.708-.1348.0019.25-.25.2452-.4483.294-.0908.3525-.2548.0644-.4043.4014-.208.4726-1.4238.6494-1.4502,1.0283a3.8679,3.8679,0,0,0,.418.0322c-.0058.3975-.5488.292-.8017.4268.01261.1318.0332.0712.0341.1923.002.2149-.9902.3272-1.0576.5899a2.95708,2.95708,0,0,0,1.0606-.332c.6416-.0059-.4248.7128.0058.7089.2422-.0019.43071-.1455.6446-.0058-.08889.1699-.209.1787-.417.2295-.1563-.0352-.2217-.1592-.2598-.1592a1.32724,1.32724,0,0,0-.3535.0674c.0312.1299.0986.1494.0986.2246.0049.4726-1.9316.1308-1.9267.6621.0019.1582.5459.3818.6806.3809.1231-.002,1.1211-.4512.6397-.4571-.0625-.0888-.0645-.289.0937-.291.1162-.001.1582.1602.2276.1592.1611-.002.2597-.1631.41691-.1651a.68648.68648,0,0,1,.35939.167l.3487-.1396.1044.0312-.0371.1592c-.0732.0186-.44139.1338-.48239.1338-.11421.002-.18061-.0625-.25781-.0615-.2363.0019-.90819.3457-.9287.6201-.2256-.0166-.3877-.0693-.3848.2607.002.1895-.4814.1475-.4785.4561.0039.4834.7442.1816.9346.0879a.541.541,0,0,0,.3213.0928l.0634-.128-.0312-.0966-.2256.0019c.0029-.2275.3164-.3574.5117-.3594.0772-.0009.2588.2188.3897.2862.1387-.0332.2568-.0586.2588.1269a1.20536,1.20536,0,0,1-.54689.0694c-.09081.4042-.58991.2089-.35061.6787l-.02639.1884.09569.0391.2569-.0684c.1875.1231-.0947.2862-.0928.5166-.2217.1192-.2207-.0312-.4189-.0293a1.48381,1.48381,0,0,0-.4815.1016.5833.5833,0,0,1-.416.3584l.001.0635a2.60716,2.60716,0,0,0,.9638-.2666c.0332.0185.2149.1269.2266.1269.2363-.0019.7705-.2558.7686-.4257,0-.0733-.0655-.1309-.0655-.2247a3.38519,3.38519,0,0,1,1.3164-.5273l.0645.1602a2.53771,2.53771,0,0,0,1.0156-.5352c.22361-.1523.5274-.7021.8418-.7051.168-.0019.1865.0625.3223.0615a4.62375,4.62375,0,0,0,.6426-.3623l.1611.0967c.1719-.084.5771-.2617.5752-.4883-.002-.2128-.458.1661-.5137.1661a.9252.9252,0,0,1-.6455-.1553c-.0019-.1797.4414-.5195.6064-.5205.2159-.002-.1777.4199.3262.416.1543-.084.1905-.1992.32721-.3184.29489-.2578.97559-.5937.98139-1.0468-.1963.0019-.833.5732-.8349.2978-.001-.1103.2431-.1514.3222-.1953a1.7129,1.7129,0,0,0,.666-.9414l-.1933.0019a.29025.29025,0,0,1-.1905.2598c-.20889-.1377-.041-.2861.1582-.292.0401-.1826.0762-.2256.25491-.2275a.42012.42012,0,0,0,.03619.2285l.1269-.0371c-.001-.1836-.1308-.2861-.1328-.4824.0449-.086.1592-.208.1582-.2911a.7211.7211,0,0,1-.0986-.1923c.039-.0225.0342-.0323.0967-.0323.5009-.0048-.378-.5771.2529-.582.1494-.2285.0058-.4502.3281-.54.2256-.0625.1748-.1055.3096-.1426a.706.706,0,0,0-.1397-.582l.294-.1602c-.001-.1104.125-.8066.2178-.8076.0126,0,.26071.2471.25871.0625-.00091-.1045-.11421-.1182-.19531-.1592a.28547.28547,0,0,1,.15431-.29l-.09571-.2598a.69521.69521,0,0,0,.0606-.5469c-.0166-.1152.1582-.3037.1572-.4844-.002-.1533-.2275-.125-.2285-.288-.002-.1436.0752-.2129.19041-.292.00679-.5127.834-1.0977.21289-1.419-.00289-.2617.1768-.1074.3525-.164a.91723.91723,0,0,0,.06161-.2911c-.001-.1416-.13091-.2285-.13191-.3847.1758-.3399.211-.1924.0176-.5293.1475-.1016.4922-.1397.4902-.3457-.00289-.2461-.2636-.0889-.0683-.3858l.1611-.0009-.001-.0645-.0566-.001c-.1123-.3496.25491-.455.0498-.8359.3174-.2393.1768.3516.3252.3506.3818-.0029.0781-.4307.0068-.5274-.0976-.1328-.12989-.1074-.3174-.1504.10451-.289-.0224-.4853.3633-.5791-.0175-.1865-.1299-.1513-.13079-.2236-.001-.1055.02729-.0254.06249-.1621a1.204,1.204,0,0,0-.2891.0352c-.332-.2188.4492-.2207.4463-.4873-.002-.2012-.2813,0-.38669.0029.01559-.1983.14259-.1797.19039-.3555a.47457.47457,0,0,0-.2402-.0351l.0761-.2539c-.2294-.126-.5459.3476-.5468-.0264l.3203-.1641c-.002-.1855-.082-.125-.2031-.2158-.3526-.2637-.2002-.6709-.7383-.5811-.2696.045-.27639-.3955-.2627-.5458-.2988.0097-.3799.2773-.5713.2929C30.039.661,30.6972.33,29.9726.33678a.52905.52905,0,0,0-.29-.0615c.0595.2187.3222.0088.3252.3828.0019.2578-.0264.1943-.2559.1963-.0957.0009-.1435.1299-.2246.1308-.21.002-.4795-.2217-.6787-.2197-.2256.1221-.7373.3379-.7344.6514a3.26189,3.26189,0,0,0,.167.6103,1.67687,1.67687,0,0,0-.21969.711c.39739.205.38669.5849.16309.9257-.3135.4776-.0625.3936.0468.8438a1.62927,1.62927,0,0,0-.1445.5615c-.0342.1729-.23339.3867-.23239.5371.00289.2813.45409.1094.26169.4815.002.1953-.0869.6445-.3164.6465-.3398.0029.1885-.545.1875-.6788-.002-.2021-.6133.0821-.67479.2002.06149.1133.47949.3418.09959.3545l-.1289-.0644a1.2,1.2,0,0,0-.543.5527c.02931.0537.3252.415.3262.415.1318-.0009.21-.0976.3535-.0996.0791-.0009.1651.127.3877.126l.1592-.001.0674.127c-.0948.1846-.13669.4346-.3516.293l-.0019-.1602-.1289.001a.28785.28785,0,0,1-.1905.2588c-.1064-.0547-.1269-.0293-.1621-.1592-.3349-.0772-.4053.584-.7041.5859-.3574.0039.4131-.7011-.1348-.7978-.3535.0527-.67279.0039-.8232.3994-.0781.2051-.1172.2959-.1914.4678.17581.2861.00881.4111-.1318.6836-.3457.0029-.002-.2276-.0039-.3868-.0049-.6337-.6993-.2871-.709.1338l-.1582.0996c.0048.167.1025.209.0683.3799.0938.0059.6436-.0146.6446.0967.0009.0801-.0791.1221-.127.1943.0342.377-.0713.3321-.4473.4229-.4052-.0908.1358-.2149-.0371-.4131l-.2617-.0332-.0615-.1943a2.78566,2.78566,0,0,1-.8369.04c.041-.1621.1592-.1387.1592-.2598-.004-.3125.3496-.2685.57611-.3593-.001-.087.02929-.2325-.09961-.2305-.4101.0322-1.3515.0059-.9277.626-.1319.2558-.7735.4668-.8692.0722-.1201-.0302-.4189.045-.4199-.125-.001-.1113.2246-.1396.3213-.1631.0947-.414-.4043-.1103-.6133-.0595a.4351.4351,0,0,1-.2158.331c-.0684.0459-.3584.2276-.3603.0284-.002-.1709.2773-.1641.35151-.293-.10551-.2158-.00581-.1074-.22751-.2227a1.27449,1.27449,0,0,1-.5147.1651,4.66639,4.66639,0,0,0-1.1523.7187c.0019.2178.2842.1133.293.417-.2081.001-.2403.1016-.417.1963a.76534.76534,0,0,0-.48149.1016l-.00291.124c-.2549.1933-.958-.1162-.9912.3349-.29489-.0009-.1856.3252-.5772.3282-.26069.1406-.0771.1699-.2295.3496-.0927.1074-.1963.165-.3047.2754-.2656.2705-.3447.625-.80849.4824a1.51857,1.51857,0,0,0-.22271.3242c.1133.0508.7061-.2764.708-.0391.0039.3614-.8877.5137-1.1875.462a4.186,4.186,0,0,0-1.6582,1.0537c-.1699.1679-.0937.2988-.2529.4209-.2461.1914-.752.1357-.8369.5195-.0997.4512-.1006.21-.253.459a.70332.70332,0,0,1,.7998-.0166l.19341-.002Zm6.77829-5.6338c.002.2012.3408.0284.4512.0274.14651-.001.2783.0625.4189.0605.2539-.0019.168-.2627.0293-.3545-.1543.0752-.9004.0977-.8994.2666Zm8.5928-4.4599c.123-.001.2851-.4707.2851-.5176-.0009-.1221-.1015-.165-.164-.2559.1006-.2128.0097-.2763-.1621-.1601.00191.1572-.2276.9365.041.9336ZM26.875,28.22838c-.0713-.3242,1.5468-.626,1.7988-.6289.0742,0,.09671.0215.0976.0967.001.1699-.6972.2675-.8955.3017a6.947,6.947,0,0,1-1.0009.2305Zm-.9024-19.0371c-.0254.04-.1387.1367-.1377.2021.0029.3047.2471.4297-.0908.6133a3.19019,3.19019,0,0,1-.4219-.3183c-.0029-.3428.4346-.9063.791-.8995l-.1406.4024Zm3.1533,18.5332c-.0859.001-.0957-.0459-.1299-.0947.2286-.3487,1.1456-.5577,1.56551-.6651.247-.0635.39939-.248.64939-.1924l.001.1602c-.2168.1484-.6905.1904-1.0196.4033a3.92208,3.92208,0,0,1-1.0664.3887ZM12.914,16.08188c.0039.4453.7412-.1201.835-.2656.5-.0039.93551-.0195,1.0273-.4278.8799-.2128.169-.414-.123-.1201-.21579.2168-.2569.168-.6045.2364-.4219.081-.3164.2451-.5186.3203-.1386.0517-.6172.0888-.6162.2568Zm3.6328-.8701a2.12166,2.12166,0,0,0-.7705.3291c-.1826.3096-.5595.2158-.4785.5518.4346-.004.6572-.1026.7363-.4581.294-.0703.5801-.0351.5772-.3916.3906-.2666.7138.042.833-.4902-.2852-.1875-.2832.168-.5147.1963-.2382.0293-.3632-.0107-.3828.2627Zm-.748-.7022c.001.0889.1709.0635.2265.0625a1.5629,1.5629,0,0,0,1.0069-.416c.1015-.1357.9512-.2607.9492-.5039-.00389-.4082-1.0908.2881-1.1797.374-.1396.1338-1.0058.1573-1.0029.4834Zm2.7998-.3154c.0596-.2666.3555-.1875.6201-.2851.3916-.1446.1572-.2735.457-.4444.17481-.1006.5244-.1855.6416-.2637.1661-.1093.42-.6562.6211-.2841-.25189.4863-.4716.5625-.9687.8047-.1494.0732-.28219.0146-.3789.0742-.1289.081.0039.1523-.19729.2539-.22261.1123-.56441.2959-.79491.1445Zm5.6142,4.5879-.0966.001c.0302-.1192.3291-.251.4482-.2617a.92615.92615,0,0,1-.3516.2607Zm.834-.4258c.2256-.0078.63771-.164.64071-.3935-.29891-.0762-.50791-.8848-.67781-.1221l-.2295-.0879-.2851.0352a.372.372,0,0,0-.1953-.0694c-.1241.001-.1641.1299-.2891.1309-.1211.001-.0606-.0205-.1934-.0303.0186.5928.7715-.2256.7764.3154.001.1426-.7021.4366-.7998.587a.3412.3412,0,0,1-.2529.5498c-.06349-.0918-.0596-.1924-.1631-.1914-.4248.0029-.3721.4541.0683.4502.15431-.001.7872-.6192.9932-.6211.0957-.001.0869.0634.2256.0625.0928-.001.6426-.1993.6416-.3282-.001-.1396-.4502.0362-.5147.0371.01761-.2421.211-.7802.5088-.7138-.0048.331-.2353.1318-.2539.3896Zm1.3301-6.0039a1.986,1.986,0,0,0,.1563-.581c-.0039-.3887-1.3213-.0362-1.3243-.4073a1.03131,1.03131,0,0,1,.1573-.3554l-.18269-.2354-.01461-.2461-.4229-.2187-.3046.164c.0556.0869.2783.1924.2783.2842.001.124-.3858.0508-.3838.3252.0039.4258.25.127.4199.125.1172-.001.3272.5156.3281.6094.002.2383-.6777,1.0371-.4091,1.0342.4599-.0039.6865-.9717,1.1503-.9766.1885-.001.0362.4834.5518.4785Zm2.5195-9.9443c.1192.2197.085.3564.2696.5381.999.9873,2.1279-1.3643.5283-1.3506-.4873.0049-.7119.4267-.7979.8125ZM2.5146,23.68148c.1973.3653.7441-.0156.417-.0996.00491-.3555.3857-.1914.3828-.4228-.00189-.2891-.498.123-.5332.1455-.2031.1367-.1699.1699-.2666.3769Zm1.4717-1.0762c.1748-.0156.7383-.2626.6396-.457-.165.0401-.6259.2705-.6396.457Zm.4228.5118c.252-.0078.2862-.1192.44441-.167l.03709-.0957a.31617.31617,0,0,0-.4815.2627Zm.9766,1.1181c.0039.3907.4316.1162.3203-.2285-.1318.002-.3213.0596-.3203.2285Zm.9736-6.3222.002.0732A1.29726,1.29726,0,0,0,6.746,17.91c-.0976-.1308-.206-.0136-.3867.003Zm-1.0527,4.6806c.00291.3272.5322-.2588.6201-.3174.2461-.164,1.00981-.2871,1.0137-.6318-.251.002-.2822.1055-.4356.21-.2392.1611-1.2002.4746-1.1982.7392Zm-.375,1.292a1.83994,1.83994,0,0,1,1.2158-.9775c.2617-.0342.6895-.5791.8652-.4268a5.30232,5.30232,0,0,1-2.081,1.4043Zm2.16891-5.9795c.003.3467.22369.1914.44629.1231l.0371-.0948c-.1201-.1757-.3095-.0703-.48339-.0283Zm.418,3.5401c.15329-.0049.21289-.0137.22459-.1631-.1533.0049-.1924.0381-.22459.1631Zm1.26369-2.75c-.044.0009-.0772-.0664-.09769-.0957.11139-.0752.209-.1192.22659.0625-.086.0214-.06059.0332-.1289.0332Zm.48831,1.4326.13279-.0899.0986.042c-.0713.1016-.1309.1201-.23139.0479Zm.37789-1.8906c.0469-.1827.20411-.1631.3525-.1641.002.2422-.1631.2246-.3525.1641Zm1.3369,1.791c-.1484.0019-.2783-.042-.292-.1905a.71976.71976,0,0,1,.45121.0284l.001.1289-.16021.0332Zm.7715-.0713-.1602.0019-.0009-.0654.1611-.001v.0645Zm-.15329.7734a1.31942,1.31942,0,0,1,.57909-.0361c-.0225.3076-.37009.1494-.5782.1338l-.00089-.0977Zm1.05949-.3301c-.1152,0-.1621-.1445-.163-.2568-.001-.1426.5791-.126.581.124.001.1631-.3271.1319-.418.1328Zm.4053,12.626c-.2217.0166-.998.1416-.9961.3281.0029.3877,1.0498.2637,1.2588.3106a.75407.75407,0,0,0,.4141-.3897l-.1309-.2978-.5459.0488Zm.4844-13.9873c-.002-.2344.3115.0684.001.0967l-.001-.0967Zm.459.8985c.04-.1729.1699-.127.289-.1006-.0439.1718-.166.1279-.289.1006Zm.2275,1.0205c-.2139.0185-.3135.0927-.3115.3007.2129.0489.25981-.0078.38481-.1972a.92963.92963,0,0,0,.22459-.0342l-.002-.1592-.1357-.0722-.1602.1621Zm.2129-2.376.126-.0694.1289.0665.0029.1269c-.1465.0479-.2598.0742-.2578-.124Zm.6543,1.3125-.0957.001v-.0323l.0957-.0009v.0322Zm.125-.4199c-.0684,0-.33889-.1211-.3232-.2227.0898-.6103.1142-.1943.61031-.1982a.5264.5264,0,0,1,.32129.0625c.0068.2939-.3691.3564-.6084.3584Zm.0508,2.0273c.2236.0332.0957-.2568-.1309-.2549a.5321.5321,0,0,0-.4482.1631,1.66333,1.66333,0,0,0,.5791.0918Zm.15331-.9014c-.20211-.1328-.00591-.3252.12789-.1308l-.0381.0947-.08979.0361Zm.64259-.1347c-.0899.001-.10159-.1924.0312-.1934.1104-.0019.0596.1924-.0312.1934Zm.0879,2.5761.1289-.0009c-.0156-.5166-.5098.0039-.1289.0009Zm.6543-5.997c.03221-.126.1611-.1309.3213-.1328-.044.1718-.1768.1308-.3213.1328Zm.6777,3.6328c-.2598.0029-.5928-.2842-.22849-.2871.13279-.001.20019.1709.22849.2871Zm.8359,6.9512.0909-.0039.0371-.0948c-.1905-.3867-.3672-.4492-.5547-.7676a6.53375,6.53375,0,0,0-.5303-.7929c-.1279-.1621-1.2969-1.8321-1.293-1.3164.001.1279.3477.3955.4473.5195a1.37562,1.37562,0,0,1,.3369.6973c.1621.2988.7461.4951.749.8633a2.04656,2.04656,0,0,0,.7168.8955Zm1.2569,3.5957a3.55413,3.55413,0,0,0-1.9092.3593,2.09945,2.09945,0,0,0-.6709.2998,1.60753,1.60753,0,0,1-.7627.209c-.56249.0049-1.0479.4346-1.5732.5616l.0039.0576.3847.164a6.808,6.808,0,0,1,.9317-.2959,5.37663,5.37663,0,0,1,.6123-.0078,5.07444,5.07444,0,0,1,.9814-.4404c.3135-.0967.7305-.4121,1.0401-.415.1513-.001.2949.0615.4511.0595.31251-.1689.3018-.3769.7393-.3564l.2549-.167c-.211-.0156-.2451-.1602-.4834-.0283Zm.3603-13.5323c-.0029-.2441.4805-.2597.4785-.4873-.0039-.4004-.4482.0401-.5263.0899a3.52262,3.52262,0,0,1-1.3047.5068c-.2725.002-.3067.4043-.5108.4229.0059-.4854,1.169-.9766,1.5694-.9805.1416-.0762.0849-.0186.1601-.1641-.414-.1572-1.2871.293-1.6816.4893-.1719.0859-.3623.083-.5361.1767a.85843.85843,0,0,1-.0293.2901c-.1612-.0117-.125-.0615-.1944-.1914a6.996,6.996,0,0,0-1.3183.334l.00091.0605a9.87621,9.87621,0,0,0,1.35159-.1055c.2197-.0019.0049.334.0039.419.1162-.0039.5117-.3486.5156-.0371.001.1113-.3652.2754-.4687.4345-.02339.0352-.6152.9952-.127.7237l.083.1015-.02239.1631c.416-.039.84079-.9482,1.28219-.7207.0039.4658-.9619.541-.958,1.0078.0029.2618.3242.0323.4512-.0371l-.002-.1279c.1641-.1113.167-.165.3545-.0674l.002.1602a1.12451,1.12451,0,0,1-.2901.0674.83482.83482,0,0,1-.6396.457c-.1201.001-.0957.1103-.0947.1933a.35.35,0,0,1-.2569.0665l-.09859-.1915c-.294.003-.65141.3819-.18951.4844.0508.21.1807.2031.1328.418l-.1611.001c-.0703-.2881-.4228-.4483-.4189-.0606.0009.1875-.2334.4707-.3164.6475.0302.0449.16211.1689.163.1914,0,.125-.17089.3564.1319.3535.53421-.0049.6123-.5879.8847-.8867a5.90561,5.90561,0,0,1,1.545-1.0996c.2968-.1543,1.4082-.9727,1.4052-1.334-.4043-.21.02931-.2578.2237-.2598.0615-.1201.1308-1.4834-.1748-1.4804-.1602.0019-.417.1611-.419-.0284Zm.4112,2.6416.1269-.041c-.0293.1201-.001.0899-.1269.1016v-.0606Zm.288,10.5918c.28421-.0029-.1621-.8789-.25779-.9726a5.6767,5.6767,0,0,1-.541-.7168c-.206-.3711-.37011-.3945-.57521-.6826-.126-.1758-.3594-.667-.6181-.6709.0625.6767.8769.7685.8818,1.3779a1.06912,1.06912,0,0,0,.2529.3271c.1455.1436.1133.2481.2158.3985a1.86386,1.86386,0,0,1,.4473.7793c.1807.0469.1084.1601.1943.1601Zm-.04879-9.208.28319-.1113.0987.0449.0029.1231c-.1904.1025-.1963.0166-.3867.0029l.00191-.0596Zm.73339,2.9199c.2588-.0019.10161-.3281-.1963-.2558.00491.1299.0791.2568.1963.2558Zm.4727,6.1221-.1602-.0381c-.1084-.3916-1.7558-1.0244-1.17189-1.3408.17189-.0019.95219.1563.96979.3457-.1299.001-.5821-.2646-.5801.0049.0029.2568.94531.5244.9424,1.0283Zm-.002-10.958c-.1103.001-.1406-.1006-.16209-.1914-.26761.0078-.14651.3672-.51171.4551a1.18263,1.18263,0,0,1,.09371-.3545l-.03711-.0635c-.291-.0019-.1845.3233-.4756.3252l-.1289.001c.0049-.3789.7334-1.1289,1.0254-.5889.3565-.0029.8155.4112.1963.417Zm.3145,9.7891a3.17139,3.17139,0,0,0,1.1045-.3203c.4365-.1768.8252-.0821.8193-.6631a2.55242,2.55242,0,0,0-.4971-.5987c-.1699-.1796-.3232-.457-.48729-.6416-.70021-.788-1.39741-1.6259-2.14841-2.3632-.3457-.3389-.9131-.6836-1.1299-1.125a1.595,1.595,0,0,1,.2217-.5176,9.20851,9.20851,0,0,1,.1514-1.0645c-.004-.3115.1914-.2793.2519-.5136l-.5156-.0313c-.1944.002-.2764.0986-.5137.1016l-1.5137.0136c-.3281.1768-.5761.7403-.7636,1.0694a3.8967,3.8967,0,0,0-.66609,1.166,28.97756,28.97756,0,0,0,2.30959,3.2715,5.32338,5.32338,0,0,0,.6026.7842,7.16059,7.16059,0,0,0,.663.7548,9.40987,9.40987,0,0,0,1.0567.3223,3.62343,3.62343,0,0,0,1.0547.3555Zm-.7744-14.3594c.0029-.1445.7011-.8633.7041-.4893.0019.1348-.5704.4776-.7041.4893Zm.7793,14.875c.0927-.001.0781-.1846-.0977-.0957.0205.0293.0537.0957.0977.0957Zm-1.0899-13.6484c.3809-.0508,1.15241-.4746,1.4483-.1416-.0928.1787-.0547.1123-.2774.1757-.3213.0918-.626.2745-.9424.3506-.2978-.1133-.6914-.0049-.997-.125.0625-.248.5898-.2334.7685-.2597Zm1.3731,9.33c-.39069.003,0-.4785-.4561-.5117-.0684-.2822-.1738-.2392-.38959-.3506-.00491-.6279.97159.5078.97359.8291-.0908.0215-.0537.0323-.1279.0332Zm.0595-11.1787c-.0009-.0654.0664-.0595.1289-.0654-.0097.1182-.1279.1836-.1289.0654Zm.0576,6.3448a.26221.26221,0,0,0,.2881-.1954c-.2422.003-.4726.1973-.2881.1954Zm-.1552.6464c-.18259.001-.711-.3134-.7071.167.002.2803.5137.2442.2618.417a1.09052,1.09052,0,0,0-.61329-.0908c-.06451.25-.15821.2988-.15531.5811.001.1396-.1924.1543-.1914.3242.001.0879.0674.7392.1689.7383.2823-.003,1.1475-1.2471,1.1446-1.5879.07421-.1446.876-.9102.4756-.9073-.1788.002-.19339.3565-.3838.3584Zm.69041,8.6592c-.14751.001-.48541-.2256-.48631-.3828-.001-.1191.3994-.293.5127-.2939a.50317.50317,0,0,1,.5185.3173c-.1455.17-.2265.3565-.54489.3594Zm.16409.3848a.19862.19862,0,0,0,.2246-.1953c-.167-.0508-.3506-.0762-.3535.164.09181.0205.0556.0323.1289.0313Zm.41891-10.6983-.16111.002c.0166-.1631.1338-.1309.2568-.1318-.0068.0908.002.1289-.09569.1298Zm.09959.2569c.0713-.0996-.0215-.0518.1279-.0655-.06049.0821.0118.0635-.1279.0655Zm-.8242,6.3652c-.0781-.1064-.6631-.6182-.2197-.6221.2168-.0019.7148.6885.7939.8819.0586.1474,1.0967,1.0342.60841,1.0381-.35251.0029-.49411-.7286-.75971-.9161-.2872-.2011-.2032-.082-.4229-.3818Zm1.3721-7.0137-.0391.1602-.1269.002c.0097-.1348.0244-.1514.166-.1622Zm-.1241-5.7978.0967-.001.001.0645-.0967.0009-.001-.0644Zm.3633,15.2012c.1006-.002.0586-.1455.03131-.1944l-.128.0371c.002.0996-.00971.1573.09669.1573Zm.0811-8.8916a1.65605,1.65605,0,0,1-.3877-.0606.40939.40939,0,0,1,.4394-.291.54644.54644,0,0,1,.0762.2852c-.01269.0078-.125.0664-.1279.0664Zm.0234-11.6289c.00881-.1221.1904-.2862.1924-.1309,0,.1152-.0762.1269-.1924.1309Zm-.292,21.1337c.002.1983.84081.3409.8399.1856-.0039-.3379-.8428-.5547-.8399-.1856Zm.8926-9.914-.0957.0986-.0176-.1123.1133.0137Zm.74021,8.8037c.06159.082.09569.0635.19439.0625-.0615-.082-.0957-.0635-.19439-.0625Zm.23539-9.5371a.38853.38853,0,0,1-.1611-.0625.3506.3506,0,0,1,.0312-.1963l.35351.0635c-.03321.0517-.15431.1953-.22361.1953Zm.5762-.4238a.88677.88677,0,0,1,.3525-.2286c-.0303.1153-.2373.2188-.3525.2286ZM27.874,3.31918c-.43949.0625-1.0069.1895-1.0674-.4726.2441-.0674.3818.0869.6084.1591.1269.0411.6797.0801.459.3135Zm-1.2998-1.1797c.32031-.0029,1.0615.1201,1.1006.5381-.4209.0029-.6485-.1562-1-.1523-.42.0039-.6534-.3809-.1006-.3858Zm5.94631,1.9737.12889.0654c0,.0527.0009.1055,0,.1592a.47453.47453,0,0,1-.2881.0683.34575.34575,0,0,1-.0645-.2509.51976.51976,0,0,1,.22371-.042Zm-.85361,23.2666c.3165-.003.4581-.3155.6778.0908a.484.484,0,0,1-.03619.2226,6.2958,6.2958,0,0,0-1.77141.6514,3.38137,3.38137,0,0,1-1.43359.4502,12.37971,12.37971,0,0,1-1.25491.2305c-.1504.0009-.2568.0752-.2549.2275.0039.458-1.40619,1.9316-1.2148,1.0742-.2979.0274-.295.3242-.6416.3272-.3067.0029-.3409-.2217-.42-.2217-.0625.001-.0947.1435-.1923.1309-.7784-.1026-1.52449.3359-2.31649.3437l-.09371.0381c-.0059.3174.1895.5-.1895.7051l-.4502.0039c-.09659.0517-.9287.6709-.93159.3301-.00191-.2569.71489-.3321.25289-.5499-.4834.2374-.7207.8448-1.37789.8506-.35841.003-.74021.0752-1.09471.042-.208.1123-.3711.3311-.4668.3711-.082.0352-.2461.044-.3467.0742a24.41686,24.41686,0,0,1-5.1279,1.3565c-.3301.0205-1.3887-.2891-1.3926-.7041-.0029-.3457.7725-.6367,1.1201-.6875.336-.0508.8867-.4326,1.3819-.3985l.5478.0372c.0898-.004.9941-.4346,1.2002-.4922.8613-.2452,1.6875-.5489,2.55271-.7813.77739-.208.918-.5459.95609-1.2597.0351-.4258-.3027-.6036-.5117-.8077-.4326-.4218-.7139-1.0215-1.1563-1.456-.6533-.6426-1.164-1.4483-1.8379-2.0615-.3427-.3135-.7226-.5801-1.0556-.9082a1.62148,1.62148,0,0,1-.3174-.3272c.0781-.1602-.0987-.2471-.0996-.418-.001-.0576.414-.7529.4687-.9756.09771-.3916.51271-.6992.4141-1.0937a1.58547,1.58547,0,0,0-.7725-.0176c-.4678.0225-.9922-.2236-1.4844-.2197a9.23621,9.23621,0,0,1-1.7792-.2041c-.9034-.2178-.7872-.0586-1.3985.5625-.2529.2578-.458.3223-.7031.5547a16.532,16.532,0,0,1-1.3584,1.1562c-.5801.4483-1.52829,1.5752-2.3027,1.4502-.1895-.0312-.4053-.0078-.51959-.1211-.17091-.1699-.14451-.3291-.415-.3261-.50591.2744-1.30181.6084-1.67481-.0811a.4896.4896,0,0,0-.041-.2227c-.3721-.1298-1.5577.4102-1.1573-.4433-.5537-.3633-1.1943.5508-1.6464-.3711.0947-.2031.0751-.2969.2968-.4111a25.44361,25.44361,0,0,1,3.0528-1.8223c.9746-.3301,1.748-1.0908,2.6933-1.4736a2.58282,2.58282,0,0,1,1.0069-.3838c.163-.002.2529.0097.2558-.1953a2.02786,2.02786,0,0,1-.9414-.1797c-.1836-.0645-.2402-.293-.5771-.2901a2.45688,2.45688,0,0,1-1.0108-.1074c-.5312-.2422-.4931-.6523.1016-.6572a1.97945,1.97945,0,0,1,.751-.2529,24.3359,24.3359,0,0,0,2.5703-.7637,4.4252,4.4252,0,0,0,.60931-.168,4.85477,4.85477,0,0,1,.52249-.2529,15.42981,15.42981,0,0,0,1.9014-1.1973c.4873-.2881.9277-.6094,1.3965-.9267a7.99613,7.99613,0,0,1,.8964-.6514,4.08634,4.08634,0,0,0,.9161-.6338c.5546-.4824,1.16211-.9228,1.6777-1.4482.77641-.7901,1.8203-1.2403,2.6406-2.0039a9.413,9.413,0,0,1,1.0176-.5332,11.33246,11.33246,0,0,1,1.0371-.5137,5.61606,5.61606,0,0,1,2.1123-.3203,5.16624,5.16624,0,0,0,2.96-1.1153,2.74446,2.74446,0,0,0,.8652-.9062c.1992-.3965.5498-.5908.7529-.9834-.0312-.1289-.1308-.2275-.1318-.3535-.0029-.3623-.1348-.669-.1377-1.0293-.0029-.2949-.4697-.2871-.6553-.4063-.3711-.2363-1.709-.9834-1.7119-1.3115a5.41488,5.41488,0,0,1,2.4121-.4092c.3448-.0029.2539-.3398.252-.582.7939-1.5332,2.915-1.4824,4.1924-.6602.163.1045.1738.0196.33791.208.07909.0909.13279.2178.21089.3057.2392.2686.415.3408.4189.7441.003.3379.28321.3956.4043.6934a2.67558,2.67558,0,0,1-.0302,1.5254,2.43981,2.43981,0,0,1-.2784,1.2598,1.03826,1.03826,0,0,1-.1562.581,5.26164,5.26164,0,0,0-.65529,2.3252,4.71566,4.71566,0,0,1-.19631.9238,3.22471,3.22471,0,0,0-.2949,1.6895,7.20531,7.20531,0,0,1-.6611,2.2246,10.72043,10.72043,0,0,1-.9112,1.9775,8.2164,8.2164,0,0,1-.43549,1.0098c-.25591.3389-.40921.8027-.68071,1.1504a8.38849,8.38849,0,0,1-2.1592,1.8066c-.3007.1993-.4824.4952-.7666.6836a7.90652,7.90652,0,0,1-1.9111.9961c-.6973.2393-.664.666-1.001,1.1875-.1338.208-.207.1241-.2656.4414-.1269.6934-1.0791,1.1953-1.0732,1.8194.0019.2021.2861.3457.39841.4384a6.8619,6.8619,0,0,1,1.10649,1.4092c.2343.3438.4853.6133.7314.9453.1406.1914.1475.3477.3496.4893.1807.127.4092.251.4121.4912l-.22559.0986c.00489.3116.24319.335.44529.4893.0635.0488.1006.1924.1524.2676.0605.0879.1758.0947.27831.1406a2.57,2.57,0,0,1,.46389.3711c.124.1562.2109.457.4482.4551a.64744.64744,0,0,0,.0606-.3555.48181.48181,0,0,0,.3525-.0088c-.0059-.2861-.2275-.3467-.4521-.3437a.40506.40506,0,0,0,.00191.2568,1.86186,1.86186,0,0,1-.77931-.7334c.1152-.0586.249-.0186.3838-.0742-.0322-.3877-.8037-.0527-.8066-.3731-.001-.1484.4707-.0039.5156-.0048a3.27456,3.27456,0,0,1,.9043.25c.2549-.126.4053.0986.6064.2275.6651.4228,1.7041-.3779,2.4522-.3838.5879-.0059,1.1054-.4853,1.68061-.6162A2.85685,2.85685,0,0,1,31.6669,27.37978Z"/>
      </g>
    </g>
  </g>
</svg>
