<svg xmlns="http://www.w3.org/2000/svg" width="149.31477" height="278.1538" viewBox="0 0 149.31477 278.1538">
  <defs>
    <style>
      .cls-1 {
        fill: #aea349;
      }

      .cls-2 {
        fill: #51481d;
      }

      .cls-3 {
        fill: #685e26;
      }

      .cls-4 {
        fill: #d3c262;
      }
    </style>
  </defs>
  <g id="图层_2" data-name="图层 2">
    <g id="Layer_1" data-name="Layer 1">
      <g>
        <path class="cls-1" d="M141.22487,172.7788a10.49036,10.49036,0,0,1,6.7286,2.2188,108.75432,108.75432,0,0,0,1.3613-13.1602c-.3555.0313-.7149.0547-1.0899.0547-14.2597,0-14.2597-22.1133,0-22.1133.0977,0,.1875.0118.28322.0137C140.56277,69.3111,85.04717,0,85.04717,0c0,31.4834-47.459,48.3995-73.7754,109.0127-2.123,4.8916-3.9043,9.5411-5.3848,13.9698.4336-.0381.877-.0655,1.3379-.0655,16.66022,0,16.66022,25.8365,0,25.8365a12.61494,12.61494,0,0,1-6.7773-1.8204c-3.543,33.754,14.6562,50.295,29.6211,61.6954,19.7363,15.0371,34.77342,34.7734,34.77342,34.7734,1.56448-10.8086,14.09378-11.7481,14.09378-11.7481s44.9453,2.7637,63.07222-36.8007c-.25972.0156-.51362.039-.78322.039C126.96517,194.8921,126.96517,172.7788,141.22487,172.7788Zm-124-.4804c-13.4961,0-13.4961-20.9278,0-20.9278C30.71909,151.3706,30.71909,172.2984,17.22487,172.2984Zm17-24.1563c-10.71478,0-10.71478-16.6137,0-16.6137C44.93777,131.5284,44.93777,148.1421,34.22487,148.1421Zm-1-22.646c-16.33,0-16.33-25.3222,0-25.3222C49.55309,100.1739,49.55309,125.4961,33.22487,125.4961Z"/>
        <path class="cls-2" d="M141.22487,172.7788a10.49036,10.49036,0,0,1,6.7286,2.2188,108.75432,108.75432,0,0,0,1.3613-13.1602c-.3555.0313-.7149.0547-1.0899.0547-14.2597,0-14.2597-22.1133,0-22.1133.0977,0,.1856.0118.28322.0137a193.519,193.519,0,0,0-7.56832-35.188c-12.5762,30.8579-39.709,70.7173-98.1836,94.6275-5.8027,2.375-11.0137,4.7324-15.6758,7.0742q1.50885,1.1982,2.9883,2.3223c19.7363,15.0371,34.77342,34.7734,34.77342,34.7734,1.56448-10.8086,14.09378-11.7481,14.09378-11.7481s44.9453,2.7637,63.07222-36.8007c-.25972.0156-.51362.039-.78322.039C126.96517,194.8921,126.96517,172.7788,141.22487,172.7788Z"/>
        <path class="cls-3" d="M94.43,135.7964c-8.4687-36.6509-7.0351-88.3384-7.0351-88.3384s-11.1641-6.0234-22.2403-11.3334c-16.1133,17.1567-38.5742,37.6284-53.8828,72.8881-2.123,4.8916-3.9043,9.5411-5.3848,13.9698.4336-.0381.877-.0655,1.3379-.0655,16.66022,0,16.66022,25.8365,0,25.8365a12.61494,12.61494,0,0,1-6.7773-1.8204c-3.543,33.754,14.6562,50.295,29.6211,61.6954a184.89807,184.89807,0,0,1,20.6152,18.582C89.596,210.6968,101.39677,165.941,94.43,135.7964Zm-77.2051,36.502c-13.4961,0-13.4961-20.9278,0-20.9278C30.71909,151.3706,30.71909,172.2984,17.22487,172.2984Zm17-24.1563c-10.71478,0-10.71478-16.6137,0-16.6137C44.93777,131.5284,44.93777,148.1421,34.22487,148.1421Zm-1-22.646c-16.33,0-16.33-25.3222,0-25.3222C49.55309,100.1739,49.55309,125.4961,33.22487,125.4961Z"/>
        <path class="cls-4" d="M85.04717,0c0,31.482-47.459,48.398-73.7754,109.0127-2.125,4.8946-3.8965,9.5391-5.3769,13.9698.4316-.0381.8711-.0655,1.33-.0655a11.73944,11.73944,0,0,1,11.2989,7.1211c2.2402-2.4385,4.6328-4.7461,7.125-6.9736-8.1504-6.3369-5.6289-22.8906,7.5761-22.8906a11.55164,11.55164,0,0,1,11.4961,8.0605c11.6075-8.3086,23.6992-16.5991,33.9024-27.414C109.94947,47.6143,85.04717,0,85.04717,0Z"/>
        <path class="cls-4" d="M.45927,146.939a70.89011,70.89011,0,0,0,.4414,19.3516,67.3775,67.3775,0,0,1,5.1387-17.5957A12.24529,12.24529,0,0,1,.45927,146.939Z"/>
        <path d="M57.50809,277.3921q1.503-8.39355,3.05278-17.0449,1.46775-8.65425,2.9687-17.4941c2.0606-11.7618,3.8711-23.7539,5.7891-35.7325.98242-5.9843,1.8281-11.9902,2.6953-17.9687q1.30668-8.96775,2.5918-17.8418c1.6172-11.8301,3.07232-23.4922,4.5547-34.7656,1.2578-11.3042,2.47462-22.231,3.6269-32.5904.9278-10.3847,1.8086-20.2006,2.6192-29.2646.6543-9.0732,1.1113-17.4033,1.5937-24.7817.5625-7.376.6114-13.8233.791-19.1294.30282-10.6167.4786-16.6831.4786-16.6831s-.0723,6.0688-.1973,16.6884c-.0879,5.3096-.0293,11.7647-.4668,19.1509-.3555,7.3897-.6719,15.7324-1.1738,24.8272-.6602,9.0825-1.3731,18.9248-2.127,29.331-.9765,10.3906-2.0098,21.3486-3.0742,32.6821-1.293,11.3106-2.55468,23.0098-3.97068,34.8809q-1.13673,8.89455-2.291,17.9043c-.76962,6-1.51372,12.0273-2.39462,18.0352-1.7168,12.0234-3.3281,24.0644-5.18938,35.875q-1.35063,8.8623-2.67972,17.5625-1.3974,8.68065-2.7656,17.121"/>
      </g>
    </g>
  </g>
</svg>
