<svg xmlns="http://www.w3.org/2000/svg" xmlns:xlink="http://www.w3.org/1999/xlink" width="239.02273" height="258.3711" viewBox="0 0 239.02273 258.3711">
  <defs>
    <style>
      .cls-1 {
        fill: none;
      }

      .cls-2 {
        isolation: isolate;
      }

      .cls-3 {
        fill: #ffaa27;
      }

      .cls-4 {
        fill: #9d692c;
      }

      .cls-5 {
        clip-path: url(#clip-path);
      }

      .cls-6 {
        fill: #facd4a;
      }

      .cls-7 {
        fill: #a7c6b4;
        opacity: 0.2;
        mix-blend-mode: overlay;
      }
    </style>
    <clipPath id="clip-path" transform="translate(-0.0062 14.40864)">
      <path class="cls-1" d="M60.985,207.20076s-10.5835-55.8692-38.5259-72.3204c-27.9448-16.4521-26.7149-27.1279-13.1001-48.373,13.6099-21.2402,15.9204-40.6836,21.6475-61.9736,5.7255-21.2862,86.56929-50.3907,116.90179,19.5039l52.51121,33.6181,38.60939,14.6026a150.08417,150.08417,0,0,1-28.7915,23.3769c-16.5786,10.1016-25.2534,30.5821-35.5913,47.7188-10.3359,17.1406-38.7153,23.999-53.0654,20.5547-14.3521-3.4473-46.56639.0312-58.399,27.957-11.8325,27.9238-15.1381,32.0967-15.1381,32.0967l-5.0284-2.1309Z"/>
    </clipPath>
  </defs>
  <g class="cls-2">
    <g id="图层_2" data-name="图层 2">
      <g id="Layer_1" data-name="Layer 1">
        <g>
          <path class="cls-3" d="M200.41954,77.65576l-52.51121-33.6181C117.57583-25.85694,36.732,3.24756,31.00654,24.53376c-3.5987,13.3759-5.8521,26.0244-10.4029,38.8476a16.63463,16.63463,0,0,1,2.6743.8653c17.7769,7.5322,6.0957,35.0986-11.6801,27.5664a15.93342,15.93342,0,0,1-4.0318-2.4385c-11.8637,19.3672-11.7632,29.8115,14.8931,45.5058,27.9424,16.4512,38.5259,72.3204,38.5259,72.3204L43.28874,241.857a13.03152,13.03152,0,0,1,4.7549,2.1055c6.6865-13.5996,12.2236-25.2198,15.1381-32.0967,11.8326-27.9258,44.04689-31.4043,58.399-27.957a34.21533,34.21533,0,0,0,7.06981.8427c-3.62161-8.0195,4.03029-19.7939,14.50289-15.3564a10.35041,10.35041,0,0,1,6.4175,11.9717c10.1978-3.4239,19.8989-9.4287,25.0752-18.0127,8.4238-13.9668,15.7485-30.1494,27.1431-41.1289-.0391-.0166-.0772-.0215-.1148-.0371-3.8735-1.6416-1.2202-7.5967,2.647-5.9581a3.90551,3.90551,0,0,1,.3916.2227,3.12126,3.12126,0,0,1,4.1426-1.5957,3.4143,3.4143,0,0,1,.7094.4053,3.22859,3.22859,0,0,1,4.459-2.4961,3.04868,3.04868,0,0,1,.378.206,151.637,151.637,0,0,0,24.6269-20.7138ZM40.80434,63.42726a18.11265,18.11265,0,1,1,23.7441-9.6113A18.28152,18.28152,0,0,1,40.80434,63.42726Zm75.811,96.1992c-17.7763-7.5322-6.0962-35.0986,11.6807-27.5664C146.07293,139.59326,134.39223,167.15966,116.61533,159.62646Zm38.4107-23.0693c-6.62549-2.8076-2.08449-12.9902,4.5283-10.1895C166.17933,129.17536,161.63983,139.35986,155.026,136.55716Zm15.1782-7.4443c3.874,1.6416,1.2188,7.5957-2.646,5.957C163.68423,133.42926,166.33954,127.47606,170.20423,129.11286Zm-3.4795,16.4746c-3.8716-1.6407-1.21919-7.5957,2.648-5.9571C173.24473,141.27106,170.59143,147.22606,166.72473,145.58746Z" transform="translate(-0.0062 14.40864)"/>
          <path class="cls-4" d="M200.41954,77.65576l-52.51121-33.6181c-.3057-.7022-.6225-1.377-.9385-2.0596-16.726.9209-46.7285,8.7617-59.6865,51.04-18.458,60.2149-3.6924,78.8028-27.94139,124.3037a31.54514,31.54514,0,0,0-3.8237,11.2422c3.2719-6.8496,5.9316-12.6123,7.6635-16.6982,11.8326-27.9258,44.04689-31.4043,58.399-27.957a34.21533,34.21533,0,0,0,7.06981.8427c-3.62161-8.0195,4.03029-19.7939,14.50289-15.3564a10.35041,10.35041,0,0,1,6.4175,11.9717c10.1978-3.4239,19.8989-9.4287,25.0752-18.0127,8.4238-13.9668,15.7485-30.1494,27.1431-41.1289-.0391-.0166-.0772-.0215-.1148-.0371-3.8735-1.6416-1.2202-7.5967,2.647-5.9581a3.90551,3.90551,0,0,1,.3916.2227,3.12126,3.12126,0,0,1,4.1426-1.5957,3.4143,3.4143,0,0,1,.7094.4053,3.22859,3.22859,0,0,1,4.459-2.4961,3.04868,3.04868,0,0,1,.378.206,151.637,151.637,0,0,0,24.6269-20.7138Zm-83.80421,81.9707c-17.7763-7.5322-6.0962-35.0986,11.6807-27.5664C146.07293,139.59326,134.39223,167.15966,116.61533,159.62646Zm38.4107-23.0693c-6.62549-2.8076-2.08449-12.9902,4.5283-10.1895C166.17933,129.17536,161.63983,139.35986,155.026,136.55716Zm15.1782-7.4443c3.874,1.6416,1.2188,7.5957-2.646,5.957C163.68423,133.42926,166.33954,127.47606,170.20423,129.11286Zm-3.4795,16.4746c-3.8716-1.6407-1.21919-7.5957,2.648-5.9571C173.24473,141.27106,170.59143,147.22606,166.72473,145.58746Z" transform="translate(-0.0062 14.40864)"/>
          <g class="cls-5">
            <g>
              <path d="M72.29414,169.52786c-.1475-.8633-.2178-1.8496-.2984-2.9922-.5664-7.9961-1.6196-22.8769-33.9136-41.5107C1.10414,103.692.63394,78.70946.63294,78.46046l1.2139-.0049c.0005.2452.5185,24.5645,36.8413,45.5205,32.8525,18.9532,33.9341,34.2549,34.5185,42.4737.0767,1.1113.1451,2.0683.2833,2.872Z" transform="translate(-0.0062 14.40864)"/>
              <g>
                <path d="M12.87324,63.72126c.3823-.1368.7705-.2618,1.1679-.3633-1.9883-4.1416-2.9717-6.8037-3.0019-6.8867l-1.1397.4121C9.92934,56.96736,10.90494,59.607,12.87324,63.72126Z" transform="translate(-0.0062 14.40864)"/>
                <path d="M59.07144,113.20656c-4.7603-3.4424-10.1572-7.3437-16.1826-12.1357a90.87039,90.87039,0,0,1-14.0039-14.0586c-.2422.3349-.4981.6592-.7642.9765a91.80229,91.80229,0,0,0,14.0137,14.0313c6.0478,4.8096,11.4551,8.7187,16.227,12.1699,12.3203,8.9082,19.75739,14.2891,19.2891,21.8965l1.21089.0762C79.37123,127.88426,71.73114,122.36086,59.07144,113.20656Z" transform="translate(-0.0062 14.40864)"/>
              </g>
              <path d="M33.70274,57.94976a18.51212,18.51212,0,0,1-2.476-4.253,212.59493,212.59493,0,0,1-10.377-20.4326l-1.1196.4688c.2324.5537,23.5742,55.6767,62.57519,79.3965l.6308-1.0371C61.18474,98.86286,44.32774,75.74266,33.70274,57.94976Z" transform="translate(-0.0062 14.40864)"/>
              <g>
                <path d="M44.44054,29.024c-6.268-13.544-9.9047-23.6426-9.9965-23.8994l-1.1426.4062c.0913.2569,3.7051,10.291,9.9453,23.791C43.64274,29.21436,44.03774,29.105,44.44054,29.024Z" transform="translate(-0.0062 14.40864)"/>
                <path d="M60.65244,59.525c-.2905.2861-.5976.5537-.9067.8193,8.3994,13.5635,18.38329,26.4082,29.32759,34.1221l.6988-.9912C78.91273,85.82176,68.99724,73.02986,60.65244,59.525Z" transform="translate(-0.0062 14.40864)"/>
              </g>
              <path d="M93.28143,77.55616c-26.751-25.9795-42.105-86.6318-41.39409-88.3105l1.1177.4736-.5586-.2373.5991.0557c.0357,2.4677,14.7588,61.583,41.08009,87.1504Z" transform="translate(-0.0062 14.40864)"/>
              <path d="M104.89854,63.38036c-22.86621-21.5673-35.2514-71.0507-32.0278-77.789l1.0942.5224c-2.5864,5.4112,8.82129,54.7412,31.76519,76.3838Z" transform="translate(-0.0062 14.40864)"/>
              <path d="M115.319,51.774c-15.3833-20.1035-23.8814-62.4688-23.9659-62.8955l1.19-.2324c.084.4209,8.5298,42.5117,23.7387,62.3906Z" transform="translate(-0.0062 14.40864)"/>
              <path d="M127.43573,45.47126c-11.5679-23.6504-15.4458-40.7022-11.5245-50.6836a4.60793,4.60793,0,0,0,.2398-.6895.33523.33523,0,0,0,.0259.126l1.1255-.4551c.1572.3916.0078.7725-.2627,1.4639-3.7906,9.6484.0737,26.375,11.48481,49.7021Z" transform="translate(-0.0062 14.40864)"/>
            </g>
          </g>
          <path d="M60.985,207.20076,43.28874,241.857a18.54853,18.54853,0,0,1,4.7549,2.1055l16.5932-35.2149c7.6861-16.8008,10.2246-35.8506,21.58649-101.5273,11.3564-65.6758,71.7324-65.126,71.7324-65.126-58.2837-14.8154-79.6568,55.8399-81.80619,95.1152A231.1557,231.1557,0,0,1,60.985,207.20076Z" transform="translate(-0.0062 14.40864)"/>
          <path d="M147.90833,44.03766c-5.3022-12.2198-12.1523-21.4024-19.8721-28.1416.3194.6162,26.9502,52.5361,4.6651,94.8252,0,0,49.1206-22.6123,100.3657-12.5821,3.77251-3.5019,5.9619-5.8808,5.9619-5.8808l-38.60939-14.6026Z" transform="translate(-0.0062 14.40864)"/>
          <g>
            <path class="cls-6" d="M134.97423,22.91066s23.9556,30.3574,6.9605,81.3477c0,0,26.0366-15.3203,53.5151-14.875,27.48.4424,43.5791,2.875,43.5791,2.875s-11.9805-16.5567-31.3633-22.8994c-19.3794-6.3438-26.2104-11.212-29.5957-16.4356C174.68273,47.69976,158.55433,29.87746,134.97423,22.91066Z" transform="translate(-0.0062 14.40864)"/>
            <path class="cls-3" d="M166.69643,40.74856c-7.605-6.6006-18.4912-13.9287-31.7222-17.8379,0,0,23.9556,30.3574,6.9605,81.3477C169.94593,84.38726,171.83954,60.108,166.69643,40.74856Z" transform="translate(-0.0062 14.40864)"/>
          </g>
          <path class="cls-7" d="M131.90393,116.75346s-48.2681,38.5088-48.2881,53.3223c-.0185,14.8115,44.6992,4.1171,57.8994-10.7139C154.71743,144.53566,151.30283,100.06106,131.90393,116.75346Zm-15.2886,42.873c-17.7763-7.5322-6.0962-35.0986,11.6807-27.5664C146.07293,139.59326,134.39223,167.15966,116.61533,159.62646Z" transform="translate(-0.0062 14.40864)"/>
          <path class="cls-7" d="M176.88393,106.98976s-20.8828-3.9658-19.6987,3.7315c1.187,7.6933,21.8379,12.9863,25.0776,11.5586C185.50254,120.85306,191.80923,109.857,176.88393,106.98976Z" transform="translate(-0.0062 14.40864)"/>
        </g>
      </g>
    </g>
  </g>
</svg>
