<svg xmlns="http://www.w3.org/2000/svg" width="189.5548" height="281.97547" viewBox="0 0 189.5548 281.97547">
  <defs>
    <style>
      .cls-1 {
        fill: #ddc862;
      }

      .cls-2 {
        fill: #ad9e45;
      }
    </style>
  </defs>
  <g id="图层_2" data-name="图层 2">
    <g id="Layer_1" data-name="Layer 1">
      <g>
        <rect x="-22.85205" y="238.31774" width="94.36324" height="3.24707" transform="translate(-197.26279 144.75427) rotate(-60.96373)"/>
        <g>
          <path class="cls-1" d="M188.75879,62.50377a20.46632,20.46632,0,0,0-1.7207-4.1811,10.40273,10.40273,0,0,1-17.6968-10.6919,20.52582,20.52582,0,0,0-5.9405.7841l-11.4243,3.2657,11.7764-21.2017a20.51393,20.51393,0,0,0-35.86619-19.9224l-12.7715,22.9986-4.064-14.2168A20.51323,20.51323,0,0,0,71.604,30.61167l14.6176,51.1455a20.31539,20.31539,0,0,0,.8316,2.3179l-.8218,1.479L82.166,71.33927a20.513,20.513,0,1,0-39.4458,11.2763l14.6162,51.1446a21.10841,21.10841,0,0,0,.831,2.3164l-.8198,1.4804-4.0674-14.2158a20.51068,20.51068,0,0,0-19.6997-14.8657c3.1753,3.5532,1.6685,10.8218-4.5376,10.8218-4.7856,0-6.7607-4.3189-5.9682-7.9302a20.52849,20.52849,0,0,0-5.6909,5.0493,4.46326,4.46326,0,0,1,.7719-.0767c5.3867,0,5.3867,8.354,0,8.354a3.80885,3.80885,0,0,1-3.8247-2.7949,20.34005,20.34005,0,0,0-.4946,12.7198l14.6162,51.1401a20.43805,20.43805,0,0,0,9.7637,12.2988,20.71775,20.71775,0,0,0,6.5512,2.2754,20.42137,20.42137,0,0,0,20.9927,6.1543l30.1323-8.6152a8.19816,8.19816,0,1,1,15.7564-4.5078l5.2563-1.4961a20.51431,20.51431,0,0,0-11.2739-39.4493l-11.4267,3.2657.7138-1.2813,37.86619-10.8222c-.2871-3.8985,2.063-8.0308,7.1075-8.0308a6.69787,6.69787,0,0,1,6.4594,4.1226,20.50274,20.50274,0,0,0-11.8344-39.2564L123.0927,103.682l.7095-1.2802,31.93409-9.128c-3.2324-4.2514-1.3809-12.1543,5.5996-12.1543,5.2622,0,7.6069,4.4981,7.0659,8.5362l6.271-1.7945A20.50874,20.50874,0,0,0,188.75879,62.50377ZM82.019,194.288a2.84893,2.84893,0,1,1-1.105-3.875A2.84664,2.84664,0,0,1,82.019,194.288Zm8.2119-163.3477a4.55816,4.55816,0,1,1-1.7724-6.2007A4.56253,4.56253,0,0,1,90.2309,30.94027Z"/>
          <path class="cls-2" d="M188.75879,62.50767a20.46632,20.46632,0,0,0-1.7207-4.1811,10.40268,10.40268,0,0,1-17.6968-10.6919,20.52926,20.52926,0,0,0-5.9405.7841l-11.4243,3.2657,11.7764-21.2012a20.51405,20.51405,0,1,0-35.86619-19.9229l-12.7715,22.9971-4.064-14.2153a20.50445,20.50445,0,0,0-39.1015-1.0586,20.47752,20.47752,0,0,1,28.3325,20.3682,7.50623,7.50623,0,0,1,1.0112,3.6792,85.79561,85.79561,0,0,0,1.3526,12.9624,7.67536,7.67536,0,0,1,.6274,3.2016c0,.0342-.0039.0689-.0039.1006,1.3472,6.5523,3.2144,13.0073,5.1514,19.4614a10.38061,10.38061,0,0,0,12.6362-3.0478,20.48048,20.48048,0,0,1-12.3662,29.5381l-12.9063,3.6884a6.99961,6.99961,0,0,1-.3711,1.7637,83.534,83.534,0,0,1-5.8398,13.3067,20.48038,20.48038,0,0,1-9.7656,33.2456L66.4428,160.37c-.0263.1465-.0273.2891-.061.4317-1.1821,5.0371-4.1807,9.0156-7.1035,13.0937a20.19053,20.19053,0,0,1,6.501,14.207c.1836-.0136.3501-.0546.542-.0546,8.2114,0,8.2114,12.7343,0,12.7343a6.0822,6.0822,0,0,1-3.6402-1.1074,20.48727,20.48727,0,0,1-7.354,7.0234,20.40757,20.40757,0,0,0,10.4331-.2089l30.1323-8.6133a8.198,8.198,0,1,1,15.7564-4.5059l5.2563-1.498a20.51426,20.51426,0,0,0-11.2739-39.4492l-11.4267,3.2675.7138-1.2812,37.86619-10.8242c-.2885-3.8985,2.0611-8.0347,7.1075-8.0347a6.69905,6.69905,0,0,1,6.4614,4.1265,20.5028,20.5028,0,0,0-11.8364-39.2559l-11.42439,3.2651.7095-1.2802,31.93609-9.128c-3.2349-4.2529-1.38429-12.1582,5.5976-12.1582,5.2642,0,7.6089,4.4995,7.0659,8.5401l6.271-1.7945A20.50874,20.50874,0,0,0,188.75879,62.50767ZM86.4467,169.50867c-6.1684,0-6.1684-9.5684,0-9.5684S92.6152,169.50867,86.4467,169.50867Zm63.01179-52.6216c9.78851,0,9.78851,15.1777,0,15.1777C139.67089,132.06477,139.67089,116.88707,149.45849,116.88707Zm-6.9278-49.1538c-9.7881,0-9.7881-15.1792,0-15.1792C152.31829,52.55407,152.31829,67.73327,142.53069,67.73327Z"/>
          <g>
            <path d="M47.9355,198.83487a2.098,2.098,0,0,1-1.8306-3.1172l98.94189-178.1304a2.09647,2.09647,0,0,1,3.667,2.0332L49.77,197.75477A2.09546,2.09546,0,0,1,47.9355,198.83487Z"/>
            <path d="M110.2578,85.22107a2.09738,2.09738,0,0,1-2.042-1.6206L94.8891,26.21617a2.0971,2.0971,0,0,1,4.0855-.9487l13.3257,57.3828a2.09383,2.09383,0,0,1-1.5655,2.5166A2.036,2.036,0,0,1,110.2578,85.22107Z"/>
            <rect x="111.9409" y="72.69684" width="55.43799" height="4.19616" transform="translate(-13.90549 35.84831) rotate(-13.94023)"/>
            <path d="M78.7641,142.72157a2.09789,2.09789,0,0,1-2.0415-1.6231L63.3921,83.72107a2.09715,2.09715,0,0,1,4.0849-.9517l13.3301,57.3799a2.0952,2.0952,0,0,1-1.5659,2.5176A2.00576,2.00576,0,0,1,78.7641,142.72157Z"/>
            <path d="M84.2695,134.86267a2.09792,2.09792,0,0,1-.5049-4.1338l53.80319-13.373a2.09757,2.09757,0,0,1,1.01221,4.0712l-53.8042,13.375A2.13382,2.13382,0,0,1,84.2695,134.86267Z"/>
            <path d="M49.5708,194.204a2.099,2.099,0,0,1-2.0415-1.6211l-13.3282-57.3852a2.09678,2.09678,0,0,1,4.0845-.9502l13.3281,57.3862a2.0939,2.0939,0,0,1-1.5669,2.5156A1.991,1.991,0,0,1,49.5708,194.204Z"/>
            <path d="M54.0962,187.29377a2.09618,2.09618,0,0,1-.5044-4.1308l53.7988-13.375a2.09726,2.09726,0,0,1,1.0132,4.0703l-53.7989,13.375A2.07069,2.07069,0,0,1,54.0962,187.29377Z"/>
          </g>
        </g>
      </g>
    </g>
  </g>
</svg>
