<svg xmlns="http://www.w3.org/2000/svg" width="253.25779" height="206.1264" viewBox="0 0 253.25779 206.1264">
  <defs>
    <style>
      .cls-1 {
        fill: #facd4a;
      }

      .cls-2 {
        fill: #ffaa27;
      }

      .cls-3 {
        fill: #9d692c;
      }
    </style>
  </defs>
  <g id="图层_2" data-name="图层 2">
    <g id="Layer_1" data-name="Layer 1">
      <g>
        <path class="cls-1" d="M125.9365,29.145c2.437,4.8877.1118,12.2944-7.022,12.2944-4.8901,0-7.5034-3.4888-7.8964-7.2554-15.92,5.7505-29.55519,12.0347-38.3663,18.6954-40.1606,30.3867-52.247,82.0752-27.0004,115.4555,14.0654,18.5928,36.7661,27.564,61.059,26.6157-5.3901-6.1528-2.7583-18.5947,7.9024-18.5947,9.4482,0,12.583,9.7725,9.4233,16.2788,2.6382-.6035,5.2725-1.3589,7.9019-2.1928-3.8755-3.9244-2.2578-12.4605,4.9018-12.4605,4.9522,0,7.2373,4.0908,6.9102,7.915a108.7924,108.7924,0,0,0,20.3223-12.1484c14.8935-11.2651,30.999-38.0566,45.37449-67.313a7.98505,7.98505,0,0,1-2.3428.3677c-9.86479,0-9.86479-15.2983,0-15.2983a6.97576,6.97576,0,0,1,7.02392,5.1909q1.63332-3.46515,3.22558-6.9409c-18.8711-1.9434-18.22458-32.2085,1.9409-32.2085a15.14143,15.14143,0,0,1,10.4658,3.7807C243.78559,27.7002,253.25779,0,253.25779,0S181.5322,11.4985,125.9365,29.145ZM44.706,127.8632c-10.2202,0-10.2202-15.8491,0-15.8491S54.9263,127.8632,44.706,127.8632Zm3.5855-20.0942c-6.0347,0-6.0347-9.3579,0-9.3579C54.3267,98.4111,54.3267,107.769,48.2915,107.769Zm15.0571,9.668c-9.7192,0-9.7192-15.0713,0-15.0713C73.0674,102.3657,73.0674,117.437,63.3486,117.437Zm41.5845-58.3316c-7.9907,0-7.9907-12.3906,0-12.3906S112.9238,59.1054,104.9331,59.1054Zm88.1894,18.6421c-7.9897,0-7.9897-12.3916,0-12.3916C201.11379,65.3559,201.11379,77.7475,193.1225,77.7475Z"/>
        <path class="cls-2" d="M125.936,29.1425c2.4375,4.8863.1143,12.2969-7.0215,12.2969-4.89059,0-7.5044-3.4907-7.8964-7.2578-15.9224,5.751-29.563,12.0352-38.375,18.6978-35.4195,26.8002-48.9834,70.163-34.3765,102.9272a76.24362,76.24362,0,0,1,.583-30.5742c-3.3286-4.083-2.0308-11.6143,3.894-12.9868.7325-1.9126,1.542-3.812,2.4102-5.6978-2.5747-2.5288-1.5405-8.1367,3.1377-8.1367a5.21517,5.21517,0,0,1,1.0283.102A105.62583,105.62583,0,0,1,77.1431,67.2187c5.6211-4.249,13.2334-8.3393,22.1196-12.2407-1.1123-3.604.7685-8.2632,5.6704-8.2632a5.62548,5.62548,0,0,1,5.519,3.6987C155.4087,33.29,222.15279,20.562,247.48491,16.0898,251.15579,6.123,253.24949,0,253.24949,0S181.5298,11.497,125.936,29.1425Z"/>
        <path class="cls-3" d="M223.68069,5.3242c-7.9571,19.3193-17.5425,40.9829-27.77689,60.6587,5.05219,2.4995,4.13379,11.7646-2.7813,11.7646a6.02442,6.02442,0,0,1-3.102-.8179c-11.1509,20.0328-22.82859,36.8628-33.8452,45.1954-35.4033,26.7749-80.7861,28.0439-108.332,5.1264a8.06515,8.06515,0,0,1-3.1373.6118c-6.57709,0-8.8964-6.5517-7.0087-11.2319-1.2657-1.6807-2.4165-3.415-3.4942-5.1831-4.2368,20.2578-.7895,40.7192,11.438,56.8867,14.0664,18.5947,36.772,27.5674,61.0693,26.6157-5.3901-6.1528-2.7583-18.5947,7.9024-18.5947,9.4463,0,12.582,9.7695,9.4238,16.2754,2.6377-.6035,5.27-1.3584,7.8975-2.1919-3.8716-3.9267-2.2525-12.458,4.9057-12.458,4.9497,0,7.2349,4.0874,6.9102,7.9092a108.76768,108.76768,0,0,0,20.312-12.1426c14.8926-11.2651,30.998-38.0547,45.37059-67.3086a7.9561,7.9561,0,0,1-2.3286.3633c-9.86479,0-9.86479-15.2983,0-15.2983a6.97866,6.97866,0,0,1,7.021,5.1748q1.6281-3.4563,3.2173-6.9268c-18.85838-1.9531-18.21-32.2065,1.9521-32.2065a15.15272,15.15272,0,0,1,10.46,3.7749C243.77729,27.6958,253.24749,0,253.24749,0S241.42769,1.8955,223.68069,5.3242Z"/>
        <g>
          <g>
            <polygon points="151.485 84.258 167.318 40.158 170.147 41.172 155.665 81.47 196.394 83.486 196.244 86.466 151.485 84.258"/>
            <polygon points="115.292 111.682 124.249 48.207 127.219 48.627 118.686 109.119 179.187 117.659 178.763 120.632 115.292 111.682"/>
            <polygon points="80.289 141.68 90.005 62.711 92.981 63.079 83.606 139.309 153.739 153.973 153.124 156.892 80.289 141.68"/>
          </g>
          <polygon points="0 203.782 214.858 33.097 216.731 35.459 1.872 206.126 0 203.782"/>
        </g>
      </g>
    </g>
  </g>
</svg>
