<svg xmlns="http://www.w3.org/2000/svg" xmlns:xlink="http://www.w3.org/1999/xlink" width="260.55859" height="236.4111" viewBox="0 0 260.55859 236.4111">
  <defs>
    <style>
      .cls-1 {
        fill: none;
      }

      .cls-2 {
        fill: #685e26;
      }

      .cls-3 {
        fill: #aea349;
      }

      .cls-4 {
        clip-path: url(#clip-path);
      }
    </style>
    <clipPath id="clip-path" transform="translate(0 13.51829)">
      <path class="cls-1" d="M233.70221,192.11941s-15.18752-19.4043-64.96491-25.7324c-49.7778-6.3282-90.6963-27.8418-113.476-76.3536C32.482,41.52171,0,.60281,0,.60281s137.521-8.8584,184.7686,41.3408c31.79829,33.7856,24.46579,35.4341,45.13669,46.4023C259.01169,108.59451,254.37209,170.60571,233.70221,192.11941Z"/>
    </clipPath>
  </defs>
  <g id="图层_2" data-name="图层 2">
    <g id="Layer_1" data-name="Layer 1">
      <g>
        <path class="cls-2" d="M229.90529,88.34591c-19.3398-10.2622-14.1689-12.3681-39.46629-40.2675a13.94127,13.94127,0,1,1-20.4976-18.3262C113.82421-6.72679,0,.60281,0,.60281a528.74946,528.74946,0,0,1,41.4536,62.7231,7.761,7.761,0,0,1,7.2491-4.2441c11.0307,0,11.0307,17.1059,0,17.1059-.104,0-.2002-.0122-.3023-.0151q1.86765,3.5955,3.6856,7.27a9.66314,9.66314,0,0,1,7.958-3.6841c13.3291,0,13.6035,20.2178.8403,21.0772,18.9541,32.9497,47.5068,51.5259,81.85691,60.5708-3.74261-5.3301-1.35641-14.834,7.16119-14.834,10.2383,0,11.61181,13.7266,4.1352,17.4316q7.2093,1.4298,14.6997,2.3829c49.77739,6.3281,64.96491,25.7324,64.96491,25.7324C254.37209,170.60571,259.01169,108.59451,229.90529,88.34591ZM67.0235,77.94951c-9.9278,0-9.9278-15.3951,0-15.3951C76.9507,62.55441,76.9507,77.94951,67.0235,77.94951Zm66.3032,68.2031a12.2141,12.2141,0,1,1,12.2134-12.2149A12.32827,12.32827,0,0,1,133.3267,146.15261ZM146.4126,55.448a13.98585,13.98585,0,1,1,13.9859-13.9859A14.1164,14.1164,0,0,1,146.4126,55.448Zm13.9585,86.521c-11.48289,0-11.48289-17.8071,0-17.8071C171.8545,124.16191,171.8545,141.969,160.3711,141.969Zm6.9795-70.3926c-11.8345,0-11.8345-18.3525,0-18.3525S179.1851,71.57641,167.3506,71.57641Z" transform="translate(0 13.51829)"/>
        <path class="cls-3" d="M190.4375,48.08031a13.94115,13.94115,0,1,1-20.4961-18.3281C113.82421-6.72679,0,.60281,0,.60281s151.1236,69.3559,201.76369,139.0849l19.104-56.7466C211.42239,76.23851,210.70849,70.43821,190.4375,48.08031ZM146.4126,55.448a13.98585,13.98585,0,1,1,13.9859-13.9859A14.1164,14.1164,0,0,1,146.4126,55.448Zm20.938,16.1284c-11.8345,0-11.8345-18.3525,0-18.3525S179.1851,71.57641,167.3506,71.57641Z" transform="translate(0 13.51829)"/>
        <path class="cls-3" d="M229.90529,88.34591c-6.7832-3.5986-10.5508-6.1948-13.6758-9.2514l-11.0615,64.6792c1.6543-.7598,22.8135,22.1211,28.999,47.8418C254.437,169.66041,258.792,108.44021,229.90529,88.34591Z" transform="translate(0 13.51829)"/>
        <path class="cls-2" d="M229.90529,88.34591c-15.4053-8.1738-15.2607-11.1753-27.3486-26.1577-.419,15.6196-2.2534,40.1255-8.82129,65.0171l20.86519,24.5899s17.7095-20.6504,21.1953-58.3169A36.89646,36.89646,0,0,0,229.90529,88.34591Z" transform="translate(0 13.51829)"/>
        <path class="cls-3" d="M146.5366,86.261,67.273,82.60621c5.5014,5.6006,3.375,17.5659-6.3814,18.2285a127.53649,127.53649,0,0,0,18.4815,24.7979l99.7646-12.5206Z" transform="translate(0 13.51829)"/>
        <path d="M234.21289,221.81081s.0274-.0781.0786-.2344c.0391-.1328.0952-.332.1704-.5957.1431-.5586.3511-1.4375.5352-2.6055a46.95927,46.95927,0,0,0,.356-10.3867,75.19783,75.19783,0,0,0-3.00588-16.0898,109.00022,109.00022,0,0,0-8.23392-19.7657q-.6921-1.3065-1.4004-2.6367-.3552-.668-.7124-1.3379-.3933-.65625-.792-1.3125-1.59-2.63955-3.2392-5.373c-1.1553-1.7891-2.396-3.5645-3.6206-5.3945-.6221-.9043-1.2232-1.8379-1.876-2.7442q-1.0071-1.3389-2.0283-2.6992a249.791,249.791,0,0,0-18.378-21.8379q-2.611-2.6484-5.2641-5.3403c-1.774-1.7852-3.51709-3.6319-5.4107-5.3467q-2.7963-2.61765-5.6225-5.2686c-.9488-.8769-1.8726-1.7841-2.8472-2.6406q-1.4685-1.27875-2.9443-2.5605c-3.9429-3.4107-7.8526-6.9258-12.00739-10.1851-4.10931-3.312-8.17821-6.7119-12.45361-9.8496-8.3857-6.4897-17.06739-12.5879-25.6386-18.5493q-6.51795-4.34175-12.9175-8.603c-2.11229-1.4458-4.2959-2.7544-6.42729-4.1075q-3.21016-2.0127-6.372-3.9965-3.16126-1.982-6.26621-3.9297c-2.0815-1.2818-4.1796-2.4873-6.2353-3.7149q-6.18165-3.65985-12.0781-7.1494c-7.9107-4.5395-15.4722-8.6909-22.4107-12.5991-7.0342-3.7315-13.4814-7.1524-19.1972-10.1851-1.4322-.7534-2.8072-1.5014-4.1534-2.188q-2.02513-1.0188-3.9018-1.9629c-2.501-1.2573-4.7988-2.4135-6.8735-3.4565C4.7437,2.98851,0,.60281,0,.60281s4.7681,2.3388,13.1094,6.4306c2.0859,1.0235,4.395,2.1563,6.9082,3.3892q1.8867.92505,3.9229,1.9248c1.353.6738,2.7368,1.4082,4.17571,2.1475,5.74759,2.976,12.231,6.3344,19.30569,9.998,6.978,3.8399,14.5859,7.919,22.54831,12.3833q5.92753,3.4299,12.15969,7.0347c2.07031,1.208,4.1821,2.3955,6.27831,3.6572q3.12824,1.9182,6.313,3.8726,3.18539,1.9533,6.42039,3.9384c2.1494,1.3335,4.3482,2.6226,6.479,4.0503q6.4431,4.199,13.0264,8.4898c8.6484,5.8882,17.4116,11.9145,25.8896,18.3418,4.3194,3.1054,8.4371,6.4775,12.5962,9.7602,4.2027,3.2315,8.1656,6.7246,12.1622,10.1118q1.49625,1.27455,2.9848,2.5445c.9878.8525,1.9273,1.7549,2.8892,2.6269q2.8689,2.63385,5.709,5.2442c1.9213,1.706,3.6958,3.5468,5.5019,5.3291q2.6982,2.6835,5.3555,5.3276a252.23382,252.23382,0,0,1,18.78319,21.875q1.04805,1.36815,2.082,2.7149c.6694.9121,1.2901,1.8515,1.9321,2.7656,1.2593,1.8437,2.5372,3.6347,3.7281,5.4394q1.70505,2.7657,3.3501,5.4356.4116.66495.8198,1.3281c.24852.4531.4956.9063.7427,1.3555q.736,1.35345,1.455,2.6777a111.90489,111.90489,0,0,1,8.6499,20.2149,78.24683,78.24683,0,0,1,3.295,16.7519,50.14319,50.14319,0,0,1-.2793,11.125c-.1924,1.291-.4107,2.2754-.5811,2.9648-.1006.3555-.1753.6231-.2265.8047-.0494.1543-.0748.2344-.0748.2344Z" transform="translate(0 13.51829)"/>
        <g class="cls-4">
          <g>
            <path d="M260.55859,67.39431s-.25338,1.8564-.7002,5.105c-.4648,3.246-1.1225,7.8852-2.0307,13.4331-1.8062,11.0966-4.4263,25.8642-7.6299,40.5151-.80758,3.6582-1.6665,7.3086-2.544,10.8926-.8759,3.5859-1.791,7.1015-2.7109,10.4941q-.7134,2.5371-1.3989,4.9824-.72885,2.43165-1.4209,4.75-.7368,2.3028-1.4317,4.4707c-.49218,1.4336-.9658,2.8204-1.4228,4.1485q-.7332,1.98045-1.3989,3.7851c-.482,1.1895-.9419,2.3145-1.3716,3.3731-.9151,2.0957-1.7071,3.9238-2.46388,5.3808-.70512,1.4805-1.34622,2.5997-1.78032,3.3614l-.6601,1.1738s.2231-.4102.6426-1.1836c.42482-.7676,1.04982-1.8945,1.73482-3.3848.73588-1.4648,1.501-3.3027,2.38528-5.4062.416-1.0625.8574-2.1934,1.3222-3.3848q.657-1.80765,1.37552-3.789.67452-1.99515,1.40038-4.1524c.4551-1.4433.9253-2.9375,1.4092-4.4707q.68265-2.31735,1.397-4.7519.6753-2.44335,1.3755-4.9883c.9013-3.3926,1.8007-6.9082,2.6577-10.4942.8608-3.5859,1.69922-7.2363,2.4931-10.8984,3.2696-14.6245,5.9585-29.3745,7.8174-40.46.9248-5.5439,1.6885-10.1655,2.1861-13.4067C260.27929,69.24681,260.55859,67.39431,260.55859,67.39431Z" transform="translate(0 13.51829)"/>
            <path d="M228.01369,174.40061l-.3901-.1601c14.0444-34.0938,10.9497-94.5274,10.916-95.1348l.4223-.0225C238.99421,79.69071,242.09379,140.22091,228.01369,174.40061Z" transform="translate(0 13.51829)"/>
            <path d="M218.74269,162.45141l-.4141-.0801c7.378-37.2553-3.6582-107.7348-3.77238-108.4424l.41748-.0664C215.086,54.57051,226.13429,125.12381,218.74269,162.45141Z" transform="translate(0 13.51829)"/>
            <path d="M207.897,145.32841l-.4165-.0664c5.55472-33.8804-8.8516-103.5596-8.998-104.2598l.414-.0869C199.04149,41.61641,213.46339,111.37281,207.897,145.32841Z" transform="translate(0 13.51829)"/>
            <path d="M189.9287,48.80931c-.123.1675-.2436.3369-.374.4981,2.437,24.3369,5.6914,62.9365,3.9702,81.3003l.42.039C195.6797,112.13651,192.3721,73.13351,189.9287,48.80931Z" transform="translate(0 13.51829)"/>
            <g>
              <path d="M184.0845,27.71361c-.2261-1.7388-.3618-2.7358-.3726-2.8135l-.4179.0581c.01021.0738.1347.9883.3427,2.5889C183.78521,27.60521,183.9385,27.65161,184.0845,27.71361Z" transform="translate(0 13.51829)"/>
              <path d="M186.5049,52.13211c2.3184,22.1367,4.8291,52.9736,3.53031,73.4878l.42039.0263c1.3057-20.6181-1.231-51.6386-3.5571-73.8095C186.7666,51.93431,186.64021,52.03931,186.5049,52.13211Z" transform="translate(0 13.51829)"/>
            </g>
            <g>
              <path d="M165.3413,53.41971c-1.9829-23.5078-4.643-45.0113-4.6899-45.3902l-.4175.0518c.0464.3799,2.7105,21.9184,4.6934,45.4399C165.065,53.48661,165.1988,53.448,165.3413,53.41971Z" transform="translate(0 13.51829)"/>
              <path d="M166.2525,71.52031c.729,11.9331,1.0605,23.1098.5483,30.9453l.4199.0278c.5127-7.8413.1826-19.0171-.5459-30.9502C166.5347,71.53441,166.3887,71.53391,166.2525,71.52031Z" transform="translate(0 13.51829)"/>
            </g>
            <g>
              <path d="M159.2198,58.54711c-.3204-3.3091-.6719-6.5308-1.0455-9.6211-.1142.1782-.2304.354-.352.5264.3896,3.2666.7441,6.6352,1.0664,10.0527A9.82167,9.82167,0,0,1,159.2198,58.54711Z" transform="translate(0 13.51829)"/>
              <path d="M159.521,66.91871a279.561,279.561,0,0,1,.711,30.7876l.4209.0161a277.62248,277.62248,0,0,0-.6548-29.9644A8.89534,8.89534,0,0,1,159.521,66.91871Z" transform="translate(0 13.51829)"/>
              <path d="M149.7647,2.71651l-.1822.0855c.314.6699,2.9795,11.77,5.585,27.8257.1655.1347.3218.2798.481.4218-2.4341-15.0185-5.1001-26.6899-5.6836-28.3378a.59587.59587,0,0,0-.0928-.1978l-.2153-.0034-.1128.2012h.2197Z" transform="translate(0 13.51829)"/>
            </g>
            <path d="M102.9341,57.17261c-4.939-23.7759-14.5278-69.0742-15.458-70.3364l.14311-.106-.08351-.2485.1889.0205c1.0108.5801,12.2129,54.1728,15.62361,70.5849Z" transform="translate(0 13.51829)"/>
            <rect x="83.54114" y="-6.96637" width="0.42148" height="54.93227" transform="translate(-2.26295 28.01243) rotate(-9.75979)"/>
            <rect x="69.2881" y="-5.40255" width="0.4214" height="45.33658" transform="translate(-2.01738 27.09283) rotate(-10.99706)"/>
            <polygon points="9.176 35.632 9.104 35.216 34.339 30.964 28.199 2.776 28.611 2.686 34.844 31.307 9.176 35.632"/>
            <polygon points="11.42 52.436 11.362 52.019 59.871 45.385 59.929 45.803 11.42 52.436"/>
            <rect x="14.96829" y="41.09558" width="50.98806" height="0.42166" transform="translate(-8.93678 24.77227) rotate(-14.27679)"/>
            <rect x="22.90003" y="45.09265" width="47.96805" height="0.42238" transform="matrix(0.94612, -0.32382, 0.32382, 0.94612, -12.14416, 31.14141)"/>
            <g>
              <path d="M74.2315,68.22921c13.8579-2.1709,27.7783-4.3618,37.11471-5.8335l-.06641-.4165c-.3823.0606-18.0815,2.8496-37.1601,5.8379C74.15921,67.95381,74.1983,68.09061,74.2315,68.22921Z" transform="translate(0 13.51829)"/>
              <path d="M59.5845,70.08911c-1.0298.1606-2.0537.3203-3.0645.478-.0483.1533-.1015.3037-.1582.4541q1.5924-.24825,3.2261-.5029C59.584,70.37521,59.5811,70.23221,59.5845,70.08911Z" transform="translate(0 13.51829)"/>
              <path d="M41.97321,72.82591c-8.63821,1.335-14.625,2.2417-14.96241,2.2456l-.0117.2095-.0606.2021.0166.0015c.3828,0,6.4268-.9092,15.3047-2.2773C42.1621,73.08181,42.063,72.95731,41.97321,72.82591Z" transform="translate(0 13.51829)"/>
            </g>
            <g>
              <path d="M70.5454,77.14961l48.8726-9.8525-.0855-.4141-47.7504,9.6275A6.70822,6.70822,0,0,1,70.5454,77.14961Z" transform="translate(0 13.51829)"/>
              <path d="M65.2915,77.77861l-31.1631,6.2827.0845.4131,32.4536-6.5425A8.49245,8.49245,0,0,1,65.2915,77.77861Z" transform="translate(0 13.51829)"/>
            </g>
            <rect x="37.82289" y="99.45518" width="111.93481" height="0.42165" transform="translate(-17.97887 34.2059) rotate(-11.49385)"/>
            <path d="M57.9341,117.66381l-.0254-.4189c1.0894-.1788,93.5073-24.2608,94.44-24.5039l.1064.4072C136.7466,97.24291,58.3623,117.66381,57.9341,117.66381Z" transform="translate(0 13.51829)"/>
            <polygon points="74.181 142.276 74.028 141.882 159.057 109.343 159.209 109.736 74.181 142.276"/>
            <g>
              <path d="M149.9024,146.57251a10.44444,10.44444,0,0,1,1.5156.1191c15.895-2.4765,32.3906-5.5527,48.17969-9.3593l-.0977-.4102c-16.48969,3.9746-33.74949,7.1543-50.29,9.6836C149.4385,146.592,149.6641,146.57251,149.9024,146.57251Z" transform="translate(0 13.51829)"/>
              <path d="M147.47321,146.86941c-46.65771,7.0332-87.12411,8.9023-87.57381,8.9023v.4219c.4439,0,39.8384-1.8203,85.709-8.6191A8.39594,8.39594,0,0,1,147.47321,146.86941Z" transform="translate(0 13.51829)"/>
            </g>
            <g>
              <path d="M158.6963,154.50021c13.9268-3.373,29.06791-7.3867,45.19729-12.1523l-.1201-.4063c-16.10449,4.7598-31.22219,8.7657-45.12889,12.1368C158.667,154.217,158.67921,154.35961,158.6963,154.50021Z" transform="translate(0 13.51829)"/>
              <path d="M141.2979,158.10181c-46.5835,10.3203-75.7378,12.8242-76.1402,12.8574l.0342.4199c.4029-.0332,29.586-2.539,76.2095-12.8671Q141.34575,158.30681,141.2979,158.10181Z" transform="translate(0 13.51829)"/>
            </g>
            <path d="M138.5435,181.56081c-.65329,0-1.2891-.0039-1.9116-.0098-18.89069-.209-28.1944-3.4023-28.2871-3.4336l.1406-.4004c.0913.0332,9.3496,3.209,28.1831,3.4121,17.3901.1895,46.7124-2.1836,87.70259-14.5683l.1206.4043C184.899,178.926,156.1641,181.56081,138.5435,181.56081Z" transform="translate(0 13.51829)"/>
            <path d="M159.2119,194.46511c-3.5874,0-6.9209-.1172-9.9726-.3067-20.0708-1.2539-32.5718-5.873-32.6943-5.9179l.1474-.3965c.1235.0469,12.5776,4.6465,32.59081,5.8945,18.46729,1.1504,47.336-.4004,79.97808-14.3281l.165.3906A179.006,179.006,0,0,1,159.2119,194.46511Z" transform="translate(0 13.51829)"/>
          </g>
        </g>
      </g>
    </g>
  </g>
</svg>
