<svg xmlns="http://www.w3.org/2000/svg" width="203.05369" height="202.7744" viewBox="0 0 203.05369 202.7744">
  <defs>
    <style>
      .cls-1 {
        fill: #685e26;
      }

      .cls-1, .cls-2, .cls-3 {
        fill-rule: evenodd;
      }

      .cls-2 {
        fill: #aea349;
      }

      .cls-3 {
        fill: none;
      }
    </style>
  </defs>
  <g id="图层_2" data-name="图层 2">
    <g id="Layer_1" data-name="Layer 1">
      <g>
        <rect x="141.69012" y="125.21807" width="3.9132" height="76.31967" transform="translate(-70.15183 123.16721) rotate(-38.02549)"/>
        <path d="M169.99949,188.728c3.0308,3.875,3.6763,8.4341,1.4429,10.1816-2.2344,1.7481-6.5044.023-9.5352-3.851-3.0322-3.8765-3.6787-8.4351-1.4429-10.1831C162.69719,183.1289,166.96729,184.853,169.99949,188.728Z"/>
        <g>
          <path class="cls-1" d="M191.30129,81.3745c-.9874-13.8369-6.1773-31.5767-21.2999-44.3071a11.13485,11.13485,0,0,1-11.0507,7.666c-11.0435,0-14.3326-11.9995-9.89109-19.1773-8.96151-3.0361-19.6851-4.8613-32.5914-4.9009-5.5327-.0156-10.7739-.1347-15.7519-.3334a18.57449,18.57449,0,0,1-36.0601-3.3887q-2.13855-.342-4.1626-.7012a9.77586,9.77586,0,0,1-19.0068-4.3828C22.3027,6.23,15.833,0,15.833,0s23.6821,28.6811-2.9356,115.3462c-6.1367,19.9809-.083,38.1196,10.0806,51.6821a9.60261,9.60261,0,0,1,9.4273-6.3071c11.9829,0,13.416,16.3437,4.311,20.27a65.55959,65.55959,0,0,0,7.7246,5.1665c-1.9937-4.105-.0166-10.27,5.9453-10.27,8.4297,0,8.9014,12.3286,1.4224,13.7207.2578.0942.5195.2002.7749.2871,50.8525,17.3633,67.5493-56.5723,67.5493-56.5723a113.04913,113.04913,0,0,0,34.31589-3.5254,9.78181,9.78181,0,1,1,10.9507-3.9492C180.457,118.9321,193.04829,105.8769,191.30129,81.3745ZM28.1059,122.0825a4.89284,4.89284,0,1,1,.8389-6.8677A4.8914,4.8914,0,0,1,28.1059,122.0825Zm9.7276-28.9204c9.3003,0,9.3003,14.4228,0,14.4228C28.5327,107.5849,28.5327,93.1621,37.8335,93.1621Zm7.1245,33.4214c-9.3008,0-9.3008-14.4229,0-14.4229C54.2583,112.1606,54.2583,126.5835,44.958,126.5835Z"/>
          <path class="cls-2" d="M36.272,10.1958C21.1391,5.0757,15.8335,0,15.8335,0s16.769,20.3174,6.2192,78.4072c.2852-1.1606.5987-2.3271.959-3.5C31.0488,48.7402,34.9014,27.3999,36.272,10.1958Z"/>
          <path class="cls-2" d="M66.5654,156.7231c-13.0112-4.4424-29.1929-17.1079-38.562-34.5752a4.88714,4.88714,0,1,1-3.9189-8.6885,59.4177,59.4177,0,0,1-3.1123-29.458c-1.9312,9.4859-4.5611,19.9053-8.0743,31.3448-6.1367,19.9809-.083,38.1196,10.0801,51.6816a9.60333,9.60333,0,0,1,9.4273-6.3066c11.9819,0,13.416,16.3432,4.311,20.27a65.55374,65.55374,0,0,0,7.7246,5.166c-1.9937-4.1045-.0156-10.2695,5.9453-10.2695,8.4297,0,8.9014,12.3286,1.4234,13.7207.2578.0942.5195.1997.7744.2871,39.727,13.5644,58.6084-28.5908,64.9692-47.6861C105.9565,155.5395,89.4004,164.5195,66.5654,156.7231Z"/>
          <path class="cls-2" d="M191.43649,84.3125c-.0244-.9624-.063-1.9375-.1343-2.938-.1499-2.0972-.4028-4.2891-.76459-6.5347a10.72359,10.72359,0,1,0-17.55421,12.2647,10.66749,10.66749,0,0,0,5.3769,3.6635,124.05954,124.05954,0,0,1-37.6611,3.8682s-4.6968,20.7734-16.562,38.8315a112.75384,112.75384,0,0,0,30.31249-3.6699,9.782,9.782,0,1,1,10.9502-3.9492c14.0981-6.4756,26.03271-18.334,26.063-39.9297-.3609.1734-.7212.3477-1.0845.5147A10.64,10.64,0,0,0,191.43649,84.3125Z"/>
          <g>
            <path class="cls-3" d="M116.4682,20.6552c-5.5327-.0156-10.7739-.1347-15.7519-.3334a18.57449,18.57449,0,0,1-36.0601-3.3887q-2.13855-.342-4.1626-.7012a9.77586,9.77586,0,0,1-19.0068-4.3828C22.3027,6.23,15.833,0,15.833,0s23.6821,28.6811-2.9356,115.3462c-11.3032,36.8022,18.7178,67.3901,39.6861,74.5493,50.8525,17.3633,67.5493-56.5723,67.5493-56.5723a113.04913,113.04913,0,0,0,34.31589-3.5254,9.78181,9.78181,0,1,1,10.9507-3.9492c15.0576-6.9165,27.6489-19.9717,25.9019-44.4741C189.57179,57.1186,174.99709,20.833,116.4682,20.6552ZM28.1059,122.0825a4.89284,4.89284,0,1,1,.8389-6.8677A4.8914,4.8914,0,0,1,28.1059,122.0825Z"/>
            <g>
              <path d="M45.7173,35.4292l-1.5415,1.206A24.49746,24.49746,0,0,1,48.373,2.2837l1.2046,1.541A22.539,22.539,0,0,0,45.7173,35.4292Z"/>
              <path d="M48.1157,38.6777l-1.5425,1.2061a22.53842,22.53842,0,0,0-31.603-3.8609l-1.2061-1.541A24.49775,24.49775,0,0,1,48.1157,38.6777Z"/>
            </g>
            <g>
              <path d="M66.3237,61.7182l-1.5415,1.2061a37.44268,37.44268,0,0,1,6.4131-52.501l1.2061,1.541A35.48293,35.48293,0,0,0,66.3237,61.7182Z"/>
              <path d="M70.042,66.7544l-1.5425,1.206a35.48083,35.48083,0,0,0-49.7524-6.0761L17.541,60.3427A37.44232,37.44232,0,0,1,70.042,66.7544Z"/>
            </g>
            <g>
              <path d="M95.9321,99.9531l-1.5395,1.2051C83.0825,86.7021,80.0757,67.124,86.1479,47.4404c6.7852-22.0112,23.2622-39.1138,44.0767-45.7495l.5937,1.8647c-20.2006,6.4395-36.2021,23.0611-42.8017,44.461C82.1377,67.0791,85.0244,86.0088,95.9321,99.9531Z"/>
              <path d="M103.6572,109.601l-1.541,1.2046A71.96468,71.96468,0,0,0,1.206,98.4809L0,96.9394A73.92569,73.92569,0,0,1,103.6572,109.601Z"/>
            </g>
            <rect x="72.94569" y="-1.65513" width="1.95497" height="149.70325" transform="translate(-29.4003 61.08766) rotate(-38.0328)"/>
            <path d="M37.9995,118.9414C21.3569,123.9765,9.8481,133.0185,7.0781,145.164l1.9082.4351c2.6016-11.4131,13.4219-19.9233,29.1323-24.7485A8.39233,8.39233,0,0,1,37.9995,118.9414Z"/>
            <path d="M51.187,115.9731a7.73373,7.73373,0,0,1,.5859,1.8067c16.8174-2.5821,37.0899-1.8028,58.2095,3.0131l.4351-1.9082C88.9575,113.9912,68.3379,113.2553,51.187,115.9731Z"/>
            <path d="M147.70989,28.5952c-21.40519,9.7783-37.90029,46.8994-38.73969,91.4224l1.9575.0356c.8111-42.9639,16.2041-78.9072,36.31059-89.1235A13.63766,13.63766,0,0,1,147.70989,28.5952Z"/>
            <g>
              <path d="M29.9004,181.5718a9.86247,9.86247,0,0,1-1.8848-.6114c-1.4336,6.9829-.4438,12.4302,1.1265,14.4375l1.5415-1.206C29.5625,192.7593,28.6372,187.9692,29.9004,181.5718Z"/>
              <path d="M116.8091,128.2422c-46.6626,5.2129-68.8736,20.4848-79.4488,33.6401a9.096,9.096,0,0,1,1.6275,1.0913c10.3374-12.7905,32.1201-27.6558,78.0386-32.7871Z"/>
              <path d="M64.3076,202.4165l-1.9229.3579c-6.8476-36.7256,14.273-48.2896,56.3497-71.3276l.3833-.2085.9379,1.7153-.3813.2104C77.1338,156.4541,57.7202,167.084,64.3076,202.4165Z"/>
            </g>
            <g>
              <path d="M118.6059,128.9511l-1.8339-.6796c21.497-58.1123,49.75629-70.6973,64.68789-73.0254,11.1788-1.7442,19.49471,1.415,21.5938,4.0986l-1.5425,1.2061c-1.5185-1.9415-9.103-5.0308-19.749-3.3711C167.25579,59.4419,139.75969,71.7744,118.6059,128.9511Z"/>
              <path d="M201.40229,95.1665c-32.7085-14.897-47.6968,1.3877-80.54339,37.0698l-.2954.3208-1.4395-1.3237.2959-.3223c32.48579-35.2939,48.793-53.0112,82.79349-37.5259Z"/>
            </g>
          </g>
        </g>
      </g>
    </g>
  </g>
</svg>
