<svg xmlns="http://www.w3.org/2000/svg" width="73.0773" height="71.47368" viewBox="0 0 73.0773 71.47368">
  <defs>
    <style>
      .cls-1 {
        fill: #ca9e67;
      }

      .cls-2 {
        fill: #575756;
      }

      .cls-3 {
        fill: #3c3c3b;
      }

      .cls-4 {
        fill: #683c11;
      }

      .cls-5 {
        fill: #e94e1b;
      }

      .cls-6 {
        fill: #fff;
      }

      .cls-7 {
        fill: #ba3e16;
      }

      .cls-8 {
        fill: #ededed;
      }
    </style>
  </defs>
  <g id="图层_2" data-name="图层 2">
    <g id="Layer_1" data-name="Layer 1">
      <g>
        <path class="cls-1" d="M44.4412,49.76908c.0848.0401.3777-.0793.4276,0,1.122,1.7847,3.1952,2.4712,5.6266,2.9551,2.0675.4116,4.4359.0854,6.5487.6029.5028.1231,4.4168.5584,4.823,2.2338-2.4516-1.2137-8.5292-1.9292-13.1491.2031a6.826,6.826,0,0,1,2.8756-1.8996c-2.5258-.5809-5.6059-1.0985-8.1317-1.6794a4.278,4.278,0,0,1-2.1418-.9355q1.52955-.6198,3.0592-1.2395C44.498,49.96188,44.3253,49.71448,44.4412,49.76908Z"/>
        <g>
          <path class="cls-2" d="M63.9745,7.76568c3.3594.7312,7.9453-.6437,8.6314-3.8153.7023,6.6418-4.1976,8.5383-8.6314,7.4181Z"/>
          <path class="cls-3" d="M64.406,7.982c3.3594-.7312,8.3261-.1389,8.563,3.0005.9138-6.2173-4.1292-7.7235-8.563-6.6033Z"/>
          <path class="cls-4" d="M22.3961,46.49658c-7.6331.287,10.947-22.0683,8.8478-22.1008.0078-2.23-29.8953,37.9775-31.2439,39.0094,2.044-.0255,3.5577-1.9785,5.542-2.4696a1.55852,1.55852,0,0,1,1.2379.1082,1.76335,1.76335,0,0,1,.6083,1.1912c.5824,3.0734-.2421,6.2195-1.0604,9.2387C9.2118,67.25088,21.7189,48.362,22.3961,46.49658Z"/>
          <path class="cls-5" d="M12.8738,50.43248s48.0637,12.3226,49.079-23.053a17.396,17.396,0,0,0-.1949-2.9405c-.0812-.5605-.1868-1.1535-.3168-1.7546-.0081-.0812-.0162-.1625-.0244-.2355-.3249-3.2736-.4305-6.2466,2.4694-9.5771.1787-.1787.3412-.3655.5036-.5523.0244-.0325.0488-.0569.0732-.0894h-.0082a7.437,7.437,0,0,0,.8286-1.2753,6.08687,6.08687,0,0,0,.7148-3.1761c0-.0406-.0081-.0731-.0081-.1137-.0081-.0731-.0081-.1543-.0163-.2356A10.05561,10.05561,0,0,0,65.527,4.887c-.1056-.2438-.2194-.4793-.3331-.6987C63.2607.49238,59.8733.35428,55.7794.04558c-6.8558-.4954-7.0426,3.1518-8.3667,5.8567h-.0081a34.07614,34.07614,0,0,1-4.3458,6.5309c-.13.1543-.2599.3005-.3899.4549a.0629.0629,0,0,0-.0325.0325c-7.8387,9.0002-18.9997,13.736-28.0974,33.6373-.2762.6092-.5524,1.2428-.8286,1.8845C13.4261,49.09228,13.15,49.75018,12.8738,50.43248Z"/>
          <path class="cls-4" d="M20.6799,57.01218c7.9037-3.8179,17.3589-7.3107,24.434-12.5257a39.61432,39.61432,0,0,0,5.7998-5.0119,22.146,22.146,0,0,0,2.8512-3.7771,20.33481,20.33481,0,0,0,2.5181-6.6853.22516.22516,0,0,0,.0081-.0731,10.896,10.896,0,0,0-.4549-5.4261,12.33768,12.33768,0,0,0-5.6292-6.9858.244.244,0,0,1-.065-.0325c-3.3466-1.7627-7.8874.2355-10.7061,2.7618a45.70275,45.70275,0,0,0-6.8802,8.0499c-.9991,1.4459-1.982,3.0136-2.9405,4.687-1.0803,1.8845-2.1201,3.899-3.0867,6.0353q-1.2306,2.6928-2.2988,5.613-.4143,1.15755-.8042,2.3394c-.1462.4306-.2843.8611-.4061,1.2997-.1787.5443-.3412,1.0885-.4874,1.6409-.1543.5117-.2924,1.0235-.4224,1.5433-.1706.6255-.333,1.2591-.4792,1.9008-.1382.5767-.2681,1.1535-.39,1.7383C21.0373,55.06258,20.8505,56.02928,20.6799,57.01218Z"/>
          <path class="cls-6" d="M29.6152,31.99338a8.68544,8.68544,0,0,0,3.2249-1.2429c.0162.4468.0324.8855.0487,1.3322,1.7464-.4061,3.9393-.9605,5.6777-1.3667a7.71783,7.71783,0,0,1-1.0171,1.98s4.7093-1.2733,5.8384-1.7769c0,.66-.4489.8804-.8123,1.6754.7879.138,5.1804-1.3423,6.2445-1.8785.0975.6661-.1767.6986.2538,1.2185a11.797,11.797,0,0,0,3.7062-2.3862c-.0488.5361-.0508,1.1677-.0508,1.1677a20.69492,20.69492,0,0,0,2.0591-.8671c.5037-.3087.9992-.6092,1.5028-.9098a10.896,10.896,0,0,0-.4549-5.4261,6.77511,6.77511,0,0,1-1.8926,1.6002,17.343,17.343,0,0,1-4.9205,2.1506c-.0163-.3087.1767-1.0621.1523-1.3708-1.9496.9585-3.6615,1.9394-5.8384,1.98.1787-.26.2782-1.0601.4569-1.32a35.56921,35.56921,0,0,1-4.3572,1.32c-.0569-.2762.6572-1.4764.6003-1.7526a24.62653,24.62653,0,0,1-7.4813,1.186C31.5566,28.75228,30.5737,30.32,29.6152,31.99338Z"/>
          <path class="cls-6" d="M27.3652,42.44768a14.39348,14.39348,0,0,0,3.7121-1.381,2.1097,2.1097,0,0,1-.268,1.0398,72.32454,72.32454,0,0,0,7.1888-1.6084c-.203.2762-.4061.5605-.6092.8367a18.72122,18.72122,0,0,0,5.5074-.9585,2.34955,2.34955,0,0,1-.203,1.1047,16.7804,16.7804,0,0,1,5.7673-2.047,1.85031,1.85031,0,0,0-.7555,1.0316c1.0723-.333,2.1364-.6579,3.2086-.991a22.146,22.146,0,0,0,2.8512-3.7771c-1.2104.6416-2.4288,1.2915-3.6391,1.9332.13-.3736.2599-.7555.3899-1.1372a30.81493,30.81493,0,0,1-5.9866,1.3322c.2274-.398.4629-.7961.6904-1.1941a25.31736,25.31736,0,0,1-6.7096,1.5758c.1625-.4305.3249-.861.4793-1.2834a15.11447,15.11447,0,0,1-5.2638,1.3078,4.71244,4.71244,0,0,1,.6905-1.5758,21.53868,21.53868,0,0,1-6.3522,1.6733c.3331-.5036.658-.9992.991-1.5028a19.43893,19.43893,0,0,0-2.5262,1.2022q-1.2306,2.6928-2.2988,5.613,1.6449-1.0356,3.2817-2.0632C27.4627,41.86278,27.4139,42.15518,27.3652,42.44768Z"/>
          <path class="cls-6" d="M21.2404,54.10408q7.9443-3.2289,15.6043-7.1239a42.16962,42.16962,0,0,0,4.7195-2.6724,114.45069,114.45069,0,0,1-19.5115,7.9199c-.1381.0406-.2843.0894-.4223.1381C21.4922,52.94248,21.3623,53.51928,21.2404,54.10408Z"/>
          <path class="cls-6" d="M22.1096,50.465c.0406-.0081.0731-.0244.1056-.0325,4.9225-1.7058,9.7151-3.7934,14.4508-5.9785-3.1924.4549-5.9948,2.3151-9.0897,3.2086-1.6652.4711-3.436.6823-5.0443,1.2591C22.3777,49.43338,22.2396,49.94518,22.1096,50.465Z"/>
          <path class="cls-6" d="M23.0194,47.28078c.0162-.0081.0325-.0081.0487-.0162q4.2402-1.2672,8.3423-2.9405c-2.5019-.195-4.7926,1.519-7.3025,1.6408-.2275.0162-.4549.0081-.6824.0162C23.2793,46.41168,23.1412,46.84218,23.0194,47.28078Z"/>
          <path class="cls-7" d="M54.959,7.00708c.1218,1.6083,1.2021,3.2816,2.8024,3.4766,1.6409.1949,3.0055-1.1129,4.4352-1.9414a8.23657,8.23657,0,0,1,3.4278-1.0804c.1138-.0081.2275-.0162.3493-.0325A10.05561,10.05561,0,0,0,65.527,4.887c-.1056-.2438-.2194-.4793-.3331-.6987-.333-.0324-.6742-.0487-1.0154-.0568q-2.6562-.0852-5.3124-.1706c-1.2022-.0406-2.5831-.0081-3.3548.9179A2.93524,2.93524,0,0,0,54.959,7.00708Z"/>
          <circle class="cls-8" cx="61.8187" cy="6.02078" r="1.4723"/>
          <path class="cls-3" d="M60.7175,6.02078a1.10125,1.10125,0,1,0,1.1012-1.1013A1.10117,1.10117,0,0,0,60.7175,6.02078Z"/>
          <path class="cls-6" d="M62.0888,5.651a.41525.41525,0,1,0,.4153-.4153A.4153.4153,0,0,0,62.0888,5.651Z"/>
        </g>
      </g>
    </g>
  </g>
</svg>
