<svg xmlns="http://www.w3.org/2000/svg" width="69.341" height="89.3506" viewBox="0 0 69.341 89.3506">
  <defs>
    <style>
      .cls-1 {
        fill: #e6c397;
      }

      .cls-2 {
        fill: #946a3e;
      }

      .cls-3 {
        fill: #b17f4a;
      }

      .cls-4 {
        fill: #3c3c3b;
      }

      .cls-5 {
        fill: #ca9e67;
      }

      .cls-6 {
        fill: #7b6a58;
      }

      .cls-7 {
        fill: #c28b51;
      }

      .cls-8 {
        fill: #f9b233;
      }

      .cls-9 {
        fill: #fff;
      }
    </style>
  </defs>
  <g id="图层_2" data-name="图层 2">
    <g id="Layer_1" data-name="Layer 1">
      <g>
        <polygon class="cls-1" points="0 86.481 24.182 86.481 29.277 67.463 17.923 64.233 0 86.481"/>
        <path class="cls-2" d="M17.8483,65.9643a1.70521,1.70521,0,0,1,.5401,2.2944l-8.234,14.5992c-.9689,1.7179-2.75529,2.6105-3.9285,1.8844h0c-1.1732-.7261-1.1711-2.7232-.0657-4.3566L15.554,66.5044a1.70512,1.70512,0,0,1,2.2943-.5401Z"/>
        <path class="cls-2" d="M22.2573,65.3731a1.70522,1.70522,0,0,1,.7934,2.2195L16.5019,83.0214c-.7706,1.8156-2.446,2.9025-3.693,2.3122h0c-1.2471-.5903-1.4685-2.5751-.55279-4.3219L20.0378,66.1664a1.70513,1.70513,0,0,1,2.2195-.7933Z"/>
        <path class="cls-2" d="M27.1314,65.0073a1.70518,1.70518,0,0,1,.9812,2.1431L22.9139,83.085c-.6117,1.875-2.1875,3.1018-3.4806,2.6209h0c-1.29319-.4809-1.6843-2.4393-.92219-4.2584l6.47719-15.459a1.70516,1.70516,0,0,1,2.1431-.9812Z"/>
        <path class="cls-3" d="M54.9837,69.405C37.1727,83.4987,10.1925,80.1492,10.1925,80.1492L34.3988,30.3057c1.9505-4.013,2.8698-5.2201,1.9025-14.7092a13.87743,13.87743,0,0,1,8.25-14.1416A18.05326,18.05326,0,0,1,51.9619,0a19.13881,19.13881,0,0,1,8.2419,1.6867,13.79166,13.79166,0,0,1,3.2137,2.0785A14.27736,14.27736,0,0,1,68.2379,14.869c.1119,9.3212-3.6773,9.1134-.3597,19.5617C70.66811,43.2243,65.448,61.1311,54.9837,69.405Z"/>
        <path class="cls-2" d="M2.2852,77.0592A300.9682,300.9682,0,0,0,25.1828,38.3376c8.843-18.422,27.411-15.9694,31.047-7.9833C73.9138,69.1961,2.2852,77.0592,2.2852,77.0592Z"/>
        <path class="cls-4" d="M7.795,68.8721C4.5073,73.94,2.2852,77.0592,2.2852,77.0592s49.4671-5.4341,56.0296-29.5654C50.6696,63.9765,22.1165,67.9319,7.795,68.8721Z"/>
        <path class="cls-5" d="M27.95411,38.5332a3.01613,3.01613,0,0,0,5.34909,2.7884,3.29205,3.29205,0,0,1-4.3373-4.2035C28.51611,37.852,28.3499,37.7688,27.95411,38.5332Z"/>
        <path class="cls-5" d="M34.0842,42.98a3.01614,3.01614,0,0,0,5.8282,1.5557,3.29213,3.29213,0,0,1-5.1491-3.1574A16.36936,16.36936,0,0,0,34.0842,42.98Z"/>
        <path class="cls-5" d="M27.198,44.5377a3.01614,3.01614,0,0,0,5.8282,1.5557,3.29212,3.29212,0,0,1-5.14909-3.1574A16.34635,16.34635,0,0,0,27.198,44.5377Z"/>
        <path class="cls-5" d="M40.746,46.5107a3.01611,3.01611,0,0,0,5.82811,1.5558,3.2921,3.2921,0,0,1-5.149-3.1574A16.355,16.355,0,0,0,40.746,46.5107Z"/>
        <path class="cls-5" d="M34.0842,48.8423a3.01615,3.01615,0,0,0,5.8282,1.5558,3.29213,3.29213,0,0,1-5.1491-3.1574A16.35734,16.35734,0,0,0,34.0842,48.8423Z"/>
        <path class="cls-5" d="M27.198,50.3746a3.01614,3.01614,0,0,0,5.8282,1.5557,3.29212,3.29212,0,0,1-5.14909-3.1574A16.34635,16.34635,0,0,0,27.198,50.3746Z"/>
        <path class="cls-5" d="M40.2855,52.6229a3.01609,3.01609,0,0,0,5.8281,1.5557,3.29213,3.29213,0,0,1-5.1491-3.1574A16.393,16.393,0,0,0,40.2855,52.6229Z"/>
        <path class="cls-5" d="M33.5792,54.6647a3.01614,3.01614,0,0,0,5.8282,1.5557,3.29211,3.29211,0,0,1-5.1491-3.1573A16.38174,16.38174,0,0,0,33.5792,54.6647Z"/>
        <path class="cls-5" d="M26.69811,55.7572a3.01613,3.01613,0,0,0,5.82819,1.5557,3.29211,3.29211,0,0,1-5.1491-3.1573A16.35725,16.35725,0,0,0,26.69811,55.7572Z"/>
        <path class="cls-5" d="M47.4078,50.0415a3.01609,3.01609,0,0,0,5.8281,1.5557,3.29213,3.29213,0,0,1-5.1491-3.1574A16.38261,16.38261,0,0,0,47.4078,50.0415Z"/>
        <path class="cls-3" d="M36.5563,81.1986c1.1336,1.4816-.9209,2.7399-2.7294,3.1974-1.0277.2601-2.2483,1.099-1.5869,2.1485H51.8015a.97441.97441,0,0,0,.804-1.5224,2.31543,2.31543,0,0,0-1.6411-.9758c-1.9922-.4101-5.146-.6895-6.7302-1.9652-1.3085-1.0537-1.12809-5.3971-2.1629-6.7206-2.0914-2.6746-7.5228-.9388-10.7053.2442A40.25323,40.25323,0,0,1,36.5563,81.1986Z"/>
        <path class="cls-4" d="M53.3244,85.3845c-.4501.085-.8502.3413-1.2927.4601a1.06413,1.06413,0,0,1-1.2221-.3563.8705.8705,0,0,1,.0698-.8615,1.817,1.817,0,0,1,.68171-.5832,3.53985,3.53985,0,0,1,2.70919-.3345,2.74519,2.74519,0,0,1,1.868,1.9205,2.25028,2.25028,0,0,1-.9958,2.4193,1.76028,1.76028,0,0,0-1.8181-2.6644Z"/>
        <path class="cls-4" d="M42.5072,84.397a2.10567,2.10567,0,0,1,2.8506-.2843,2.80422,2.80422,0,0,1,.8788,2.9132,3.74633,3.74633,0,0,1-2.061,2.3247,7.70746,7.70746,0,0,0,.6382-2.3081,2.28835,2.28835,0,0,0-.0335-.8947.93347.93347,0,0,0-.5631-.6463,1.6987,1.6987,0,0,0-.92609.0985.89924.89924,0,0,1-.88991-.1357A.86286.86286,0,0,1,42.5072,84.397Z"/>
        <path class="cls-4" d="M34.3823,85.7538c.0905-.3961-.2939-.7283-.6418-.9383a5.24149,5.24149,0,0,0-1.88839-.7677,2.40979,2.40979,0,0,0-1.93041.4765,2.01692,2.01692,0,0,0-.443,2.3601,2.22785,2.22785,0,0,0,2.1355,1.1704,2.94278,2.94278,0,0,1-1.26409-.9925,1.015,1.015,0,0,1,.29809-1.4133,1.09108,1.09108,0,0,1,.849.0374c.27.1093.5138.2748.7793.3947a2.53181,2.53181,0,0,0,1.2851.2108C33.9098,86.2573,34.3042,86.0949,34.3823,85.7538Z"/>
        <path class="cls-5" d="M61.9863,16.1711c-.0006-.4591-.8576-.1494-1.2809-.3273a7.922,7.922,0,0,0-1.6218-.0978,19.97973,19.97973,0,0,1-4.9088-1.9276c-1.61469-.7116-3.5059-1.1821-5.1156-.4593-1.1736.5271-2.0444,1.6284-3.2692,2.022-1.2204.3922-2.6836.0439-3.7187.8a3.43036,3.43036,0,0,0,2.59281,1.6298,6.57233,6.57233,0,0,1,2.97509,1.0303c.9352.7846,1.2173,2.1004,1.9644,3.0657a3.81608,3.81608,0,0,0,6.1144-.105,15.83916,15.83916,0,0,0,.9925-1.876c.3333-.625.4102-1.0504,1.088-1.4001a10.35162,10.35162,0,0,1,3.7868-.8789C62.1979,17.6072,61.9872,16.7851,61.9863,16.1711Z"/>
        <path class="cls-6" d="M63.4175,3.7652c-.3838.1919-.7995.3037-1.1992.4636-2.9098,1.1912-4.1889,4.7326-6.9229,6.2835a6.09612,6.09612,0,0,1-6.4912-.4237C47.2773,8.9374,46.39,7.1307,45.031,5.7877a8.22384,8.22384,0,0,0-3.9492-2.1584,13.88937,13.88937,0,0,1,3.4695-2.1744A18.05326,18.05326,0,0,1,51.9619,0a19.13881,19.13881,0,0,1,8.2419,1.6867A13.79166,13.79166,0,0,1,63.4175,3.7652Z"/>
        <path class="cls-5" d="M40.9914,6.2323a6.061,6.061,0,0,0-2.7331,6.083,6.73746,6.73746,0,0,0,4.422,5.0999,7.59413,7.59413,0,0,0,6.7411-1.0537c1.3082-.932,2.3806-2.5868,1.8149-4.0901a4.7969,4.7969,0,0,0-1.3113-1.6849L46.2929,7.1404a6.0925,6.0925,0,0,0-1.8217-1.3403A4.00634,4.00634,0,0,0,40.9914,6.2323Z"/>
        <path class="cls-5" d="M64.1314,6.2323a6.061,6.061,0,0,1,2.7331,6.083,6.73726,6.73726,0,0,1-4.422,5.0999,7.59418,7.59418,0,0,1-6.7411-1.0537c-1.3082-.932-2.3806-2.5868-1.8148-4.0901a4.79661,4.79661,0,0,1,1.3112-1.6849l3.6321-3.4461a6.0925,6.0925,0,0,1,1.8217-1.3403A4.00634,4.00634,0,0,1,64.1314,6.2323Z"/>
        <path class="cls-7" d="M52.5614,12.4948a2.127,2.127,0,0,0-.0864-.2904,4.25358,4.25358,0,0,0-1.163-1.4943q-1.6107-1.52835-3.2214-3.0566a5.40709,5.40709,0,0,0-1.6158-1.1888,3.55355,3.55355,0,0,0-3.0864.3834,5.37576,5.37576,0,0,0-2.4242,5.3953,5.9761,5.9761,0,0,0,3.9222,4.5234,6.73574,6.73574,0,0,0,5.9789-.9346,4.16451,4.16451,0,0,0,1.6961-2.3796,4.165,4.165,0,0,0,1.6961,2.3796,6.73579,6.73579,0,0,0,5.9789.9346,5.97608,5.97608,0,0,0,3.9222-4.5234,5.37574,5.37574,0,0,0-2.4242-5.3953,3.55336,3.55336,0,0,0-3.08629-.3834A5.40576,5.40576,0,0,0,57.0323,7.6535q-1.6107,1.52835-3.2215,3.0566a4.256,4.256,0,0,0-1.163,1.4943A2.14123,2.14123,0,0,0,52.5614,12.4948Z"/>
        <ellipse class="cls-6" cx="46.8656" cy="12.5238" rx="3.4709" ry="3.32"/>
        <path class="cls-6" d="M61.9863,12.5238a3.47438,3.47438,0,0,1-6.9419,0,3.47438,3.47438,0,0,1,6.9419,0Z"/>
        <path class="cls-8" d="M50.0784,12.3989a2.64916,2.64916,0,1,1-2.6466-2.5315A2.59088,2.59088,0,0,1,50.0784,12.3989Z"/>
        <path class="cls-8" d="M55.0444,12.3989A2.64916,2.64916,0,1,0,57.691,9.8674,2.59088,2.59088,0,0,0,55.0444,12.3989Z"/>
        <path class="cls-4" d="M53.8949,16.721a9.93708,9.93708,0,0,1-1.3335,4.0465A9.93757,9.93757,0,0,1,51.228,16.721c0-1.7933.597-2.4477,1.3334-2.4477S53.8949,14.9277,53.8949,16.721Z"/>
        <path class="cls-4" d="M48.7127,12.3989a1.28211,1.28211,0,1,1-1.2809-1.2252A1.254,1.254,0,0,1,48.7127,12.3989Z"/>
        <path class="cls-9" d="M46.8656,12.373a.71536.71536,0,1,1-.7146-.6836A.6996.6996,0,0,1,46.8656,12.373Z"/>
        <ellipse class="cls-4" cx="57.9458" cy="12.3989" rx="1.2809" ry="1.2252"/>
        <path class="cls-9" d="M57.3795,12.3989a.7153.7153,0,1,1-.7146-.6836A.69954.69954,0,0,1,57.3795,12.3989Z"/>
        <path class="cls-4" d="M46.5429,5.6698c-2.3577-3.2366-7.5482-3.8199-10.761-1.43a8.80054,8.80054,0,0,1,8.6416,2.4855c1.4253,1.5568,2.2531,3.6072,3.7802,5.0644a5.34721,5.34721,0,0,0,4.3577,1.9778c2.4871.0818,3.1816-.8556,4.35771-1.9778,1.52709-1.4572,2.355-3.5076,3.78019-5.0644A8.80072,8.80072,0,0,1,69.341,4.2398c-3.21289-2.3899-8.4272-1.8238-10.761,1.43C54.3268,11.5995,50.9205,11.6794,46.5429,5.6698Z"/>
      </g>
    </g>
  </g>
</svg>
