<svg xmlns="http://www.w3.org/2000/svg" width="49.59402" height="92.36659" viewBox="0 0 49.59402 92.36659">
  <defs>
    <style>
      .cls-1 {
        fill: #2e2e2d;
      }

      .cls-2 {
        fill: #3c3c3b;
      }

      .cls-3 {
        fill: #ededed;
      }

      .cls-4 {
        fill: #f9b233;
      }

      .cls-5 {
        fill: #fff;
      }
    </style>
  </defs>
  <g id="图层_2" data-name="图层 2">
    <g id="Layer_1" data-name="Layer 1">
      <g>
        <g>
          <path class="cls-1" d="M32.07372,91.996c-1.2731.3999-12.4036.2364-18.605.0402-.042-1.956,6.013.1449,4.4123-7.1068,1.4511-.0253,3.898-.072,5.349-.0974a10.93582,10.93582,0,0,0-.0875,3.183C23.71572,91.61,30.17132,89.28374,32.07372,91.996Z"/>
          <path class="cls-2" d="M26.26262,92.12054c-1.2731.4-12.4037.2365-18.6051.0403-.0419-1.9561,6.013.1448,4.4123-7.1068,1.4511-.0254,3.898-.0721,5.349-.0974a10.93872,10.93872,0,0,0-.0875,3.1829C17.90462,91.73464,24.36012,89.40824,26.26262,92.12054Z"/>
          <path class="cls-3" d="M.00842,61.48614a54.86575,54.86575,0,0,0,.7235,8.0864,29.71659,29.71659,0,0,0,2.7677,8.7327,15.5959,15.5959,0,0,0,8.1757,7.6465,17.38372,17.38372,0,0,0,4.8151,1.1171,18.64664,18.64664,0,0,0,2.0025.0972c.2002.0056.4101.0011.6101-.0032,1.9795-.0424,3.8137-1.2719,5.4791-3.3682a22.381,22.381,0,0,0,2.2553-3.509c2.759-5.2104,4.9158-12.8483,6.3525-20.951a134.53458,134.53458,0,0,0,1.7465-14.1807l-.0002-.01c.2465-3.436.3355-6.7487.2706-9.778-.0339-1.5796-.1149-3.0282-.2336-4.366-.0288-.4095-.0671-.7988-.1053-1.178-.8466-7.7637-3.1747-11.3846-6.581-13.042a9.87815,9.87815,0,0,0,.924-.76c.1667-.1536.3235-.307.47-.4702a7.85358,7.85358,0,0,0,2.0757-7.6862,7.18838,7.18838,0,0,0-2.0702-3.2564,9.63317,9.63317,0,0,0-9.2507-1.8022,9.51442,9.51442,0,0,0-6.7999,7.0774l.0002.0099c-.01.0003-.01.0003-.0098.0103a7.78616,7.78616,0,0,0-.0999,1.8725c-.1075,2.4529-.2596,5.1568-1.7717,7.4097C6.44292,27.09044-.27058,48.46914.00842,61.48614Z"/>
          <path class="cls-2" d="M29.92182,11.27114c1.0656-3.8699,16.4613-10.7302,19.6722-8.8277,0,0-.9909-3.3254-4.2592-2.2174-10.5298,2.626-16.4082,6.2988-19.1893,3.9354Z"/>
          <path class="cls-4" d="M17.18032,35.72224c2.2728-.3587,4.1088-1.9685,5.9185-3.3976s3.9412-2.785,6.2276-2.514c1.6745.1942,3.4073,1.2373,4.9115.4849a2.13685,2.13685,0,0,0,.63-.4736c-.8466-7.7637-3.1747-11.3846-6.581-13.042a9.87815,9.87815,0,0,0,.924-.76,6.586,6.586,0,0,1-1.2893-1.3527,14.43842,14.43842,0,0,0-8.233,8.3484C18.19532,27.07854,18.60292,31.63084,17.18032,35.72224Z"/>
          <path class="cls-2" d="M.09982,92.35134c3.8652-2.1333,7.7104-4.2662,11.5755-6.3996.0792-.0417.1681-.0936.2472-.1353a56.25733,56.25733,0,0,1,.5946-38.0615c4.2158,6.7613,3.896,15.6402,8.2105,22.3392a39.358,39.358,0,0,0-1.146-20.8002c-1.3458-3.9921-3.3394-8.3403-1.6517-12.1974a38.20965,38.20965,0,0,1,2.2623-3.6493c1.6592-2.8563,2.0065-6.2544,2.7981-9.4521.8015-3.2079,2.2956-5.8306,5.2966-7.2152a9.19436,9.19436,0,0,0,1.394-1.2302,7.85358,7.85358,0,0,0,2.0757-7.6862c-1.292-4.2833-6.3619-6.5552-11.3209-5.0586a9.98359,9.98359,0,0,0-5.9314,4.6682,7.93844,7.93844,0,0,0-.8685,2.4092l.0002.0099c-.01.0003-.01.0003-.0098.0103a7.78616,7.78616,0,0,0-.0999,1.8725,19.22953,19.22953,0,0,1-.7939,5.4283,8.32259,8.32259,0,0,1-.9778,1.9814c-5.3117,7.9057-12.0252,29.2844-11.7462,42.3014a54.86575,54.86575,0,0,0,.7235,8.0864c.2922,3.8346.7735,5.7547,2.9162,10.0598C5.634,83.62074,2.00412,88.32954.09982,92.35134Z"/>
          <path class="cls-2" d="M33.18992,59.33464a26.89245,26.89245,0,0,0,3.074,7.1558,39.35932,39.35932,0,0,0-1.1459-20.8003c-.0638-.1786-.1177-.3575-.1816-.5362A134.53458,134.53458,0,0,1,33.18992,59.33464Z"/>
          <path class="cls-4" d="M12.73242,17.20334c1.207-.1559,2.3786-.5611,3.5842-.777a4.74449,4.74449,0,0,1,4.2707.9187,3.78816,3.78816,0,0,0-.8586-2.7222,8.5886,8.5886,0,0,0-2.2308-1.8826,8.74756,8.74756,0,0,1-1.6358-1.1853,5.8999,5.8999,0,0,1-1.3578-4.0818,7.93844,7.93844,0,0,0-.8685,2.4092l.0002.0099c-.01.0003-.01.0003-.0098.0103a7.78616,7.78616,0,0,0-.0999,1.8725A19.22953,19.22953,0,0,1,12.73242,17.20334Z"/>
          <path class="cls-4" d="M32.01752,7.81924c4.4234-2.9502,12.3285-6.0345,16.0999-6.1154q.1926-.004.3727.0008A2.15029,2.15029,0,0,0,46.83372.986a3.31734,3.31734,0,0,0-.9869.1892c-4.8678.9819-13.2593,4.5528-15.1051,4.8987-1.5654.2933-2.0224,2.8392-.4575,3.1355C31.13132,9.36984,31.05862,8.45874,32.01752,7.81924Z"/>
        </g>
        <circle class="cls-3" cx="24.93612" cy="7.06174" r="1.1164"/>
        <path class="cls-2" d="M25.629,7.06174a.6929.6929,0,1,1-.6929-.6929A.693.693,0,0,1,25.629,7.06174Z"/>
        <circle class="cls-5" cx="24.41642" cy="6.78134" r="0.3149"/>
      </g>
    </g>
  </g>
</svg>
