<svg xmlns="http://www.w3.org/2000/svg" width="48.3349" height="87.99854" viewBox="0 0 48.3349 87.99854">
  <defs>
    <style>
      .cls-1 {
        fill: #7b6a58;
      }

      .cls-2 {
        fill: #3c3c3b;
      }

      .cls-3 {
        fill: #ededed;
      }

      .cls-4 {
        fill: #dadada;
      }

      .cls-5 {
        fill: #e6332a;
      }

      .cls-6 {
        fill: #fff;
      }

      .cls-7 {
        fill: #695a4b;
      }
    </style>
  </defs>
  <g id="图层_2" data-name="图层 2">
    <g id="Layer_1" data-name="Layer 1">
      <g>
        <g>
          <rect class="cls-1" x="31.1595" width="17.1754" height="78.5008"/>
          <path class="cls-2" d="M25.9171,41.1651l-.4213-1.5605a20.12918,20.12918,0,0,0,9.0049-5.2252l1.1447,1.1393A21.74833,21.74833,0,0,1,25.9171,41.1651Z"/>
          <path class="cls-2" d="M34.2921,35.4823l-.1463-.2951a7.36461,7.36461,0,0,1-.376-.819c-.0696-.1902-.1449-.3962-.2247-.6141a5.69413,5.69413,0,0,1-.1737-.6778,4.71253,4.71253,0,0,1-.1321-.7225l-.0776-.7478c.003-.2504.006-.5008.009-.7474a4.56149,4.56149,0,0,1,.0641-.7133,5.52016,5.52016,0,0,1,.1043-.6553c.0525-.2033.1021-.3956.1478-.5731a6.08443,6.08443,0,0,1,.295-.8249l.1216-.3053-.0551.3254a5.87476,5.87476,0,0,0-.1131.85c-.0073.1758-.0152.3662-.0235.5676a5.13607,5.13607,0,0,0,.0341.6287,4.07707,4.07707,0,0,0,.0808.6612c.0443.2206.0893.4446.1342.6686l.211.644a3.93427,3.93427,0,0,0,.2485.5984,4.58376,4.58376,0,0,0,.264.5314l.2684.4287a6.36016,6.36016,0,0,0,.498.6669l.2048.2578Z"/>
          <path class="cls-2" d="M35.1567,34.2028l.2351.0668.2697.0766.166.0471c.0492.0088.0885.008.1372.014l.3143.0394a1.82347,1.82347,0,0,0,.3955-.0141,1.60173,1.60173,0,0,0,.4379-.0633,2.86767,2.86767,0,0,1,.4195-.1033c.157-.0832.3141-.1663.4687-.2482a1.8146,1.8146,0,0,0,.3862-.2655,2.22975,2.22975,0,0,0,.3345-.2848l.2693-.312a2.78387,2.78387,0,0,0,.3396-.5279l.121-.2136-.0556.2369a2.97158,2.97158,0,0,1-.1855.6293l-.1861.4082a2.64084,2.64084,0,0,1-.2843.4337,2.525,2.525,0,0,1-.3526.4272l-.3801.3701-.5333.3378a2.36858,2.36858,0,0,1-.5266.2457,2.906,2.906,0,0,1-.5332.1774c-.1903.0311-.3703.0604-.5364.0875a2.05084,2.05084,0,0,1-.4132.0317l-.2804.0024-.2444.002Z"/>
          <path class="cls-2" d="M35.8199,35.4459l-.1255.2731a1.78493,1.78493,0,0,0-.1026.2587,1.44539,1.44539,0,0,0-.0945.3247,2.37478,2.37478,0,0,0-.0645.4339,3.56258,3.56258,0,0,0-.0013.5005,3.39608,3.39608,0,0,0,.0961.535,4.93326,4.93326,0,0,0,.1744.5195,4.33932,4.33932,0,0,0,.3246.5272,3.39891,3.39891,0,0,0,.371.4353,3.928,3.928,0,0,0,.4301.3516,2.85721,2.85721,0,0,0,.4344.2609,3.10276,3.10276,0,0,0,.7221.2753l.292.068-.3014.0008a3.24963,3.24963,0,0,1-.7998-.1072,3.15149,3.15149,0,0,1-.5243-.1675,4.3353,4.3353,0,0,1-.5612-.2739,3.99139,3.99139,0,0,1-.5557-.4085,5.05414,5.05414,0,0,1-.4829-.4837,4.61079,4.61079,0,0,1-.4104-.6347,4.40516,4.40516,0,0,1-.2872-.6584,4.75055,4.75055,0,0,1-.159-.6609,3.62476,3.62476,0,0,1-.0564-.6161,2.8254,2.8254,0,0,1,.0255-.5545,3.53844,3.53844,0,0,1,.0609-.4056l.0595-.2947Z"/>
          <polygon class="cls-2" points="29.678 8.752 20.714 12.328 20.641 7.715 29.678 8.752"/>
          <path class="cls-2" d="M30.5512,86.1853,26.3754,83.964a.50984.50984,0,0,0-.6981.2273l-1.7101,3.5201a.50993.50993,0,0,1-.9523-.0951L14.188,53.5014l3.6417-1.3823L31.2718,85.5662A.50994.50994,0,0,1,30.5512,86.1853Z"/>
          <path class="cls-3" d="M25.7064,50.7827v.1131c0,6.6892-3.2395,12.1181-7.2385,12.1181a4.57588,4.57588,0,0,1-2.2136-.5817c-2.9164-1.5673-5.0249-6.1398-5.0249-11.5364,0-6.6892,3.2396-12.118,7.2385-12.118C22.4426,38.7778,25.666,44.142,25.7064,50.7827Z"/>
          <path class="cls-4" d="M21.1985,10.0984a5.37209,5.37209,0,0,1-.4847,2.2297,6.53466,6.53466,0,0,1-1.947,2.4316,9.16714,9.16714,0,0,1-5.1381,1.9147c-.2342.0162-.4685.0242-.7109.0242a9.65706,9.65706,0,0,1-2.0116-.2019,8.03051,8.03051,0,0,1-5.5339-3.6839,5.51057,5.51057,0,0,1-.5978-1.5107c-.0081-.0404-.0162-.0727-.0242-.1131a5.07826,5.07826,0,0,1-.1051-.7836v-.0647a2.42258,2.42258,0,0,1-.0081-.2423V9.953c.097-3.4174,3.4578-6.2045,7.691-6.4388.1939-.0081.3958-.0162.5897-.0162a9.73981,9.73981,0,0,1,4.7907,1.2199,7.02559,7.02559,0,0,1,2.9326,2.9972A5.3552,5.3552,0,0,1,21.1985,10.0984Z"/>
          <path class="cls-4" d="M18.7911,56.4863C11.7626,57.488,4.411,48.7873,3.0133,36.9601,1.6561,25.4883,5.5097,22.6042,4.9522,13.3541c-.0404-.6786-.105-1.4057-.2019-2.1651-.0323-.2424-.0647-.4928-.097-.7433a.07236.07236,0,0,0-.0081-.0403v-.0647a2.42258,2.42258,0,0,1-.0081-.2423V9.953c.0889-.6868.7837-.4444,1.7451.1696,1.9065,1.2118,4.8795,3.8858,6.3094,3.6758,2.6175-.3716,5.8813-2.1086,6.0752.9613,4.1686,4.7099,8.6523,11.1729,9.7025,18.5649C30.1578,45.1114,25.8195,55.4845,18.7911,56.4863Z"/>
          <path class="cls-2" d="M21.0773,18.888c-1.4703-.2343-2.9164.3878-4.3382.8079s-3.1184.6059-4.2575-.3474a6.66478,6.66478,0,0,1-1.5754-2.8518,6.9146,6.9146,0,0,0-.5331-1.0664,13.35958,13.35958,0,0,0-2.246-2.2863,3.78635,3.78635,0,0,1-1.3895-2.7791c.9452.0728,1.6562.8564,2.4479,1.3896a6.85785,6.85785,0,0,0,6.8346,0,15.86879,15.86879,0,0,0,4.621-4.0394,2.50754,2.50754,0,0,1,1.0596,2.3065,2.88605,2.88605,0,0,1-.9869,2.3065,5.18114,5.18114,0,0,0-2.7468,1.0098c-.816.4928-1.6319.9937-2.4478,1.4865a5.35334,5.35334,0,0,0-1.6077,1.3006,1.86574,1.86574,0,0,0-.2828.5494,1.60051,1.60051,0,0,0,.097,1.3976,1.8794,1.8794,0,0,0,2.06.614,9.19609,9.19609,0,0,0,2.0521-1.026,3.06255,3.06255,0,0,1,2.1893-.4928A1.36817,1.36817,0,0,1,21.0773,18.888Z"/>
          <path class="cls-5" d="M25.7064,50.7827v.1131c0,6.6892-3.2395,12.1181-7.2385,12.1181a4.57588,4.57588,0,0,1-2.2136-.5817c.3393-1.8338.6867-3.6677,1.026-5.5016a3.333,3.333,0,0,1,.509-1.4703,1.1764,1.1764,0,0,1,1.3734-.4524c.4039.1938.5816.6463.8321,1.0179s.7432.6947,1.1229.4524c.3474-.2181.3555-.7917.7271-.9695.3554-.1696.7594.1374,1.1472.1293.6301-.0162.929-.7594,1.1149-1.3572A14.58141,14.58141,0,0,1,25.7064,50.7827Z"/>
          <path class="cls-4" d="M29.355,46.6597c-.3862,4.7398-2.5776,8.4291-4.8946,8.2403s-3.8821-4.1842-3.4959-8.924,2.5776-8.429,4.8946-8.2402S29.7412,41.92,29.355,46.6597Z"/>
          <path class="cls-2" d="M20.8673,37.0085c-.0162-.4928-.0324-.9775-.0647-1.4622s-.0726-.9695-.1211-1.438-.105-.9372-.1697-1.3976a49.33386,49.33386,0,0,0-1.4622-6.9154,6.429,6.429,0,0,1-.2828-.8725c-.008-.0162-.008-.0323-.0161-.0485-.0162-.0485-.0243-.0969-.0404-.1373a2.65374,2.65374,0,0,0-.2424-.6787,6.91761,6.91761,0,0,0-5.5501-2.8517c-1.1875.0323-2.4802,1.5349-3.6677,1.4703-1.1876-.0565-2.4883-.8159-2.5609-1.9955a5.41475,5.41475,0,0,1,.7351-2.1893,2.24742,2.24742,0,0,0,.105-1.3976,2.207,2.207,0,0,0-.3231.1212c-.0889.0323-.1616.0646-.2424.0969-.1616.0727-.3231.1455-.4847.2343a6.453,6.453,0,0,0-1.5026,1.0987l-.2182.2181c-.1212.1293-.2423.2666-.3635.404a2.52434,2.52434,0,0,0-.1777.2343.522.522,0,0,0-.0647.0727l-.1696.2423c-.0889.1131-.1616.2262-.2424.3474q-.1575.25455-.3151.5332c-.0969.1777-.1938.3636-.2827.5575-.0646.1373-.1293.2746-.1939.42v.0081c-.0323.0727-.0646.1535-.0969.2343q-.1818.44835-.3394.9452c-.105.307-.1938.6221-.2746.9533-.0243.0808-.0404.1697-.0647.2585,0,.0162-.008.0323-.008.0485-.0404.1616-.0727.3232-.1132.4928-.0565.2504-.0969.5089-.1454.7755,0,.0243-.008.0404-.008.0647-.0404.2585-.0808.517-.1131.7917a41.37248,41.37248,0,0,0,.3554,11.0355c2.0036,13.75,13.8793,29.3176,13.8793,29.3176a.082.082,0,0,1,.0161-.0404.24923.24923,0,0,1,.0162-.0646,1.34731,1.34731,0,0,0,.0484-.1616c.0404-.105.0808-.2423.1293-.412.0242-.0727.0485-.1616.0808-.2585.0162-.0646.0404-.1373.0646-.2101.0161-.0727.0404-.1454.0647-.2262q.18165-.60585.4119-1.4299v-.0081c.0809-.307.1778-.6382.2747-.9856.0081-.0323.0162-.0646.0242-.105.097-.3635.202-.7513.307-1.1552.0324-.1374.0728-.2747.1051-.4121.0646-.2666.1373-.5493.21-.832.0323-.1132.0566-.2344.0889-.3555.1212-.4848.2424-1.0018.3635-1.5269q.2181-.921.4363-1.9146c.105-.4929.21-.9938.3231-1.5108v-.0081c0-.0161,0-.0242.0081-.0323.0081-.0565.0242-.1131.0323-.1696q.109-.5454.2182-1.1149c.0323-.1858.0727-.3716.105-.5655.0727-.3797.1454-.7594.21-1.1553.0404-.1938.0727-.3877.1051-.5816.105-.5898.2019-1.1795.2908-1.7854.0323-.202.0565-.4039.0888-.6059l.1697-1.2118c.0323-.202.0566-.412.0808-.614.0565-.412.105-.816.1454-1.228.0485-.42.0889-.8321.1293-1.2441.0081-.0808.0161-.1697.0242-.2504.0242-.2424.0485-.4928.0727-.7352,0-.0404.0081-.0808.0081-.1212.0323-.4605.0646-.921.0969-1.3734.0243-.412.0485-.824.0646-1.236.0081-.1696.0081-.3312.0162-.4928l.0243-.9937c.0081-.6059.0161-1.1956,0-1.7934C20.8835,37.4609,20.8754,37.2347,20.8673,37.0085Zm-4.3867,6.1641a.92119.92119,0,0,1-.1455.5978,2.84385,2.84385,0,0,1-1.0502.9533c-.2747.1777-.6867.3232-.8887.0565a.68978.68978,0,0,1-.0807-.4039,2.10363,2.10363,0,0,1,.6866-1.6642C15.5111,42.3485,16.4078,42.5586,16.4806,43.1726Zm-.0485-2.3186a.51017.51017,0,0,1,.7998-.1778.83763.83763,0,0,1-.2182.9049.46864.46864,0,0,1-.3554.1696C16.3028,41.7184,16.3109,41.1933,16.4321,40.854ZM11.084,23.9533c.4928.9937.1858,2.1732.0807,3.2719-.2989,3.086,1.0826,6.0591,2.4156,8.8623a11.564,11.564,0,0,1,.9613,2.5287,5.86107,5.86107,0,0,1,.0809,2.0197,8.696,8.696,0,0,1-2.7064,5.1057c-.0566.0566-.1132.1131-.1697.1616-1.1553-1.1795-1.3653-2.9649-1.5107-4.613-.1212-1.2602-.2343-2.5286-.3474-3.797A117.67052,117.67052,0,0,0,8.1595,24.0341,3.82227,3.82227,0,0,0,11.084,23.9533ZM9.8075,45.8466a.49152.49152,0,0,1-.7432.1535,1.79948,1.79948,0,0,1,.5251-1.8581,3.58734,3.58734,0,0,0,.2343.8483A1.08449,1.08449,0,0,1,9.8075,45.8466ZM7.8767,38.6808a.99862.99862,0,0,1,.719,1.3653c-.1293.2586-.517.4282-.6786.1939a.49.49,0,0,1-.0646-.3232Q7.8645,39.2988,7.8767,38.6808Zm.4928,3.7728c.6463.8644.1939,1.5995-.2827,2.3266a.91464.91464,0,0,1-1.1149-.3716,1.60488,1.60488,0,0,1-.1777-1.236C6.8669,42.8009,8.208,42.1062,8.3695,42.4536ZM6.0348,39.9734a.50182.50182,0,1,1-.2262.6059Zm4.2574,14.986a6.97482,6.97482,0,0,1-.7836-.9695,1.23288,1.23288,0,0,1-.0888-1.1794l2.1085,1.5269c.1131.0807.2181.1615.3312.2423a5.64089,5.64089,0,0,0,1.5915.8887c.0081,0,.0162.008.0242.008.0081.0081.0081.0081.0162.0081a.02509.02509,0,0,0,.0162.0081,2.00026,2.00026,0,0,0,1.0906.0161.492.492,0,0,0,.0969-.0403,3.95376,3.95376,0,0,0,1.5835-1.4542,2.42492,2.42492,0,0,1,1.8581-1.1391h.0081v.0242a8.04,8.04,0,0,1-1.6481,3.5789,11.95981,11.95981,0,0,0-1.0583,1.8743,6.08488,6.08488,0,0,0-.2343.6786c-.1373.517-.3555,1.2037-.8967,1.1794a.8037.8037,0,0,1-.3959-.1373,2.56384,2.56384,0,0,1-.2908-.1858C12.013,58.7726,11.5849,56.4863,10.2922,54.9594Zm7.2628-6.2125a4.74532,4.74532,0,0,1-.9533,2.0843c-.3878.3797-.9209.5817-1.3087.9614-.4121.4039-.6221.9936-1.0745,1.3653a2.35312,2.35312,0,0,1-2.9003-.4202.73386.73386,0,0,1-.0807-.0726c-.7918-.7594-1.2765-1.7935-2.0359-2.5852-.5978-.6302-1.3895-1.1634-1.6157-2.0035a.314.314,0,0,1,.0081-.2424.36606.36606,0,0,1,.2908-.1454,3.3225,3.3225,0,0,1,2.3993.6462c.3475.2667.6625.6059,1.018.8645a1.736,1.736,0,0,0,.7594.3312,2.40055,2.40055,0,0,0,1.5753-.517,10.95837,10.95837,0,0,0,2.464-2.2701,4.81506,4.81506,0,0,1,1.3088-1.3411,1.28841,1.28841,0,0,1,1.6884.2585A10.73358,10.73358,0,0,0,17.555,48.7469Z"/>
          <circle class="cls-3" cx="15.7794" cy="8.074" r="1.6188"/>
          <path class="cls-2" d="M16.7841,8.074a1.00475,1.00475,0,1,1-1.0047-1.0048A1.00468,1.00468,0,0,1,16.7841,8.074Z"/>
          <circle class="cls-6" cx="15.0258" cy="7.6674" r="0.4566"/>
          <path class="cls-2" d="M17.7004,7.3193c-1.4461-1.2765-3.595-1.3734-5.4935-1.0422-2.9568.5251-5.8894,2.1086-7.287,4.7745a2.01,2.01,0,0,1-.1454.2505,5.38894,5.38894,0,0,1-.1374-1.2037c0-3.6435,3.7082-6.6004,8.2807-6.6004a9.73981,9.73981,0,0,1,4.7907,1.2199c.0242.1697.0404.3313.0485.5009A14.01287,14.01287,0,0,1,17.7004,7.3193Z"/>
          <path class="cls-5" d="M4.9522,13.3541a35.43452,35.43452,0,0,0-2.464-4.3868C1.4057,7.6747.2262,6.3094,0,4.6452A8.5534,8.5534,0,0,0,3.3365,5.7116c2.1812.0727,4.0797-1.4784,6.2206-1.9631a12.99588,12.99588,0,0,1,2.5125-.2505,1.43029,1.43029,0,0,1,.2585.0162C8.0949,3.7485,4.9118,12.6755,4.9522,13.3541Z"/>
        </g>
        <path class="cls-7" d="M42.5425,26.999a131.36325,131.36325,0,0,0-.2586,34.9323,55.717,55.717,0,0,1-2.569-23.9129c.2989-2.6256.7755-5.2916.21-7.8687-.2585-1.1714-.727-2.2863-1.0583-3.4334-1.1229-3.8294-.7674-7.901-.6947-11.8919.0646-3.9828-.2262-8.1918-2.4317-11.5203q-.37575,9.852-.7433,19.7121A65.45158,65.45158,0,0,1,33.8094,0H43.9562q-.94515,6.33765-1.8904,12.6755A18.54525,18.54525,0,0,0,40.1027,2.1732a122.56822,122.56822,0,0,0,.1939,20.5198C40.4581,24.3977,40.9186,26.4497,42.5425,26.999Z"/>
        <path class="cls-7" d="M48.3349,23.1293c-3.587,10.4134-3.0457,21.8448-2.4398,32.8884-1.9469-4.4271-2.3671-9.3955-2.157-14.2347.2181-4.8391,1.034-9.6298,1.4461-14.4528.2828-3.4011.3716-6.8184.4524-10.2276q.1818-7.22235.3635-14.4447.29085,4.30185.5817,8.6199a6.51189,6.51189,0,0,0,1.2118,4.0555,6.41126,6.41126,0,0,0,.5413.509Z"/>
        <path class="cls-7" d="M43.4368,20.8196a3.51262,3.51262,0,0,0-1.6926-3.9206q-.1005,1.5441-.2008,3.0881a2.81231,2.81231,0,0,0,.0851,1.1538.95989.95989,0,0,0,.8578.6744C42.9782,21.8008,43.3054,21.2939,43.4368,20.8196Z"/>
        <path class="cls-7" d="M38.5839,78.5008h-1.228c-.7594-5.1543-2.359-10.2519-3.2153-15.4142-1.1956-7.2224-.9291-14.6063-.6544-21.9256q1.67235,2.20545,3.3446,4.3948a43.3605,43.3605,0,0,0-.9048,18.169c.5816,3.5465,1.6077,7.0123,2.2055,10.5669A31.79535,31.79535,0,0,1,38.5839,78.5008Z"/>
        <path class="cls-7" d="M32.2421,78.5008H31.1595V65.7121Q31.7049,72.1105,32.2421,78.5008Z"/>
        <path class="cls-7" d="M46.3152,78.5008H41.7911c-.8159-8.2484-5.6712-16.2625-4.112-24.43q2.08425,8.7612,4.1766,17.5308a38.53725,38.53725,0,0,0,1.737,5.8651q.7392-10.10655,1.4864-20.2291.41205,7.695.816,15.398C45.992,74.5906,46.0971,76.5538,46.3152,78.5008Z"/>
      </g>
    </g>
  </g>
</svg>
