<svg xmlns="http://www.w3.org/2000/svg" width="74.2701" height="71.80873" viewBox="0 0 74.2701 71.80873">
  <defs>
    <style>
      .cls-1 {
        fill: #e94e1b;
      }

      .cls-2 {
        fill: #d44719;
      }

      .cls-3 {
        fill: #3c3c3b;
      }

      .cls-4 {
        fill: #ededed;
      }

      .cls-5 {
        fill: #cc4418;
      }

      .cls-6 {
        fill: #fff;
      }

      .cls-7 {
        fill: #dadada;
      }

      .cls-8 {
        fill: #575756;
      }
    </style>
  </defs>
  <g id="图层_2" data-name="图层 2">
    <g id="Layer_1" data-name="Layer 1">
      <g>
        <g>
          <path class="cls-1" d="M20.5253,65.9443c3.6798.2338,8.0982,1.1483,11.76,1.4047a1.48758,1.48758,0,0,0,1.5739-1.3714,103.47022,103.47022,0,0,0-.27-10.5601c.8229-.0647,1.53261.2067,2.3555.1421a100.07139,100.07139,0,0,0,.1847,11.0655,1.351,1.351,0,0,0,.8261,1.1504,1.25145,1.25145,0,0,1,.0077,2.4727c-6.1528.7823-11.6001.5691-17.6358,1.5566a.25854.25854,0,0,1-.2157-.4492c1.3663-1.2263,1.8382-2.2427.54411-2.8845a.2581.2581,0,0,1,.02479-.4718c1.2593-.4578,1.0748-1.1068.628-1.6326A.25979.25979,0,0,1,20.5253,65.9443Z"/>
          <path class="cls-2" d="M19.12781,71.3391a4.08847,4.08847,0,0,1,2.44789-1.0562c4.44011-.3152,9.1095-.1726,11.2296-1.9028a3.65466,3.65466,0,0,0,1.0502-2.4011,103.4982,103.4982,0,0,0-.27-10.5601c.8229-.0648,1.5326.2067,2.3554.142a100.06749,100.06749,0,0,0,.1848,11.0656,1.351,1.351,0,0,0,.826,1.1504,1.25144,1.25144,0,0,1,.0078,2.4727c-6.1501.7819-11.5953.5693-17.6279,1.5553a.26087.26087,0,0,1-.2222-.4493Z"/>
        </g>
        <path class="cls-3" d="M74.2701,57.09s-23.26-29.65-35.2-34.14l.02-.01c-3.99-1.89-4.2-6.25-3.74-11.03.0199-.11.0199-.23.03-.34.02-.12.03-.23.04-.35h-.02c.01-.18.0299-.35.0299-.53C35.43,4.79,30.0701,0,23.4501,0s-11.99,4.79-11.99,10.69a10.68417,10.68417,0,0,0,7.01,9.71,33.02387,33.02387,0,0,0-1.981,2.8111c.156,6.6289,8.406,6.1289,9.031,4.6289-.875,16.3125,16.9375,27.8125,31.8444,30.2086,6.384-.2094,11.9849-.5851,14.8556-.7986C73.5301,57.15,74.2701,57.09,74.2701,57.09Z"/>
        <path class="cls-4" d="M25.5201,27.84c-2.75,1.25-7.625,1.625-9.031-4.6289A.40941.40941,0,0,1,16.43,23.3c-10.4724,9.6025.2101,29.35,11.9501,33.04,6.1939,1.9491,18.6225,2.0484,28.9844,1.7086C42.9157,54.8212,25.3951,38.965,25.5201,27.84Z"/>
        <path class="cls-4" d="M28.5201,8.72s-5.3401,8.48-12.51,9.14H16a.58349.58349,0,0,1-.13.02,11.51543,11.51543,0,0,1-2.5499-.1.48646.48646,0,0,1-.12-.01H13.19c-.2999-.04-.5999-.1-.8999-.16a19.886,19.886,0,0,1-2.58-.74c-.12-.04-.24-.09-.36-.14A36.98664,36.98664,0,0,1,0,11.29S4.6401,6.01,10.1701,3.53a13.51534,13.51534,0,0,1,4.47-1.23c6.12-.48,11.81,4.43,13.4199,5.97C28.3601,8.55,28.5201,8.72,28.5201,8.72Z"/>
        <path class="cls-4" d="M32.7559,40.7478A23.61983,23.61983,0,0,1,37.7,46.3522c-3.536-.399-7.3735-1.2106-9.5944-3.9908a12.09178,12.09178,0,0,1-1.5834-2.8216,20.20243,20.20243,0,0,1-1.8071-10.5614,28.51218,28.51218,0,0,0,5.5214,4.6749q-1.0047.03345-2.0096.0668,3.4863,2.12505,6.8002,4.5168a15.96236,15.96236,0,0,1-3.9211-.0336q1.52955,1.14,3.0593,2.28Q33.4606,40.6156,32.7559,40.7478Z"/>
        <path class="cls-1" d="M12.2901,17.61C6.06,16.32,0,11.29,0,11.29S4.6401,6.01,10.1701,3.53C7.2001,8.73,9.2701,14.19,12.2901,17.61Z"/>
        <path class="cls-5" d="M0,11.29s6.06,5.03,12.2901,6.32a14.33507,14.33507,0,0,1-3.3318-6.52Z"/>
        <path class="cls-6" d="M18.2801,5.7492a1.46875,1.46875,0,1,1-1.4687-1.4687A1.46877,1.46877,0,0,1,18.2801,5.7492Z"/>
        <path class="cls-3" d="M17.9417,5.7492a1.13035,1.13035,0,1,1-1.1303-1.1303A1.13038,1.13038,0,0,1,17.9417,5.7492Z"/>
        <path class="cls-6" d="M16.5419,5.3803a.41425.41425,0,1,1-.4143-.4142A.41431.41431,0,0,1,16.5419,5.3803Z"/>
        <path class="cls-3" d="M16.8114,6.6882a1.666,1.666,0,0,0,.8122-1.5912,2.64587,2.64587,0,0,1-.125-1.567,5.11625,5.11625,0,0,0,.8965,1.8503c1.1532,1.4031,6.9161,2.7137,8.16371,4.466C22.9491,7.113,16.494,6.488,13.5209,8.1247A6.49209,6.49209,0,0,1,16.8114,6.6882Z"/>
        <path class="cls-7" d="M28.5201,8.72s-5.41,8.59-12.6501,9.16a12.8181,12.8181,0,0,1-3.5799-.27,19.886,19.886,0,0,1-2.58-.74C17.4407,6.6882,25.81,8.64,28.06,8.27,28.3601,8.55,28.5201,8.72,28.5201,8.72Z"/>
        <path class="cls-8" d="M16,17.86a8.637,8.637,0,0,1-2.6799-.08.05343.05343,0,0,1-.04-.03,4.66358,4.66358,0,0,1-1.65-2.7,4.85418,4.85418,0,0,1-.12-1.19v-.01a3.53446,3.53446,0,0,1,2.31-3.52,7.29469,7.29469,0,0,0-.0801,3.65A6.72144,6.72144,0,0,0,16,17.86Z"/>
        <path class="cls-3" d="M13.9701,17.57a3.51372,3.51372,0,0,1-.69.18.23592.23592,0,0,1-.08.02H13.19c-.2999-.04-.5999-.1-.8999-.16a19.886,19.886,0,0,1-2.58-.74c-.12-.04-.24-.09-.36-.14A6.08164,6.08164,0,0,1,6.5,12.18a6.66457,6.66457,0,0,1,5.31-6.62,10.73005,10.73005,0,0,0-.8899,5.34,11.77747,11.77747,0,0,0,.59,2.95A7.67877,7.67877,0,0,0,13.9701,17.57Z"/>
      </g>
    </g>
  </g>
</svg>
