<svg xmlns="http://www.w3.org/2000/svg" width="91.75456" height="79.35509" viewBox="0 0 91.75456 79.35509">
  <defs>
    <style>
      .cls-1 {
        fill: #cbbba0;
      }

      .cls-2 {
        fill: #a48a7b;
      }

      .cls-3 {
        fill: #354e61;
      }

      .cls-4 {
        fill: #43627a;
      }

      .cls-5 {
        fill: #3e4d59;
      }

      .cls-6 {
        fill: #523d32;
      }

      .cls-7 {
        fill: #dadada;
      }

      .cls-8 {
        fill: #3c3c3b;
      }

      .cls-9 {
        fill: #ededed;
      }

      .cls-10 {
        fill: #1d1d1b;
        opacity: 0.4;
      }

      .cls-11 {
        fill: #424241;
      }

      .cls-12 {
        fill: #333332;
      }

      .cls-13 {
        fill: #634e42;
      }

      .cls-14 {
        fill: #165754;
      }

      .cls-15 {
        fill: #db426d;
      }

      .cls-16 {
        fill: #fff;
      }
    </style>
  </defs>
  <g id="图层_2" data-name="图层 2">
    <g id="Layer_1" data-name="Layer 1">
      <g>
        <g>
          <path class="cls-1" d="M86.20086,9.81669c-2.3028,1.8294-2.6158,2.0928-1.0718,3.6399,2.3695-.4386,3.979-.0886,6.6255.852C90.63526,11.417,88.78316,10.08589,86.20086,9.81669Z"/>
          <path class="cls-2" d="M84.21806,12.24919a3.43656,3.43656,0,0,0,.911,1.2074c2.3695-.4386,3.9789-.0886,6.6255.852a10.15133,10.15133,0,0,0-.4189-.9392A20.06777,20.06777,0,0,0,84.21806,12.24919Z"/>
        </g>
        <path class="cls-2" d="M87.728,10.936c0,.1932-.2782.3498-.6214.3498s-.6214-.1566-.6214-.3498.2782-.3497.6214-.3497S87.728,10.74289,87.728,10.936Z"/>
        <g>
          <g>
            <path class="cls-3" d="M49.80286,64.84219c-.5407.1077-.7397,6.7539-.0348,9.7771,2.3628,1.5644,9.504-.7628,17.1339,2.326-3.5284-4.0758-9.6611-3.4598-14.631-3.0566Z"/>
            <path class="cls-4" d="M51.008,65.24849c-.5498.0406-1.8799.0339-2.4297.0746.0703.6592.0313.3533.1166,1.0386.0317.2542-2.2868,4.5052-2.2539,4.7617.0382.2973,2.6109-1.9337,2.6503-1.6344.2637,2.0058.4818,3.5591.6844,5.4587-3.358.7696-5.1491,1.8697-8.0089,2.9629,8.1103-1.4071,17.5348-2.5557,24.7289,1.4445-3.0025-4.4773-9.1645-4.6172-14.1464-4.8258Z"/>
          </g>
          <path class="cls-5" d="M85.55936,13.39419l.5945-3.5775h.047c-1.4534-2.3587-2.9749-3.937-5.7142-4.3982-2.7555-.4639-3.9403,0-6.7853,2.3976a6.14763,6.14763,0,0,0-1.679,7.4573,41.22672,41.22672,0,0,0,3.0083,4.9646c1.2102,1.6114,1.7437,4.1363.2589,5.4987-.8226.7548-2.823-.1755-3.9164-.4011s-1.3171.3058-2.2866-.2477c5.9285,6.3563,10.939,16.8897,15.7409,24.1348,3.06-8.1752,1.566-20.8869-1.8955-28.9003C81.53666,17.09239,83.86126,13.45569,85.55936,13.39419Z"/>
          <path class="cls-6" d="M28.51666,57.19589c-2.4935,2.8918-9.3495.4031-9.5018-3.2846-3.4079,1.8903-9.3934-2.8106-8.1392-6.173-3.7884.7354-7.8307-5.3481-5.7948-8.3169-4.5887-1.0408-6.0318-7.6773-2.7515-9.4577-3.4049-2.644-2.9751-8.7736.6237-9.4576-3.0808-3.8325-.3968-9.4091,3.9236-8.317-2.4653-3.673,2.4834-8.6043,6.7504-6.173-.8936-3.9522,5.2937-6.994,8.7629-3.2846.7542-3.4789,7.4339-3.8015,9.7185,0,2.0839-2.6954,8.3854-1.405,9.5019,3.2846,3.6667-1.9704,9.1029,1.5783,8.1392,6.173,4.3944-1.046,7.7993,5.1758,5.7948,8.317,4.2226.4075,6.2336,7.5049,2.7515,9.4576l-.6237,9.4577-3.9237,8.3169-6.7504,6.173-8.7629,3.2846Z"/>
          <path class="cls-7" d="M26.24216,55.04039a7.84755,7.84755,0,0,1-6.4365-3.3535,8.15936,8.15936,0,0,1-6.4199-3.4932,5.96941,5.96941,0,0,1-.9444-2.0703,7.58009,7.58009,0,0,1-4.2783-3.7905,6.80013,6.80013,0,0,1-.8467-3.6699,7.29259,7.29259,0,0,1-3.2002-5.0943,5.84916,5.84916,0,0,1,.6734-3.7978,7.4497,7.4497,0,0,1-.9937-5.6826,5.5205,5.5205,0,0,1,1.524-2.7422,6.535,6.535,0,0,1,.229-4.9898,5.456,5.456,0,0,1,3.1259-2.8466,5.394,5.394,0,0,1,.6475-2.4224,6.23613,6.23613,0,0,1,5.7031-3.29,5.25393,5.25393,0,0,1,.7246-1.1988,6.48044,6.48044,0,0,1,4.9766-2.3222,6.2013,6.2013,0,0,1,2.5869.5595,6.22621,6.22621,0,0,1,4.1318-1.4174,7.34905,7.34905,0,0,1,4.6036,1.5698,6.01647,6.01647,0,0,1,2.3994-.4776,7.40891,7.40891,0,0,1,6.1943,3.3956,7.16684,7.16684,0,0,1,6.1367,2.5947,6.37055,6.37055,0,0,1,1.3487,2.8852,6.63628,6.63628,0,0,1,4.2627,3.4322,7.15826,7.15826,0,0,1,.9169,4.0698,7.1695,7.1695,0,0,1,3.0762,4.6059,5.74465,5.74465,0,0,1-1.3535,5.3594l-.4492,6.8106a1.99574,1.99574,0,0,1-.1875.7216l-3.1963,6.7749a2.00047,2.00047,0,0,1-.459.6226l-5.499,5.0288a1.99288,1.99288,0,0,1-.6475.3965l-7.1377,2.6758a1.99132,1.99132,0,0,1-.7021.1274h-7.1504A5.58234,5.58234,0,0,1,26.24216,55.04039Zm-5.1474-7.7046a1.99876,1.99876,0,0,1,1.998,1.9175c.0283.6724,1.5635,1.7871,3.1494,1.7871a1.44877,1.44877,0,0,0,1.0781-.3349,2,2,0,0,1,1.5147-.6939h7.5547l6.4355-2.4126,4.9229-4.5019,2.8662-6.0752.4834-7.3262a2.00061,2.00061,0,0,1,1.0176-1.6123c.4463-.2505.4961-1.0903.3545-1.7651-.212-1.0044-.918-2.1187-1.8106-2.2046a2.00017,2.00017,0,0,1-1.4932-3.0669,2.53664,2.53664,0,0,0-.2832-2.3067c-.5742-1.0483-1.4628-1.6435-2.288-1.4463a2,2,0,0,1-2.42-2.3559,2.25174,2.25174,0,0,0-.5009-1.9155,2.84469,2.84469,0,0,0-3.2266-.9414,1.999,1.999,0,0,1-2.8916-1.2989,3.19482,3.19482,0,0,0-3.1074-2.2715,1.47777,1.47777,0,0,0-1.1055.356,1.97833,1.97833,0,0,1-1.6992.7734,1.99869,1.99869,0,0,1-1.5967-.9663,3.06725,3.06725,0,0,0-2.6016-1.2553c-.9013,0-1.5791.3354-1.6464.6489a2.00087,2.00087,0,0,1-3.4161.9424,2.19491,2.19491,0,0,0-1.6562-.7334,2.46651,2.46651,0,0,0-1.8525.8198.86166.86166,0,0,0-.2178.7822,2.00051,2.00051,0,0,1-2.9414,2.1787,2.13053,2.13053,0,0,0-2.8633.9126,1.12095,1.12095,0,0,0,.0156,1.2642,2.00022,2.00022,0,0,1-2.1513,3.0532,1.33557,1.33557,0,0,0-1.5596.7979,2.65459,2.65459,0,0,0,.4121,2.7851,1.99968,1.99968,0,0,1-1.1846,3.2178c-.4316.082-.623.6221-.6992.9365a3.31791,3.31791,0,0,0,1.0439,3.2236,2.00032,2.00032,0,0,1-.2724,3.3375c-.3701.2006-.4561.8662-.3779,1.437a3.007,3.007,0,0,0,2.1074,2.5595,1.99945,1.99945,0,0,1,1.207,3.0811,2.15234,2.15234,0,0,0,.3096,1.8057,3.245,3.245,0,0,0,2.2402,1.8881.72657.72657,0,0,0,.1406-.0131,1.9996,1.9996,0,0,1,2.2549,2.6621c-.042.1118.0127.4453.333.9067a4.241,4.241,0,0,0,2.9766,1.7769.98563.98563,0,0,0,.4775-.1026A1.99687,1.99687,0,0,1,21.09476,47.33579Z"/>
          <path class="cls-8" d="M26.37106,54.26849a7.67144,7.67144,0,0,1-6.2617-3.2442c-.0391.001-.0791.0015-.1182.0015h-.0009a7.99617,7.99617,0,0,1-6.1123-3.4097,5.85378,5.85378,0,0,1-.9141-1.9897,7.41391,7.41391,0,0,1-4.1426-3.688,6.65648,6.65648,0,0,1-.8291-3.5479,7.12671,7.12671,0,0,1-3.0932-4.9531,5.73823,5.73823,0,0,1,.6337-3.6724,7.178,7.178,0,0,1-.9428-5.5249,5.41919,5.41919,0,0,1,1.4629-2.6562,6.38537,6.38537,0,0,1,.2373-4.8379,5.34972,5.34972,0,0,1,3.0195-2.773,5.30324,5.30324,0,0,1,.6328-2.3276,6.14462,6.14462,0,0,1,5.5342-3.2197,5.16106,5.16106,0,0,1,.6914-1.1338,6.33739,6.33739,0,0,1,4.8662-2.2715,6.05823,6.05823,0,0,1,2.4922.5303,6.10574,6.10574,0,0,1,4.0098-1.3604A7.18046,7.18046,0,0,1,32,5.69959a5.89662,5.89662,0,0,1,2.3116-.4521,7.242,7.242,0,0,1,6.0273,3.2807,7.01468,7.01468,0,0,1,5.9551,2.5396,6.22937,6.22937,0,0,1,1.3095,2.7783,6.49815,6.49815,0,0,1,4.126,3.3428,7.00919,7.00919,0,0,1,.8985,3.9355,7.01582,7.01582,0,0,1,2.9716,4.478,5.62618,5.62618,0,0,1-1.3105,5.2271l-.4326,6.5649a1.99625,1.99625,0,0,1-.1875.7217l-3.0928,6.5557a1.98449,1.98449,0,0,1-.459.6225l-5.3203,4.8658a1.99261,1.99261,0,0,1-.6475.3964l-6.9072,2.5889a1.9955,1.9955,0,0,1-.7021.1275h-6.8965A5.47463,5.47463,0,0,1,26.37106,54.26849Zm-4.9804-7.5845a1.99851,1.99851,0,0,1,1.998,1.9175c.0264.6269,1.4805,1.667,2.9824,1.667a1.345,1.345,0,0,0,.9942-.3013,1.99868,1.99868,0,0,1,1.5146-.6943h7.2979l6.205-2.3257,4.7442-4.3389,2.7627-5.856.4668-7.0761a2.00047,2.00047,0,0,1,1.0176-1.6123c.4033-.2261.4433-1.0074.3115-1.6377-.2002-.9492-.8614-2.0015-1.6944-2.0821a1.99989,1.99989,0,0,1-1.4931-3.0669,2.43017,2.43017,0,0,0-.2764-2.166c-.542-.9878-1.3613-1.5532-2.1426-1.3672a1.99935,1.99935,0,0,1-2.4199-2.3564,2.11283,2.11283,0,0,0-.4707-1.7983,2.68268,2.68268,0,0,0-3.042-.8951,1.99905,1.99905,0,0,1-2.8916-1.2983,3.02472,3.02472,0,0,0-2.9433-2.1484,1.3705,1.3705,0,0,0-1.0186.3193,1.99935,1.99935,0,0,1-3.2959-.1929,2.90188,2.90188,0,0,0-2.4609-1.1836c-.9053,0-1.4795.3413-1.5313.5772a1.99947,1.99947,0,0,1-3.415.9424,2.06167,2.06167,0,0,0-1.5557-.6895,2.31678,2.31678,0,0,0-1.7412.7691.76445.76445,0,0,0-.1982.7021,2.00051,2.00051,0,0,1-2.9414,2.1787,1.99206,1.99206,0,0,0-2.6807.8569,1.02559,1.02559,0,0,0,.0107,1.1563,1.99985,1.99985,0,0,1-2.1504,3.0537,1.233,1.233,0,0,0-1.4355.7373,2.50287,2.50287,0,0,0,.3916,2.6255,2.00012,2.00012,0,0,1-1.1846,3.2183c-.3818.0727-.5556.5683-.625.8574a3.13911,3.13911,0,0,0,.9864,3.0527,2.00017,2.00017,0,0,1-.2725,3.3374c-.3291.1787-.4033.812-.332,1.3252a2.839,2.839,0,0,0,1.9882,2.4209,2,2,0,0,1,1.2071,3.0816,2.03805,2.03805,0,0,0,.3027,1.6801c.6338,1.2022,1.6211,1.899,2.2354,1.7813a2.00006,2.00006,0,0,1,2.2548,2.6626c-.0293.0776.0098.3789.3145.8174a4.0278,4.0278,0,0,0,2.8262,1.6909.893.893,0,0,0,.4306-.0908A1.99687,1.99687,0,0,1,21.39066,46.684Z"/>
          <path class="cls-9" d="M26.64356,51.643c-2.1338.0005-4.5195-1.2071-5.3379-3.0567a4.04148,4.04148,0,0,1-.5918.043h-.001a6.52992,6.52992,0,0,1-4.9756-2.7998,4.291,4.291,0,0,1-.7978-2.0537,5.77767,5.77767,0,0,1-3.8477-3.1333,5.03786,5.03786,0,0,1-.5996-3.3579,5.65206,5.65206,0,0,1-2.9551-4.2613,4.284,4.284,0,0,1,.7901-3.3115,5.8642,5.8642,0,0,1-1.0928-4.9189,4.00021,4.00021,0,0,1,1.5576-2.4063,5.12193,5.12193,0,0,1-.0381-4.3887,3.99166,3.99166,0,0,1,2.917-2.2983,3.94821,3.94821,0,0,1,.4619-2.4097,4.83014,4.83014,0,0,1,4.9737-2.4707,3.76582,3.76582,0,0,1,.7256-1.4433,5.012,5.012,0,0,1,3.8515-1.7886,4.77125,4.77125,0,0,1,2.4805.689,4.5702,4.5702,0,0,1,3.5615-1.4605,5.70987,5.70987,0,0,1,4.0176,1.5728,4.42563,4.42563,0,0,1,2.2812-.5899,5.77978,5.77978,0,0,1,5.1426,3.1377,5.5697,5.5697,0,0,1,5.3262,1.9541,4.86748,4.86748,0,0,1,1.1113,2.7852,5.01615,5.01615,0,0,1,3.8545,2.7754,5.43182,5.43182,0,0,1,.6514,3.7182,5.4418,5.4418,0,0,1,2.8584,3.8662,4.22033,4.22033,0,0,1-1.2119,4.2813l-.4239,6.4453a1.00643,1.00643,0,0,1-.0937.3608l-2.875,6.0928a1.00811,1.00811,0,0,1-.2295.3111l-4.9453,4.5224a.99966.99966,0,0,1-.3242.1987l-6.42,2.4063a.99809.99809,0,0,1-.3505.0635h-6.709A4.14438,4.14438,0,0,1,26.64356,51.643Zm-4.6289-5.3316a1.00021,1.00021,0,0,1,.999.959c.0488,1.1753,1.8799,2.3726,3.6299,2.3726a2.0592,2.0592,0,0,0,1.5752-.5786.9976.9976,0,0,1,.7568-.3467h6.9375l6.0694-2.2749,4.6572-4.2588,2.7099-5.7427.4434-6.7397a1.00018,1.00018,0,0,1,.5088-.8062,2.21116,2.21116,0,0,0,.7099-2.4482c-.2548-1.2115-1.1376-2.4981-2.332-2.6128a.99971.99971,0,0,1-.7471-1.5337,3.01414,3.01414,0,0,0-.2275-2.8887,2.87565,2.87565,0,0,0-2.9434-1.6933.99956.99956,0,0,1-1.2099-1.1778,2.79877,2.79877,0,0,0-.6113-2.3896,3.36561,3.36561,0,0,0-3.8995-1.0469.9998.9998,0,0,1-1.4462-.6494,3.63924,3.63924,0,0,0-3.5704-2.6563,2.01807,2.01807,0,0,0-1.6269.6304,1.00062,1.00062,0,0,1-1.6484-.0967,3.51045,3.51045,0,0,0-3.0235-1.5166c-.9619,0-2.0801.3799-2.2607,1.2129a1.00016,1.00016,0,0,1-1.708.4717,2.78136,2.78136,0,0,0-2.0733-.9131,3.009,3.009,0,0,0-2.289,1.0371,1.606,1.606,0,0,0-.3516,1.3789.99975.99975,0,0,1-1.4707,1.0889,2.72744,2.72744,0,0,0-3.6748,1.1387,1.85241,1.85241,0,0,0,.0547,1.958,1,1,0,0,1-1.0752,1.5268,2.22754,2.22754,0,0,0-.5488-.0718,1.99913,1.99913,0,0,0-1.7706,1.2183,3.19127,3.19127,0,0,0,.4698,3.3501.99969.99969,0,0,1-.5928,1.6089,1.76167,1.76167,0,0,0-1.2559,1.4399,3.77422,3.77422,0,0,0,1.2256,3.7163.99949.99949,0,0,1-.1367,1.669,2.0204,2.0204,0,0,0-.749,2.104,3.46308,3.46308,0,0,0,2.5098,2.9707,1.00093,1.00093,0,0,1,.6035,1.5405,2.51145,2.51145,0,0,0,.2295,2.4483c.7128,1.3535,1.9785,2.2929,3,2.0971a1.00007,1.00007,0,0,1,1.1269,1.3316,1.846,1.846,0,0,0,.3926,1.5498c.9785,1.4111,3.084,2.3384,4.1484,1.7485A1.0045,1.0045,0,0,1,22.01466,46.31139Z"/>
          <path class="cls-10" d="M42.92076,18.77139c-.5425-.2965-2.8762,2.9294-5.2125,7.2053-.3745.6854-.7233,1.3533-1.0479,1.9978.1775-.9218.3501-1.9002.5116-2.918.8871-5.5895,1.1113-10.1992.5007-10.2961s-1.8246,4.3557-2.7117,9.9452c-.2351,1.4812-.422,2.8894-.5608,4.1673-.008-1.7673-.1221-4.0057-.3481-6.4366-.5239-5.6359-1.4476-10.1583-2.0631-10.1011s-.6898,4.6724-.1659,10.3083c.1805,1.9414.4088,3.7439.6552,5.2794-.5269-1.716-1.2642-3.8104-2.1517-6.0544-2.1722-5.4925-4.3992-9.7607-4.974-9.5333s.72,4.8642,2.8923,10.3566c.1728.4371.3458.8629.5185,1.2828-.4214-.5785-.8636-1.1728-1.3229-1.7767-3.6834-4.8425-7.0682-8.4647-7.5602-8.0904s2.095,4.6032,5.7784,9.4457c1.0568,1.3894,2.0862,2.6727,3.0326,3.7956-.9192-.7585-1.9078-1.5516-2.9466-2.3602-5.4349-4.2306-10.1486-7.2647-10.5283-6.7769s3.7183,4.3128,9.1532,8.5435q1.1886.9252,2.3168,1.7629c-.9468-.4349-1.9527-.8805-3.0031-1.3271-5.8767-2.4982-10.8368-4.0622-11.0787-3.4933s4.3262,3.0554,10.2029,5.5536c1.8869.8021,3.6763,1.5061,5.2484,2.0759-1.3355-.2815-2.8041-.5609-4.3513-.8224-6.2849-1.0624-11.4633-1.4295-11.5664-.82s4.9084,1.9649,11.1933,3.0273c1.1903.2012,2.3403.3772,3.4242.5266-.9372.0928-1.9313.2084-2.9595.3463-5.4904.7364-9.8746,1.83-9.7924,2.4427s4.5996.5124,10.09-.2239c1.0527-.1412,2.0634-.2957,3.0112-.4572-.4212.1981-.8477.4017-1.2827.6158-4.7395,2.3318-8.3603,4.6718-8.0874,5.2265s4.3362-.886,9.0757-3.2178a48.25746,48.25746,0,0,0,7.1933-4.1673c.0466-.0032.0864-.0079.1296-.0119.0075.1468.0175.2825.0305.4043-.9024.1254-3.4671,1.8837-6.2413,4.3284-3.2019,2.8216-5.4663,5.4849-5.0576,5.9487s3.3358-1.4476,6.5377-4.2691a26.34485,26.34485,0,0,0,4.9349-5.3085.20459.20459,0,0,0,.1226.1059c.1926.0306.4453-.393.7286-1.1603a36.02271,36.02271,0,0,0,4.484-6.7912C42.00906,22.77429,43.46326,19.06779,42.92076,18.77139Z"/>
          <path class="cls-11" d="M61.90786,52.57469,31.989,51.30089c-1.5484,3.797-2.9357,7.6535-5.8996,10.7624a2.67191,2.67191,0,0,0,1.433,4.4607c12.2547,2.4418,26.5191.7357,38.4663-3.588Z"/>
          <path class="cls-12" d="M85.96356,43.36859a15.72985,15.72985,0,0,1-1.1361,5.8541c-3.302,8.2999-13.4488,14.3442-25.4535,14.3442-14.6857,0-26.5953-9.0441-26.5953-20.1983,0-11.1597,11.9096-20.2039,26.5953-20.2039a34.20776,34.20776,0,0,1,8.4845,1.0522C78.38576,26.90329,85.96356,34.46429,85.96356,43.36859Z"/>
          <g>
            <path class="cls-12" d="M71.37316,38.035a13.17653,13.17653,0,0,1-1.4887,6.0836,16.2379,16.2379,0,0,1-3.6043,4.6228,20.83519,20.83519,0,0,1-7.382,4.2647,23.85227,23.85227,0,0,1-3.4979.873,25.06884,25.06884,0,0,1-7.6002.1399,23.07833,23.07833,0,0,1-4.2647-.9738,21.08366,21.08366,0,0,1-5.4287-2.6584,17.53528,17.53528,0,0,1-1.4272-1.069c-.0559-.0447-.1063-.0895-.1567-.1343a16.88158,16.88158,0,0,1-1.8916-1.8525,16.22314,16.22314,0,0,1-1.0858-1.3879,15.868,15.868,0,0,1-1.1137-1.8469,14.41992,14.41992,0,0,1-.6157-1.416,13.40167,13.40167,0,0,1-.4924-1.6118c-.0057-.0224-.0113-.0504-.0169-.0728-.0727-.319-.1343-.638-.1791-.9626a10.24388,10.24388,0,0,1-.1231-1.1697,13.58728,13.58728,0,0,1,1.7294-7.4659c3.7162-6.6321,11.7586-9.7382,19.0678-9.5591a23.89232,23.89232,0,0,1,11.697,3.3524,16.81064,16.81064,0,0,1,6.5648,7.091,13.83931,13.83931,0,0,1,.5933,1.4663A13.27694,13.27694,0,0,1,71.37316,38.035Z"/>
            <path class="cls-13" d="M30.99666,38.85759c-2.6831,1.3335-5.936,3.3075-6.7997,6.4026-.6535,2.3415.5467,4.5768,2.1506,6.2211a22.34278,22.34278,0,0,0,8.0424,4.8916,37.67621,37.67621,0,0,0,10.8756,2.4139c6.6978.4708,13.8182-1.0126,18.9569-5.5532a19.74287,19.74287,0,0,0,4.1329-5.1012,13.8738,13.8738,0,0,0,1.4862-3.5659,1.18,1.18,0,0,0,.0658-.4657,12.47407,12.47407,0,0,1-5.6995,2.3287,39.36461,39.36461,0,0,1-8.3469.6307,52.36921,52.36921,0,0,1-17.7152-3.1461A21.29379,21.29379,0,0,1,33.693,41.661a8.11246,8.11246,0,0,1-2.6963-2.8034Z"/>
            <path class="cls-12" d="M35.42016,40.89769q-.4872-1.1577-.9744-2.3155a6.06238,6.06238,0,0,0-.9659.5813,9.21116,9.21116,0,0,1-1.682.6899,10.65879,10.65879,0,0,1-3.2402.4247,11.4147,11.4147,0,0,0,3.4884.8743,10.44411,10.44411,0,0,0,2.0081-.024C34.50876,41.07189,34.96656,40.93769,35.42016,40.89769Z"/>
            <path class="cls-12" d="M42.92076,44.09919q-.42315-1.836-.8465-3.6719a46.16633,46.16633,0,0,1-8.0551,1.9972,49.27644,49.27644,0,0,1-8.0194.4299,49.94873,49.94873,0,0,0,8.0759,1.4178A45.30022,45.30022,0,0,0,42.92076,44.09919Z"/>
            <path class="cls-12" d="M50.52346,45.15479q-.61425-1.7811-1.2286-3.5623c-1.4679.5266-2.8906,1.1889-4.3577,1.7243a49.485,49.485,0,0,1-6.6626,1.9378,33.53356,33.53356,0,0,1-7.3512.7764,33.85385,33.85385,0,0,1-6.1015-.6972,35.65927,35.65927,0,0,0,5.8774,1.5889,33.87413,33.87413,0,0,0,7.8017.3545A66.10585,66.10585,0,0,0,50.52346,45.15479Z"/>
            <path class="cls-12" d="M59.37316,44.99529l-1.9185-3.2433a56.47525,56.47525,0,0,1-5.237,2.987,43.62557,43.62557,0,0,1-6.9569,2.6729,58.74151,58.74151,0,0,1-14.968,2.2294c-1.5579.0419-3.1147-.0035-4.6717-.0502a69.98662,69.98662,0,0,0,13.3056.766,54.05538,54.05538,0,0,0,7.732-.9279,40.19485,40.19485,0,0,0,7.1631-1.9931A57.99453,57.99453,0,0,0,59.37316,44.99529Z"/>
            <path class="cls-12" d="M62.98616,45.81289q-1.43355-1.2228-2.8671-2.4454a25.8464,25.8464,0,0,1-4.3736,4.3514,28.68942,28.68942,0,0,1-6.2281,3.5396,37.26554,37.26554,0,0,1-14.2614,2.563,61.17782,61.17782,0,0,1-6.6983-.4823,52.10734,52.10734,0,0,0,12.2877,1.4585,34.36167,34.36167,0,0,0,14.7042-3.4454,23.23464,23.23464,0,0,0,4.5454-2.8978C61.105,47.61359,62.05026,46.73469,62.98616,45.81289Z"/>
            <path class="cls-12" d="M69.68226,44.28349q-1.64985-.9099-3.2998-1.8198a31.633,31.633,0,0,1-3.1114,4.9457,24.678,24.678,0,0,1-4.494,4.3316,29.7388,29.7388,0,0,1-12.8836,5.3037,48.49535,48.49535,0,0,1-7.6287.5757,41.94273,41.94273,0,0,0,12.9854-.4484,29.18736,29.18736,0,0,0,12.7464-6.2054A31.3921,31.3921,0,0,0,69.68226,44.28349Z"/>
          </g>
          <path class="cls-5" d="M70.65676,33.748c-.1455,4.315-4.5725,7.5778-9.408,8.8707a22.06475,22.06475,0,0,1-2.9438.5652,22.98972,22.98972,0,0,1-3.5147.1735,22.37663,22.37663,0,0,1-5.1322-.7108c-.582-.1566-1.1529-.3301-1.7069-.5372a16.11764,16.11764,0,0,1-3.4755-1.7294,9.4652,9.4652,0,0,1-4.052-5.0482,6.79553,6.79553,0,0,1,1.0746-5.8261c2.8039-4.024,8.8762-5.91,14.3889-5.8037a21.99914,21.99914,0,0,1,7.6115,1.4887,16.81064,16.81064,0,0,1,6.5648,7.091A13.83931,13.83931,0,0,1,70.65676,33.748Z"/>
          <path class="cls-12" d="M63.24686,29.42989a7.61668,7.61668,0,0,0-2.2743,14.0442,32.30451,32.30451,0,0,1-16.2724-.1363,9.51551,9.51551,0,0,1,8.8369-5.9343,7.91106,7.91106,0,0,1,9.7098-7.9736Z"/>
          <path class="cls-14" d="M85.96356,43.36859a15.72985,15.72985,0,0,1-1.1361,5.8541,6.55047,6.55047,0,0,1-4.2646.75c-3.6994-.6604-6.0108-4.4662-6.8223-8.132-.8172-3.6658-.6325-7.5275-1.7798-11.1037a15.60638,15.60638,0,0,0-4.1023-6.5201C78.38576,26.90329,85.96356,34.46429,85.96356,43.36859Z"/>
          <path class="cls-15" d="M72.61126,17.30719q.84435,2.0184,1.6884,4.0359a18.38538,18.38538,0,0,0,2.0978,4.0388c1.7295,2.2996,4.4272,3.6594,6.9094,5.0526a2.44878,2.44878,0,0,0,1.9949.229c1.62-.5679,1.804-2.7738.956-4.0689-2.2456-3.4299.8488-7.6833-2.9922-11.2727-1.3177,1.5031-2.3947,2.9899-2.2212,4.9813a15.67542,15.67542,0,0,1-4.9179-4.6559c-1.4371-2.5073-1.2134-6.2829,2.0906-7.3318a4.92265,4.92265,0,0,1,2.7173-.0502c2.3952.6232,4.0426,2.5631,5.2115,4.6438,1.945,3.4621-.4885,6.0582,1.4368,11.0505a.37781.37781,0,0,0,.7321-.1266c.0596-4.1042,1.257-7.2945.3405-10.9267-1.0482-4.1544-4.2709-8.0725-8.5289-8.5486a7.95212,7.95212,0,0,0-8.7934,8.7228A15.2044,15.2044,0,0,0,72.61126,17.30719Z"/>
        </g>
        <g>
          <path class="cls-9" d="M81.71156,10.58629a1.0144,1.0144,0,1,1-1.0144-1.0144A1.01436,1.01436,0,0,1,81.71156,10.58629Z"/>
          <path class="cls-8" d="M81.32676,10.58629a.6296.6296,0,1,1-.6296-.6297A.62962.62962,0,0,1,81.32676,10.58629Z"/>
          <path class="cls-16" d="M80.51106,10.33149a.2861.2861,0,1,1-.2861-.2861A.28611.28611,0,0,1,80.51106,10.33149Z"/>
        </g>
      </g>
    </g>
  </g>
</svg>
