<svg xmlns="http://www.w3.org/2000/svg" width="100.00001mm" height="130.9mm" viewBox="0 0 283.4646 371.05511">
  <defs>
    <style>
      .cls-1 {
        fill: none;
      }

      .cls-2 {
        fill: #e0e0e4;
      }
    </style>
  </defs>
  <g id="图层_2" data-name="图层 2">
    <g id="图层_1-2" data-name="图层 1">
      <g>
        <path class="cls-1" d="M176.38611,153.12946l-6.6225-2.95148a42.46218,42.46218,0,0,0,4.31342-19.64862c0-11.46582-3.11548-19.91144-8.68512-25.93476a45.73784,45.73784,0,0,1,26.794,11.93525L200.98572,105.73A57.2288,57.2288,0,0,0,160.5863,89.52985a54.376,54.376,0,0,0-19.73224,3.51623,97.23834,97.23834,0,0,0-15.37664-1.11584H85.87781V223.128h16.7998V171.129h22.79981c12.7984,0,23.8125-2.53473,32.1084-7.78333l7.20068,3.18323c13.20019,5.60059,23.39941,9.59961,23.39941,23.59961,0,12-10.39941,20.59961-28.39941,20.59961-14.79981,0-28.39942-6.39942-38.39942-16.19922l-10,11.59961a66.69092,66.69092,0,0,0,47.59961,19.39941c28.79981,0,46.39942-16.59961,46.39942-37.39941C205.38611,168.72906,192.5863,159.52887,176.38611,153.12946Zm-52.90869,4.39941H102.67761v-51.999h20.79981c.12,0,.235.00274.35437.00311a30.98372,30.98372,0,0,0-6.24451,18.79669c0,16.50415,11.00183,25.62378,22.29,31.18109A57.87021,57.87021,0,0,1,123.47742,157.52887Zm31.25873-13.88293c-10.18531-4.07624-20.14887-8.92957-20.14887-20.31629a16.87767,16.87767,0,0,1,8.80121-15.10852c9.27112,3.37921,13.88873,10.24793,13.88873,22.30823A30.67633,30.67633,0,0,1,154.73615,143.64594Z"/>
        <path class="cls-2" d="M0,0V229.323a141.12985,141.12985,0,0,0,15.50543,64.52374q.78259,1.52793,1.60089,3.03418a142.3031,142.3031,0,0,0,29.32831,37.35474q2.517,2.28762,5.1427,4.45471,5.24991,4.33265,10.911,8.15912,1.41376.95508,2.85163,1.877,2.87549,1.8435,5.844,3.55078a141.19353,141.19353,0,0,0,15.37964,7.63989q6.35869,2.68955,13.02173,4.766,1.66424.51764,3.34588.9953a141.83,141.83,0,0,0,38.80091,5.3767h.0003a141.074,141.074,0,0,0,79.24378-24.20562q2.8276-1.91025,5.55682-3.95154,5.457-4.081,10.49689-8.66229a142.30456,142.30456,0,0,0,29.32837-37.35474q.81821-1.50622,1.60089-3.03418A141.12985,141.12985,0,0,0,283.4646,229.323V0ZM20.22229,18.2486l-9.40918,6.00048V20.5528l6.04883-3.64844v-.09571l-6.04883-3.64843V9.46393l9.40918,6.00049ZM35.9176,29.00153H24.39709V25.9776H35.9176ZM158.98669,225.52789a66.69092,66.69092,0,0,1-47.59961-19.39941l10-11.59961c10,9.7998,23.59961,16.19922,38.39942,16.19922,18,0,28.39941-8.59961,28.39941-20.59961,0-14-10.19922-17.999-23.39941-23.59961l-7.20068-3.18323c-8.2959,5.2486-19.31,7.78333-32.1084,7.78333H102.67761v51.999H85.87781V91.93024h39.59961a97.23834,97.23834,0,0,1,15.37664,1.11584,54.376,54.376,0,0,1,19.73224-3.51623A57.2288,57.2288,0,0,1,200.98572,105.73l-8.79981,10.79981a45.73784,45.73784,0,0,0-26.794-11.93525c5.56964,6.02332,8.68512,14.46894,8.68512,25.93476a42.46218,42.46218,0,0,1-4.31342,19.64862l6.6225,2.95148c16.20019,6.39941,29,15.5996,29,34.999C205.38611,208.92828,187.7865,225.52789,158.98669,225.52789Z"/>
        <path class="cls-2" d="M143.38849,108.22113a16.87767,16.87767,0,0,0-8.80121,15.10852c0,11.38672,9.96356,16.24005,20.14887,20.31629a30.67633,30.67633,0,0,0,2.54107-13.11658C157.27722,118.46906,152.65961,111.60034,143.38849,108.22113Z"/>
        <path class="cls-2" d="M117.58728,124.32965a30.98372,30.98372,0,0,1,6.24451-18.79669c-.11939-.00037-.23438-.00311-.35437-.00311H102.67761v51.999h20.79981a57.87021,57.87021,0,0,0,16.39984-2.01813C128.58911,149.95343,117.58728,140.8338,117.58728,124.32965Z"/>
      </g>
    </g>
  </g>
</svg>
