<svg xmlns="http://www.w3.org/2000/svg" width="195.11394" height="158.36264" viewBox="0 0 195.11394 158.36264">
  <defs>
    <style>
      .cls-1 {
        isolation: isolate;
      }

      .cls-2 {
        fill: #6b3910;
      }

      .cls-3 {
        fill: #3d1809;
      }

      .cls-4, .cls-5 {
        fill: #00865b;
      }

      .cls-5, .cls-7 {
        opacity: 0.5;
      }

      .cls-13, .cls-14, .cls-16, .cls-5 {
        mix-blend-mode: multiply;
      }

      .cls-6 {
        fill: #202a43;
      }

      .cls-7 {
        fill: #665e8d;
      }

      .cls-8 {
        fill: #8c81a6;
      }

      .cls-9 {
        fill: #ffdb00;
      }

      .cls-10 {
        fill: #3f526e;
        mix-blend-mode: screen;
      }

      .cls-11, .cls-14 {
        fill: #9ec9f5;
      }

      .cls-12, .cls-13 {
        fill: #d1b6c0;
      }

      .cls-13 {
        opacity: 0.8;
      }

      .cls-15, .cls-16 {
        fill: #62cde8;
      }

      .cls-16 {
        opacity: 0.7;
      }

      .cls-17 {
        fill: #ffb900;
      }
    </style>
  </defs>
  <g class="cls-1">
    <g id="图层_2" data-name="图层 2">
      <g id="OBJECTS">
        <g>
          <g>
            <g>
              <path class="cls-2" d="M193.668,119.1871a26.7079,26.7079,0,0,0,1.34941-10.8785c-12.51981-4.1409-27.15141-7.5264-28.67051-7.8113-2.1617-.4015-53.2058-10.7066-66.3326-12.3457-13.1241-1.6391-40.5101-.1493-57.991-4.1577-6.3874-1.4647-21.1355-3.2498-40.5687-4.137a12.88635,12.88635,0,0,0-1.4219,7.4064,50.85976,50.85976,0,0,0,.9901,6.9553c14.11961-.176,26.5781.0412,32.5874,1.0726a559.26177,559.26177,0,0,0,57.2954,6.8205c18.1266,1.1359,56.4593,4.2464,67.8892,7.7144,6.5039,1.9746,20.2759,6.8957,33.73761,12.1141A24.21449,24.21449,0,0,0,193.668,119.1871Z"/>
              <path class="cls-3" d="M193.668,119.1871a27.29489,27.29489,0,0,0,.8032-2.8728c-18.6174-7.7825-26.1563-9.0867-50.9566-14.6399-25.0931-5.6242-42.887-5.2336-66.1347-6.9388-23.2503-1.7051-42.1911-5.6792-53.07649-7.2578C21.28365,87.0405.03265,87.2633.03265,87.2633a50.85976,50.85976,0,0,0,.9901,6.9553c14.11961-.176,26.5781.0412,32.5874,1.0726a559.26177,559.26177,0,0,0,57.2954,6.8205c18.1266,1.1359,56.4593,4.2464,67.8892,7.7144,6.5039,1.9746,20.2759,6.8957,33.73761,12.1141A24.21449,24.21449,0,0,0,193.668,119.1871Z"/>
            </g>
            <g>
              <path class="cls-3" d="M42.02325,96.7688l-22.1706,17.4086-1.3908-3.3884,18.6937-16.8283S41.31985,93.0646,42.02325,96.7688Z"/>
              <g>
                <path class="cls-4" d="M34.70325,116.5469a4.00626,4.00626,0,0,0-.2062,1.9256s-8.8092-7.4524-3.0922-14.1178c0,0,7.8084,3.0217,9.938,8.3875l-1.6883-.2811s4.1244,3.5179,3.1895,10.9628C42.84405,123.4239,35.46945,119.805,34.70325,116.5469Z"/>
                <path class="cls-5" d="M34.70325,116.5469a4.00626,4.00626,0,0,0-.2062,1.9256s-8.8092-7.4524-3.0922-14.1178l11.4392,19.0692S35.46945,119.805,34.70325,116.5469Z"/>
              </g>
            </g>
            <g>
              <path class="cls-2" d="M146.62665,98.3194a3.52015,3.52015,0,0,0,1.3488,2.2903c1.0604.7646,2.9414,1.099,6.2678-.3485l17.6243-24.2497-2.1256-.825-1.7927-.6936Z"/>
              <path class="cls-3" d="M147.97545,100.6097c1.0604.7646,2.9414,1.099,6.2678-.3485l17.6243-24.2497-2.1256-.825Z"/>
              <g>
                <path class="cls-4" d="M149.56595,76.508a4.5986,4.5986,0,0,1-2.0587-.8366s2.7535,12.9507,12.59511,10.7882c0,0,1.18279-9.5343-3.08631-14.5995l-.6321,1.8595s-1.3182-6.0791-9.3525-9.1744C147.03145,64.5452,146.68785,73.9651,149.56595,76.508Z"/>
                <path class="cls-5" d="M149.56595,76.508a4.5986,4.5986,0,0,1-2.0587-.8366s2.7535,12.9507,12.59511,10.7882L147.03145,64.5452S146.68785,73.9651,149.56595,76.508Z"/>
              </g>
              <g>
                <path class="cls-4" d="M174.06575,93.8613a4.59634,4.59634,0,0,0,1.9747,1.019s-11.626,6.3355-16.3873-2.5449c0,0,6.4705-7.1018,13.0946-7.1556l-1.0008,1.6899s5.474-2.9544,13.052,1.1326C184.799,88.0023,177.86936,94.3923,174.06575,93.8613Z"/>
                <path class="cls-5" d="M174.06575,93.8613a4.59634,4.59634,0,0,0,1.9747,1.019s-11.626,6.3355-16.3873-2.5449l25.1458-4.3331S177.86936,94.3923,174.06575,93.8613Z"/>
              </g>
            </g>
          </g>
          <g>
            <path class="cls-6" d="M78.52465,38.5061c-.02029.112-.0327.1719-.0327.1719a13.41956,13.41956,0,0,0-2.3449,2.0875c-6.90369,7.7033-5.0458,22.2681-5.0458,22.2681a151.74634,151.74634,0,0,0,2.42211,23.0671c8.016,1.5011,16.22079,1.5341,24.29769,2.65,3.4978.4832,6.9856,1.0385,10.46831,1.6284,8.15419.85,14.47309,1.6008,14.47309,1.6008,6.2865-22.3271-2.429-48.9538-2.429-48.9538s-1.3819-7.7798-2.875-16.6042c-.3943-2.3308-.7948-4.7361-1.1826-7.0905-.029-.1688-.0553-.3352-.0842-.5015-1.9085-10.8523-6.5631-13.8747-6.5631-13.8747,1.8016-.0894,4.0221-2.1346,4.0221-2.1346-.0331.0094-.0636.0186-.0968.0255-4.8237,1.3178-11.3458-2.9433-22.4891-2.8444a15.88158,15.88158,0,0,0-14.7343,9.8307c-.294.9383-.52609,1.8244-.7065,2.6615a17.79422,17.79422,0,0,0-.2448,7.1278c.9658,5.0631,4.3563,7.0982,4.3493,9.2967-.0027.7251-.0645,1.6106-.1624,2.5494C79.27265,34.3436,78.66875,37.7198,78.52465,38.5061Z"/>
            <path class="cls-7" d="M113.55385,2.8461c-3.9673,2.2505-11.195,1.3449-20.1241.9882C81.90785,3.374,80.56,11.8259,80.56,11.8259a28.89334,28.89334,0,0,1-4.9359.668c.18031-.8371.4124-1.7232.7064-2.6615A15.88153,15.88153,0,0,1,91.06465.0017C102.208-.0972,108.73015,4.1639,113.55385,2.8461Z"/>
            <g>
              <path class="cls-8" d="M99.093,20.5024a4.08207,4.08207,0,1,0-4.2793-3.8748A4.08668,4.08668,0,0,0,99.093,20.5024Z"/>
              <path class="cls-9" d="M95.70475,16.5834a3.18982,3.18982,0,1,0,3.0278-3.344A3.18985,3.18985,0,0,0,95.70475,16.5834Z"/>
              <path class="cls-6" d="M97.07865,16.5152a1.81423,1.81423,0,1,0,1.7221-1.9019A1.81415,1.81415,0,0,0,97.07865,16.5152Z"/>
              <path class="cls-10" d="M96.32665,16.6012c.01571.3153.5396.5455,1.1702.5142s1.1291-.3122,1.1134-.6275-.5395-.5456-1.1701-.5143S96.31105,16.2859,96.32665,16.6012Z"/>
            </g>
            <path class="cls-11" d="M117.45836,26.4212c-3.67161,3.1156-12.55381,9.8386-22.69881,11.6501a53.22256,53.22256,0,0,1-16.2351.4341c.1442-.7864.7481-4.1626,1.0414-7.0384l.00251-.0027s6.48549,1.9641,11.03989.105c1.1224-.4582,1.9838-.8566,2.6446-1.1969a8.60154,8.60154,0,0,1,4.6843-.8565,3.37329,3.37329,0,0,0,1.5921-.1953c1.0982-.4673,5.7639-4.2345,8.5798-6.5493a12.7845,12.7845,0,0,1,4.436-2.3552,15.17587,15.17587,0,0,0,3.6465-1.5869c.02881.1662.0552.3326.0842.5014C116.66345,21.685,117.06405,24.0903,117.45836,26.4212Z"/>
            <path class="cls-12" d="M73.60036,56.2558l.48639,9.8031a89.86293,89.86293,0,0,0-.2523,10.4616,41.51177,41.51177,0,0,0,1.8733,9.9559c7.3181,1.1415,14.7687,1.2596,22.1133,2.2743,3.4924.4825,6.9749,1.0369,10.45231,1.6258,4.27339.4453,8.04419.8635,10.66679,1.1609,2.6869-10.4817.3755-33.0427.3755-33.0427a7.91221,7.91221,0,0,1,.94271,2.0998c.32659-6.4172-3.02031-16.6718-3.90731-18.9498-.3696-.9491-2.0392-1.4752-3.8622-1.7665a20.333,20.333,0,0,0-8.057.3714c-3.65.8983-7.0968,1.3686-13.24249,3.0306a19.5871,19.5871,0,0,1-13.79011-1.5087,25.57129,25.57129,0,0,0-2.6505,5.8075.043.043,0,0,1-.002.0104,59.18415,59.18415,0,0,0-2.4261,16.6221Z"/>
            <path class="cls-6" d="M119.57525,103.8729s-.182,9.7162-2.05289,14.9246a8.9824,8.9824,0,0,1-6.72571,5.8931s3.1043,29.4751-.2561,32.4499-6.6327-.4164-6.6327-.4164-5.3432,3.9611-8.4396-1.846S92.945,126.128,92.945,126.128c-7.86059,3.2767-15.1328-25.0566-15.1328-25.0566a40.582,40.582,0,0,1,7.88221-.3193c9.008.2467,22.08639,1.6882,29.06629,2.5242C117.71455,103.6275,119.57525,103.8729,119.57525,103.8729Z"/>
            <path class="cls-7" d="M92.945,126.128c-7.86059,3.2767-15.1328-25.0566-15.1328-25.0566a40.582,40.582,0,0,1,7.88221-.3193,56.21594,56.21594,0,0,0,7.449,12.3989C96.03345,123.4746,92.945,126.128,92.945,126.128Z"/>
            <path class="cls-7" d="M119.57525,103.8729s-.182,9.7162-2.05289,14.9246a8.9824,8.9824,0,0,1-6.72571,5.8931l.2072-2.561c2.8183-1.282,5.7804-10.7689,5.7804-10.7689s-2.35389,3.6547-4.2806,3.3065c-1.8977-.3431-1.26229-4.4807-1.2421-4.6041l-.0003-.0025a17.19151,17.19151,0,0,0,3.4994-6.7843C117.71455,103.6275,119.57525,103.8729,119.57525,103.8729Z"/>
            <path class="cls-13" d="M73.60036,56.2558l.48639,9.8031a89.86293,89.86293,0,0,0-.2523,10.4616,41.51177,41.51177,0,0,0,1.8733,9.9559c7.3181,1.1415,14.7687,1.2596,22.1133,2.2743,3.4924.4825,6.9749,1.0369,10.45231,1.6258,4.27339.4453,8.04419.8635,10.66679,1.1609,2.6869-10.4817.3755-33.0427.3755-33.0427s-3.97129,21.7384-24.6628,20.7011c-21.8713-1.0964-19.9812-30.9344-19.9061-31.6064a59.18415,59.18415,0,0,0-2.4261,16.6221Z"/>
            <g>
              <path class="cls-12" d="M114.76085,103.277a15.5089,15.5089,0,0,1-2.4313,5.3377,26.24505,26.24505,0,0,1-4.0867,4.6605s-.09949,3.2576-3.1146,10.4909c-3.271,7.8533-7.524,8.2913-7.5871,6.0981s3.9918-10.3093,3.9918-10.3093c-6.4074-2.1227-11.45159-10.0817-14.2084-15.409-.69219-1.3439-1.2429-2.5191-1.63-3.3931C94.70255,100.9995,107.78085,102.441,114.76085,103.277Z"/>
              <path class="cls-13" d="M114.76085,103.277a15.5089,15.5089,0,0,1-2.4313,5.3377,11.35749,11.35749,0,0,1-2.0389-.0357c-6.7867-.6977-5.0755-3.3053-12.9768-1.9652a11.79961,11.79961,0,0,1-9.9893-2.4679c-.69219-1.3439-1.2429-2.5191-1.63-3.3931C94.70255,100.9995,107.78085,102.441,114.76085,103.277Z"/>
            </g>
            <path class="cls-14" d="M83.81905,30.7124c-1.276,5.4813-3.2499,12.3414-3.2499,12.3414a7.98222,7.98222,0,0,1-4.4221-2.2883,13.4225,13.4225,0,0,1,2.3448-2.0875s.01251-.0599.0328-.1719c.1441-.7863.748-4.1625,1.0414-7.0383.0978-.9388.1597-1.8243.1624-2.5494.007-2.1985-3.3835-4.2336-4.3494-9.2967l5.0005.6833S85.09515,25.231,83.81905,30.7124Z"/>
            <g>
              <path class="cls-15" d="M93.95515,21.8579a5.28646,5.28646,0,0,1-3.0702-.3636,2.18786,2.18786,0,0,1-1.164.9788,4.84614,4.84614,0,0,1-3.3498.1894,78.23893,78.23893,0,0,0-9.2525-2.1957,10.49843,10.49843,0,0,0-2.6332-.1377c-3.0757.4107-5.7167-2.6394-5.7167-2.6394l-3.091.1533a7.32043,7.32043,0,0,1,.6587-2.0115l.0026-.0002c1.1541-2.3741,3.8964-5.2398,9.413-5.3845a18.487,18.487,0,0,1,2.2046.0789C86.941,11.37,93.95515,21.8579,93.95515,21.8579Z"/>
              <path class="cls-6" d="M90.08445,21.0146A20.05532,20.05532,0,0,0,79.662,16.764c-6.8175-.9054-10.8934.9249-10.8934.9249l-3.091.1534a7.32333,7.32333,0,0,1,.65881-2.0116l.00249-.0001a34.45048,34.45048,0,0,1,12.8813-.6392A18.99688,18.99688,0,0,1,90.08445,21.0146Z"/>
              <path class="cls-16" d="M77.11865,20.4668a10.49843,10.49843,0,0,0-2.6332-.1377c-3.0757.4107-5.7167-2.6394-5.7167-2.6394l-3.091.1533a7.32043,7.32043,0,0,1,.6587-2.0115l.0026-.0002c1.1541-2.3741,3.8964-5.2398,9.413-5.3845l.0104.0021A2.4705,2.4705,0,0,0,74.281,13.559C74.82005,15.2686,76.96215,17.9359,77.11865,20.4668Z"/>
            </g>
            <g>
              <path class="cls-17" d="M74.27265,86.5518a10.899,10.899,0,0,0,0,5.158c.7453,2.1565,2.87671-3.507,3.303-4.664S74.56385,84.642,74.27265,86.5518Z"/>
              <path class="cls-17" d="M77.18375,86.7498a10.89868,10.89868,0,0,0,.6207,5.1205c.9994,2.0511,2.4338-3.8277,2.7177-5.0277S77.24295,84.8187,77.18375,86.7498Z"/>
              <path class="cls-17" d="M80.10685,87.0921a10.89868,10.89868,0,0,0,.6207,5.1205c.9994,2.0511,2.43381-3.8277,2.7177-5.0277S80.16605,85.161,80.10685,87.0921Z"/>
            </g>
            <g>
              <path class="cls-17" d="M110.75725,90.0915a10.89883,10.89883,0,0,0,0,5.158c.7453,2.1565,2.8767-3.507,3.303-4.664S111.04845,88.1816,110.75725,90.0915Z"/>
              <path class="cls-17" d="M113.66825,90.2894a10.89969,10.89969,0,0,0,.6208,5.1206c.9994,2.0511,2.4337-3.8277,2.7177-5.0277S113.72755,88.3584,113.66825,90.2894Z"/>
              <path class="cls-17" d="M116.59136,90.6317a10.89963,10.89963,0,0,0,.62079,5.1206c.9994,2.0511,2.4337-3.8277,2.7177-5.0277S116.65065,88.7007,116.59136,90.6317Z"/>
            </g>
          </g>
        </g>
      </g>
    </g>
  </g>
</svg>
