<svg xmlns="http://www.w3.org/2000/svg" width="33.77843" height="49.15157" viewBox="0 0 33.77843 49.15157">
  <defs>
    <style>
      .cls-1 {
        fill: #f7eddf;
      }

      .cls-2 {
        fill: #2d0c03;
      }
    </style>
  </defs>
  <g id="图层_2" data-name="图层 2">
    <g id="Слой_1" data-name="Слой 1">
      <g>
        <g>
          <path class="cls-1" d="M25.14714,41.4555a.84973.84973,0,0,1-.1045-.1133l-.1026-.0605C25.00554,41.3383,25.08074,41.3989,25.14714,41.4555Zm-5.34669,2.4649a18.22244,18.22244,0,0,0-.88281-4.5606,11.08216,11.08216,0,0,1,2.0205,2.8906,9.45917,9.45917,0,0,1,1.041,3.3282l.001.0546c-.0186.0411-.0332.1016-.05269.1446,1.02139-.9824-.40731-3.2871.03219-5.5664.4844-1.4082,1.7812-1.3653,2.9033-1.0508a4.93966,4.93966,0,0,0,1.56251.60739c.02049.00981.05369.02351.06349.02931l.10251.0332a.35743.35743,0,0,1-.09281-.0547,2.264,2.264,0,0,0,.4112.043,6.49154,6.49154,0,0,1-1.0303-.4297c-.1309-.084-.2764-.16411-.4336-.25a6.31888,6.31888,0,0,1-1.9101-1.7305c-1.0196-1.1425-1.418-2.7578-.6387-3.0937a8.14883,8.14883,0,0,1,3.3369.373c2.0039,1.04109.2119,3.0293-.8447,2.7442a.44138.44138,0,0,0-.043-.0196.60247.60247,0,0,1-.17289-.0781l-.04781-.0097a1.26059,1.26059,0,0,1-.5498-.3692c.6885,1.1504,3.9814,1.01949,4.8594,3.7012.0537,2.48829-2.4102,1.8887-3.6953,1.1855a1.77887,1.77887,0,0,0-.2168-.125c-.0821-.0488-.1622-.0996-.2334-.1465a1.98846,1.98846,0,0,1,.164.127,1.15639,1.15639,0,0,0-.1719-.0781,3.56539,3.56539,0,0,1,1.2852,3.6758c-.7607,1.55659-2.9873.34759-3.3154-.2188l-.0557-.0508a.64832.64832,0,0,0,.041.1094l-.02049.0176a1.12191,1.12191,0,0,0-.25681-.3535,2.62761,2.62761,0,0,1-.9707,3.8476C19.65294,49.8012,19.76924,46.02,19.80045,43.9204Z"/>
          <path class="cls-1" d="M16.51045,33.4809c.00679.0156.02829.0234.039.0293l.08789.09179c.0488.03521.1084.07621.1797.12111a.14272.14272,0,0,0,.0596.041.05071.05071,0,0,0,.0283.0254c.0322.0156.0596.041.0918.0547.0498.0351.1035.0586.1631.0996a4.5288,4.5288,0,0,0,4.1943.3848l.0225.06439a11.55844,11.55844,0,0,0,1.2031-.06639c-.6055.584-.4785,2.3652.6191,3.332a5.37373,5.37373,0,0,0,.9444,1.0196,2.17763,2.17763,0,0,0-2.6016,1.4472,7.17031,7.17031,0,0,0,.2041,2.961,8.91311,8.91311,0,0,0-.4258-1.041A6.0675,6.0675,0,0,0,18.92154,39.35l-.0098-.00389a20.27841,20.27841,0,0,0-.8047-2.1269,26.019,26.019,0,0,0-1.8984-4.0215A3.26977,3.26977,0,0,0,16.51045,33.4809Z"/>
          <path class="cls-1" d="M16.21254,33.1879c-.8574-1.4082-1.7988-2.3457-2.7822-2.2207l-.1016-.0058a6.15945,6.15945,0,0,0-.0176-1.65041,3.04853,3.04853,0,0,0,.4532-.84959,5.23242,5.23242,0,0,1,4.2724-2.3711,14.518,14.518,0,0,1,6.1748,1.248,3.601,3.601,0,0,0-1.0244.7852c-.4814,1.6582.15531,3.0957-.3965,4.4219l-.0048.0097c-1.2588.58789-3.3672-.5937-4.7491-2.82611-.664-1.05859-1.9209-2.28329-3.1347-1.65039-1.0264.707-.72859,1.8593-.752,2.39639.1133-.53509.0508-1.68549.90041-2.11909.92379-.4277,1.94729.5332,2.63959,1.61909,1.3497,2.24421,3.919,3.53321,5.0958,2.58011-.0059.0117,0,.0274-.0088.04889-.9864,2.53711-4.0088,2.21671-5.6172,1.33981-.0596-.041-.1133-.0645-.1631-.0996-.0322-.0137-.0596-.0391-.0918-.0547a.05071.05071,0,0,1-.0283-.0254.14272.14272,0,0,1-.0596-.041,2.72059,2.72059,0,0,1-.26759-.2129c-.01071-.0059-.03221-.0137-.039-.0293Z"/>
          <path class="cls-1" d="M26.152,7.8149a20.39271,20.39271,0,0,1-4.9024,4.2363c1.7676-2.793,2.7529-6.3867,5.7051-8.6914a11.02225,11.02225,0,0,1,5.25-2.8789c2.8662.2896-.3105,2.4277-1.5127,3.8359A47.16926,47.16926,0,0,0,26.152,7.8149Z"/>
          <path class="cls-1" d="M13.93224,27.8344a28.72344,28.72344,0,0,1,4.6563-7.0195c3.0664-2.7246,5.9355-5.0156,8.0293-5.1192-1.7305,1.793.8457,3.69729,1.2363,5.127a3.66224,3.66224,0,0,1-.4365,4.7422c-.8477.9707-2.1026,1.1816-3.1758,1.7617a11.062,11.062,0,0,0-6.2139-1.6699A5.05464,5.05464,0,0,0,13.93224,27.8344Z"/>
          <path class="cls-1" d="M13.94694,27.0317a8.82619,8.82619,0,0,1,.0967-2.5645l.00881-.0468c-.04991.082-.09871.1894-.15821.2929a48.95228,48.95228,0,0,1,6.9091-11.9648c.1407-.1973.2608-.4043.3965-.6153A14.11883,14.11883,0,0,0,26.444,8.1196c1.5068-1.30861,2.9257-2.47461,3.998-3.3692-1.6309,3.9512.8965,9.0528-3.6504,10.7637a1.44669,1.44669,0,0,0-.1474.1543c-2.0977-.1211-5.2579,2.0391-8.3536,4.8281a23.42223,23.42223,0,0,0-4.333,6.8516A2.24644,2.24644,0,0,0,13.94694,27.0317Z"/>
        </g>
        <g>
          <path class="cls-2" d="M24.94,41.2817c.0655.0566.1407.1172.2071.1738a.84973.84973,0,0,1-.1045-.1133Z"/>
          <path class="cls-2" d="M27.41764,20.1704a1.01059,1.01059,0,0,1-.1943.1484A1.07258,1.07258,0,0,0,27.41764,20.1704Z"/>
          <path class="cls-2" d="M29.75164,6.977c-.07819.08791-.1631.16991-.2461.25591.0263-.0254.0615-.0567.08691-.0821A1.91817,1.91817,0,0,0,29.75164,6.977Z"/>
          <path class="cls-2" d="M26.89514,20.4672c-.0283.0137-.0634.0254-.09269.0391a2.53722,2.53722,0,0,0,.42089-.1875C27.11784,20.3754,27.00654,20.4184,26.89514,20.4672Z"/>
          <path class="cls-2" d="M14.21354,23.9633c.0742-.1718.1523-.3418.2217-.5176C14.357,23.6215,14.28774,23.7915,14.21354,23.9633Z"/>
          <path class="cls-2" d="M29.85124,40.5454c-.794-2.1211-2.583-2.5723-3.8877-2.94341,1.1377-.26369,2.5967-2.03709.459-3.29689a8.32913,8.32913,0,0,0-5.0459.08789,11.55844,11.55844,0,0,0,1.2031-.06639,1.056,1.056,0,0,0-.2324.3887,6.479,6.479,0,0,1-2.1612.05269l-.13569-.10349a3.92658,3.92658,0,0,0,.51759-.0781c.0205.0039.039.01359.0595.01559l-.0566-.01559a3.55884,3.55884,0,0,0,.7959-.2657l.0508.0372-.0498-.0372a3.66362,3.66362,0,0,0,1.22361-.96671,2.82459,2.82459,0,0,0,.14749-.25789l.0381.002-.0381-.002c.68451-1.2148.459-2.789.5527-4.1953.1436-1.6953,2.541-1.4902,3.8565-2.6894a4.00275,4.00275,0,0,0,1.2607-5.084c-.4873-1.709-2.874-3.5117-1.5918-5.06841,4.85641-1.69919,2.499-7.80469,4.0957-11.33979.499-.9219,1.499-1.4317,2.2979-2.24021,1.1611-.77489.4052-2.86669-1.0391-2.41609a11.3131,11.3131,0,0,0-5.4863,3.002c-3.2832,2.6269-4.1416,6.7207-6.1436,9.5117a44.89067,44.89067,0,0,0-5.0488,8.1895c-.417.8671-.707,1.7851-1.0576,2.6796a47.9318,47.9318,0,0,1,6.3681-10.6972c.1407-.1973.2608-.4043.3965-.6153a5.14635,5.14635,0,0,0,.8477-.36321c-.1094.20311-.2119.40821-.3203.61131.0107-.0156.0244-.03131.0341-.0469l.3204-.5801c.1865-.0976.3769-.2089.5751-.332-.2626.5274-1.6015,3.0176-2.2929,3.4668l-.3594.4297.209-.2363a8.31283,8.31283,0,0,0,2.4678-3.6758c.1855-.1152.373-.2422.5664-.377-.03229.1114-.0645.2227-.0938.334.0361-.1113.0684-.2265.0996-.3398A19.88229,19.88229,0,0,0,26.444,8.1196c.4755-.4121.9355-.8028,1.3828-1.1817l-.3653.3633a63.62629,63.62629,0,0,0-5.66109,6.2871c.25879-.3554.49509-.6718.67969-.9082a4.32645,4.32645,0,0,0,.5215-.914,1.48636,1.48636,0,0,1-.07619.1464c-.60061.9102-1.36621,1.9668-2.19731,3.0977-.1474.1719-.3164.3496-.4375.5156a3.70938,3.70938,0,0,1,.25881-.2715C18.07684,18.6157,15.09245,22.6,14.01924,25.518a17.54861,17.54861,0,0,1,.8613-1.60549,10.63362,10.63362,0,0,0-.9824,2.4922c-.0088-.1933-.0069-.3711.0019-.5488.0342-.1094.0772-.2227.1192-.33791a2.84292,2.84292,0,0,0-.1182.31841c.0127-.2852.0371-.5489.06741-.7813a72.00523,72.00523,0,0,1,5.79389-9.9883c-2.2373,3.0938-4.8633,6.9668-5.7812,9.875.0244-.1757.0478-.3359.0625-.4746l.00881-.0468c-.04991.082-.09871.1894-.15821.2929.1005-.2441.2109-.498.3193-.75-.082.1875-.1582.3789-.251.5606a4.7897,4.7897,0,0,1-.8818,1.3125c-.32229.3105-.8692.4941-1.1524.8359a6.3827,6.3827,0,0,0-.7236-.5957.7879.7879,0,0,0,.2881-.7715.71568.71568,0,0,0-1.3682.04889c-.1523-.52739-.3135-1.05279-.5127-1.56649-.4336-1.1289-.89349-2.2363-1.2832-3.3808-.5595-1.6465-1.2705-4.293-.0469-5.7188a2.63279,2.63279,0,0,1,3.5049-.3886A3.75768,3.75768,0,0,1,12.92345,15.809c.67389,1.78131.16409,3.87111-1.30071,4.59381-1.8946.6387-2.0918-.7539-1.792-1.0762a.68988.68988,0,0,1,.3603-.3203c.0469-.03131.0752-.0527.0703-.0606-.0107-.0156-.0273.002-.12589.0196a.72993.72993,0,0,0-.39161.3301c-.2227.33-.3047,1.7168,1.7959,1.2363,1.5595-.6973,2.165-2.8652,1.4589-4.7344a3.873,3.873,0,0,0-1.3623-1.7148,3.4542,3.4542,0,0,0-1.4853-.5293,2.13059,2.13059,0,0,0-1.47659.455A3.29458,3.29458,0,0,0,7.36974,16.52a9.64109,9.64109,0,0,0,.6729,4.10741c.374,1.166.917,2.2578,1.4033,3.3769.2051.4688.3799.9512.5498,1.4356a.83314.83314,0,0,0-.1611-.08591c-.294-.48829-.5733-.98639-.82519-1.49809-.541-1.0957-1.02641-2.2148-1.67291-3.25391a9.67545,9.67545,0,0,0-2.706-3.16209,3.29339,3.29339,0,0,0-2.7578-.625,2.13972,2.13972,0,0,0-1.3028.8359,3.47147,3.47147,0,0,0-.5527,1.4746,3.86364,3.86364,0,0,0,.4307,2.1465c.9707,1.74609,3.01751,2.6817,4.5576,1.9414,1.7226-1.2929.6094-2.1269.2148-2.1679a.71635.71635,0,0,0-.5058.0859c-.0772.0625-.1016.0625-.0948.084.002.0058.0371,0,.0909-.0156a.68268.68268,0,0,1,.4775-.0684c.4404-.0234,1.376,1.0273-.3359,2.0625-1.4961.6523-3.4209-.3066-4.3477-1.9707a3.74771,3.74771,0,0,1-.418-1.8438,2.63052,2.63052,0,0,1,2.5586-2.4257c1.876-.0137,3.4385,2.2363,4.3369,3.7285.6231,1.0332,1.1739,2.0996,1.7549,3.1582.2022.3672.4229.7226.64751,1.0742a1.47589,1.47589,0,0,0-1.57131-.2832c-1.22069.3144-1.8438,3.1699.3076,3.2383a1.15708,1.15708,0,0,0,.252-1.9961c-.8018-.6153-1.5244.5976-1.0284,1.1172.375.8906,1.2422-.0039.9375-.4961-.623-.4492-.831.4179-.5849.3847-.0977-.0488-.0694-.5878.4023-.3496.36821.1407-.1972,1.2266-.5674.4805-.413-.4746.0069-1.3906.6817-1.0098.5332.3555.6211,1.459-.1494,1.6621a1.05618,1.05618,0,0,1-1.0645-.7089c-.0635-.6524-.0928-1.7071.96-1.97461a1.44319,1.44319,0,0,1,1.2734.371c-.2422.10161-.4277.34381-.3857.836a1.01239,1.01239,0,0,0,.4179.40821,1.2317,1.2317,0,0,0-.165.289,2.418,2.418,0,0,0,.0615,1.7676,4.53884,4.53884,0,0,0,1.4463,1.8321,5.84879,5.84879,0,0,0,1.9942,1.24609,2.88149,2.88149,0,0,0-.0127.94921,3.66671,3.66671,0,0,0,1.4365,2.4433,6.156,6.156,0,0,1,1.499,1.9981,14.34561,14.34561,0,0,1,1.2891,3.85739c.2031,1.09771.373,2.51561,1.54,3.01951.3486.1504.4736-1.1093.5156-2.1718.2412,1.40029.4014,2.81829.5196,4.27929.125,1.55461.70411,3.76561,2.7216,2.82031a2.72069,2.72069,0,0,0,1.10551-3.7715.83269.83269,0,0,0-.07221-.1231,15.86947,15.86947,0,0,0-1.0694-2.0664c-.0049-.0195-.0098-.0351-.0146-.0547-.0147-.0859-.0293-.1679-.043-.2558a9.2215,9.2215,0,0,0,2.1475,2.9277l.4013.3399a2.70283,2.70283,0,0,1-1.3144-.8438l-.0557-.0508a.64832.64832,0,0,0,.041.1094c.31151.6895,2.4434,2.3379,3.72851.3145a3.45232,3.45232,0,0,0-.81341-3.25,6.41237,6.41237,0,0,0,1.06541.5761C28.20674,43.0688,30.42254,42.3832,29.85124,40.5454Zm-2.3897,1.8828-.2353-.2285c-.8985-1.1524-3.1807-2.2598-4.2783-3.0782.0371-.0136.0752-.0293.1132-.041a23.28334,23.28334,0,0,1,4.4385,2.9688l.4776.4004A3.081,3.081,0,0,1,27.46154,42.4282Zm-5.2343-3.2774-.1182-.1679c-.0557-.0704-.1279-.1504-.21-.2403.1211.1406.2266.27739.3272.4082a2.67465,2.67465,0,0,0-.4981.6328c-.08-.1875-.1914-.3945-.30369-.59961a1.83089,1.83089,0,0,1,.15039.33991l.1475.2695c-.0615.1074-.124.209-.1807.332a5.34705,5.34705,0,0,0-.0596.6231l-.0429-.1504c-.0108-.0352-.0313-.0762-.044-.1133l.086.2793a8.03882,8.03882,0,0,0,.2646,2.3223.33636.33636,0,0,1-.0185-.0489l-.17479-.6171c-.044-.2227-.125-.4649-.19441-.7012.0098.0605.0293.1289.0322.1855l.3331,1.1231a8.45029,8.45029,0,0,0-.4034-.9824,5.84633,5.84633,0,0,0-.6484-1.0997,54.079,54.079,0,0,0-3.2529-5.8496,43.54775,43.54775,0,0,1,3.4189,5.2168,27.26356,27.26356,0,0,0-3.3828-5.4394,31.43622,31.43622,0,0,1,3.4678,4.5156,17.43324,17.43324,0,0,0-2.5-3.6777,20.13236,20.13236,0,0,1,2.9726,3.414A14.39745,14.39745,0,0,0,19.44,36.4731c.9405.8066,1.9405,1.7031,2.459,2.2695a22.97177,22.97177,0,0,0-2.30859-2.3535A16.358,16.358,0,0,1,22.401,38.4614l.4238.30659A2.00033,2.00033,0,0,0,22.22724,39.1508Zm-.26079,1.0469c.00979.0449.03029.0977.04589.1465-.0146-.043-.039-.0957-.0508-.1367Zm-3.04881-.8379c.0293.03519.0713.082.1025.11919a.3813.3813,0,0,0-.0791-.04109C18.93224,39.4125,18.92545,39.3852,18.91764,39.3598Zm.0039-.00981-.0098-.00389c-.0742-.2285-.15329-.4414-.2295-.66211-.0537-.34959-.124-.69719-.2109-1.039a15.53624,15.53624,0,0,1,.7812,1.74411l.1426.2754A4.10986,4.10986,0,0,0,18.92154,39.35Zm3.3418-3.44919a3.14281,3.14281,0,0,0,.1289.5098l-.25879-.0195a7.19348,7.19348,0,0,1-3.82521-1.2793,7.11615,7.11615,0,0,0,3.5205.8476.96821.96821,0,0,0,.2266-.0195,8.844,8.844,0,0,1-4.6846-1.4863,7.4784,7.4784,0,0,1-.56829-.5098c1.18839.8633,3.75579,1.94919,4.72069,1.5488l.6992-.1269a2.8621,2.8621,0,0,0,.039.5312l-.0888.0352C22.20274,35.9223,22.232,35.9106,22.26334,35.9008Zm1.8174,2.7676a2.77627,2.77627,0,0,0-.5518-.041l-.1806-.0723c-.961-.539-2.3643-1.5176-3.54989-2.2793.03719.0137.07429.0293.11039.0449,1.30661.7579,2.6377,1.44729,3.373,1.8125-.7763-.4687-1.705-.9863-2.6533-1.5351a20.67281,20.67281,0,0,1,2.1953.8516l.3467.1777c.0117.0098.0176.0234.0283.0312a5.37373,5.37373,0,0,0,.9444,1.0196c-.0196-.0039-.0401-.0059-.0596-.0098l-.1709-.1445c-.03029-.0215-.07029-.04491-.1016-.0645C23.90394,38.5239,23.99084,38.5981,24.08074,38.6684Zm-.2305.3223h0Zm-.6904-1.3711-.1035-.05861a15.917,15.917,0,0,0-2.9815-1.30469c.9102.3418,2.1563.6484,2.5781.8008l.0704.0293A2.72215,2.72215,0,0,0,23.15984,37.6196Zm.1572-.7051a1.31436,1.31436,0,0,0,.14941.0332c-.03811-.0078-.07131-.0078-.10841-.01371A.262.262,0,0,1,23.317,36.9145Zm-4.0537-1.1699a4.63122,4.63122,0,0,0,2.53711.6386l.59379.0313a2.97755,2.97755,0,0,0,.3164.6504C21.74474,36.6098,20.12954,36.2524,19.26334,35.7446Zm-.1621-.0645c-.044-.0273-.09379-.0547-.1377-.084.039.0215.0791.0411.1201.0606A.14307.14307,0,0,0,19.10124,35.6801Zm-.377-.0644c-.1474-.09771-.2812-.1895-.4199-.2813.1348.0879.2725.1778.41411.26559A.03659.03659,0,0,0,18.72424,35.6157Zm-1.2402-.8321c-.0859-.0722-.167-.1269-.251-.1894-.0254-.03321-.0527-.0703-.0791-.1016a11.986,11.986,0,0,0,1.044.7715c-.2657-.1797-.5137-.3457-.7178-.4863Zm.6641,1.90239c-.0381-.09179-.0635-.18949-.1065-.28129.92381,1.543,2.1709,3.4981,2.5723,4.4688a6.23553,6.23553,0,0,0-1.2031-1.1973l-.002-.0039C19.09245,38.8735,18.64224,37.7446,18.14814,36.686Zm2.3388,5.03511a.05822.05822,0,0,0-.0078.0274,5.538,5.538,0,0,0-.2031-.5352C20.34734,41.3754,20.41664,41.5454,20.48694,41.7211Zm2.1992-3.0625a13.93668,13.93668,0,0,0-1.7324-1.4785c.8662.5274,1.7139,1.0313,2.1026,1.2735l.4599.1738a1.99416,1.99416,0,0,0-.6855.14059Zm5.7334,3.7227-.1494-.1621a7.99485,7.99485,0,0,0-.5595-.6113,2.203,2.203,0,0,1,.3222.3769l.3809.3984a1.92938,1.92938,0,0,1-.4346.0665l-.2344-.2071a13.93478,13.93478,0,0,0-4.6259-3.18361,1.90337,1.90337,0,0,1,.2324-.04489,17.30294,17.30294,0,0,1,4.3545,2.58989,10.04686,10.04686,0,0,0-4.2149-2.60939,2.50219,2.50219,0,0,1,.2705-.0059c.6358.32229,4.2002,1.6387,4.66311,2.73829l.39459.47271A1.37312,1.37312,0,0,1,28.41954,42.3813Zm.6153-.3672-.208-.24611c-.0391-.04879-.0948-.09959-.1397-.14839l.3447.3965a1.08981,1.08981,0,0,1-.2109.1816l-.1894-.2363a5.33627,5.33627,0,0,0-2.0723-1.8535,11.10016,11.10016,0,0,1,1.57421.9707,10.25035,10.25035,0,0,0-1.02731-.8028,4.758,4.758,0,0,1,1.8144,1.1074l.3067.3145-.167-.1816a5.33347,5.33347,0,0,0-2.5996-1.66211c1.0107.29881,2.4755.73431,2.75781,1.30271l.15229.1582A1.48391,1.48391,0,0,1,29.03484,42.0141Zm-.35839-2.6387a.1718.1718,0,0,0-.02351-.0117c.0274.0195.0459.041.0713.0606a3.335,3.335,0,0,1,.57421.8964c-.00681-.00971-.01751-.0156-.02531-.0253l.0302.0351c.0459.1074.0938.211.1319.3262.0009.0469-.0049.0859-.0059.1308l-.0185-.0273c-.0098-.0117-.02539-.0215-.0372-.03321l.0557.07031a2.60109,2.60109,0,0,1-.0557.5059,4.38947,4.38947,0,0,0-2.4746-1.4883,6.3949,6.3949,0,0,1-1.0195-.4258c-.1309-.084-.2764-.16411-.4336-.25-.1533-.0898-.3057-.1914-.4609-.3027,1.0439.47259,3.1425.9961,3.9922,1.51559-1.1719-.89059-3.3516-1.23829-4.4112-1.84379-.0888-.0761-.1797-.15821-.2695-.2441,1.1553.5234,3.6875,1.0313,4.6035,1.6641-1.22259-.9785-3.5517-1.2285-4.7891-1.8731,1.1768.4844,3.6094.75389,4.542,1.3086-1.3144-.8789-3.6972-.957-4.8671-1.6484-.0137-.0176-.02739-.0332-.0411-.0488a19.82179,19.82179,0,0,0,3.2442.5898A5.09582,5.09582,0,0,1,28.67645,39.3754Zm-3.84281-2.1347a.89626.89626,0,0,0,.0986.082.05818.05818,0,0,1-.0175-.0039,1.86246,1.86246,0,0,0-.5645-.1582c-.0957-.0293-.1865-.0508-.2822-.0762C24.32194,37.1372,24.58364,37.1899,24.83364,37.2407Zm-.4883-.2461c.0908.0117.1856.0215.2862.0312a.66184.66184,0,0,0,.0507.0664C24.56994,37.059,24.45764,37.0258,24.34534,36.9946Zm.3985.6035c-.042-.0059-.083-.0098-.125-.0156l.0371-.0059h.0097C24.692,37.5844,24.71745,37.5903,24.74384,37.5981Zm1.2568.25389c.2695.10741.5537.21681.8437.34181-.8808-.2637-2.1084-.2832-2.9882-.584C24.46745,37.7368,25.43614,37.768,26.00064,37.852Zm-.6113-.41989a.44138.44138,0,0,0-.043-.0196.60247.60247,0,0,1-.17289-.0781l-.04781-.0097c-.0293-.0118-.0508-.0274-.07719-.0391a5.15055,5.15055,0,0,1,.59479.1523l.0459.0137A.89526.89526,0,0,1,25.38934,37.4321Zm.2138.25389c.0362.01561.07231.03121.1104.04691-.0518-.00791-.1065-.0176-.1582-.0274-.084-.0176-.16989-.039-.2598-.06051C25.40684,37.6586,25.51434,37.6723,25.60314,37.686Zm.1241-.24029c-.2696-.0996-.6143-.22071-.9776-.3339-.03419-.0254-.0625-.0547-.0937-.0821a5.03745,5.03745,0,0,1,1.4033.2637l.0889.0254A1.298,1.298,0,0,1,25.72724,37.4457Zm.4375-.13671a5.31745,5.31745,0,0,0-1.0586-.35539,1.71848,1.71848,0,0,1,.9355.1738l.2871.0898A1.30956,1.30956,0,0,1,26.16474,37.309Zm.1679-.09369-.124-.0449c-.6631-.4512-1.9463-.31841-2.7539-.375.8955-.0196,2.4551-.3868,2.9473-.0782l.3789.0957A1.97209,1.97209,0,0,1,26.33264,37.2153Zm.71881-.8574-.209-.0664c-1.01471-.4708-2.99321.041-3.876.2929.32719.168,2.97759-.6816,3.67479-.3418l.40921.1153a1.66158,1.66158,0,0,1-.26661.45309l-.1826-.05279c-.92379-.4785-2.6992-.0976-3.6123-.11521-.0313-.05269-.0674-.10549-.0957-.16009.7129-.1426,3.1494-.9961,3.9013-.6036l.33991.0684A1.29131,1.29131,0,0,1,27.05145,36.3579Zm-.01081-.8887-.04-.0567c-.0088-.0078-.0215-.0117-.0283-.0214l.081.1035c.0157.041.0352.0801.0469.1211a.25847.25847,0,0,0-.123-.13671,1.2083,1.2083,0,0,0-.7129-.252,1.61739,1.61739,0,0,1,.8398.41991.86475.86475,0,0,1,.0195.1113l-.207-.166-.0146-.0019c.0752.05469.1425.1211.2226.1699a1.12637,1.12637,0,0,1,.00881.1816l-.10841-.0234c-1.1103-.48241-3.1572.043-4.1533.51759-.0469-.08989-.0859-.17969-.1231-.27149a10.64317,10.64317,0,0,1,3.6934-.6719,5.596,5.596,0,0,0-3.6953.6699c-.0469-.1113-.0859-.2168-.1201-.3261a21.14844,21.14844,0,0,1,3.6377-.60941,7.81863,7.81863,0,0,0-3.6573.54881c-.0302-.1035-.05759-.2031-.0752-.29681a8.03846,8.03846,0,0,1,3.7188-.49809,4.81338,4.81338,0,0,0-3.7207.4805,1.937,1.937,0,0,1-.0361-.3711c.7119-.2207,3.2509-.8047,3.9238-.1465l.4267.2109A1.23809,1.23809,0,0,1,27.04064,35.4692Zm-2.4775-1.1406a6.51492,6.51492,0,0,1,1.6709.3593,1.97637,1.97637,0,0,1,.60741.4629l-.207-.1093c-.94531-.7872-3.15141-.5879-4.13671,0a1.48719,1.48719,0,0,1,.0234-.2247,9.748,9.748,0,0,1,1.9775-.4824Zm-1.666-.0137a11.31143,11.31143,0,0,1,1.3418-.00591,4.4211,4.4211,0,0,0-1.6592.36331h-.0049A.62876.62876,0,0,1,22.89714,34.3149Zm-.6758,1.0508-.3691.0586c-1.3545.3281-3.30179-.4727-4.626-1.3457.95021.5605,3.65921,1.5,4.5234,1.0918l.5-.0645A2.37407,2.37407,0,0,0,22.22134,35.3657Zm-.0508-.6016.17291-.03911c-.01271.03721-.02541.07431-.03711.11331l-.0186.01169h.01471a1.94778,1.94778,0,0,0-.05181.25l-.2168.02541a5.0056,5.0056,0,0,1-2.81539-.3515A7.11617,7.11617,0,0,0,22.17054,34.7641Zm-1.9844.00389c-.2812-.02929-.5556-.06639-.8095-.10549a4.10842,4.10842,0,0,0,.6582.002Zm1.6709-.88279a1.735,1.735,0,0,1-.3203-.082,2.413,2.413,0,0,0,.3135.0879,2.84232,2.84232,0,0,1-.5752.3613l-.3564-.2598c-1.5127-1.0859-4.1807-4.5058-6.3721-4.4219,1.7803.3672,5.1562,3.3008,5.9805,4.1465l.7461.5352a3.217,3.217,0,0,1-.5498.1992c-.0713-.0273-.1485-.0508-.2217-.0762a1.10889,1.10889,0,0,0,.21381.0762c-.11711.0313-.23341.0547-.35151.0742l-.27249-.0761a2.16627,2.16627,0,0,0,.25489.08,4.19852,4.19852,0,0,1-.418.043l-.1582-.1191c-1.3056-.961-3.6006-4.0547-5.5019-4.0059,1.5625.3535,4.4785,2.9785,5.1347,3.7871l.4991.3418a5.2413,5.2413,0,0,1-1.3203-.1152l-.24129-.1758c-.039-.0215-.08-.0488-.12011-.0742l.3545.25c-.1855-.041-.3652-.0938-.541-.15041-.44139-.18749-.8369-.36719-1.1367-.49219a.31392.31392,0,0,0,.0556.0625,6.29992,6.29992,0,0,1-.6308-.5078c-.0352-.0547-.0684-.1074-.10649-.1602l-.00681-.0156a3.26977,3.26977,0,0,0,.30181.2832l-.29791-.293a4.79612,4.79612,0,0,0-2.0918-2.1328,1.31591,1.31591,0,0,0-.3017-.1679c.0127,0,.0253-.004.0371-.004-.0264-.0058-.0479-.0039-.0743-.0078a1.18756,1.18756,0,0,0-.1318-.039,1.48411,1.48411,0,0,1,.5108-.1407.71513.71513,0,0,0-.544.0879,1.70419,1.70419,0,0,0,.0088-.1718,1.50011,1.50011,0,0,1,.5293-.1661c.0371-.0039.0752.004.1133.002-.0371-.0078-.0752-.0195-.1094-.0234.0107-.0586.0195-.11531.0283-.1797a1.29227,1.29227,0,0,1,.1514-.0137,1.42992,1.42992,0,0,0-.1475-.0254c.0108-.082.0225-.1719.0342-.2656.0606-.0098.1231-.0098.1856-.0156a1.58293,1.58293,0,0,0-.1797-.02931c.0127-.09379.02731-.18949.0459-.28909a2.07522,2.07522,0,0,1,.2695-.0352,1.79671,1.79671,0,0,0-.2549-.0332c.0156-.08.0352-.1582.0567-.2382a1.97869,1.97869,0,0,1,.5107-.0762,1.7036,1.7036,0,0,0-.4697-.0488,2.13079,2.13079,0,0,1,.1035-.2364,6.65109,6.65109,0,0,1,3.6308,1.74609l.3516.33011a6.7986,6.7986,0,0,0,1.1621,1.04489,6.75186,6.75186,0,0,0,2.1455,1.35941l.4024.1543A2.66063,2.66063,0,0,1,21.857,33.8852Zm-8.47459-4.666-.00391-.0117c.0117-.0196.0235-.0371.0352-.0567C13.40294,29.1743,13.39224,29.1957,13.38245,29.2192Zm.85159-.25a1.89156,1.89156,0,0,0-.0547.2305.73281.73281,0,0,0-.21189.1015c.041-.0898.08589-.1777.13379-.2637A1.22524,1.22524,0,0,1,14.234,28.9692Zm-.0938-.0039a3.10013,3.10013,0,0,1,.3584-.4942,1.72054,1.72054,0,0,0-.2558.4766C14.20864,28.9536,14.17254,28.9575,14.14024,28.9653Zm-.3066.6504c.0117-.0332.0225-.0645.0371-.09771a2.061,2.061,0,0,1,.2783-.16009c-.0078.0605-.0088.11909-.0117.1777A.78165.78165,0,0,0,13.83364,29.6157Zm.2959.0215c-.002.09179,0,.1796.002.2636a.9376.9376,0,0,0-.4375.1055c.0253-.0762.0498-.1504.0781-.2305A1.98237,1.98237,0,0,1,14.12954,29.6372Zm-.4853.5253a1.9146,1.9146,0,0,1,.48921-.1953c.00389.084.00679.1621.01169.2383a.8126.8126,0,0,0-.5224.10549.55964.55964,0,0,0-.0049-.05859A.8964.8964,0,0,1,13.64424,30.1625Zm-.00879.252a1.68608,1.68608,0,0,1,.51269-.1621c.0019.0625.0019.1152.0019.168a.86929.86929,0,0,0-.5185.0605C13.63154,30.4575,13.63634,30.436,13.63545,30.4145Zm-.07131-.5332.0117-.0039-.0088.0215Zm3.457-.7754a5.677,5.677,0,0,1,.4395.5352,3.64116,3.64116,0,0,0-2.6797-1.0977,1.24689,1.24689,0,0,1,.1884-.1328A5.10008,5.10008,0,0,1,17.02114,29.1059Zm-1.72269-.8203a1.86958,1.86958,0,0,1,1.59869.69139A3.70229,3.70229,0,0,0,15.29845,28.2856Zm2.26369,1.5039.0049.0059c.041.0605.085.1171.123.17959a6.72738,6.72738,0,0,0,.73641.98441l-.10061-.0976c-.6856-.8223-2.52639-2.1856-3.8057-1.9786a1.40688,1.40688,0,0,1,.1944-.2656A5.00823,5.00823,0,0,1,17.56214,29.7895Zm4.626,3.7793-.18069-.0723a5.49936,5.49936,0,0,1-1.62691-.9883,3.811,3.811,0,0,0,2.08691.586h.06929A2.94788,2.94788,0,0,1,22.18814,33.5688Zm.5889-.96481a3.62474,3.62474,0,0,1-.2305.47851,3.5662,3.5662,0,0,1-1.2139-.2774,1.74771,1.74771,0,0,0,1.4532-.25c-1.2588.58789-3.3672-.5937-4.7491-2.82611-.0136-.02149-.0302-.04109-.0429-.06449,1.3798,1.2266,3.0693,2.707,4.05861,2.7207l.79389-.0234c-.0195.0625-.0313.125-.0557.1836l-.0048.0097C22.77994,32.5668,22.78584,32.5825,22.777,32.604Zm.1689-.56249c-.0156.0742-.0469.1464-.0674.2207-.0097.0332-.0195.0644-.0302.0976l-.3672.0039c-1.7559.0274-3.42-2.0195-4.9483-3.3125a2.57953,2.57953,0,0,0-2.14739-1.1269,2.18721,2.18721,0,0,1,1.23629.0781c2.0752,1.2129,3.8984,3.3574,4.9541,3.7832a4.10869,4.10869,0,0,0,1.0459.3926l-.44629-.1465c-1.57911-.627-3.13961-2.4473-4.90431-3.8711a2.24474,2.24474,0,0,0-1.46-.502,2.19688,2.19688,0,0,1,.4239-.0058.88261.88261,0,0,0-.7715.0605,2.72182,2.72182,0,0,0-1.5215,1.3692.33475.33475,0,0,0-.0605.0683c.0087-.00781.0214-.0097.0283-.0156a5.617,5.617,0,0,0-.3223.7031.20394.20394,0,0,1-.0264.0313q-.03945-.19335-.09469-.3867a2.86432,2.86432,0,0,1,3.34769-2.043c2.52831.3906,4.1367,2.9219,5.0342,3.5195a6.30644,6.30644,0,0,0,1.1328.8321c-.0118.0839-.0176.1679-.0352.25l-.4219-.168A3.82538,3.82538,0,0,0,22.94594,32.0415Zm.0352-.25-.625-.4258c-1.34569-.9668-2.6436-3.1504-4.8741-3.8965a3.18072,3.18072,0,0,0-3.874,1.3457,3.09592,3.09592,0,0,0,.1563-.3535c.0556-.0801.12111-.1621.1826-.2403a3.28668,3.28668,0,0,1,3.7773-.7597,11.77656,11.77656,0,0,1,4.3594,3.0683,4.22046,4.22046,0,0,0,.9404.7539A4.59471,4.59471,0,0,1,22.98114,31.7915Zm.0166-2.18951-.2862-.25779a7.02963,7.02963,0,0,0-.5273-.5215,1.7051,1.7051,0,0,1,.20121.2441l.61129.53719c-.001.40621.0166.80071.0283,1.18551.0049.166.0029.3301-.001.4922l-.5283-.375c-1.0596-1.668-4.73629-4.334-7.1416-3.8125a3.38743,3.38743,0,0,1,2.7002.1582,13.07382,13.07382,0,0,1,4.0713,2.9433l.8994.5938-.459-.3047c-1.26659-1.4922-4.6699-4.1894-7.0322-3.6894.1055-.0625.2139-.125.3271-.1817a2.533,2.533,0,0,1,.4288-.0898,2.077,2.077,0,0,0-.2168-.0078c.1259-.0547.2568-.1055.3896-.1504a11.77676,11.77676,0,0,1,5.3184,2.10929,11.839,11.839,0,0,0-2.9522-1.78709,9.85223,9.85223,0,0,1,3.5772,1.74809l.6338.46481-.3516-.2676A10.26758,10.26758,0,0,0,17.44,26.1938c-.05759-.0137-.1162-.0254-.1748-.0352.15821-.0254.3291-.0332.4971-.0429,1.252.1621,4.1055,1.0351,4.8223,1.7617l.582.3418a4.567,4.567,0,0,0-.1269.6816A6.33378,6.33378,0,0,0,22.99774,29.602Zm-6.3174-3.30659c.0488-.0137.1015-.0235.1523-.0372a.96749.96749,0,0,0,.1397.0176l.0019.002A2.87121,2.87121,0,0,0,16.68034,26.2954Zm.6025-.0059c.0264-.002.0528-.002.0801-.002.0508.0098.10551.02349.1621.0352C17.44494,26.311,17.36294,26.2973,17.28284,26.2895Zm5.8848,1.9258-.2901-.2012a12.07672,12.07672,0,0,0-4.1796-1.9082q.44235.0147.8671.0527a15.81244,15.81244,0,0,1,3.7442,1.2676l.4355.207a3.292,3.292,0,0,0-.5576.4903C23.17834,28.1528,23.17545,28.1821,23.16764,28.2153Zm.5801-.584-.19929-.1016a17.07542,17.07542,0,0,0-2.622-1.1972,12.58717,12.58717,0,0,1,3.28509,1.0058A4.12755,4.12755,0,0,0,23.74774,27.6313Zm1.1484-.6074a3.497,3.497,0,0,1-1.4062-.4063l-.23049-.1367.125.084a3.74942,3.74942,0,0,0,1.22169.5918c-.1211.0566-.2461.1055-.3643.1699a11.062,11.062,0,0,0-6.2139-1.6699,5.05464,5.05464,0,0,0-4.0957,2.1777c.0284-.0625.0635-.1289.0928-.19141a4.81012,4.81012,0,0,1,4.0693-2.27929A17.94046,17.94046,0,0,1,24.11,26.475l1.2177.36141C25.18224,26.895,25.04164,26.9633,24.89614,27.0239Zm1.376-8.9688c-.2061.1914-.4785.54689-.68169.5996l-.12591.07429.0752-.03519a1.56036,1.56036,0,0,0,.80371-.4941c.04289.0859.08489.1718.13179.2558.0469.082.0938.1641.1426.2461-.4473.2676-1.2979.6719-1.6113.8457l-.2559.1192.1484-.0586c.416-.2657,1.3623-.3731,1.791-.7891.1583.25.3243.4961.48541.7344a7.0285,7.0285,0,0,1-2.94631,1.3242l-.4394.10159.2509-.04889c.88481-.125,2.6563-.4375,3.1592-1.3398q.1728.25785.3184.5039a.675.675,0,0,1-.1006.0762.675.675,0,0,0,.1006-.0762,3.06755,3.06755,0,0,1,.3359.7285c.0156.0234.0244.0488.0391.0742a.68368.68368,0,0,1-.0371.1055.26477.26477,0,0,0,.042-.0938,4.73824,4.73824,0,0,1,.4296,1.0176l-.6826.1133c-.042.0117-.0908.01949-.13469.0312l.81729-.1425a4.07955,4.07955,0,0,1,.1143.5156,7.81119,7.81119,0,0,1-2.5498.4551l-.3701.0078.209.0058c.6972.0176,2.125.1426,2.7207-.4082a3.99427,3.99427,0,0,1,.0507.7911,2.87033,2.87033,0,0,1-.3798.0683,2.79408,2.79408,0,0,0,.3789-.0566c-.0039.0722-.0157.1426-.0225.2148a4.86111,4.86111,0,0,1-2.2988-.0566l-.336-.0879.1866.05859a3.69667,3.69667,0,0,0,2.4258.22651c-.0137.086-.0215.1739-.0401.2559a2.61516,2.61516,0,0,1-.457.0664,2.81152,2.81152,0,0,0,.456-.0566c-.0244.1035-.0625.2011-.0966.30079a5.71616,5.71616,0,0,1-2.4317-.03329l-.3467-.0605.1934.043c.6045.1347,1.9189.5937,2.5478.1523a2.894,2.894,0,0,1-.3125.6094l-.7421.0058c-.4424-.05071-.959-.1464-1.5205-.2578a6.64818,6.64818,0,0,1,.8271.2715l1.43461-.0176c-.03621.0528-.06161.1114-.10061.16219-.4287.00191-1.5811.19331-1.9619-.045l-.2637-.06439.1445.0449a2.9437,2.9437,0,0,0,1.961.18749c-.0655.07421-.1348.14451-.209.21481a.75519.75519,0,0,1-.2354.1133.52627.52627,0,0,0,.1543-.0312c-.0166.0136-.0263.0293-.04.041a2.99367,2.99367,0,0,1-.2627.2246A5.19616,5.19616,0,0,1,25.149,25.52l-.2734-.09959.1504.0625a3.60083,3.60083,0,0,0,1.9531.457,4.14967,4.14967,0,0,1-.4951.3516,2.69579,2.69579,0,0,1-.5273-.125c-.2432-.06451-.5254-.1407-.82129-.2227.05659.0254.12889.0508.17769.0781.3945.0703.7686.20709,1.1631.2715-.0752.043-.1533.084-.2305.1231a6.12235,6.12235,0,0,1-1.9502-.295l-.3144-.0879.1748.0567a12.85853,12.85853,0,0,0,1.6836.5332c-.169.0722-.3389.1426-.5118.2129l-.6035-.1836c-2.33-1.1309-8.1084-2.3789-10.1865-.0293.084-.1602.168-.3184.2598-.4844a2.87163,2.87163,0,0,1,.71191-.6504,2.74082,2.74082,0,0,0-.48731.2559c.02831-.0489.0556-.09961.0859-.1504a3.27209,3.27209,0,0,1,1.0235-.6953,2.18139,2.18139,0,0,0-.8448.3926c.086-.1446.17871-.2911.2696-.43751a3.44113,3.44113,0,0,1,.49511-.38479,3.91279,3.91279,0,0,0-.36231.166c.0927-.1426.1914-.291.29-.4395a3.85529,3.85529,0,0,1,.6524-.3964,2.566,2.566,0,0,0-.54009.2285c.08689-.1309.16989-.25981.26079-.3906a4.39127,4.39127,0,0,1,.4804-.2188,3.06372,3.06372,0,0,0-.4228.1387c.042-.0606.0888-.12111.1308-.1817.126-.0722.2647-.1328.4034-.1953a3.47674,3.47674,0,0,0-.3438.1133c.0508-.0703.1025-.1426.1543-.2148.1035-.045.2051-.0918.3174-.1348a2.87649,2.87649,0,0,0-.291.1016c.0547-.0762.1054-.15041.1621-.2247,1.416-.2675,7.3008-2.0058,8.7178-3.082l1.0429-.623-.5918.3437c-2.2373,1.5117-6.7656,2.4981-9.1289,3.3067.0645-.086.1328-.1719.1983-.2579,1.5224-.0839,6.9599-2.5019,8.3212-3.4726l.9727-.5801-.5283.3047a38.474,38.474,0,0,1-8.6582,3.6113c.1035-.1328.209-.26751.3174-.4023,1.2539.2422,6.5429-2.4277,7.8466-3.4688l.7832-.5371C26.24864,17.9926,26.25945,18.0239,26.27214,18.0551Zm-.1621-.4687a6.767,6.767,0,0,0-.6573.5215l-.1084.07809.0655-.03709a4.8875,4.8875,0,0,0,.7392-.4102c.02541.07229.0557.1485.086.2207l-.3819.2578c-2.1006,1.34179-5.9091,3.2715-8.1826,3.6719.1123-.1387.2295-.2754.3467-.41211,1.3154.32811,6.1016-2.60939,7.2217-3.49019a2.13845,2.13845,0,0,1,.8662-.418Zm-.0049-.0196-.4854.1485c-1.8164,1.2402-5.3847,3.4316-7.4804,3.6191.1494-.1738.2939-.3476.4492-.5195.2324-.2051.45991-.4024.6885-.6035,1.0449.2812,4.4687-1.7891,5.7216-2.6797-1.6748.8769-3.9619,2.48829-5.5781,2.5547.2383-.209.4727-.4082.708-.60741.9112.32221,3.6524-1.61139,4.92291-2.32429-1.51171.6231-3.39161,2.1114-4.75981,2.1875.2852-.24021.5664-.4707.8457-.6953.7813.2637,3.0039-1.54291,4.0928-1.9297-1.3076.3555-2.8145,1.6856-3.917,1.7891.1855-.1445.3721-.2949.5508-.4336.8008.0078,2.9316-1.5684,3.8711-1.8125-1.1729.25-2.60159,1.2871-3.64259,1.6445,1.707-1.2773,3.25979-2.1465,4.52539-2.209a2.2981,2.2981,0,0,0-.35839.49029l-.10451.00781c-.044.0019-.0918.0156-.1377.0215l.2393-.0235a1.792,1.792,0,0,0-.1582.3789l-.2764.0274a1.54539,1.54539,0,0,0-.207.0293l.4834-.0547a1.58146,1.58146,0,0,0-.0596.3418l-.2471.0059c-.0137.0019-.0283.0097-.04.0117l.2861-.0137a1.92446,1.92446,0,0,0-.0049.1973l-.4033.1074a.43671.43671,0,0,0-.042.0215l.4453-.127a1.93212,1.93212,0,0,0,.0225.2266l-.4092.1699c-.0166.0078-.0371.0215-.05369.0293l.46289-.1973A1.88784,1.88784,0,0,0,26.10514,17.5668Zm5.3672-14.0527a2.91028,2.91028,0,0,0-.6836-1.4927,5.36188,5.36188,0,0,1,.6094-.2441A1.66187,1.66187,0,0,1,31.816,3.186C31.69984,3.2954,31.58564,3.4067,31.47234,3.5141Zm-.7803.8027c-.0781.0528-.1709.1211-.252.1758.1709-.3847-.3125-1.2148-.8349-1.7929.1641-.1094.3281-.2168.4912-.3125a2.141,2.141,0,0,1,.6113,1.9121C30.70374,4.3051,30.69694,4.311,30.692,4.3168Zm-.4492,1.0137c-.0156.0488-.0371.0957-.0508.14649-.0029-.00979.0029-.01759-.0029-.02539-.0069-.0019-.0098.0039-.01469.002a1.02623,1.02623,0,0,0,.05759-.1133Zm.1611-.5488c.0117-.0098.0254-.0215.0381-.0313l-.0098.0293a.25793.25793,0,0,0-.0293.0196c.002-.0059.0098-.0137.0098-.0196Zm-.4502.6699c-.0107.0176-.0195.0332-.02929.0508V5.4965c-.01461-.0117-.02341-.0039-.03511-.0097C29.90984,5.477,29.93034,5.4653,29.95374,5.4516Zm-.0342-.041c.00491-.0098,0-.0215.003-.0293.0146-.0098.0293-.0215.04291-.02931C29.94794,5.3754,29.93424,5.3911,29.91954,5.4106Zm-.0234.0293-.0283.0332.0019-.0078A.31043.31043,0,0,0,29.89614,5.4399Zm.2637-.75391c-.0489.03511-.0977.06831-.15039.10551a3.10505,3.10505,0,0,0-.72951-1.8653c.0791-.0566.1582-.1133.2363-.168C30.09145,3.393,30.54754,4.2055,30.15984,4.686Zm-.4092.28511c-.1006.0723-.21.1543-.3125.2305a3.212,3.212,0,0,0-.6084-1.9434c.125-.0976.25-.1855.375-.2773A2.21391,2.21391,0,0,1,29.75064,4.9711Zm-.5488.4043c-.15139.1114-.2969.2149-.4551.336a3.28413,3.28413,0,0,0-.4356-2.0313c.1426-.11911.2872-.2363.4297-.3496A2.41423,2.41423,0,0,1,29.20184,5.3754Zm-.1446.5313c-.00579.0039-.0117.0156-.0166.0195l-.0595.0664.039-.0312c.07231-.0547.1944-.127.3037-.209a1.34416,1.34416,0,0,1-.0898.1641l-.0391.0527.0284-.0235c.082-.0664.2685-.1523.3339-.2773.0118-.0117.0293-.02341.042-.0352l-.0195.0254.0273-.0214c.0049-.002.0127-.0079.0186-.0098a2.01477,2.01477,0,0,1-.0996.18159l-.0391.05281.0293-.0254c.0518-.041.1446-.0957.2237-.1602l-.004.0137-.02049.0273.01759-.0097c.0078-.0039.0225-.0078.0342-.0137a2.8526,2.8526,0,0,1-.457.4727l-.1377.1191.082-.06061a3.91891,3.91891,0,0,0,.6416-.46479c-.0654.1152-.1221.2461-.1553.291l-.0459.0684.0323-.0332c.0351-.0332.08-.0703.1259-.10741a.26005.26005,0,0,1-.0156.03321l-.0273.0332.0224-.0137a.963.963,0,0,1,.0879-.041.32246.32246,0,0,1-.0215.0605l-.0185.0254.0146-.0078a.16.16,0,0,1,.03131-.00781V6.0629l-.01761.0352.01761-.0156a.33489.33489,0,0,1,.05859-.0391.12672.12672,0,0,0,.0849-.0508l-.0068.02539-.3496.28711c-1.082.88089-2.49709,2.1133-3.8936,3.3946,1.10451-1.2383,2.2881-2.67,2.7344-3.2832l.1563-.2227C28.82974,6.0922,28.94,6.0004,29.05724,5.9067Zm1.0645-.2598a.23425.23425,0,0,0,.0371-.039c-.0176.0625-.0303.1289-.0459.1953a.13039.13039,0,0,0-.0137-.0645l-.00879-.0019A.39392.39392,0,0,0,30.12174,5.6469Zm.835-1.6211a3.118,3.118,0,0,0-.7696-1.6894c.1729-.1016.3467-.1958.5166-.2779a2.10154,2.10154,0,0,1,.6026,1.6177C31.18424,3.7954,31.065,3.9125,30.95674,4.0258Zm1.083-1.0566a2.4866,2.4866,0,0,0-.5362-1.2271,3.80624,3.80624,0,0,1,.5576-.1269,2.0296,2.0296,0,0,1,.2979,1.0395C32.25554,2.7602,32.149,2.8657,32.03974,2.9692Zm.4326-.4277a2.04645,2.04645,0,0,0-.3155-.9429,2.60269,2.60269,0,0,1,.5137-.0108,1.24807,1.24807,0,0,1,.1201.6094C32.691,2.309,32.58654,2.4262,32.47234,2.5415Zm.78811-1.0113a1.77463,1.77463,0,0,0-.501-.9438C33.38054.7646,33.46745,1.1044,33.26045,1.5302ZM32.20474.4809c.1543.01709.2832.0405.4033.0654a1.67617,1.67617,0,0,1,.5449,1.1802,3.59925,3.59925,0,0,1-.2373.3223c-.04-.5415-.667-1.4541-1.1279-1.3989l-.0566-.024C31.89024.583,32.04654.5185,32.20474.4809Zm-.48629.1504a1.78924,1.78924,0,0,1,.87789.8096,1.07036,1.07036,0,0,0-.79689-.3311A.80022.80022,0,0,0,31.232.7944l-.0205-.0073C31.38054.7299,31.54945.6787,31.71845.6313ZM31.193.7924a1.40452,1.40452,0,0,1,.48241.3213,2.46316,2.46316,0,0,0-.65231.1377.72916.72916,0,0,0-.5723-.1846C30.69494.9653,30.942.8754,31.193.7924Zm-.7764.2901a1.32271,1.32271,0,0,1,.4863.2104,5.12637,5.12637,0,0,0-.5937.2803.70636.70636,0,0,0-.5205-.1348l-.0899-.0268C29.93424,1.2939,30.17345,1.1855,30.41664,1.0825Zm-1.3369.66549.1006.04491a1.09842,1.09842,0,0,1,.1728.0606l-.2695-.1094c.2002-.1162.3994-.22511.6055-.3276a1.44194,1.44194,0,0,1,.5176.2202c-.1612.0918-.3252.1865-.4922.2978a.55529.55529,0,0,0-.3545-.0771,1.32572,1.32572,0,0,1,.2812.1308c-.1484.0996-.29779.21-.4463.32279a.97338.97338,0,0,0-.4072-.21829l-.11229-.0879C28.80824,1.9179,28.941,1.8281,29.07974,1.748Zm-.4111.25981a3.84841,3.84841,0,0,1,.4511.3559c-.0664.0508-.1318.1035-.1982.15629a.97571.97571,0,0,0-.5635-.31449C28.45864,2.1347,28.566,2.0742,28.66864,2.0078Zm-.3389.2153a2.04148,2.04148,0,0,1,.5156.3594c-.1152.0937-.2314.18549-.3467.2832a.82167.82167,0,0,0-.5078-.2559l-.1015-.0605C28.03384,2.4379,28.18034,2.3286,28.32974,2.2231Zm-.44629.332a1.8801,1.8801,0,0,1,.52929.38089c-.1309.11331-.2598.23241-.3896.35151a.63937.63937,0,0,0-.3262-.1992l-.2334-.1699C27.60224,2.7973,27.73794,2.6684,27.88345,2.5551Zm-.42481.3672.0781.0606a1.46113,1.46113,0,0,1,.4248.3593q-.1962.1788-.3867.3633a.73687.73687,0,0,0-.1806-.1894l-.4004-.1895C27.13834,3.1801,27.30534,3.0571,27.45864,2.9223Zm-.5039.4375c.01271-.0117.0264-.0215.0391-.0332l.2197.1113a1.36815,1.36815,0,0,1,.2988.3282q-.2709.26355-.5303.5332a.62217.62217,0,0,0-.2334-.1895l-.2705-.3203C26.63734,3.6469,26.78094,3.4946,26.95474,3.3598Zm-.4766.4317.1416.1796a1.527,1.527,0,0,1,.3194.3731c-.09769.1015-.1953.2051-.2891.3066a.77639.77639,0,0,0-.2812-.33981l-.1993-.24219C26.26724,3.9731,26.37464,3.8832,26.47814,3.7915Zm-.3125.2812.0762.0977a1.4667,1.4667,0,0,1,.34961.541c-.18551.2031-.36331.4043-.53121.6035a1.09725,1.09725,0,0,0-.25-.4414l-.1534-.2656C25.819,4.4243,25.98894,4.2446,26.16564,4.0727Zm-.5127.5371.0508.0957a2.31847,2.31847,0,0,1,.3028.668c-.2149.2558-.4034.4961-.5772.72649a1.806,1.806,0,0,0-.3555-.71869l-.0273-.0547C25.235,5.0786,25.44594,4.8442,25.65294,4.6098Zm-.6113.7227a3.9039,3.9039,0,0,1,.3213.8593c-.126.1719-.2373.3321-.3359.4825a1.41278,1.41278,0,0,0-.2911-.6114l-.08-.16791C24.78384,5.7075,24.90394,5.5161,25.04164,5.3325Zm-.3906.5703a3.52659,3.52659,0,0,1,.3183.8613,3.67777,3.67777,0,0,0-.3046.5566l-.084.1661a1.26785,1.26785,0,0,0-.3018-.7442l-.0742-.1621C24.34634,6.35,24.49864,6.1274,24.651,5.9028Zm-.4492.6855a2.6226,2.6226,0,0,1,.2998,1.05469l-.3711.74021a1.3793,1.3793,0,0,0-.1885-.7753l-.1084-.3887C23.95274,7.0082,24.07484,6.7973,24.20184,6.5883Zm-1.4785,4.4883c-.1573.1211-.3125.2383-.46.3438l.0205-.0352c-.0088.0117-.0146.0254-.02439.0391-.04011.0273-.07721.05069-.11721.0761a4.89568,4.89568,0,0,0,.9775-2.9433c-.123,1.17189-.7187,2.9726-1.6787,3.375a.049.049,0,0,0,.0166,0c-.0703.039-.1416.08589-.208.1191.6865-1.084,1.25781-2.291,1.8682-3.4961.1211-.2363.2451-.4707.3691-.707A5.11921,5.11921,0,0,1,22.72334,11.0766Zm.3369-.2695a4.73847,4.73847,0,0,0,.4453-2.8164l-.0108-.1543c.1094-.2071.2246-.4121.3389-.6153l.04881.2032a4.14013,4.14013,0,0,1-.29591,2.9394C23.40594,10.52,23.232,10.6665,23.06024,10.8071Zm.747-.6406a5.06508,5.06508,0,0,0,.3223-1.7676l.29491-.5352c.02739-.039.05959-.0801.08689-.1172a4.50954,4.50954,0,0,1-.3164,2.0664C24.06314,9.936,23.93524,10.0493,23.80724,10.1665Zm.5957-.5528a5.07295,5.07295,0,0,0,.19051-1.9765c.13469-.1778.27929-.3653.43449-.5567a3.472,3.472,0,0,1-.1894,2.1113C24.691,9.3383,24.54654,9.475,24.40294,9.6137Zm.6846-.6738a4.76723,4.76723,0,0,0,.0137-1.9531c.1123-.13681.2295-.2754.3486-.418a4.00284,4.00284,0,0,1-.081,2.084C25.274,8.7524,25.18034,8.8442,25.08754,8.9399Zm.5186-.5371A4.54229,4.54229,0,0,0,25.525,6.479c.1865-.21679.3818-.43949.5859-.66409a4.50979,4.50979,0,0,1-.0976,2.1504C25.87664,8.1137,25.74084,8.2602,25.60614,8.4028Zm.58-2.668c.1758-.1914.3565-.38081.543-.5742A4.32012,4.32012,0,0,1,26.50254,7.52c.00591-.002.0108-.00979.0157-.01179-.0879.0762-.17579.1465-.2657.2247A5.07257,5.07257,0,0,0,26.18614,5.7348Zm.459,1.666a3.7793,3.7793,0,0,0,.1582-2.3144c.1114-.1133.2227-.2246.3369-.3379a3.15119,3.15119,0,0,1-.00479,2.2402C26.97334,7.1235,26.80924,7.2622,26.64514,7.4008Zm.6836-.5761a3.68147,3.68147,0,0,0-.1191-2.1426c.1719-.168.3467-.334.5244-.4942a3.70118,3.70118,0,0,1,.1865,2.168C27.72334,6.5102,27.53094,6.6606,27.32874,6.8247Zm.794-.629a4.48583,4.48583,0,0,0-.3145-2.0742c.1416-.1289.28421-.2578.4297-.3789a2.74282,2.74282,0,0,1,.2754,2.1465C28.38734,5.9848,28.25164,6.0961,28.12274,6.1957ZM27.152,7.6293l.6826-.6972c.2754-.2344.54881-.4649.8086-.6817-1.0957,1.3828-2.92479,3.3711-4.2344,4.7715-.8125.7754-1.5703,1.5313-2.2012,2.209C23.37664,12.0161,26.13834,8.5141,27.152,7.6293Zm-5.3799,5.9981a2.0537,2.0537,0,0,0,.3428-.2988c-.27249.2949-.5127.5703-.7276.8242C21.52314,13.9672,21.65,13.7934,21.77214,13.6274Zm-1.0488,1.459c1.61911-1.543,6.9384-6.043,8.4062-7.459.12791-.127.252-.2617.376-.3945-2.1504,2.1699-6.3164,5.0859-8.4873,7.4355.1211-.1699.2334-.3242.3457-.4805.7744-.6504,6.2324-6.1718,7.8984-7.4746l.7988-.6836c-.0224.1035-.0478.2051-.0664.3086a11.05319,11.05319,0,0,0-1.1855,1.1348l-.166.1562.0976-.08a10.17622,10.17622,0,0,0,1.2315-1.0528c-.0127.0801-.0244.1641-.0352.2461-.0625.0781-.1191.1602-.1855.23439.0605-.07029.1259-.13669.1806-.21089-.0107.08389-.0263.166-.0361.25a9.15217,9.15217,0,0,1-1.47169,1.6601l-.23531.21679.1386-.11519a6.66651,6.66651,0,0,0,1.5401-1.4395c-.0156.1465-.0283.291-.0371.4356-.0225.0273-.0459.0566-.0674.084-2.0264,2.7773-7.4512,5.5-9.5,7.8789C20.42054,15.5102,20.57094,15.2973,20.72334,15.0864Zm-.4776.6758c1.083-1.1094,7.7852-5.5137,9.1104-7.375.1416-.2051.3134-.3926.4726-.5899-.0078.1133-.0117.2246-.0176.3359a6.11683,6.11683,0,0,1-1.4882,1.6661l-.2559.1738.1475-.0918A3.81955,3.81955,0,0,0,29.80045,8.395c-.00681.17771-.01371.35741-.01861.53321l-.0703.1191c-2.16109,2.43169-7.53509,4.5645-9.8672,7.2891C19.97914,16.1411,20.11394,15.9477,20.24574,15.7622Zm-2.94329,4.3222c-.14161.2344-.27841.4571-.40431.668-.3243.4805-.6133.9277-.8799,1.3301l-.1641.2402C16.30045,21.6157,16.78874,20.8618,17.30245,20.0844Zm.95409-.5137a14.64213,14.64213,0,0,1,8.3662-4.9765,5.543,5.543,0,0,0,.9658-.1387c-3.707-.0898-7.91509,3.0137-10.7149,6.4902a20.38673,20.38673,0,0,1,3.7129-4.1425c2.6827-2.2696,6.29791-3.2657,7.6924-3.9883a3.94357,3.94357,0,0,0,.7031-.4785c-1.9082,1.34759-5.2812,1.7617-7.7343,3.8281A13.25141,13.25141,0,0,0,17.92645,19.311,15.39893,15.39893,0,0,1,21.277,15.5063c2.5556-2.334,6.3017-3.1152,7.43841-4.2148a2.80789,2.80789,0,0,0,.52739-.4844c-1.65139,1.6172-4.9121,2.1738-7.3369,4.0234a11.35285,11.35285,0,0,0-2.7686,2.5488c.0117-.0234.0225-.0488.03611-.0722.18659-.2735.37409-.5449.55669-.8086,2.1045-2.0996,7.9814-5.4727,9.5146-6.8848a2.37067,2.37067,0,0,0,.5381-.664c-.0049.0996-.0058.19529-.0088.291A6.71148,6.71148,0,0,1,27.42445,11.393l-.39451.22661.2266-.1192A5.28235,5.28235,0,0,0,29.76824,9.479c-.0039.19921-.00979.39641-.0157.59171l-.24209.3965c.08489-.1211.166-.2441.24209-.3711-.0146.4473-.04.88089-.0839,1.3028-.1973.2363-.4571.7324-.6534.8398l-.1181.11129.0722-.05659a1.94474,1.94474,0,0,0,.1788-.1172c-.0303.0293-.05569.0664-.087.0957.045-.041.0879-.084.1299-.125.06741-.0508.1309-.1094.1973-.16991-.0303.08011-.0566.15041-.0752.18551l-.043.0782.03131-.0391a3.40125,3.40125,0,0,0,.31539-.3828c-.0068.0488-.0166.0937-.02339.1406-.34181.3711-1.11431,1.1192-1.53321,1.14259l-.2696.082.1534-.039a2.75758,2.75758,0,0,0,1.5966-.88869c-.0371.1738-.082.3418-.1308.5059A21.4609,21.4609,0,0,1,25.76624,14.1c1.0908-.36519,2.7774-.42769,3.5947-1.16789-.0459.1347-.10049.2656-.1582.3945a3.497,3.497,0,0,1-1.5849.6055l-.2627.0293.1484-.0078a3.14113,3.14113,0,0,0,1.5694-.3379,3.66663,3.66663,0,0,1-.4034.6172c-.2685.041-.53409.0976-.7998.164.26471-.0605.5303-.1172.7959-.1601a3.94869,3.94869,0,0,1-.417.4238c-.6611.1113-1.6718.10739-2.0234.2285l-.3496.0762.1992-.0352a9.84438,9.84438,0,0,1,1.8965-.0566,4.40421,4.40421,0,0,1-.4316.293l-.7852.0214-.0225.002c.252,0,.5039.0058.7549.0019a5.15929,5.15929,0,0,1-.6953.3223,1.44669,1.44669,0,0,0-.1474.1543c-2.0977-.1211-5.2579,2.0391-8.3536,4.8281a23.42223,23.42223,0,0,0-4.333,6.8516,2.24644,2.24644,0,0,0-.0107-.3164c-.0108-.0645-.0088-.1211-.0166-.1836a32.882,32.882,0,0,1,4.0869-6.5195,17.7226,17.7226,0,0,1,6.9941-4.9024c-4.8906,1.2422-9.8593,7.4473-11.0898,11.2969-.0059-.0762-.0147-.1504-.0176-.2246A25.53484,25.53484,0,0,1,18.25654,19.5707Zm-8.6563,5.6758c.0127.0196.0264.0391.04.0567-.0117,0-.0195-.0039-.0312-.0039a1.7322,1.7322,0,0,0-1.125-.6328A1.57422,1.57422,0,0,1,9.60024,25.2465ZM20.315,48.2934l.0518-.3652c.0449-.2266.083-.4844.1182-.7539a2.42506,2.42506,0,0,1-.0645.2812l-.1084.834a3.4976,3.4976,0,0,1-.38569-1.1797l.01269-.1074c.0371-.27341.0742-.5977.1074-.9375a4.0936,4.0936,0,0,1-.0762.5254l-.0478.4922a19.07514,19.07514,0,0,1-.12209-3.1621,18.20563,18.20563,0,0,0-.84961-4.4512.33038.33038,0,0,0,.0332.0293,2.467,2.467,0,0,1,.31641.3847,1.57937,1.57937,0,0,0-.124-.2167c.01169.0117.02829.0234.042.0371l.02049.02339c.0547.05661.10151.125.1523.18951a.2403.2403,0,0,0-.0205-.0391c.1709.1953.3555.4199.544.6699a.48137.48137,0,0,0-.1211-.11331,2.54242,2.54242,0,0,1,.2939.418,1.55481,1.55481,0,0,0-.12209-.23049c.03029.0371.05959.086.08889.125.0527.10549.1065.2149.1592.3301-.04009-.0801-.082-.1523-.126-.22461a15.44414,15.44414,0,0,1,.4736,6.76951l-.1201.8653A1.7504,1.7504,0,0,1,20.315,48.2934Zm.3233-5.9551c.0019.01369.0039.0274.0049.043l-.0039-.0215A.08189.08189,0,0,0,20.63834,42.3383Zm.8037,6.0899c.0088-.0254.0186-.045.0283-.0703-.0244.0742-.0478.1484-.0752.2168C21.40984,48.5317,21.42645,48.479,21.442,48.4282Zm-.0391.4062.0079-.0117-.003.0117Zm.586-.1875c-.0264.0137-.0479.0176-.0742.0293l.0293-.1445c0-.0293.0078-.0645.0078-.0938l-.044.2403a1.94253,1.94253,0,0,1-.4931.1543l.00871-.0293a4.24124,4.24124,0,0,0,.377-1.2617,16.00426,16.00426,0,0,0,.36819-1.5723c-.0586.7441-.1377,1.4707-.169,1.9531.0742-.5566.2031-1.2129.2959-1.873.0518.7773.1338,1.67969.1055,2.05069l.0019.27931A2.35358,2.35358,0,0,1,21.98894,48.6469Zm.4189-.2715.003-.0898a16.37522,16.37522,0,0,0-.0293-3.0391v-.0156a14.3928,14.3928,0,0,1,.3496,2.377l.0195.4589A2.42268,2.42268,0,0,1,22.40784,48.3754Zm.3477-.31441-.003-.16019a16.76074,16.76074,0,0,0-.32509-3.21681,12.445,12.445,0,0,1,.73339,2.61141l.0078.1523A2.4299,2.4299,0,0,1,22.75554,48.061Zm-.7676-2.28319c-.0049-.0215-.0127-.043-.0176-.0664a1.16425,1.16425,0,0,0,.24711-.4356c-.001.0196-.00291.03519-.00291.0528a1.0562,1.0562,0,0,0-.08109.207.21164.21164,0,0,0-.04.0391c-.02051.0214-.043.02729-.05961.0605A1.06082,1.06082,0,0,0,21.98794,45.7778Zm.5283-1.7481c.294.5176.6211,1.0586.74121,1.3418a2.76991,2.76991,0,0,1,.14359,1.2676c-.0322-.0644-.0742-.1523-.1162-.24611.0381.12891.0713.24811.1045.36131a2.69123,2.69123,0,0,1-.209.67,10.25819,10.25819,0,0,0-.87789-3.4551,2.3062,2.3062,0,0,0-.05571-.2285c-.0049-.0215-.0088-.045-.0137-.0684.2608.7871.7569,2.0645,1.0518,2.72069C23.07974,45.6801,22.80824,44.7758,22.51624,44.0297Zm-.5361,1.6035c-.0068.0157-.01169.0313-.0186.0489a1.05416,1.05416,0,0,0-.04-.1602,2.9343,2.9343,0,0,1-.0293.4199l-.0049.002a9.03839,9.03839,0,0,0,.0078-1.0039,4.61121,4.61121,0,0,1,.084.6387l.001.0546a3.45861,3.45861,0,0,0,.0205-1.5039A2.09275,2.09275,0,0,1,21.98014,45.6332Zm-.3965-1.8085a12.03247,12.03247,0,0,1,.1846,2.9316c-.0127.0664-.0235.1328-.0371.2031-.0713.2422-.1465.4883-.22269.7363a7.50544,7.50544,0,0,0-.22261.75c-.0538.1485-.0958.2774-.1387.40629a1.17086,1.17086,0,0,1-.2246-.03129,1.00712,1.00712,0,0,1-.4805-.3339l.0703-.4532a14.60291,14.60291,0,0,0,.33011-4.1054c.18849,1.4472.36519,3.209-.03911,3.8867l-.1738.7558.1064-.42571c.6768-1.44729.3692-3.99419.0411-5.61529a11.92337,11.92337,0,0,1,.6826,4.1758,10.48111,10.48111,0,0,0-.6563-4.7109c.044.0879.0928.1621.1348.2558A13.38716,13.38716,0,0,1,21.58364,43.8247Zm2.9863,2.0957-.207-.1836a10.25317,10.25317,0,0,1-2.4307-3.7012c.66121,1.3691,2.2608,3.5332,3.1241,3.918l.1748.0996A2.38413,2.38413,0,0,1,24.56994,45.9204Zm.708.13859A11.45883,11.45883,0,0,1,21.901,41.6723c-.0068-.11131-.0108-.2187-.0137-.3301.6328,1.5489,2.5772,3.9805,3.5274,4.3282l.581.207A1.42927,1.42927,0,0,1,25.27794,46.059Zm.7178-.18159-.2187-.0801c-1.6055-.7109-3.419-3.3105-3.8731-5.041.002-.0234.0059-.0449.0069-.0684A16.87806,16.87806,0,0,0,25.69,45.3403l.625.289A1.20915,1.20915,0,0,1,25.99574,45.8774Zm.5713-.582a1.42388,1.42388,0,0,1-.252.3339l-.2783-.1347a13.61712,13.61712,0,0,1-3.9502-4.9629,13.67753,13.67753,0,0,0,4.0137,4.2148l.501.3223C26.58754,45.145,26.58654,45.2192,26.567,45.2954Zm.0352-.2305-.1817-.1231c-1.4736-.96681-3.9824-3.4062-4.3252-5.0175l.002-.0059c.41311,1.2305,3.1865,3.5547,4.07611,4.01759l.47759.33981A3.46429,3.46429,0,0,1,26.60224,45.0649Zm.0507-.79491-.1914-.13869a21.91594,21.91594,0,0,1-3.2226-2.8106,10.084,10.084,0,0,0,2.6777,1.98829l.6133.34181A3.60113,3.60113,0,0,1,26.65294,44.27Zm-.123-.61919-.333-.1953a10.31787,10.31787,0,0,1-3.6172-3.2422,10.99012,10.99012,0,0,0,3.47171,2.7696l.39839.2675A3.62577,3.62577,0,0,1,26.52994,43.6508Zm-.082-.4082-.1348-.0957c-1.0264-.7461-3.0791-1.9238-3.67769-3.21091.71189,1,3.09369,2.35351,3.57809,2.87691l.1113.1055C26.37174,43.0219,26.40884,43.1313,26.44794,43.2426Zm-.14749-.373c-.87991-.9785-2.91991-2.002-3.56151-3.1035.6719.8164,2.6074,1.7871,2.93551,2.2617l.31639.3086A3.58467,3.58467,0,0,1,26.30045,42.8696ZM25.53674,41.809a2.99625,2.99625,0,0,1,.4424.50981l-.1201-.1211A2.10309,2.10309,0,0,0,25.53674,41.809Zm.2032.03321a1.77887,1.77887,0,0,0-.2168-.125c-.0821-.0488-.1622-.0996-.2334-.1465a1.98846,1.98846,0,0,1,.164.127c-.0351-.0156-.0635-.0273-.0947-.043-.9023-.7851-2.4043-1.5039-2.6797-2.3984.0098-.0059.0195-.0137.0293-.0195.3955.90819,3.4981,2.2773,4.04881,3.0019l.05369.0469A5.57117,5.57117,0,0,1,25.73994,41.8422Zm-2.9073-2.6777.0117-.0059c.5713.7188,3.5967,2.0547,4.1602,2.8477l.4561.4199a4.15262,4.15262,0,0,1-.5889-.123C25.89814,41.1977,23.59534,40.227,22.83264,39.1645Z"/>
          <path class="cls-2" d="M27.71064,41.6079l-.0049-.00391Z"/>
          <path class="cls-2" d="M21.33954,47.393a1.5781,1.5781,0,0,1-.1612.35741l-.2558,1.0703.1523-.6015A4.38471,4.38471,0,0,0,21.33954,47.393Z"/>
          <path class="cls-2" d="M20.04654,46.0649c.00391-.041.0068-.082.0107-.127C20.05334,45.979,20.05045,46.0239,20.04654,46.0649Z"/>
          <path class="cls-2" d="M25.23014,16.7172a2.38548,2.38548,0,0,1,.2432-.0683A1.40672,1.40672,0,0,0,25.23014,16.7172Z"/>
          <path class="cls-2" d="M21.42445,39.184c-.00881-.01949-.01761-.03709-.02931-.05859C21.40684,39.145,21.41374,39.1625,21.42445,39.184Z"/>
          <path class="cls-2" d="M19.30045,39.8832a16.47545,16.47545,0,0,1,.75679,6.0547C20.23894,44.0004,20.26134,41.2973,19.30045,39.8832Z"/>
          <path class="cls-2" d="M16.63734,33.602c.0488.03521.1084.07621.1797.12111a2.72059,2.72059,0,0,1-.26759-.2129Z"/>
          <path class="cls-2" d="M20.55434,46.52c.1856-2.17779.0039-5.14069-1.1631-6.60349A16.31327,16.31327,0,0,1,20.55434,46.52Z"/>
          <path class="cls-2" d="M21.99964,47.9223c-.0254.1875-.039.3555-.0478.5156l.0332-.1816C21.985,48.1665,21.99084,48.0512,21.99964,47.9223Z"/>
          <path class="cls-2" d="M28.13345,41.0786a6.36171,6.36171,0,0,1,.55369.541l-.0762-.0879A2.48435,2.48435,0,0,0,28.13345,41.0786Z"/>
          <path class="cls-2" d="M28.97724,40.352a2.27433,2.27433,0,0,1,.3964.375l-.1464-.19529A1.2458,1.2458,0,0,0,28.97724,40.352Z"/>
          <path class="cls-2" d="M28.9,39.9282a2.28982,2.28982,0,0,1,.3731.3672l-.1543-.1817A1.18544,1.18544,0,0,0,28.9,39.9282Z"/>
          <path class="cls-2" d="M26.25064,34.9809a1.85642,1.85642,0,0,1,.7217.4102l-.1387-.1719A1.25439,1.25439,0,0,0,26.25064,34.9809Z"/>
          <path class="cls-2" d="M26.442,35.4926a3.09461,3.09461,0,0,1,.46.0977.31774.31774,0,0,0-.2002-.0762A1.62168,1.62168,0,0,0,26.442,35.4926Z"/>
          <path class="cls-2" d="M20.83754,40.3129a11.794,11.794,0,0,1,.5205,1.4063A5.43033,5.43033,0,0,0,20.83754,40.3129Z"/>
          <path class="cls-2" d="M23.28184,38.1332c.18361.1114.3653.22079.5293.3262-.0986-.0683-.1972-.1367-.2929-.209C23.44984,38.2153,23.36494,38.1762,23.28184,38.1332Z"/>
          <path class="cls-2" d="M20.92254,39.3891a9.06286,9.06286,0,0,1,.4726,1.0957l-.0849-.2773A4.10417,4.10417,0,0,0,20.92254,39.3891Z"/>
          <path class="cls-2" d="M22.14714,35.9418l.0254-.0097a1.16741,1.16741,0,0,1-.1172.0078C22.08464,35.9399,22.11784,35.9438,22.14714,35.9418Z"/>
          <polygon class="cls-2" points="29.36 1.857 29.353 1.853 29.359 1.856 29.36 1.857"/>
          <path class="cls-2" d="M22.25945,29.5512l.71089.6621-.3945-.3789c-1.1983-1.44141-4.2041-3.457-6.2861-3.3105C17.94794,26.6684,21.55434,28.4887,22.25945,29.5512Z"/>
          <path class="cls-2" d="M21.23694,30.9946c-1.5332-1.2715-3.2998-3.2129-5.0019-3.3418C17.55724,27.9985,19.82384,29.9008,21.23694,30.9946Z"/>
          <path class="cls-2" d="M21.23694,30.9946a6.65117,6.65117,0,0,0,1.2578.8652l.0293.0137a2.47068,2.47068,0,0,1-.4111-.2442C21.89714,31.4965,21.59245,31.268,21.23694,30.9946Z"/>
          <path class="cls-2" d="M17.57684,33.7114c-1.1153-1.0313-2.3575-2.7969-3.7207-2.8282C14.86194,31.1254,16.57874,32.8442,17.57684,33.7114Z"/>
          <path class="cls-2" d="M18.06414,34.102l.1562.10941a3.97765,3.97765,0,0,1-.6435-.5A6.08994,6.08994,0,0,0,18.06414,34.102Z"/>
          <path class="cls-2" d="M19.25064,34.4731l-.0234-.0078a.05155.05155,0,0,1,.0166.0078Z"/>
          <path class="cls-2" d="M18.87954,34.3325a1.93129,1.93129,0,0,0,.3477.1328c-1.5137-.5684-3.2325-3.8828-5.0664-3.7696C15.55724,31.0004,18.03774,33.7778,18.87954,34.3325Z"/>
          <path class="cls-2" d="M20.07584,34.4438l.01561.0059a.32932.32932,0,0,0-.03221-.0235C20.065,34.4321,20.07094,34.4399,20.07584,34.4438Z"/>
          <path class="cls-2" d="M19.70864,34.2016a1.64069,1.64069,0,0,0,.3506.2246c-1.2422-1.1875-3.6895-4.2539-5.7207-4.1953C15.98014,30.5551,19.08174,33.2348,19.70864,34.2016Z"/>
          <path class="cls-2" d="M19.10224,32.9047c-1.3125-1.4218-3.1397-3.1035-4.6914-2.9804C15.72724,30.1254,17.88245,31.6879,19.10224,32.9047Z"/>
          <path class="cls-2" d="M20.26334,34.2192c-.1748-.19921-.3858-.4453-.624-.7168a2.80738,2.80738,0,0,1,.29.418A2.92426,2.92426,0,0,0,20.26334,34.2192Z"/>
          <path class="cls-2" d="M20.32294,34.2719a.72389.72389,0,0,1-.0596-.0527l.0059.00779A.38221.38221,0,0,0,20.32294,34.2719Z"/>
          <path class="cls-2" d="M21.38734,33.7465c-.0224-.0097-.042-.0273-.0644-.039a.6027.6027,0,0,0,.0527.0351Z"/>
          <path class="cls-2" d="M21.32294,33.7075a5.39191,5.39191,0,0,1-.7071-.5039c.1289.1113.2461.2109.334.2832A2.44865,2.44865,0,0,0,21.32294,33.7075Z"/>
          <path class="cls-2" d="M20.109,32.768c-1.5713-1.41209-3.5303-3.55859-5.25-3.54489C16.33074,29.5805,18.72624,31.5786,20.109,32.768Z"/>
          <path class="cls-2" d="M25.13545,25.9438A11.23391,11.23391,0,0,0,22.48694,25.27C23.46354,25.4868,24.37464,25.7348,25.13545,25.9438Z"/>
          <path class="cls-2" d="M15.50945,25.4887c1.59179-.6523,4.624-.584,6.97749-.21871C20.00554,24.7172,17.15594,24.3911,15.50945,25.4887Z"/>
          <path class="cls-2" d="M16.05145,24.4692c1.74409-.6817,5.12789-.5664,7.68059-.1817C21.03974,23.7504,17.92934,23.2954,16.05145,24.4692Z"/>
          <path class="cls-2" d="M25.70674,24.6879a18.30146,18.30146,0,0,0-1.9747-.4004C24.42834,24.4282,25.09634,24.5688,25.70674,24.6879Z"/>
          <path class="cls-2" d="M26.84245,25.5063c-.04491-.0059-.09381-.0156-.13771-.0195a2.48014,2.48014,0,0,0,.3516.0586C26.982,25.5356,26.91084,25.518,26.84245,25.5063Z"/>
          <path class="cls-2" d="M26.20674,25.3872c-.4375-.1055-1.1749-.2364-2.0567-.3555.96.1797,1.8389.3515,2.5547.4551A2.53315,2.53315,0,0,0,26.20674,25.3872Z"/>
          <path class="cls-2" d="M16.13154,24.8989c1.8408-.4903,5.5302-.211,8.0185.1328C21.46745,24.5317,18.17645,23.9965,16.13154,24.8989Z"/>
          <path class="cls-2" d="M16.63154,23.7993c1.9511-.5957,6.2734-.3575,8.8798-.0625C22.61194,23.3305,18.88834,22.7309,16.63154,23.7993Z"/>
          <path class="cls-2" d="M25.51134,23.7368c.41411.0586.8047.1093,1.1787.1543C26.36394,23.8422,25.96354,23.7895,25.51134,23.7368Z"/>
          <path class="cls-2" d="M27.76134,23.9946a.84623.84623,0,0,0,.1983-.0098c-.1387.0078-.2803-.00781-.4219-.0117C27.609,23.979,27.693,23.9907,27.76134,23.9946Z"/>
          <path class="cls-2" d="M27.53774,23.9731c-.2695-.0234-.5459-.0469-.8477-.082.15241.0234.2959.0468.4141.0683C27.25064,23.975,27.39424,23.9692,27.53774,23.9731Z"/>
          <path class="cls-2" d="M27.79845,23.3774c-2.90821-.1113-8.08981-1.0899-10.96581.041,2.3516-.6172,8.6172-.3203,10.4317-.0195C27.444,23.4008,27.62174,23.3872,27.79845,23.3774Z"/>
          <path class="cls-2" d="M27.90784,23.3832a1.333,1.333,0,0,0,.2149-.0195c-.1075.0137-.2168.0098-.32429.0137Z"/>
          <path class="cls-2" d="M26.649,22.2485a7.42679,7.42679,0,0,0,.86141-.1778l-.48051.086C26.92345,22.1899,26.78874,22.2192,26.649,22.2485Z"/>
          <path class="cls-2" d="M16.944,23.1801c2.1357-.6133,7.5947-.49611,9.705-.9316C23.75945,22.6899,19.402,22.1079,16.944,23.1801Z"/>
          <path class="cls-2" d="M26.36494,20.6704c-.0411.0253-.1016.0527-.14849.0781.20509-.0762.40139-.1563.586-.2422C26.65294,20.559,26.50454,20.6059,26.36494,20.6704Z"/>
          <path class="cls-2" d="M26.21645,20.7485c-2.63671.98049-6.82711,1.3008-9.14451,2.1953C18.85514,22.3989,24.48694,21.6899,26.21645,20.7485Z"/>
          <path class="cls-2" d="M25.11,17.8227c.166-.09571.331-.1953.48241-.2793l-.32131.14059C25.22524,17.727,25.16564,17.7758,25.11,17.8227Z"/>
          <path class="cls-2" d="M18.67745,20.7758c.79879.5801,5.14839-1.8574,6.43259-2.9531C23.23014,18.934,20.51624,20.8344,18.67745,20.7758Z"/>
          <path class="cls-2" d="M25.26334,17.3364c-.0713.0547-.1621.1211-.2647.1953.2071-.1094.4053-.207.5889-.2871Z"/>
          <path class="cls-2" d="M25.45674,16.9477a3.75677,3.75677,0,0,0-.40529.207,3.99621,3.99621,0,0,1,.70019-.2226Z"/>
          <path class="cls-2" d="M25.47334,16.6489c.0468-.0078.0947-.0157.1416-.0215l-.0733.0098A.45336.45336,0,0,0,25.47334,16.6489Z"/>
          <path class="cls-2" d="M25.9,16.227a.80828.80828,0,0,0-.165.03321,2.08413,2.08413,0,0,1,.2822-.0449Z"/>
          <path class="cls-2" d="M21.29945,13.0356a3.25015,3.25015,0,0,0,.42779-.6543c-.25979.3555-.5469.7441-.8467,1.1523C21.03284,13.3422,21.17545,13.1723,21.29945,13.0356Z"/>
          <path class="cls-2" d="M19.76234,15.0668c.3887-.5371.7647-1.0527,1.1182-1.5332C20.55634,13.9418,20.17445,14.4692,19.76234,15.0668Z"/>
          <path class="cls-2" d="M25.78974,15.2739a3.55333,3.55333,0,0,0-.5918.1093,7.1788,7.1788,0,0,1,.7949-.1386C25.92545,15.2563,25.858,15.2563,25.78974,15.2739Z"/>
          <path class="cls-2" d="M27.86974,14.3969c-.0937.0215-.1875.03709-.2812.0586.0176,0,.0371-.0039.0557-.0039C27.71845,14.4321,27.79454,14.4165,27.86974,14.3969Z"/>
          <path class="cls-2" d="M29.06114,12.2719c-.0263.0215-.05369.041-.0791.0645.0137-.0098.0323-.0196.0459-.0293C29.03974,12.2973,29.04845,12.2817,29.06114,12.2719Z"/>
          <path class="cls-2" d="M29.51045,10.4672a3.72967,3.72967,0,0,1-.26761.3399c.041-.041.0918-.0742.1308-.1153Z"/>
          <path class="cls-2" d="M25.29845,14.2993A2.65934,2.65934,0,0,1,25.76624,14.1a3.03446,3.03446,0,0,0-.3301.13681Z"/>
          <path class="cls-2" d="M25.18914,14.3618c.0332-.0235.0742-.0411.10931-.0625l-.43941.207Z"/>
          <path class="cls-2" d="M29.694,10.5629a6.82958,6.82958,0,0,1-2.5889,2.1055l-.3936.1914.2246-.1016C27.83654,12.4457,29.55245,11.5844,29.694,10.5629Z"/>
          <path class="cls-2" d="M25.24674,21.9028l-.3897.0488.2217-.01761c.7031-.11329,2.4492-.10149,2.7774-.93159A6.3134,6.3134,0,0,1,25.24674,21.9028Z"/>
          <path class="cls-2" d="M21.51824,12.0551c-.124.2871-1.6612,2.2207-2,2.83789l-.2285.38481.13571-.2129C19.87754,14.1684,21.40684,13.0415,21.51824,12.0551Z"/>
          <path class="cls-2" d="M7.84045,26.6723a.63512.63512,0,0,1-.07121.166.36274.36274,0,0,0,.0664-.039Z"/>
          <path class="cls-2" d="M7.76924,26.8383a.37889.37889,0,0,1-.0723.041C7.71745,26.8872,7.74084,26.8813,7.76924,26.8383Z"/>
        </g>
      </g>
    </g>
  </g>
</svg>
