<svg xmlns="http://www.w3.org/2000/svg" width="215.20702" height="155.13688" viewBox="0 0 215.20702 155.13688">
  <defs>
    <style>
      .cls-1 {
        isolation: isolate;
      }

      .cls-2 {
        fill: #6b3910;
      }

      .cls-3 {
        fill: #3d1809;
      }

      .cls-4, .cls-5 {
        fill: #00865b;
      }

      .cls-5 {
        opacity: 0.5;
      }

      .cls-11, .cls-5 {
        mix-blend-mode: multiply;
      }

      .cls-6 {
        fill: #8c81a6;
      }

      .cls-7 {
        fill: #665e8d;
      }

      .cls-8 {
        fill: #fff8ad;
      }

      .cls-9 {
        fill: #e8dd8f;
      }

      .cls-10, .cls-11 {
        fill: #ffdb00;
      }

      .cls-12 {
        fill: #ff242e;
      }

      .cls-13 {
        fill: #d6000b;
      }

      .cls-14, .cls-16 {
        fill: #3f526e;
      }

      .cls-15 {
        fill: #202a43;
      }

      .cls-16 {
        mix-blend-mode: screen;
      }

      .cls-17 {
        fill: #ff5a6f;
      }
    </style>
  </defs>
  <g class="cls-1">
    <g id="图层_2" data-name="图层 2">
      <g id="OBJECTS">
        <g>
          <g>
            <g>
              <path class="cls-2" d="M176.63648,133.04241a10.42639,10.42639,0,0,1-1.4486,4.2498,12.99164,12.99164,0,0,1-2.2116,2.7153s-39.4297-15.1213-49.22119-16.4917a292.66764,292.66764,0,0,1-29.6635-5.7254c-9.2219-2.3198-28.8367-6.8745-35.0905-6.9647a329.67116,329.67116,0,0,0-33.8977,2.0028c-8.739,1.2216-23.0264,2.1678-23.0264,2.1678a4.60277,4.60277,0,0,1-1.5569-2.0127,7.36209,7.36209,0,0,1-.3855-4.2228s26.7096-2.6166,33.3813-3.8939c6.672-1.2796,22.0628-.0405,23.205.1031s28.2421,3.1335,35.0501,4.4072,22.3977,5.6008,31.1929,5.7785S167.04248,131.83611,176.63648,133.04241Z"/>
              <path class="cls-3" d="M175.18788,137.29221a12.99164,12.99164,0,0,1-2.2116,2.7153s-39.4297-15.1213-49.22119-16.4917a292.66764,292.66764,0,0,1-29.6635-5.7254c-9.2219-2.3198-28.8367-6.8745-35.0905-6.9647a329.67116,329.67116,0,0,0-33.8977,2.0028c-8.739,1.2216-23.0264,2.1678-23.0264,2.1678a4.60277,4.60277,0,0,1-1.5569-2.0127c8.7699-1.097,30.721-3.8107,39.2793-4.5723,10.8087-.9614,14.7122-.4125,28.1224.7818,13.4106,1.192,22.2231,4.2213,34.0907,7.0733s21.9472,3.8874,27.6292,4.8339C134.46448,121.90391,165.81348,133.73041,175.18788,137.29221Z"/>
            </g>
            <g>
              <path class="cls-2" d="M36.05159,105.66881a3.24674,3.24674,0,0,1-1.4484,1.9782c-1.0436.6043-2.8007.7384-5.7208-.8957l-13.9483-23.8766,2.0267-.5619,1.7092-.4719Z"/>
              <path class="cls-3" d="M34.60319,107.647c-1.0436.6043-2.8007.7384-5.7208-.8957l-13.9483-23.8766,2.0267-.5619Z"/>
              <g>
                <path class="cls-4" d="M35.35779,85.37941a4.2406,4.2406,0,0,0,1.9663-.5788s-3.7171,11.6338-12.5514,8.7447c0,0-.2097-8.8596,4.1741-13.1164l.4093,1.7648s1.7684-5.4585,9.427-7.5614C38.78309,74.63231,38.233,83.30981,35.35779,85.37941Z"/>
                <path class="cls-5" d="M35.35779,85.37941a4.2406,4.2406,0,0,0,1.9663-.5788s-3.7171,11.6338-12.5514,8.7447l14.0104-18.913S38.233,83.30981,35.35779,85.37941Z"/>
              </g>
              <g>
                <path class="cls-4" d="M11.27649,99.056a4.2399,4.2399,0,0,1-1.9061.7539s10.0888,6.8831,15.2748-.8303c0,0-5.2864-7.1128-11.3613-7.7707l.7633,1.6429s-4.7528-3.2145-12.0838-.1595C1.96339,92.69231,7.73669,99.194,11.27649,99.056Z"/>
                <path class="cls-5" d="M11.27649,99.056a4.2399,4.2399,0,0,1-1.9061.7539s10.0888,6.8831,15.2748-.8303l-22.6818-6.2873S7.73669,99.194,11.27649,99.056Z"/>
              </g>
            </g>
            <g>
              <path class="cls-3" d="M148.78868,130.75911l11.2485,15.5532,1.5458-1.9573-9.0813-14.5213S149.94379,128.46621,148.78868,130.75911Z"/>
              <g>
                <path class="cls-4" d="M149.87158,145.07861a2.72834,2.72834,0,0,1-.2261,1.2991s7.164-3.2264,4.6715-8.6617c0,0-5.678.5137-8.07819,3.6269l1.15779.1326s-3.3595,1.5294-4.1436,6.5781C143.253,148.05361,148.75908,147.06761,149.87158,145.07861Z"/>
                <path class="cls-5" d="M149.87158,145.07861a2.72834,2.72834,0,0,1-.2261,1.2991s7.164-3.2264,4.6715-8.6617l-11.064,10.3376S148.75908,147.06761,149.87158,145.07861Z"/>
              </g>
            </g>
          </g>
          <g>
            <g>
              <path class="cls-6" d="M111.42119,101.58851l-9.1516,9.4635c6.8631,7.6117,3.0572,12.6654,3.0572,12.6654.6863-3.4315-1.3726-4.7417-1.7469-6.3639s-1.3727-3.7435-3.182-4.0554-4.2301-3.0073-4.2301-3.0073l10.2197-9.0343a5.18592,5.18592,0,0,1-.1273-1.5922,9.41057,9.41057,0,0,1,.4367-2.2411,70.45113,70.45113,0,0,0,6.8806,1.9366Z"/>
              <path class="cls-7" d="M113.57749,99.35981l-2.1563,2.2287a48.13916,48.13916,0,0,1-5.161-1.9242,9.41057,9.41057,0,0,1,.4367-2.2411A70.45113,70.45113,0,0,0,113.57749,99.35981Z"/>
            </g>
            <g>
              <path class="cls-6" d="M100.07589,96.30681a22.63766,22.63766,0,0,1-1.1218,3.4934,4.79316,4.79316,0,0,1-2.9717,2.9063c-2.4528.5235-9.0583,4.3531-9.0583,4.3531a60.16892,60.16892,0,0,1,2.3071,8.7005c.9902,5.1631-1.4165,7.3463-1.4165,7.3463.5738-4.6237-1.1288-4.8966-1.4685-7.955s-3.8501-7.1216-3.8501-7.1216-8.0532-.5661-10.2965-.9244a36.5534,36.5534,0,0,1-3.8249-.7974c4.0773-1.6025,11.5768-.985,11.5768-.985s9.6875-3.9786,12.7247-4.5093c2.4286-.4253,3.2064-1.8099,3.3936-3.041a23.99253,23.99253,0,0,0-.0046-3.2358C97.21989,95.054,98.88009,95.87211,100.07589,96.30681Z"/>
              <path class="cls-7" d="M100.07589,96.30681a22.63766,22.63766,0,0,1-1.1218,3.4934,31.54782,31.54782,0,0,1-2.8843-2.0275,23.99253,23.99253,0,0,0-.0046-3.2358C97.21989,95.054,98.88009,95.87211,100.07589,96.30681Z"/>
            </g>
            <path class="cls-8" d="M209.44638,151.44591c.0487.1096,1.2401,2.7056-.0031,3.6715-1.27049.9841-30.9318-35.6637-30.9318-35.6637s-2.4589-.8196-5.9933-2.1511h-.003a.27262.27262,0,0,0-.0457-.0153c-.7465-.2833-1.5448-.588-2.3736-.914-8.33309-3.2541-20.1489-8.5008-22.3-12.8091,0,0-34.53329-1.4838-49.14919-7.8396-9.7164-4.223-18.4976-10.789-24.1647-18.0771q-1.00095-1.2843-1.8647-2.599a29.51942,29.51942,0,0,1-4.0524-8.7689c-2.9676-11.441-1.2736-25.6334-1.9073-30.9288-.6368-5.2986-6.3558-13.9822-6.3558-13.9822l-1.5844-2.7574-3.5709-6.2125a35.72616,35.72616,0,0,0,8.1931-5.9323c3.6715-3.6715,13.979-7.7665,23.1593-6.0724,9.1406,1.6879,25.42,17.5134,31.136,17.5134h-6.7032s6.3559,8.3332,7.6294,12.0047c0,0,36.86109,26.4103,49.56959,60.7303,0,0,14.6189,13.1351,17.5835,19.0643,2.9677,5.9323,0,5.0852,0,5.0852s28.8113,35.5906,29.4481,39.192C215.79,157.53961,209.60788,151.60131,209.44638,151.44591Z"/>
            <path class="cls-9" d="M154.58738,95.31941c-.2651-.1219-17.2301-8.1169-25.49629-12.1479-5.9749-2.9159-22.8211-7.2943-34.387-14.2838,2.2638-3.8421-1.0573-9.5519-1.0573-9.5519l-.6002-6.889c12.6476,19.0247,36.1664,19.2562,44.57579,24.1221C147.87508,82.50121,154.45328,95.06041,154.58738,95.31941Z"/>
            <path class="cls-9" d="M170.09588,116.37331c-8.33309-3.2541-20.1489-8.5008-22.3-12.8091,0,0-34.53329-1.4838-49.14919-7.8396-9.7164-4.223-18.4976-10.789-24.1647-18.0771q-1.00095-1.2843-1.8647-2.599a6.55209,6.55209,0,0,1,3.3241-.7739,78.7616,78.7616,0,0,0,35.2757,19.3568c23.9597,5.6875,38.3907,3.9609,38.3907,3.9609S151.94368,105.61581,170.09588,116.37331Z"/>
            <g>
              <path class="cls-10" d="M93.64679,70.17051c-4.0889,3.6196-9.0035-3.1231-9.165-3.3455.1097.2681,3.2815,8.0955-2.1693,9.7439-5.2254,1.5813-6.1822-4.9725-6.2736-5.719a17.41861,17.41861,0,0,1-.0975,3.4247,5.2943,5.2943,0,0,1-1.4594,3.3729,31.94046,31.94046,0,0,1-5.9171-11.3679c-2.9676-11.441-1.2736-25.6334-1.9073-30.9288-.6368-5.2986-6.3558-13.9822-6.3558-13.9822l-1.3162-2.2912-.2682-.4662a9.91407,9.91407,0,0,1,1.8251-1.7184l20.1244,8.4115a18.61961,18.61961,0,0,1,11.3687,15.5612l1.6112,18.4703S97.80579,66.48981,93.64679,70.17051Z"/>
              <path class="cls-11" d="M94.70409,68.88771c-4.5581-2.7544-8.2936-5.914-10.2254-9.5519-6.828-12.867,1.8465-23.4305,1.8465-23.4305a47.39323,47.39323,0,0,0,6.7214,16.5415l.6002,6.889S96.96789,65.04561,94.70409,68.88771Z"/>
              <path class="cls-11" d="M75.94139,74.27461a5.2943,5.2943,0,0,1-1.4594,3.3729,31.94046,31.94046,0,0,1-5.9171-11.3679c-2.9676-11.441-1.2736-25.6334-1.9073-30.9288-.6368-5.2986-6.3558-13.9822-6.3558-13.9822l-1.3162-2.2912a6.42014,6.42014,0,0,1,1.368.2316s7.2424,7.1388,8.7659,14.4513C70.44489,40.11611,70.067,62.36441,75.94139,74.27461Z"/>
            </g>
            <path class="cls-12" d="M186.153,114.83151h-.0183c-.2193-.0182-.3565-.0365-.4022-.0365l-.0183-.0031a75.70146,75.70146,0,0,0-17.8668-15.3928c-10.8713-6.6391-17.934-8.3332-24.4299-12.5714-6.499-4.2351-25.42009-10.8743-31.49549-13.5586-6.0724-2.6812-26.974-10.3076-28.1044-24.1495-.5119-6.2248.8531-10.4477,2.5076-13.2143.1097-.1889.2254-.3717.3413-.5484a3.33023,3.33023,0,0,0-1.9927-5.0853c-4.092-.9719-8.1321-2.2638-8.1321-2.2638a2.79535,2.79535,0,0,0,1.4503,1.4107c-5.9323.6337-9.3235-6.3558-9.3235-6.3558-3.4947-.3169-8.3149-3.7537-8.3149-3.7537s-.7465-.3779-1.8647-1.0939l-3.3424-5.8164a35.72616,35.72616,0,0,0,8.1931-5.9323c3.6684-3.6685,13.982-7.7665,23.1593-6.0724,9.1375,1.6879,25.417,17.5103,31.136,17.5103l-6.7032.0061s6.1822,8.1017,7.5746,11.8463c.0183.0548.0365.1036.0548.1554,0,0,36.86109,26.4103,49.56959,60.7303,0,0,14.6189,13.1351,17.5835,19.0643C187.92318,114.11861,186.84768,114.77971,186.153,114.83151Z"/>
            <g>
              <path class="cls-13" d="M78.63249,20.58441a5.84765,5.84765,0,1,1,5.8476-5.8476A5.85426,5.85426,0,0,1,78.63249,20.58441Z"/>
              <path class="cls-14" d="M83.202,14.73681a4.56945,4.56945,0,1,1-4.5695-4.5695A4.5695,4.5695,0,0,1,83.202,14.73681Z"/>
              <path class="cls-15" d="M81.23149,14.73681a2.599,2.599,0,1,1-2.599-2.599A2.599,2.599,0,0,1,81.23149,14.73681Z"/>
              <path class="cls-16" d="M82.31339,14.80631c0,.4522-.7332.8188-1.6377.8188s-1.6376-.3666-1.6376-.8188.7332-.8188,1.6376-.8188S82.31339,14.35411,82.31339,14.80631Z"/>
            </g>
            <path class="cls-15" d="M57.75949,12.78751s-12.4991-2.3833-15.9416,2.5422l1.43.2954s-.4237,2.1938,5.561,3.0412a73.48336,73.48336,0,0,0,11.5457.6399S61.67859,14.58821,57.75949,12.78751Z"/>
            <path class="cls-14" d="M60.35249,19.30821a73.73727,73.73727,0,0,1-11.5415-.644c-5.9868-.8474-5.5631-3.0379-5.5631-3.0379s11.6474,1.8516,17.2953,1.2668A7.51266,7.51266,0,0,1,60.35249,19.30821Z"/>
            <path class="cls-12" d="M209.44238,151.44191s1.2711,2.6862,0,3.6734c-1.26259.9787-30.4721-35.099-30.9255-35.654l-.0042-.0084-.0043-.0043-16.308-17.5791s-.3178-2.2244-4.76659-4.5547a13.1616,13.1616,0,0,1-5.94871-6.2368h.0043a136.545,136.545,0,0,1,16.3589,8.3213,75.70968,75.70968,0,0,1,17.8672,15.3929s28.81131,35.5904,29.4468,39.1918S209.44238,151.44191,209.44238,151.44191Z"/>
            <path class="cls-17" d="M186.153,114.83151h-.0183c-.2193-.0182-.3565-.0365-.4022-.0365l-.0183-.0031a75.70146,75.70146,0,0,0-17.8668-15.3928c-10.8713-6.6391-17.934-8.3332-24.4299-12.5714-6.499-4.2351-25.42009-10.8743-31.49549-13.5586-6.0724-2.6812-26.974-10.3076-28.1044-24.1495-.5119-6.2248.8531-10.4477,2.5076-13.2143,2.02-2.3583,6.0084-5.4783,13.4154-6.563a66.51316,66.51316,0,0,1,18.7657.4144c.0183.0548.0365.1036.0548.1554,0,0,36.86109,26.4103,49.56959,60.7303,0,0,14.6189,13.1351,17.5835,19.0643C187.92318,114.11861,186.84768,114.77971,186.153,114.83151Z"/>
            <g>
              <path class="cls-12" d="M116.28419,43.02831s14.6636,11.1505,19.09319,7.79-3.81859-9.3877-3.81859-9.3877,4.16329,3.8013,1.01829,6.4347C129.73509,50.24491,116.28419,43.02831,116.28419,43.02831Z"/>
              <path class="cls-12" d="M99.55959,48.89111s10.7782,12.4012,18.5331,9.9539c6.5344-2.0621-3.6659-11.1759-3.6659-11.1759s5.8515,8.8083,0,8.2737C108.905,55.43831,99.55959,48.89111,99.55959,48.89111Z"/>
              <path class="cls-12" d="M117.91709,51.66471s10.7782,12.4012,18.53319,9.9539c6.5343-2.062-3.6659-11.1758-3.6659-11.1758s5.85141,8.8083,0,8.2737C127.26249,58.212,117.91709,51.66471,117.91709,51.66471Z"/>
            </g>
          </g>
        </g>
      </g>
    </g>
  </g>
</svg>
