<svg xmlns="http://www.w3.org/2000/svg" width="208.17979" height="200.72243" viewBox="0 0 208.17979 200.72243">
  <defs>
    <style>
      .cls-1 {
        isolation: isolate;
      }

      .cls-2 {
        fill: #315afa;
      }

      .cls-3 {
        fill: #1f42e2;
      }

      .cls-4 {
        fill: #1e21d6;
      }

      .cls-5 {
        fill: #2119b8;
      }

      .cls-19, .cls-6 {
        fill: #ffb900;
      }

      .cls-7, .cls-9 {
        fill: #3f526e;
      }

      .cls-8 {
        fill: #202a43;
      }

      .cls-9 {
        mix-blend-mode: screen;
      }

      .cls-10 {
        fill: #819ef7;
      }

      .cls-11, .cls-12 {
        fill: #6c86f1;
      }

      .cls-12, .cls-18, .cls-19 {
        opacity: 0.5;
      }

      .cls-12, .cls-14, .cls-18, .cls-19 {
        mix-blend-mode: multiply;
      }

      .cls-13, .cls-14 {
        fill: #2d7efa;
      }

      .cls-14 {
        opacity: 0.7;
      }

      .cls-15 {
        fill: #6b3910;
      }

      .cls-16 {
        fill: #3d1809;
      }

      .cls-17, .cls-18 {
        fill: #00865b;
      }
    </style>
  </defs>
  <g class="cls-1">
    <g id="图层_2" data-name="图层 2">
      <g id="OBJECTS">
        <g>
          <g>
            <g>
              <path class="cls-2" d="M135.9653,82.41313a68.66272,68.66272,0,0,1,0,12.9067c-.0766.966-.3833,2.8036-.8664,5.2904-.57249,2.9417-1.3929,6.7881-2.3768,11.1713-.9968,4.4394-2.15969,9.4282-3.3992,14.5781-4.9838,20.6762-11.2352,43.967-13.037,44.8666-3.0669,1.5335-3.8337-4.6004-3.8337-4.6004s-2.5557,17.3793-12.0121,19.935-12.7789-14.0567-12.7789-14.0567-.7667,5.6227-5.8782,2.5558-10.4787-31.9472-10.4787-31.9472a32.2705,32.2705,0,0,1-1.9143-4.2273c-.5162-1.3673-.9967-2.8496-1.4414-4.424q-.5904-2.074-1.1016-4.355c-5.2367-23.2652-4.677-60.8785-2.8701-68.9497,2.2159-9.8806,12.7789-20.786,12.7789-20.786-.3399-5.9627,2.2158-18.5371,2.2158-18.5371-3.0669,2.0804-8.3497,2.3513-8.3497,2.3513,5.454-1.8759,9.0321-9.5432,9.0321-9.5432-4.0892.6824-9.0321-2.0446-9.0321-2.0446,6.98751.6798,13.1213-4.2196,13.1213-4.2196-3.9205.0383-6.9874-3.4273-6.9874-3.4273s5.454,1.8555,16.8681,1.0019c11.4166-.8511,13.63251-6.1339,25.389-5.9473,11.7566.184,12.8632,9.8959,12.8632,9.8959-2.129,5.9933-7.0718,2.0165-10.13869,5.2521a16.76019,16.76019,0,0,1-7.49611,4.2605c-5.4515,14.3123,3.57811,18.9127,3.57811,18.9127l1.02229,4.2605a23.7766,23.7766,0,0,1,8.5823,5.0298C140.1977,59.37543,135.9653,82.41313,135.9653,82.41313Z"/>
              <path class="cls-3" d="M127.424,47.61633c-.8332,6.3945-3.0542,15.7972-4.2759,8.8097-1.57169-8.9886-15.8074-15.033-16.39269-22.1892s7.48589-14.8235,7.48589-14.8235c-5.4515,14.3123,3.57811,18.9127,3.57811,18.9127l1.02229,4.2605A23.7766,23.7766,0,0,1,127.424,47.61633Z"/>
              <path class="cls-3" d="M135.0989,100.61023c-3.4784,17.8802-16.1192,69.2691-18.813,70.616-3.0669,1.5335-3.8337-4.6004-3.8337-4.6004s-2.5557,17.3793-12.0121,19.935-12.7789-14.0567-12.7789-14.0567-.7667,5.6227-5.8782,2.5558-10.4787-31.9472-10.4787-31.9472a50.9546,50.9546,0,0,1-4.4573-13.0063c1.7226-32.4251,5.9806-66.3402,16.1321-72.1009,0,0-.1738,31.6762,4.4266,36.4121,4.5544,4.6873,6.3715-4.7793,6.4099-4.9736,0,.1406.0204,7.6622,4.3243,7.4092,4.3448-.2556,5.8783-9.3285,5.8783-9.3285s-.639,9.4691,3.7059,9.3336c4.3448-.1329,5.3671-11.1227,5.3671-11.1227s1.66121,10.9898,5.7505,9.9675,5.07571-28.4662,5.07571-28.4662A160.89747,160.89747,0,0,1,135.0989,100.61023Z"/>
              <path class="cls-4" d="M132.7221,111.78153c-4.9914,22.2608-14.1846,58.3202-16.4362,59.4447-3.0669,1.5335-3.8337-4.6004-3.8337-4.6004s-2.5557,17.3793-12.0121,19.935-12.7789-14.0567-12.7789-14.0567-.7667,5.6227-5.8782,2.5558-10.4787-31.9472-10.4787-31.9472a41.5739,41.5739,0,0,1-3.3557-8.6513c2.2184-26.6925,4.6106-50.9672,13.0549-55.7593,0,0-.4984,31.3909,4.102,36.1267,4.5544,4.6873,8.6717-4.4939,8.7101-4.6881,0,.1405.0204,7.6622,4.3243,7.4092,4.3448-.2556,5.8783-9.3286,5.8783-9.3286s-.639,9.4691,3.7059,9.3337c4.3448-.1329,5.3671-11.1227,5.3671-11.1227s1.66121,10.9898,5.7505,9.9675,5.07571-28.4662,5.07571-28.4662A156.97706,156.97706,0,0,1,132.7221,111.78153Z"/>
              <path class="cls-5" d="M129.3229,126.35963c-4.9838,20.6762-11.2352,43.967-13.037,44.8666-3.0669,1.5335-3.8337-4.6004-3.8337-4.6004s-2.5557,17.3793-12.0121,19.935-12.7789-14.0567-12.7789-14.0567-.7667,5.6227-5.8782,2.5558-10.4787-31.9472-10.4787-31.9472a32.2705,32.2705,0,0,1-1.9143-4.2273c1.2038-17.967,2.6529-32.4225,8.8353-35.9315,0,0,2.6197,32.6959,7.22011,37.4318,4.55439,4.6873,8.33179-4.8534,8.37019-5.0477,0,.1406.0204,7.6622,4.3243,7.4092,4.3448-.2555,5.8783-9.3285,5.8783-9.3285s-.639,9.4691,3.7059,9.3336c4.3448-.1329,5.3671-11.1227,5.3671-11.1227s1.66121,10.9898,5.7505,9.9675,5.07571-28.4662,5.07571-28.4662A139.12272,139.12272,0,0,1,129.3229,126.35963Z"/>
            </g>
            <g>
              <path class="cls-6" d="M111.2775,14.422a4.52145,4.52145,0,1,0-4.5215-4.5214A4.52653,4.52653,0,0,0,111.2775,14.422Z"/>
              <path class="cls-7" d="M107.7443,9.90063a3.53315,3.53315,0,1,0,3.5332-3.5332A3.53324,3.53324,0,0,0,107.7443,9.90063Z"/>
              <path class="cls-8" d="M109.2679,9.90063a2.00955,2.00955,0,1,0,2.0096-2.0095A2.00954,2.00954,0,0,0,109.2679,9.90063Z"/>
              <path class="cls-9" d="M108.43141,9.95443c0,.3496.56689.6331,1.26619.6331s1.2663-.2835,1.2663-.6331-.567-.6332-1.2663-.6332S108.43141,9.60473,108.43141,9.95443Z"/>
            </g>
            <g>
              <path class="cls-10" d="M140.18241,28.48633c-2.04461,10.6065-12.13991,13.8012-12.13991,13.8012,5.1115-4.7282,2.8113-16.4847,2.8113-16.4847-2.3002-.2556-4.217-3.8337-4.217-3.8337-1.6613-3.0669-6.8955-5.1039-6.8955-5.1039a13.31541,13.31541,0,0,0,1.99611-1.7124c3.06689-3.2356,8.00969.7412,10.13869-5.2521C136.9877,12.78363,142.227,17.87993,140.18241,28.48633Z"/>
              <path class="cls-11" d="M131.3547,30.74053h-1.7788s-4.4291,6.3076-11.75649,7.5855a.198.198,0,0,0-.03331-.0179.21992.21992,0,0,0-.0255-.0153c-.0818-.0511-.2479-.1508-.4779-.3016-.03329-.023-.0665-.046-.10229-.069a.05684.05684,0,0,0-.02041-.0128c-1.9705-1.4082-7.4169-6.5683-2.95959-18.3887.01279-.0358.02809-.0716.04089-.1074a16.95075,16.95075,0,0,0,3.5525-1.375,16.26725,16.26725,0,0,0,1.9475-1.1731l.0153-.0102a2.52523,2.52523,0,0,1,.3246.1508l.01021.0051c1.19869.5163,5.14479,2.3718,6.54539,4.9582,0,0,1.9168,3.5781,4.217,3.8337,0,0,.0869.4472.1917,1.2037A36.66846,36.66846,0,0,1,131.3547,30.74053Z"/>
              <path class="cls-12" d="M131.0455,27.00653a17.05322,17.05322,0,0,1-3.3046-.2658c-2.9443-.598-2.681-3.9205-6.939-4.1761-2.5506-.1534-5.0246-1.7712-6.60149-3.0439.01279-.0358.02809-.0716.04089-.1074a16.95075,16.95075,0,0,0,3.5525-1.375,16.26725,16.26725,0,0,0,1.9475-1.1731l.0153-.0102a2.52523,2.52523,0,0,1,.3246.1508l.01021.0051c1.19869.5163,5.14479,2.3718,6.54539,4.9582,0,0,1.9168,3.5781,4.217,3.8337C130.8538,25.80283,130.9407,26.25,131.0455,27.00653Z"/>
              <path class="cls-8" d="M130.8538,25.80283c-5.3671.6823-4.5365-4.35-7.0718-4.5161-1.81459-.1176-4.5697-2.1187-5.9882-3.2484a16.26725,16.26725,0,0,0,1.9475-1.1731l.0153-.0102a2.52523,2.52523,0,0,1,.3246.1508l.01021.0051c1.19869.5163,5.14479,2.3718,6.54539,4.9582C126.6368,21.96913,128.5536,25.54723,130.8538,25.80283Z"/>
            </g>
            <g>
              <path class="cls-13" d="M81.0162,77.68493c0,1.7558-.1201,3.7033-.3169,5.7965-.91489,9.7835-3.5167,22.749-3.5167,34.3292a60.47089,60.47089,0,0,1-5.8783,25.3021c-9.6225-17.4176-9.55089-69.241-7.4986-81.0844l.0025-.0179.0051-.0333c.0537-.3015.1074-.575.1636-.8204,1.5769-7.0334,7.3836-14.5857,10.5988-18.353a10.69617,10.69617,0,0,1,6.4405,4.5519C85.2767,54.34053,81.0162,67.71743,81.0162,77.68493Z"/>
              <path class="cls-14" d="M80.6993,83.48143c-.5597,5.9805-1.7481,13.1469-2.589,20.4615a123.24151,123.24151,0,0,0-.9277,13.8677,60.47089,60.47089,0,0,1-5.8783,25.3021c-5.1141-9.2596-7.491-28.2387-8.2858-45.7662-.7003-15.4318-.1764-29.739.7846-35.3003-.0664.8408-1.2932,16.1831,1.0274,17.3434,2.3846,1.191,4.5595-4.9914,4.5595-4.9914s-.37059,9.9931,3.412,7.7491a9.74756,9.74756,0,0,0,4.4649-6.1671S76.2957,86.88573,80.6993,83.48143Z"/>
              <path class="cls-14" d="M78.1103,103.94293a123.24151,123.24151,0,0,0-.9277,13.8677,60.47089,60.47089,0,0,1-5.8783,25.3021c-5.1141-9.2596-7.491-28.2387-8.2858-45.7662.276.9891.621,1.6766,1.0453,1.8887,2.3845,1.191,4.5595-4.9914,4.5595-4.9914s-.3706,9.9931,3.412,7.7491a9.74752,9.74752,0,0,0,4.4649-6.1671S75.8331,103.31163,78.1103,103.94293Z"/>
            </g>
            <g>
              <path class="cls-13" d="M136.4867,77.86383c-.19929,2.7909-.5214,4.5493-.5214,4.5493a68.66272,68.66272,0,0,1,0,12.9067c-.0945,1.1679-.5213,3.6087-1.1935,6.9287-1.8862,9.3362-5.6968,25.619-9.4129,40.0208a12.14864,12.14864,0,0,1-4.971-9.7912,12.01228,12.01228,0,0,1,.23-2.3487c2.2414-11.3144,4.102-27.6535,4.102-27.6535-.1329-.6875-.2479-1.4593-.34749-2.2976a147.28492,147.28492,0,0,1-.65941-15.7998c-.0128-8.0737.2402-16.3825.2402-21.0059,0-8.6896-5.1115-20.7861-5.1115-20.7861C136.451,48.58493,137.1333,68.74233,136.4867,77.86383Z"/>
              <path class="cls-14" d="M135.9653,82.41313a68.66272,68.66272,0,0,1,0,12.9067c-.0945,1.1679-.5213,3.6087-1.1935,6.9287-1.8862,9.3362-5.6968,25.619-9.4129,40.0208a12.14864,12.14864,0,0,1-4.971-9.7912,12.01228,12.01228,0,0,1,.23-2.3487c2.2414-11.3144,4.102-27.6535,4.102-27.6535-.1329-.6875-.2479-1.4593-.34749-2.2976a147.28492,147.28492,0,0,1-.65941-15.7998c2.3385-1.0939,2.7832-8.8302,2.7832-8.8302A11.18637,11.18637,0,0,0,130.5343,83.3c3.9206,3.1819,5.1729-8.2296,5.1729-8.2296a21.44669,21.44669,0,0,0,.7795,2.7934C136.28741,80.65473,135.9653,82.41313,135.9653,82.41313Z"/>
              <path class="cls-14" d="M134.7718,102.24853c-1.8862,9.3362-5.6968,25.619-9.4129,40.0208a12.14864,12.14864,0,0,1-4.971-9.7912,12.01228,12.01228,0,0,1,.23-2.3487c2.2414-11.3144,4.102-27.6535,4.102-27.6535-.1329-.6875-.2479-1.4593-.34749-2.2976a11.1119,11.1119,0,0,0,3.70839,5.7914c3.9205,3.1819,5.1729-8.2296,5.1729-8.2296A19.15063,19.15063,0,0,0,134.7718,102.24853Z"/>
            </g>
            <path class="cls-8" d="M130.9376,16.80573a.94531.94531,0,0,1-1.5485-1.0112.93562.93562,0,0,1,.8888-.6161c1.5879-.0075,1.5879,3.7827,1.5879,3.7827a10.177,10.177,0,0,0-.8882-2.1977S130.9637,16.77963,130.9376,16.80573Z"/>
          </g>
          <g>
            <g>
              <path class="cls-15" d="M0,184.53543a11.70621,11.70621,0,0,0,1.0998,4.9196,14.58435,14.58435,0,0,0,2.1382,3.2996s45.8481-12.0806,56.94341-12.419a328.59778,328.59778,0,0,0,33.80469-2.7817c10.5751-1.4673,33.0218-4.1648,40.0127-3.5047s27.9852,3.9325,37.59061,6.359,25.43669,5.2207,25.43669,5.2207a5.16792,5.16792,0,0,0,1.98249-2.0569,8.266,8.266,0,0,0,.9441-4.6664s-29.49319-6.1697-36.78419-8.4069c-7.29109-2.2399-24.62-2.7292-25.9123-2.7078s-31.903.0617-39.6565.6551-25.6801,3.5264-35.5182,2.6549S10.8549,184.35613,0,184.53543Z"/>
              <path class="cls-16" d="M1.0998,189.455a14.58435,14.58435,0,0,0,2.1382,3.2996s45.8481-12.0806,56.94341-12.419a328.59778,328.59778,0,0,0,33.80469-2.7817c10.5751-1.4673,33.0218-4.1648,40.0127-3.5047s27.9852,3.9325,37.59061,6.359,25.43669,5.2207,25.43669,5.2207a5.16792,5.16792,0,0,0,1.98249-2.0569c-9.65479-2.2913-33.825-7.9905-43.28449-9.8817-11.9469-2.3879-16.3705-2.2502-31.4833-2.5486-15.1129-.301-25.31739,2.0081-38.9101,3.7476s-24.9687,1.6689-31.4257,2.0341C48.4243,177.23373,11.9961,186.62,1.0998,189.455Z"/>
            </g>
            <g>
              <path class="cls-15" d="M177.8569,174.86953a2.78957,2.78957,0,0,0,1.0529,1.8244c.8351.6134,2.3234.8915,4.96961-.2324l14.13608-19.0946-1.67879-.6687-1.4159-.5622Z"/>
              <path class="cls-16" d="M178.9098,176.69393c.8351.6134,2.3234.8915,4.96961-.2324l14.13608-19.0946-1.67879-.6687Z"/>
              <g>
                <path class="cls-17" d="M180.3383,157.60483a3.64316,3.64316,0,0,1-1.6256-.6773s2.0918,10.2824,9.9061,8.6373c0,0,1.0039-7.5476-2.344-11.5914l-.5139,1.4692s-1.0023-4.8268-7.3477-7.3358C178.4132,148.10683,178.0752,155.56963,180.3383,157.60483Z"/>
                <path class="cls-18" d="M180.3383,157.60483a3.64316,3.64316,0,0,1-1.6256-.6773s2.0918,10.2824,9.9061,8.6373l-10.2056-17.458S178.0752,155.56963,180.3383,157.60483Z"/>
              </g>
              <g>
                <path class="cls-17" d="M199.633,171.52793a3.64415,3.64415,0,0,0,1.5579.8213s-9.25759,4.9397-12.969-2.1311c0,0,5.1773-5.5829,10.42709-5.5794l-.80479,1.3322s4.35859-2.3031,10.33559.9886C208.17979,166.95953,202.64359,171.97523,199.633,171.52793Z"/>
                <path class="cls-18" d="M199.633,171.52793a3.64415,3.64415,0,0,0,1.5579.8213s-9.25759,4.9397-12.969-2.1311l19.95789-3.2586S202.64359,171.97523,199.633,171.52793Z"/>
              </g>
            </g>
            <g>
              <path class="cls-16" d="M53.8125,180.746l-14.4468,15.9911-1.4872-2.3727,11.9024-15.1029S52.8022,178.04643,53.8125,180.746Z"/>
              <g>
                <path class="cls-17" d="M50.8619,196.59673a3.06279,3.06279,0,0,0,.0944,1.4775s-7.6035-4.4726-4.1604-10.2359c0,0,6.275,1.2642,8.5752,5.0308l-1.3085.0072s3.5637,2.1156,3.8246,7.8461C57.8872,200.72243,51.8617,198.952,50.8619,196.59673Z"/>
                <path class="cls-18" d="M50.8619,196.59673a3.06279,3.06279,0,0,0,.0944,1.4775s-7.6035-4.4726-4.1604-10.2359l11.0913,12.8841S51.8617,198.952,50.8619,196.59673Z"/>
              </g>
            </g>
          </g>
          <g>
            <g>
              <g>
                <path class="cls-6" d="M108.7313,168.37423c7.0883,2.2968,6.787,9.9895,8.27611,10.1647s1.314-3.5039-.08761-5.869a36.31022,36.31022,0,0,0-3.1097-4.3798c6.3946.7008,7.96431,8.9226,9.4534,8.9226s1.0144-2.2653-.1243-4.5428-4.2923-4.3798-4.2923-4.3798c5.6938.7884,7.7961,8.6721,9.02251,7.0077s-.96361-5.3434-3.59151-7.3861-12.0007-5.0526-12.0007-5.0526v-12.4912l-3.3286.2628s-.0421,1.4839-.0876,3.4163c-.06659,2.8714-.1402,6.7326-.08759,8.199C108.861,164.69873,105.7092,167.39493,108.7313,168.37423Z"/>
                <path class="cls-19" d="M108.861,154.047a9.62113,9.62113,0,0,0,3.4162.8917v-4.5708l-3.3286.2628S108.9065,152.11463,108.861,154.047Z"/>
              </g>
              <path class="cls-5" d="M114.3216,141.56683s1.0215,9.7296-3.0955,10.8684-6.0442-4.4674-6.0442-4.4674S109.88041,141.36533,114.3216,141.56683Z"/>
            </g>
            <g>
              <g>
                <path class="cls-6" d="M86.2462,169.35453c7.56121,2.45,7.2398,10.6559,8.8283,10.8428s1.4016-3.7376-.0935-6.2605a38.73507,38.73507,0,0,0-3.3171-4.672c6.8211.7475,8.4956,9.5178,10.0841,9.5178s1.082-2.4163-.1327-4.8458-4.5786-4.672-4.5786-4.672c6.0736.841,8.3162,9.2506,9.6243,7.4752s-1.0278-5.6998-3.831-7.8789-12.8013-5.3896-12.8013-5.3896V150.147l-3.5507.2803s-.0449,1.5829-.0935,3.6442c-.071,3.0629-.1495,7.1818-.0934,8.7459C86.3845,165.43383,83.0226,168.30993,86.2462,169.35453Z"/>
                <path class="cls-19" d="M86.3845,154.07153a10.2642,10.2642,0,0,0,3.6442.9512V150.147l-3.5507.2803S86.4331,152.01023,86.3845,154.07153Z"/>
              </g>
              <path class="cls-5" d="M92.8319,145.531s.4672,5.6064-3.92449,6.8212-6.44741-4.7655-6.44741-4.7655S90.7762,144.31633,92.8319,145.531Z"/>
            </g>
          </g>
        </g>
      </g>
    </g>
  </g>
</svg>
