<svg xmlns="http://www.w3.org/2000/svg" width="182.48941" height="208.80738" viewBox="0 0 182.48941 208.80738">
  <defs>
    <style>
      .cls-1 {
        isolation: isolate;
      }

      .cls-2, .cls-3 {
        fill: #ffa300;
      }

      .cls-3 {
        opacity: 0.7;
      }

      .cls-14, .cls-3 {
        mix-blend-mode: multiply;
      }

      .cls-4 {
        fill: #202a43;
      }

      .cls-5 {
        fill: #8c81a6;
      }

      .cls-6 {
        fill: #fff;
      }

      .cls-7 {
        fill: #3f526e;
        mix-blend-mode: screen;
      }

      .cls-8, .cls-9 {
        fill: #665e8d;
      }

      .cls-14, .cls-9 {
        opacity: 0.5;
      }

      .cls-10 {
        fill: #ffc926;
      }

      .cls-11 {
        fill: #6b3910;
      }

      .cls-12 {
        fill: #3d1809;
      }

      .cls-13, .cls-14 {
        fill: #00865b;
      }
    </style>
  </defs>
  <g class="cls-1">
    <g id="图层_2" data-name="图层 2">
      <g id="OBJECTS">
        <g>
          <g>
            <path class="cls-2" d="M133.7087,4.01408s-4.5103,1.1551-6.3987,3.9878-.2109,8.391-.2109,8.391-4.6173,6.2948-5.4545,10.2826c-.8404,3.9878,2.7257,14.2673,2.7257,22.6615s-5.4167,20.219-5.4167,20.219c-6.6096,32.1037-35.4463,41.524-35.4463,41.524l-1.5075,1.4802a8.72472,8.72472,0,0,1-9.4141,1.864c-.0615-.0252-.0944-.0395-.0944-.0395a11.60883,11.60883,0,0,1-4.5637,3.777c-2.2032,6.6095-13.84869,21.7172-13.84869,21.7172s-1.04491,4.1608-2.47381,10.0088a.20829.20829,0,0,1-.0063.0314c-2.5683,10.525-6.37989,26.4887-7.5917,33.4981-1.8884,10.9121-5.8227,25.3902-5.8227,25.3902v-3.4622l-2.36049,3.4622c-3.777-16.3666,12.58959-77.8483,12.58959-77.8483a27.89209,27.89209,0,0,1-.4815-7.6577,62.18885,62.18885,0,0,1,1.5297-10.3865c-.6736.5949-1.7122,1.5265-2.9586,2.647-5.3443,4.8092-14.45619,13.0901-14.45619,13.0901,1.04819-4.825,9.44229-16.7852,9.44229-16.7852l-14.8967,11.7493c1.4667-5.4544,9.23141-12.3788,9.23141-12.3788,4.61719-14.689,26.43829-40.9165,26.43829-40.9165,5.8762-14.689,21.8211-24.5499,21.8211-24.5499,6.0242-2.6784,7.11-9.6248,7.623-16.4767.1322-1.7437.2235-3.4779.35261-5.1366a29.64465,29.64465,0,0,1,3.27959-11.3402A23.49385,23.49385,0,0,1,107.796,1.49618c10.4903-3.9878,22.4505,1.2589,22.4505,1.2589Z"/>
            <path class="cls-3" d="M118.9534,69.55608A56.34431,56.34431,0,0,1,90.7935,107.697a45.54324,45.54324,0,0,1-7.285,3.3827l-.355.3498-1.1524,1.1319a8.7124,8.7124,0,0,1-3.4008,2.0681l-1.20639-.5376c-2.42831.5274-6.004-1.0186-6.004-1.0186a11.60312,11.60312,0,0,1-4.56341,3.7763s.8283.2778,2.1788.733a11.75852,11.75852,0,0,1-1.0778.5788c-2.202,6.6111-13.8497,21.7187-13.8497,21.7187s-1.0444,4.1596-2.4721,10.0066c.1389-.9003,3.13321-20.3399,3.1023-33.2995,0,0,4.7435,4.409,4.1133,9.2888l8.1853-11.4908a13.53533,13.53533,0,0,0,5.3274-5.3506s2.4618,3.5448,5.6078,3.0715a5.625,5.625,0,0,0,2.8785-1.4638,9.7313,9.7313,0,0,0,1.2219-1.3324,10.34052,10.34052,0,0,0,.9364-1.4534s.5042-.247,1.39931-.7332c.19809-.1054.41419-.2263.64829-.355C91.6166,103.08728,112.2421,90.18928,118.9534,69.55608Z"/>
            <path class="cls-3" d="M110.2824,63.24228c-4.19549,14.2672-22.8723,33.3627-36.2992,38.3985-11.7524,4.4064-19.4416,12.19-26.0512,21.6606a62.18885,62.18885,0,0,1,1.5297-10.3865c-.6736.5949-1.7122,1.5265-2.9586,2.647,1.2401-3.6353,2.3007-6.5278,2.3007-6.5278s58.7939-33.9701,54.6802-64.3238C103.484,44.71028,114.478,48.975,110.2824,63.24228Z"/>
            <path class="cls-3" d="M115.7212,47.08658c-1.2779-6.2949-8.0889-7.4248-16.06129-9.7319a12.29516,12.29516,0,0,1-7.95361-8.0605c.1322-1.7437.2235-3.4779.35261-5.1366a29.64465,29.64465,0,0,1,3.27959-11.3402c6.6347-1.5202,16.5586,17.336,19.1395,21.05C117.8362,38.69238,115.7212,47.08658,115.7212,47.08658Z"/>
            <path class="cls-4" d="M108.6332,57.51878c-2.071,19.2244-35.04029,36.9318-43.4344,42.3863a105.73513,105.73513,0,0,0-15.7372,13.0083c-3.566,3.1474-17.4146,15.7371-17.4146,15.7371,1.0481-4.825,9.4422-16.7852,9.4422-16.7852l-14.8967,11.7493c1.4667-5.4544,9.23141-12.3788,9.23141-12.3788,4.61719-14.689,26.43829-40.9164,26.43829-40.9164,5.8762-14.6891,21.8211-24.5499,21.8211-24.5499a10.13077,10.13077,0,0,0,2.5651-1.6273s10.2889-3.012,16.8356.5666c2.87991,1.58,5.03591,4.4315,5.2688,9.3824v.0032A22.27988,22.27988,0,0,1,108.6332,57.51878Z"/>
            <path class="cls-4" d="M133.7087,4.01258s-4.5103,1.1551-6.3987,3.9878-.2109,8.3942-.2109,8.3942-4.6173,6.2948-5.4545,10.2794c-.8403,3.9878,2.7257,14.2704,2.7257,22.6615,0,4.8502-1.8066,10.8429-3.3363,15.0415,2.1214-10.9813-3.6132-24.5089-3.6132-24.5089a9.21864,9.21864,0,0,1-1.1016,3.0893c-1.5737-5.9801-10.4652-7.1023-17.70429-11.8234C91.4766,26.47888,94.1928,15.4,94.2683,15.09158l.0032-.0063A24.00427,24.00427,0,0,1,107.796,1.49468c10.4903-3.9847,22.4505,1.2589,22.4505,1.2589Z"/>
            <g>
              <path class="cls-5" d="M119.302,11.80178a3.582,3.582,0,1,0-3.582-3.5819A3.58605,3.58605,0,0,0,119.302,11.80178Z"/>
              <circle class="cls-6" cx="119.302" cy="8.21988" r="2.799"/>
              <path class="cls-4" d="M117.71,8.21988a1.592,1.592,0,1,0,1.592-1.592A1.5919,1.5919,0,0,0,117.71,8.21988Z"/>
              <path class="cls-7" d="M117.0472,8.26248c0,.277.4492.5015,1.0032.5015s1.0031-.2245,1.0031-.5015-.4491-.5016-1.0031-.5016S117.0472,7.98548,117.0472,8.26248Z"/>
            </g>
            <path class="cls-4" d="M55.4952,130.96068c-1.218,7.664-1.54529,9.3699-1.6146,9.7004-.0126.0535-.01569.0692-.01569.0692-1.29681,5.2059-8.15181,32.8213-9.85771,42.6854-1.8885,10.9121-5.8228,25.3902-5.8228,25.3902v-3.4621l-2.36049,3.4621C32.0721,192.55258,48.1838,131.82,48.4104,130.97018l.0031-.0095a7.59239,7.59239,0,0,1,2.67541-5.2467c2.67529-2.3606,3.61949-9.1275,3.61949-9.1275S56.9116,122.04088,55.4952,130.96068Z"/>
            <path class="cls-5" d="M133.7087,4.01258s11.2258-1.1703,18.3599,2.6153c0,0-16.2616,3.8925-24.9695,9.7667,0,0-1.5397-4.1095-.1899-7.6306C128.122,5.60048,133.7087,4.01258,133.7087,4.01258Z"/>
            <path class="cls-8" d="M152.0676,6.62808s-16.2596,3.8934-24.9685,9.7665a13.47265,13.47265,0,0,1-.60119-2.5211C126.7781,13.69088,139.9217,5.27158,152.0676,6.62808Z"/>
            <path class="cls-9" d="M107.4498,3.84178s-11.4881,4.478-11.016,16.9103c0,0,2.3605-8.144,6.5702-10.3078a7.89231,7.89231,0,0,0-2.3605.5746A19.56691,19.56691,0,0,1,107.4498,3.84178Z"/>
            <g>
              <path class="cls-10" d="M108.7528,54.09268v.0032C104.636,63.066,93.3116,64.838,92.959,64.88838l-.0094.0031c3.1254-2.9302,3.6226-5.4891,3.7328-6.3672a.01806.01806,0,0,0,.0032-.0126c.022-.1762.02831-.2801.0377-.3053-.1322.107-4.1986,3.3709-10.6981,7.5507a17.63054,17.63054,0,0,1-13.69129,2.0458c7.55389-.7869,19.65889-12.3096,23.13359-16.0518a55.20273,55.20273,0,0,1,8.01341-7.0377l.00309-.0031C106.36391,46.29028,108.51991,49.14178,108.7528,54.09268Z"/>
              <path class="cls-2" d="M92.959,64.88838l-.0094.0031c3.1254-2.9302,3.6226-5.4891,3.7328-6.3672,0,0,.0409-.3084.0409-.3179a18.31817,18.31817,0,0,0,1.5989-6.4522S101.1864,61.57418,92.959,64.88838Z"/>
            </g>
            <g>
              <path class="cls-10" d="M75.4436,81.62948c-1.8664,1.5989-5.7913,4.9257-10.7673,8.9387-6.9369,5.5898-19.1835,18.126-19.5077,18.4596l.0031-.0094c.19521-.3494,3.3457-6.0084,6.60021-10.5816C55.127,93.71558,58.4853,85.803,58.4853,85.803c-1.9923,1.7405-5.8762,7.9126-5.8762,7.9126,1.3659-6.3987,10.9121-15.2115,10.9121-15.2115.80571-.7742,3.0435-1.366,4.1609,0a1.64315,1.64315,0,0,0,1.857.5099,2.14692,2.14692,0,0,1,1.6303.1448,1.88387,1.88387,0,0,1,.6453.5288,4.567,4.567,0,0,1,.51921.8089c.35889.7176,1.70289.6515,2.795.4626A.384.384,0,0,1,75.4436,81.62948Z"/>
              <path class="cls-2" d="M75.4436,81.62948c-1.8664,1.5989-5.7913,4.9257-10.7673,8.9387-6.9369,5.5898-19.1835,18.126-19.5077,18.4596l.0031-.0094c4.9635-7.1226,23.6624-25.4217,23.955-25.7081-.1731.1133-5.8793,3.8965-4.5606,1.6492.9789-1.6713,4.6865-4.4379,6.6033-5.8007a1.88387,1.88387,0,0,1,.6453.5288,4.567,4.567,0,0,1,.51921.8089c.35889.7176,1.70289.6515,2.795.4626A.384.384,0,0,1,75.4436,81.62948Z"/>
            </g>
          </g>
          <g>
            <g>
              <path class="cls-11" d="M182.257,124.38108a10.68121,10.68121,0,0,1-.037,4.5996,13.30542,13.30542,0,0,1-1.27409,3.3537s-43.21731-1.9778-53.17991-.1504a299.82219,299.82219,0,0,1-30.6894,4.006c-9.7151.7206-30.2565,2.622-36.3661,4.5524s-24.20959,8.8787-32.3124,12.8866-21.689,9.5388-21.689,9.5388a4.71565,4.71565,0,0,1-2.1633-1.4545,7.54286,7.54286,0,0,1-1.7376-3.9815s25.1254-11.1637,31.2-14.5587c6.0742-3.3973,21.4386-7.1593,22.5955-7.3883s28.471-6.0674,35.5015-7.026,23.58471-1.7825,32.1936-4.448S172.5395,126.30428,182.257,124.38108Z"/>
              <path class="cls-12" d="M182.22,128.98068a13.30542,13.30542,0,0,1-1.27409,3.3537s-43.21731-1.9778-53.17991-.1504a299.82219,299.82219,0,0,1-30.6894,4.006c-9.7151.7206-30.2565,2.622-36.3661,4.5524s-24.20959,8.8787-32.3124,12.8866-21.689,9.5388-21.689,9.5388a4.71565,4.71565,0,0,1-2.1633-1.4545c8.1729-3.8968,28.6403-13.6193,36.7157-17.1217,10.199-4.4228,14.1715-5.1489,27.5957-8.3154,13.4238-3.1688,22.9698-3.0673,35.4291-4.1241s22.5937-3.3031,28.4238-4.2164C137.6586,127.16058,171.9558,128.54278,182.22,128.98068Z"/>
            </g>
            <g>
              <path class="cls-11" d="M17.894,152.24358,0,136.49988l2.7762-1.8596,20.6888,14.7714S23.94091,153.40508,17.894,152.24358Z"/>
              <g>
                <path class="cls-13" d="M17.3877,133.00318a3.65476,3.65476,0,0,0,1.4514-1.0073s.118,10.5258-7.893,10.5611c0,0-2.577-7.1904-.1468-11.8627l.814,1.3324s-.03539-4.9453,5.6585-8.7448C17.2718,123.28188,19.1778,130.52958,17.3877,133.00318Z"/>
                <path class="cls-14" d="M17.3877,133.00318a3.65476,3.65476,0,0,0,1.4514-1.0073s.118,10.5258-7.893,10.5611l6.3257-19.2751S19.1778,130.52958,17.3877,133.00318Z"/>
              </g>
            </g>
            <g>
              <path class="cls-11" d="M147.7586,126.78518l17.6689-15.9959-2.8024-1.82-20.4771,15.0633S141.7288,128.03238,147.7586,126.78518Z"/>
              <g>
                <path class="cls-13" d="M147.99191,107.53948a3.655,3.655,0,0,1-1.46561-.9866s.0314,10.5265,8.0421,10.4481c0,0,2.4747-7.2262-.0216-11.8636l-.79489,1.3439s-.03481-4.9453-5.782-8.6637C147.96991,97.81758,146.16691,105.09158,147.99191,107.53948Z"/>
                <path class="cls-14" d="M147.99191,107.53948a3.655,3.655,0,0,1-1.46561-.9866s.0314,10.5265,8.0421,10.4481l-6.59849-19.1834S146.16691,105.09158,147.99191,107.53948Z"/>
              </g>
            </g>
            <g>
              <path class="cls-12" d="M68.45191,140.006,84.408,151.49838l.8713-2.402L71.7634,137.908S68.835,137.40388,68.45191,140.006Z"/>
              <g>
                <path class="cls-13" d="M74.1258,153.57938a2.7941,2.7941,0,0,1,.1994,1.3361s5.9244-5.449,1.7469-9.9293c0,0-5.355,2.3318-6.684,6.1333l1.1685-.2447s-2.7729,2.5712-1.906,7.7331C68.6506,158.60788,73.686,155.87228,74.1258,153.57938Z"/>
                <path class="cls-14" d="M74.1258,153.57938a2.7941,2.7941,0,0,1,.1994,1.3361s5.9244-5.449,1.7469-9.9293l-7.4215,13.6217S73.686,155.87228,74.1258,153.57938Z"/>
              </g>
            </g>
          </g>
          <g>
            <g>
              <path class="cls-5" d="M114.7707,138.56818s-.7331-2.8862-2.1505-4.0412c-1.9987-1.6309-10.5082-4.4888-10.6445-4.5326.0823.1441,2.7293,4.8361,3.146,7.4188.4039,2.5492-1.8084,5.541-1.937,5.7107a8.13569,8.13569,0,0,0-.0052-4.5557c-.7871-1.8881-4.7229-6.9248-4.7229-6.9248-3.4084.1543-8.8413,6.7139-9.0111,6.9171,1.0573-2.3666,5.3918-8.9622,5.3918-8.9622s.3164-2.6753-5.3943-4.8798c-3.2953-1.2708-10.3205-3.694-15.6736-5.5204-1.8701-.6354-3.5319-1.2013-4.7641-1.6155a10.20779,10.20779,0,0,0,3.48561-3.1974s.03349.0129.09519.0386a8.65827,8.65827,0,0,0,6.0142.2057l2.8528,1.276,14.8016,6.611c6.2946.7871,8.1287,3.8792,8.1287,3.8792s.3396.1697.90551.4836c.44759.2495,1.03409.5891,1.71059,1.0058a36.8949,36.8949,0,0,1,5.3609,3.9692C115.9257,135.10578,114.7707,138.56818,114.7707,138.56818Z"/>
              <path class="cls-8" d="M81.4531,115.90548a8.05774,8.05774,0,0,1-5.6361,1.1061,5.41821,5.41821,0,0,1-2.0476,2.1865c-1.8701-.6354-3.5319-1.2013-4.7641-1.6155a10.20779,10.20779,0,0,0,3.48561-3.1974s.03349.0129.09519.0386a8.65827,8.65827,0,0,0,6.0142.2057Z"/>
            </g>
            <g>
              <path class="cls-5" d="M128.0854,132.13208s-.7331-2.8862-2.15049-4.0412c-1.99871-1.6309-7.50111-2.3383-7.63741-2.3821a34.87361,34.87361,0,0,1,1.0572,4.8053,17.3424,17.3424,0,0,1,.1286,4.674,50.38738,50.38738,0,0,1-2.3151-4.5454c-.7872-1.8882-5.9319-3.8869-5.9319-3.8869a12.641,12.641,0,0,0-4.2368,1.1293,18.08353,18.08353,0,0,0-3.5164,1.955,19.54538,19.54538,0,0,1,1.80581-2.9608c1.35309-1.9139,2.86309-3.7171,2.86309-3.7171s.3138-2.6753-5.3943-4.8798c-3.2953-1.2708-10.3205-3.694-15.6736-5.5204-1.474-.5016-2.8219-.9569-3.9306-1.3325l.355-.3498a45.54324,45.54324,0,0,0,7.285-3.3827l3.9717,1.7724,15.4575,7.9255c6.004,1.8032,7.6323,4.1595,7.6323,4.1595a16.29014,16.29014,0,0,1,7.8175,3.8638C129.2404,128.66968,128.0854,132.13208,128.0854,132.13208Z"/>
              <path class="cls-8" d="M94.7652,109.46938a8.03312,8.03312,0,0,1-5.6335,1.1061,5.44246,5.44246,0,0,1-2.0476,2.1865c-1.474-.5016-2.8219-.9569-3.9306-1.3325l.355-.3498a45.54324,45.54324,0,0,0,7.285-3.3827Z"/>
            </g>
          </g>
        </g>
      </g>
    </g>
  </g>
</svg>
