<svg xmlns="http://www.w3.org/2000/svg" xmlns:xlink="http://www.w3.org/1999/xlink" width="352.82612" height="259.74246" viewBox="0 0 352.82612 259.74246">
  <defs>
    <style>
      .cls-1 {
        isolation: isolate;
      }

      .cls-2 {
        fill: #e8940f;
      }

      .cls-24, .cls-3 {
        fill: #231f20;
      }

      .cls-4 {
        fill: #cc6715;
      }

      .cls-18, .cls-19, .cls-5 {
        mix-blend-mode: multiply;
      }

      .cls-6 {
        fill: url(#radial-gradient);
      }

      .cls-21, .cls-7 {
        mix-blend-mode: screen;
      }

      .cls-8 {
        fill: url(#linear-gradient);
      }

      .cls-9 {
        fill: #ffb966;
      }

      .cls-10 {
        fill: url(#radial-gradient-2);
      }

      .cls-11 {
        fill: url(#radial-gradient-3);
      }

      .cls-12 {
        fill: url(#radial-gradient-4);
      }

      .cls-13, .cls-21 {
        fill: #fff;
      }

      .cls-14 {
        fill: url(#radial-gradient-5);
      }

      .cls-15 {
        fill: url(#radial-gradient-6);
      }

      .cls-16 {
        fill: url(#radial-gradient-7);
      }

      .cls-17 {
        fill: url(#radial-gradient-8);
      }

      .cls-18 {
        fill: #abadaf;
      }

      .cls-18, .cls-23 {
        opacity: 0.4;
      }

      .cls-19 {
        fill: #da713b;
        opacity: 0.6;
      }

      .cls-20 {
        fill: #fffac4;
      }

      .cls-20, .cls-21 {
        opacity: 0.5;
      }

      .cls-22 {
        fill: url(#radial-gradient-9);
      }

      .cls-23 {
        fill: #000068;
      }

      .cls-24, .cls-25 {
        mix-blend-mode: color-dodge;
      }

      .cls-25 {
        fill: #c97506;
      }
    </style>
    <radialGradient id="radial-gradient" cx="-389.37392" cy="1111.23864" r="88.75123" gradientTransform="matrix(1.0153, -0.1158, 0.1269, 1.0426, 366.9884, -1193.97502)" gradientUnits="userSpaceOnUse">
      <stop offset="0" stop-color="#ffeb60"/>
      <stop offset="0.126" stop-color="#fee459"/>
      <stop offset="0.30988" stop-color="#fad245"/>
      <stop offset="0.52807" stop-color="#f5b326"/>
      <stop offset="0.73469" stop-color="#ee9001"/>
      <stop offset="0.7398" stop-color="#ee9001"/>
    </radialGradient>
    <linearGradient id="linear-gradient" x1="-428.18208" y1="1146.96216" x2="-387.94281" y2="1174.71329" gradientTransform="matrix(0.9932, -0.1171, 0.1171, 0.9932, 377.0553, -1180.55728)" gradientUnits="userSpaceOnUse">
      <stop offset="0.0422" stop-color="#d2b597"/>
      <stop offset="0.07925" stop-color="#bda388"/>
      <stop offset="0.18815" stop-color="#84725f"/>
      <stop offset="0.29375" stop-color="#55493d"/>
      <stop offset="0.39353" stop-color="#302922"/>
      <stop offset="0.48601" stop-color="#161310"/>
      <stop offset="0.56854" stop-color="#060504"/>
      <stop offset="0.63287"/>
    </linearGradient>
    <radialGradient id="radial-gradient-2" cx="100.5401" cy="208.36698" r="28.64854" gradientTransform="matrix(1, 0, 0, 1, 0, 0)" xlink:href="#radial-gradient"/>
    <radialGradient id="radial-gradient-3" cx="141.2828" cy="223.96243" r="28.15682" gradientTransform="matrix(1, 0, 0, 1, 0, 0)" xlink:href="#radial-gradient"/>
    <radialGradient id="radial-gradient-4" cx="250.2118" cy="211.26769" r="22.99494" gradientTransform="matrix(1, 0, 0, 1, 0, 0)" xlink:href="#radial-gradient"/>
    <radialGradient id="radial-gradient-5" cx="172.78388" cy="-24.7851" r="137.88662" gradientTransform="matrix(1, 0, 0, 1, 0, 0)" xlink:href="#radial-gradient"/>
    <radialGradient id="radial-gradient-6" cx="186.65406" cy="128.24273" r="189.2103" gradientTransform="matrix(1, 0, 0, 1, 0, 0)" xlink:href="#radial-gradient"/>
    <radialGradient id="radial-gradient-7" cx="286.43649" cy="137.63934" r="76.51624" gradientTransform="matrix(1, 0, 0, 1, 0, 0)" xlink:href="#radial-gradient"/>
    <radialGradient id="radial-gradient-8" cx="273.46066" cy="59.33332" r="117.03408" gradientTransform="matrix(1, 0, 0, 1, 0, 0)" xlink:href="#radial-gradient"/>
    <radialGradient id="radial-gradient-9" cx="226.47653" cy="147.03628" r="132.48516" gradientTransform="matrix(1, 0, 0, 1, 0, 0)" xlink:href="#radial-gradient"/>
  </defs>
  <g class="cls-1">
    <g id="图层_2" data-name="图层 2">
      <g id="Layer_1" data-name="Layer 1">
        <g>
          <g>
            <g>
              <path class="cls-2" d="M93.03305,44.17288s-1.106-1.7334-13.5059-12.331c-12.3891-10.6094-2.8418-18.4795,4.6685-15.939,7.5078,2.5112,8.28561-.9487,14.20261-6.5483,5.919-5.5992,18.61919-17.2281,29.12009.0673,5.1363,7.7178,11.40091,7.3272,19.9737,3.8716,8.5913-3.4248,18.8403-.5971,22.72121,11.606,2.70889,7.3794,7.15569,9.3501,16.10589,11.4057,8.9487,2.0557,17.1353,5.0098,11.6895,9.7583C197.18685,46.78768,143.58,25.46438,93.03305,44.17288Z"/>
              <path class="cls-3" d="M93.59065,44.03818a21.9738,21.9738,0,0,0-3.5298-3.5533c-2.18359-2.0161-4.4165-3.9716-6.6489-5.9287-3.3633-2.9062-7.0918-5.6411-8.7896-9.9546A6.399,6.399,0,0,1,76.034,17.626c3.0429-3.0883,6.9013-1.5024,10.4975-.7988,5.2788,1.0484,8.2705-3.3125,11.6196-6.6689,3.4375-3.4532,7.29111-6.8145,11.8062-8.6587,7.312-2.9634,13.1777,1.9707,17.0088,8.0644,2.74611,4.3716,7.22311,6.8399,12.2558,6.2842,6.6524-.7549,12.2022-4.896,19.1128-3.0635a15.38892,15.38892,0,0,1,7.8267,5.397c2.3057,2.8462,3.06881,6.4199,4.7139,9.6079,2.6552,5.1939,8.0771,7.0005,13.249,8.313,4.166,1.0698,8.4194,1.8721,12.2886,3.8696,1.4692.7593,3.0224,2.0088,2.6645,3.8741-.1523.7671-.71819,2.0693-1.4038,1.8867-2.5288-.6011-5.0127-1.4497-7.5146-2.1323-25.6421-7.1412-52.753-9.8091-78.8409-4.8077a120.253,120.253,0,0,0-18.6093,5.2076c-.7207.25.3169.457.6567.3432,29.2749-10.6836,61.5059-9.1221,91.5264-1.4814,3.4194.8535,6.79731,1.8408,10.1738,2.8276.7412.2105,2.7329,1.1377,3.4604.4277,5.3003-5.0502-3.6376-7.7919-7.4624-8.9199-6.4868-1.9297-14.1084-2.3574-18.3671-8.501-1.8365-2.665-2.4722-5.997-4.0772-8.8085a16.87115,16.87115,0,0,0-6.2856-6.2457c-4.1587-2.4184-9.2901-2.3671-13.7154-1.0195-3.3598,1.0161-6.416,2.5239-9.9863,2.7705-3.9145.2788-7.0786-1.7231-9.5366-4.7207-2.25929-2.7344-3.7774-5.6885-6.5938-7.9394a12.793,12.793,0,0,0-6.0019-2.5684c-9.0142-1.479-16.9917,7.3106-22.5674,13.1553-1.6694,1.7637-3.2793,3.2612-5.9697,3.1382-1.6192-.0674-3.0484-.8369-4.60649-1.1094a11.38762,11.38762,0,0,0-5.51321.436c-4.1855,1.3711-5.7597,5.5474-4.1494,9.626,1.3321,3.3716,4.3692,5.7852,7.0108,8.0522,2.65281,2.2837,5.25781,4.5777,7.8344,6.9483a23.60922,23.60922,0,0,1,3.9478,3.9028C92.65755,44.59238,93.78885,44.32768,93.59065,44.03818Z"/>
            </g>
            <g>
              <path class="cls-4" d="M92.88655,28.14658a18.897,18.897,0,0,1,1.5342,1.3408,39.50325,39.50325,0,0,1,2.9731,3.2055,37.461,37.461,0,0,1,2.58841,3.5586,18.36077,18.36077,0,0,1,1.00339,1.7813,17.9958,17.9958,0,0,1-1.52439-1.3252,36.15544,36.15544,0,0,1-2.98491-3.2315,38.11039,38.11039,0,0,1-2.5825-3.5517A18.98307,18.98307,0,0,1,92.88655,28.14658Z"/>
              <path class="cls-4" d="M99.66535,24.61818a14.98875,14.98875,0,0,1,1.1885,1.4497,31.09539,31.09539,0,0,1,2.2055,3.4683,34.22493,34.22493,0,0,1,1.7686,3.7251,15.65328,15.65328,0,0,1,.61231,1.7856,16.73069,16.73069,0,0,1-1.209-1.4521,37.04525,37.04525,0,0,1-2.20511-3.4683,31.59038,31.59038,0,0,1-1.7514-3.7109A13.59668,13.59668,0,0,1,99.66535,24.61818Z"/>
              <path class="cls-4" d="M115.74785,21.24618a17.70345,17.70345,0,0,1,.835,1.6801,30.87662,30.87662,0,0,1,2.1782,7.7994,13.95819,13.95819,0,0,1,.1821,1.8681,13.79134,13.79134,0,0,1-.8457-1.6855,31.16663,31.16663,0,0,1-1.3164-3.8418,33.34587,33.34587,0,0,1-.8623-3.9585A16.99408,16.99408,0,0,1,115.74785,21.24618Z"/>
              <path class="cls-4" d="M124.30105,22.42778a9.27049,9.27049,0,0,1,.4708,1.4043,20.73806,20.73806,0,0,1,.5351,3.123,21.59533,21.59533,0,0,1,.02831,3.167,9.25652,9.25652,0,0,1-.20991,1.4473,8.63189,8.63189,0,0,1-.47709-1.394,19.32128,19.32128,0,0,1-.53121-3.1309,18.84449,18.84449,0,0,1-.0259-3.168A8.92764,8.92764,0,0,1,124.30105,22.42778Z"/>
            </g>
            <g class="cls-5">
              <path class="cls-6" d="M186.31915,36.30518c-8.9502-2.0556-13.397-4.0263-16.10589-11.4057-3.88091-12.2031-14.12991-15.0308-22.72121-11.606-8.57279,3.4556-14.8374,3.8462-19.9737-3.8716-4.4155-7.2802-9.2422-9.4404-13.7534-9.0742a15.30048,15.30048,0,0,1,10.7876,7.6665c5.8413,10.209,9.6939,12.251,22.543,9.3511,19.9043-5.7573,28.1816,19.5864,12.081,13.8159-16.1001-5.7563-31.9902.1616-33.04929-5.2705-1.06051-5.4248-3.48291-12.145-3.04441-5.1968.4565,6.9248-1.5415,13.523-4.60259,4.8345-3.05321-8.6924-6.69181-12.1733-4.69141-2.3369,2.001,9.8335-1.5952,13.1284-6.8535,7.7627-5.2519-5.3657-11.1509-12.6904-7.9873-6.4722,3.148,6.2119,5.5674,12.9146,2.3701,9.5767-3.2148-3.3218-11.64689-13.4531-9.7031-8.9605,1.9448,4.5132,9.603,11.4414,5.2573,11.9356a36.10026,36.10026,0,0,0-8.3847,2.6601,38.61612,38.61612,0,0,1,4.5454,4.459c50.5469-18.7085,104.1538,2.6148,104.9756,1.8906C203.45445,41.315,195.26785,38.36088,186.31915,36.30518Z"/>
            </g>
            <g class="cls-7">
              <path class="cls-8" d="M85.44905,20.48148c14.4219.1904,15.2866-5.8598,19.9517-11.9243,4.64451-6.0391,9.5708-11.3057,18.1538-4.2764-9.5611-9.3945-19.9561.1441-25.15629,5.0738-5.917,5.5996-6.69481,9.0595-14.20261,6.5483-6.7505-2.272-15.1001,3.8203-7.8042,12.7563C75.41245,26.627,73.33865,20.31838,85.44905,20.48148Z"/>
            </g>
          </g>
          <g>
            <path class="cls-3" d="M194.07645,54.91168s2.6949-5.3965,13.2657-17.1812c10.688-11.9126,22.0073-23.6298,33.2934.6036,11.5381,24.7475,14.1646,33.6245,20.7774,47.3139,10.1562,21.0449,18.6611,31.4776,18.6611,31.4776l-15.88379,26.3486Z"/>
            <path class="cls-2" d="M192.89635,56.36288s2.6943-5.3926,13.2666-17.1792c10.6875-11.9126,22.00831-23.6299,33.2929.6025,11.5371,24.7505,14.1656,33.6255,20.77441,47.311,10.15729,21.0508,18.66609,31.4864,18.66609,31.4864l-15.8897,26.3437Z"/>
            <path class="cls-9" d="M247.48275,79.59138a68.78294,68.78294,0,0,1,11.7974,5.8174c-.92189-1.9815-1.77689-3.8809-2.6021-5.7569-3.9429-1.9707-10.1973-4.5879-15.6494-4.6699-8.771-.1309-26.2261.2891-26.2261.2891S239.40945,76.60108,247.48275,79.59138Zm18.3227,18.7226c-1.15719-2.1269-2.3486-4.4062-3.581-6.8613-4.8301-2.7139-12.1387-6.3564-17.4497-6.8223-8.6084-.7675-19.6787-1.4609-19.6787-1.4609s21.976,4.0371,29.666,8.5996C258.57945,94.04738,262.66485,96.46538,265.80545,98.314Zm-42.24119-62.8344c3.64309-1.6651,7.47949-3.1856,10.39069-4.273a14.29358,14.29358,0,0,0-5.4815-4.2515,45.13561,45.13561,0,0,0-12.6811,11.3218c-6.5484,8.7949-17.4283,22.6856-17.4283,22.6856S216.40805,38.76078,223.56426,35.47958Zm17.55419,8.2036c-.4863-1.065-.9799-2.1333-1.5053-3.2671-.4414-.9487-.8902-1.751-1.3287-2.5947-4.0644.0605-10.7084.809-14.7353,4.7065-6.0801,5.8857-25.1851,18.4346-25.1851,18.4346s24.333-13.9453,33.4131-16.0943A42.8171,42.8171,0,0,1,241.11845,43.68318Zm28.21781,60.872c-3.72611-2.455-9.72271-6.1357-14.35351-7.6992-7.2232-2.4316-17.9839-3.3965-17.9839-3.3965s12.9839,2.8438,19.21241,6.3799c4.02729,2.3028,11.32619,6.6504,15.98629,9.4297C271.309,107.857,270.34505,106.27588,269.33626,104.55518Zm-21.00781-44.6806c-.8994-2.1045-1.8779-4.3418-2.9463-6.7735-4.3057-1.2402-10.6123-2.3554-14.8472-.1425-7.0048,3.6523-29.0879,9.9863-29.0879,9.9863s25.1597-6.9238,32.1597-5.5469C238.57115,58.38038,245.02226,59.37648,248.32845,59.87458Zm-7.9067,9.5918c5.6709,2.0019,10.9829,4.2676,14.351,5.7578q-1.0707-2.56635-2.227-5.3301c-4.6206-1.7129-13.3789-4.4853-21.6519-4.4433a208.507,208.507,0,0,0-24.1479,1.8164S230.97005,66.15,240.42175,69.46638Z"/>
          </g>
          <g>
            <path class="cls-3" d="M99.53305,176.691s-34.5899,47.5947-19.1245,62.2724c15.4653,14.6749,34.0425-2.1464,39.6928-13.3271,8.0391-15.9023-.5195-27.9473-.5195-27.9473Z"/>
            <path class="cls-2" d="M99.684,174.39608s-34.5845,47.5898-19.1231,62.2675c15.4653,14.6768,34.04541-2.1494,39.69241-13.3271,8.04-15.9004-.519-27.9502-.519-27.9502Z"/>
            <path class="cls-10" d="M87.67075,207.67338c3.3794-11.3545,11.4594-30.6338,12.4013-32.8711l-.0161-.0254c-1.1635,2.0791-12.7578,23.0069-18.521,41.6094a90.91321,90.91321,0,0,0-3.6484,16.8145,11.49224,11.49224,0,0,0,2.3071,3.0761,24.08228,24.08228,0,0,0,3.3799,2.6514C82.94126,233.76808,82.89535,223.73488,87.67075,207.67338Zm30.5517,18.1123a14.4451,14.4451,0,0,1-5.97019-7.6299c-2.00291-5.6132-5.73631-32.8213-5.73631-32.8213s-.3179,31.4795,1.1938,35.6143c1.209,3.2998,3.04151,10.1895,3.7417,12.8496A41.78169,41.78169,0,0,0,118.22245,225.78568Zm-15.9536-47.1924s-8.84859,26.7666-10.5151,40.7305c-1.2266,10.2422-2.8706,18.2207-3.6607,21.7646a17.83129,17.83129,0,0,0,8.4297.6299,69.851,69.851,0,0,1-1.4648-22.6386C96.42805,206.18318,102.26885,178.59328,102.26885,178.59328Zm2.1465,2.7227s-4.20509,22.374-5.5527,37.9912c-.9776,11.3125.3818,18.4424,1.2114,21.5205a30.14773,30.14773,0,0,0,8.4067-4.5547,34.65634,34.65634,0,0,1-4.8198-11.0596C101.09605,211.97028,104.41535,181.316,104.41535,181.316Zm16.3408,39.7051a30.50522,30.50522,0,0,0,2.4375-9.1221,25.06286,25.06286,0,0,1-4.6509-5.3506c-4.0468-6.207-7.8432-16.9033-7.8432-16.9033s.99271,11.415,2.8916,18.624C115.08575,213.93118,119.09115,219.06988,120.75615,221.02108Z"/>
          </g>
          <g>
            <path class="cls-3" d="M120.12875,192.57768s-6.1914,61.3584,15.561,66.4834c21.7549,5.125,29.6939-19.9189,28.9058-33.0244-1.1157-18.6426-15.2256-25.0342-15.2256-25.0342Z"/>
            <path class="cls-2" d="M119.05355,190.41948s-6.189,61.3535,15.5605,66.4785c21.753,5.125,29.6929-19.9209,28.9058-33.0244-1.1167-18.6416-15.228-25.0312-15.228-25.0312Z"/>
            <path class="cls-11" d="M125.746,226.89408c-2.9346-12.0654-5.7984-33.7861-6.125-36.3096l-.0288-.0156c.0434,2.4971.5932,27.5664,5.1977,47.4551a95.33265,95.33265,0,0,0,5.5747,17.1514,12.06141,12.06141,0,0,0,3.7129,1.5693,25.00965,25.00965,0,0,0,4.46.6113C135.24155,253.022,129.90215,243.96248,125.746,226.89408Zm37.2275.2705a15.13642,15.13642,0,0,1-9.4346-3.7578c-4.7763-4.0234-22.5253-26.6924-22.5253-26.6924s16.3349,28.6758,19.8881,31.6192c2.8345,2.3515,8.1314,7.6181,10.1724,9.664A43.9481,43.9481,0,0,0,162.97345,227.16458ZM123.60926,192.857s6.121,28.9053,11.98339,42.4297c4.2988,9.9248,7.0219,18.0146,8.1792,21.6416a18.66947,18.66947,0,0,0,7.9633-3.8809,73.2212,73.2212,0,0,1-13.2793-19.7236C132.88855,220.91848,123.60926,192.857,123.60926,192.857Zm3.38029,1.3301s8.0073,22.4765,15.0318,37.333c5.0888,10.7588,10.0854,16.498,12.4614,18.8486a31.66081,31.66081,0,0,0,5.20751-8.5644c-1.98441-1.0088-6.93651-3.7364-10.20461-7.4688C140.17126,223.69978,126.98955,194.18708,126.98955,194.18708Zm35.7603,27.3222a31.89491,31.89491,0,0,0-2.6084-9.5429,26.27064,26.27064,0,0,1-7.0337-2.3887c-6.9439-3.4853-16.0303-11.166-16.0303-11.166s6.92681,9.8105,12.4541,15.3379C153.87435,218.08648,160.21275,220.62358,162.74985,221.50928Z"/>
          </g>
          <g>
            <path class="cls-2" d="M205.16485,198.56788s23.3902,17.3467,33.9639,23.6827c10.5737,6.3369,33.0576,15.8545,36.3432-.458,3.2872-16.3047-6.00869-34.21-1.3085-42.4668,4.6997-8.2579,2.2807-13.9405,2.2807-13.9405Z"/>
            <path class="cls-12" d="M236.25715,199.73008a86.18784,86.18784,0,0,1-4.0322,18.0888c2.4018,1.6113,4.6162,3.044,6.477,4.1738-.2715-.8691-.5439-1.8183-.80369-2.8642C235.88315,210.98978,236.25715,199.73008,236.25715,199.73008Zm-12.02489,12.5917c.66309.4629,1.32519.9278,1.98579,1.3838a110.23335,110.23335,0,0,1,1.3516-12.6845C226.39875,204.83158,225.24785,208.77108,224.23226,212.32178Zm51.23969,9.4708a43.98476,43.98476,0,0,0,.52931-12.2188,10.765,10.765,0,0,1-7.831-3.791c-4.64841-4.9453-12.13771-14.0752-12.13771-14.0752s9.9018,13.2939,11.9204,17.1289c1.542,2.9268,4.65431,12.5908,6.043,16.998A13.04692,13.04692,0,0,0,275.472,221.79258Zm-31.4755-24.4161s2.8535,17.3545.7597,27.9229a68.1625,68.1625,0,0,0,9.0303,3.6924c-1.7593-5.1338-5.0679-14.835-6.2588-18.7002C245.767,204.58058,243.99645,197.37648,243.99645,197.37648Zm6.4707-2.8945s5.8725,15.7334,8.09711,23.1279c1.09379,3.6319,1.46149,8.9619,1.57859,12.9219,4.2505.6387,8.1836.3135,11.0616-1.6631-2.001-3.1855-8.4795-13.5449-12.0938-19.6347C255.04715,202.38338,250.46715,194.482,250.46715,194.482Z"/>
            <path class="cls-3" d="M275.472,221.79258c3.2872-16.3047-6.00869-34.21-1.3085-42.4668,4.6997-8.2579,2.2807-13.9405,2.2807-13.9405-9.3247,5.9668-15.7934,14.8281-13.31,20.5489,4.4267,10.1943,11.8154,19.3554,11.5678,27.5322-.59569,19.874-28.82269,12.9814-37.063,6.959-9.2055-6.7149-33.74069-23.1368-33.74069-23.1368s-7.01661,9.0225,1.26659,11.6241c13.3599,4.1904,26.0991,9.3662,33.7959,13.9775C249.53645,229.22908,272.18635,238.10508,275.472,221.79258Z"/>
            <path class="cls-3" d="M258.32065,179.77008s2.8564,13.6514,10.1518,20.5254c0,0-9.6894-5.5322-13.1045-20.3819Z"/>
            <path class="cls-3" d="M250.21175,184.61768s12.2017,24.2676,18.2607,32.4502c0,0-16.24119-17.456-19.6557-32.3056Z"/>
            <path class="cls-3" d="M245.51835,182.55818s6.6421,26.334,10.7823,35.6377c0,0-12.06739-20.5674-12.1778-35.8008Z"/>
            <path class="cls-3" d="M241.59605,181.942s-.937,27.1455.4541,37.2353c0,0-5.875-23.1113-1.7476-37.7773Z"/>
            <path class="cls-3" d="M237.27575,176.34238s-5.56249,26.583-5.9151,36.7607c0,0-1.8408-23.7744,4.732-37.5166Z"/>
            <path class="cls-3" d="M229.163,169.64308s-5.5625,26.5879-5.9156,36.7627c0,0-1.8398-23.7763,4.73291-37.5185Z"/>
          </g>
          <g>
            <g>
              <path class="cls-13" d="M305.82015,148.09918c4.2309-13.7988,1.0669-28.9717-1.082-36.8887-13.6392,16.2002-16.774,12.8047-25.0425,3.6875a132.62142,132.62142,0,0,1,.1084,16.2588c-.5874,15.1846,3.3027,22.4883,3.4053,34.333,4.9643-5.0947,7.9042-9.0224,8.7822-10.6191.4575,10.7871,6.24271,19.6064,13.6548,26.5293C303.7,174.231,301.77615,161.24368,305.82015,148.09918Z"/>
              <path class="cls-13" d="M251.161,106.08548a77.40376,77.40376,0,0,0,4.9951-17.7646q-4.4004-4.919-8.8481-9.7979c-10.5108-11.5039-21.9219-21.7676-35.7725-28.7246-1.334,8.1973-4.0053,20.9072-8.7759,29.8672-7.5708,14.2256-9.5517,21.0068-4.9419,43.3613,4.60061,22.3584-3.6225,48.7783-4.2832,53.1856-.5297,3.6084-.0727,20.4297,4.2832,31.7353,26.6534-4.5527,47.8487-13.6191,63.2662-24.0927-2.8457-9.8145.2983-21.2022-4.9854-32.3731C249.84015,138.27008,245.56475,119.63728,251.161,106.08548Z"/>
              <path class="cls-13" d="M171.14926,135.22128c-1.648-12.1944-3.62311-22.0069-3.62311-40.3067s-18.437-35.2334-28.6503-47.4267a42.27025,42.27025,0,0,0-15.8228-11.6802,149.42312,149.42312,0,0,0-31.6992,8.1802c4.6811.4419,11.9321,2.2929,19.54,9.9277,13.8272,13.8926,17.7837,26.7705,16.4619,40.6553-1.31249,13.8916,3.9566,22.3593,5.2632,30.1543,1.32131,7.789-6.9111,18.9648-24.0332,31.8379-17.12349,12.8818-19.0913,16.9423-19.4248,21.3398-.2104,2.9248-9.5088,8.166-15.5845,13.7861a342.0191,342.0191,0,0,0,62.3462,17.0498q6.83791,1.1748,13.3838,1.834c6.1196-11.208,7.76081-29.0986,8.3335-41.1279C158.30105,155.88828,172.78935,147.41758,171.14926,135.22128Z"/>
              <path class="cls-14" d="M193.53445,176.21248c.6607-4.4073,8.88381-30.8272,4.2832-53.1856-4.6098-22.3545-2.6289-29.1357,4.9419-43.3613,4.7706-8.96,7.4419-21.6699,8.7759-29.8672-.4126-.2148-.8198-.4277-1.2329-.623-13.8647-6.691-29.3115-10.5743-44.4238-12.8682a150.23292,150.23292,0,0,0-42.8257-.4995,42.27025,42.27025,0,0,1,15.8228,11.6802c10.2133,12.1933,28.6503,29.1269,28.6503,47.4267s1.97511,28.1123,3.62311,40.3067c1.64009,12.1963-12.84821,20.667-13.50931,34.2236-.57269,12.0293-2.2139,29.9199-8.3335,41.1279a178.13464,178.13464,0,0,0,48.6196-1.3828C193.56375,197.89608,193.00475,179.82088,193.53445,176.21248Z"/>
              <path class="cls-15" d="M89.161,177.90288c.3335-4.3975,2.30131-8.458,19.4248-21.3398,17.1221-12.8731,25.35451-24.0489,24.0332-31.8379-1.3066-7.795-6.57569-16.2627-5.2632-30.1543,1.3218-13.8848-2.6347-26.7627-16.4619-40.6553-7.6079-7.6348-14.5107-9.8496-19.1924-10.2764-52.9961,19.6338-81.56689,64.1534-81.56689,64.1534s-4.935-8.4717-8.8842-4.0723c-3.9488,4.4043,2.6294,9.8193,3.6142,13.5517-5.9219,6.7715,1.9829,11.8526,5.27,16.9405,8.1958,28.2314,32.19289,46.1133,63.26029,58.1211C79.472,186.72218,88.95055,180.82768,89.161,177.90288Z"/>
              <path class="cls-16" d="M342.69365,165.37558c-5.604-21.6856-9.21039-22.0176,2.6353-51.1543,8.3984-20.6416-5.0664-34.6241-11.1343-39.8135-2.3672,1.9463-7.3247,7.8476-20.1436,24.9131-3.5781,4.7978-6.6416,8.7295-9.3129,11.8896,2.1489,7.917,5.3129,23.0899,1.082,36.8887-4.044,13.1445-2.1201,26.1318-.1738,33.3008,9.0791,8.4736,20.6215,14.0605,27.8735,16.8281C341.89635,193.03568,347.11405,182.46738,342.69365,165.37558Z"/>
              <path class="cls-3" d="M350.92565,118.96248c8.2314-27.4453-12.8413-45.0479-14.4888-45.3965-.5371-.1113-1.0879-.1026-2.2422.8418,6.0679,5.1894,19.5327,19.1719,11.1343,39.8135-11.84569,29.1367-8.2393,29.4687-2.6353,51.1543,4.4204,17.0918-.7973,27.6601-9.1738,32.8525,3.7529,1.4375,6.35741,2.1182,6.874,2.042,2.2998-.6768,15.4746-10.1738,10.5318-32.8643C341.69955,137.59718,345.329,134.55618,350.92565,118.96248Z"/>
              <path class="cls-17" d="M279.80405,131.15678a141.32527,141.32527,0,0,0-.1734-16.7031c-.3701-.4111-.748-.8184-1.14739-1.2393-7.52741-8.2236-14.895-16.5859-22.32721-24.8935a77.40376,77.40376,0,0,1-4.9951,17.7646c-5.5962,13.5518-1.3208,32.1846,4.9375,45.3965,5.2837,11.1709,2.1397,22.5586,4.9854,32.3731a145.57573,145.57573,0,0,0,22.1255-18.3653C283.10675,153.64508,279.21665,146.34138,279.80405,131.15678Z"/>
            </g>
            <path class="cls-18" d="M307.33675,141.17628c-11.60649,18.6241-5.1758-10.4267-14.249,4.4395a52.55143,52.55143,0,0,1-10.5323,11.6289,61.54863,61.54863,0,0,1,.6539,8.2451c4.9643-5.0947,7.9042-9.0224,8.7822-10.6191.4575,10.7871,6.24271,19.6064,13.6548,26.5293-1.9463-7.169-3.8702-20.1563.1738-33.3008A46.156,46.156,0,0,0,307.33675,141.17628Z"/>
            <path class="cls-18" d="M193.868,189.55918c.6172,6.455,1.8516,13.9101,4.0581,19.6308a160.15657,160.15657,0,0,0,63.1578-25.3349,48.11213,48.11213,0,0,1-1.4292-11.5987A166.01218,166.01218,0,0,1,193.868,189.55918Z"/>
            <path class="cls-18" d="M122.74785,147.87358c14.0523-16.7168,10.0967-23.9394,9.2173-28.4551a10.01651,10.01651,0,0,1,.3267,3.6533c.1318.5489.2329,1.1084.3271,1.6534,1.32131,7.789-6.9111,18.9648-24.0332,31.8379-17.12349,12.8818-19.0913,16.9423-19.4248,21.3398-.2104,2.9248-9.689,8.8193-15.7661,14.4307,18.8877,7.3017,40.3662,12.4336,62.5278,16.4052q6.83791,1.1748,13.3838,1.834c3.4341-6.2617,5.4365-14.6308,6.6563-22.8926C119.57605,181.191,111.18435,161.63428,122.74785,147.87358Z"/>
            <path class="cls-19" d="M183.32165,189.88038a156.10038,156.10038,0,0,1-27.3589-2.2002c-1.2198,8.2618-3.2222,16.6309-6.6563,22.8926a178.13464,178.13464,0,0,0,48.6196-1.3828c-2.2065-5.7207-3.4409-13.1758-4.0581-19.6308C190.43535,189.77108,186.90805,189.88038,183.32165,189.88038Z"/>
            <path class="cls-19" d="M259.65465,172.25638a48.11213,48.11213,0,0,0,1.4292,11.5987,145.57573,145.57573,0,0,0,22.1255-18.3653,61.54863,61.54863,0,0,0-.6539-8.2451A117.765,117.765,0,0,1,259.65465,172.25638Z"/>
            <path class="cls-20" d="M22.75916,97.17048s27.98869-37.2666,70.46679-54.208C86.63505,43.97858,41.86405,75.482,22.75916,97.17048Z"/>
            <path class="cls-21" d="M108.70105,45.33648s90.4301-22.1323,162.8725,67.3018C261.48326,96.83058,192.53985,14.17488,108.70105,45.33648Z"/>
            <path class="cls-18" d="M34.06726,170.45468c-1.53961-1.2676,15.80219,18.5254,61.46679,16.2675,45.6499-2.2578,42.58,16.252,82.5317,13.5479,39.9526-2.7119,104.91851-32.5225,113.7012-42.9072-12.2886,14.4423-60.1392,57.8144-129.5098,53.3007C93.77035,206.14118,49.86945,183.565,34.06726,170.45468Z"/>
            <path class="cls-20" d="M332.15365,81.01908s-11.1919,10.4981-10.5313,12.8721c.65291,2.3721,10.2051-6.0918,12.8404-9.1455C337.08965,81.70468,333.80935,79.32178,332.15365,81.01908Z"/>
            <path class="cls-20" d="M337.75915,96.72128a64.54506,64.54506,0,0,0-6.25,6.0976c-2.64989,3.0479,3.9399,2.0322,7.2363-2.3721C342.04185,96.04738,340.05935,94.68018,337.75915,96.72128Z"/>
            <path class="cls-20" d="M338.389,107.07868s-2.8374.9228-5.6748,1.8457c-2.8452.9277-1.7573,3.1201,3.6714,1.667C341.81626,109.148,340.01645,106.76228,338.389,107.07868Z"/>
            <path class="cls-20" d="M338.44755,178.33938s-2.0761-2.1992-4.1587-4.3926c-2.0922-2.1992-3.499-.1972.2037,4.1299C338.20145,182.40188,339.46465,179.66758,338.44755,178.33938Z"/>
            <path class="cls-20" d="M331.14635,190.58448s-2.5772-1.5459-5.1543-3.0859c-2.5699-1.5361-3.4121.7607,1.2705,3.9209C331.95785,194.58448,332.46665,191.60108,331.14635,190.58448Z"/>
            <path class="cls-20" d="M331.82745,161.86968c1.3501.3994,8.5664,6.4434,6.918,9.4844C337.08965,174.41168,327.21765,160.525,331.82745,161.86968Z"/>
            <path class="cls-22" d="M315.03015,174.52588c-5.6973-10.3984,12.7397-12.1933,3.5224-23.9365-9.2197-11.7549,14.0449-19.4326,5.7051-21.2392-8.3403-1.7998-11.854-9.0323-7.4619-19.417,2.6631-6.3311,2.7358-13.1299,2.7793-17.9229-1.6621,2.1787-3.4839,4.5948-5.524,7.3106-3.5781,4.7978-6.6416,8.7295-9.3129,11.8896,2.1489,7.917,5.3129,23.0899,1.082,36.8887-4.044,13.1445-2.1201,26.1318-.1738,33.3008a75.85174,75.85174,0,0,0,11.4892,8.6845C316.22935,184.49468,318.43535,180.71148,315.03015,174.52588Z"/>
          </g>
          <g>
            <path class="cls-23" d="M38.81675,103.71828a16.70653,16.70653,0,1,0,16.7051-16.5039A16.60393,16.60393,0,0,0,38.81675,103.71828Z"/>
            <g>
              <path class="cls-13" d="M38.33526,100.65088a14.8205,14.8205,0,1,0,14.81639-14.6357A14.71848,14.71848,0,0,0,38.33526,100.65088Z"/>
              <path d="M41.389,100.65088a11.76429,11.76429,0,1,0,11.7627-11.624A11.68474,11.68474,0,0,0,41.389,100.65088Z"/>
              <path class="cls-13" d="M62.88755,99.67728a11.51882,11.51882,0,0,0-3.0474-7.8183,11.36267,11.36267,0,0,1,3.9634,8.6455,11.08061,11.08061,0,0,1-10.853,11.2959,10.62468,10.62468,0,0,1-7.80229-3.4659,10.54713,10.54713,0,0,0,6.89159,2.6241A11.073,11.073,0,0,0,62.88755,99.67728Z"/>
              <path class="cls-13" d="M45.179,97.05918a4.83821,4.83821,0,1,0,4.8428-4.7833A4.82005,4.82005,0,0,0,45.179,97.05918Z"/>
              <path class="cls-13" d="M44.97935,104.05128a1.60381,1.60381,0,1,0,1.5996-1.5722A1.59577,1.59577,0,0,0,44.97935,104.05128Z"/>
            </g>
          </g>
          <path class="cls-24" d="M72.65365,78.49368s22.0283,15.4004,17.9375,43.378c-2.4356,16.1796-17.52389,25.4462-21.0503,25.8945,8.2109,2.3213,24.9018-2.5625,27.2095-27.5459C99.06135,95.24758,79.24785,80.28668,72.65365,78.49368Z"/>
          <path class="cls-25" d="M69.12535,76.99568s22.0322,15.4004,17.9394,43.3808c-2.43549,16.1729-17.52,25.4385-21.0483,25.8946,8.2099,2.3134,24.9033-2.5674,27.2109-27.5479C95.53355,93.74758,75.72245,78.79448,69.12535,76.99568Z"/>
          <path class="cls-24" d="M25.21126,103.272s23.31249,42.2989,46.11869,36.2305c6.3149-1.6465,17.1601-21.9912,7.0859-41.5791.5586,7.7412-2.3545,33.1777-13.2783,31.8818C54.09745,128.49858,34.27915,118.92338,25.21126,103.272Z"/>
        </g>
      </g>
    </g>
  </g>
</svg>
