<svg xmlns="http://www.w3.org/2000/svg" width="162.52841" height="209.59141" viewBox="0 0 162.52841 209.59141">
  <defs>
    <style>
      .cls-1 {
        fill: #685e26;
      }

      .cls-2 {
        fill: #ffb829;
      }

      .cls-3 {
        fill: #ffaa27;
      }

      .cls-4 {
        fill: #090b0b;
      }
    </style>
  </defs>
  <g id="图层_2" data-name="图层 2">
    <g id="Layer_1" data-name="Layer 1">
      <g>
        <g>
          <path class="cls-1" d="M150.93861,194.26621a.89751.89751,0,0,1,.1289.6709c.1689.83-.7451,1.4365-1.5264.6787-.2334-.249-.50778-.4805-.7539-.7295a1.4268,1.4268,0,0,1-1.6425-1.2481c-.0137-.0966-.02638-.2031-.045-.3066-16.1279-14.2051-37.1552-16.2607-56.3379-20.7412-17.3828-4.0567-35.1162-9.4619-50.124-21.2012a91.13842,91.13842,0,0,1-9.3476-8.3955,3.12168,3.12168,0,0,1-.7471-.332.82178.82178,0,0,1-.3623-.6709c.0039-.0489,0-.1035.0039-.1572a108.1998,108.1998,0,0,1-19.4863-29.1602A113.275,113.275,0,0,1,.51481,63.57381c.1069-7.1397.7387-14.1641,1.437-21.1797l-.0796-.0098c-.8677-.0498-1.0811-1.5459-.2192-1.6064.1484,0,.3061-.0039.456-.0176.2739-2.7324.5405-5.46.8062-8.2187.8315-9.1377,3.22312-21.1661-2.3526-30.0039a1.80765,1.80765,0,0,1-.11128-.2081,2.5166,2.5166,0,0,0-.21782-.2529A.868.868,0,0,1,.09,1.107.88957.88957,0,0,1,1.51233.19591c18.688,12.2412,38.88918,18.4082,59.18608,25.4589a199.83279,199.83279,0,0,1,32.9755,14.7159.936.936,0,0,1,.98642.5634c17.47648,10.1299,33.14158,23.7373,43.19918,42.3106,19.1035,35.3076,5.9971,73.0527,12.0566,109.4512C150.26091,193.22321,150.60361,193.74271,150.93861,194.26621Zm-5.335-61.6953a126.12667,126.12667,0,0,0-2.9297-27.5772c-1.7792,9.0576-3.5175,18.1397-5.14158,27.2656q-1.45893,8.18565-2.85152,16.3828c-.7988,4.7862-3.5889,12.4434-1.8233,17.3721a.6602.6602,0,0,1-.2851.832q6.93315,9.9009,13.5674,20.002C143.922,168.58261,145.74233,150.70371,145.60361,132.57091Zm-4.1455-32.2286a80.53475,80.53475,0,0,0-9.2822-20.9306c-.5674-.8975-1.14358-1.7881-1.7627-2.669-.3213,9.2657-1.9394,18.6319-3.3271,27.7569.2168.291.4277.6006.6113.8974a.492.492,0,0,1-.7139.6621.95953.95953,0,0,0-.1221-.0996c-.2275,1.4951-.4433,2.9893-.6455,4.4737-1.7207,12.6084-3.374,25.2685-5.7724,37.6826-.085.458-.5606.5469-.9453.4189q1.4868,2.05665,2.9804,4.128a.41.41,0,0,1,.0938-.0489c1.3633-.4111,2.2871,1.1856,1.7676,2.375a1.2182,1.2182,0,0,1-.0821.1319q3.22563,4.5087,6.4268,9.0498c-.5742-3.334.4844-6.8203.9434-9.9502q1.3827-9.15525,2.956-18.2725C136.65341,124.00441,138.921,112.11971,141.45811,100.34231Zm2.4434,87.0489c-6.4551-9.292-12.8125-18.6387-19.2578-27.9356-7.7852,2.1172-16.249,2.8789-24.293,4.1172-7.0381,1.082-14.081,2.2266-21.165,3.1279,9.8535,2.8057,19.875,4.8272,29.6914,7.0762C120.35271,176.40291,133.797,179.47031,143.90151,187.39121ZM127.63,80.55911c.2559-2.1357.5606-4.2509,1.001-6.3242a99.87763,99.87763,0,0,0-11.5205-12.9902c-.3037,2.6631-.61818,5.3496-.9258,8.0342,2.0439,1.9023,4.0244,3.917,6.0195,5.8808C123.98551,76.90871,125.99333,78.63241,127.63,80.55911Zm-.751,7c.1758-1.7353.3457-3.4804.5449-5.2148-.0097-.0078-.0097-.0078-.01558-.0078a62.81612,62.81612,0,0,1-5.82912-5.9278c-1.8486-1.9472-3.7217-3.8876-5.5342-5.8769-.2636,2.1914-.51068,4.3818-.76168,6.5791a.32562.32562,0,0,1,.54488-.0996c2.1397,1.8017,4.1182,3.8379,6.1387,5.8164C123.55381,84.38341,125.30481,85.90681,126.879,87.55911Zm-.4931,4.4512c.10742-.8506.2099-1.7119.2949-2.5586-1.7197-1.5488-3.3008-3.3633-4.9033-5.0361-2.1719-2.2344-4.4287-4.4307-6.4258-6.8262a.30292.30292,0,0,1-.0957-.1904c-.2266,1.9316-.4571,3.873-.67868,5.7998a.51717.51717,0,0,1,.18548.1201c2.0723,2.0928,4.0791,4.2607,6.10352,6.3926a58.71017,58.71017,0,0,1,5.10548,5.6035C126.10851,94.20371,126.255,93.10111,126.38591,92.01031Zm-1.2813,10.084c.2451-1.9131.4795-3.8291.7305-5.7412a.40344.40344,0,0,1-.2207-.0947,49.95724,49.95724,0,0,1-5.5078-5.8526c-1.877-2.1103-3.7891-4.1914-5.6221-6.3271-.249,2.0488-.4736,4.0986-.7139,6.1425a.4117.4117,0,0,1,.3838.1504c2.4385,2.5606,4.8203,5.1758,7.2012,7.7813C122.55681,99.45561,123.88291,100.74961,125.10461,102.09431Zm-.9414,7.4355c.2324-1.8271.4502-3.6543.6924-5.4834-1.5322-1.6289-2.9248-3.4521-4.3408-5.0986-2.293-2.6523-4.5889-5.2773-6.8477-7.9394-.2519,2.1582-.499,4.3154-.7764,6.4736,2.044,2.2363,4.0557,4.4941,6.1221,6.7021C120.66711,105.94881,122.55091,107.65871,124.16321,109.52981Zm-.249,1.9258c.0107-.1367.0273-.2695.0488-.4062a61.049,61.049,0,0,1-5.7236-6.1436c-1.8623-2.1084-3.7149-4.249-5.4629-6.4433-.2539,1.9726-.4951,3.9502-.74018,5.9277,1.60928,2.0557,3.26068,4.1103,5.01458,6.0586,1.9658,2.1504,4.3086,4.0527,6.1426,6.3223C123.43081,114.99371,123.66711,113.22121,123.91421,111.45561Zm-.4463,46.3272c-.3857-.5518-.7559-1.1026-1.1377-1.6563-.8516.1397-1.749.124-2.3281.211-3.5196.497-7.05178,1-10.5742,1.497-13.7041,1.9453-27.4415,3.919-41.2872,5.2715,2.6485.9893,5.3291,1.876,8.0274,2.6914,7.8193-1.6015,15.7441-2.9101,23.6308-4.2646C107.57633,160.19981,115.50211,158.34821,123.46791,157.78281Zm-.4502-39.8506a.6422.6422,0,0,1-.3389-.1026c-2.4482-1.6611-4.5576-4.3212-6.4922-6.5927q-2.2719-2.67345-4.332-5.5117c-.2412,1.8759-.4736,3.7578-.7285,5.621,1.7275,2.2608,6.16022,7.2188,6.6787,7.8399,1.0713,1.2812,3.4141,3.2197,4.334,5.0693C122.422,122.15581,122.73351,120.04251,123.01771,117.93221Zm-1.207,8.6015-.0147-.0039c-.623-.0957-.7773-.2295-1.1045-.8232a.60549.60549,0,0,1,.21882-.8379c.05468-.0391.10348-.0762.15428-.1074a4.88866,4.88866,0,0,1-1.65728-1.5996c-.249-.2881-.49312-.584-.73732-.8809-.59468-.7451-1.2011-1.4824-1.80368-2.2275-1.18362-1.502-2.373-2.9961-3.54492-4.5196-.5605-.7373-1.6055-1.7744-2.3789-2.8544-.28118,1.9619-.5527,3.9326-.8574,5.8955.3281.0429.4111.1445.6474.4873a.33484.33484,0,0,1-.0546.4062c-.0274.0518-.084.086-.1241.1397a.22515.22515,0,0,1-.2568.0547c1.07232,1.6933,5.4121,7.0097,6,7.7392,1.4756,1.8369,3.1641,3.5596,4.6182,5.419C121.19933,130.71831,121.505,128.62461,121.81071,126.53371Zm-2.06738,14.7784c.30958-2.2832.624-4.5537.92968-6.8233-2.7608-2.4511-5.0703-5.8564-7.2334-8.8388-.8701-1.1875-2.9151-3.3741-3.6289-5.1748-.3477,2.2744-.6856,4.5634-1.0655,6.8437,2.1055,2.5029,4.12112,5.0986,6.1455,7.6602A70.23209,70.23209,0,0,1,119.74333,141.31211Zm1.21288,12.8759c-.8614-1.2265-1.71388-2.4687-2.5703-3.6748q-5.814-8.1723-11.72458-16.2568a.81368.81368,0,0,1-.70122.9268c-13.4697,2.3642-27.4766,3.291-41.169,4.7812-6.8769.7529-13.7675,1.457-20.6611,2.1807-2.92968.3037-5.8936.5908-8.8418.8281a86.94555,86.94555,0,0,0,16.4365,12.4775,102.76146,102.76146,0,0,0,13.8594,6.6885c.042-.0205.07322-.0576.1299-.041,9.5908-1.7842,19.3037-3.1631,28.9922-4.5381,4.99312-.7187,10.0019-1.3916,15.001-2.0703C113.35951,154.99571,117.27161,154.147,120.95621,154.188Zm-2.0352-6.4755c.1807-1.5303.3877-3.0586.5869-4.586-2.3105-2.1308-4.1562-5.1133-6.0058-7.6484-1.6573-2.2881-3.34378-4.5713-4.96678-6.8838-.18072,1.0859-.34672,2.1641-.53222,3.2393a.50525.50525,0,0,1-.459.4472q5.7246,7.7007,11.375,15.4512C118.91521,147.71931,118.91521,147.71931,118.921,147.71251Zm-12.332-16.7061c1.8564-24.041,5.40432-47.8984,8.4971-71.6484a130.5036,130.5036,0,0,0-18.9922-14.211c-.4961-.3174-1.0039-.622-1.5205-.9199-.5166,9.5801-2.0977,19.1065-3.29108,28.5156-1.34372,10.5811-2.78322,21.1778-4.72752,31.5869q4.9746,6.50985,9.8887,13.0655Q101.51474,124.19926,106.589,131.00641Zm-1.1826,2.0996a1.23675,1.23675,0,0,1,.4746.0752c-2.7569-3.7402-5.4873-7.4902-8.2725-11.2236-.0068.0039-.0234,0-.0263,0q-20.2779,1.9878-40.5743,3.876c-6.9111.6337-13.8271,1.2734-20.7597,1.8525a62.24893,62.24893,0,0,1-13.7207.1328,98.0259,98.0259,0,0,0,10.6679,13.0674c2.1573-.374,5.6534-.3194,6.79792-.4619,3.27638-.416,6.55958-.795,9.84078-1.1817q8.93415-1.078,17.8906-2.1093C80.23161,135.70661,92.75011,133.74471,105.40641,133.106Zm-16.042-60.1914c1.2695-9.834,1.9033-19.96,3.4365-29.7353-1.9639-1.1241-3.9482-2.209-5.9473-3.2286L83.715,68.51031q-.857,7.9116-1.7481,15.8096c-.43258,3.8066-.417,8.0049-1.9053,11.3877a.548.548,0,0,1-.0488.0791c1.7813,2.3095,3.5557,4.6396,5.3301,6.957C86.59581,92.78371,88.07533,82.87161,89.36441,72.91461Zm-7.78808-5.6182q1.60977-14.1942,3.23238-28.3779c-4.8525-2.3857-9.77638-4.5107-14.7558-6.4766-.5518,15.8145-1.0938,31.7549-2.4737,47.4034q5.7114,7.2378,11.3223,14.5146c-.4268-4.0879.54782-8.251.9883-12.1748Q80.71451,74.74076,81.57633,67.29641Zm14.29778,52.3409q-9.60045-12.8247-19.4179-25.4873c-.7354.7666-1.7344.7197-3.08988.9033-1.03122.1357-2.08692.25-3.13672.3681a.66028.66028,0,0,1-.8789.1055c-1.60838.165-3.2305.332-4.8447.4863q-9.7749.9786-19.6211,1.625c-11.9668.7803-24.2178,1.6563-36.4307.8379a110.01988,110.01988,0,0,0,12.8184,27.4405c6.1006.6377,12.0176-.2539,17.96972-.8653q9.44382-.977,18.91208-1.8818Q77.01136,121.37506,95.87411,119.63731Zm-21.6386-27.25a.8497.8497,0,0,1,.331-.669c-2.6006-3.333-5.1963-6.6611-7.832-9.9697a.84757.84757,0,0,1-.8584-.8936.54131.54131,0,0,1,.0068-.1953c-.5185-.6533-1.0439-1.3154-1.5547-1.9609a.74527.74527,0,0,1-.706.417c-1.0244.0683-2.04788.1191-3.0713.1777.0059.0166.0322.0313.0352.0488,2.94622,4.3848,6.4697,8.9541,8.9853,13.6485.75492-.0762,1.5147-.1631,2.2686-.2412.5918-.0723,1.1797-.1377,1.7685-.2061A1.60077,1.60077,0,0,1,74.23551,92.38731Zm-6.82818.8476a.75243.75243,0,0,0,.14458-.0303c-2.9678-4.1787-5.4414-9.0058-8.0205-13.3457a.55146.55146,0,0,1-.0918-.5019c-1.0078.0517-2.0069.1191-3.0098.1807,1.1152,2.0996,2.1973,4.2119,3.4229,6.2812a72.90742,72.90742,0,0,1,3.8652,6.2266.57921.57921,0,0,1-.4043.8896.72112.72112,0,0,1-.5498-.2246,26.63163,26.63163,0,0,1-3.9688-5.9053,60.19972,60.19972,0,0,1-3.4873-6.9287.71935.71935,0,0,1-.0507-.2881c-1.5166.0762-3.0186.1553-4.5391.2227a69.4459,69.4459,0,0,0,3.2871,6.7402c.7051,1.2696,1.5635,2.5166,2.40432,3.7588a26.53525,26.53525,0,0,1,2.21388,3.8027c1.6162-.1513,3.2314-.3154,4.8359-.4736C64.77841,93.50931,66.08311,93.36871,67.40733,93.23491Zm-1.497-15.5107c.18358-15.4102,1.14058-30.7901,2.06828-46.0684-5.1191-1.956-10.2968-3.7724-15.4716-5.541.2314,5.5586-.7198,11.165-1.2149,16.6064-.4326,4.9522-.9023,9.9141-1.5283,14.836Q57.90836,67.57376,65.91033,77.72421Zm-3.06062-.8838c-.5586-.6934-1.0986-1.3779-1.6582-2.0899-1.5224-1.9052-3.0654-3.7988-4.6064-5.7089l-.1826-.2383Q46.25261,56.33606,35.879,44.06691a.96521.96521,0,0,1-.959.5977c-5.42568.0557-11.0634-.9531-16.5498-1.3174-4.5136-.3017-9.0254-.5371-13.54588-.789-.69922,7.0839-1.33352,14.167-1.45852,21.3652-.0336,2.4473.0259,4.9072.1592,7.3916l.0972,1.6182c.1523,2.0634.3496,4.1513.6142,6.2255C23.76771,78.32181,43.36241,77.90681,62.84971,76.84041Zm-5.5439,17.3848a30.05588,30.05588,0,0,1-4.2969-6.6133,61.2988,61.2988,0,0,1-3.5205-7.7403c-1.8477.0782-3.7148.1739-5.5762.2578,2.83112,4.2793,6.2383,8.8858,8.2002,13.543a.64336.64336,0,0,1-.58008.9317.59581.59581,0,0,1-.40622-.2618c-3.2969-4.1611-5.708-9.4902-8.1914-14.1728-1.39938.0586-2.8076.123-4.2119.1758,1.1094,2.3476,2.2871,4.6396,3.5869,6.9004,1.5068,2.6259,3.3955,5.1054,4.7715,7.7851.0176.0049.0176.0078.0234.0283,1.4766-.1152,2.9688-.2314,4.4443-.3554Q54.42741,94.48981,57.30581,94.22521Zm-6.3623-68.6377c-.9571-.3282-1.9229-.6582-2.8721-.9756-1.1484-.3838-2.2959-.7842-3.4502-1.1641.41412,4.5313.042,9.1602-.0107,13.6279-.0576,4.5635-.0723,9.1455-.3926,13.6553,1.3896,1.6924,2.749,3.4063,4.1416,5.0986.2529-5.0996.6504-10.166,1.0713-15.2197C49.84681,35.62651,49.87511,30.37461,50.94351,25.58751Zm-9.36918,69.8652c1.376-.0947,2.76268-.1992,4.13578-.2969-3.5537-4.1426-6.0947-9.7764-8.1963-14.7617-1.9453.0742-3.9053.126-5.876.168-1.6328.0459-3.2627.0771-4.9033.1006a160.36842,160.36842,0,0,0,6.9756,15.1904c1.6533-.0596,3.2988-.1572,4.95022-.2442a27.76375,27.76375,0,0,1-7.21582-13.5937.318.318,0,0,1,.3505-.3809.2986.2986,0,0,1,.24032.1856c1.14258,2.4316,2.01358,4.8974,3.39548,7.2265,1.3721,2.3291,3.1787,4.2657,4.6758,6.4922C40.59581,95.50441,41.08021,95.483,41.57433,95.45271Zm.93558-68.335c.0156-1.4648.0849-2.9052.2256-4.3281q-4.56885-1.582-9.1533-3.2861C36.60271,21.98,39.63781,24.46731,42.50991,27.11771Zm.0781,8.793c-.0019-.0117-.0088-.0234.0039-.0352a.53484.53484,0,0,1-.4131-.082c-3.291-2.2432-6.2578-5.4668-9.0683-8.3525a71.54345,71.54345,0,0,1-8.1016-9.3213.53934.53934,0,0,1-.09858-.2588c-.003-.3438.50778-.5127.80078-.2197,2.914,2.8242,5.4746,6.0439,8.3378,8.9375,2.7706,2.8007,5.8799,5.3261,8.542,8.2256-.0312-1.9336-.0927-3.8956-.1025-5.8594-3.91108-3.1836-7.5566-6.8682-11.2783-10.3428-2.0557-.7998-4.1094-1.6191-6.13278-2.4922-.06352.5742-.16022,1.1416-.25982,1.7149-.11718.6259-.2324,1.2656-.32318,1.8828-.11332.8408-.22072,1.6758-.32912,2.5371,6.2402,6.6191,12.99412,13.5615,18.45312,20.8857C42.59581,40.72611,42.587,38.31011,42.588,35.91071Zm.1807,13.0742c-.0586-1.416-.1035-2.8183-.1182-4.2197-6.6641-6.3018-12.7998-14.0186-18.6406-21.1904-.1104.874-.2119,1.7588-.30758,2.6377Q30.445,34.127,37.09681,42.12551,39.95626,45.546,42.76871,48.98491Zm-8.3819-6.668q-2.9355-3.4731-5.8574-6.9238a1.16491,1.16491,0,0,1-.542.1231,154.65549,154.65549,0,0,1-22.1958-2.7764c-.2348,2.623-.4975,5.2363-.7651,7.8604C14.54991,40.12071,24.92491,40.07181,34.38681,42.31691Zm-6.3271,53.7618c1.4131-.0528,2.8242-.1075,4.22562-.1641a49.81078,49.81078,0,0,1-6.63092-15.2227c-1.5713.0264-3.1426.0557-4.7226.0586C22.95811,86.07871,25.74333,90.91661,28.05971,96.07871Zm-7.1826.2734c1.9551-.085,3.90722-.1426,5.8623-.2266-2.99808-4.6503-5.0537-10.2636-6.8555-15.3486-2.3535,0-4.7002.0108-7.05858-.0293,1.26168,2.6914,2.46968,5.3985,3.84178,8.0479C17.99821,91.34431,19.65151,93.78671,20.87711,96.35211Zm1.6445-77.1738a33.83415,33.83415,0,0,1,.5313-3.961,107.72608,107.72608,0,0,1-17.585-9.7295c5.6523,6.1797,11.1641,12.4747,16.6191,18.8321C22.19251,22.60021,22.32733,20.88921,22.52161,19.17831ZM5.98211,30.67341a160.66887,160.66887,0,0,1,20.5258,2.3496c-6.80858-8.0244-13.6474-16.0117-20.4467-24.0605,1.4965,6.7021.5698,13.8935.038,20.2832C6.05971,29.72711,6.01141,30.191,5.98211,30.67341Zm8.1411,66.0176c1.7216-.0957,3.458-.1739,5.1826-.2578-3.3799-4.5108-5.8887-10.4678-7.7412-15.5459-.03128-.0577-.0186-.0938-.0381-.1485-1.2559-.0127-2.5195-.0263-3.791-.0556A133.09989,133.09989,0,0,0,14.12321,96.691Zm-6.084.4365c1.5849-.1367,3.1504-.2441,4.7305-.3516A100.1889,100.1889,0,0,1,6.692,80.66171c-.7451-.0127-1.4912-.0147-2.2373-.0381A112.47776,112.47776,0,0,0,8.03921,97.12751Z"/>
          <path class="cls-2" d="M142.67391,104.99371a126.12667,126.12667,0,0,1,2.9297,27.5772c.13872,18.1328-1.6816,36.0117.5362,54.2773q-6.6123-10.09125-13.5674-20.002a.6602.6602,0,0,0,.2851-.832c-1.7656-4.9287,1.0245-12.5859,1.8233-17.3721q1.3857-8.1987,2.85152-16.3828C139.15641,123.13341,140.89471,114.05131,142.67391,104.99371Z"/>
          <path class="cls-3" d="M132.17591,79.41171a80.53475,80.53475,0,0,1,9.2822,20.9306c-2.5371,11.7774-4.8047,23.6621-6.874,35.6055q-1.582,9.10545-2.956,18.2725c-.459,3.1299-1.5176,6.6162-.9434,9.9502q-3.1977-4.5366-6.4268-9.0498a1.2182,1.2182,0,0,0,.0821-.1319c.5195-1.1894-.4043-2.7861-1.7676-2.375a.41.41,0,0,0-.0938.0489q-1.49265-2.07435-2.9804-4.128c.3847.128.8603.0391.9453-.4189,2.3984-12.4141,4.0517-25.0742,5.7724-37.6826.2022-1.4844.418-2.9786.6455-4.4737a.95953.95953,0,0,1,.1221.0996.492.492,0,0,0,.7139-.6621c-.1836-.2968-.3945-.6064-.6113-.8974,1.3877-9.125,3.0058-18.4912,3.3271-27.7569C131.03233,77.62361,131.60851,78.51421,132.17591,79.41171Zm3.8281,30.667a2.96562,2.96562,0,0,0-.0566-2.4209,2.98125,2.98125,0,0,0-.7608-2.1426,2.39607,2.39607,0,0,0-3.2509-.3106,2.79139,2.79139,0,0,0-.8565,3.0557C131.73641,110.34231,134.87321,112.439,136.004,110.07871Zm-2.5254,15.0254a3.16609,3.16609,0,0,0-1.8115-3.0205,1.733,1.733,0,0,0-2.00878.4316,2.15291,2.15291,0,0,0-.67192.0381,1.0922,1.0922,0,0,0-.86708,1.0771,3.6575,3.6575,0,0,0,2.42768,3.4043A2.1213,2.1213,0,0,0,133.47861,125.10411Zm-7.3398,23.499c2.1826.7373,3.7783-1.5488,3.1143-3.6445a1.18974,1.18974,0,0,0-.6973-.7911,6.53617,6.53617,0,0,0-.9121-.1982,2.4447,2.4447,0,0,0-3.0723-.1963C123.06361,145.09721,124.213,147.95661,126.13881,148.60311Z"/>
          <path class="cls-4" d="M135.94741,107.65781a2.96562,2.96562,0,0,1,.0566,2.4209c-1.1308,2.3603-4.2676.2636-4.9248-1.8184a2.79139,2.79139,0,0,1,.8565-3.0557,2.39607,2.39607,0,0,1,3.2509.3106A2.98125,2.98125,0,0,1,135.94741,107.65781Z"/>
          <path class="cls-4" d="M131.66711,122.08361a3.16609,3.16609,0,0,1,1.8115,3.0205,2.1213,2.1213,0,0,1-2.9316,1.9306,3.6575,3.6575,0,0,1-2.42768-3.4043,1.0922,1.0922,0,0,1,.86708-1.0771,2.15291,2.15291,0,0,1,.67192-.0381A1.733,1.733,0,0,1,131.66711,122.08361Z"/>
          <path class="cls-4" d="M129.25311,144.95861c.664,2.0957-.9317,4.3818-3.1143,3.6445-1.9258-.6465-3.0752-3.5059-1.5674-4.8301a2.4447,2.4447,0,0,1,3.0723.1963,6.53617,6.53617,0,0,1,.9121.1982A1.18974,1.18974,0,0,1,129.25311,144.95861Z"/>
          <path class="cls-3" d="M124.64371,159.45561c6.4453,9.2969,12.8027,18.6436,19.2578,27.9356-10.1045-7.9209-23.5488-10.9883-35.0244-13.6143-9.8164-2.249-19.8379-4.2705-29.6914-7.0762,7.084-.9013,14.1269-2.0459,21.165-3.1279C108.39471,162.33451,116.85851,161.57281,124.64371,159.45561Z"/>
          <path class="cls-4" d="M128.631,74.23491c-.4404,2.0733-.7451,4.1885-1.001,6.3242-1.63668-1.9267-3.6445-3.6504-5.4258-5.3994-1.9951-1.9638-3.9756-3.9785-6.0195-5.8808.30762-2.6846.6221-5.3711.9258-8.0342A99.87763,99.87763,0,0,1,128.631,74.23491Z"/>
          <path class="cls-4" d="M127.42391,82.34431c-.1992,1.7344-.3691,3.4795-.5449,5.2148-1.5742-1.6523-3.3252-3.1757-4.9121-4.7314-2.0205-1.9785-3.999-4.0147-6.1387-5.8164a.32562.32562,0,0,0-.54488.0996c.251-2.1973.49808-4.3877.76168-6.5791,1.8125,1.9893,3.6856,3.9297,5.5342,5.8769a62.81612,62.81612,0,0,0,5.82912,5.9278C127.41421,82.33651,127.41421,82.33651,127.42391,82.34431Z"/>
          <path class="cls-4" d="M126.68081,89.45171c-.085.8467-.18748,1.708-.2949,2.5586-.1309,1.0908-.2774,2.1934-.4141,3.3047a58.71017,58.71017,0,0,0-5.10548-5.6035c-2.02442-2.1319-4.03122-4.2998-6.10352-6.3926a.51717.51717,0,0,0-.18548-.1201c.22158-1.9268.45208-3.8682.67868-5.7998a.30292.30292,0,0,0,.0957.1904c1.9971,2.3955,4.2539,4.5918,6.4258,6.8262C123.38,86.08841,124.96111,87.90291,126.68081,89.45171Z"/>
          <path class="cls-4" d="M125.83511,96.35311c-.251,1.9121-.4854,3.8281-.7305,5.7412-1.2217-1.3447-2.5478-2.6387-3.749-3.9414-2.3809-2.6055-4.7627-5.2207-7.2012-7.7813a.4117.4117,0,0,0-.3838-.1504c.2403-2.0439.4649-4.0937.7139-6.1425,1.833,2.1357,3.7451,4.2168,5.6221,6.3271a49.95724,49.95724,0,0,0,5.5078,5.8526A.40344.40344,0,0,0,125.83511,96.35311Z"/>
          <path class="cls-4" d="M124.85561,104.04641c-.2422,1.8291-.46,3.6563-.6924,5.4834-1.6123-1.8711-3.4961-3.581-5.1504-5.3457-2.0664-2.208-4.0781-4.4658-6.1221-6.7021.2774-2.1582.5245-4.3154.7764-6.4736,2.2588,2.6621,4.5547,5.2871,6.8477,7.9394C121.93081,100.59431,123.32341,102.41751,124.85561,104.04641Z"/>
          <path class="cls-4" d="M123.963,111.04941c-.0215.1367-.0381.2695-.0488.4062-.2471,1.7656-.4834,3.5381-.7207,5.3155-1.834-2.2696-4.1768-4.1719-6.1426-6.3223-1.7539-1.9483-3.4053-4.0029-5.01458-6.0586.24508-1.9775.48628-3.9551.74018-5.9277,1.748,2.1943,3.6006,4.3349,5.4629,6.4433A61.049,61.049,0,0,0,123.963,111.04941Z"/>
          <path class="cls-2" d="M122.33021,156.12651c.3818.5537.752,1.1045,1.1377,1.6563-7.9658.5654-15.89158,2.417-23.669,3.75-7.8867,1.3545-15.8115,2.6631-23.6308,4.2646-2.6983-.8154-5.3789-1.7021-8.0274-2.6914,13.8457-1.3525,27.5831-3.3262,41.2872-5.2715,3.52242-.497,7.0546-1,10.5742-1.497C120.58121,156.25051,121.47861,156.26621,122.33021,156.12651Z"/>
          <path class="cls-4" d="M122.67881,117.82961a.6422.6422,0,0,0,.3389.1026c-.2842,2.1103-.5957,4.2236-.8789,6.3232-.9199-1.8496-3.2627-3.7881-4.334-5.0693-.51848-.6211-4.9512-5.5791-6.6787-7.8399.2549-1.8632.4873-3.7451.7285-5.621q2.06685,2.8461,4.332,5.5117C118.12121,113.50841,120.23061,116.16851,122.67881,117.82961Z"/>
          <path class="cls-4" d="M121.796,126.52981l.0147.0039c-.3057,2.0909-.61138,4.1846-.8955,6.2872-1.4541-1.8594-3.1426-3.5821-4.6182-5.419-.5879-.7295-4.92768-6.0459-6-7.7392a.22515.22515,0,0,0,.2568-.0547c.0401-.0537.0967-.0879.1241-.1397a.33484.33484,0,0,0,.0546-.4062c-.2363-.3428-.3193-.4444-.6474-.4873.3047-1.9629.57622-3.9336.8574-5.8955.7734,1.08,1.8184,2.1171,2.3789,2.8544,1.17192,1.5235,2.3613,3.0176,3.54492,4.5196.60258.7451,1.209,1.4824,1.80368,2.2275.2442.2969.48832.5928.73732.8809a4.88866,4.88866,0,0,0,1.65728,1.5996c-.0508.0312-.0996.0683-.15428.1074a.60549.60549,0,0,0-.21882.8379C121.01871,126.30031,121.173,126.43411,121.796,126.52981Z"/>
          <path class="cls-4" d="M120.673,134.48881c-.30568,2.2696-.6201,4.5401-.92968,6.8233a70.23209,70.23209,0,0,0-4.85262-6.333c-2.02438-2.5616-4.04-5.1573-6.1455-7.6602.3799-2.2803.7178-4.5693,1.0655-6.8437.7138,1.8007,2.7588,3.9873,3.6289,5.1748C115.60271,128.63241,117.91221,132.03771,120.673,134.48881Z"/>
          <path class="cls-3" d="M118.38591,150.51321c.85642,1.2061,1.7089,2.4483,2.5703,3.6748-3.6846-.041-7.5967.8077-11.249,1.3018-4.9991.6787-10.00788,1.3516-15.001,2.0703-9.6885,1.375-19.4014,2.7539-28.9922,4.5381-.05668-.0166-.0879.0205-.1299.041a102.76146,102.76146,0,0,1-13.8594-6.6885,86.94555,86.94555,0,0,1-16.4365-12.4775c2.9482-.2373,5.91212-.5244,8.8418-.8281,6.8936-.7237,13.7842-1.4278,20.6611-2.1807,13.6924-1.4902,27.6993-2.417,41.169-4.7812a.81368.81368,0,0,0,.70122-.9268Q112.5704,142.32911,118.38591,150.51321Z"/>
          <path class="cls-4" d="M119.50791,143.12651c-.1992,1.5274-.4062,3.0557-.5869,4.586-.0058.0068-.0058.0068-.0019.0195q-5.6544-7.75935-11.375-15.4512a.50525.50525,0,0,0,.459-.4472c.1855-1.0752.3515-2.1534.53222-3.2393,1.623,2.3125,3.30948,4.5957,4.96678,6.8838C115.35171,138.01321,117.19741,140.99571,119.50791,143.12651Z"/>
          <path class="cls-2" d="M115.08611,59.358c-3.09278,23.75-6.6407,47.6074-8.4971,71.6484q-5.05665-6.8145-10.1455-13.6113-4.91745-6.55965-9.8887-13.0655c1.9443-10.4091,3.3838-21.0058,4.72752-31.5869,1.19338-9.4091,2.77448-18.9355,3.29108-28.5156.5166.2979,1.0244.6025,1.5205.9199A130.5036,130.5036,0,0,1,115.08611,59.358Z"/>
          <path class="cls-1" d="M105.881,133.18121a1.23675,1.23675,0,0,0-.4746-.0752c-12.6563.6387-25.1748,2.6006-37.6817,4.0274q-8.95605,1.02975-17.8906,2.1093c-3.2812.3867-6.5644.7657-9.84078,1.1817-1.14452.1425-4.64062.0879-6.79792.4619a98.0259,98.0259,0,0,1-10.6679-13.0674,62.24893,62.24893,0,0,0,13.7207-.1328c6.9326-.5791,13.8486-1.2188,20.7597-1.8525q20.3115-1.87215,40.5743-3.876c.0029,0,.0195.0039.0263,0C100.39371,125.691,103.12411,129.441,105.881,133.18121Zm-17.0596-2.5879a2.55031,2.55031,0,0,0-1.0869-3.2324c-1.0518-.6777-2.4268-.6602-2.9883.4072-.4805.8731.1777,1.9707,1.0498,2.4912a3.6408,3.6408,0,0,0,.5567.4903C87.12021,131.25541,88.34881,131.40781,88.82141,130.59331Zm-28.6894,3.1045a2.04761,2.04761,0,0,0,1.27832-2.2519,2.67433,2.67433,0,0,0-1.68262-2.3047,1.44967,1.44967,0,0,0-2.2139,1.5722c.0088.0244.0244.0352.0283.0703a.86739.86739,0,0,0-.04878.1495C57.22861,132.38921,58.66421,134.16751,60.132,133.69781Zm-21.6133,1.666a3.14429,3.14429,0,0,0-2.0323-3.4306.95736.95736,0,0,0-.5615-.4942c-1.2685-.3515-1.792.5801-1.80858,1.7061a2.55271,2.55271,0,0,0,.33208,2.4922.66822.66822,0,0,0,.7177.3037,3.07258,3.07258,0,0,0,1.6231.959C37.71591,137.05721,38.379,136.191,38.51871,135.36381Z"/>
          <path class="cls-4" d="M92.80091,43.17931c-1.5332,9.7753-2.167,19.9013-3.4365,29.7353-1.28908,9.957-2.7686,19.8691-4.0215,29.8291-1.7744-2.3174-3.5488-4.6475-5.3301-6.957a.548.548,0,0,0,.0488-.0791c1.4883-3.3828,1.47272-7.5811,1.9053-11.3877q.90525-7.89555,1.7481-15.8096l3.1386-28.5596C88.85271,40.97031,90.837,42.05521,92.80091,43.17931Z"/>
          <path class="cls-4" d="M87.73451,127.36091a2.55031,2.55031,0,0,1,1.0869,3.2324c-.4726.8145-1.7012.6621-2.4687.1563a3.6408,3.6408,0,0,1-.5567-.4903c-.8721-.5205-1.5303-1.6181-1.0498-2.4912C85.30771,126.70071,86.68271,126.68321,87.73451,127.36091Z"/>
          <path class="cls-3" d="M84.80871,38.91851q-1.62015,14.19585-3.23238,28.3779-.85548,7.443-1.68652,14.8887c-.44048,3.9238-1.4151,8.0869-.9883,12.1748q-5.61627-7.28325-11.3223-14.5146c1.3799-15.6485,1.9219-31.5889,2.4737-47.4034C75.03233,34.40781,79.95621,36.53281,84.80871,38.91851Z"/>
          <path class="cls-3" d="M76.45621,94.15q9.82755,12.64305,19.4179,25.4873-18.8715,1.74165-37.7197,3.5322-9.48045.90525-18.91208,1.8818c-5.95212.6114-11.86912,1.503-17.96972.8653a110.01988,110.01988,0,0,1-12.8184-27.4405c12.2129.8184,24.4639-.0576,36.4307-.8379q9.8379-.65325,19.6211-1.625c1.6142-.1543,3.23632-.3213,4.8447-.4863a.66028.66028,0,0,0,.8789-.1055c1.0498-.1181,2.1055-.2324,3.13672-.3681C74.72181,94.86971,75.72081,94.91661,76.45621,94.15Z"/>
          <path class="cls-2" d="M74.56651,91.71831a.8497.8497,0,0,0-.331.669,1.60077,1.60077,0,0,0-.627.1562c-.5888.0684-1.1767.1338-1.7685.2061-.7539.0781-1.51368.165-2.2686.2412-2.5156-4.6944-6.03908-9.2637-8.9853-13.6485-.003-.0175-.0293-.0322-.0352-.0488,1.02342-.0586,2.0469-.1094,3.0713-.1777a.74527.74527,0,0,0,.706-.417c.5108.6455,1.0362,1.3076,1.5547,1.9609a.54131.54131,0,0,0-.0068.1953.84757.84757,0,0,0,.8584.8936C69.37021,85.05721,71.96591,88.38531,74.56651,91.71831Z"/>
          <path class="cls-2" d="M67.55191,93.20461a.75243.75243,0,0,1-.14458.0303c-1.32422.1338-2.62892.2744-3.94822.4043l-.1455-.7041a.57921.57921,0,0,0,.4043-.8896,72.90742,72.90742,0,0,0-3.8652-6.2266c-1.2256-2.0693-2.3077-4.1816-3.4229-6.2812,1.0029-.0616,2.002-.129,3.0098-.1807a.55146.55146,0,0,0,.0918.5019C62.11051,84.19881,64.58411,89.02591,67.55191,93.20461Z"/>
          <path class="cls-2" d="M67.97861,31.65581c-.9277,15.2783-1.8847,30.6582-2.06828,46.0684q-8.01123-10.1397-16.14652-20.167c.626-4.9219,1.0957-9.8838,1.5283-14.836.4951-5.4414,1.4463-11.0478,1.2149-16.6064C57.68181,27.88341,62.85951,29.69981,67.97861,31.65581Zm-5.82128,13.1416c1.43358-1.4043,1.06838-4.3506-.93942-5.5635a1.62758,1.62758,0,0,0-2.5381,1.4805,1.96164,1.96164,0,0,0,.0996.6631c-.3047,1.2236.6397,2.6943,1.62792,3.4404A1.416,1.416,0,0,0,62.15733,44.79741Zm-2.706,14.1358a2.16642,2.16642,0,0,0,.65528-1.7754,2.88355,2.88355,0,0,0-2.8164-2.7862.96859.96859,0,0,0-.7881.7315,1.662,1.662,0,0,0-.0469.7431,1.20793,1.20793,0,0,0-.126.3809,2.79011,2.79011,0,0,0,.668,2.2871A1.75483,1.75483,0,0,0,59.45133,58.93321Z"/>
          <path class="cls-2" d="M63.31361,92.93511l.1455.7041c-1.6045.1582-3.2197.3223-4.8359.4736a26.53525,26.53525,0,0,0-2.21388-3.8027c-.84082-1.2422-1.69922-2.4892-2.40432-3.7588a69.4459,69.4459,0,0,1-3.2871-6.7402c1.5205-.0674,3.0225-.1465,4.5391-.2227a.71935.71935,0,0,0,.0507.2881,60.19972,60.19972,0,0,0,3.4873,6.9287,26.63163,26.63163,0,0,0,3.9688,5.9053A.72112.72112,0,0,0,63.31361,92.93511Z"/>
          <path class="cls-3" d="M61.19151,74.75051c.5596.712,1.0996,1.3965,1.6582,2.0899-19.4873,1.0664-39.082,1.4814-58.6133,2.3183-.2646-2.0742-.4619-4.1621-.6142-6.2255,17.5303-.1289,34.9687-1.7159,52.456-2.2413.79012-.0302.8965-1.0214.5069-1.6503C58.12611,70.95171,59.66911,72.84531,61.19151,74.75051Z"/>
          <path class="cls-4" d="M61.21791,39.23391c2.0078,1.2129,2.373,4.1592.93942,5.5635a1.416,1.416,0,0,1-1.75.0205c-.98822-.7461-1.93262-2.2168-1.62792-3.4404a1.96164,1.96164,0,0,1-.0996-.6631A1.62758,1.62758,0,0,1,61.21791,39.23391Z"/>
          <path class="cls-4" d="M61.41033,131.44591a2.04761,2.04761,0,0,1-1.27832,2.2519c-1.4678.4697-2.9034-1.3086-2.63868-2.7646a.86739.86739,0,0,1,.04878-.1495c-.0039-.0351-.0195-.0459-.0283-.0703a1.44967,1.44967,0,0,1,2.2139-1.5722A2.67433,2.67433,0,0,1,61.41033,131.44591Z"/>
          <path class="cls-4" d="M60.10661,57.15781a2.16642,2.16642,0,0,1-.65528,1.7754,1.75483,1.75483,0,0,1-2.45412-.419,2.79011,2.79011,0,0,1-.668-2.2871,1.20793,1.20793,0,0,1,.126-.3809,1.662,1.662,0,0,1,.0469-.7431.96859.96859,0,0,1,.7881-.7315A2.88355,2.88355,0,0,1,60.10661,57.15781Z"/>
          <path class="cls-4" d="M56.58511,69.04161c.3896.6289.28322,1.6201-.5069,1.6503-17.4873.5254-34.9257,2.1124-52.456,2.2413L3.525,71.315c16.7114-3.041,34.94-3.1494,52.2437-2.7764a.96242.96242,0,0,1,.6338.2647Z"/>
          <path class="cls-1" d="M56.40251,68.80331a.96242.96242,0,0,0-.6338-.2647c-17.3037-.373-35.5323-.2646-52.2437,2.7764-.1333-2.4844-.1928-4.9443-.1592-7.3916.125-7.1982.7593-14.2813,1.45852-21.3652,4.52048.2519,9.03228.4873,13.54588.789,5.4864.3643,11.12412,1.3731,16.5498,1.3174a.96521.96521,0,0,0,.959-.5977Q46.23261,56.36,56.40251,68.80331Z"/>
          <path class="cls-2" d="M53.00891,87.61191a30.05588,30.05588,0,0,0,4.2969,6.6133q-2.88135.26655-5.7569.4785l-.01658-.0996a.64336.64336,0,0,0,.58008-.9317c-1.9619-4.6572-5.36908-9.2637-8.2002-13.543,1.8614-.0839,3.7285-.1796,5.5762-.2578A61.2988,61.2988,0,0,0,53.00891,87.61191Z"/>
          <path class="cls-4" d="M48.07141,24.61191c.9492.3174,1.915.6474,2.8721.9756-1.0684,4.7871-1.0967,10.039-1.5127,15.0224-.4209,5.0537-.8184,10.1201-1.0713,15.2197-1.3926-1.6923-2.752-3.4062-4.1416-5.0986.3203-4.5098.335-9.0918.3926-13.6553.0527-4.4677.42482-9.0966.0107-13.6279C45.77551,23.82771,46.923,24.22811,48.07141,24.61191Z"/>
          <path class="cls-2" d="M51.53233,94.60411l.01658.0996c-1.4755.124-2.9677.2402-4.4443.3554-.0058-.0205-.0058-.0234-.0234-.0283-1.376-2.6797-3.2647-5.1592-4.7715-7.7851-1.2998-2.2608-2.4775-4.5528-3.5869-6.9004,1.4043-.0528,2.81252-.1172,4.2119-.1758,2.4834,4.6826,4.8945,10.0117,8.1914,14.1728A.59581.59581,0,0,0,51.53233,94.60411Z"/>
          <path class="cls-2" d="M45.71011,95.15581c-1.3731.0977-2.75978.2022-4.13578.2969-.49412.0303-.97852.0517-1.46772.0859-1.4971-2.2265-3.3037-4.1631-4.6758-6.4922-1.3819-2.3291-2.2529-4.7949-3.39548-7.2265a.2986.2986,0,0,0-.24032-.1856l-.1572-1.0722c1.9707-.042,3.9307-.0938,5.876-.168C39.61541,85.37941,42.15641,91.01321,45.71011,95.15581Z"/>
          <path class="cls-3" d="M42.73551,22.78961c-.1407,1.4229-.21,2.8633-.2256,4.3281-2.8721-2.6504-5.9072-5.1377-8.9277-7.6142Q38.16126,21.21006,42.73551,22.78961Z"/>
          <path class="cls-3" d="M42.59191,35.87551c-.0127.0118-.0058.0235-.0039.0352-.001,2.3994.0078,4.8154.03032,7.2197-5.459-7.3242-12.21292-14.2666-18.45312-20.8857.1084-.8613.2158-1.6963.32912-2.5371.09078-.6172.206-1.2569.32318-1.8828l.09282.0361a.53934.53934,0,0,0,.09858.2588,71.54345,71.54345,0,0,0,8.1016,9.3213c2.8105,2.8857,5.7773,6.1093,9.0683,8.3525A.53484.53484,0,0,0,42.59191,35.87551Z"/>
          <path class="cls-3" d="M42.65051,44.76521c.0147,1.4014.0596,2.8037.1182,4.2197q-2.82285-3.4365-5.6719-6.8594-6.64455-7.9863-13.39448-15.913c.09568-.8789.19718-1.7637.30758-2.6377C29.85071,30.74661,35.98641,38.46341,42.65051,44.76521Z"/>
          <path class="cls-3" d="M42.48841,28.94491c.0098,1.9638.0713,3.9258.1025,5.8594-2.6621-2.8995-5.7714-5.4249-8.542-8.2256-2.8632-2.8936-5.4238-6.1133-8.3378-8.9375-.293-.293-.80378-.1241-.80078.2197l-.09282-.0361c.0996-.5733.1963-1.1407.25982-1.7149,2.02338.8731,4.07708,1.6924,6.13278,2.4922C34.93181,22.07671,38.57733,25.76131,42.48841,28.94491Z"/>
          <path class="cls-4" d="M36.48641,131.93321a3.14429,3.14429,0,0,1,2.0323,3.4306c-.1397.8272-.8028,1.6934-1.7295,1.5362a3.07258,3.07258,0,0,1-1.6231-.959.66822.66822,0,0,1-.7177-.3037,2.55271,2.55271,0,0,1-.33208-2.4922c.01658-1.126.54008-2.0576,1.80858-1.7061A.95736.95736,0,0,1,36.48641,131.93321Z"/>
          <path class="cls-2" d="M38.66033,95.60891c-1.65142.087-3.29692.1846-4.95022.2442a160.36842,160.36842,0,0,1-6.9756-15.1904c1.6406-.0235,3.2705-.0547,4.9033-.1006l.1572,1.0722a.318.318,0,0,0-.3505.3809A27.76375,27.76375,0,0,0,38.66033,95.60891Z"/>
          <path class="cls-2" d="M28.52941,35.39311q2.9253,3.4512,5.8574,6.9238c-9.4619-2.2451-19.8369-2.1962-29.3603-1.7167.2676-2.6241.5303-5.2374.7651-7.8604a154.65549,154.65549,0,0,0,22.1958,2.7764A1.16491,1.16491,0,0,0,28.52941,35.39311Z"/>
          <path class="cls-2" d="M32.28533,95.91461c-1.40142.0566-2.81252.1113-4.22562.1641-2.31638-5.1621-5.1016-10-7.1279-15.3282,1.58-.0029,3.1513-.0322,4.7226-.0586A49.81078,49.81078,0,0,0,32.28533,95.91461Z"/>
          <path class="cls-2" d="M26.73941,96.12551c-1.95508.084-3.9072.1416-5.8623.2266-1.2256-2.5654-2.8789-5.0078-4.21-7.5566-1.3721-2.6494-2.5801-5.3565-3.84178-8.0479,2.35838.0401,4.70508.0293,7.05858.0293C21.68571,85.86191,23.74133,91.47521,26.73941,96.12551Z"/>
          <path class="cls-4" d="M23.05291,15.21731a33.83415,33.83415,0,0,0-.5313,3.961c-.19428,1.7109-.3291,3.4219-.4346,5.1416-5.455-6.3574-10.9668-12.6524-16.6191-18.8321A107.72608,107.72608,0,0,0,23.05291,15.21731Z"/>
          <path class="cls-3" d="M26.50791,33.023a160.66887,160.66887,0,0,0-20.5258-2.3496c.0293-.4824.0776-.9463.1171-1.4277.5318-6.3897,1.4585-13.5811-.038-20.2832C12.86051,17.01131,19.69933,24.99861,26.50791,33.023Z"/>
          <path class="cls-2" d="M19.30581,96.43321c-1.7246.0839-3.461.1621-5.1826.2578a133.09989,133.09989,0,0,1-6.3877-16.0078c1.2715.0293,2.5351.0429,3.791.0556.0195.0547.00682.0908.0381.1485C13.41711,85.96541,15.92591,91.92241,19.30581,96.43321Z"/>
          <path class="cls-2" d="M12.76971,96.77591c-1.5801.1075-3.1456.2149-4.7305.3516a112.47776,112.47776,0,0,1-3.5845-16.5039c.7461.0234,1.4922.0254,2.2373.0381A100.1889,100.1889,0,0,0,12.76971,96.77591Z"/>
        </g>
        <path class="cls-4" d="M157.97281,209.59141l-14.02048-18.8282,4.50778-3.3623,14.0683,18.8868Q160.22579,207.91656,157.97281,209.59141Z"/>
      </g>
    </g>
  </g>
</svg>
