<svg xmlns="http://www.w3.org/2000/svg" width="181.03255" height="199.59272" viewBox="0 0 181.03255 199.59272">
  <defs>
    <style>
      .cls-1 {
        fill: #ffaa27;
      }

      .cls-1, .cls-2, .cls-3 {
        fill-rule: evenodd;
      }

      .cls-2 {
        fill: #9d692c;
      }

      .cls-3 {
        fill: none;
      }
    </style>
  </defs>
  <g id="图层_2" data-name="图层 2">
    <g id="Layer_1" data-name="Layer 1">
      <g>
        <rect x="9.65611" y="161.42149" width="76.32009" height="3.91291" transform="translate(-110.34217 100.4122) rotate(-51.97831)"/>
        <path d="M21.4634,188.7285c-3.0308,3.875-3.6763,8.4336-1.4429,10.1817,2.2344,1.748,6.5044.0224,9.53521-3.8516,3.03219-3.8769,3.67869-8.4355,1.44279-10.1836C28.7656,183.1289,24.4956,184.8535,21.4634,188.7285Z"/>
        <g>
          <path class="cls-1" d="M.0718,88.5557A30.92769,30.92769,0,0,1,.688,94.4053c2.7236,16.3115,13.2461,25.8721,25.3755,31.4434a9.79012,9.79012,0,1,1,10.9507,3.9492,113.05292,113.05292,0,0,0,34.3159,3.5254s16.6968,73.9355,67.5493,56.5722c.2554-.0869.5171-.1923.7749-.2871-7.479-1.3916-7.0073-13.7207,1.42241-13.7207,5.96189,0,7.93889,6.1651,5.94529,10.2705a65.67711,65.67711,0,0,0,7.7246-5.167c-9.105-3.9267-7.67189-20.2705,4.311-20.2705a9.603,9.603,0,0,1,9.4273,6.3076c10.1636-13.5625,16.2173-31.7011,10.0805-51.6826-2.8134-9.1601-5.0615-17.6679-6.8383-25.5674a30.99609,30.99609,0,0,1-1.7168-8.1894c-3.9663-20.4229-4.6197-36.3564-3.7383-48.499a30.9847,30.9847,0,0,1,.394-4.3653C168.936,8.1075,175.6299,0,175.6299,0s-6.4697,6.2305-25.6538,11.8496a9.73785,9.73785,0,0,1-6.104,10.6309,10.11406,10.11406,0,0,1-4.2295.8643,9.12134,9.12134,0,0,1-9.2398-7.0166c-1.03709.1806-2.0864.3593-3.1665.5351a18.66331,18.66331,0,0,1-34.2221,8.0586,18.57791,18.57791,0,0,1-2.2676-4.5996c-4.978.1982-10.2192.3174-15.752.333-12.9062.04-23.6298,1.8643-32.5913,4.9014,4.44141,7.1777,1.15241,19.1767-9.8911,19.1767a11.13427,11.13427,0,0,1-11.0508-7.666C6.3389,49.7979,1.1489,67.5371.1616,81.375A60.096,60.096,0,0,0,.0718,88.5557Zm162.4463,26.6592a4.89241,4.89241,0,1,1,.8388,6.8672A4.89266,4.89266,0,0,1,162.5181,115.2149Zm-8.8887-7.6299c-9.3003,0-9.3003-14.4229,0-14.4229C162.9302,93.1621,162.9302,107.585,153.6294,107.585Zm-7.1245,4.5752c9.30081,0,9.30081,14.4238,0,14.4238C137.2046,126.584,137.2046,112.1602,146.5049,112.1602Z"/>
          <path class="cls-2" d="M175.6294,0s-6.6606,8.0889-8.9429,28.6143a30.84738,30.84738,0,0,0-.4194,4.6719c-.8159,11.4824-.27339,26.3105,3.1431,45.1211-.2852-1.1612-.5987-2.3272-.959-3.5-8.0371-26.167-11.8897-47.5069-13.2603-64.712C170.32371,5.0762,175.6294,0,175.6294,0Z"/>
          <path class="cls-2" d="M124.8975,156.7227c13.01121-4.4414,29.1928-17.1074,38.562-34.5742a4.88719,4.88719,0,1,0,3.9189-8.6895,59.5385,59.5385,0,0,0,3.4512-26.6689,31.35275,31.35275,0,0,0,.9185,3.0488c1.7734,7.8838,4.0087,16.3643,6.8169,25.5068,6.13671,19.9815.083,38.1201-10.0801,51.6817a9.60392,9.60392,0,0,0-9.4273-6.3067c-11.98189,0-13.416,16.3438-4.311,20.2705a65.55491,65.55491,0,0,1-7.7246,5.1661c1.9936-4.1045.0156-10.2696-5.94529-10.2696-8.42971,0-8.90141,12.3291-1.42341,13.7207-.2578.0948-.5195.2002-.7744.2871C99.1519,203.46,80.2705,161.3047,73.90971,142.209,85.5064,155.5391,102.0625,164.5196,124.8975,156.7227Z"/>
          <path class="cls-2" d="M.0723,88.5606C.0308,87.6944.0015,86.8184,0,85.919c.3609.1728.7212.3476,1.0845.5146A10.61329,10.61329,0,0,1,.0264,84.3125c.0244-.9629.063-1.9375.13431-2.9375C.3106,79.2774.5635,77.086.9253,74.8399a10.7763,10.7763,0,0,1,.6397-.9698A10.73837,10.73837,0,1,1,13.1026,90.7676a124.06239,124.06239,0,0,0,37.66111,3.8691s4.69679,20.7735,16.562,38.8311a112.73332,112.73332,0,0,1-30.31251-3.6699,9.782,9.782,0,1,0-10.9502-3.9492C13.9292,120.2754,3.4063,110.708.6875,94.3848A30.90639,30.90639,0,0,0,.0723,88.5606Z"/>
          <g>
            <path class="cls-3" d="M.0718,88.5557A30.92769,30.92769,0,0,1,.688,94.4053c2.7236,16.3115,13.2461,25.8721,25.3755,31.4434a9.79012,9.79012,0,1,1,10.9507,3.9492,113.05292,113.05292,0,0,0,34.3159,3.5254s16.6968,73.9355,67.5493,56.5722c20.96831-7.1591,50.98931-37.747,39.686-74.5498-2.8134-9.1601-5.0615-17.6679-6.8383-25.5674a30.99609,30.99609,0,0,1-1.7168-8.1894c-3.9663-20.4229-4.6197-36.3564-3.7383-48.499a30.9847,30.9847,0,0,1,.394-4.3653C168.936,8.1075,175.6299,0,175.6299,0s-6.4697,6.2305-25.6538,11.8496a9.73785,9.73785,0,0,1-6.104,10.6309,10.11406,10.11406,0,0,1-4.2295.8643,9.12134,9.12134,0,0,1-9.2398-7.0166c-1.03709.1806-2.0864.3593-3.1665.5351a18.66331,18.66331,0,0,1-34.2221,8.0586,18.57791,18.57791,0,0,1-2.2676-4.5996c-4.978.1982-10.2192.3174-15.752.333C16.4658,20.833,1.8911,57.1192.1616,81.375A60.096,60.096,0,0,0,.0718,88.5557Zm162.4463,26.6592a4.89241,4.89241,0,1,1,.8388,6.8672A4.89266,4.89266,0,0,1,162.5181,115.2149Z"/>
            <g>
              <path d="M149.2398,14.1807a11.55145,11.55145,0,0,0-.1114-2.584c.357-.1133.7168-.2187,1.0679-.3457a24.4886,24.4886,0,0,1-2.9092,25.3838l-1.5415-1.2051A22.46909,22.46909,0,0,0,149.2398,14.1807Z"/>
              <path d="M166.5401,29.6084q-.12975.9654-.1993,1.9483a22.52792,22.52792,0,0,0-21.45109,8.3271l-1.54251-1.206A24.48617,24.48617,0,0,1,166.5401,29.6084Z"/>
            </g>
            <g>
              <path d="M126.57671,20.0244a18.23052,18.23052,0,0,0,.56779-2.5752,37.46006,37.46006,0,0,1-.46379,45.4747l-1.54151-1.2051A35.50051,35.50051,0,0,0,126.57671,20.0244Z"/>
              <path d="M166.9478,56.0352c.0244.7578.06691,1.5107.145,2.2549a35.49292,35.49292,0,0,0-44.1294,9.6709l-1.5425-1.2071A37.457,37.457,0,0,1,166.9478,56.0352Z"/>
            </g>
            <g>
              <path d="M103.4463,48.0166A69.724,69.724,0,0,0,87.19871,20.2325q1.18213-.13635,2.33889-.3633c.6592.7138,1.29,1.458,1.9209,2.2021a19.12189,19.12189,0,0,0,5.2251,6.9707,72.6258,72.6258,0,0,1,8.6314,18.3985c6.0722,19.6836,3.0654,39.2617-8.2447,53.7177l-1.5395-1.205C106.4385,86.0088,109.3252,67.0791,103.4463,48.0166Z"/>
              <path d="M170.53371,85.4815c.15429.7656.33939,1.5195.54879,2.2646a72.00854,72.00854,0,0,0-81.73579,23.0596l-1.541-1.2041A73.95711,73.95711,0,0,1,170.53371,85.4815Z"/>
            </g>
            <rect x="42.68787" y="72.21907" width="149.70361" height="1.95501" transform="translate(-12.53802 120.66349) rotate(-51.95978)"/>
            <path d="M153.4634,118.9414c12.6558,3.8291,22.3301,9.9805,27.4629,18.0469a30.81577,30.81577,0,0,0-.4868,3.0606c-4.397-8.6387-14.05179-15.1924-27.0952-19.1983A8.39375,8.39375,0,0,0,153.4634,118.9414Z"/>
            <path d="M140.2759,115.9727a7.75109,7.75109,0,0,0-.5859,1.8066c-16.8174-2.582-37.0899-1.8027-58.2095,3.0137l-.4351-1.9082C102.5054,113.9912,123.125,113.2559,140.2759,115.9727Z"/>
            <path d="M43.7529,28.5957c21.4053,9.7774,37.9004,46.8985,38.73981,91.4219l-1.95751.0352c-.8111-42.9629-16.2041-78.9063-36.3106-89.1231A13.59468,13.59468,0,0,0,43.7529,28.5957Z"/>
            <g>
              <path d="M74.6538,128.2422c46.6626,5.2129,68.8736,20.4844,79.4488,33.6406a9.073,9.073,0,0,0-1.6275,1.0909c-10.33739-12.7901-32.1201-27.6553-78.0386-32.7871Z"/>
              <path d="M72.3452,131.2383l.3833.209c37.8111,20.7012,58.6846,32.1504,57.5625,60.9062q-.97994.02205-1.94629.1036c1.23639-27.6338-18.30321-38.3506-56.55611-59.293l-.3814-.2109Z"/>
            </g>
            <g>
              <path d="M7.0791,54.9043c.9531.0811,1.9224.1856,2.9238.3418,14.9317,2.3281,43.191,14.9131,64.688,73.0254l-1.834.6797C51.7031,71.7744,24.207,59.4414,9.70071,57.1797c-1.23541-.1924-2.42481-.3154-3.57321-.3896C6.4668,56.1739,6.7803,55.543,7.0791,54.9043Z"/>
              <path d="M.22271,89.3828C27.1665,82.1866,43.2583,99.6387,72.043,130.9112l.2959.3222-1.4395,1.3233-.2954-.3203C41.4663,100.584,26.3716,84.2149.5039,91.3164.43171,90.666.335,90.0225.22271,89.3828Z"/>
            </g>
          </g>
        </g>
      </g>
    </g>
  </g>
</svg>
