<svg xmlns="http://www.w3.org/2000/svg" xmlns:xlink="http://www.w3.org/1999/xlink" width="226.68766" height="246.9473" viewBox="0 0 226.68766 246.9473">
  <defs>
    <style>
      .cls-1 {
        fill: none;
      }

      .cls-2 {
        isolation: isolate;
      }

      .cls-3, .cls-6 {
        fill: #facd4a;
      }

      .cls-4 {
        clip-path: url(#clip-path);
      }

      .cls-5 {
        fill: #9d692c;
      }

      .cls-6 {
        mix-blend-mode: color-burn;
      }
    </style>
    <clipPath id="clip-path" transform="translate(-0.00471)">
      <path class="cls-1" d="M3.17778,241.9795s13.0224-41.6528,40.8564-47.7266c27.832-6.0742,101.6445.7671,119.7832-70.8672,18.1328-71.6337,21.6611-113.6401,49.3594-120.4106,0,0-134.5049-13.3032-180.93068,69.5703C-14.18162,155.415,3.17778,241.9795,3.17778,241.9795Z"/>
    </clipPath>
  </defs>
  <g class="cls-2">
    <g id="图层_2" data-name="图层 2">
      <g id="Layer_1" data-name="Layer 1">
        <g>
          <path class="cls-3" d="M32.2461,72.5454a242.63193,242.63193,0,0,0-18.32762,41.5029,10.62105,10.62105,0,0,1,7.84962,10.001c.58448,8.8916-7.34422,13.0489-14.11042,11.8438-14.0273,58.436-4.4799,106.0864-4.4799,106.0864s13.0224-41.6528,40.8564-47.7266c11.0723-2.4145,29.42092-2.7924,48.6465-6.8745A16.17165,16.17165,0,0,1,88.3711,177.46a16.31987,16.31987,0,0,1,32.56938-2.1421,15.67958,15.67958,0,0,1-.06938,2.688c18.96778-9.3179,35.56548-25.4717,42.94628-54.6202,18.1328-71.6337,21.6611-113.6401,49.3594-120.4106C213.17678,2.9751,78.67188-10.3281,32.2461,72.5454Zm25.53318,83.5884c-1.2187-18.5273,27.51082-20.4165,28.7295-1.8901C87.72658,172.7705,58.9971,174.6602,57.77928,156.1338Zm77.8086-11.7856c1.0069,15.3105-22.7363,16.872-23.7431,1.5615S134.5811,129.0376,135.58788,144.3482ZM49.168,97.7974c1.1943,18.1592-26.9634,20.0107-28.1572,1.852C19.81638,81.4922,47.97368,79.6401,49.168,97.7974Z" transform="translate(-0.00471)"/>
          <g class="cls-4">
            <g>
              <path d="M226.2061,22.3989l.48628-1.3369c-.27828-.1011-28.2539-9.8852-66.6377,4.5362l.4981,1.333C198.458,12.6802,225.93558,22.3032,226.2061,22.3989Z" transform="translate(-0.00471)"/>
              <path d="M225.73638,43.083l.6943-1.2417c-.3955-.2192-39.876-21.4824-102.6582,5.3921l.5605,1.3096C186.48338,21.9395,225.35258,42.8677,225.73638,43.083Z" transform="translate(-0.00471)"/>
              <path d="M210.64158,52.2593l.3057-1.3921c-.6514-.1392-65.5576-13.8633-108.0039,11.6328l.7334,1.2212C145.63868,38.5112,209.9961,52.1216,210.64158,52.2593Z" transform="translate(-0.00471)"/>
              <path d="M198.76658,67.0708l.4561-1.3496c-.5567-.187-56.5664-18.5703-110.4785,8.5981l.6396,1.2696C142.77048,48.6914,198.21588,66.8857,198.76658,67.0708Z" transform="translate(-0.00471)"/>
              <g>
                <path d="M69.042,178.9697c5.8662-1.041,12.3213-2.186,19.3369-3.4922.0293-.4965.07722-.9921.1514-1.479-7.168,1.3374-13.7578,2.5088-19.7344,3.566-38.8457,6.9004-54.92578,9.7509-61.0537,27.9355l1.3477.4536C14.95168,188.5684,30.795,185.7637,69.042,178.9697Z" transform="translate(-0.00471)"/>
                <path d="M118.05468,167.188q.43215.61965.8057,1.2773c38.0615-11.4179,48.5605-26.9184,49.0635-27.685l-1.1934-.7788C166.61038,140.187,155.95318,155.8135,118.05468,167.188Z" transform="translate(-0.00471)"/>
              </g>
              <g>
                <path d="M63.54978,166.6611a12.70007,12.70007,0,0,1-1.4834-1.144c-.2714.0566-.5527.1167-.8232.1738-24.6338,5.1778-40.9136,8.5987-47.2178,17.9043l1.1768.7974c5.9863-8.8242,22.0381-12.1978,46.33592-17.3057C62.19828,166.9478,62.87988,166.8032,63.54978,166.6611Z" transform="translate(-0.00471)"/>
                <path d="M85.69528,160.334a12.43525,12.43525,0,0,1-.7509,1.6387c5.2558-1.2232,10.75972-2.5703,16.5341-4.0982,4.7891-1.2661,9.4122-2.6987,13.8721-4.2422a10.04589,10.04589,0,0,1-1.0469-1.1186c-4.2158,1.4345-8.6113,2.7783-13.1894,3.9863C95.7451,157.9194,90.61618,159.1812,85.69528,160.334Z" transform="translate(-0.00471)"/>
                <path d="M177.51658,116.1353c-.5429,1.143-15.6718,15.312-41.97948,27.7685.01368.1514.04108.291.05078.4444.0235.3569.0205.6972.0176,1.0361,26.749-12.5796,43.43462-27.315,43.2998-29.125l-.71.0508Z" transform="translate(-0.00471)"/>
              </g>
              <g>
                <path d="M59.62888,147.9131a12.25985,12.25985,0,0,1,1.2383-1.7158c-19.2158,4.0156-32.001,7.0317-37.7573,15.27l1.1665.8174C29.57128,154.6997,41.59868,151.7017,59.62888,147.9131Z" transform="translate(-0.00471)"/>
                <path d="M96.96588,137.9644c-6.584,1.7548-12.752,3.2138-18.55178,4.5044a13.68338,13.68338,0,0,1,1.98138,1.0156c5.3252-1.2012,10.96-2.5528,16.9375-4.1441,38.7422-10.3208,84.8467-39.83,85.3096-40.1254l-.77148-1.1973C181.41018,98.3106,135.49028,127.7036,96.96588,137.9644Z" transform="translate(-0.00471)"/>
              </g>
              <path d="M56.7461,128.7451C120.43748,116.5098,187.211,81.061,187.93358,80.6748l-.6709-1.2539c-.7812.4141-78.8281,41.8374-146.4853,50.4497l.1806,1.4146C46.17088,130.6211,51.45218,129.7637,56.7461,128.7451Z" transform="translate(-0.00471)"/>
              <path d="M93.71,103.6025c46.8066-8.9931,90.0615-26.205,90.6055-26.4209l-.5303-1.3222c-.6758.2729-68.458,27.2329-126.044,31.1855l.0997,1.417A301.136,301.136,0,0,0,93.71,103.6025Z" transform="translate(-0.00471)"/>
              <rect x="71.97409" y="79.01938" width="115.26719" height="1.42533" transform="translate(-12.72058 25.88635) rotate(-10.87571)"/>
            </g>
          </g>
          <path class="cls-5" d="M32.2461,72.5454a242.63193,242.63193,0,0,0-18.32762,41.5029,10.62105,10.62105,0,0,1,7.84962,10.001c.58448,8.8916-7.34422,13.0489-14.11042,11.8438-14.0273,58.436-4.4799,106.0864-4.4799,106.0864C13.26368,77.291,181.99028,13.5005,209.40818,4.2041a28.688,28.688,0,0,1,3.7686-1.229S78.67188-10.3281,32.2461,72.5454ZM49.168,97.7974c1.1943,18.1592-26.9634,20.0107-28.1572,1.852C19.81638,81.4922,47.97368,79.6401,49.168,97.7974Z" transform="translate(-0.00471)"/>
          <path d="M1.28128,243.9766c-.1768,1.0244-.25,2.0092-.3296,2.9707-.2671-.3706-.5454-.7354-.8203-1.1026.03172-.644.0718-1.3022.1611-1.9751.1592-1.3911.332-2.8496.5073-4.3681.3545-3.043.7378-6.335,1.1465-9.8506.294-3.5376,1.1675-7.2114,1.8379-11.1255q.5589-2.93475,1.1401-6.0122c.1963-1.0259.4009-2.0596.5997-3.1079.2319-1.0396.5346-2.0801.8032-3.1392q1.6626-6.3318,3.46292-13.1738c1.41548-4.4883,3.01558-9.0864,4.58878-13.8418.731-2.4033,1.7539-4.728,2.7193-7.1123q1.46265-3.56625,2.9531-7.2246c.5137-1.21.9771-2.4536,1.5337-3.6607q.88035-1.79,1.7715-3.5918,1.7841-3.621,3.5991-7.2998c.6226-1.2153,1.16452-2.4858,1.8677-3.6674q1.02975-1.8003,2.0625-3.604,2.0727-3.61755,4.166-7.2876c2.8691-4.8467,6.1484-9.5166,9.2754-14.337q2.56938-3.45765,5.1601-6.9448l2.5957-3.4848,1.3057-1.7403,1.3955-1.6767q2.7861-3.3546,5.58592-6.7115c.94828-1.1069,1.836-2.27,2.83208-3.334L66.17,94.3589l5.9628-6.4048q3.12465-3.0579,6.2364-6.1059c4.08-4.1451,8.5117-7.8726,12.7715-11.7173,1.0595-.9702,2.1572-1.8872,3.27242-2.7784q1.65972-1.3593,3.31538-2.7016c2.22862-1.77,4.3653-3.6231,6.6329-5.2876,4.5244-3.3364,8.8984-6.7603,13.4492-9.7817,8.8994-6.3414,18.0127-11.6861,26.6504-16.7085,8.7607-4.8111,17.1113-9.2388,25.0322-12.8814,3.917-1.9048,7.7637-3.5405,11.3955-5.1401,3.6709-1.5137,7.1445-2.9663,10.4502-4.2281,6.5957-2.5629,12.418-4.5937,17.2373-6.1865,4.8242-1.5913,8.6572-2.6748,11.2793-3.3901C222.47758.3252,223.88868,0,223.88868,0s-1.39058.4019-3.9648,1.2681c-2.5821.8384-6.3272,2.1958-11.0723,3.9477-4.7383,1.7871-10.4541,4.0513-16.9102,6.8682-6.4521,2.8315-13.6611,6.1772-21.3994,10.064-7.7822,3.8129-15.96088,8.4228-24.5234,13.4101q-3.1611,1.96005-6.4063,3.9634-1.6215,1.0056-3.2627,2.019-1.6098,1.06575-3.2373,2.1402-3.25335,2.15115-6.5713,4.3501c-2.1943,1.4902-4.3603,3.0693-6.5712,4.6216-4.4639,3.0478-8.7422,6.4897-13.1729,9.8413-2.21678,1.6723-4.3057,3.5327-6.4814,5.3042-2.1377,1.8203-4.3985,3.5166-6.4746,5.4482-4.1866,3.8115-8.5479,7.5063-12.5489,11.6089q-3.05565,3.01755-6.123,6.0493l-5.8487,6.334-2.9336,3.1582c-.9873,1.0454-1.8681,2.1821-2.8027,3.2705q-2.77,3.3018-5.5312,6.5874L56.67,111.897l-1.2881,1.7109-2.5723,3.4204q-2.5635,3.4146-5.1084,6.813-2.35395,3.52815-4.6855,7.0308-1.17045,1.74015-2.3409,3.4795l-1.164,1.7329-1.0635,1.7934q-2.10945,3.5823-4.1934,7.1172-1.0458,1.768-2.081,3.5249c-.71,1.1582-1.2529,2.4014-1.88578,3.5908q-1.83393,3.5985-3.63812,7.1402c-.6021,1.1831-1.1998,2.353-1.7955,3.5234-.5805,1.1758-1.0659,2.3863-1.5976,3.5674q-1.5645,3.564-3.09378,7.0518c-1.01512,2.3242-2.08392,4.6001-2.86232,6.9458-1.6714,4.6552-3.373,9.1645-4.88668,13.5683q-1.94538,6.7149-3.75682,12.9478c-.292,1.041-.61918,2.0635-.8731,3.0918q-.3405,1.5483-.6709,3.0669-.6759,3.03075-1.3125,5.917c-.8266,3.8569-1.8452,7.4775-2.28268,10.9707-.55122,3.479-1.06742,6.7358-1.54392,9.7436Q1.61138,241.90585,1.28128,243.9766Z" transform="translate(-0.00471)"/>
          <path class="cls-6" d="M143.33788,77.8208c-4.8105,21.3931-11.2363,40.062-21.8867,56.02,6.3486-1.1313,13.5898,2.1968,14.1367,10.5074,1.002,15.2304-22.4746,16.8481-23.71578,1.7983-13.09372,14.4648-31.10062,26.2349-56.63872,35.312-30.6225,10.8809-42.1167,30.3882-46.1474,46.3906,6.32912-12.6831,17.8359-29.8593,34.9482-33.5962,11.0723-2.4145,29.42092-2.7924,48.6465-6.8745A16.17165,16.17165,0,0,1,88.3711,177.46a16.31987,16.31987,0,0,1,32.56938-2.1421,15.67958,15.67958,0,0,1-.06938,2.688c18.96778-9.3179,35.56548-25.4717,42.94628-54.6202,15.2608-60.2861,20.17972-99.5766,37.8652-114.5512-.4033-.3667-.6328-.5752-.6328-.5752S154.24418,29.3101,143.33788,77.8208Z" transform="translate(-0.00471)"/>
        </g>
      </g>
    </g>
  </g>
</svg>
