<svg xmlns="http://www.w3.org/2000/svg" width="32.3559" height="32.3565" viewBox="0 0 32.3559 32.3565">
  <defs>
    <style>
      .cls-1 {
        fill: #7f5741;
      }

      .cls-2 {
        fill: #684838;
      }

      .cls-3 {
        fill: #a16b50;
      }

      .cls-4 {
        fill: #c79473;
      }

      .cls-5 {
        fill: #c49a77;
      }

      .cls-6 {
        fill: #6d5341;
      }
    </style>
  </defs>
  <g id="图层_2" data-name="图层 2">
    <g id="Layer_1" data-name="Layer 1">
      <g>
        <g>
          <polygon class="cls-1" points="27.116 10.276 27.371 9.564 26.353 5.953 26.047 3.867 27.319 0.356 27.421 0 27.829 0 29.253 2.544 29.303 4.935 28.744 9.463 29.049 12.158 27.371 11.243 27.116 10.276"/>
          <polygon class="cls-2" points="24.063 28.031 25.997 28.643 27.573 29.505 27.829 29.914 27.472 30.219 27.472 30.829 25.894 30.829 23.556 30.729 21.672 30.015 21.47 28.794 24.063 28.031"/>
          <polygon class="cls-3" points="17.601 3.052 16.636 4.223 17.348 6.054 19.789 7.784 23.402 11.142 23.657 11.751 23.25 12.82 22.08 14.244 20.757 14.093 19.332 14.093 12.565 12.567 7.936 13.584 2.9 15.262 0.56 21.621 0 27.269 2.289 29.405 3.205 29.914 2.952 30.931 5.036 31.135 7.072 31.49 11.446 32.356 12.668 32.356 12.769 31.847 13.176 31.847 13.176 30.779 14.906 30.219 16.789 29.505 16.84 29.862 18.823 30.524 19.637 31.288 21.877 31.593 24.165 32.051 25.08 31.593 24.929 30.88 24.115 29.914 22.13 29.66 24.623 28.439 26.099 26.658 27.626 24.42 27.98 22.486 28.744 21.978 28.794 21.265 30.729 21.265 31.948 19.993 32.356 18.62 31.491 16.89 29.761 12.718 28.439 11.04 25.946 9.259 23.809 6.563 20.656 4.426 18.112 3.307 17.601 3.052"/>
          <polygon class="cls-4" points="31.936 18.684 32.323 18.555 32.356 18.62 31.976 19.903 31.478 19.903 31.326 19.484 31.669 19.026 31.936 18.684"/>
          <polygon class="cls-1" points="28.235 19.714 28.58 20.477 29.114 20.821 29.724 20.782 30.104 20.63 30.982 20.248 31.478 19.903 31.135 20.477 30.334 20.896 30.463 21.265 28.978 21.265 28.655 21.011 27.968 20.323 27.815 19.179 28.198 19.179 28.235 19.714"/>
          <path class="cls-1" d="M21.164,28.5411l.813-.458,3.2066-3.002,1.3222-2.291,1.0684-.7617.7119-.6094.5596-.459s.0703.124.1694.3047h-.2207l-.0508.7129-.7632.5088L27.626,24.42l-1.5269,2.2383L24.623,28.4385l-2.4926,1.2217-1.2203-.5596-.56-.3047-.5093-.5107v-.2529l.3574.0508Z"/>
          <polygon class="cls-1" points="9.209 27.269 9.209 25.742 8.853 24.216 9.259 24.929 10.175 26.506 11.6 27.166 14.398 27.371 16.483 27.166 17.094 27.166 17.094 28.083 16.789 28.999 16.604 29.577 14.906 30.219 13.176 30.779 13.025 30.321 11.956 29.66 10.125 29.456 8.293 29.303 6.615 29.15 6.36 28.846 7.683 28.439 9.209 27.269"/>
          <polygon class="cls-1" points="0 27.269 0.56 21.621 2.9 15.262 5.622 14.354 5.495 14.651 4.375 15.212 3.358 16.153 1.908 20.96 1.501 23.224 1.603 25.26 1.043 26.861 2.441 27.065 3.766 27.521 4.884 27.727 4.884 28.235 3.562 29.303 4.884 29.965 5.291 30.525 8.192 30.525 10.685 30.88 12.007 31.441 12.052 32.356 11.446 32.356 7.072 31.49 5.036 31.135 2.952 30.931 3.205 29.914 2.289 29.405 0 27.269"/>
          <polygon class="cls-2" points="13.122 31.847 12.769 31.847 12.668 32.356 12.503 32.356 12.465 31.746 12.007 30.88 12.668 31.135 13.122 31.847"/>
          <polygon class="cls-1" points="17.296 29.101 18.469 29.711 19.789 30.118 20.757 30.575 21.367 30.168 22.182 29.965 22.893 29.965 23.504 30.118 22.284 30.321 22.029 30.779 22.384 31.085 24.268 31.948 24.303 31.981 24.165 32.051 21.877 31.593 19.637 31.288 18.823 30.524 16.84 29.862 16.789 29.505 16.683 29.547 16.739 29.303 16.739 28.592 17.296 29.101"/>
          <polygon class="cls-4" points="23.911 9.921 22.995 9.515 21.47 8.344 19.637 6.97 17.907 5.699 17.603 4.426 17.704 3.969 19.741 5.545 22.029 6.716 22.995 8.242 23.911 9.921"/>
          <polygon class="cls-1" points="22.08 14.244 23.25 12.82 23.657 11.751 23.615 11.649 23.615 11.649 23.402 11.142 22.288 10.104 23.3 10.073 24.382 11.307 23.975 14.513 23.707 15.617 24.47 17.45 25.03 18.619 25.793 19.333 26.708 19.942 27.727 20.554 27.676 20.909 25.946 20.095 24.572 18.722 22.945 16.839 22.435 15.974 21.837 14.216 22.08 14.244"/>
          <polygon class="cls-1" points="26.405 9.586 25.641 10.53 25.285 11.447 25.131 10.735 25.03 9.819 25.48 8.67 25.946 9.259 26.405 9.586"/>
          <polygon class="cls-5" points="24.484 7.415 23.657 6.817 20.795 5.102 19.384 4.375 17.743 3.65 17.094 3.668 17.601 3.052 18.112 3.307 20.656 4.426 23.809 6.563 24.484 7.415"/>
          <path class="cls-5" d="M23.7041,29.8604l.4106.0537.814.9658.1518.7129-.1899.0947c-.2173-.3037-.5727-.7568-.5727-.7568l-.6612-.4062Z"/>
          <polygon class="cls-5" points="6.906 14.144 6.596 14.03 7.936 13.584 12.565 12.567 19.332 14.093 19.978 14.093 18.849 14.564 17.169 14.144 13.622 13.495 9.08 14.067 6.906 14.144"/>
          <polygon class="cls-5" points="26.97 9.992 28.439 11.04 29.761 12.718 31.491 16.89 31.941 17.79 31.631 17.73 31.058 16.853 30.257 14.448 29.114 13.189 28.091 12.969 26.995 12.599 27.403 11.489 27.319 10.862 26.97 9.992"/>
          <polygon class="cls-1" points="29.38 15.44 29.151 15.593 28.731 15.136 28.045 14.906 27.474 14.371 27.319 13.836 27.014 13.189 27.664 12.96 28.273 13.151 28.846 13.722 29.037 14.371 29.189 14.981 29.38 15.44"/>
          <polygon class="cls-4" points="28.769 14.678 28.617 14.104 28.426 13.685 27.893 13.495 27.664 13.722 27.664 14.104 28.121 14.258 28.769 14.678"/>
          <polygon class="cls-1" points="27.964 13.591 28.364 13.742 28.44 13.934 28.387 14.157 28.217 14.214 27.882 14.12 27.739 13.913 27.739 13.751 27.964 13.591"/>
          <polygon class="cls-6" points="28.016 13.771 28.198 13.81 28.207 13.952 28.073 13.991 27.958 13.942 27.931 13.827 28.016 13.771"/>
        </g>
        <polygon class="cls-1" points="30.238 19.599 30.372 19.809 30.201 19.942 29.971 19.828 29.991 19.542 30.238 19.599"/>
        <polygon class="cls-1" points="29.761 19.886 29.8 20.114 29.647 20.229 29.494 20.095 29.475 19.903 29.761 19.886"/>
        <polygon class="cls-1" points="29.819 19.314 29.761 19.466 29.533 19.428 29.533 19.218 29.742 19.084 29.819 19.314"/>
        <polygon class="cls-1" points="29.265 19.562 29.304 19.638 29.189 19.733 29.13 19.599 29.169 19.466 29.265 19.562"/>
        <polygon class="cls-1" points="30.22 19.14 30.201 19.275 30.104 19.294 30.029 19.161 30.029 19.046 30.143 19.009 30.22 19.14"/>
        <polygon class="cls-1" points="29.265 18.893 29.304 19.104 29.151 19.124 29.037 18.969 29.037 18.874 29.265 18.893"/>
      </g>
    </g>
  </g>
</svg>
