<svg xmlns="http://www.w3.org/2000/svg" width="126.7583" height="98.40378" viewBox="0 0 126.7583 98.40378">
  <defs>
    <style>
      .cls-1 {
        fill: #aa8984;
      }

      .cls-2 {
        fill: #6d5b5d;
      }

      .cls-3 {
        fill: #5e4d4f;
      }

      .cls-4 {
        fill: #47383b;
      }

      .cls-5 {
        fill: #f9d9b9;
      }

      .cls-6 {
        fill: #d8a97c;
      }
    </style>
  </defs>
  <g id="图层_2" data-name="图层 2">
    <g id="Layer_1" data-name="Layer 1">
      <g>
        <polygon class="cls-1" points="34.927 54.647 34.142 64.066 32.866 75.741 31.886 85.258 29.532 90.162 29.727 93.106 34.338 93.694 42.384 93.5 43.07 89.966 38.753 61.808 40.813 50.968 34.927 54.647"/>
        <polygon class="cls-2" points="103.408 71.523 100.857 74.759 98.993 82.117 98.894 86.336 100.66 92.517 100.465 94.087 89.574 94.479 85.356 93.792 84.473 91.535 85.454 89.281 86.63 85.356 87.71 75.348 88.593 62.398 96.245 62.301 103.408 71.523"/>
        <polygon class="cls-2" points="18.836 12.804 19.573 10.89 21.485 9.027 23.743 7.26 37.232 3.975 40.619 3.238 46.209 5.739 52.685 9.86 63.722 13.981 69.314 14.128 85.356 12.215 96.833 11.921 107.872 17.66 116.408 24.871 123.471 33.849 124.649 47.975 125.237 64.164 125.237 67.695 124.206 67.843 123.471 60.19 121.999 42.089 121.558 43.413 118.761 53.126 118.321 59.013 119.35 69.607 117.732 74.023 116.408 76.378 116.847 82.707 118.174 91.242 119.938 94.627 119.497 96.687 115.23 97.864 105.37 98.158 103.309 97.864 102.72 95.805 105.222 93.303 106.548 90.064 105.958 82.412 102.426 72.699 97.57 67.253 94.185 64.164 90.359 64.9 75.789 66.372 64.459 63.869 51.066 58.572 49.889 63.134 49.743 67.253 48.711 75.79 49.448 88.004 50.919 92.272 51.215 97.228 39.833 98.404 35.026 97.815 34.535 94.087 35.566 91.292 36.449 90.849 37.527 89.034 38.263 85.651 36.938 69.315 33.848 51.507 32.08 42.825 30.168 36.35 28.403 37.086 24.576 40.323 22.516 40.765 18.836 40.176 17.365 44.885 16.777 50.331 16.63 56.217 18.984 59.454 21.192 59.16 22.076 55.187 20.897 54.598 19.721 56.658 20.015 57.688 19.279 57.983 17.219 54.745 17.071 51.948 19.426 51.948 22.663 51.655 25.313 55.187 25.754 60.042 23.398 64.457 16.777 65.929 11.773 59.749 10.155 52.097 11.332 41.5 13.392 31.492 15.599 24.871 16.334 18.544 17.513 14.863 18.836 12.804"/>
        <polygon class="cls-2" points="125.58 67.304 123.618 67.501 123.031 72.404 124.01 76.723 123.52 79.272 122.636 80.351 125.089 78.684 126.462 75.544 126.758 70.149 125.58 67.304"/>
        <polygon class="cls-3" points="30.168 36.35 28.403 37.086 24.576 40.323 22.516 40.765 20.109 40.379 19.868 37.233 20.897 36.645 22.076 37.086 22.809 38.999 23.988 38.557 27.962 35.909 30.61 33.407 34.142 32.228 35.173 34.143 32.375 35.614 33.555 39.146 34.878 46.356 35.909 54.745 34.756 56.742 33.848 51.507 32.08 42.825 30.168 36.35"/>
        <polygon class="cls-3" points="52.243 12.215 54.156 15.011 55.481 19.573 54.893 22.516 50.919 29.286 49.594 33.849 50.919 37.233 61.22 43.12 74.465 47.975 83.296 48.271 100.807 39.44 104.193 39.44 109.196 39.44 111.55 33.261 109.343 23.988 105.736 16.551 107.872 17.66 116.408 24.871 123.471 33.849 124.649 47.975 125.237 64.164 125.237 67.695 124.206 67.843 123.471 60.19 121.999 42.089 121.558 43.413 118.761 53.126 118.321 59.013 119.35 69.607 117.732 74.023 116.408 76.378 116.847 82.707 118.174 91.242 119.938 94.627 119.497 96.687 115.23 97.864 105.37 98.158 103.309 97.864 102.72 95.805 105.222 93.303 106.548 90.064 105.958 82.412 102.426 72.699 97.57 67.253 94.185 64.164 90.359 64.9 75.789 66.372 64.459 63.869 51.066 58.572 49.889 63.134 49.743 67.253 48.711 75.79 49.448 88.004 50.919 92.272 51.215 97.228 41.184 98.264 41.5 94.479 43.708 91.535 44.738 88.151 43.854 80.793 42.089 70.935 44.15 62.691 42.973 55.629 41.648 51.802 39.292 44.296 36.203 41.795 35.909 37.673 44.884 17.219 52.243 12.215"/>
        <path class="cls-4" d="M113.4799,97.916l-.7529-1.6714.7363-3.3842-2.7959-.7364-.4423-1.3237.2949-4.2671.5889-6.77.1464-5.1509,2.208-3.2373.1465-6.4746s1.1787-9.2715,1.1787-9.7129c0-.4429,2.501-8.9775,2.501-8.9775l2.7959-6.3286,1.7666-4.7085.2959,5.1499-.1562,1.7846-.4336,1.3057-2.7969,9.7129-.4404,5.8872,1.0293,10.5938-1.6182,4.416-1.3242,2.3554.4394,6.3282,1.3272,8.5351,1.7637,3.3858-.4405,2.0595-4.2676,1.1773Z"/>
        <polygon class="cls-4" points="51.066 58.572 50.783 59.666 51.215 56.658 52.685 50.772 54.009 50.331 54.303 52.243 54.745 54.598 57.248 55.923 65.929 58.425 78.881 60.19 87.268 57.983 91.536 55.482 95.363 52.979 97.865 49.743 100.66 46.356 101.691 46.799 99.041 51.36 96.833 58.425 95.509 61.808 95.509 65.372 94.185 64.164 90.359 64.9 75.789 66.372 64.459 63.869 51.066 58.572"/>
        <polygon class="cls-3" points="15.205 49.447 16.285 42.481 18.542 39.342 20.701 38.951 20.838 40.496 18.836 40.176 17.365 44.885 16.777 50.331 16.63 56.217 18.984 59.454 21.192 59.16 22.076 55.187 20.897 54.598 19.721 56.658 20.015 57.688 19.279 57.983 17.219 54.745 17.071 51.948 19.426 51.948 21.518 51.759 21.683 53.077 22.858 54.059 22.762 56.315 22.762 59.749 21.093 61.418 18.542 61.418 16.875 59.65 15.599 56.02 15.205 49.447"/>
        <polygon class="cls-4" points="19.033 56.119 19.72 54.551 18.149 52.979 18.052 54.157 19.033 56.119"/>
        <polygon class="cls-1" points="56.511 15.796 48.467 10.302 48.305 7.072 52.685 9.86 63.722 13.981 69.314 14.128 85.356 12.215 96.833 11.921 100.975 14.073 97.129 13.834 88.495 15.011 77.113 18.544 66.126 17.954 56.511 15.796"/>
        <polygon class="cls-1" points="13.392 31.492 15.599 24.871 16.334 18.544 17.513 14.863 18.836 12.804 19.573 10.89 21.485 9.027 23.743 7.26 37.232 3.975 40.619 3.238 40.912 3.369 36.694 5.103 30.217 7.162 23.153 9.321 21.192 11.284 19.621 13.637 17.66 17.17 16.68 21.682 16.68 25.41 14.324 31.885 13.342 35.614 12.162 37.47 13.392 31.492"/>
        <path class="cls-2" d="M18.8364,20.11378l.7856-2.1597,1.2754-.98,3.1402.2935,2.2558,2.7485-.0981,2.2554a21.3906,21.3906,0,0,0-2.5503,2.0601c-.0986.2949-2.354.5879-2.6485.5879a14.64514,14.64514,0,0,1-2.1601-1.0796Z"/>
        <polygon class="cls-4" points="23.645 19.916 24.137 21.486 22.368 21.879 20.309 22.174 20.309 20.899 21.094 19.523 23.645 19.916"/>
        <path class="cls-1" d="M19.5254,19.71968l-.2774-.7358.374-1.0298,1.2754-.98,3.1402.2935,2.2558,2.7485-.0981,2.2554s-.0288.022-.0718.0518l-.2217-.4444-1.6689-.98-2.9419-.4926Z"/>
        <path class="cls-3" d="M18.8701,23.85988l1.2431.1772,2.7471-.2934,1.6812-.23a4.44978,4.44978,0,0,0-.8965.8179c-.0986.2949-2.354.5879-2.6485.5879A13.67513,13.67513,0,0,1,18.8701,23.85988Z"/>
        <polygon class="cls-3" points="35.481 97.871 35.809 94.579 36.398 93.597 36.987 94.282 36.791 96.146 36.791 98.032 35.481 97.871"/>
        <polygon class="cls-1" points="39.833 98.404 37.756 98.149 37.576 95.363 38.655 94.479 39.735 94.775 40.856 98.298 39.833 98.404"/>
        <polygon class="cls-2" points="106.449 94.969 107.462 98.097 105.37 98.158 103.976 97.959 103.898 96.734 105.174 94.969 106.449 94.969"/>
        <polygon class="cls-2" points="108.329 98.071 108.411 95.951 109.392 95.067 110.864 96.146 110.986 97.991 108.329 98.071"/>
        <polygon class="cls-3" points="88.397 90.556 89.182 93.106 89.182 94.415 85.509 93.817 85.356 92.124 86.925 89.968 88.397 90.556"/>
        <polygon class="cls-2" points="36.694 5.103 39.344 4.219 42.089 2.062 43.953 0 47.387 2.158 51.802 7.654 53.665 17.17 52.489 20.211 44.935 31.984 40.619 38.459 39.932 40.225 37.086 40.52 34.732 36.987 32.573 30.609 34.142 23.939 34.24 19.329 32.671 16.385 31.101 16.188 32.964 11.186 35.026 8.34 36.694 5.103"/>
        <polygon class="cls-1" points="32.964 11.186 35.026 8.34 36.694 5.103 39.344 4.219 40.176 3.564 41.648 4.269 45.474 7.506 49.154 13.981 44.297 27.226 40.323 31.787 37.086 32.228 35.173 29.579 33.44 26.925 34.142 23.939 34.24 19.329 32.671 16.385 31.101 16.188 32.964 11.186"/>
        <polygon class="cls-5" points="20.603 37.381 21.339 37.968 22.076 39.586 21.487 40.617 19.426 41.795 14.422 43.708 6.623 44.885 1.472 44.59 0 43.56 0 42.53 1.913 43.12 7.505 42.384 13.539 40.912 18.102 39.146 20.603 37.381"/>
        <polygon class="cls-6" points="0 43.56 0 43.48 1.251 43.781 7.137 43.781 13.686 42.75 20.088 40.028 21.556 38.446 22.076 39.586 21.487 40.617 19.426 41.795 14.422 43.708 6.623 44.885 1.472 44.59 0 43.56"/>
      </g>
    </g>
  </g>
</svg>
