<svg xmlns="http://www.w3.org/2000/svg" width="88.751" height="71.1465" viewBox="0 0 88.751 71.1465">
  <defs>
    <style>
      .cls-1 {
        fill: #d1976b;
      }

      .cls-2 {
        fill: #e5c2aa;
      }

      .cls-3 {
        fill: #172b2a;
      }

      .cls-4 {
        fill: #d8a97c;
      }

      .cls-5 {
        fill: #f9d9b9;
      }

      .cls-6 {
        fill: #261c1b;
      }

      .cls-7 {
        fill: #6d5652;
      }
    </style>
  </defs>
  <g id="图层_2" data-name="图层 2">
    <g id="Layer_1" data-name="Layer 1">
      <g>
        <polygon class="cls-1" points="62.296 41.442 65.098 45.324 67.986 48.484 69.883 49.839 71.508 51.734 71.958 55.257 70.424 61.486 69.792 64.014 67.444 65.008 66.361 67.084 66.27 67.806 68.527 67.986 70.785 67.806 71.508 65.91 71.508 65.368 72.951 64.645 73.312 62.749 73.583 58.597 74.758 54.173 73.222 40.178 63.291 37.288 62.296 41.442"/>
        <polygon class="cls-1" points="30.336 36.477 31.388 42.917 32.201 47.476 31.841 49.733 32.683 52.187 33.405 52.999 34.128 58.055 34.399 61.937 34.218 63.563 32.593 65.188 31.871 65.91 31.599 66.993 33.314 67.626 36.656 67.264 37.56 61.035 37.378 46.137 35.392 38.102 30.336 36.477"/>
        <polygon class="cls-2" points="1.896 21.398 0 19.502 0.179 17.697 3.519 12.64 4.514 11.106 5.145 9.842 6.228 7.584 6.681 6.771 10.472 3.974 15.979 3.611 23.834 7.043 33.134 12.55 36.837 14.267 40.357 15.35 42.976 16.793 51.734 18.148 64.103 17.787 70.514 16.793 75.299 18.871 81.259 24.016 83.153 30.157 83.695 36.295 83.424 44.783 84.688 50.832 83.966 51.284 82.884 46.137 82.069 41.171 82.069 36.115 80.082 41.081 77.828 44.513 77.646 49.297 79 52.907 79.724 54.083 79.452 55.527 77.646 64.014 77.194 67.446 76.021 67.986 75.569 69.251 75.21 70.424 72.681 71.146 70.603 70.515 71.236 68.619 72.5 67.626 73.133 66.722 74.758 62.48 74.666 56.431 73.403 53.36 71.778 47.401 70.151 43.158 68.257 41.442 66.723 41.352 64.645 42.164 63.019 42.887 53.539 43.519 47.221 42.706 42.164 40.269 40.629 40.539 39.996 41.623 39.364 46.318 39.364 52.457 38.913 53.36 39.185 62.569 39.816 65.73 38.913 66.362 38.01 67.806 37.921 69.522 35.03 70.424 33.405 70.244 33.496 68.71 34.669 67.446 35.844 66.362 36.205 63.563 36.294 59.501 35.752 53.27 34.581 51.284 34.85 48.844 34.128 44.422 32.955 40.99 30.517 39.366 29.163 37.379 27.086 32.324 23.024 30.247 19.592 25.822 15.979 19.502 14.354 16.072 12.277 18.328 9.208 19.502 7.314 20.135 6.228 21.218 5.777 21.94 4.332 22.662 3.519 22.933 2.888 21.94 1.896 21.398"/>
        <polygon class="cls-3" points="85.23 50.291 83.695 51.013 83.243 52.999 84.327 56.431 85.953 58.688 87.85 59.861 88.751 59.501 87.759 58.688 86.585 56.701 86.403 54.353 86.135 51.554 85.23 50.291"/>
        <polygon class="cls-4" points="68.798 41.262 67.354 40.359 65.818 39.005 65.187 34.851 65.006 32.324 61.305 33.497 54.623 35.304 46.859 34.761 44.962 34.49 43.157 34.851 41.893 35.213 40.511 34.885 40.178 37.288 39.185 39.907 38.371 40.811 36.476 40.539 35.663 37.74 35.598 33.839 34.309 33.586 31.961 29.795 30.063 27.628 26.093 26.094 19.683 20.586 15.317 15.2 14.471 16.315 15.979 19.502 19.592 25.822 23.024 30.247 27.086 32.324 29.163 37.379 30.517 39.366 32.955 40.99 33.036 41.227 33.496 41.352 37.018 42.164 38.01 43.88 37.831 50.471 37.018 53.088 37.74 59.952 38.28 64.827 37.56 67.084 38.06 67.726 38.913 66.362 39.816 65.73 39.185 62.569 38.913 53.36 39.364 52.457 39.364 46.318 39.996 41.623 40.629 40.539 42.164 40.269 47.221 42.706 53.539 43.519 63.019 42.887 64.645 42.164 66.723 41.352 68.257 41.442 68.858 41.987 68.798 41.262"/>
        <polygon class="cls-5" points="75.299 18.871 70.514 16.793 64.103 17.787 51.734 18.148 42.976 16.793 40.357 15.35 36.837 14.267 33.134 12.55 23.834 7.043 16.823 3.981 17.125 4.967 20.916 6.833 25.43 9.541 29.282 12.731 33.615 14.658 35.783 16.102 39.395 17.365 42.283 18.811 47.34 19.834 55.585 20.194 60.52 20.075 65.818 19.413 69.49 18.931 73.885 19.712 77.375 22.362 80.204 24.951 81.99 26.387 81.259 24.016 75.299 18.871"/>
        <polygon class="cls-4" points="12.068 15.801 9.902 17.486 7.133 18.931 5.327 20.736 2.859 21.923 2.888 21.94 3.519 22.933 4.332 22.662 5.777 21.94 6.228 21.218 7.314 20.135 9.208 19.502 12.277 18.328 13.912 16.554 13.913 16.515 13.994 13.514 13.15 13.514 12.068 15.801"/>
        <polygon class="cls-4" points="82.932 29.441 82.693 28.664 82.522 29.795 80.717 36.115 76.923 42.526 76.382 46.047 76.923 51.193 78.639 54.714 77.557 60.673 76.563 66.813 75.569 67.716 76.262 67.876 77.194 67.446 77.646 64.014 79.452 55.527 79.724 54.083 79 52.907 77.646 49.297 77.828 44.513 80.082 41.081 81.907 36.524 82.884 32.684 82.932 29.441"/>
        <polygon class="cls-4" points="75.751 58.055 75.66 54.714 74.305 51.464 73.673 45.595 71.598 41.442 69.249 37.831 68.166 34.219 67.895 32.143 67.173 32.414 67.534 36.115 68.708 39.005 69.701 41.623 69.701 42.749 70.151 43.158 71.778 47.401 73.403 53.36 74.666 56.431 74.755 62.32 75.21 62.027 75.751 58.055"/>
        <polygon class="cls-4" points="11.917 5.237 13.994 4.876 19.481 5.141 15.979 3.611 10.472 3.974 6.681 6.771 6.228 7.584 5.145 9.842 4.514 11.106 3.519 12.64 0.179 17.697 0 19.502 0.128 19.631 3.251 14.988 5.867 11.828 7.402 11.196 9.117 10.654 10.021 9.481 9.299 7.675 9.84 6.682 11.917 5.237"/>
        <polygon class="cls-3" points="38.975 32.113 38.432 33.979 37.529 36.326 36.988 36.989 37.47 37.169 38.432 36.146 38.793 35.363 40.778 35.604 41.743 36.747 41.982 36.326 41.079 35.061 39.877 34.4 39.757 33.196 39.816 31.51 39.937 28.681 39.455 28.681 38.975 32.113"/>
        <polygon class="cls-3" points="35.062 44.933 36.506 44.752 38.071 45.113 38.793 45.475 38.853 46.018 37.77 45.536 35.663 45.475 35.001 45.655 35.062 44.933"/>
        <polygon class="cls-3" points="36.144 51.194 38.132 50.953 38.793 51.253 38.793 51.615 37.831 51.494 35.905 51.675 36.144 51.194"/>
        <polygon class="cls-3" points="36.266 52.939 37.47 52.999 38.612 52.999 38.612 53.481 36.928 53.481 36.205 53.24 36.266 52.939"/>
        <polygon class="cls-3" points="36.745 55.106 37.709 54.925 38.432 54.625 38.432 54.925 37.529 55.347 36.745 55.468 36.745 55.106"/>
        <polygon class="cls-3" points="36.685 56.67 37.589 56.611 38.132 56.371 38.132 56.791 36.745 56.972 36.685 56.67"/>
        <path class="cls-3" d="M71.0566,43.6694l.6612-.9624,2.2275-.9634s2.0459-.3608,2.2861-.3608c.2412,0,2.3477-.6035,2.3477-.6035l1.3848-.4204-.3018.6621-2.1055,1.144-2.3466.4214-2.709.9624-.9034.7227Z"/>
        <path class="cls-3" d="M71.8994,45.6553l1.6836-.2403s1.5654-.8432,1.7471-.9634c.1797-.1201,1.3838-.7221,1.3838-.7221l.96281-.3613-.42091.6625-2.288,1.4444-.9034.8432-1.2636-.06-.8428-.1211Z"/>
        <polygon class="cls-3" points="75.51 55.468 76.414 55.648 77.796 55.347 79.062 54.686 78.939 55.287 78.038 55.949 76.231 56.31 75.631 56.129 75.51 55.468"/>
        <polygon class="cls-3" points="75.51 58.417 76.533 58.176 77.857 57.754 78.7 57.272 78.218 58.116 76.654 58.598 75.268 58.959 75.51 58.417"/>
        <polygon class="cls-3" points="2.799 16.703 4.123 15.2 5.749 13.635 6.471 12.792 7.071 12.008 8.155 12.008 10.141 12.55 11.226 11.888 11.888 10.564 11.767 9.842 12.009 9.239 12.609 8.036 13.212 7.676 13.573 8.217 12.609 8.94 12.128 9.782 12.248 10.745 12.009 11.526 11.284 12.31 10.504 12.67 8.878 12.611 7.675 12.55 6.651 13.152 4.966 14.718 2.92 16.945 2.799 16.703"/>
        <polygon class="cls-3" points="6.771 20.135 5.867 18.931 6.049 17.546 4.784 16.89 4.423 16.703 1.836 16.343 1.56 15.608 0.179 17.697 0 19.502 1.896 21.398 2.888 21.94 3.519 22.933 4.332 22.662 5.777 21.94 6.228 21.218 7.095 20.352 6.771 20.135"/>
        <polygon class="cls-3" points="5.145 9.842 4.514 11.106 3.519 12.64 1.382 15.876 1.534 16.102 3.401 13.635 4.846 11.286 5.99 9.842 6.169 8.699 6.169 7.709 5.145 9.842"/>
        <polygon class="cls-3" points="7.133 7.073 7.614 8.818 7.133 9.962 5.867 11.167 4.725 12.55 3.52 14.115 2.438 15.499 1.594 16.402 1.896 16.583 3.822 14.658 5.145 13.092 6.35 11.828 7.192 11.167 8.035 10.564 8.276 9.179 7.975 7.495 7.306 6.31 6.912 6.601 7.133 7.073"/>
        <polygon class="cls-3" points="9.601 7.917 9.179 6.411 8.517 5.568 8.41 5.496 7.941 5.841 8.397 6.23 8.878 7.676 9.117 9.12 9.601 9.239 9.601 7.917"/>
        <polygon class="cls-3" points="9.8 4.47 9.282 4.851 9.78 5.267 10.202 6.351 10.141 7.855 10.082 8.518 10.384 8.699 10.623 7.374 10.623 5.93 10.141 4.725 9.8 4.47"/>
        <polygon class="cls-3" points="11.827 4.845 11.647 6.532 11.226 7.976 11.165 8.577 11.466 9.12 11.948 7.917 12.248 6.47 12.248 5.628 12.128 4.484 11.915 3.877 11.538 3.903 11.827 4.845"/>
        <polygon class="cls-3" points="6.59 16.524 5.267 17.486 5.567 17.606 6.29 17.005 7.012 17.005 7.793 17.425 8.155 18.269 7.854 19.774 7.638 20.026 8.058 19.886 8.276 19.653 8.638 18.569 8.456 17.124 6.59 16.524"/>
        <polygon class="cls-3" points="9.601 15.861 8.035 15.499 5.867 16.162 4.543 17.186 4.784 17.306 6.049 16.343 7.071 16.102 8.276 16.102 9.117 16.402 10.082 17.365 9.902 18.569 9.578 19.362 10.298 19.086 10.623 18.569 10.805 17.246 10.562 16.343 9.601 15.861"/>
        <polygon class="cls-3" points="11.226 13.514 9.722 13.152 7.793 13.694 5.627 15.2 3.822 16.945 4.183 17.124 5.086 16.102 6.29 15.139 8.096 14.177 9.54 13.874 10.623 14.055 11.647 15.018 11.827 16.764 11.452 18.645 12.277 18.328 12.398 18.2 12.609 17.065 12.609 16.222 12.368 14.777 11.226 13.514"/>
        <polygon class="cls-3" points="15.017 8.879 13.573 11.227 12.971 13.514 13.212 15.44 13.342 17.173 13.883 16.584 13.754 15.2 13.813 13.212 14.114 12.068 14.717 10.383 15.438 8.638 15.86 7.374 15.499 7.434 15.017 8.879"/>
        <polygon class="cls-3" points="18.395 4.667 17.847 6.712 16.823 8.336 16.041 10.686 15.379 13.754 14.656 15.801 14.469 16.31 14.681 16.756 15.138 15.801 16.162 12.67 16.703 10.023 17.966 7.976 18.688 6.532 18.959 4.913 18.395 4.667"/>
        <polygon class="cls-3" points="21.02 5.813 19.773 5.268 19.531 6.954 18.208 9.421 18.028 12.068 17.365 14.718 15.266 17.995 15.549 18.588 16.522 17.727 18.147 14.898 18.991 10.986 19.712 8.638 21.02 5.813"/>
        <polygon class="cls-3" points="22.026 6.253 21.699 7.795 20.374 9.842 19.592 13.514 18.93 17.787 16.983 21.258 18.011 23.057 19.17 21.82 20.435 17.546 20.977 11.407 21.76 9.3 22.481 7.314 22.652 6.526 22.026 6.253"/>
        <polygon class="cls-3" points="25.379 7.957 25.008 9.481 23.986 11.768 23.385 14.416 23.203 17.005 21.699 21.338 20.616 23.084 18.951 24.7 19.592 25.822 19.921 26.247 21.037 25.673 23.024 22.602 23.926 17.727 24.527 12.31 25.91 8.271 25.379 7.957"/>
        <polygon class="cls-3" points="30.067 21.58 31.751 17.668 33.195 13.514 33.451 12.698 33.134 12.55 32.801 12.352 32.172 13.996 30.606 17.787 28.92 20.856 28.018 22.181 27.599 21.88 28.682 18.51 29.643 12.431 29.808 10.578 28.879 10.03 28.5 12.972 27.537 17.246 25.611 22.241 24.045 25.312 22.904 27.358 22.778 29.932 23.024 30.247 25.192 31.355 25.611 29.164 27.117 25.913 30.067 21.58"/>
        <polygon class="cls-3" points="29.224 32.714 31.089 29.223 33.136 22.001 34.581 17.186 35.539 13.664 34.889 13.363 33.858 16.162 31.631 23.206 30.667 26.094 29.824 28.922 28.44 31.631 27.152 32.488 27.645 33.686 29.224 32.714"/>
        <path class="cls-3" d="M38.8916,14.8984l-1.3057-.4013-1.1406,4.0722-.9619,4.9361-1.084,4.6352-.6035,3.8511-1.3838,1.5664a17.72333,17.72333,0,0,1-1.5039,1.4438c-.1318.044-1.5811.6021-2.35349.8995l.60839,1.4775.914,1.3428,1.3125-1.3125,1.8653-2.2867,1.6259-3.0092.8428-6.0196.961-5.1772,1.2656-3.4917Z"/>
        <polygon class="cls-3" points="41.334 15.888 40.862 15.627 39.997 17.126 39.275 19.352 38.853 24.469 38.371 27.116 36.745 31.15 35.542 35.002 33.676 39.034 32.268 40.533 32.647 40.786 33.918 39.518 34.701 38.253 35.844 36.93 36.565 34.4 37.287 31.571 38.432 28.682 39.636 25.732 39.877 21.459 40.72 17.306 41.334 15.888"/>
        <polygon class="cls-3" points="42.525 19.593 43.34 16.849 42.976 16.793 42.44 16.499 41.982 19.111 40.658 24.047 40.72 27.719 41.201 31.029 42.465 34.941 43.309 37.59 43.061 40.701 43.412 40.871 43.909 37.289 42.825 33.858 41.44 26.997 41.684 23.445 42.525 19.593"/>
        <polygon class="cls-3" points="44.37 17.009 43.728 18.931 43.487 23.385 43.971 27.058 44.812 31.51 45.957 35.424 45.895 38.372 45.239 41.752 45.862 42.052 46.798 37.892 46.619 34.4 45.655 30.427 44.752 25.191 44.57 20.496 45.82 17.233 44.37 17.009"/>
        <polygon class="cls-3" points="48.062 23.084 47.461 19.774 47.846 17.546 47.111 17.434 46.379 20.616 47.279 26.274 49.448 32.173 49.929 35.724 49.627 39.396 48.514 42.872 49.871 43.047 50.83 41.623 51.854 37.169 52.155 33.016 50.17 28.441 48.062 23.084"/>
        <path class="cls-3" d="M56.0664,21.8198l.8447-1.8657,1.5567-2.0025-.9659.0279-.53019.5898L55.708,21.0981l-.7842,2.5274-.9629,2.2876-1.1435-2.2876-.6016-3.0093-.0859-2.479-.3955.0112-2.669-.4121.1397,2.458,1.9277,4.5742,1.625,3.5518,1.6846,3.1304.6631,4.0927v2.2271l-.2413,3.3115-.5966,2.3892,1.7978-.1206c.4512-1.0059.9912-2.2246,1.0254-2.3296.0606-.1812.42191-4.3345.42191-4.3345l-.96291-5.3559-1.8076-3.5513.4228-1.8062Z"/>
        <polygon class="cls-3" points="40.404 40.925 39.757 40.359 38.612 39.878 36.506 39.757 34.519 41.143 33.977 41.684 34.339 42.226 35.001 41.623 36.626 41.021 38.071 40.781 39.636 41.021 40.124 41.403 40.404 40.925"/>
        <polygon class="cls-3" points="39.275 43.73 38.191 42.948 36.807 42.527 34.82 43.007 34.762 43.489 36.325 43.187 37.831 43.368 38.913 44.151 39.6 44.571 39.664 44.084 39.275 43.73"/>
        <polygon class="cls-3" points="37.589 47.1 36.565 47.041 35.362 47.341 35.483 48.063 35.784 47.764 36.988 47.643 38.672 47.643 39.364 47.643 39.364 47.151 39.275 47.16 37.589 47.1"/>
        <polygon class="cls-3" points="39.364 49.843 39.364 49.195 38.311 48.966 36.685 49.026 35.362 49.569 35.724 50.411 36.928 49.87 38.672 49.689 39.364 49.843"/>
        <polygon class="cls-3" points="66.119 20.255 68.349 18.328 70.749 16.896 70.514 16.793 65.93 17.504 63.832 18.991 61.786 22.363 60.823 27.658 60.28 32.534 59.799 36.686 59.437 39.817 58.185 43.209 59.285 43.135 60.222 40.72 61.062 36.868 62.208 28.441 64.014 23.806 66.119 20.255"/>
        <polygon class="cls-3" points="76.843 20.204 75.299 18.871 74.492 18.52 71.537 19.171 68.406 21.941 66.24 25.371 64.675 29.886 63.893 32.895 63.351 35.845 62.689 38.734 61.725 41.141 60.833 43.032 61.877 42.963 64.014 39.275 65.518 33.497 67.504 27.297 70.153 23.626 72.439 20.917 75.689 20.315 76.843 20.204"/>
        <path class="cls-3" d="M80.0478,22.9726l-1.4072,1.0747L74.2441,25.792l-2.7675,1.686-2.1075,2.2871-2.4072,5.7783s-1.7441,3.3111-1.8643,3.4903c-.081.1206-.9306,2.2065-1.4931,3.5932l1.041-.4624.07621-.0312.55659-1.2334,2.1055-3.731,2.0478-4.5151,1.9248-2.8887,3.1914-1.9858s3.67-1.4448,3.9102-1.4448a19.72212,19.72212,0,0,0,2.2891-1.2041l.7119-.4595-.2002-.6548Z"/>
        <path class="cls-3" d="M82.2666,27.2861,80.5674,28.501l-3.55369,2.167L74.2441,31.8115,72.3799,32.957l-1.9268,1.7451-1.8652,3.73-.9903,2.9712.5596.0327,1.874-3.9062,1.8682-2.7686s3.249-1.6245,3.4307-1.6846c.1797-.061,3.43061-1.2651,3.43061-1.2651l3.251-1.0229,1.05659-.9107Z"/>
        <path class="cls-3" d="M82.206,35.2876s-1.8808,1.1587-2.0625,1.2798c-.1796.1191-2.3457.6621-2.3457.6621l-2.4082.3003-2.9502.7231L70.332,40.1782l-.959,2.2749.3575.3218.1211-.3692,1.205-1.5659,1.7442-1.0229,3.5508-.8423,3.914-.4814,1.1934-.8487.6103-1.5293Z"/>
        <polygon class="cls-3" points="76.712 47.823 77.738 46.867 77.762 46.256 76.592 47.16 75.39 48.063 73.945 48.365 72.318 48.124 72.681 48.726 73.885 49.026 75.39 48.966 76.712 47.823"/>
        <polygon class="cls-3" points="77.655 49.048 77.677 48.502 76.533 49.507 75.33 50.171 73.704 50.171 73.825 50.712 74.548 50.833 76.712 49.99 77.655 49.048"/>
        <polygon class="cls-3" points="77.557 52.338 78.373 51.234 78.165 50.682 77.557 51.435 76.956 52.097 75.81 52.698 74.487 52.819 74.727 53.542 76.052 53.481 77.557 52.338"/>
        <polygon class="cls-3" points="60.247 17.899 59.259 19.533 58.656 22.903 58.115 26.094 57.994 28.381 57.272 30.307 57.513 31.451 58.536 29.404 59.317 26.213 60.101 21.459 61.485 18.629 62.181 17.843 60.247 17.899"/>
        <path class="cls-6" d="M55.2353,43.4053l.8301-.0547c.4512-1.0059.9912-2.2246,1.0254-2.3296.0606-.1812.42191-4.3345.42191-4.3345l-.37111-2.064-2.0928.5655.0567.3554v2.2271l-.2413,3.3115-.5966,2.3892Z"/>
        <g>
          <polygon class="cls-7" points="49.189 19.915 52.195 20.046 52.13 18.137 51.734 18.148 49.065 17.736 49.189 19.915"/>
          <polygon class="cls-7" points="57.502 17.98 56.972 18.569 56.166 20.181 56.815 20.165 56.911 19.954 58.468 17.952 57.502 17.98"/>
        </g>
        <polygon class="cls-7" points="62.181 17.843 60.247 17.899 59.259 19.533 59.155 20.108 60.52 20.075 60.796 20.04 61.485 18.629 62.181 17.843"/>
        <polygon class="cls-7" points="63.832 18.991 63.394 19.716 65.818 19.413 67.323 19.215 68.349 18.328 70.749 16.896 70.514 16.793 65.93 17.504 63.832 18.991"/>
        <polygon class="cls-6" points="61.305 33.497 60.133 33.814 59.799 36.686 59.437 39.817 58.185 43.209 59.102 43.148 59.285 43.135 60.222 40.72 61.062 36.868 61.53 33.424 61.305 33.497"/>
        <polygon class="cls-6" points="65.182 34.786 65.006 32.324 63.954 32.656 63.893 32.895 63.351 35.845 62.689 38.734 61.725 41.141 60.833 43.032 61.877 42.963 64.014 39.275 65.182 34.786"/>
        <polygon class="cls-7" points="71.537 19.171 71.422 19.275 73.885 19.712 74.876 20.466 75.689 20.315 76.843 20.204 75.299 18.871 74.492 18.52 71.537 19.171"/>
        <path class="cls-6" d="M65.2783,40.8999l.8916-1.584-.3516-.3105-.1542-1.0127c-.2901.5424-.52539.9804-.5665,1.041-.081.1206-.9306,2.2065-1.4931,3.5932l1.041-.4624.07621-.0312Z"/>
        <path class="cls-7" d="M78.956,23.8061l1.2481,1.1446.3594.2871c.11321-.0659.1836-.1074.1836-.1074l.7119-.4595-.2002-.6548-1.211-1.0435Z"/>
        <polygon class="cls-6" points="68.166 34.219 68.011 33.028 67.381 34.541 67.534 36.115 67.688 36.497 68.388 34.956 68.166 34.219"/>
        <polygon class="cls-6" points="69.114 37.38 68.588 38.432 68.537 38.584 68.708 39.005 68.98 39.721 69.617 38.396 69.249 37.831 69.114 37.38"/>
        <polygon class="cls-6" points="67.844 40.664 67.598 41.403 68.157 41.436 68.369 40.994 67.844 40.664"/>
        <polygon class="cls-6" points="49.825 34.968 49.929 35.724 49.627 39.396 48.514 42.872 49.137 42.952 49.871 43.047 50.83 41.623 51.854 37.169 52.004 35.12 49.825 34.968"/>
        <polygon class="cls-7" points="47.846 17.546 47.111 17.434 46.593 19.682 47.34 19.834 47.473 19.84 47.461 19.774 47.846 17.546"/>
        <polygon class="cls-6" points="45.239 41.752 45.862 42.052 46.798 37.892 46.635 34.729 45.714 34.598 45.957 35.424 45.895 38.372 45.239 41.752"/>
        <polygon class="cls-7" points="44.722 17.064 44.37 17.009 43.728 18.931 43.721 19.101 45.004 19.362 45.82 17.233 44.722 17.064"/>
        <polygon class="cls-6" points="43.909 37.289 43.141 34.856 42.495 35.039 43.309 37.59 43.061 40.701 43.164 40.751 43.412 40.871 43.909 37.289"/>
        <polygon class="cls-7" points="42.056 18.697 42.283 18.811 42.731 18.899 43.34 16.849 42.976 16.793 42.44 16.499 42.056 18.697"/>
        <polygon class="cls-7" points="39.997 17.126 39.846 17.592 40.587 17.961 40.72 17.306 41.334 15.888 40.862 15.627 39.997 17.126"/>
        <polygon class="cls-6" points="34.701 38.253 35.652 37.149 35.612 34.775 35.542 35.002 33.676 39.034 32.268 40.533 32.647 40.786 33.918 39.518 34.701 38.253"/>
        <polygon class="cls-7" points="38.137 16.925 38.892 14.898 37.876 14.586 37.586 14.497 37.016 16.534 38.137 16.925"/>
        <path class="cls-6" d="M33.2549,35.1225l.9326-1.7285-.6709-1.0859-1.1045,1.25a17.72333,17.72333,0,0,1-1.5039,1.4438c-.1318.044-1.5811.6021-2.35349.8995l.60839,1.4775.914,1.3428,1.3125-1.3125Z"/>
        <polygon class="cls-6" points="27.645 33.686 29.224 32.714 31.089 29.223 31.179 28.902 30.173 27.752 29.824 28.922 28.44 31.631 27.152 32.488 27.645 33.686"/>
        <polygon class="cls-7" points="35.539 13.664 35.506 13.648 34.889 13.363 34.256 15.084 35.016 15.589 35.539 13.664"/>
        <polygon class="cls-6" points="40.945 34.988 40.511 34.885 40.418 35.56 40.778 35.604 41.743 36.747 41.982 36.326 41.079 35.061 40.945 34.988"/>
        <polygon class="cls-6" points="40.236 41.212 40.404 40.925 39.757 40.359 39.048 40.061 38.371 40.811 36.476 40.539 36.291 39.906 34.519 41.143 34.157 41.504 34.934 41.684 35.001 41.623 36.626 41.021 38.071 40.781 39.636 41.021 40.124 41.403 40.236 41.212"/>
        <polygon class="cls-6" points="38.191 42.948 37.316 42.681 37.705 43.353 37.831 43.368 38.913 44.151 39.6 44.571 39.62 44.417 39.664 44.084 39.275 43.73 38.191 42.948"/>
        <polygon class="cls-6" points="38.071 45.113 37.977 45.093 37.963 45.622 38.853 46.018 38.793 45.475 38.071 45.113"/>
        <polygon class="cls-6" points="39.364 47.151 39.275 47.16 37.922 47.112 37.908 47.643 38.672 47.643 39.364 47.643 39.364 47.151"/>
        <polygon class="cls-6" points="39.364 49.195 38.311 48.966 37.871 48.982 37.849 49.773 38.672 49.689 39.364 49.843 39.364 49.195"/>
        <polygon class="cls-6" points="37.664 51.009 37.502 51.525 37.831 51.494 38.793 51.615 38.793 51.253 38.132 50.953 37.664 51.009"/>
        <polygon class="cls-6" points="37.052 52.979 37.018 53.088 37.06 53.481 38.612 53.481 38.612 52.999 37.47 52.999 37.052 52.979"/>
        <polygon class="cls-6" points="37.219 55.018 37.259 55.389 37.529 55.347 38.432 54.925 38.432 54.625 37.709 54.925 37.219 55.018"/>
        <polygon class="cls-6" points="38.132 56.791 38.132 56.371 37.589 56.611 37.391 56.624 37.416 56.884 38.132 56.791"/>
        <path class="cls-6" d="M82.17671,35.457l.02929-.1694s-.9619.5932-1.5791.9761l-1.3925,2.3574,1.0312-.1279,1.1934-.8487.4482-1.1206Z"/>
        <polygon class="cls-6" points="71.163 40.777 70.611 39.924 70.332 40.178 69.701 41.676 69.701 42.749 69.73 42.775 69.852 42.406 71.057 40.84 71.163 40.777"/>
        <path class="cls-6" d="M77.5566,42.165l2.1055-1.144.3018-.6621-1.3848.4204s-.332.0957-.7471.2099l-.7441,1.2593Z"/>
        <polygon class="cls-6" points="72.628 43.503 72.14 42.525 71.718 42.707 71.057 43.669 71.598 44.271 72.501 43.549 72.628 43.503"/>
        <polygon class="cls-6" points="76.633 44.424 77.256 44.031 77.677 43.368 76.74 43.72 76.633 44.424"/>
        <polygon class="cls-6" points="73.673 45.595 73.583 45.415 71.899 45.655 71.958 46.137 72.801 46.258 73.75 46.302 73.673 45.595"/>
        <polygon class="cls-6" points="76.789 49.914 77.655 49.048 77.673 48.594 77.677 48.502 76.728 49.336 76.789 49.914"/>
        <polygon class="cls-6" points="76.505 47.227 76.582 47.937 76.712 47.823 77.738 46.867 77.762 46.256 76.592 47.16 76.505 47.227"/>
        <polygon class="cls-6" points="74.042 49.021 73.972 48.359 73.945 48.365 72.318 48.124 72.681 48.726 73.885 49.026 74.042 49.021"/>
        <polygon class="cls-6" points="74.231 50.78 74.165 50.171 73.704 50.171 73.825 50.712 74.231 50.78"/>
        <polygon class="cls-6" points="77.221 51.802 77.503 52.378 77.557 52.338 78.373 51.234 78.165 50.682 77.557 51.435 77.221 51.802"/>
        <polygon class="cls-6" points="75.163 53.521 74.855 52.785 74.487 52.819 74.727 53.542 75.163 53.521"/>
        <polygon class="cls-6" points="78.474 55.629 78.939 55.287 79.062 54.686 78.601 54.925 78.474 55.629"/>
        <polygon class="cls-6" points="25.611 29.164 26.89 26.401 26.093 26.094 24.392 24.632 24.045 25.312 22.904 27.358 22.778 29.932 23.024 30.247 25.192 31.355 25.611 29.164"/>
        <g>
          <polygon class="cls-7" points="32.172 13.996 32.166 14.012 32.906 14.342 33.195 13.514 33.451 12.698 33.134 12.55 32.801 12.352 32.172 13.996"/>
          <polygon class="cls-7" points="28.879 10.03 28.604 12.169 29.282 12.731 29.576 12.862 29.643 12.431 29.808 10.578 28.879 10.03"/>
        </g>
        <polygon class="cls-6" points="21.037 25.673 22.667 23.15 21.302 21.979 20.616 23.084 18.951 24.7 19.592 25.822 19.921 26.247 21.037 25.673"/>
        <polygon class="cls-7" points="25.051 9.313 25.43 9.541 25.466 9.571 25.91 8.271 25.379 7.957 25.051 9.313"/>
        <polygon class="cls-6" points="18.31 18.892 16.983 21.258 18.011 23.057 19.17 21.82 19.575 20.453 18.31 18.892"/>
        <polygon class="cls-7" points="22.481 7.314 22.652 6.526 22.026 6.253 21.791 7.358 22.346 7.689 22.481 7.314"/>
        <polygon class="cls-6" points="16.872 17.118 16.289 16.397 15.266 17.995 15.386 18.248 15.549 18.588 16.522 17.727 16.872 17.118"/>
        <polygon class="cls-7" points="21.02 5.813 20.454 5.566 19.773 5.268 19.639 6.204 20.617 6.686 21.02 5.813"/>
        <polygon class="cls-6" points="15.317 15.2 14.471 16.314 14.681 16.756 15.138 15.801 15.33 15.213 15.317 15.2"/>
        <polygon class="cls-7" points="18.959 4.913 18.395 4.667 18.176 5.483 18.811 5.797 18.959 4.913"/>
        <polygon class="cls-6" points="13.15 13.514 13.01 13.815 13.212 15.44 13.342 17.173 13.722 16.76 13.883 16.584 13.754 15.2 13.805 13.514 13.15 13.514"/>
        <polygon class="cls-6" points="12.609 17.065 12.609 16.222 12.416 15.065 12.068 15.801 11.753 16.046 11.827 16.764 11.452 18.645 12.277 18.328 12.398 18.2 12.609 17.065"/>
        <polygon class="cls-6" points="10.623 18.569 10.805 17.246 10.703 16.863 10.071 17.354 10.082 17.365 9.902 18.569 9.578 19.362 9.688 19.319 10.298 19.086 10.623 18.569"/>
        <polygon class="cls-6" points="8.276 19.653 8.638 18.569 8.586 18.172 8.127 18.412 7.854 19.774 7.638 20.026 8.058 19.886 8.276 19.653"/>
        <polygon class="cls-6" points="11.827 4.845 11.774 5.336 11.917 5.237 12.203 5.187 12.128 4.484 11.915 3.877 11.572 3.901 11.538 3.903 11.827 4.845"/>
        <polygon class="cls-6" points="9.8 4.47 9.416 4.753 9.282 4.851 9.78 5.267 10.202 6.351 10.198 6.432 10.623 6.137 10.623 5.93 10.141 4.725 9.8 4.47"/>
        <polygon class="cls-6" points="9.299 7.675 9.453 7.391 9.179 6.411 8.517 5.568 8.41 5.496 7.941 5.841 8.397 6.23 8.878 7.676 9.117 9.12 9.601 9.239 9.601 8.428 9.299 7.675"/>
        <polygon class="cls-6" points="6.41 19.653 5.327 20.736 2.859 21.923 2.888 21.94 3.519 22.933 4.332 22.662 5.777 21.94 6.228 21.218 7.095 20.352 6.771 20.135 6.41 19.653"/>
        <polygon class="cls-6" points="1.836 16.343 1.56 15.608 0.179 17.697 0 19.502 0.128 19.631 2.297 16.407 1.836 16.343"/>
        <polygon class="cls-2" points="7.222 7.314 5.236 5.689 4.332 5.147 9.208 1.896 14.266 0 20.584 0.904 25.551 1.896 30.517 5.599 36.928 9.932 39.635 12.279 41.802 14.267 43.518 15.259 42.435 16.884 38.643 15.35 35.03 13.995 29.704 11.106 24.648 8.036 19.953 5.869 16.612 4.334 13.544 4.064 10.652 4.514 8.215 6.23 7.222 7.314"/>
        <polygon class="cls-7" points="7.941 5.841 8.272 6.19 8.721 5.876 6.848 3.471 6.035 4.012 7.941 5.841"/>
        <polygon class="cls-7" points="7.337 7.188 7.662 6.833 7.102 5.839 5.495 4.371 4.893 4.772 7.337 7.188"/>
        <polygon class="cls-7" points="9.269 3.371 8.262 2.528 7.715 2.893 8.908 4.245 9.707 5.181 10.192 4.838 9.269 3.371"/>
        <polygon class="cls-7" points="11.073 2.469 11.649 4.36 12.127 4.284 11.767 2.559 11.301 1.111 10.683 1.344 11.073 2.469"/>
        <polygon class="cls-7" points="14.014 4.105 14.175 1.595 13.96 0.116 12.873 0.521 13.362 2.318 13.443 4.079 13.544 4.064 14.014 4.105"/>
        <polygon class="cls-7" points="16.437 4.318 17.244 2.228 17.322 0.436 16.197 0.277 16.04 2.408 15.417 4.23 16.437 4.318"/>
        <polygon class="cls-3" points="18.996 0.676 18.779 3.583 18.243 5.084 18.892 5.382 19.802 2.739 20.215 0.85 18.996 0.676"/>
        <polygon class="cls-3" points="21.328 1.052 21.007 2.469 20.495 3.974 19.778 5.789 19.953 5.869 20.793 6.257 21.337 5.116 22.209 2.497 22.4 1.267 21.328 1.052"/>
        <polygon class="cls-3" points="24.825 1.751 23.92 1.571 23.714 2.469 22.571 5.267 21.931 6.781 22.6 7.092 22.933 6.47 23.986 4.244 24.768 2.348 24.825 1.751"/>
        <polygon class="cls-3" points="26.404 2.533 26.213 3.943 25.791 5.357 25.491 7.374 25.257 8.406 25.797 8.733 26.333 7.976 27.026 6.621 27.988 4.967 28.732 4.267 26.404 2.533"/>
        <polygon class="cls-3" points="30.517 5.599 29.939 5.168 29.464 6.802 29.224 9.36 28.933 10.638 29.704 11.106 29.744 11.127 30.846 8.336 31.72 6.411 30.517 5.599"/>
        <polygon class="cls-3" points="33.62 7.696 33.225 10.083 32.592 12.671 33.365 13.091 34.128 11.377 35.471 8.948 33.62 7.696"/>
        <path class="cls-3" d="M36.92771,9.9321l-.96291-.6504c-.205.8574-.6113,2.5396-.6338,2.6065-.0214.0698-.456,1.3393-.65429,1.915l.35359.1914.4228.1582.4805-1.3916,1.6162-2.289Z"/>
        <polygon class="cls-3" points="40.004 12.616 39.635 12.279 38.384 11.194 37.77 13.062 37.438 14.898 38.643 15.35 38.715 15.378 39.605 14.055 40.004 12.616"/>
        <polygon class="cls-3" points="41.802 14.267 41.421 13.914 41.17 14.898 40.527 16.111 41.092 16.341 41.712 15.259 42.191 14.491 41.802 14.267"/>
        <polygon class="cls-3" points="42.435 16.884 43.518 15.259 43.14 15.039 42.886 15.741 42.323 16.839 42.435 16.884"/>
        <polygon class="cls-7" points="39.635 12.279 36.928 9.932 30.517 5.599 25.551 1.896 20.584 0.904 14.266 0 9.208 1.896 4.332 5.147 5.236 5.689 5.271 5.717 6.742 4.454 9.811 2.559 12.924 1.474 17.515 1.355 23.038 2.469 26.783 3.776 29.224 6.441 31.569 7.75 34.322 9.691 37.664 12.084 39.109 12.896 40.553 14.16 41.455 14.883 42.766 15.559 43.205 15.727 43.518 15.259 41.802 14.267 39.635 12.279"/>
        <polygon class="cls-2" points="12.819 5.869 14.445 4.514 16.251 2.076 17.515 1.355 18.237 2.348 17.425 5.779 14.807 7.404 13.453 7.133 12.641 7.043 12.819 5.869"/>
        <polygon class="cls-4" points="17.515 1.355 16.251 2.076 14.445 4.514 12.819 5.869 12.718 6.531 14.717 5.81 17.005 3.763 17.726 2.499 18.094 2.958 18.237 2.348 17.515 1.355"/>
        <polygon class="cls-2" points="11.073 9.646 10.126 9.556 9.089 10.052 8.862 10.683 9.044 11.451 9.902 11.857 11.21 11.226 11.48 10.098 11.073 9.646"/>
        <polygon class="cls-4" points="9.72 11.436 9.013 11.323 9.044 11.451 9.902 11.857 11.21 11.226 11.355 10.615 10.652 11.135 9.72 11.436"/>
        <polygon class="cls-6" points="10.723 9.811 9.607 10.153 9.508 10.629 9.739 10.767 9.64 11.106 10.197 11.106 10.788 10.629 10.983 9.88 10.723 9.811"/>
        <polygon class="cls-5" points="11.48 10.098 11.073 9.646 10.126 9.556 9.089 10.052 8.862 10.683 8.893 10.814 9.299 10.383 9.989 10.113 10.743 9.992 11.468 10.154 11.48 10.098"/>
        <polygon class="cls-7" points="1.264 19.743 1.443 18.749 1.985 18.299 2.588 18.449 2.559 18.931 1.925 19.502 1.264 19.743"/>
        <polygon class="cls-6" points="1.594 19.803 1.654 19.111 1.985 18.779 2.348 18.81 2.559 18.931 2.588 19.262 2.257 19.563 1.594 19.803"/>
      </g>
    </g>
  </g>
</svg>
