<svg xmlns="http://www.w3.org/2000/svg" width="126.5225" height="80.1768" viewBox="0 0 126.5225 80.1768">
  <defs>
    <style>
      .cls-1 {
        fill: #ceb197;
      }

      .cls-2 {
        fill: #dd7772;
      }

      .cls-3 {
        fill: #cc6060;
      }

      .cls-4 {
        fill: #ddc4ab;
      }

      .cls-5 {
        fill: #594b40;
      }

      .cls-6 {
        fill: #3f342c;
      }

      .cls-7 {
        fill: #bc9a7e;
      }

      .cls-8 {
        fill: #efd3b9;
      }

      .cls-9 {
        fill: #191411;
      }

      .cls-10 {
        fill: #726156;
      }

      .cls-11 {
        fill: #b28056;
      }

      .cls-12 {
        fill: #e0b882;
      }
    </style>
  </defs>
  <g id="图层_2" data-name="图层 2">
    <g id="Layer_1" data-name="Layer 1">
      <g>
        <polygon class="cls-1" points="98.233 44.914 100.337 56 99.478 65.556 98.905 69.473 95.751 73.105 95.655 74.061 100.147 74.635 101.962 74.155 101.866 71.575 102.632 69.856 103.683 70.142 103.3 66.798 104.446 62.783 106.644 53.228 101.675 45.01 98.233 44.914"/>
        <polygon class="cls-2" points="84.856 49.215 87.342 53.324 89.731 55.139 89.156 57.433 90.018 58.674 91.833 56.478 93.36 57.146 93.554 59.918 95.081 59.822 95.751 56.478 97.567 55.808 98.712 57.815 99.765 57.337 99.382 55.043 105.021 51.985 100.433 44.532 84.856 49.215"/>
        <polygon class="cls-3" points="93.554 59.918 95.081 59.822 95.751 56.478 97.567 55.808 98.712 57.815 99.765 57.337 99.382 55.043 105.021 51.985 104.353 50.901 101.722 51.842 97.71 52.273 92.692 52.414 88.022 48.264 84.856 49.215 87.342 53.324 89.731 55.139 89.156 57.433 90.018 58.674 91.833 56.478 93.36 57.146 93.554 59.918"/>
        <polygon class="cls-1" points="40.899 48.355 42.237 58.102 43.671 61.446 45.104 69.856 45.582 71.002 43.671 72.054 41.759 75.111 43.576 75.971 45.868 75.78 47.494 75.494 49.213 71.957 48.353 70.142 48.162 62.497 48.257 50.361 40.899 48.355"/>
        <polygon class="cls-1" points="119.45 21.406 120.501 23.222 121.267 46.54 123.368 55.043 126.522 60.587 124.515 69.092 125.853 71.767 125.089 72.531 121.839 69.092 120.692 56.764 121.267 54.949 119.45 46.922 118.876 26.376 119.45 21.406"/>
        <polygon class="cls-4" points="24.271 5.543 19.78 4.301 10.033 10.321 9.843 11.181 2.579 15.864 0 16.819 0 18.157 0.859 21.98 2.197 23.606 4.013 23.509 4.874 24.559 9.747 24.559 15.098 23.509 16.532 24.752 18.729 28.383 23.889 31.727 30.961 36.505 34.974 44.342 38.51 50.17 41.855 51.698 46.442 53.611 46.919 57.433 48.257 59.249 49.118 68.231 48.257 73.87 47.016 74.825 45.678 79.029 46.824 79.22 47.016 80.177 52.654 79.029 52.654 75.016 53.512 74.061 53.895 72.723 54.946 72.34 53.512 62.594 54.278 58.674 55.807 52.56 68.229 52.273 81.417 50.074 87.533 50.742 99.954 46.156 101.103 46.825 105.688 56.954 106.358 58.388 106.548 60.778 107.409 71.002 105.688 72.34 105.116 73.582 102.726 76.927 103.013 77.691 109.415 77.691 110.657 75.302 111.04 73.582 113.144 71.767 113.048 70.047 112.665 60.969 116.009 56.764 115.532 53.324 114.481 49.406 119.45 27.905 119.735 20.833 112.378 13.284 102.919 9.652 97.853 9.652 93.458 10.799 77.69 9.462 67.465 10.13 63.07 9.271 54.851 6.69 51.889 6.118 44.627 8.123 38.128 9.174 30.961 8.602 29.05 8.22 24.271 5.543"/>
        <polygon class="cls-5" points="1.385 18.443 2.961 18.014 3.965 18.443 3.105 18.731 2.531 19.304 1.385 18.443"/>
        <polygon class="cls-1" points="41.855 51.698 46.288 53.546 46.393 48.832 44.96 40.805 43.67 39.802 43.527 40.375 44.387 41.523 44.674 46.107 42.236 44.962 39.513 38.653 32.06 31.2 28.476 28.764 25.753 24.75 27.186 22.888 28.906 18.731 28.19 18.014 25.036 21.168 19.732 21.884 14.285 20.88 10.639 21.89 10.605 21.788 8.026 21.788 7.07 22.891 5.685 23.316 4.017 23.512 4.874 24.559 9.747 24.559 15.098 23.509 16.532 24.752 18.729 28.383 23.889 31.727 30.961 36.505 34.974 44.342 38.51 50.17 41.855 51.698"/>
        <polygon class="cls-5" points="50.742 42.049 49.403 42.812 49.403 46.253 51.028 48.45 52.08 47.876 53.322 44.437 52.08 42.718 50.742 42.049"/>
        <polygon class="cls-5" points="69.089 19.208 67.369 20.164 67.273 21.979 67.943 22.744 68.229 24.559 69.376 26.279 71.192 25.802 73.007 23.222 71.479 20.451 69.089 19.208"/>
        <polygon class="cls-5" points="87.437 34.021 85.907 34.021 85.143 35.549 86.672 37.843 89.73 35.645 90.111 34.594 87.437 34.021"/>
        <polygon class="cls-1" points="99.954 46.156 100.954 46.74 99.429 45.105 96.706 44.244 87.533 45.536 77.643 46.969 69.758 47.829 62.304 46.253 59.295 45.105 59.437 42.524 59.582 40.231 58.435 39.371 57.861 41.234 57.288 42.381 57.144 46.969 56.283 50.694 55.818 52.56 68.229 52.273 81.417 50.074 87.533 50.742 99.954 46.156"/>
        <path class="cls-1" d="M119.5186,26.1846l-.0215-.001-3.0117,8.8877-2.7227,8.1699-1.0019,7.0244.4297,5.4463-2.1504,3.8701-.7168,3.0117.1426,5.7315.5742,3.7275-.2871,2.293-3.2949-1.0029-.7188.1435,3.9063,1.8379.0117-.0224.3828-1.7198,2.1035-1.8154-.0957-1.7197-.3828-9.0782,3.3437-4.205-.4765-3.4395-1.0508-3.918,4.9687-21.5009Z"/>
        <path class="cls-5" d="M114.5752,30.5801l-1.8144.5732-1.4336,1.5283s.3809,1.9121.3809,2.1993a16.56585,16.56585,0,0,1-.4766,3.6298,8.833,8.833,0,0,0-.5742,2.1036l2.2949,1.7187,2.8906,1.1719,2.4414-10.5645Z"/>
        <polygon class="cls-6" points="113.935 42.731 115.843 43.505 118.284 32.94 117.399 32.377 116.485 35.071 113.935 42.731"/>
        <g>
          <path class="cls-7" d="M89.8252,48.6904l-7.0234.5713s-11.8975,1.1475-12.4707,1.2901-9.7466,0-9.7466,0-2.4126.2724-4.372.4541l-.4053,1.5537,12.4223-.2862L81.417,50.0742l6.1163.668,4.9892-1.8418Z"/>
          <path class="cls-7" d="M46.3931,50.3369c-3.1391-.3857-4.4438-.501-4.4438-.501l-4.8731-4.0146-3.7656-4.7295,1.6631,3.25,3.5361,5.8281,3.3457,1.5283,4.5864,1.9131Z"/>
        </g>
        <polygon class="cls-8" points="112.378 13.284 102.919 9.652 97.853 9.652 93.458 10.799 77.69 9.462 67.465 10.13 63.07 9.271 54.851 6.69 51.889 6.118 44.627 8.123 38.128 9.174 32.94 8.76 34.687 9.652 38.796 10.417 47.587 9.364 53.035 8.601 63.07 11.85 76.255 13.761 85.718 13.188 98.329 12.807 107.218 13.665 112.378 14.907 116.679 18.921 118.489 19.553 112.378 13.284"/>
        <path class="cls-5" d="M70.2359,43.2891c0-.2862-1.8159-6.4014-1.8159-6.4014l1.5288-3.8223a9.294,9.294,0,0,0-.9551-2.0078c-.2871-.1914-4.1089-3.1523-4.1089-3.1523l-1.3389-3.25,1.0518-4.3955,4.5874-9.0791-.3799-1.1387-1.3398.0879-4.3955-.8594-8.2188-2.581-2.9624-.5713L47.7774,7.2529l-.4771,1.0616,1.5303,3.249,2.3887,5.4472V18.252l.0962,3.25-.5738,3.1533L49.5,23.6055H47.5875l-.4771-1.0528-.8599-2.0078-1.5293.2881-2.0068-3.1533-2.102-5.4483-2.1026-2.1972-.4917-.8692-2.9375-.2334.1807.7207-.1924,1.3389-3.3438-.5732L30.292,9.6523V8.4668l-1.2421-.2471L24.2715,5.543l-2.2568-.625L19.3975,6.8809,16.9131,8.123,14.7149,9.2705,13.377,11.0859l-2.4844.8594L7.7398,15.6719,5.732,17.2002l.0962,1.7217,2.3891,2.4843.3399,3.1524H9.7471l5.3511-1.0498,1.4336,1.2432.8638,1.4257,3.436-.6621,3.5356-.8603,3.9185-3.1533,1.8159-1.2422,1.0508.3818.1914,2.3887.8594,2.581-.4781,2.7715-2.4843,3.1524-2.4781,2.1337,3.0054,2.0303,2.0518-1.3926L34.4,36.6006l3.727,4.2041,2.103,1.8164,3.1529.668,1.6254-1.337s2.4844-2.6767,2.771-2.9619c.2872-.2881,5.6382-1.9111,5.6382-1.9111l3.8223,3.4395,1.3384,3.1523,2.1968,2.3896,4.2041,1.9122,3.5366-1.625A29.21091,29.21091,0,0,0,70.2359,43.2891Z"/>
        <g>
          <polygon class="cls-6" points="40.23 42.621 41.326 42.853 39.513 38.653 32.06 31.2 30.396 30.069 29.241 31.535 26.763 33.669 29.768 35.699 31.82 34.307 34.4 36.601 38.127 40.805 40.23 42.621"/>
          <polygon class="cls-6" points="20.832 25.516 24.367 24.655 27.497 22.137 28.906 18.731 28.19 18.014 25.036 21.168 19.732 21.884 14.285 20.88 10.639 21.89 10.605 21.788 8.259 21.788 8.557 24.559 9.747 24.559 15.098 23.509 16.532 24.752 17.396 26.178 20.832 25.516"/>
          <path class="cls-6" d="M44.9605,40.8047l-1.29-1.0029-.1431.5732.8594,1.1475.0571.8945.5644-.4649s.0508-.0537.1319-.1425Z"/>
        </g>
        <polygon class="cls-6" points="12.325 12.518 13.855 11.85 15.67 9.652 18.06 10.13 19.111 10.799 22.265 9.271 23.412 8.791 23.889 9.652 20.258 11.564 18.25 12.137 16.722 13.092 14.907 13.092 13.187 13.092 11.752 13.092 11.18 12.711 12.325 12.518"/>
        <polygon class="cls-9" points="15.862 10.512 17.965 11.085 17.391 11.85 16.245 12.327 15.193 12.042 15.575 11.275 15.384 10.512 15.862 10.512"/>
        <g>
          <polygon class="cls-6" points="57.861 41.234 57.689 41.579 58.578 43.671 59.329 44.488 59.437 42.524 59.582 40.231 58.435 39.371 57.861 41.234"/>
          <polygon class="cls-6" points="62.304 46.253 60.221 45.457 60.775 46.061 64.979 47.973 66.7 47.182 62.304 46.253"/>
        </g>
        <g>
          <polygon class="cls-10" points="47.3 8.315 47.783 9.338 53.035 8.601 63.07 11.85 68.452 12.63 69.185 11.181 68.805 10.042 67.465 10.13 63.07 9.271 54.851 6.69 51.889 6.118 47.777 7.253 47.3 8.315"/>
          <polygon class="cls-10" points="38.796 10.417 38.867 10.407 38.51 10.034 38.018 9.165 37.026 9.087 35.081 8.932 35.261 9.652 35.246 9.756 38.796 10.417"/>
        </g>
        <polygon class="cls-5" points="112.378 13.284 102.919 9.652 97.853 9.652 93.458 10.799 85.494 10.124 84.092 10.704 81.321 11.276 80.365 10.991 79.887 11.659 79.219 17.2 80.843 17.488 85.812 19.208 89.443 18.826 92.597 20.164 92.979 22.267 91.067 22.935 87.819 22.267 85.335 23.795 83.806 24.655 83.997 28.573 85.048 31.153 87.819 30.58 92.214 30.962 93.935 33.925 93.647 35.741 90.017 37.46 90.781 39.564 94.315 39.18 100.433 36.983 103.587 31.153 103.587 27.331 104.159 25.706 107.026 27.617 110.753 23.986 114.575 20.355 112.663 16.819 112.831 13.748 112.378 13.284"/>
        <polygon class="cls-10" points="84.092 10.704 81.321 11.276 80.365 10.991 79.887 11.659 79.659 13.555 85.718 13.188 98.329 12.807 107.218 13.665 112.378 14.907 112.749 15.255 112.831 13.748 112.378 13.284 102.919 9.652 97.853 9.652 93.458 10.799 85.494 10.124 84.092 10.704"/>
        <polygon class="cls-11" points="20.413 6.904 19.208 4.493 17.296 4.11 13.856 4.588 11.752 4.588 10.32 2.295 10.416 0 11.944 1.912 15.29 2.772 19.397 1.529 22.457 2.39 23.699 4.588 23.699 6.402 20.413 6.904"/>
        <polygon class="cls-12" points="23.699 6.279 23.699 4.588 22.457 2.39 19.397 1.529 15.29 2.772 11.944 1.912 10.416 0 10.401 0.359 11.849 2.676 13.952 3.154 19.016 3.345 21.31 5.351 22.117 6.645 23.235 6.474 23.699 6.279"/>
        <polygon class="cls-5" points="20.927 8.22 22.743 6.308 24.271 4.015 28.954 2.39 29.814 3.632 29.909 5.161 25.514 7.74 23.507 9.271 20.927 8.22"/>
        <polygon class="cls-6" points="22.85 7.692 23.699 6.402 25.513 4.684 27.902 3.727 29.241 4.204 28.763 5.256 26.66 6.402 24.786 6.868 22.85 7.692"/>
      </g>
    </g>
  </g>
</svg>
