<svg xmlns="http://www.w3.org/2000/svg" width="65.6318" height="48.2519" viewBox="0 0 65.6318 48.2519">
  <defs>
    <style>
      .cls-1 {
        isolation: isolate;
      }

      .cls-2 {
        fill: #d8650f;
      }

      .cls-3, .cls-4 {
        fill: #d6c9c3;
      }

      .cls-4 {
        mix-blend-mode: multiply;
      }

      .cls-5 {
        fill: #66524a;
      }

      .cls-6 {
        fill: #44352e;
      }

      .cls-7 {
        fill: #ff7e27;
      }
    </style>
  </defs>
  <g class="cls-1">
    <g id="图层_2" data-name="图层 2">
      <g id="Layer_1" data-name="Layer 1">
        <g>
          <path class="cls-2" d="M46.7275,18.748l3.8867,2.4746,1.502,1.6768.3535.5302,1.5898,1.0606.5303.5293.7949.707s2.9151,2.7393,3.003,3.003a.41061.41061,0,0,1-.1768.4414s1.14851,1.0605,1.4151,1.3252c.2636.2656,2.1191,2.6503,2.1191,2.6503l2.208,3.0928,1.3252,3.3565.3535,4.1513-.3535.9707a14.63806,14.63806,0,0,1-2.29689-.4414c-.26561-.1758-3.97561-.7949-3.97561-.7949l-2.914-2.2959s-3.5342-3.7988-3.6221-4.0625c-.0889-.2666-1.5019-1.5908-1.5898-1.8555-.0889-.2656-.9717-.7949-.9717-1.1484s-.17679-3.1807-.17679-3.1807l-.79491-2.8261a16.07853,16.07853,0,0,1-1.2373-2.4737C47.6992,25.2861,46.7275,18.748,46.7275,18.748Z"/>
          <path class="cls-3" d="M59.35941,42.333l-.53031-.794,1.7666-.3535,1.0596-1.9434,1.414.087,1.2363.6201L65.0439,39l.2344.5957.3535,4.1513-.3535.9707a14.63806,14.63806,0,0,1-2.29689-.4414c-.26561-.1758-3.97561-.7949-3.97561-.7949l-.7548-.5947Z"/>
          <path class="cls-4" d="M47.5273,24.2724l1.7627.5713,1.501,5.4756L52.73441,33.5l3.09179,3.7099,2.6503,2.7393,2.1192,1.2363,2.0332,1.2363,2.914.2911.0889,1.0341-.3535.9707a14.63806,14.63806,0,0,1-2.29689-.4414c-.26561-.1758-3.97561-.7949-3.97561-.7949l-2.914-2.2959s-3.5342-3.7988-3.6221-4.0625c-.0889-.2666-1.5019-1.5908-1.5898-1.8555-.0889-.2656-.9717-.7949-.9717-1.1484s-.17679-3.1807-.17679-3.1807l-.79491-2.8261a16.07853,16.07853,0,0,1-1.2373-2.4737C47.6992,25.5439,47.6299,25.0068,47.5273,24.2724Z"/>
          <path class="cls-5" d="M10.5117,3.7763c-.0664-.1992-1.3252-2.5175-1.3252-2.5175L8.1933.9267l-.1992.7295L7.9287,2.916,7.8623,4.6367Z"/>
          <polygon class="cls-2" points="35.067 29.437 34.891 33.235 35.951 35.973 37.631 37.829 39.131 39.065 39.395 40.036 39.131 41.803 37.983 44.276 37.631 44.63 36.658 44.896 35.774 45.955 35.951 46.661 38.247 46.661 39.75 46.573 39.927 45.337 40.367 44.807 40.456 43.924 41.428 42.068 42.84 39.506 42.488 38.271 40.986 37.476 40.014 34.119 39.131 27.759 35.067 29.437"/>
          <polygon class="cls-6" points="37.631 44.63 37.983 44.276 39.131 41.803 39.395 40.036 39.226 39.409 39.838 39.152 40.634 39.684 41.869 39.419 42.761 39.228 42.84 39.506 41.428 42.068 40.456 43.924 40.367 44.807 39.927 45.337 39.75 46.573 38.247 46.661 35.951 46.661 35.774 45.955 36.658 44.896 37.631 44.63"/>
          <polygon class="cls-2" points="14.84 28.73 15.281 34.207 15.635 38.271 15.723 40.479 15.104 42.775 13.956 43.217 13.161 44.188 13.249 45.071 15.546 44.983 16.695 43.835 17.755 39.772 17.755 29.613 14.84 28.73"/>
          <polygon class="cls-5" points="13.161 44.188 13.956 43.217 15.104 42.775 15.723 40.479 15.635 38.271 15.281 34.207 15.157 32.678 16.606 32.264 17.755 33.067 17.755 39.772 16.695 43.835 15.546 44.983 13.249 45.071 13.161 44.188"/>
          <path class="cls-2" d="M0,10.7109l.5303,1.5908,1.413,1.0596,2.8262-.2656h2.209l1.6777,1.3261L10.5117,20.25l1.3242,4.9472,1.7666,2.9151,2.0322,2.4726,1.1485.7949.3535,6.625.1768,4.2413.1767,1.1474-.6182,2.0332-1.1494.2637-.7949,1.501.4424.3545,3.44531-.3545.88279-3.3565.1553-2.0322.1982-1.9863.6182-1.8116.8828-6.8886,1.1485-.8848,2.6513.6182,4.7686-.0869,6.0947-.8838,1.6787,2.4726.9717,2.5625,2.2969,2.0323,3.9746,2.0302,1.0605.9727-.6191,5.4775-1.0596.3516-.9717.7959-.2646,1.5888.8828.0889h2.208l1.4141-1.2363.6181-.5303.1768-3.3564,1.3252-4.6807-2.1201-2.6514-.26569-2.3847,1.23729-4.2393,1.0606-4.0644s-.6191-3.1797-.707-3.4454c-.08889-.2646-2.29689-3.3554-2.29689-3.3554L42.0459,16.2763l-8.3028-.707-7.0664-.708-1.7675-.9707-2.6495-.2656-1.413-.6172L18.5498,9.5615,15.0166,5.0576,11.9238,3.3798l-3.1797.2647L5.2998,6.205l-.794,1.502L3.1797,8.8554Z"/>
          <polygon class="cls-6" points="15.723 45.69 16.872 45.427 17.49 43.394 17.313 42.246 17.137 38.005 16.831 32.286 18.02 31.998 18.373 31.203 20.405 30.496 21.479 31.691 20.67 38.005 20.052 39.816 19.853 41.803 19.698 43.835 18.815 47.191 15.37 47.546 14.928 47.191 15.723 45.69"/>
          <polygon class="cls-6" points="41.163 36.946 40.634 36.478 41.428 36.504 45.491 37.211 47.258 36.857 47.767 35.607 47.788 35.797 49.908 38.448 48.583 43.129 48.406 46.485 47.788 47.016 46.374 48.252 44.166 48.252 43.283 48.163 43.548 46.574 44.519 45.778 45.579 45.427 46.198 39.949 45.138 38.977 41.163 36.946"/>
          <polygon class="cls-3" points="21.289 29.524 21.729 28.73 26.058 29.171 31.182 29.171 35.067 28.906 36.481 28.818 36.216 29.879 30.121 30.763 25.352 30.85 22.701 30.231 21.849 30.887 21.289 29.524"/>
          <polygon class="cls-3" points="2.385 11.328 4.415 10.357 6.007 9.65 8.391 10.003 11.395 11.24 13.339 11.857 13.779 12.918 13.249 15.305 12.809 19.896 13.249 23.165 15.281 27.315 16.165 29.613 16.289 31.038 15.635 30.585 13.602 28.112 11.836 25.197 10.512 20.25 8.656 14.422 6.978 13.096 4.769 13.096 1.943 13.361 0.53 12.302 0.351 11.764 2.385 11.328"/>
          <polygon class="cls-4" points="18.373 46.308 18.992 43.394 19.079 40.036 19.786 37.387 19.786 29.967 19.433 27.936 21.023 26.875 26.941 28.112 33.125 27.759 37.541 26.08 38.688 26.609 38.071 28.642 40.456 33.589 43.989 36.77 46.904 39.772 46.286 43.747 45.714 44.23 46.198 39.949 45.138 38.977 41.163 36.946 38.866 34.914 37.894 32.352 36.216 29.879 30.121 30.763 25.352 30.85 22.701 30.231 21.553 31.116 20.67 38.005 20.052 39.816 19.853 41.803 19.698 43.835 18.815 47.191 18.162 47.259 18.373 46.308"/>
          <path class="cls-7" d="M10.8652,4.2617,9.27441,3.998s-.166-.1553-.374-.3662l3.02339-.252,3.0928,1.6778,3.5332,4.5039,2.2969,3.4463,1.413.6172,2.6495.2656,1.7675.9707,7.0664.708,8.3028.707,3.5478,1.5088-2.0459-.1846-7.5966-1.1484-6.9776-.3535-3.1807.4414-3.3574-.4414-2.11909-.9717L18.9023,12.6543s-3.2676-4.5049-3.3564-4.7705c-.0879-.2647-2.1201-2.7383-2.1201-2.7383Z"/>
          <polygon class="cls-5" points="6.471 7.412 5.047 8.16 4.118 8.689 4.682 8.066 5.907 7.287 6.471 7.412"/>
          <polygon class="cls-7" points="11.837 0 12.831 0.464 14.486 4.704 14.154 5.499 12.101 6.825 11.704 5.963 10.976 5.166 10.313 5.103 10.379 3.246 11.837 0"/>
          <polygon class="cls-2" points="12.167 0.861 11.685 0.336 11.837 0 12.831 0.464 14.486 4.704 14.154 5.499 12.101 6.825 11.889 6.359 12.167 4.77 12.167 2.517 12.167 0.861"/>
          <polygon class="cls-4" points="10.844 3.776 10.909 2.65 11.704 1.259 11.771 2.253 11.704 4.106 11.489 5.728 10.976 5.166 10.748 5.146 10.711 5.035 10.844 3.776"/>
          <polygon class="cls-6" points="11.837 0 12.831 0.464 13.814 2.983 12.895 2.584 12.167 2.856 12.167 2.517 12.167 0.861 11.685 0.336 11.837 0"/>
          <polygon class="cls-5" points="1.154 12.77 1.899 12.687 3.092 12.488 4.946 11.959 6.669 12.124 6.669 12.322 5.741 12.257 4.881 12.222 3.49 12.587 2.297 12.886 1.492 13.023 1.154 12.77"/>
          <polygon class="cls-5" points="0.641 11.328 0.368 11.815 0 10.711 0.372 10.493 0.905 10.6 0.905 10.997 0.475 11.063 0.475 11.328 0.641 11.328"/>
          <polygon class="cls-6" points="5.709 6.923 5.775 7.156 5.709 7.487 5.51 7.718 6.238 7.619 6.901 7.585 6.402 7.188 5.709 6.923"/>
        </g>
      </g>
    </g>
  </g>
</svg>
