<svg xmlns="http://www.w3.org/2000/svg" width="91.8159" height="56.1279" viewBox="0 0 91.8159 56.1279">
  <defs>
    <style>
      .cls-1 {
        isolation: isolate;
      }

      .cls-2 {
        fill: #6d574f;
      }

      .cls-3 {
        fill: #876e62;
      }

      .cls-4 {
        fill: #ad8f80;
      }

      .cls-5, .cls-6 {
        fill: #d6c9c3;
      }

      .cls-5 {
        mix-blend-mode: multiply;
      }

      .cls-7 {
        fill: #6b5951;
      }

      .cls-8 {
        fill: #cf867c;
      }
    </style>
  </defs>
  <g class="cls-1">
    <g id="图层_2" data-name="图层 2">
      <g id="Layer_1" data-name="Layer 1">
        <g>
          <polygon class="cls-2" points="7.598 5.672 7.224 3.265 6.421 1.392 6.85 0.482 9.149 1.873 11.825 4.655 7.598 5.672"/>
          <polygon class="cls-3" points="33.388 35.154 34.779 40.397 35.956 44.785 36.385 48.102 35.849 50.563 33.923 51.098 33.067 52.383 33.067 53.667 35.101 54.094 38.311 53.88 38.738 52.383 39.916 50.028 39.487 48.423 39.06 43.287 38.525 35.047 37.882 29.91 33.816 30.659 33.388 35.154"/>
          <polygon class="cls-2" points="39.314 50.042 38.631 51.245 38.35 52.649 37.989 52.289 38.35 49.72 39.314 50.042"/>
          <polygon class="cls-4" points="38.525 35.047 37.882 29.91 33.816 30.659 33.388 35.154 34.779 40.397 35.698 43.823 35.983 40.691 37.107 36.799 38.611 36.385 38.525 35.047"/>
          <polygon class="cls-2" points="36.464 52.329 36.424 52.087 35.822 52.248 34.94 53.091 34.607 53.991 35.004 54.074 35.1 53.693 35.461 52.891 36.464 52.329"/>
          <polygon class="cls-2" points="33.535 52.81 33.291 53.714 33.569 53.772 33.695 53.171 34.056 52.45 34.658 51.848 34.136 51.928 33.535 52.81"/>
          <polygon class="cls-5" points="39.06 43.287 38.525 35.047 37.882 29.91 36.505 30.163 37.668 37.722 38.39 42.938 38.712 47.593 39.839 50.181 39.916 50.028 39.487 48.423 39.06 43.287"/>
          <polygon class="cls-4" points="74.053 14.072 77.37 14.179 82.399 17.176 88.606 25.737 91.388 32.265 91.816 36.759 90.533 39.862 88.713 39.862 83.041 34.19 79.939 24.345 77.477 19.101 75.55 17.497 74.053 14.072"/>
          <path class="cls-6" d="M90.2373,35.7148l-2.4077-1.5244-2.6479-2.4883-1.9268-3.771-2.9692-6.0205-2.2476-4.3335-2.8603-.9311.3725.8506,1.9268,1.6049,2.4614,5.2437,3.1025,9.8452,5.6719,5.6714h1.8198l1.2832-3.103-.1577-1.6582c-.2129-.1099-.3774-.188-.3774-.188Z"/>
          <polygon class="cls-3" points="90.356 29.843 88.606 25.737 82.399 17.176 77.37 14.179 76.825 14.162 80.526 16.694 83.817 21.028 86.225 25.764 88.873 29.294 90.356 29.843"/>
          <polygon class="cls-3" points="57.038 28.519 58.535 34.19 61.425 38.9 63.886 42.216 63.994 43.821 61.853 48.209 60.783 50.028 60.141 50.67 57.894 51.419 56.289 53.559 56.717 53.988 60.462 53.774 62.603 53.239 63.03 50.777 66.026 47.032 68.381 43.821 69.13 42.216 68.916 40.718 67.311 38.685 67.418 31.943 64.1 27.02 57.038 28.519"/>
          <polygon class="cls-4" points="67.311 38.685 67.418 31.943 64.1 27.02 57.038 28.519 58.535 34.19 61.045 38.28 62.549 36.866 65.224 36.33 66.402 38.793 68.327 41.681 67.707 44.74 68.381 43.821 69.13 42.216 68.916 40.718 67.311 38.685"/>
          <path class="cls-5" d="M68.3809,43.8213l.7495-1.605-.2148-1.4986-1.605-2.0322.1069-6.7427-.4673-.6943c-.706.5747-1.4053,1.1758-1.4053,1.1758-.0532.2143.2676,5.6191.2676,5.6191l1.0694,3.3169v2.7822l-2.0328,3.1563-2.0327,2.8901-.4819,1.605.4248.5386.271-1.5557,2.9961-3.7446Z"/>
          <polygon class="cls-4" points="0.214 18.352 2.782 15.249 3.96 13.109 4.067 11.29 4.923 8.508 7.17 5.404 9.738 4.227 15.303 4.548 18.728 6.047 20.868 6.688 30.498 7.331 33.603 6.582 35.635 6.367 38.845 7.866 46.979 8.722 56.503 8.294 62.496 7.438 68.274 8.508 75.122 13.216 77.048 19.851 77.905 27.983 76.835 35.368 77.584 38.364 79.403 40.504 80.259 41.253 79.831 45.64 78.119 52.168 77.263 53.131 76.514 55.271 74.053 56.128 72.982 56.021 72.662 55.271 71.056 55.593 70.093 54.844 71.591 52.489 74.267 51.955 75.016 50.67 76.514 43.18 72.875 40.611 70.093 37.615 64.636 32.265 62.067 28.947 59.392 29.376 50.51 30.659 40.665 31.515 35.101 31.836 33.709 36.973 32.639 42.966 32.103 46.925 32.424 48.958 32.424 49.921 30.713 52.275 29.857 54.951 29.214 55.485 24.935 55.485 23.864 55.165 24.292 53.667 26.646 52.062 28.465 47.781 28.572 44.142 26.861 32.585 25.897 30.338 22.258 27.983 18.834 23.81 17.55 23.382 15.944 24.773 14.019 23.382 11.023 19.422 8.883 18.674 5.778 20.493 4.173 21.135 1.819 20.601 0 19.529 0.214 18.352"/>
          <polygon class="cls-6" points="80.224 41.613 78.333 41.467 76.728 40.076 74.481 37.4 71.591 32.906 68.381 30.659 62.923 24.988 61.425 21.457 59.392 20.921 56.93 22.847 53.827 23.382 47.621 24.345 42.805 24.452 37.775 23.81 34.458 23.382 33.174 24.559 34.03 27.983 35.101 30.231 35.253 31.827 40.665 31.515 50.51 30.659 59.392 29.376 62.067 28.947 64.636 32.265 70.093 37.615 72.875 40.611 76.514 43.18 75.016 50.67 74.267 51.955 71.591 52.489 70.093 54.844 71.056 55.593 72.662 55.271 72.982 56.021 74.053 56.128 76.514 55.271 77.263 53.131 78.119 52.168 79.831 45.64 80.224 41.613"/>
          <polygon class="cls-6" points="25.897 30.649 26.048 31.009 26.111 28.455 24.935 25.601 25.255 22.09 23.864 18.797 22.58 18.139 21.938 19.895 20.226 22.968 20.307 25.796 22.258 28.236 25.897 30.649"/>
          <polygon class="cls-6" points="15.196 23.061 14.875 20.493 13.163 18.352 11.772 16.641 12.2 15.463 14.339 13.858 14.339 12.146 10.167 11.933 8.562 14.286 7.17 14.607 4.709 15.892 3.854 15.463 2.641 15.42 0.214 18.352 0 19.529 1.819 20.601 4.173 21.135 5.778 20.493 8.883 18.674 11.023 19.422 14.019 23.382 15.343 24.339 15.196 23.061"/>
          <path class="cls-3" d="M27.1807,25.8432l-.9624-2.4609s.4282-3.3174.4282-3.6387.3218-3.2094.3218-3.2094l.1059-4.709,1.8189-2.6753-.8555,3.8515.9629,5.0298.8565,3.211-.8565,2.3545Z"/>
          <path class="cls-3" d="M6.1265,11.3969l-1.044,1.4444c.2413.0801,1.3648-1.0435,1.3648-1.0435Z"/>
          <polygon class="cls-2" points="5.685 10.996 6.167 11.637 6.328 12.12 6.929 11.637 7.41 10.634 6.567 10.876 5.685 10.996"/>
          <polygon class="cls-4" points="6.328 11.116 6.488 11.476 6.648 11.316 6.607 11.076 6.328 11.116"/>
          <polygon class="cls-2" points="0 19.529 1.41 20.359 1.231 19.343 1.792 19.021 1.712 18.379 1.07 18.299 0.813 17.63 0.214 18.352 0 19.529"/>
          <polygon class="cls-2" points="6.527 18.941 4.441 20.279 2.909 20.847 3.341 20.946 4.654 20.332 5.725 19.69 7.331 18.728 8.561 18.299 8.721 17.978 8.079 17.925 6.527 18.941"/>
          <polygon class="cls-3" points="5.885 9.524 6.42 7.973 8.561 6.047 9.899 5.833 9.631 7.598 10.861 9.15 13.912 10.06 14.018 11.344 12.788 10.916 10.273 10.167 9.256 10.434 8.293 9.578 5.885 9.524"/>
          <polygon class="cls-3" points="13.189 16.132 13.991 17.657 14.955 17.577 13.912 16.212 13.67 15.491 13.189 16.132"/>
          <polygon class="cls-3" points="14.714 16.293 16.961 17.818 18.486 19.824 19.69 20.226 20.333 19.985 18.887 18.861 17.764 16.373 14.393 14.687 14.714 16.293"/>
          <polygon class="cls-3" points="15.517 19.744 15.918 21.831 17.443 21.751 18.566 22.152 18.968 21.751 17.683 20.948 16.881 18.861 15.597 17.818 14.714 18.139 15.517 19.744"/>
          <polygon class="cls-3" points="19.77 21.43 20.333 20.867 18.566 20.305 18.486 20.708 19.77 21.43"/>
          <path class="cls-3" d="M66.4805,9.0693l4.8149,2.9702,1.6065,3.21V19.583l-.2412,1.9262,3.0503,3.8526.1601,1.7661.481,3.1299.9887,1.6167.564-3.8911-.8564-8.1324-1.9268-6.6347L68.274,8.5078,62.4956,7.4384l-5.9931.856-9.524.4277-8.1333-.8564L35.6348,6.3672l-2.0322.2143-3.105.7495-9.3599-.6245.3989.5972a21.1166,21.1166,0,0,0,2.7281.4819c.2412-.081,4.2539.3208,4.2539.3208L31.729,9.3901l3.8521.5625,3.1304-.4018.4018,1.4453.0796,1.3647,1.1235.4805,2.0064-1.605,2.8091-.9634,6.9824-.5615,4.0937-.1606,4.334-.5616Z"/>
          <polygon class="cls-7" points="31.649 50.202 30.806 51.206 29.883 51.647 29.803 51.366 30.966 50.283 31.448 49.159 31.649 50.202"/>
          <path class="cls-7" d="M25.7095,54.3354l1.5249-.6421-.0806-.3213-1.6855.6421-.4478,1.4712h.5435C25.6031,55.0796,25.7095,54.3354,25.7095,54.3354Z"/>
          <polygon class="cls-7" points="25.309 53.413 24.426 54.175 24.194 55.265 24.448 55.34 24.586 54.335 25.349 53.573 25.309 53.413"/>
          <polygon class="cls-3" points="31.328 27.047 31.408 30.819 29.722 33.147 28.438 33.629 27.877 32.666 29.401 30.98 30.525 27.77 31.328 27.047"/>
          <polygon class="cls-6" points="36.064 28.653 34.699 28.653 34.056 32.265 32.773 37.802 31.649 43.42 31.569 46.47 32.191 47.478 32.103 46.925 32.639 42.966 33.709 36.973 35.101 31.836 36.96 31.729 37.187 30.659 36.064 28.653"/>
          <polygon class="cls-3" points="78.118 42.056 78.761 43.981 78.68 46.31 79.323 43.661 79.082 42.056 78.118 42.056"/>
          <polygon class="cls-3" points="79.831 45.64 80.224 41.613 79.416 41.551 79.831 42.27 79.403 45.481 78.6 48.477 77.531 51.259 76.406 52.971 76.08 55.422 76.514 55.271 77.263 53.131 78.119 52.168 79.831 45.64"/>
          <path class="cls-3" d="M72.3936,53.0781l-1.2842,1.4985-.2148.8907.1616.1254.2002-.0395c.1255-.4014.3349-.9766.3349-.9766l1.3911-1.5522.5347-.1607-.0532-.2675Z"/>
          <path class="cls-3" d="M74.4268,53.292l-1.1236,1.0708-.5844,1.0429.2636.6153.0508.0053c.1299-.4892.3238-1.1826.3238-1.1826l1.1235-1.1772Z"/>
          <polygon class="cls-3" points="17.604 7.384 18.962 6.116 18.728 6.047 16.233 4.955 15.999 7.304 15.517 8.909 16.56 9.792 17.604 7.384"/>
          <path class="cls-5" d="M9.7383,4.227,7.1704,5.4043,4.9229,8.5078,4.0674,11.29,3.96,13.1089,2.7823,15.2495.2139,18.3525,0,19.5293l.25.1474.3921-1.2173.8565-1.0693,1.872-1.873,1.0713-1.9795.0523-1.5523s.643-2.5151.643-2.6748c0-.1606,1.3911-2.5151,1.3911-2.5151L7.9727,5.5112l1.498-.8564,1.3907-.2666.0468-.0933Z"/>
          <polygon class="cls-8" points="14.661 8.347 12.879 7.833 11.878 7.545 10.916 6.688 10.06 6.635 9.685 5.887 10.649 2.996 10.969 0.428 11.45 0 13.484 2.569 14.714 5.993 14.661 8.347"/>
          <polygon class="cls-5" points="12.093 3.05 11.29 4.761 10.799 6.681 10.916 6.688 11.878 7.545 12.879 7.833 12.899 7.839 13.431 6.902 13.537 4.923 12.36 2.087 12.093 3.05"/>
          <polygon class="cls-2" points="11.45 0 10.969 0.428 10.649 2.996 9.685 5.887 10.06 6.635 10.123 6.639 10.327 5.244 10.808 3.692 11.129 1.23 11.61 1.552 12.628 3.531 12.895 5.511 12.414 6.795 11.808 7.482 11.878 7.545 12.879 7.833 14.661 8.347 14.714 5.993 13.484 2.569 11.45 0"/>
          <polygon class="cls-5" points="59.392 29.376 62.067 28.947 64.636 32.265 70.093 37.615 72.496 40.203 70.949 37.293 66.133 31.515 63.565 27.662 60.675 26.486 54.576 28.305 41.306 29.161 36.064 28.947 34.029 29.054 34.458 30.98 34.655 33.48 35.101 31.836 40.665 31.515 50.51 30.659 59.392 29.376"/>
        </g>
      </g>
    </g>
  </g>
</svg>
