<svg xmlns="http://www.w3.org/2000/svg" width="72.9638" height="40.4394" viewBox="0 0 72.9638 40.4394">
  <defs>
    <style>
      .cls-1 {
        fill: #cc6060;
      }

      .cls-2 {
        fill: #dd7772;
      }

      .cls-3 {
        fill: #f9a4a0;
      }

      .cls-4 {
        fill: #bc4d4d;
      }
    </style>
  </defs>
  <g id="图层_2" data-name="图层 2">
    <g id="Layer_1" data-name="Layer 1">
      <g>
        <polygon class="cls-1" points="9.154 20.085 9.639 23.747 10.984 26.225 12.384 32.148 13.3 33.816 13.354 35.539 14.861 36.401 17.015 36.294 14 29.293 11.953 21.647 9.154 20.085"/>
        <polygon class="cls-1" points="42.108 25.685 43.348 27.625 43.832 28.217 44.693 36.51 45.34 37.316 47.386 37.532 49.163 37.532 49.109 36.833 47.278 35.434 47.332 33.87 48.141 27.947 45.447 22.67 42.108 25.685"/>
        <polygon class="cls-1" points="61.009 8.023 63.109 6.838 64.617 5.17 69.463 4.146 69.41 5.277 67.525 6.623 64.456 12.063 61.009 8.023"/>
        <path class="cls-2" d="M57.6718,3.8769l2.584,2.6387,2.4238,2.1006,3.4991,2.7461.7002,2.0459.3769,2.209,2.2617,2.3671,1.8311,1.6172,1.0224,1.3457.5928.2149-.1611.6465L70.163,26.0625l-.4296-.377-.1612-.376-2.74709.2686-1.72261.6465-2.8008.539-3.8779-1.2392-3.5-1.292-.9151.6992-.5908,1.4541.2149,1.1856L53.04,31.2851l.53811,3.7696a4.09829,4.09829,0,0,1,.48439.8623c0,.1611.539,1.8857.539,1.8857l1.8301,2.0449-.377.5918-3.123-.4844-1.669-.5918.2686-.9687-.91409-1.7773-.43161-1.5625-1.5615-4.254-1.0772-1.1308-1.5605-2.584-.9688-2.1543-4.3633,2.0996-3.8759,1.6699-4.3623-.0537-2.1006-.8076-4.6846-1.4541-2.7998-1.292-1.3467,1.9375-.4297,1.0772.2676,2.6923-.6455.754-1.5615,2.1005.1611,1.5079.1621,2.4228,1.669,1.9395v.3769l-4.1992.2149.1064-.8086-.64549-.8614.16009-1.7763-.6445-2.208-2.4765-5.3321-.91609-3.7676L10.9843,22.8857,8.2919,19.9785l-.7002-4.8467L6.4609,10.6631,8.7773,6.5703l4.9004-3.2324L22.8847,0l8.5625.2148L35.2158.1074l5.1689,1.3467H51.5859Z"/>
        <polygon class="cls-3" points="61.063 14.269 60.256 14.916 58.909 13.353 59.071 12.278 61.924 9.154 66.179 7.217 66.879 7.323 66.556 8.725 65.964 10.769 64.779 13.516 63.217 13.57 61.063 14.269"/>
        <path class="cls-1" d="M7,11.3623,5.7617,13.3007,3.66111,10.3388.3222,11.955,1.83,15.6172l1.293.6455.7002.1064-1.07809.916-1.50691.3242L0,17.4472l.8613,1.1309,2.3691-.6465,1.8301-1.7773.80761-.2149L7.5927,12.7617ZM4.6298,14.7548l-1.292.377L1.99211,12.9785l.16209-.7539,1.1836-.5938,1.0762.9688.5938,1.1318Z"/>
        <polygon class="cls-4" points="68.602 23.801 66.986 23.693 65.963 23.478 65.532 22.992 65.102 22.616 64.886 23.047 65.209 23.585 66.125 24.07 66.879 24.07 68.117 24.178 68.602 24.744 67.794 24.744 66.017 24.904 62.383 24.34 58.021 23.289 55.758 20.381 54.549 16.019 54.467 19.332 53.9 21.269 53.982 22.966 53.498 24.744 53.571 26.006 54.009 24.932 54.924 24.232 58.424 25.524 62.302 26.764 65.102 26.225 66.825 25.578 69.572 25.309 69.733 25.685 70.163 26.063 70.59 25.377 69.625 24.232 68.602 23.801"/>
        <polygon class="cls-1" points="24.016 20.22 26.035 19.089 27.569 16.746 26.762 13.273 26.762 11.658 26.439 11.496 26.439 13.758 25.873 16.343 23.773 18.928 23.127 19.896 24.016 20.22"/>
        <polygon class="cls-3" points="71.591 22.482 70.864 23.289 70.137 23.854 70.298 24.42 70.746 25.124 72.803 21.809 72.964 21.162 72.475 20.984 71.591 22.482"/>
        <polygon class="cls-1" points="66.582 16.585 66.099 16.988 65.29 17.474 64.159 17.07 63.514 15.615 63.675 14.646 64.806 14.646 65.935 14.646 66.582 15.374 66.582 16.585"/>
        <polygon class="cls-1" points="65.451 8.589 63.27 9.639 61.736 10.85 60.685 13.112 60.213 14.867 60.256 14.916 61.063 14.269 63.217 13.57 64.264 13.533 65.29 11.739 65.855 9.639 66.26 7.943 65.451 8.589"/>
        <path class="cls-1" d="M24.0957,19.8964l3.7968,1.1309,4.7657.7266,5.9775-.1612,4.6846-1.2119-.4043,3.1504s-7.75389,2.5039-7.9961,2.5039-6.461-.3222-6.7051-.4844c-.2422-.1611-4.3604-2.9072-4.3604-2.9072l-.6474-1.6162-.0801-1.1309Z"/>
        <polygon class="cls-1" points="44.693 18.039 44.612 20.462 46.874 23.854 49.377 27.086 51.156 31.043 52.205 33.951 53.176 38.07 52.285 38.637 51.639 36.939 50.023 33.143 49.459 30.883 48.005 29.185 46.391 26.844 45.502 24.904 44.209 23.451 42.269 22.563 42.754 19.654 44.693 18.039"/>
        <polygon class="cls-1" points="17.564 1.93 13.678 3.338 8.777 6.57 7.735 8.411 7.861 11.9 8.749 16.828 10.931 21.269 12.06 23.773 13.353 26.52 15.293 29.912 16.262 33.79 16.826 36.777 16.907 38.475 18.684 37.828 18.119 36.051 18.199 31.527 18.039 27.57 15.05 24.258 11.576 17.313 10.607 10.932 12.465 5.196 17.564 1.93"/>
        <polygon class="cls-4" points="8.777 6.57 6.461 10.663 7.592 15.132 8.292 19.978 10.984 22.886 12.492 25.363 13.408 29.131 15.885 34.463 16.529 36.671 16.369 38.447 17.015 39.309 16.908 40.117 17.041 40.109 17.877 38.719 19.008 37.91 18.684 37.586 17.392 38.152 17.23 37.182 16.988 35.001 16.423 32.174 16.746 30.639 16.342 29.428 14.969 27.731 14.322 26.52 14.404 25.631 13.273 24.258 12.465 23.451 10.687 19.574 9.639 16.666 8.264 11.981 8.777 6.57"/>
        <polygon class="cls-4" points="42.593 19.089 41.947 21.107 40.816 22.4 38.15 23.611 34.193 24.097 29.508 23.531 26.277 22.078 24.258 21.189 23.127 20.785 23.369 22.158 23.369 23.128 22.93 25.139 25.631 26.386 30.315 27.84 32.416 28.647 36.778 28.701 40.654 27.031 44.905 24.985 44.693 24.42 43.643 22.886 43.562 20.059 44.693 18.039 45.582 15.535 44.289 17.717 42.593 19.089"/>
        <polygon class="cls-4" points="52.932 39.955 53.92 40.109 52.689 38.879 54.225 38.152 54.062 37.748 52.285 38.07 51.963 36.455 50.994 33.79 50.428 31.447 48.892 29.832 46.633 26.601 45.098 23.369 43.401 21.916 43.92 25.461 45.017 24.932 45.986 27.086 47.547 29.67 48.624 30.801 50.185 35.055 50.617 36.617 51.531 38.394 51.263 39.363 52.932 39.955"/>
        <polygon class="cls-4" points="66.341 16.019 65.774 15.615 64.401 15.615 63.837 15.455 64.24 16.182 65.37 16.182 66.017 16.182 66.341 16.019"/>
        <path class="cls-3" d="M59.4472,5.6894,57.6718,3.8769,51.5859,1.4541H40.3847L35.2158.1074,31.4472.2148,22.8847,0l-4.709,1.707,4.1436-.4688L26.7617.914,32.7382.8339l3.3125.3243,4.44141,1.373H44.8544l5.087-.7275s2.5859.4853,2.8281.5654,4.039,1.6963,4.039,1.6963l2.3428,1.4541Z"/>
      </g>
    </g>
  </g>
</svg>
