<svg xmlns="http://www.w3.org/2000/svg" width="57.9258" height="49.2929" viewBox="0 0 57.9258 49.2929">
  <defs>
    <style>
      .cls-1 {
        fill: #d8b28d;
      }

      .cls-2 {
        fill: #ad7e5a;
      }

      .cls-3 {
        fill: #774c40;
      }

      .cls-4 {
        fill: #a87752;
      }

      .cls-5 {
        fill: #8c5835;
      }

      .cls-6 {
        fill: #774828;
      }
    </style>
  </defs>
  <g id="图层_2" data-name="图层 2">
    <g id="Layer_1" data-name="Layer 1">
      <g>
        <path class="cls-1" d="M13.6368,1.9135l-1.3067-.229L11.1797.7089,10.3174,0,6.834,1.061,4.6895,3.1831,3.6455,4.9848,4.6133,6.061,1.0518,9.9077l-.959.8095L0,11.5249l.2256,1.0419.0371.9893.8223.4619.8457,1.0806L3.46,14.6699l1.625-1.1748,1.2412.1382,1.6094.062.539,2.7617,1.2745,1.0019.0761,1.9766,1.0762.6387.6904,1.8896,1.8545-.0088.5655,3.4405,1.5673.5586.5625,1.7714s.9786,2.9932.9864,3.1778c.0068.1855,2.875,4.0322,2.875,4.0322l2.2851,1.5225.2324,1.2265.5127.4756.251,3.3281-.4023,2.4278-.8731,1.3935-1.5586,1.2959-.0156,1.2373,1.7988.1182,1.542-.1211.5576-1.5684-.0283-.7402,1.7676-.6855-.2832-.9161.1426-1.1191.4765-5.3359,2.8594-1.2237.0645-1.5478.3965-.9424,3.8398.1621,6.584.7988,3.6699-1.0693,2.3867.9619,2.9756,1.8027,1.0693,2.0616.9844,1.5078-.1035,2.1689-.6504,2.3731L49.4512,45l-.708.8945-.7949.2148-1.3321,2.4004.3165.1748.8027-.0322-.166.5019,1.2422.1387,3.0146-.4258.4434-1.3144-.0821-.5537,1.3438-.4229-.127-1.7265.5332-2.1846,1.1485-3.9385-.3496-1.0381,1.4043-3.7031.8613-6.5869.8769-6.1543-.289-4.3174.3359-2.5493-.584-2.3272-2.2851-1.519L53.6329,8.8535l-6.1612-1.001-5.0908-.5474-7.2998-.0918-5.5762-.2807-5.6709.4648L21.3741,6.1303,20.0772,4.5732,16.3809,3.2924,17.502,1.8891,17.625.2763l-.9834.1616Z"/>
        <polygon class="cls-2" points="55.014 38.975 53.992 39.262 52.664 43.332 52.437 45.506 52.646 46.854 53.531 46.576 53.404 44.85 53.937 42.665 55.014 38.975"/>
        <polygon class="cls-2" points="26.408 37.475 27.326 37.081 26.546 36.232 25.711 37.068 24.923 40.685 25.257 42.96 25.126 44.387 24.776 44.955 24.77 45.351 26.072 44.846 25.789 43.93 25.932 42.811 26.408 37.475"/>
        <polygon class="cls-2" points="51.59 47.579 50 46.402 48.848 45.762 48.743 45.895 47.948 46.109 46.616 48.51 46.933 48.685 47.735 48.652 47.569 49.154 48.812 49.293 51.826 48.867 52.15 47.905 51.59 47.579"/>
        <polygon class="cls-2" points="22.905 46.142 21.577 45.668 20.45 46.605 20.435 47.843 22.233 47.961 23.775 47.84 24.271 46.445 22.905 46.142"/>
        <polygon class="cls-3" points="51.949 48.503 50.156 48.468 48.255 48.495 49.152 46.513 49.055 46.376 47.772 48.002 46.913 47.976 46.616 48.51 46.933 48.685 47.735 48.652 47.569 49.154 48.812 49.293 51.826 48.867 51.949 48.503"/>
        <polygon class="cls-3" points="23.775 47.84 23.877 47.553 23.084 47.557 21.642 47.473 22.579 46.024 22.069 45.842 21.242 46.699 20.988 47.357 20.44 47.399 20.435 47.843 22.233 47.961 23.775 47.84"/>
        <path class="cls-4" d="M57.9258,14.3774l-.584-2.3272-2.2851-1.519L53.6329,8.8535l-6.1612-1.001-5.0908-.5474-7.2998-.0918-5.5762-.2807-5.6709.4648L21.3741,6.1303,20.0772,4.5732,16.3809,3.2924,17.502,1.8891,17.625.2763l-.9834.1616L13.6368,1.9135l-1.3067-.229L11.1797.7089,10.3174,0,6.834,1.061,4.6895,3.1831l-.3662.6303h0L3.6455,4.9848l.6514.7246.5703-.9985.2422-.2461L6.7237,3.0122,9.5518,1.7915l1.3213.5981,1.0576.9795.4287,1.4683-.664,2.0659a26.07075,26.07075,0,0,0-.7276,2.81c.0137.3711-.0254,1.7637-.0254,1.7637l-2.3789.8335-.9502,1.3716.3223.0132.539,2.7617,1.2745,1.0019.0761,1.9766,1.0762.6387.6904,1.8896,1.8545-.0088.5655,3.4405,1.5673.5586.5625,1.7714s.9786,2.9932.9864,3.1778c.0068.1855,2.875,4.0322,2.875,4.0322l2.2851,1.5225.2324,1.2265.4766.4414,1.7656-.0019,1.6065-.2149.039-.4345,2.8594-1.2237.0645-1.5478.3965-.9424,3.8398.1621,6.584.7988,3.6699-1.0693,2.3867.9619,2.9756,1.8027,1.0693,2.0616.9336,1.4316,2.4883-.0176,1.1934-.4277.2168-.7383-.3496-1.0381,1.4043-3.7031.8613-6.5869.8769-6.1543-.289-4.3174Z"/>
        <path class="cls-5" d="M57.7969,20.0175l-.6133,2.4278-1.0429,3.4404L54.875,28.4072,53.0371,30.457H49.7598l-2.1348-.8447-.8711-1.7598.3379-2.4863-.8379-.8955-2.1972.7636-1.4063,2.0342-1.8838,2.4834-4.7041,1.4785-4.8681.4336s-.9014-.8935-.9073-1.0791c-.0078-.1836-.5078-1.9599-.5078-1.9599l-1.0576-1.752-.289-1.1016-.4043.7578.374,1.6553a16.33334,16.33334,0,0,1,.8896,2.2539c-.0547.1866-.6084,1.8789-.6084,1.8789l-.5771,1.0723-3.8613.8906-1.4366-.3789-1.1142-1.626-.583-2.3281-1-3.4863-.9522-2.252-.334-2.2744.9297-1.581-1.4209.0527-.6601.5215-2.1162-1.961-1.211-2.6103.2666-1.063-.583-.7183-1.4844-.0058-.2285-1.105.0557-1.7949.164-2.169.7266-3.6157-.1484-2.2822L11.2676,2.1894,9.9971,1.311l-1.3418.4834L6.9532,2.541,6.25,3.4379l.4737-.4257L9.5518,1.7915l1.3213.5981,1.0576.9795.4287,1.4683-.664,2.0659a26.07075,26.07075,0,0,0-.7276,2.81c.0137.3711-.0254,1.7637-.0254,1.7637l-2.3789.8335-.9502,1.3716.3223.0132.539,2.7617,1.2745,1.0019.0761,1.9766,1.0762.6387.6904,1.8896,1.8545-.0088.5655,3.4405,1.5673.5586.5625,1.7714s.9786,2.9932.9864,3.1778c.0068.1855,2.875,4.0322,2.875,4.0322l2.2851,1.5225.2324,1.2265.4766.4414,1.7656-.0019,1.6065-.2149.039-.4345,2.8594-1.2237.0645-1.5478.3965-.9424,3.8398.1621,6.584.7988,3.6699-1.0693,2.3867.9619,2.9756,1.8027,1.0693,2.0616.9336,1.4316,2.4883-.0176,1.1934-.4277.2168-.7383-.3496-1.0381,1.4043-3.7031.8613-6.5869.8769-6.1543Z"/>
        <polygon class="cls-3" points="0.61 11.72 0.941 10.686 1.752 10.052 1.765 10.377 2.011 10.738 1.288 11.229 0.61 11.72"/>
        <polygon class="cls-2" points="4.52 8.477 5.807 6.943 6.044 5.866 6.433 5.11 7.901 4.729 8.485 5.45 8.48 6.516 7.03 7.407 5.26 8.401 3.996 9.285 3.937 8.962 4.52 8.477"/>
        <polygon class="cls-3" points="6.507 5.85 7.389 5.862 7.864 6.168 7.642 6.409 6.448 6.733 6.663 6.261 6.507 5.85"/>
        <path class="cls-2" d="M8.5635,12.3105l2.3789-.8335s.0391-1.3926.0254-1.7637a10.73093,10.73093,0,0,1,.3789-1.6186l-.1152.0317L10.3711,9.875l-.6465,1.2778-1.6845.8061-1.6426.711-1.5996.6191s-1.0859.7373-1.2217.7881c-.1367.0522-1.4736.2886-1.4736.2886l-.4268-.2608.96-.3618,1.3301-.3755.3017-.6142-.4209-.0772-.5849.4863-1.5528.6153-.8594.1084.2354.1318.8457,1.0806L3.46,14.6699l1.625-1.1748,1.2412.1382,1.2871.0488Z"/>
        <path class="cls-6" d="M50.2539,38.4785l.9336,1.4316,2.4883-.0176,1.1934-.4277.2168-.7383-.3496-1.0381.0078-.0195-.1328-.0381-2.4434.419-1.4863-1.2891s-1.6065-1.9785-1.751-2.1133a26.52572,26.52572,0,0,1-.8437-2.6572l-2.0518-1.4971-2.75,2.0518-4.5977,1.0576-4.8838-.3691-3.4687-.9805-.499.2969-.3799.9882a12.36373,12.36373,0,0,0-1.4932.9864A27.37443,27.37443,0,0,1,25.42,35.9199l-3.2305-.8057-2.6514-2.6338-1.8144-2.5722L16.5,27.0322l-.6728-.292.3144.9853s.9786,2.9932.9864,3.1778c.0068.1855,2.875,4.0322,2.875,4.0322l2.2851,1.5225.2324,1.2265.4766.4414,1.7656-.0019,1.6065-.2149.039-.4345,2.8594-1.2237.0645-1.5478.3965-.9424,3.8398.1621,6.584.7988,3.6699-1.0693,2.3867.9619,2.9756,1.8027Z"/>
        <polygon class="cls-1" points="15.427 3.839 16.438 3.313 16.381 3.292 17.502 1.889 17.625 0.276 16.642 0.438 13.647 1.908 13.508 2.15 12.789 2.78 12.341 3.167 12.667 4.408 13.772 4.226 15.427 3.839"/>
        <polygon class="cls-2" points="12.732 3.711 13.815 2.927 15.443 1.844 17.099 1.457 16.795 2.024 16.045 3.027 14.493 3.689 12.785 3.893 12.732 3.711"/>
        <polygon class="cls-5" points="13.564 12.118 13.155 12.752 13.47 12.863 14.18 12.033 13.564 12.118"/>
        <polygon class="cls-5" points="13.299 13.242 13.196 13.802 13.535 13.789 13.547 13.264 13.299 13.242"/>
        <polygon class="cls-5" points="16.673 12.556 16.177 13.317 15.26 13.569 15.27 13.846 16.314 13.683 16.967 12.947 16.945 12.421 16.673 12.556"/>
        <path class="cls-5" d="M16.0079,12.1474l-.0381.6206s.2744-.1343.2695-.2265c-.0029-.0933.0996-.6221.0996-.6221Z"/>
        <path class="cls-5" d="M16.4844,16.5205l-.1142,1.0244.2714.6699s.625.1621.6211.0684c-.0019-.0918-.0537-1.4195-.0586-1.5425a8.69608,8.69608,0,0,1,.2432-.9375Z"/>
        <polygon class="cls-5" points="16.032 16.012 15.434 16.53 15.608 17.019 16.051 16.476 16.341 16.001 16.032 16.012"/>
        <polygon class="cls-5" points="21.838 29.549 21.817 30.662 22.314 30.705 22.696 29.392 22.969 28.393 22.422 28.66 21.838 29.549"/>
        <polygon class="cls-5" points="23.321 29.553 22.784 30.069 23.424 30.602 24.495 29.508 24.588 28.701 23.321 29.553"/>
        <polygon class="cls-5" points="15.946 14.563 14.29 14.935 14.623 15.541 15.715 15.005 16.312 14.424 15.946 14.563"/>
        <polygon class="cls-5" points="19.727 14.789 18.316 15.089 19.222 16.168 19.749 15.407 20.335 14.518 19.727 14.789"/>
        <polygon class="cls-5" points="18.684 13.407 18.648 14.087 19.264 14.002 19.287 13.013 18.684 13.407"/>
        <polygon class="cls-5" points="17.047 19.096 16.148 19.872 17.262 19.891 17.614 19.384 17.047 19.096"/>
        <polygon class="cls-5" points="18.941 18.529 18.659 19.22 19.331 19.009 19.6 17.947 20.003 17.189 18.897 17.356 18.941 18.529"/>
        <path class="cls-5" d="M24.3623,22.8359l-.3896,1.1269s1.4131-.2392,1.4062-.4238a6.44267,6.44267,0,0,1,.8194-1.207l-.6934-.3438Z"/>
        <polygon class="cls-5" points="30.944 30.003 32.445 30.441 34.033 29.947 34.49 28.941 32.785 29.625 30.944 30.003"/>
        <polygon class="cls-5" points="31.658 29.297 32.208 27.481 32.581 27.53 32.438 28.647 31.658 29.297"/>
        <polygon class="cls-5" points="30.815 28.277 30.211 28.61 30.773 28.773 31.317 28.443 31.55 28.064 30.815 28.277"/>
        <path class="cls-5" d="M35.3731,27.7939l-.7168.6455s.8115.1543.8642-.0322a8.11174,8.11174,0,0,1,.7032-1.0176l-.0166-.4326Z"/>
        <path class="cls-5" d="M39.3018,28.6328l-2.3252.6445-.1074.4385s1.166-.2305,1.3486-.2989c.1826-.0693.9151-.3457.9151-.3457l.5341-.5761Z"/>
        <polygon class="cls-5" points="33.754 12.954 31.854 13.396 32.564 14.174 34.024 13.562 34.671 12.67 33.754 12.954"/>
        <polygon class="cls-5" points="26.105 23.141 25.515 23.842 26.68 23.611 27.45 22.717 26.105 23.141"/>
        <polygon class="cls-5" points="26.78 21.383 26.805 22 27.583 21.352 27.921 20.473 26.78 21.383"/>
        <polygon class="cls-5" points="24.083 20.373 23.61 20.947 25.022 20.709 25.243 20.02 24.083 20.373"/>
        <polygon class="cls-5" points="23.936 18.152 23.084 18.494 24.637 18.682 24.976 17.864 23.936 18.152"/>
        <polygon class="cls-5" points="28.941 11.591 28.734 12.652 29.15 12.201 29.673 11.316 28.941 11.591"/>
        <polygon class="cls-5" points="34.188 11.39 32.724 11.879 33.346 11.979 34.389 11.754 34.557 11.314 34.188 11.39"/>
        <polygon class="cls-5" points="24.852 27.516 26.015 27.225 26.482 26.524 25.472 25.946 25.499 26.688 24.338 27.04 24.852 27.516"/>
        <polygon class="cls-5" points="25.811 28.345 25.195 28.431 25.582 28.848 26.134 28.704 25.811 28.345"/>
        <polygon class="cls-5" points="37.986 26.58 37.941 27.015 38.488 26.808 38.839 26.237 37.986 26.58"/>
      </g>
    </g>
  </g>
</svg>
