<svg xmlns="http://www.w3.org/2000/svg" width="80.8964" height="73.1641" viewBox="0 0 80.8964 73.1641">
  <defs>
    <style>
      .cls-1 {
        fill: #bc6e39;
      }

      .cls-2 {
        fill: #dd7772;
      }

      .cls-3 {
        fill: #cc6060;
      }

      .cls-4 {
        fill: #d8ac6c;
      }

      .cls-5 {
        fill: #e0b882;
      }

      .cls-6 {
        fill: #ce8651;
      }

      .cls-7 {
        fill: #b28056;
      }
    </style>
  </defs>
  <g id="图层_2" data-name="图层 2">
    <g id="Layer_1" data-name="Layer 1">
      <g>
        <polygon class="cls-1" points="24.148 45.563 21.531 52.107 18.796 56.271 18.438 57.342 19.272 63.171 19.628 64.717 20.937 66.382 22.365 68.404 22.008 69.596 19.51 69.833 16.536 68.404 17.368 66.978 17.368 65.55 16.298 64.599 16.654 60.91 16.179 55.913 15.465 50.917 22.127 43.422 24.148 45.563"/>
        <polygon class="cls-2" points="29.265 47.11 28.075 51.036 25.221 54.725 24.626 55.795 23.555 56.271 23.317 54.605 22.246 54.367 21.651 55.676 20.224 55.557 20.224 53.297 18.915 51.512 18.082 48.537 26.886 44.969 29.265 47.11"/>
        <polygon class="cls-3" points="29.265 47.11 28.377 46.31 27.995 46.397 26.568 49.411 23.555 51.154 21.651 51.154 19.113 49.094 18.326 49.408 18.915 51.512 20.224 53.297 20.224 55.557 21.651 55.676 22.246 54.367 23.317 54.605 23.555 56.271 24.626 55.795 25.221 54.725 28.075 51.036 29.265 47.11"/>
        <polygon class="cls-1" points="59.72 43.422 59.362 51.274 58.53 56.152 58.292 59.839 59.72 64.599 59.72 66.145 61.385 67.097 62.457 69.119 59.362 70.07 57.341 68.881 54.129 54.129 55.794 45.563 59.72 43.422"/>
        <path class="cls-4" d="M69.2382,22.2871l2.0625.1582,3.6456-.0791-.4747,1.5068.3174,3.4883,1.1895,2.1426.31831,1.2686.63379-.4747V28.791l1.0313-3.4902,1.2695-2.9346,1.10941-.2383.55559-2.0615-.2373-2.6172-1.6669-.873-2.4581-1.4278-3.1728-2.3408-2.1406-1.5058L67.4131,8.5654,64.082,8.248,60.2754,9.8359l-2.8545,6.0274-4.125,3.8056-3.212,2.458-4.4013.7139s-2.6182,1.9033-2.9746,2.0225c-.3574.1201-8.0889,1.3095-8.0889,1.3095L25.2207,24.626l-4.4024-1.4278-4.9961.4766L9.5166,25.6973l-1.0703,1.664L4.997,27.2432,1.4267,24.9834,0,25.6973l1.1884,4.9951,2.4991,1.4287,3.0927-1.1895.9522,1.1895L7.375,34.9756l1.1894,3.2109,1.7852,4.6416L9.1611,49.8467l-2.5,2.1406.1191,1.1895,1.7842,4.165,1.0713,8.208-.2383,1.5469,1.666,1.1894.1192,1.1905-.5957,1.665,4.2832,1.4277,1.666-.4765.1182-1.3086-1.6651-2.4981-1.4277-1.1894-.59469-5.1162.35539-6.9004,2.14261-1.9033,4.75879-4.044,2.0225-1.5469,7.3759.9512L37.83,50.084l9.9922-2.6162,2.2617-.834,1.0694,2.1435L50.916,53.415l-.4756,2.4981L51.75,58.6484l1.1894,1.0713,1.6641,8.8047-.4746,1.5459,1.1884.833.7139,1.666,3.3311.5948,2.1416-.2383-.1192-2.6172-2.6172-1.1895-.9502-2.9746-2.0234-8.8027.3574-2.6172,1.0713-7.1387,4.1621-3.8076,1.5479-4.5205.1181-3.8057,4.4014-9.3984Z"/>
        <polygon class="cls-5" points="64.003 9.398 66.857 9.636 66.264 6.542 63.17 2.855 56.627 0 56.151 0.595 61.029 3.094 63.29 6.663 64.003 9.398"/>
        <polygon class="cls-6" points="65.311 10.47 63.885 10.588 59.72 16.179 58.53 17.726 59.72 19.152 62.693 18.202 65.073 13.8 65.549 11.541 66.382 11.064 66.144 10.231 65.311 10.47"/>
        <polygon class="cls-6" points="11.421 46.872 9.636 50.917 8.446 51.987 8.564 53.415 10.112 52.107 11.539 48.537 11.896 46.516 11.421 46.872"/>
        <polygon class="cls-6" points="69.238 22.287 71.301 22.445 74.946 22.366 74.472 23.873 74.789 27.361 75.978 29.504 76.297 30.773 76.931 30.298 76.931 28.791 77.962 25.301 79.231 22.366 80.341 22.128 80.737 20.655 79.23 20.939 76.971 20.818 74.71 20.343 73.044 20.106 70.427 19.985 68.285 19.272 66.62 17.964 65.907 16.536 65.193 15.228 65.311 17.25 66.024 19.152 66.501 20.58 67.334 21.771 67.096 23.316 65.311 28.194 63.766 31.884 62.1 33.906 61.029 32.834 59.481 31.05 58.292 30.574 58.767 31.406 60.554 33.786 61.029 36.165 59.958 38.664 57.459 42.828 56.865 45.445 56.39 46.872 57.223 47.586 61.385 43.778 62.933 39.258 63.051 35.452 67.452 26.054 69.238 22.287"/>
        <polygon class="cls-6" points="47.705 41.518 45.444 43.184 41.043 44.611 37.235 44.969 30.335 45.088 27.837 44.374 25.577 43.898 23.435 42.113 23.317 43.304 22.96 45.205 21.875 47.87 22.246 47.586 29.622 48.537 37.83 50.084 47.822 47.468 50.084 46.634 50.185 46.838 50.559 44.969 47.705 41.518"/>
        <polygon class="cls-6" points="53.771 58.648 52.582 57.223 51.392 54.961 51.511 52.345 51.114 49.564 50.916 53.415 50.44 55.913 51.75 58.648 52.939 59.72 54.603 68.524 54.129 70.07 54.538 70.356 54.842 67.928 54.367 65.431 53.771 58.648"/>
        <polygon class="cls-6" points="56.865 64.479 57.628 65.322 55.794 57.342 56.151 54.725 56.28 53.858 55.437 56.389 54.962 57.46 56.151 61.623 56.865 64.479"/>
        <path class="cls-6" d="M13.5986,67.1269l-1.2256.0879-.834-.3564-.3564-1.4277s-.5957-2.9746-.7139-3.3301c-.1191-.3574-.2373-3.5703-.2373-3.5703l-.7148-2.8545L7.0244,53.7461l1.54,3.5957,1.0713,8.208-.2383,1.5469,1.666,1.1894.1192,1.1905-.5957,1.665,4.2832,1.4277,1.666-.4765.1182-1.3086-1.6651-2.4981Z"/>
        <polygon class="cls-6" points="7.732 32.121 7.375 34.976 8.564 38.186 10.35 42.828 9.351 48.711 10.231 48.063 10.944 45.92 12.373 45.088 12.491 42.945 11.539 40.686 9.517 36.76 9.042 32.359 7.732 30.098 5.947 30.098 2.855 29.741 0.951 28.075 0.36 25.516 0 25.697 1.188 30.692 3.687 32.121 6.78 30.932 7.732 32.121"/>
        <polygon class="cls-1" points="50.472 44.863 46.634 46.277 38.782 48.419 30.811 47.586 22.523 46.277 21.875 47.87 22.246 47.586 29.622 48.537 37.83 50.084 47.822 47.468 50.084 46.634 50.185 46.838 50.559 44.969 50.472 44.863"/>
        <polygon class="cls-4" points="16.536 72.093 16.654 70.784 15.957 69.74 13.442 70.189 10.805 70.533 10.587 71.142 14.87 72.569 16.536 72.093"/>
        <polygon class="cls-6" points="61.504 72.926 61.385 70.309 61.345 70.29 59.244 70.665 55.491 71.307 56.031 72.569 59.362 73.164 61.504 72.926"/>
        <polygon class="cls-1" points="62.693 18.202 65.073 13.8 65.486 11.843 64.161 12.374 62.495 14.83 61.466 17.053 61.32 18.642 62.693 18.202"/>
        <polygon class="cls-1" points="79.786 21.255 80.59 21.208 80.733 20.671 79.865 20.779 78.358 20.541 76.971 20.818 77.011 21.175 78.278 21.018 79.786 21.255"/>
        <polygon class="cls-1" points="80.262 18.558 79.706 17.924 78.755 17.844 78.913 18.161 78.834 18.558 80.262 18.558"/>
        <polygon class="cls-6" points="71.537 14.752 70.269 13.482 69.555 12.626 69.238 11.976 68.007 11.936 67.255 12.689 68.048 13.482 69.158 13.642 70.427 14.435 71.379 14.99 71.537 14.752"/>
        <polygon class="cls-1" points="68.207 12.531 67.859 12.918 68.275 13.215 69.595 13.324 69.327 13.026 69.257 12.392 68.207 12.531"/>
        <polygon class="cls-4" points="75.542 22.425 76.256 22.425 75.839 23.972 75.542 25.637 75.542 26.886 75.186 25.279 75.542 22.425"/>
        <polygon class="cls-4" points="76.375 23.734 75.899 25.279 75.899 26.826 76.375 28.017 76.435 25.815 76.971 23.02 76.375 23.734"/>
        <polygon class="cls-7" points="66.264 6.542 64.17 4.047 64.538 4.759 65.847 7.138 64.836 7.731 63.824 6.899 61.267 2.797 57.994 1.25 56.235 0.488 56.151 0.595 61.029 3.094 63.29 6.663 64.003 9.398 66.857 9.636 66.264 6.542"/>
      </g>
    </g>
  </g>
</svg>
