<svg xmlns="http://www.w3.org/2000/svg" width="93.9883" height="58.3222" viewBox="0 0 93.9883 58.3222">
  <defs>
    <style>
      .cls-1 {
        fill: #c94a03;
      }

      .cls-2 {
        fill: #6d5652;
      }

      .cls-3 {
        fill: #cead97;
      }

      .cls-4 {
        fill: #f4852a;
      }

      .cls-5 {
        fill: #f25800;
      }

      .cls-6 {
        fill: #172b2a;
      }

      .cls-7 {
        fill: #f4d7c3;
      }

      .cls-8 {
        fill: #261c1b;
      }
    </style>
  </defs>
  <g id="图层_2" data-name="图层 2">
    <g id="Layer_1" data-name="Layer 1">
      <g>
        <polygon class="cls-1" points="26.611 11.631 21.836 14.319 17.502 22.329 15.198 30.778 13.278 37.803 10.204 40.709 6.968 41.204 3.675 39.996 2.029 36.814 0.494 36.431 0 37.803 2.084 42.74 6.364 44.166 10.094 44.387 13.332 42.687 18.379 36.649 20.411 27.981 21.288 20.244 23.702 15.086 26.611 11.631"/>
        <polygon class="cls-2" points="18.392 20.686 18.862 19.817 20.439 20.765 19.781 21.259 18.392 20.686"/>
        <polygon class="cls-2" points="16.943 24.38 17.188 23.48 18.573 23.892 20 24.057 20.055 24.769 18.025 24.716 16.943 24.38"/>
        <polygon class="cls-2" points="16.2 27.106 16.621 25.56 17.751 26.469 19.506 26.964 19.781 27.788 18.08 28.007 16.2 27.106"/>
        <path class="cls-2" d="M15.7207,29.3789c-.0249-.0166-.0654-.0459-.1186-.083l.2661-.9707,1.1684.999H19.396l.2197.4932-1.7549.33S15.8857,29.4873,15.7207,29.3789Z"/>
        <path class="cls-2" d="M14.9497,31.6836l2.2315,1.4082,1.9731.247-.0396.1729-.9345,1.0625a9.911,9.911,0,0,1-2.1787-.2295c-.0987-.1074-.8501-.6826-1.4585-1.1709Z"/>
        <path class="cls-2" d="M13.2778,37.8027l.146-.539.7056,1.332,2.1133.6113-.7359.877-1.3242-.2256s-1.0024-.9707-1.4941-1.499Z"/>
        <polygon class="cls-3" points="37.913 32.041 36.706 36.486 33.578 41.698 30.671 44.387 29.298 45.483 29.298 46.361 32.151 49.928 34.236 51.739 36.926 52.287 38.188 52.561 39.23 54.372 39.394 55.471 38.517 55.689 37.748 55.689 37.474 56.402 34.675 56.402 32.262 56.238 31.548 55.854 31.493 55.195 30.287 53.605 29.518 53.33 27.709 50.586 24.909 47.24 22.878 45.373 22.77 43.947 24.14 42.411 24.964 37.692 30.615 28.365 37.913 32.041"/>
        <path class="cls-2" d="M30.6147,39.0654c.1656-.0547,2.3599.3291,2.3599.3291l1.5176.7783-.9146,1.5254-.0136.0137c-.4624-.2656-1.1529-.6621-1.4678-.8369-.4927-.2744-1.3721-.8789-1.3721-.8789l-2.5229.2207.0542-.6035S30.4507,39.1191,30.6147,39.0654Z"/>
        <path class="cls-2" d="M33.249,36.0478c.1651.1084,1.6446.6573,1.8115.7129.0909.0303.8248.044,1.4502.0498l-.9492,1.5821a5.36446,5.36446,0,0,1-1.2138-.2598,12.75694,12.75694,0,0,1-1.6475-1.208,8.49994,8.49994,0,0,0-1.4263-.7139l-2.7431.1651-.1109-.6582s2.5254-.1104,3.2925-.1104A2.97928,2.97928,0,0,1,33.249,36.0478Z"/>
        <polygon class="cls-3" points="74.125 32.315 72.371 38.846 71.437 48.282 71.272 49.982 71.492 51.081 72.864 52.068 74.455 53.878 74.455 54.647 73.578 55.195 73.084 55.471 69.572 55.799 66.225 53.824 69.407 32.974 74.125 32.315"/>
        <polygon class="cls-2" points="67.979 43.509 69.46 43.4 72.004 42.553 71.896 43.632 68.474 44.551 67.979 43.509"/>
        <path class="cls-2" d="M68.1836,40.9824l1.4961-.2734a13.31552,13.31552,0,0,0,2.0307-.7657c.1851-.1113.3921-.2529.5894-.3906l-.0767.7783-.1279.1602s-2.3042,1.0967-2.4687,1.0967c-.1338,0-1.187.2851-1.5943.3945Z"/>
        <polygon class="cls-4" points="85.922 3.181 85.703 1.316 84.605 0 83.288 0.492 82.245 1.974 85.922 3.181"/>
        <path class="cls-5" d="M93.1094,11.8506l.8789-1.1524-.166-.8242L89.709,6.8037l-.8242-1.8682-.1641-.8203L85.5938,2.6875l-3.2935-.9336-2.4683.3848-3.2373,1.207L74.1802,6.1445,71.3809,7.4053,66.1694,9.0517l-2.0293.7129-1.3178.9873-8.7784.0576-7.7363.2168-6.6391.3848-7.9561-1.2617-5.3218,1.042-3.7314,3.457-3.5645,7.8467-.166,7.8457-1.2622,5.1025-2.6318,4.8829L12.124,42.3554l-.2744,1.3721,1.1528,1.3721,2.3599,9.2724,1.0425.9336,1.0967,1.6456,2.7978.2197,2.5249-.1104.1646-.4385,1.6455-.3837-.2749-1.6475-1.2608-.8223-2.688-.7675-.7138-2.7979-.8775-5.2129,1.3169-1.207,5.5406-4.6104s4.4453-4.333,4.5556-4.497c.1079-.1651,2.6328-2.5801,2.6328-2.5801l3.2359.4941,5.269,2.5791,5.2671.9326,6.4185-1.3173,4.3906-.877,4.0049.877,1.3711,1.208.4399,4.8828-.2197,8.3945-.8233,1.8652.7681,1.3721-.3301,2.1944.5498.9335,1.7002,1.042.44,1.1524,3.1264.4931,2.9073-.3837.2758-.5479.878-.0557.2187-1.4814-2.1943-1.9756-1.7559-.7666-.3296-1.5361,1.3174-9.9873.877-6.0909,2.9096-1.371,1.7554-2.3038,1.0415-4.5537,1.8667-2.6347,2.5781-3.1836,1.1514-4.0039,1.5918-1.7559,3.127-.4941,2.4687,1.208,1.2627.0537.3838-.6026.3291-1.207.9883-.9326.6582-.9873Z"/>
        <path class="cls-1" d="M20.2495,52.373l-1.8701.2442-1.4268-2.5244-.8774-3.6221,1.4263-4.9365,4.3886-4.2803,1.9766-4.6094.5479-5.8154,1.0986-4.0606,1.9751-1.3164,1.8647,2.6338,4.4991,1.9756,6.4736-.2207,8.4507-.2188,9.9858,2.8526,3.8408.6592,4.4986-4.0606,2.7441-6.0351,3.6206-3.1827,2.9634-3.621L74.8926,9.3808,71.8262,7.2051l2.354-1.0606.1841-.2139,1.5166.4883,2.7431-.1113-.3296,1.6465-.1089,2.9638.2183,2.962,4.0601,1.7568.5464.6641-1.0396,1.1455-1.1514,4.0039-2.5781,3.1836-1.8667,2.6347L75.333,31.8222,73.5776,34.126,70.668,35.497l-.0396.2823-2.7583-.0625-2.0854.9883-1.8648,6.1464-.7627,2.0332.105-4.0097-.4399-4.8828-1.3711-1.208-4.0049-.877-4.3906.877-6.4185,1.3173-5.2671-.9326-5.269-2.5791-3.2359-.4941s-2.5249,2.415-2.6328,2.5801c-.1103.164-4.5556,4.497-4.5556,4.497l-5.5406,4.6104-1.3169,1.207.8775,5.2129Z"/>
        <polygon class="cls-4" points="85.895 6.802 86.019 7.378 86.677 7.583 87.5 7.583 87.994 7.665 87.994 7.296 87.047 6.802 85.895 6.802"/>
        <polygon class="cls-6" points="86.923 6.39 85.606 6.472 85.772 6.968 86.594 7.214 87.17 6.968 87.994 7.296 86.923 6.39"/>
        <polygon class="cls-1" points="86.895 6.501 86.841 5.87 86.457 5.623 85.825 6.062 85.797 6.501 86.895 6.501"/>
        <polygon class="cls-7" points="75.333 31.822 73.578 34.126 70.897 35.391 69.653 33.495 70.312 31.932 71.546 30.202 72.616 24.772 75.415 22.467 77.307 19.753 79.174 17.502 80.545 15.198 78.844 14.319 77.857 13.99 77.473 13.058 77.801 12.234 77.911 9.326 77.911 7.68 79.722 7.242 83.125 7.131 84.989 8.503 86.196 8.997 86.581 10.752 88.336 11.082 90.201 11.301 92.397 10.533 93.615 11.185 93.109 11.851 92.78 12.729 92.122 13.716 91.134 14.648 90.805 15.855 90.421 16.458 89.158 16.404 86.69 15.196 83.563 15.69 81.971 17.446 80.819 21.45 78.241 24.634 76.375 27.268 75.333 31.822"/>
        <polygon class="cls-6" points="92.067 10.752 92.178 10.149 93.385 10.479 93.93 10.406 93.988 10.698 93.109 11.851 93.085 11.914 92.616 11.301 92.067 10.752"/>
        <path class="cls-7" d="M30.478,33.6611c.0821-.2471,1.8946-2.8828,1.9746-3.2099.083-.3301,2.3887-.6592,2.3887-.6592l1.9751.9863,2.9624.8242,6.9131.8223,13.0029-.9863,2.6348.164,1.3979,2.0586.7422,5.5117-.3296,7.9844-.9052,3.457-.4253,1.5762-.5904-1.0557.8233-1.8652.2197-8.3945-.4399-4.8828-1.3711-1.208-4.0049-.877-4.3906.877-6.4185,1.3173-5.2671-.9326-5.269-2.5791-3.2359-.4941s-2.5249,2.415-2.6328,2.5801c-.0166.0224-.1172.1269-.2744.2861C30.2114,34.3418,30.4434,33.7656,30.478,33.6611Z"/>
        <path class="cls-3" d="M20.1362,43.7832l-1.3169,1.207.8389,4.9863c-.4326-.374-.7856-.6806-.8667-.7617-.2466-.247-.4121-1.6465-.5752-1.8916a12.07608,12.07608,0,0,1-.248-2.2236l1.2343-2.1397s2.4688-1.5634,2.7163-1.8105c.1665-.168,2.0362-.9775,3.5059-1.7647Z"/>
        <path class="cls-1" d="M22.3828,57.0801l-.2173-1.3633-.9043-.8233-.3711-.3291s.4522.041.5767.041a4.30976,4.30976,0,0,1,.7798.4952l.5371,1.1103.1572.5401-.1167.3095Z"/>
        <polygon class="cls-1" points="70.796 58.017 70.972 57.404 70.972 56.458 69.942 55.511 70.023 55.265 71.011 55.84 71.587 56.993 71.486 57.73 71.381 57.938 70.796 58.017"/>
        <polygon class="cls-6" points="87.294 5.814 87.074 4.993 86.031 4.664 85.264 4.883 85.045 5.596 85.428 5.54 86.088 5.157 86.745 5.266 87.294 5.814"/>
        <polygon class="cls-6" points="85.703 3.785 84.879 4.223 84.496 4.936 84.44 5.484 83.837 5.484 84.056 4.498 84.77 3.73 85.482 3.511 85.703 3.785"/>
        <polygon class="cls-3" points="90.695 11.576 90.805 12.729 90.036 13.277 88.008 13.716 86.854 13.99 86.306 13.825 86.471 11.905 87.678 11.467 90.695 11.576"/>
        <polygon class="cls-6" points="84.605 6.692 85.482 7.187 85.428 7.79 85.647 8.559 86.581 8.888 87.294 8.777 87.733 9.216 87.458 9.436 86.965 9.161 85.703 9.161 85.099 8.723 84.55 7.68 84.166 7.187 84.605 6.692"/>
        <polygon class="cls-2" points="88.445 9.82 87.019 10.149 85.592 10.369 84.496 10.479 83.288 9.656 82.738 8.393 82.849 7.242 83.014 6.255 82.191 5.98 81.862 5.705 81.862 5.98 82.245 6.419 82.409 7.021 82.191 8.284 82.409 9.436 83.343 10.588 84.385 10.918 85.374 10.862 86.471 10.643 88.501 9.985 88.445 9.82"/>
        <path class="cls-2" d="M85.208,14.6484l-.5469-1.4267-.1655-.8223-1.6465-.3838-1.7553-.4951-.6041-1.4268-.1093-1.042.0551-1.4267s-.166-.7686-.3295-.8213c-.1641-.0557-.9883-.4404-.9883-.4404l-.1089.4404.7129.4385.2202.9316.0532,1.2617.1651,1.3164.604,1.0987s.7138.6582.8784.6582c.164,0,1.8095.3838,1.8095.3838l.7681.6035.4409,1.207Z"/>
        <path class="cls-2" d="M81.478,13.8799l-1.5361-.6026-.5488-.9883-.2193-1.042-.4394-.1103.3301,1.207s.437.878.5478,1.043a4.19265,4.19265,0,0,0,.8232.5488l.9869.3838Z"/>
        <path class="cls-6" d="M79.3379,5.54l1.1518-.7685.4395-1.1504.6572-1.1524.5498.0547-.2192.8223s-.605.9883-.7144,1.208c-.1088.2178-.7671,1.042-.9331,1.042a4.65191,4.65191,0,0,0-.768.2187Z"/>
        <polygon class="cls-6" points="82.576 3.84 83.343 3.018 84.44 2.632 84.275 3.181 83.178 3.895 82.191 4.993 81.807 4.993 82.576 3.84"/>
        <polygon class="cls-6" points="87.074 3.949 87.623 3.613 88.721 4.115 88.792 4.474 88.609 4.498 87.293 4.442 86.196 4.06 87.074 3.949"/>
        <path class="cls-6" d="M74.5098,27.2685a7.86715,7.86715,0,0,0,.2744-.9873c0-.165.3286-2.2509.3286-2.2509l-.4937-1.8096-.9326-1.7022s-.6587-2.1386-.7138-2.3037c-.0542-.164-.2745-2.5781-.2745-2.9638,0-.3829.2745-2.1377.2745-2.1377l-.3296-1.4278-.5479-1.6465-.2734.0547.6572,2.1407s-.1084,2.0302-.1645,2.1953c-.0542.164-.3287,2.9619-.3287,2.9619l.4932,2.3047,1.4268,2.8535.2192,1.5908s-.1099,1.9209-.1099,2.1406c0,.2188-.1093,1.4258-.1093,1.4258l.8232.8233.604.2744v-.3301Z"/>
        <path class="cls-6" d="M70.5591,34.3994l-.5488.7148L68.584,34.291l-1.5371-2.1953-.9317-2.6338-.3833-2.4678V24.6904c0-.2217-.1113-1.7578-.1113-1.7578l-.1084-1.0977h.2197l.1631,1.7022.4385,4.5527.8242,2.3057,1.2622,2.249.6035,1.3721Z"/>
        <path class="cls-6" d="M63.6455,30.0117c0,.165.2192,1.7012.2192,1.7012s.2193.8769.3848.9863a4.34144,4.34144,0,0,1,.5479.8789l-.1094.6572-.8784-1.5361a6.98752,6.98752,0,0,1-.7671-1.3164c0-.2188.1645-1.5361.1645-1.5361Z"/>
        <path class="cls-6" d="M56.5679,20.7929l.6582.4385s.2202,3.1289.2202,3.294-.1104,2.0293-.1104,2.248a5.21414,5.21414,0,0,0,.0552,1.5918,11.096,11.096,0,0,1,.6582,1.7002c.0547.2754.4385,1.7568.4385,1.7568l-.3276.1651-.5498-1.7569-.9874-1.7558s-.1655-1.9756-.2744-2.4131a33.65269,33.65269,0,0,1-.6049-3.8965A5.57988,5.57988,0,0,1,56.5679,20.7929Z"/>
        <path class="cls-6" d="M23.6475,18.1054s-.3287,1.3711-.3853,1.6475c-.0542.2725-.6592,1.919-.6592,1.919a5.61083,5.61083,0,0,1-.6562.7675,2.78686,2.78686,0,0,1-.8233.2744s.3828-.7128.4942-.8789a7.96935,7.96935,0,0,0,.9331-1.4248c0-.2207.2734-1.4814.2734-1.4814l.1094-.8789Z"/>
        <polygon class="cls-6" points="64.14 9.765 64.185 9.749 63.316 14.045 63.316 16.952 63.92 19.531 64.25 21.452 64.578 22.495 64.853 23.427 64.853 24.908 64.853 26.005 64.47 26.226 64.359 24.744 63.865 22.329 62.877 19.476 62.439 16.458 62.383 12.399 62.447 10.755 62.822 10.752 64.14 9.765"/>
        <path class="cls-6" d="M59.9141,13.4414l.4404,2.414s.2744,3.3477.2744,3.5118.0532,2.249.0532,2.249l.4395,2.0312s.5498,1.1514.605,1.3164a14.45616,14.45616,0,0,1,.5478,1.3711c0,.1641-.0552,1.0987-.0552,1.0987l-.3833.1093-.2207-1.372-.8779-2.9082s-.602-2.3594-.6572-2.6885c-.0552-.3301-.8242-3.291-.8242-3.7305s-.0542-3.8965-.0542-4.0615c0-.1123.2841-1.2861.4629-2.0098l.875-.0058Z"/>
        <path class="cls-6" d="M55.853,17.6679c0,.1641-.437,1.6993-.437,1.6993l-.4394-.0547s.0542-2.1397,0-2.5781c-.0542-.4395-.6031-2.7989-.6592-3.1827a24.71715,24.71715,0,0,1,.3056-2.748l1.6944-.0098-.4072,2.2637v1.9199C55.9102,15.1982,55.853,17.5019,55.853,17.6679Z"/>
        <path class="cls-6" d="M52.1782,12.4541s-.8774,3.6201-.8774,3.7851.0542,1.8106.0542,1.9756.1655,1.3164.1655,1.6446c0,.33-.1103,2.415-.1103,2.415l-.7691,2.0312-.3838,1.2061-.2734-.2197.2197-1.8653a24.90484,24.90484,0,0,0-.4399-2.7431c-.1651-.3838-.1094-4.7725-.1094-4.7725l.3848-4.2803.2216-.7158,2.2129-.0635Z"/>
        <path class="cls-6" d="M46.3076,12.9472l.3472-1.9296,1.6435-.0469-.5634,1.2627s-.3838,2.1406-.3838,2.415.0532,2.085.0532,2.3604v1.5351l-.4937,1.3155-.4379-.3829s.2192-1.4267.2192-1.6464.0542-1.8106,0-2.1397C46.6372,15.3613,46.3076,12.9472,46.3076,12.9472Z"/>
        <path class="cls-6" d="M39.1445,11.3281l-.2441,1.8389s-.6021,1.5351-.7129,1.7558a7.7884,7.7884,0,0,0-.3296,1.5352c0,.2207.1641,1.2627.1641,1.2627h-.4395s-.1636-1.8653-.1636-2.2481c0-.3867,1.043-2.7441,1.043-3.1836a10.92008,10.92008,0,0,0-.1269-1.0898Z"/>
        <path class="cls-6" d="M39.5586,19.6406c.165-.5478.8789-2.5781,1.0977-3.1826.2192-.6026,1.2617-3.5108,1.3178-3.8399.022-.1377.0542-.7168.085-1.3447l1.6894-.0976-.7329,2.7587s-.5478,1.7559-.6582,2.1397c-.1108.3838-1.0434,2.25-1.2627,2.6895a18.84063,18.84063,0,0,1-1.1509,2.1396,5.41959,5.41959,0,0,0-1.0986,1.6455c0,.3301-.165,1.3184-.165,1.3184l-.3828-.0577s.3828-1.9746.4389-2.1376C38.7891,21.5068,39.394,20.1904,39.5586,19.6406Z"/>
        <path class="cls-6" d="M66.1694,9.0517l.4991-.1582-.1148.542-.2744,2.5235.6582,3.292.2744.8232.1651,2.3594h-.2754s-.0547-1.0967-.0547-1.3711a5.26916,5.26916,0,0,0-.1636-1.043c-.0562-.1641-.7139-1.9189-.7139-1.9189l-.1635-1.1534.1635-2.414-.0341-1.4697Z"/>
        <path class="cls-6" d="M72.6982,31.5488l-.2192-.9893s-1.6445-1.5361-1.8652-1.7001a11.59113,11.59113,0,0,1-.9322-1.8106s-.3295-2.5234-.3847-2.8535c-.0547-.3281-.4937-2.6885-.4937-2.8535,0-.1641-.1089-2.0293-.1089-2.0293l-.604-1.4258-.5488-1.4287s.3843-3.7852.3843-3.9492c0-.1651.3276-2.1397.3276-2.3047s.2754-1.5371.2754-1.5371V8.3076l.584-.1846.02.2696-.4946,1.9218s-.4937,3.292-.4937,3.4561c0,.165-.0542,2.1406-.0542,2.1406l1.0425,2.3584.0552,2.3594.3843,3.457.7124,3.1826,1.4267,1.3155,1.2071.7138.2734,1.8662v1.208l-.2734-.2216Z"/>
        <polygon class="cls-6" points="70.174 9.271 69.846 11.631 70.065 13.222 69.791 13.77 69.517 12.399 69.352 9.985 69.85 7.89 70.501 7.684 70.174 9.271"/>
        <polygon class="cls-2" points="79.942 17.887 81.258 18.38 81.592 18.762 81.35 19.607 81.094 19.146 79.887 18.215 79.283 17.337 78.954 16.404 79.283 16.623 79.942 17.887"/>
        <path class="cls-6" d="M75.4414,8.4482l.4395.4395.1655,2.4697.3281,2.3037a20.24538,20.24538,0,0,0,.7681,2.0303c.1645.2197,1.6465,2.0293,1.6465,2.0293l.9868,1.6465.2744,1.7002.1724,1.1201-.6817.8418-.8081-1.1387s-.6025-2.25-.6577-2.5781c-.0552-.3301-.8774-2.4151-.8774-2.4151s-1.2076-1.4814-1.2627-1.6464c-.0542-.1651-.0542-2.25-.1094-2.5225-.0542-.2744-.2735-3.1279-.2735-3.1279l-.2744-1.1524Z"/>
        <polygon class="cls-6" points="63.865 38.68 65.239 39.23 65.732 40.437 65.512 40.931 65.183 40.381 64.47 39.559 63.426 39.339 63.123 39.313 62.981 37.767 63.865 38.68"/>
        <polygon class="cls-6" points="63.199 43.241 63.239 41.729 64.524 42.081 65.512 43.125 66.115 43.727 66.115 44.112 65.018 43.509 63.199 43.241"/>
        <path class="cls-6" d="M32.3726,26.0049s.163-.8213.2182-1.1504.1094-1.5362.1094-1.8125c0-.2735.165-1.919.1099-2.1934-.0547-.2744-.1641-2.7441-.1641-3.0185,0-.2735.4385-1.7559.4936-2.0284.0533-.2763.6031-1.5927.6583-1.8115.0542-.2197.768-3.0185.768-3.0185l.0689-.3584,1.479.2334c-.2818.9804-.8609,2.9785-.9449,3.1435a14.926,14.926,0,0,0-1.4804,2.0293,24.17036,24.17036,0,0,0-.5489,3.4024,25.012,25.012,0,0,0,.1094,3.0175,4.51609,4.51609,0,0,1,0,1.9209c-.1094.4385-.5488,1.5918-.5488,1.5918Z"/>
        <path class="cls-6" d="M28.9697,13.1133c-.0551.164-1.0976,3.5654-1.0976,4.0039,0,.4394.1098,3.9502.1098,4.2802,0,.3291-.1098,2.25-.1098,2.5782,0,.33-.2198,2.4697-.2198,2.4697l-.3833,1.042-.3847-.5488.3296-2.6329s-.2744-2.9082-.2744-3.0742c0-.164-.1651-4.0039-.1651-4.334,0-.3271.5488-3.0175.6035-3.3457.0489-.289.8155-2.2734,1.0015-2.75l1.5859-.3115C29.5889,11.4775,29.0068,13.001,28.9697,13.1133Z"/>
        <path class="cls-6" d="M36.8164,22.3291l.1631-1.7549.4394.2187s-.3291,2.4698-.3833,2.6338c-.0561.1651-.8242,2.1953-.8793,2.4141a15.3829,15.3829,0,0,0,.0551,2.249c.0552.166.1651,1.4815.2202,1.9219.0542.4395,1.3721,2.249,1.2622,2.7969-.0312.1552-.0615.3369-.0898.5166l-1.3125-.6426a4.23933,4.23933,0,0,1-.4097-1.1338c0-.3848-.7671-3.9521-.7671-4.2256,0-.2744-.0542-3.0722.0542-3.2929C35.2788,23.8095,36.8164,22.3291,36.8164,22.3291Z"/>
        <path class="cls-6" d="M30.8896,30.3408a25.83646,25.83646,0,0,0,1.0972,2.4131.83959.83959,0,0,1,.0357.1523c-.3755.3604-.8096.7803-1.1568,1.1231l-.415-1.2754-.604-2.9072s-.3833-2.5235-.3833-2.7442c0-.2187.165-2.084.2192-2.6338.0542-.5488.9326-3.2373.9326-3.2373l.0557-1.2597.4932.164s-.4932,2.085-.4932,2.3037c0,.2198-.2744,1.7012-.2744,2.3037a11.3782,11.3782,0,0,0,0,2.7442C30.6152,28.3652,30.7241,29.6806,30.8896,30.3408Z"/>
        <path class="cls-6" d="M24.8535,30.0117c0-.2754-.1626-1.9766-.1626-2.3047,0-.3301-.2202-1.8662-.2202-1.8662l.2202-.3828.3819.8223s.4404,2.0302.4404,2.25a26.05813,26.05813,0,0,0,.3286,3.1826c.1645.5478,1.3169,3.0175,1.4814,3.5654.1133.3818.3868,1.1855.5445,1.7529-.2735.2686-.5454.5342-.7984.7832a4.69152,4.69152,0,0,0-.1298-1c-.1099-.2197-1.1529-3.2363-1.3179-3.5107A23.96544,23.96544,0,0,1,24.8535,30.0117Z"/>
        <path class="cls-6" d="M22.4946,40.9844s.439-2.9639.439-3.1817c0-.2207.0552-2.9629.0552-3.2383,0-.2734-.1114-2.1396-.1646-2.3584a4.127,4.127,0,0,1,.1094-.9873l.3306.8223.3291,1.8662s.0542,1.4815.1084,2.1397c.0551.6582.1103,2.3603.1103,3.1259a13.49719,13.49719,0,0,1-.1601,1.6856L22.373,41.9219C22.4346,41.4316,22.4946,40.9844,22.4946,40.9844Z"/>
        <path class="cls-6" d="M17.4482,40.4912l.4385.165s1.6446,1.2061,1.8101,1.4248c.1245.168.5967.9356.8418,1.3672l-.4024.335-.188.1709-.3598-.6651-1.5933-1.8652-.7134-.4932Z"/>
        <path class="cls-6" d="M15.3071,45.5937l1.5913-.4941.4395.7139a22.05,22.05,0,0,1-2.4697.9326c-.2017.0254-.8042.0859-1.4146.1269l-.4429-1.7383Z"/>
        <polygon class="cls-4" points="19.862 53.33 20.481 53.021 22.439 53.581 22.247 53.658 19.697 54.482 17.557 54.317 18.379 53.741 19.862 53.33"/>
        <path class="cls-6" d="M17.5273,35.7021l.9082-.1494,1.7007-.6035.9317-.6035.165.3838a3.43526,3.43526,0,0,1-1.2617,1.2627c-.5762.3066-2.3316,1.0683-3.4087,1.5Z"/>
        <path class="cls-6" d="M22.0562,28.9687a4.48628,4.48628,0,0,1-1.3731,1.9209c-.7119.5489-1.6997,1.1514-1.8638,1.2608a1.844,1.844,0,0,1-.3672.1172l.4371-1.7666.7524-.3243a14.31919,14.31919,0,0,0,1.8667-1.8115c.0542-.2754.5479-1.3164.7129-1.7012a7.72351,7.72351,0,0,1,.9868-1.2607h.4937a15.694,15.694,0,0,0-.7681,1.4258C22.8784,27.0488,22.2212,28.4746,22.0562,28.9687Z"/>
        <polygon class="cls-4" points="82.056 3.287 81.338 4.635 80.621 6.113 79.041 5.98 78.324 4.434 79.041 2.953 80.119 2.547 82.056 3.287"/>
        <polygon class="cls-1" points="80.794 3.592 81.68 3.993 81.338 4.635 80.783 5.779 79.367 5.072 79.258 4.359 80.08 3.644 80.794 3.592"/>
        <polygon class="cls-4" points="66.032 54.893 66.115 54.152 67.761 53.577 68.786 53.03 68.803 53.111 70.559 53.878 71.253 54.504 68.501 54.976 66.032 54.893"/>
        <path class="cls-6" d="M53.1118,28.4746V25.6767c0-.3847.3843-2.6884.3843-2.6884l.3276-1.9209-.1089-1.4805.3833.2725-.0542,1.0439s.1646,1.6455.1646,1.9209c0,.2734-.2192,2.4141-.1646,2.7422.0552.3301.605,2.8535.605,3.4023,0,.5498.437,2.0313.437,2.25,0,.2178,1.3169,1.3164,1.5371,1.4805.2193.1641,1.7007,1.043,1.7007,1.043l.188.3984-1.0654-.2334-2.4033.4795-1.0537-1.4668s-.8233-1.1523-.8775-1.3174a12.60863,12.60863,0,0,1-.2754-1.6474C52.8364,29.6826,53.1118,28.6406,53.1118,28.4746Z"/>
        <path class="cls-8" d="M53.9893,32.9199s-.8233-1.1523-.8775-1.3174a12.60863,12.60863,0,0,1-.2754-1.6474c0-.2725.2754-1.3145.2754-1.4805V26.8613l1.2617.3594a15.09133,15.09133,0,0,1,.2754,1.748c0,.5498.437,2.0313.437,2.25,0,.2178,1.3169,1.3164,1.5371,1.4805.2193.1641,1.7007,1.043,1.7007,1.043l.188.3984-1.0654-.2334-2.4033.4795Z"/>
        <path class="cls-2" d="M53.9893,32.9199s-.4288-.6006-.6875-.9971l2.2285-.1689c.4023.3857.9565.8447,1.0927.9453.2193.1641,1.7007,1.043,1.7007,1.043l.188.3984-1.0654-.2334-2.4033.4795Z"/>
        <path class="cls-6" d="M46.9106,23.7012c0-.1641-.2187-2.1944-.2187-2.1944l.3838.1094s.2754,1.6465.2754,1.8105c0,.1651-.0562,2.085-.0562,2.4141,0,.3301-.3286,2.7998-.3843,3.0723a15.20211,15.20211,0,0,0,1.1534,2.9091c.2197.3829,1.4804,1.92,1.6455,2.1387.102.1348.7143.7627,1.1767,1.2695l-3.0307.6202c-.0459-.0694-.0884-.1338-.1206-.1875a24.84837,24.84837,0,0,1-1.209-2.4151,10.09559,10.09559,0,0,1-.6011-2.7968,32.81753,32.81753,0,0,1,.437-3.6221C46.4727,26.2256,46.9106,23.8672,46.9106,23.7012Z"/>
        <path class="cls-8" d="M47.2949,25.8408c0,.3301-.3286,2.7998-.3843,3.0723a15.20211,15.20211,0,0,0,1.1534,2.9091c.2197.3829,1.4804,1.92,1.6455,2.1387.102.1348.7143.7627,1.1767,1.2695l-3.0307.6202c-.0459-.0694-.0884-.1338-.1206-.1875a24.84837,24.84837,0,0,1-1.209-2.4151,10.09559,10.09559,0,0,1-.6011-2.7968,32.81753,32.81753,0,0,1,.437-3.6221c.0396-.2168.1216-.6621.2119-1.1485l.7242-.0195C47.2959,25.7392,47.2949,25.8027,47.2949,25.8408Z"/>
        <path class="cls-2" d="M46.2485,32.373l.4434.0518,1.7051-.1289c.456.6045,1.1889,1.5019,1.3125,1.665.102.1348.7143.7627,1.1767,1.2695l-3.0307.6202c-.0459-.0694-.0884-.1338-.1206-.1875a24.84837,24.84837,0,0,1-1.209-2.4151A8.65157,8.65157,0,0,1,46.2485,32.373Z"/>
        <path class="cls-8" d="M56.5669,27.8467l.7495.2148a.79623.79623,0,0,0,.0747.3037,11.096,11.096,0,0,1,.6582,1.7002c.0547.2754.4385,1.7568.4385,1.7568l-.3276.1651-.5498-1.7569-.9874-1.7558S56.6011,28.208,56.5669,27.8467Z"/>
        <path class="cls-6" d="M43.2339,25.1279s-.8765,1.9209-.9312,2.1406a23.14959,23.14959,0,0,0-.6591,2.25,7.78981,7.78981,0,0,0,.603,2.4131c.2192.4932,1.0986,1.7549,1.2085,1.9756a2.50033,2.50033,0,0,1,.1084.7686l-.2183.0537s-.769-1.043-.9326-1.3155a20.8964,20.8964,0,0,0-1.3721-1.7011,5.95152,5.95152,0,0,1-.9341-1.8662,10.05389,10.05389,0,0,1,.6587-1.7569s1.1529-1.3701,1.3169-1.5908c.1646-.2187.9336-1.9199.9336-1.9199Z"/>
        <path class="cls-8" d="M42.082,26.499a6.94571,6.94571,0,0,0,.3736-.7129l.4873-.0127c-.2622.5791-.607,1.3584-.6402,1.4951a23.14959,23.14959,0,0,0-.6591,2.25,7.78981,7.78981,0,0,0,.603,2.4131c.2192.4932,1.0986,1.7549,1.2085,1.9756a2.50033,2.50033,0,0,1,.1084.7686l-.2183.0537s-.769-1.043-.9326-1.3155a20.8964,20.8964,0,0,0-1.3721-1.7011,5.95152,5.95152,0,0,1-.9341-1.8662,10.05389,10.05389,0,0,1,.6587-1.7569S41.918,26.7197,42.082,26.499Z"/>
        <path class="cls-2" d="M42.231,31.8945a.39576.39576,0,0,1,.0156.0371c.2192.4932,1.0986,1.7549,1.2085,1.9756a2.50033,2.50033,0,0,1,.1084.7686l-.2183.0537s-.769-1.043-.9326-1.3155a21.0401,21.0401,0,0,0-1.3291-1.6552Z"/>
        <path class="cls-8" d="M65.7319,26.3105l.3951-.3584.2065,2.1377.8242,2.3057,1.2622,2.249.6035,1.3721,1.5357.3828-.5488.7148L68.584,34.291l-1.5371-2.1953-.9317-2.6338-.3833-2.4678Z"/>
        <path class="cls-8" d="M69.1836,20.4931l.0044.1358.3843,3.457.7124,3.1826,1.4267,1.3155,1.2071.7138.2734,1.8662v1.208l-.2734-.2216-.2203-.6016-.2192-.9893s-1.6445-1.5361-1.8652-1.7001a11.59113,11.59113,0,0,1-.9322-1.8106s-.3295-2.5234-.3847-2.8535c-.0547-.3281-.4937-2.6885-.4937-2.8535V21.331Z"/>
        <path class="cls-2" d="M72.6982,31.5488l-.2192-.9893s-.4106-.3818-.8477-.7861l.2183-1.1074,1.0689.6318.2734,1.8662v1.208l-.2734-.2216Z"/>
        <path class="cls-8" d="M72.9727,18.2148c.0551.1651.7138,2.3037.7138,2.3037l.9326,1.7022.4937,1.8096s-.3286,2.0859-.3286,2.2509a7.86715,7.86715,0,0,1-.2744.9873l.8232,1.2061v.3301l-.604-.2744-.8232-.8233s.1093-1.207.1093-1.4258c0-.2197.1099-2.1406.1099-2.1406l-.2192-1.5908L72.479,19.6963l-.4932-2.3047s.0098-.0977.0249-.2569l.7735-.6787C72.8506,17.2402,72.9404,18.1181,72.9727,18.2148Z"/>
        <path class="cls-2" d="M74.8198,22.957l.293,1.0733s-.3286,2.0859-.3286,2.2509a7.86715,7.86715,0,0,1-.2744.9873l.8232,1.2061v.3301l-.604-.2744-.8232-.8233s.1093-1.207.1093-1.4258c0-.2197.1099-2.1406.1099-2.1406l-.0747-.5498Z"/>
        <path class="cls-8" d="M75.8467,12.9472l.3618-.4433.166,1.1572a20.24538,20.24538,0,0,0,.7681,2.0303c.1645.2197,1.6465,2.0293,1.6465,2.0293l.9868,1.6465.2744,1.7002.1724,1.1201-.6817.8418-.8081-1.1387s-.6025-2.25-.6577-2.5781c-.0552-.3301-.8774-2.4151-.8774-2.4151s-1.2076-1.4814-1.2627-1.6464C75.8892,15.1113,75.8809,13.5595,75.8467,12.9472Z"/>
        <path class="cls-8" d="M76.0464,11.3574l.0317.2227-.4331-.8018c-.0512-.6357-.0928-1.1777-.0928-1.1777l-.2744-1.1524h.1636l.4395.4395Z"/>
        <path class="cls-2" d="M77.9683,18.9521l.9052-1.0888.9024,1.5039.2744,1.7002.1724,1.1201-.6817.8418-.8081-1.1387s-.6025-2.25-.6577-2.5781A2.97515,2.97515,0,0,0,77.9683,18.9521Z"/>
        <polygon class="cls-6" points="86.36 14.209 86.472 13.88 87.24 13.825 88.501 13.99 90.312 14.265 91.454 14.347 91.213 14.573 90.916 14.539 89.818 14.43 88.665 14.209 87.787 14.209 86.69 14.43 86.36 14.209"/>
      </g>
    </g>
  </g>
</svg>
