<svg xmlns="http://www.w3.org/2000/svg" width="121.89249" height="91.6685" viewBox="0 0 121.89249 91.6685">
  <defs>
    <style>
      .cls-1 {
        fill: #7a3e22;
      }

      .cls-2 {
        fill: #a55520;
      }

      .cls-3 {
        fill: #cc7832;
      }

      .cls-4 {
        fill: #c69675;
      }
    </style>
  </defs>
  <g id="图层_2" data-name="图层 2">
    <g id="Layer_1" data-name="Layer 1">
      <g>
        <polygon class="cls-1" points="75.624 40.671 70.648 47.514 69.405 49.504 69.031 53.359 68.782 59.952 68.907 62.44 67.289 65.797 66.171 74.628 66.544 80.351 67.289 81.843 67.289 83.336 70.399 85.076 71.768 86.57 71.768 87.689 70.773 88.063 70.524 88.686 63.682 87.439 61.32 82.838 61.693 66.793 63.558 43.782 75.624 40.671"/>
        <polygon class="cls-2" points="26.867 48.509 26.245 56.47 23.385 63.435 22.638 71.021 22.762 75.996 24.254 80.475 25.871 81.843 26.494 82.963 29.479 84.206 30.97 86.32 30.722 87.068 28.483 86.941 27.612 87.814 23.011 86.818 21.517 85.076 21.643 83.086 20.896 81.47 19.031 80.848 19.279 77.863 17.662 73.51 16.792 72.017 17.041 70.65 18.285 65.177 17.289 60.697 13.807 54.355 15.423 45.774 20.647 45.524 26.867 48.509"/>
        <polygon class="cls-3" points="7.836 28.982 4.477 30.723 2.985 34.826 1.741 43.534 1.741 52.117 1.741 58.584 2.985 58.584 3.11 45.026 3.607 38.808 4.477 34.081 7.712 32.588 7.961 28.607 7.836 28.982"/>
        <polygon class="cls-2" points="1.119 57.962 3.11 57.962 3.856 58.832 3.234 62.69 2.239 66.295 1.99 69.03 1.867 70.4 0.996 70.4 0 66.295 0.373 61.07 1.119 57.962"/>
        <polygon class="cls-3" points="120.275 6.343 120.525 6.966 120.525 7.961 121.643 9.329 121.892 10.449 120.275 11.319 119.655 12.438 118.161 13.184 116.046 12.936 114.555 11.94 110.326 13.558 105.972 14.926 104.729 14.677 102.116 21.394 96.768 29.852 89.429 36.195 82.712 39.802 75.126 42.289 70.399 44.529 66.669 48.881 65.549 53.857 65.3 60.697 65.922 63.933 65.424 65.672 63.932 68.038 63.186 75.748 63.682 81.718 64.43 83.584 64.305 85.076 66.792 86.941 68.658 88.311 69.031 89.678 68.161 90.673 67.912 91.669 62.315 91.669 59.08 90.424 57.837 88.434 58.833 86.071 59.08 83.211 59.952 79.606 60.2 68.535 58.334 66.295 58.833 62.815 59.578 58.584 57.962 50.872 56.841 49.256 54.727 50.002 45.026 52.117 33.086 52.364 26.494 50.127 20.399 47.266 18.161 47.764 17.165 49.131 16.418 53.732 15.175 58.334 12.438 62.315 11.443 66.917 11.194 71.52 11.817 73.883 14.802 81.22 16.045 82.588 16.045 84.331 15.921 85.573 19.279 86.57 20.771 88.561 20.522 89.678 16.045 89.926 13.184 89.304 11.94 87.565 12.066 85.699 10.449 84.828 9.577 83.709 10.199 81.346 8.458 76.246 6.468 71.396 4.852 69.155 4.852 67.663 5.721 62.938 5.224 54.979 4.105 42.663 5.224 32.091 7.961 28.607 10.696 25.499 11.071 25.249 12.563 21.767 14.677 20.771 19.902 18.906 23.88 16.418 28.607 11.816 33.956 6.717 39.429 4.976 44.279 5.848 51.121 8.957 55.35 13.309 58.833 16.171 63.682 17.165 66.916 18.657 70.151 22.638 72.513 26.121 78.609 25.871 83.956 23.385 90.301 18.285 93.161 11.568 97.889 3.483 102.49 0.747 107.341 1.617 111.32 3.732 113.684 4.976 117.788 5.596 120.275 6.343"/>
        <polygon class="cls-3" points="103.36 2.862 102.49 1.867 101.246 0 99.503 0 98.758 1.369 102.116 3.856 103.36 2.862"/>
        <polygon class="cls-2" points="55.35 13.309 53.235 9.205 49.628 5.099 43.16 2.737 37.687 1.99 33.956 3.856 31.841 7.587 27.738 10.449 24.254 13.309 23.011 16.171 21.643 18.41 24.503 16.791 30.473 11.072 33.831 7.712 36.692 6.593 40.673 6.095 45.15 7.09 49.38 8.957 51.742 10.696 55.35 13.309"/>
        <polygon class="cls-4" points="119.82 7.796 119.82 6.882 118.907 6.303 117.83 6.385 119.82 7.796"/>
        <polygon class="cls-1" points="119.364 7.961 119.364 7.008 118.907 6.717 117.788 6.717 118.327 7.338 119.364 7.961"/>
        <polygon class="cls-2" points="120.028 11.072 118.742 10.986 117.415 10.53 117.913 10.075 119.033 10.075 120.855 9.827 121.673 9.458 121.892 10.449 120.341 11.283 120.028 11.072"/>
        <path class="cls-1" d="M116.17179,10.0332l1.6997.4575,1.6158.4561,1.4516-.4561.9414-.0976.0122.0556-1.6176.8702-.0103.021a9.17137,9.17137,0,0,1-1.1084.0205c-.1645-.0415-2.3213-.7471-2.3213-.7471l-1.7417-.1646-.249-.2915.1665-.3305Z"/>
        <polygon class="cls-1" points="109.89 5.225 108.461 5.163 107.526 5.286 108.211 6.033 109.953 6.593 109.953 5.971 110.201 5.411 109.89 5.225"/>
        <polygon class="cls-4" points="110.326 4.727 109.08 4.913 107.713 4.913 107.279 4.416 108.521 4.23 109.766 4.043 110.326 4.727"/>
        <polygon class="cls-2" points="103.214 2.979 102.436 3.6 101.37 2.862 100.189 1.617 100.437 0.622 101.432 0.934 103.214 2.979"/>
        <polygon class="cls-2" points="75.126 42.289 70.399 44.529 66.669 48.881 65.973 51.969 66.169 48.425 67.579 46.271 69.156 43.036 70.15 38.643 70.067 34.828 69.984 32.092 72.472 34.828 74.711 36.485 78.277 37.067 83.002 35.159 86.652 32.339 93.203 26.121 99.339 17.995 99.835 15.092 99.339 13.269 99.254 10.033 99.503 8.127 100.5 7.546 101.245 9.04 102.324 11.528 104.645 12.523 108.458 12.689 112.605 11.775 114.926 11.195 116.336 11.941 117.995 12.523 119.85 12.085 119.655 12.438 118.161 13.184 116.046 12.936 114.555 11.94 110.326 13.558 105.972 14.926 104.729 14.677 102.116 21.394 96.768 29.852 89.429 36.195 82.712 39.802 75.126 42.289"/>
        <polygon class="cls-2" points="66.502 18.907 66.019 18.243 66.916 18.657 70.151 22.638 72.513 26.121 78.609 25.871 83.956 23.385 90.301 18.285 92.628 12.822 92.124 15.59 90.88 19.321 86.983 22.472 82.754 25.208 78.608 26.867 74.462 27.198 72.307 26.867 70.564 24.545 67.994 21.643 66.502 18.907"/>
        <polygon class="cls-2" points="6.468 71.396 4.852 69.155 4.852 67.663 5.721 62.938 5.224 54.979 4.105 42.663 5.224 32.091 7.961 28.607 9.365 27.013 9.577 29.852 13.061 35.573 17.538 35.946 19.529 32.713 21.393 32.091 26.618 34.951 32.339 39.429 41.419 41.917 47.141 39.927 52.489 36.195 53.981 36.32 54.106 40.424 55.972 44.776 59.578 48.136 60.077 52.986 60.574 58.085 60.077 63.062 60.325 65.922 61.568 68.285 61.195 72.017 60.698 79.356 60.449 84.206 60.449 86.443 58.956 87.936 58.262 89.114 57.837 88.434 58.833 86.071 59.08 83.211 59.952 79.606 60.2 68.535 58.334 66.295 58.833 62.815 59.578 58.584 57.962 50.872 56.841 49.256 54.727 50.002 45.026 52.117 33.086 52.364 26.494 50.127 20.399 47.266 18.161 47.764 17.165 49.131 16.418 53.732 15.175 58.334 12.438 62.315 11.443 66.917 11.194 71.52 11.817 73.883 14.802 81.22 16.045 82.588 16.045 84.331 15.921 85.573 19.279 86.57 20.771 88.561 20.522 89.678 16.045 89.926 13.184 89.304 11.94 87.565 12.066 85.699 10.449 84.828 9.577 83.709 10.199 81.346 8.458 76.246 6.468 71.396"/>
        <polygon class="cls-2" points="65.238 88.621 64.554 87.626 66.171 88.311 68.415 90.382 68.161 90.673 67.912 91.669 67.179 91.669 66.481 89.864 65.238 88.621"/>
        <path class="cls-1" d="M11.0278,60.4492l2.6538-2.9018s1.4932-4.9751,1.4932-5.3081c0-.3306,1.8232-8.0435,1.8232-8.0435l.3325-4.7251.8301.2495.3301,2.4043,1.4927,1.4927,4.892,1.9897,5.9707,1.7422,18.4082-2.4062,2.7364-2.1548.9116.6626.332,2.8208,2.8194,2.0728.6958.9433-2.0225.7139-9.7007,2.1152-11.9404.2476-6.5923-2.2378-6.0947-2.8604-2.2383.4976-.9951,1.3677-.7476,4.6005-1.2431,4.6026L12.4379,62.315l-.9951,4.602-.249,4.603.623,2.3628.211.5181-1-.9351s-1.6582-3.9775-1.6582-4.2275.332-4.4775.332-4.4775Z"/>
        <polygon class="cls-2" points="62.355 64.513 64.015 62.523 65.477 61.617 65.922 63.933 65.424 65.672 64.349 67.378 62.273 65.839 62.355 64.513"/>
        <path class="cls-1" d="M5.0576,43.4507l.7466,5.0581s.414,6.7158.414,6.9658c0,.2476.167,5.8863.167,5.8863v3.0688l-.332,2.8208s-.0821,2.4023.2485,2.6519c.332.248,2.2388,2.6518,2.2388,2.6518l1.9072,7.7129.083,2.7354-.1665,1.7177-.7871-1.0117.6221-2.3628L8.4584,76.2456,6.4682,71.3955,4.852,69.1553V67.6626l.8691-4.7251-.497-7.9585L4.1049,42.6626,5.2241,32.0908v5.9693Z"/>
        <polygon class="cls-1" points="15.837 86.735 17.081 87.068 18.574 88.394 19.383 89.743 17.916 89.822 16.832 88.063 15.506 86.983 15.837 86.735"/>
      </g>
    </g>
  </g>
</svg>
