<svg xmlns="http://www.w3.org/2000/svg" width="98.4033" height="120.78609" viewBox="0 0 98.4033 120.78609">
  <defs>
    <style>
      .cls-1 {
        fill: #ac7c53;
      }

      .cls-2 {
        fill: #aa6f39;
      }

      .cls-3 {
        fill: #965b2a;
      }

      .cls-4 {
        fill: #cba15e;
      }

      .cls-5 {
        fill: #604330;
      }

      .cls-6 {
        fill: #815a3f;
      }

      .cls-7 {
        fill: #b78558;
      }

      .cls-8 {
        fill: #c6a271;
      }
    </style>
  </defs>
  <g id="图层_2" data-name="图层 2">
    <g id="Layer_1" data-name="Layer 1">
      <g>
        <path class="cls-1" d="M6.003,65.38719l.6845,7.5469,3.0889,8.4043-.6865,7.7173-2.9161,4.459-1.1992,2.2299.8565,4.1167-.5156,10.2906v2.229l1.03121.8584.68549,1.8857.5147,1.3726,3.7734.8569,2.9151-.3428v-2.0571l-3.086-1.5435-.6875-1.8867-1.0283-.8584-.3437-10.291,5.1455-3.4292,3.2588-12.0059s-1.7159-14.2358-2.4024-14.4067c-.6846-.1724-3.9424-7.3755-3.9424-7.3755Z"/>
        <path class="cls-1" d="M59.1709,83.396l-.6855,10.2915-.1719,5.1445.5137,2.4014-.3418,3.4307-.6866,6.688-.6865,2.059,1.0293,1.5435.5147,2.3999,1.2002.8574,4.458.3443.5166-1.0288-2.5733-3.2588-.8574-.6866.3428-2.916,1.373-11.6616s1.8848-6.0029,1.8848-6.5176c0-.5151.34471-13.2065.34471-13.2065Z"/>
        <polygon class="cls-2" points="0 64.959 2.829 64.444 6.687 61.743 16.08 53.253 21.096 50.682 24.055 50.81 34.86 52.224 46.179 52.739 49.78 52.353 55.184 50.938 59.685 50.938 63.673 50.81 66.503 48.88 69.332 44.249 74.221 35.117 77.051 31.128 81.295 30.486 85.798 32.287 90.429 35.502 91.199 37.174 96.216 40.133 98.403 41.677 98.403 43.092 96.989 44.634 95.96 45.407 95.316 46.564 91.327 46.435 88.627 47.594 88.37 49.909 90.942 52.739 90.043 59.814 86.569 67.146 81.295 73.062 77.307 80.266 75.249 83.353 72.934 85.283 71.777 94.288 70.877 99.818 70.103 101.619 70.877 113.582 71.262 115.382 73.063 117.441 73.063 118.212 75.122 119.627 75.378 120.786 70.49 120.657 69.718 119.242 69.204 117.955 68.047 117.955 67.66 116.412 68.047 114.097 66.117 101.619 64.445 99.047 62.001 89.657 60.971 84.511 54.411 85.025 46.693 83.611 38.462 82.711 34.345 82.324 30.871 83.225 29.328 88.628 25.212 93.386 20.067 98.146 19.038 100.719 19.551 104.32 22.896 114.354 23.325 115.468 26.069 117.184 26.754 119.928 20.924 119.242 20.067 117.354 20.067 115.811 18.865 115.641 18.353 114.097 18.694 111.867 16.293 106.379 11.835 98.317 12.006 96.088 13.55 94.029 14.75 85.454 11.835 79.451 9.261 71.562 8.918 67.275 5.315 68.304 2.058 66.931 0 64.959"/>
        <path class="cls-3" d="M68.0899,100.20409s-1.7159-8.2324-1.7159-8.7471-1.5429-6.0029-1.5429-6.0029l-3.2588-1.8857-.6865-3.774,1.7158-3.2583-.8584-1.7148-1.2002,2.23-4.6309,3.0864-17.8379.1719-5.6591-1.544L29.5,78.937l1.211,4.8496.1601-.562,3.47361-.9004,4.11719.3867,8.2315.8999,7.7178,1.4141,6.55951-.5137,1.03029,5.1455,2.4443,9.3907,1.6719,2.5717,1.8633,12.0567.7949-.0938-.51369-6.8603.68459-3.9453Z"/>
        <polygon class="cls-3" points="12.006 96.088 11.835 98.317 16.293 106.379 18.694 111.867 18.353 114.097 18.865 115.641 20.067 115.811 20.067 117.354 20.924 119.242 26.754 119.928 26.069 117.184 23.325 115.468 22.896 114.354 19.551 104.32 19.038 100.719 20.067 98.146 24.245 94.281 20.408 94.374 19.211 91.457 19.038 85.97 15.092 80.651 12.006 73.62 10.633 64.359 10.804 61.443 8.918 63.158 4.974 66.417 1.118 66.032 2.058 66.931 5.315 68.304 8.918 67.275 9.261 71.562 11.835 79.451 14.75 85.454 13.55 94.029 12.006 96.088"/>
        <polygon class="cls-3" points="24.525 62.129 25.555 61.272 33.272 69.847 33.787 73.964 31.729 76.194 29.843 76.194 28.814 71.562 26.754 66.074 24.525 62.129"/>
        <path class="cls-4" d="M82.8379,32.28659l5.17481,1.5381-2.21481-1.5381-4.503-1.8003-4.2441.6416-2.83009,3.9893L69.3321,44.249l-2.8291,4.6309-2.8301,1.9302-3.9883.1279h-4.501l-5.4033,1.4155-3.60159.3853-11.31831-.5147-10.80569-1.414-2.959-.1285-5.01561,2.5713-4.042,3.6548,5.1133-2.6675,4.1162-2.4018,8.74511,1.5439,10.97759,2.0581,7.2031.1719,6.6894-2.7451,7.2032.5151,5.3173,1.5435,3.4297,3.6016,1.0303-1.0298-1.7158-8.2315s1.7158-5.6592,1.7158-6.1738c0-.5151,3.4287-7.0317,3.4287-7.0317l3.2598-3.6026Z"/>
        <path class="cls-3" d="M90.9424,52.73879l-2.5723-2.8296.2569-2.3154.46871-.2007-2.14061.3296-3.7725-.8589-3.08789-4.8013,3.08789,6.5181,1.8848,4.1152s-1.3711,5.8316-1.3711,6.3457c0,.5147-2.915,10.6343-2.915,10.6343l-2.05859,4.8017-2.40141,5.1456-2.2295,2.7441.4043,1.6143.7529-.6285,2.05771-3.0874L81.2949,73.062l5.2745-5.916,3.4736-7.332Z"/>
        <path class="cls-3" d="M88.627,36.53129l2.7002,2.186c-.3848.5156-3.5996-1.415-3.5996-1.415Z"/>
        <polygon class="cls-5" points="89.399 36.144 89.206 37.174 89.464 37.881 87.533 37.689 86.633 37.302 87.856 36.403 88.436 35.759 89.399 36.144"/>
        <polygon class="cls-3" points="88.37 44.892 84.897 44.249 82.067 40.391 81.295 40.519 82.067 42.705 83.997 45.149 87.728 46.05 90.229 46.908 91.327 46.435 95.316 46.564 95.96 45.407 91.458 44.506 88.37 44.892"/>
        <polygon class="cls-6" points="98.403 41.677 97.437 40.994 96.603 41.29 96.732 42.449 97.374 42.577 97.591 43.979 98.403 43.092 98.403 41.677"/>
        <polygon class="cls-1" points="80.653 32.158 78.208 31 75.508 27.269 72.934 28.041 74.35 31.128 79.494 33.443 80.653 32.158"/>
        <polygon class="cls-7" points="82.453 22.253 86.569 22.253 90.043 20.838 92.486 18.651 93.129 19.423 89.528 23.668 86.056 24.697 80.91 25.083 82.453 22.253"/>
        <path class="cls-8" d="M49.7803,16.07859l-5.01559,5.6602-4.37411,3.2153-1.8007.6431.5146.9009,4.11621-1.6719,4.24509-2.959,3.8575-2.187,4.5039-1.0288,7.4609,1.0288,10.5469,2.187,3.8584,2.8296,1.9306,4.6318.7725,1.7993,2.5713.3853-.3857-3.9858-.3858-2.1866,1.2871-1.2871,1.544-4.2451,3.3427-4.7588.64261-1.9302-1.02731-.1279-1.2871,2.186-2.7012,2.5738-3.2158,2.3149-1.9307.5147-1.67089-.7725-.12891-2.958,2.959-2.4443,2.3154-2.5718,1.0293-2.4448-.7724-.3858-1.8008,2.315-3.8594,3.2163-2.1856,1.5434-3.7314,1.4146-1.6728-2.0581-1.7999-5.6602-.64349-3.8584L66.503,3.98629l-.8995.2583-.12979,3.2159.25679,4.374V14.792l-1.6719,1.1582-3.2158.771-2.5723-1.0278L56.2129,14.021,53.126,9.26119l-3.0869-4.1167L48.624,0,47.3369.64306l.7715,4.11623s.9014,2.8291,1.02931,3.2153c.12889.3862,1.41509,3.4732,1.41509,3.4732l.2568,2.83Z"/>
        <path class="cls-7" d="M60.8428,16.72119l-2.5723-1.0278L56.2129,14.021,53.126,9.26119l-3.0869-4.1167L48.624,0l-.1142.05761c.2012,1.32178.542,3.41558.542,3.41558l2.4013,6.0029,4.8877,5.831,2.7432,1.4571,2.3164.4287.8389-.8067Z"/>
        <polygon class="cls-7" points="80.266 26.626 76.58 22.51 66.889 19.509 56.598 17.537 54.111 16.508 51.11 18.223 45.964 21.91 40.304 25.512 38.83 26.02 39.104 26.498 43.221 24.826 47.466 21.867 51.323 19.68 55.827 18.651 63.288 19.68 73.835 21.867 77.693 24.697 79.624 29.329 80.396 31.128 81.16 31.243 80.266 26.626"/>
        <polygon class="cls-7" points="77.054 14.425 76.922 14.535 74.736 16.079 71.005 17.493 69.332 15.435 67.532 9.775 66.889 5.916 66.503 3.986 66.437 4.006 66.804 8.533 67.575 14.278 69.204 17.879 71.69 18.566 74.436 17.193 77.054 14.425"/>
      </g>
    </g>
  </g>
</svg>
