<svg xmlns="http://www.w3.org/2000/svg" width="122.10259" height="116.3897" viewBox="0 0 122.10259 116.3897">
  <defs>
    <style>
      .cls-1 {
        isolation: isolate;
      }

      .cls-2 {
        fill: #4c2e25;
      }

      .cls-3 {
        fill: #81715f;
      }

      .cls-4 {
        fill: #726354;
      }

      .cls-5 {
        fill: #663526;
      }

      .cls-6 {
        fill: #c0b198;
      }

      .cls-7 {
        fill: #bcb4aa;
        mix-blend-mode: multiply;
      }

      .cls-8 {
        fill: #894b3d;
      }

      .cls-9 {
        fill: #3a221a;
      }

      .cls-10 {
        fill: #9f621f;
      }
    </style>
  </defs>
  <g class="cls-1">
    <g id="图层_2" data-name="图层 2">
      <g id="Layer_1" data-name="Layer 1">
        <g>
          <polygon class="cls-2" points="3.543 52.613 4.428 61.649 6.199 71.216 6.909 76.708 5.846 79.186 3.896 81.667 2.658 83.086 2.835 85.21 4.606 93.183 7.086 105.76 6.73 108.948 7.796 109.657 8.682 109.126 9.744 110.012 10.099 111.96 16.652 112.847 17.893 112.492 17.715 111.43 13.818 108.24 12.4 105.406 10.274 102.395 9.035 88.399 11.515 83.971 14.35 77.771 12.4 66.254 7.441 53.854 3.543 52.613"/>
          <polygon class="cls-3" points="7.796 109.657 8.682 109.126 9.744 110.012 10.099 111.96 16.652 112.847 17.893 112.492 17.715 111.43 13.818 108.24 12.4 105.406 10.274 102.395 9.035 88.399 11.515 83.971 13.072 80.566 12.577 79.541 10.099 73.341 6.555 70.153 5.659 68.292 6.199 71.216 6.909 76.708 5.846 79.186 3.896 81.667 2.658 83.086 2.835 85.21 4.606 93.183 7.086 105.76 6.73 108.948 7.796 109.657"/>
          <polygon class="cls-4" points="16.652 112.847 17.893 112.492 17.715 111.43 15.027 109.229 13.463 110.012 9.744 110.012 10.099 111.96 16.652 112.847"/>
          <polygon class="cls-4" points="8.682 107.886 7.064 105.648 7.086 105.76 6.73 108.948 7.796 109.657 8.682 109.126 8.746 109.181 8.682 107.886"/>
          <path class="cls-5" d="M100.62409,31.3565l6.5537,4.9599,1.24021,1.9473-.17771,1.7734,3.3652,3.3653,3.8994,5.6699v2.833l-.1777,2.835-.8848,1.0625-2.6582-.5313h-1.418l-1.23919.8848-1.59381-.1758-2.4824-2.3027-1.5937-.8868-2.6573,1.2403-1.7705,3.0117-.3554,4.9609-1.7715,1.417-.7071,1.5947-1.4179-2.4814-2.126-3.3652-.1768-4.4287-3.7207,3.8974-3.1875,3.543L80.96,65.0156l-.709,4.252-2.126,2.833-1.94921,1.418.3535,3.5439-1.416,7.085-.3555,4.2519.1788,2.126-.71,1.9483-.3535,2.3027-.709,10.6299.3545,3.0117,1.5947,1.5937,2.30271,1.418.53229,1.0625L80.96,115.6807l-1.06451.5312-6.0224.1778-.5313-1.0635-2.3037-4.0732h-1.0635l-.8857,1.0625c-.709-.709.5322-4.961.5322-4.961V98.1426l-.709-6.377-1.2392-3.3662-.8867-10.2754-.1758-4.9599-2.4815-1.7715-2.125-.1768-3.3662.8848-9.2119-.1767-9.7432-.7081L33.128,68.9121l-4.60651,1.5948-1.417,1.5937-1.417,6.3779-2.47949,4.96-1.06341,4.0742.5312,4.0752,6.3779,12.2246,3.543,5.3135,1.7705,1.0645.17781,1.2392,1.59369.708,3.1885,3.1885-6.90919-.1777v-1.417l-2.124-2.4785-1.59471.707-1.419-1.0615-.707-2.4805-7.7949-12.9326-3.3653-3.3662-3.1894-1.9483.8857-3.7207.1777-4.7832-1.2402-8.8574s-3.3652-7.4404-3.7197-7.9717-3.0117-8.6816-3.0117-8.6816L4.07519,54.209,2.127,55.626,0,53.1455l2.127-7.2636,7.61719-7.2627,10.0967-6.0225,6.1992.8857,4.6074,1.9483,11.8691.1758,17.8936-1.4151,5.8467-3.8984,4.0732-1.417,9.0352.5313,10.6279.5312Z"/>
          <path class="cls-5" d="M63.06639,69.7989l-1.417,12.5771v5.1367l.7081,2.127-.3536,4.7822-.70889,7.7949-.709,2.4815-1.06251,3.3652.8847.1768,1.0635-.1768.709,1.416-.3545,3.0127.5313,1.2393,7.9726-.1758c-.1777-.8867-3.7197-4.6074-3.7197-4.6074l-1.0635-2.6573-1.418-2.125,1.2412-5.3144,1.7715-7.4404,1.7705-7.9727.5313-13.4639Z"/>
          <path class="cls-3" d="M66.61039,108.9483l-1.0635-2.6573-1.418-2.125,1.2412-5.3144,1.7715-7.4404.86141-3.8809-.86141-.7256-3.1884-1.417s-1.1016-2.4765-2.1065-4.7617l-.1973,1.75v5.1367l.7081,2.127-.3536,4.7822-.70889,7.7949-.709,2.4815-1.06251,3.3652.8847.1768,1.0635-.1768.709,1.416-.3545,3.0127.5313,1.2393,7.9726-.1758C70.15239,112.669,66.61039,108.9483,66.61039,108.9483Z"/>
          <path class="cls-6" d="M71.03809,111.253l2.3037,4.0732.5313,1.0635,6.0224-.1778,1.06451-.5312-3.01171-3.1885-.53229-1.0625-2.30271-1.418-1.5947-1.5937-.3545-3.0117.709-10.6299.3535-2.3027.71-1.9483-.1788-2.126.0596-.7138-2.0078.1816-3.8975-2.834-1.8095-3.2363.5703,6.6025,1.2392,3.3662.709,6.377v9.2119s-1.2412,4.252-.5322,4.961l.8857-1.0625Z"/>
          <path class="cls-6" d="M39.32719,115.3262l-3.1885-3.1885-1.59369-.708-.17781-1.2392-1.7705-1.0645-3.543-5.3135-6.3779-12.2246-.5312-4.0752L23.208,83.4385l1.712-3.4238-1.004-1.0049-.70891-3.1885-4.0743.1768-4.9599-1.416-2.3408-2.2471c.1347.2978.2148.4746.2148.4746l1.2402,8.8574-.1777,4.7832-.8857,3.7207,3.1894,1.9483,3.3653,3.3662,7.7949,12.9326.707,2.4805,1.419,1.0615,1.59471-.707,2.124,2.4785v1.417Z"/>
          <polygon class="cls-7" points="109.127 53.678 105.583 51.374 99.737 51.02 94.777 51.374 92.475 48.186 92.297 44.818 89.817 44.642 86.982 47.122 82.022 51.728 72.81 58.991 62.357 62.889 48.009 64.661 41.099 63.066 35.076 59.169 35.253 53.5 31.533 50.31 23.386 53.5 23.562 58.283 25.509 65.9 22.853 72.81 22.499 78.301 20.728 84.324 19.31 88.044 22.145 94.244 26.928 102.04 29.763 104.875 29.054 103.813 22.676 91.588 22.145 87.513 23.208 83.439 25.687 78.479 27.104 72.101 28.521 70.507 33.128 68.912 39.683 71.216 49.426 71.924 58.638 72.101 62.004 71.216 64.129 71.393 66.61 73.164 66.786 78.124 66.895 79.394 67.673 75.821 69.267 70.861 74.582 70.507 77.922 72.249 78.125 72.101 80.251 69.268 80.96 65.016 85.566 62.181 88.754 58.638 92.475 54.74 92.651 59.169 94.777 62.534 96.195 65.016 96.902 63.421 98.674 62.004 99.029 57.043 100.8 54.031 103.457 52.791 105.051 53.678 107.533 55.98 109.127 56.156 110.353 55.281 109.127 53.678"/>
          <polygon class="cls-7" points="55.627 69.621 41.099 68.735 33.836 65.9 29.054 65.016 28.168 66.786 27.104 72.101 28.521 70.507 33.128 68.912 39.683 71.216 49.426 71.924 58.638 72.101 62.004 71.216 64.129 71.393 66.242 72.9 66.433 70.861 63.953 66.964 55.627 69.621"/>
          <path class="cls-4" d="M69.62109,107.3545s-1.2412,4.252-.5322,4.961l.8857-1.0625h.8995Z"/>
          <polygon class="cls-4" points="76.884 113.2 73.342 115.326 73.342 115.326 73.873 116.39 79.895 116.212 80.96 115.681 78.158 112.715 76.884 113.2"/>
          <polygon class="cls-4" points="61.826 106.115 60.78 104.022 60.586 104.698 59.523 108.064 60.408 108.24 61.436 108.07 61.826 106.115"/>
          <path class="cls-4" d="M68.32619,110.8301l-2.4248.7764-4.0732.8896.5293,1.2354,7.9726-.1758A11.53844,11.53844,0,0,0,68.32619,110.8301Z"/>
          <polygon class="cls-4" points="28.699 111.96 29.496 111.608 29.054 109.835 26.733 108.979 27.28 110.898 28.699 111.96"/>
          <polygon class="cls-4" points="36.139 112.138 35.261 111.747 32.418 113.837 32.418 115.148 39.327 115.326 36.139 112.138"/>
          <path class="cls-8" d="M91.23339,33.3047c.5323,0,8.5049,1.2393,8.5049,1.2393l4.6045,1.2412,3.36621,4.4287s.27049-.0215.63869-.0703l-.1074-.1065.17771-1.7734-1.24021-1.9473-6.5537-4.9599-10.6309-1.418-10.6279-.5312-9.0352-.5313-4.0732,1.417-5.8467,3.8984-17.8936,1.4151-11.8691-.1758-4.6074-1.9483-6.1992-.8857L9.74419,38.6192l-4.2989,4.0986c3.1729-1.1953,9.6133-3.0361,9.6133-3.0361l8.6807-2.3028,4.96,3.7198,3.5429,3.8984h5.668l5.1377-2.835L51.375,44.1104s8.14749.5312,8.85749.3545c.7089-.1778,8.8564-4.7832,8.8564-4.7832l12.2246-5.8448S90.70219,33.3047,91.23339,33.3047Z"/>
          <polygon class="cls-7" points="106.47 39.327 109.216 42.428 109.038 42.871 104.786 39.683 106.47 39.327"/>
          <polygon class="cls-9" points="106.913 38.441 106.691 39.771 106.913 40.125 104.122 39.992 103.989 39.594 105.629 38.618 106.602 37.955 106.913 38.441"/>
          <polygon class="cls-9" points="108.33 53.588 110.047 55.5 110.366 55.272 110.566 55.272 110.366 54.872 109.349 53.588 108.464 52.968 106.868 51.817 105.717 50.886 104.433 50.976 104.565 51.641 106.027 51.995 108.33 53.588"/>
          <polygon class="cls-9" points="113.202 50.223 112.937 51.641 113.113 53.322 113.999 53.412 114.442 52.613 113.732 52.082 113.645 50.31 113.202 50.223"/>
          <path class="cls-10" d="M100.18069,32.1524l1.5937.666-.9296-4.1211,2.79-2.125,4.916-.5313,5.7129-2.9228,5.3154-5.3145,1.8584-3.0566.6651-2.3906-1.1953-.1328-1.46,3.3212-.7988-.1328.1328-4.1201-.6651.666-1.7255,4.7823-3.3213,3.455-2.9239.6641V19.2647l1.7276-3.7198.1328-2.1259-1.0625.3984-1.7275,3.1875-3.4541,2.5264-1.8604-.2666-.2666-4.6504.9307-3.8526-.5313-1.8603-1.0644.665-1.7266,7.9707-.6641,3.7207L99.251,20.8594l-1.33011-4.917-1.7256-9.6982,1.3282-3.7198L98.58689.3975,97.125,0,94.73339,3.7188l-1.3291,5.1826.1328,1.3291h-1.0625l-1.4619-3.5889s-.5312-3.1875-.5312-3.5859-.9297-.3984-.9297-.3984l-.6641,3.8535-.5312.9287-1.4629-1.1953-.7959-3.9854-.6651-.665-1.33,1.4619V7.042l-1.5938-1.1953-1.4609-3.0566-.5322.664.9306,3.0567-.664.9287-.9307-.7979-.3975-2.789-.7978.3984L78.125,7.3067l-1.59571.5312a5.00815,5.00815,0,0,1-1.0625-1.1963,15.78661,15.78661,0,0,1,0-2.5234l.6651-1.7266-1.0635-.2656-1.1953,3.3203-.9297,6.6445,3.9863,5.9776,5.3135,3.8535,4.917,3.3223,5.8457,3.5859,5.0488,1.1973.3985,1.7275Z"/>
          <polygon class="cls-7" points="78.923 7.972 79.454 10.23 81.313 11.823 83.307 12.622 83.04 11.292 80.914 7.972 78.923 7.972"/>
          <polygon class="cls-7" points="82.509 7.838 83.04 9.167 83.971 8.901 84.369 7.838 82.509 7.838"/>
          <polygon class="cls-7" points="86.629 10.629 87.292 12.622 88.621 13.286 89.418 12.622 88.489 9.699 88.621 8.104 86.629 6.909 85.964 5.182 86.629 10.629"/>
          <polygon class="cls-7" points="93.404 10.895 92.342 11.558 92.873 13.286 93.936 13.817 94.068 12.091 93.404 10.895"/>
          <path class="cls-7" d="M97.78809,29.3633l-.3984-4.7842-1.9912-1.7265L91.544,19.1328s-3.05471-.7988-3.45411-.7988-7.7071-1.5937-8.2383-1.5937-4.3848-3.7207-4.3848-3.7207S74.333,10.0479,73.545,7.7901l-.60161,4.3007,3.9863,5.9776,5.3135,3.8535,4.917,3.3223,5.8457,3.5859,4.5488,1.0791Z"/>
          <polygon class="cls-7" points="120.3 16.619 117.054 18.866 112.006 22.189 107.886 22.32 105.097 22.587 102.307 23.518 101.376 24.712 102.439 25.244 106.027 25.377 110.279 24.978 110.897 24.841 114.264 23.118 119.579 17.804 120.3 16.619"/>
          <polygon class="cls-5" points="99.516 31.755 97.257 28.964 91.544 26.838 88.356 23.782 85.831 24.315 85.166 27.237 89.552 31.09 95.398 31.755 98.055 32.685 99.516 31.755"/>
          <polygon class="cls-8" points="95.796 29.762 91.943 28.566 89.817 26.704 88.09 25.377 87.425 26.704 88.621 28.964 91.411 30.293 95.398 30.956 97.133 32.36 98.055 32.685 98.726 32.257 95.796 29.762"/>
        </g>
      </g>
    </g>
  </g>
</svg>
