<svg xmlns="http://www.w3.org/2000/svg" width="72.874" height="33.9643" viewBox="0 0 72.874 33.9643">
  <defs>
    <style>
      .cls-1 {
        fill: #6d574f;
      }

      .cls-2 {
        fill: #56423c;
      }

      .cls-3 {
        fill: #87736d;
      }

      .cls-4 {
        fill: #562b21;
      }

      .cls-5 {
        fill: #7f4934;
      }

      .cls-6 {
        fill: #663729;
      }

      .cls-7 {
        fill: #995843;
      }
    </style>
  </defs>
  <g id="图层_2" data-name="图层 2">
    <g id="Layer_1" data-name="Layer 1">
      <g>
        <polygon class="cls-1" points="24.076 25.581 19.348 26.333 11.931 26.87 3.762 27.301 0.968 28.053 0 30.417 1.075 31.814 8.384 33.964 16.768 33.427 23.969 31.169 26.549 29.557 24.076 25.581"/>
        <path class="cls-2" d="M16.7676,33.4267l7.2011-2.2578,2.5801-1.6118-.8027-1.2915-4.1416,2.2588-4.5147,1.1821-3.6543.4302H8.5986l-3.9775-.752-3.0078-.6445S.5381,30.0947.4316,29.7724a1.35757,1.35757,0,0,0-.0908-.1846L0,30.4169l1.0752,1.397,7.3086,2.1504Z"/>
        <polygon class="cls-3" points="2.043 28.482 1.827 29.342 8.384 30.095 18.917 28.374 19.239 27.515 10.749 27.192 5.911 27.73 2.043 28.482"/>
        <polygon class="cls-4" points="62.878 18.917 65.994 20.422 67.499 21.173 68.252 23.645 69.219 25.365 69.004 26.225 67.715 26.01 66.102 24.505 65.564 23 61.803 22.033 62.878 18.917"/>
        <polygon class="cls-5" points="72.014 3.976 68.144 1.719 63.951 0.967 61.589 0.645 60.514 1.289 56.967 2.795 55.247 3.224 51.484 1.612 45.896 0 42.563 0.537 33.535 3.976 30.848 7.416 26.656 20.529 25.903 23.431 23.755 25.258 24.507 28.698 25.581 30.31 28.914 30.417 31.815 30.632 34.18 30.417 39.555 30.31 47.83 28.913 50.84 27.408 52.989 24.828 54.601 25.15 55.569 25.043 56.643 26.655 58.794 29.772 58.471 30.848 59.008 31.277 63.522 31.706 64.705 30.632 64.597 29.772 62.448 29.449 62.126 28.161 61.91 23.968 63.522 20.529 64.597 16.23 65.243 13.22 68.037 11.5 70.509 10.533 70.939 9.457 71.584 9.028 72.874 6.019 72.659 4.837 72.014 3.976"/>
        <polygon class="cls-6" points="58.578 14.187 58.578 13.327 57.719 13.435 56.213 15.477 54.172 18.271 51.807 20.099 48.583 21.604 44.714 22.249 39.555 22.033 38.264 23.861 34.717 25.15 31.385 24.076 31.601 18.379 30.525 15.693 28.182 15.76 26.656 20.529 25.903 23.431 23.755 25.258 24.507 28.698 25.581 30.31 28.914 30.417 31.815 30.632 34.18 30.417 39.555 30.31 47.83 28.913 50.84 27.408 52.989 24.828 54.601 25.15 55.473 25.053 55.032 22.787 55.783 19.562 57.182 16.121 58.578 14.187"/>
        <polygon class="cls-4" points="51.162 24.183 46.539 26.44 41.38 26.548 32.891 27.945 28.16 28.59 24.266 27.593 24.507 28.698 25.581 30.31 28.914 30.417 31.815 30.632 34.18 30.417 39.555 30.31 47.83 28.913 50.84 27.408 52.989 24.828 54.601 25.15 55.569 25.043 55.894 25.531 55.999 24.721 53.526 22.249 51.162 24.183"/>
        <polygon class="cls-5" points="30.096 18.271 29.129 24.613 30.955 27.945 32.352 29.449 31.922 31.061 32.677 31.706 39.231 32.137 44.283 32.674 46.325 32.03 47.077 30.524 45.142 29.665 42.349 29.557 39.124 29.234 37.404 29.02 36.761 27.945 38.801 26.44 40.629 23.43 40.629 20.099 37.512 16.121 33.214 15.477 30.096 18.271"/>
        <polygon class="cls-6" points="35.039 31.169 37.404 29.557 38.176 29.116 37.404 29.02 36.761 27.945 38.801 26.44 39.723 24.922 37.62 26.01 35.255 27.515 33.214 26.44 31.062 23.645 30.769 17.667 30.096 18.271 29.129 24.613 30.955 27.945 32.352 29.449 31.922 31.061 32.677 31.706 34.535 31.829 35.039 31.169"/>
        <polygon class="cls-4" points="44.19 32.664 44.216 32.231 43.812 31.304 43.048 30.497 42.778 30.632 43.531 31.599 43.531 32.595 44.19 32.664"/>
        <polygon class="cls-4" points="46.378 31.925 45.988 30.981 44.982 30.216 44.779 30.377 45.506 30.981 45.943 32.15 46.325 32.03 46.378 31.925"/>
        <polygon class="cls-6" points="60.781 30.497 60.056 29.772 58.847 28.643 57.154 25.903 55.783 23.485 55.783 24.452 55.483 25.053 55.569 25.043 56.643 26.655 58.794 29.772 58.471 30.848 59.008 31.277 60.57 31.426 60.781 30.497"/>
        <polygon class="cls-6" points="61.749 29.611 62.434 29.396 62.126 28.161 62.102 27.701 61.588 28.643 61.749 29.611"/>
        <path class="cls-7" d="M69.1845,2.3261l-1.04-.6069L63.9512.9672,61.5888.645l-1.0751.6445L56.9668,2.7949l-1.7198.4292L51.48441,1.6123,45.8965,0l-3.333.5371L33.5351,3.9765,30.8476,7.416l-1.3935,4.3603.6142-.3833,2.419-4.9179L37.082,3.8149l7.8193-1.8535L49.416,3.0087l4.7559,1.6124,2.4179,1.0478s.4834-1.4502.72561-1.5312c.24219-.0806,3.54689-1.8541,3.54689-1.8541l3.4658-.5644,2.9814.4033Z"/>
        <polygon class="cls-6" points="61.749 3.17 64.086 2.525 66.344 2.767 68.763 3.251 71.261 4.46 71.019 5.185 68.037 4.057 65.055 4.138 62.959 4.219 61.99 4.219 61.749 3.17"/>
        <polygon class="cls-7" points="72.874 6.019 72.659 4.837 72.014 3.976 70.839 3.291 70.133 5.025 69.245 6.233 69.245 8.168 69.245 9.862 68.855 11.18 70.509 10.533 70.939 9.457 71.584 9.028 72.874 6.019"/>
        <polygon class="cls-4" points="72.1 4.09 71.624 3.976 71.261 4.46 70.978 4.944 71.383 5.427 71.704 5.064 72.107 5.549 72.591 5.831 72.86 6.051 72.874 6.019 72.659 4.837 72.1 4.09"/>
        <polygon class="cls-4" points="67.514 3.17 67.473 3.694 67.875 3.936 66.787 4.299 66.385 4.581 66.263 4.258 66.828 3.291 67.514 3.17"/>
        <polygon class="cls-4" points="70.929 9.485 70.025 9.673 68.575 9.727 68.144 9.995 68.735 10.104 70.239 9.889 70.814 9.767 70.929 9.485"/>
        <polygon class="cls-6" points="64.705 12.038 62.124 9.995 61.049 9.565 62.018 12.36 63.415 15.477 64.6 16.217 65.243 13.22 66.829 12.243 64.705 12.038"/>
        <polygon class="cls-7" points="62.77 3.331 62.448 4.783 62.126 5.105 60.46 4.783 59.17 4.299 59.17 3.117 59.869 2.579 61.91 2.579 62.77 3.331"/>
        <polygon class="cls-6" points="59.869 2.579 59.17 3.117 59.17 4.299 60.46 4.783 62.126 5.105 62.448 4.783 62.467 4.699 60.029 4.031 59.706 3.6 60.299 3.117 61.589 3.009 62.684 3.725 62.77 3.331 61.91 2.579 59.869 2.579"/>
      </g>
    </g>
  </g>
</svg>
