<svg xmlns="http://www.w3.org/2000/svg" xmlns:xlink="http://www.w3.org/1999/xlink" width="523.67313" height="366.50103" viewBox="0 0 523.67313 366.50103">
  <defs>
    <style>
      .cls-1 {
        isolation: isolate;
      }

      .cls-2, .cls-7 {
        fill: #231f20;
      }

      .cls-3 {
        fill: #d17200;
      }

      .cls-4 {
        fill: #e58200;
      }

      .cls-5 {
        fill: #f9a51a;
      }

      .cls-20, .cls-6 {
        fill: #fff;
      }

      .cls-17, .cls-6 {
        opacity: 0.1;
      }

      .cls-7 {
        opacity: 0.07;
        mix-blend-mode: multiply;
      }

      .cls-8 {
        fill: url(#linear-gradient);
      }

      .cls-9 {
        fill: #ccc;
      }

      .cls-10 {
        fill: url(#linear-gradient-2);
      }

      .cls-11 {
        fill: url(#linear-gradient-3);
      }

      .cls-12 {
        fill: #f6921e;
      }

      .cls-13 {
        fill: #212121;
      }

      .cls-13, .cls-14, .cls-15, .cls-16 {
        fill-rule: evenodd;
      }

      .cls-14 {
        fill: #383838;
      }

      .cls-15 {
        fill: #eae2b8;
        opacity: 0.6;
      }

      .cls-16 {
        fill: #fffbd4;
      }

      .cls-18 {
        fill: #191919;
      }

      .cls-19 {
        opacity: 0.5;
      }

      .cls-20 {
        opacity: 0.3;
      }
    </style>
    <linearGradient id="linear-gradient" x1="92.88887" y1="76.94443" x2="92.88887" y2="293.48151" gradientUnits="userSpaceOnUse">
      <stop offset="0" stop-color="#fff"/>
      <stop offset="0.76923" stop-color="#e6e6e6"/>
    </linearGradient>
    <linearGradient id="linear-gradient-2" x1="254.02518" y1="80.26398" x2="254.02518" y2="291.57879" xlink:href="#linear-gradient"/>
    <linearGradient id="linear-gradient-3" x1="397.31606" y1="89.96738" x2="397.31606" y2="291.08971" xlink:href="#linear-gradient"/>
  </defs>
  <g class="cls-1">
    <g id="图层_2" data-name="图层 2">
      <g id="Layer_1" data-name="Layer 1">
        <g>
          <g>
            <path class="cls-2" d="M300.4746,272.40923s21.3408,23.7324,38.3496,29.2295c23.82333,7.7002,24.13773-6.4092,26.01963-24.4385,2.7715-26.4512,10.8545-31.9131,10.8545-31.9131s-21.91513-2.3174-34.47463,6.0547C328.6787,259.72763,300.4746,272.40923,300.4746,272.40923Z"/>
            <path class="cls-3" d="M296.6348,267.46783s21.3408,23.7344,38.3506,29.2305c23.82423,7.7002,24.13863-6.4092,26.02053-24.4395,2.7715-26.4502,10.8525-31.9121,10.8525-31.9121s-21.916-2.3184-34.47363,6.0547C324.83793,254.78713,296.6348,267.46783,296.6348,267.46783Z"/>
            <path class="cls-4" d="M352.79693,275.99613c-4.89363-1.206-42.34183-13.6767-42.34183-13.6767s23.6221,10.332,32.5547,13.3828c7.6474,2.5976,14.0176,6.748,16.37213,9.4218.581-3.3056.9492-7.0244,1.3457-10.9482C358.93363,275.332,355.917,276.77443,352.79693,275.99613Zm3.19527-11.2432c-4.8935-.6132-36.6016-5.1709-38.94427-5.7851,0,0,16.39057,5.4795,25.539,6.6982a90.9241,90.9241,0,0,1,18.5371,5.0049c.2911-2.4414.6211-4.7539.9991-6.8301A9.93824,9.93824,0,0,1,355.9922,264.75293Zm-54.376.8291a184.27656,184.27656,0,0,0,43.7305,23.8008c5.2978,1.9766,7.665,4.8838,8.6943,7.336,2.1905-1.8135,3.57333-4.5293,4.49613-7.8936a59.92623,59.92623,0,0,0-18.292-7.3496C323.8672,277.52253,300.669,265.05283,301.6162,265.582Zm43.09773-16.4697c6.48527-.9131,19.7451-2.5166,21.3447-.6836a2.12082,2.12082,0,0,0,.3701.3047,29.47678,29.47678,0,0,1,2.9053-5.2881C365.84183,244.292,351.5156,247.77833,344.71393,249.11233Zm0,0c-2.13873.3067-3.54693.5332-3.54693.5332A19.07281,19.07281,0,0,0,344.71393,249.11233Zm-17.167,5.7051s29.15327,1.21,33.1934,3.3408a7.87671,7.87671,0,0,1,2.2031,1.5977,67.18849,67.18849,0,0,1,2.1787-7.6573c-2.0703.7862-5.7832,2.0157-8.42193,1.8067C352.8662,253.59863,327.54693,254.81743,327.54693,254.81743Z"/>
            <g>
              <path class="cls-2" d="M131.68461,294.14943s9.5205,72.3516,35.9648,72.3516c26.4483,0,28.7959-31,24.333-45.8818-6.3457-21.1709-24.333-24.7022-24.333-24.7022Z"/>
              <path class="cls-3" d="M128.04693,289.47173s9.52338,72.3516,35.96478,72.3516c26.4483,0,28.7969-31.003,24.333-45.8829-6.3447-21.1709-24.333-24.7021-24.333-24.7021Z"/>
              <path class="cls-4" d="M145.65631,329.67293c-6.6543-13.1045-15.8477-37.3477-16.9082-40.1621l-.0381-.0088c.7265,2.8623,8.164,31.5869,18.8672,53.247a112.799,112.799,0,0,0,11.0732,18.2413,14.23218,14.23218,0,0,0,4.7041.8017,29.79458,29.79458,0,0,0,5.3037-.5049C163.68261,357.18853,155.07621,348.20023,145.65631,329.67293Zm42.9531-9.793a17.91409,17.91409,0,0,1-11.8877-1.7695c-6.59278-3.3379-33.1865-24.6299-33.1865-24.6299s26.59372,28.5928,31.4873,31.0215c3.9023,1.9365,11.4345,6.5683,14.3388,8.372A52.013,52.013,0,0,0,188.60941,319.87993ZM133.957,291.044s14.8946,31.6328,25.3194,45.6201c7.64452,10.2646,12.9756,18.8457,15.292,22.7099a22.10369,22.10369,0,0,0,8.1211-6.6337A86.66129,86.66129,0,0,1,162.042,333.625C152.26171,320.85353,133.957,291.044,133.957,291.044Zm4.25492.6162s15.32428,23.7168,27.44728,38.9209c8.7812,11.0117,16.09472,16.2656,19.4668,18.3281a37.37188,37.37188,0,0,0,3.6738-11.2783c-2.5576-.6221-9.00288-2.419-13.7773-5.8311C161.40331,322.07333,138.21193,291.66023,138.21193,291.66023Zm48.60548,21.7656a37.85,37.85,0,0,0-5.5947-10.2871,31.0855,31.0855,0,0,1-8.75-.8408c-8.9414-2.1299-21.4942-8.5098-21.4942-8.5098s10.6397,9.4219,18.5078,14.2871C175.666,311.89163,183.65431,313.09283,186.81741,313.42583Z"/>
            </g>
            <path class="cls-2" d="M295.8516,101.53813s1.19433-5.4873,7.8857-18.5186c6.7627-13.1669,14.1192-26.3007,29.1074-6.8427,15.3184,19.874,19.4971,27.3369,28.168,38.2773,13.3262,16.8223,22.9561,24.3926,22.9561,24.3926l-8.2129,27.4082Z"/>
            <path class="cls-3" d="M293.6953,106.25493s1.1944-5.4863,7.8858-18.5195c6.7636-13.168,14.1201-26.3008,29.1084-6.8409,15.31743,19.8741,19.497,27.336,28.166,38.2745,13.3281,16.8242,22.957,24.3945,22.957,24.3945l-8.2138,27.4082Z"/>
            <path class="cls-2" d="M116.69531,74.55083a229.2161,229.2161,0,0,1,3.4024-35.6846c3.5244-21.1699,10.0888-37.3545,17.875-38.5156,24.3906-3.6494,35.3203,22.0352,58.15622,37.7139,18.58887,12.7607,52.41507,32.0634,50.209,42.1631C244.0528,90.71583,116.69531,74.55083,116.69531,74.55083Z"/>
            <path class="cls-3" d="M116.69531,79.80373a229.2006,229.2006,0,0,1,3.4024-35.6836c3.5244-21.1709,10.0888-37.3554,17.875-38.5166,24.3906-3.6484,35.3203,22.0362,58.15622,37.7149,18.58887,12.7607,52.41507,32.0635,50.209,42.1621C244.0528,95.96883,116.69531,79.80373,116.69531,79.80373Z"/>
            <path class="cls-4" d="M346.1582,115.19243a59.78031,59.78031,0,0,1,11.50883,2.6533c-1.22263-1.5879-2.3721-3.1221-3.49023-4.6396-3.8516-.9082-9.8555-1.8946-14.6172-.7578-7.6631,1.8261-22.7666,6.082-22.7666,6.082S338.4932,114.27443,346.1582,115.19243Zm19.93953,12.9043c-1.459-1.6699-2.9805-3.4717-4.5782-5.4229-4.78513-1.3896-11.92083-3.0693-16.64353-2.3125-7.6572,1.212-17.4395,3.044-17.4395,3.044s19.9903-1.2188,27.6553,1.209C358.89943,125.834,362.97173,127.11533,366.09773,128.09673ZM315.9395,80.51863c2.81543-2.3203,5.8281-4.5498,8.1318-6.1807a12.5473,12.5473,0,0,0-5.6768-2.6367,42.208,42.208,0,0,0-8.624,13.0762c-3.8252,9.4248-10.3349,24.4306-10.3349,24.4306S310.4082,85.07813,315.9395,80.51863Zm17.0283,3.5361c-.6504-.8545-1.3076-1.7119-2.0068-2.624-.587-.7617-1.1495-1.3906-1.712-2.0576-3.5234.957-9.1484,3.1123-11.8203,7.5361-4.04,6.6846-17.9931,22.2988-17.9931,22.2988s18.208-18.04,25.65233-22.0029A37.50847,37.50847,0,0,1,332.9678,84.05473Zm37.53423,48.916c-3.7657-1.3984-9.7705-3.4033-14.13383-3.79-6.8057-.6035-16.3789.9121-16.3789.9121s11.9092-.3067,18.083,1.5156c3.9971,1.1934,11.2764,3.5127,15.9238,5C372.92383,135.52643,371.74613,134.30673,370.502,132.97073ZM342.6934,97.13283c-1.2324-1.708-2.5586-3.5185-4.0098-5.4863-4.0088-.1631-9.7373.2188-12.9512,3.166-5.3222,4.8662-23.1914,15.5069-23.1914,15.5069s20.4258-11.8584,26.8096-12.1651C333.8838,97.94533,339.711,97.41513,342.6934,97.13283Zm-4.8379,10.4502c5.3613.5537,10.4678,1.4278,13.7197,2.0313q-1.4838-2.08455-3.0742-4.333c-4.3877-.5303-12.6035-1.0987-19.794.7773a181.48189,181.48189,0,0,0-20.6347,7.0049S328.92193,106.67383,337.8555,107.583Z"/>
            <path class="cls-4" d="M202.9365,47.88773c-2.1025-1.3789-4.1171-2.7168-5.9921-3.9873-6.81347,1.0117-17.30569,3.2412-22.52247,7.751a96.02626,96.02626,0,0,0-14.46492,16.417s19.5733-16.417,28.29992-17.3291A114.45733,114.45733,0,0,0,202.9365,47.88773Zm-10.87789-7.5342c-2.0342-1.5888-3.9521-3.2588-5.8232-4.9482-5.0684.2295-12.7784,1.5254-18.1963,6.8154-8.7197,8.5186-18.3731,28.0586-18.3731,28.0586s15.6084-22.8867,24.1114-25.9307C178.84381,42.544,186.59571,41.16313,192.05861,40.35353ZM215.919,64.11433a118.767,118.767,0,0,0,12.2168.6601c-2.2793-1.6552-4.6543-3.3008-7.09087-4.957-4.78023-.082-11.789.373-17.46973,3.0898-9.57419,4.5586-12.98239,6.6856-12.98239,6.6856S206.9776,63.20413,215.919,64.11433ZM148.56151,6.00493a27.94976,27.94976,0,0,0-8.1445-.5703c-3.9902,4.0625-9.6924,11.9482-12.8057,25.8379-4.0791,18.2314-8.2978,47.1367-8.2978,47.1367s10.4316-47.4434,17.6611-59.6094A41.7606,41.7606,0,0,1,148.56151,6.00493Zm66.99809,50.1406c-2.3125-1.5234-4.6152-3.0332-6.8779-4.5039-4.34377-.6035-10.045-.6123-14.68069,2.1319-8.7236,5.1709-21.2832,13.998-21.2832,13.998s19.3652-10.9482,29.57519-11.8672A67.39757,67.39757,0,0,1,215.5596,56.14553Zm17.9629,12.6797a100.22634,100.22634,0,0,0-12.2891.1553,29.85568,29.85568,0,0,0-11.0674,3.9629s12.5586-2.7451,19.3643-.9229a30.53815,30.53815,0,0,0,8.8525.8672C236.9053,71.56253,235.2774,70.19833,233.5225,68.82523Zm-85.90819-47.5889c5.4492-6.2265,10.2607-8.7099,13.0381-9.6923a40.88184,40.88184,0,0,0-5.35448-3.1787c-4.28032,2.5019-12.39262,8.4238-15.76572,18.956-4.6855,14.5918-14.6875,48.6621-14.6875,48.6621S139.10351,30.96583,147.61431,21.23633Zm11.2754,6.6905a61.19942,61.19942,0,0,1,12.4511-7.1504c-1.8056-1.7676-3.6045-3.457-5.4101-5.0342-3.834.9023-9.7862,3.1748-13.209,8.835-5.3232,8.8271-18.9346,48.6601-18.9346,48.6601S149.52641,34.61923,158.88971,27.92683Zm7.2373,8.8135a54.16643,54.16643,0,0,1,13.8906-7.2452q-2.00685-2.001-3.9463-3.9599c-4.14938,1.4424-13.8086,5.3164-17.6025,11.2051-4.8936,7.6083-17.2373,34.9843-17.2373,34.9843S156.76171,43.44043,166.127,36.74033Z"/>
            <path class="cls-2" d="M439.52933,134.56843s67.8018-66.9014,81.7041,19.0595c8.5059,52.6016-7.2158,79.7735-16.7363,106.2442-9.5234,26.4668-19.291,42.581-45.1084,20.2812C442.46,266.02743,439.52933,134.56843,439.52933,134.56843Z"/>
            <path class="cls-5" d="M7.18651,202.69043c-3.4033-7.2929-7.9043-16.6054-7.0898-22.6992,1.1348-8.5205,6.7031-2.7802,5.6748-6.9043-3.9775-15.8095,12.8057-31.6777,24.9072-44.6738,30.9151-33.168,84.2989-57.207,118.9873-63.4072C208.9024,54.417,273.4307,89.70513,325.2617,116.17583c51.83113,26.4717,79.34183,28.2305,102.61233,22.9424,23.2686-5.2979,61.3545-47.6455,80.3916-3.5283,5.9307,13.7529,15.8663,35.288-1.0634,95.2851-15.7256,55.7656-26.75,55.0322-38.0782,52.9297-19.039-3.5264-26.9414-28.2383-55.0058-38.8144-32.791-12.3477-107.89063,24.6992-145.97763,42.3427-38.0742,17.6465-116.36029,12.3565-161.84467,1.7686C68.46881,280.294,24.90241,240.68463,7.18651,202.69043Z"/>
            <path class="cls-6" d="M32.43461,142.68173c33.7617-29.6026,82.3281-37.3086,117.9824-44.9795,60.87892-13.086,128.12792,19.4502,182.10449,43.7187,53.99223,24.2559,82.39163,24.8604,106.28423,18.5801,19.623-5.1611,49.0527-35.6953,70.3047-22.4551-.2842-.6572-.5664-1.3262-.8448-1.956-19.0371-44.1172-57.123-1.7696-80.3916,3.5283-23.2705,5.2881-50.7812,3.5293-102.61233-22.9424C273.4307,89.70513,208.9024,54.417,149.666,65.00593c-34.6884,6.2002-88.0722,30.2392-118.9873,63.4072-12.1015,12.9961-28.8847,28.8643-24.9072,44.6738C12.00393,162.13773,23.05281,150.91213,32.43461,142.68173Z"/>
            <path class="cls-7" d="M507.20223,213.835c-15.7256,55.7724-26.75,55.0429-38.0782,52.9414-19.039-3.5303-26.9414-28.2481-55.0058-38.8184-32.791-12.3535-107.89063,24.7031-145.97763,42.3438-38.0742,17.6474-116.36029,12.3574-161.84467,1.7705-37.82712-8.8057-81.39352-48.416-99.10942-86.4053-1.51558-3.248-3.2197-6.8857-4.6084-10.4687-1.0615.4785-2.07218,1.6816-2.4814,4.7929-.8145,6.0938,3.6865,15.4063,7.0898,22.6992,17.7159,37.9942,61.2823,77.6036,99.10942,86.4112,45.48438,10.5879,123.77047,15.8779,161.84467-1.7686,38.087-17.6435,113.18663-54.6904,145.97763-42.3427,28.0644,10.5761,35.9668,35.288,55.0058,38.8144,11.3282,2.1025,22.3526,2.8359,38.0782-52.9297,8.5263-30.208,10.2363-50.6504,9.0742-65.2685C515.46293,178.19533,512.84183,193.84473,507.20223,213.835Z"/>
            <path class="cls-2" d="M77.25881,277.30763c10.3799,6.1192,21.62312,9.375,31.4873,12.1641,16.8652-47.2002,33.5-126.0713,7.9492-214.9209-12.6299,3.8555-23.81538,13.0967-35.5927,19.9902C96.26951,122.40143,101.06741,199.09773,77.25881,277.30763Z"/>
            <path class="cls-8" d="M62.501,267.97563c12.4912,9.7393,29.7412,17.2461,39.6025,20.0371,16.85842-47.2012,33.5967-122.2187,8.0381-211.0683A276.76944,276.76944,0,0,0,74.29693,94.541C90.87793,120.38193,94.56541,215.26083,62.501,267.97563Z"/>
            <path class="cls-9" d="M107.33011,272.30573c-.3389-.0772-.6924-.1592-1.03418-.2334-12.11622-2.8252-24.82132-8.835-37.07622-16.9053a123.31437,123.31437,0,0,1-6.54,12.5117,142.904,142.904,0,0,0,29.0049,16.6387c.1396.0566.27832.1211.4238.1846q3.41745,1.39455,6.8057,2.5068c.21582.0732.3974.126.6054.1895.8721.291,1.73742.4785,2.60842.7392C103.88381,283.03133,105.626,277.80283,107.33011,272.30573Z"/>
            <path class="cls-2" d="M224.3408,297.54883c16.9405-1.624,32.2344-4.8447,43.7998-10.2158,10.292-4.7617,23.3047-10.956,37.4405-17.2021,14.0312-84.5088,1.542-139.9209-4.2617-166.1758-15.96-8.0596-32.7247-16.1729-49.9102-23.0234C253.92093,142.71683,248.9707,232.28033,224.3408,297.54883Z"/>
            <path class="cls-10" d="M295.9844,101.32133c-.2031-.1191-.4482-.2627-.669-.3887-25.5136-12.709-52.9746-25.0986-80.68547-32.0761,19.53607,60.2265,6.56047,172.2509-13.85353,229.9472,26.0947-.3847,50.6181-3.707,67.3642-11.4707,9.042-4.1894,20.1846-9.4746,32.334-14.9238C315.6211,183.73443,301.5225,126.64653,295.9844,101.32133Z"/>
            <path class="cls-9" d="M303.2266,254.13873c-13.22167,5.8935-25.3633,11.6621-35.086,16.1631-15.5839,7.2246-37.9101,10.5976-61.9648,11.3467-1.7246,6.1181-3.5283,11.8671-5.3994,17.1552h.0254q4.5381-.06735,9.0039-.2676c.3603-.0107.7207-.0205,1.0869-.039q4.28025-.2037,8.4668-.5195c.4092-.0293.8203-.0635,1.2373-.0918,2.78423-.2256,5.5381-.4952,8.2383-.8067.291-.0351.581-.0703.87993-.1055,2.76557-.3261,5.49307-.6962,8.14937-1.1181a.58925.58925,0,0,1,.1269-.0205c2.627-.4209,5.1631-.9121,7.6592-1.4317.3604-.0761.7197-.1455,1.0723-.2187,2.3623-.5137,4.6543-1.083,6.8779-1.6875.40233-.1084.793-.2149,1.1924-.336,2.2031-.622,4.33893-1.289,6.3848-2.0107.2939-.1084.5722-.2187.8623-.3252,2.122-.7773,4.17383-1.5976,6.1005-2.4922,9.042-4.1894,20.1846-9.4746,32.334-14.9238C301.54693,266.14453,302.4385,260.08693,303.2266,254.13873Z"/>
            <path class="cls-2" d="M421.374,140.35163a96.17921,96.17921,0,0,1-33.4209-.6856c1.711,38.2032,7.3243,56.9405-9.6914,105.0772,14.1211-2.7969,26.6573-3.2207,35.8565.2471.3408.1259.6318.2724.9668.4033a245.02146,245.02146,0,0,0,8.0625-52.128C424.50393,168.14263,423.03713,151.67093,421.374,140.35163Z"/>
            <path class="cls-11" d="M383.96883,138.84673c4.5029,33.6289,6.3066,75.8555-8.2705,106.4404,13.542-2.9052,25.792-3.8008,35.1933-1.3252,3.2715-13.1972,5.8281-28.123,7.3633-50.6963,1.6035-23.6357.0908-40.664-1.6836-52.2802A101.14718,101.14718,0,0,1,383.96883,138.84673Z"/>
            <path class="cls-9" d="M414.11823,227.958c-8.3174-3.1318-19.377-3.0781-31.8535-.9765a102.4882,102.4882,0,0,1-6.5664,18.3056q2.5092-.54045,4.956-.9756a.37117.37117,0,0,1,.1211-.0166c1.5381-.291,3.0684-.5341,4.5645-.7509.1347-.0157.2783-.0352.4062-.0537,1.4053-.1983,2.7705-.3604,4.1143-.4952.2265-.0254.4541-.0547.6748-.0732,1.2441-.1162,2.4697-.209,3.6679-.2715.3028-.0146.6075-.0351.8916-.0439,1.1172-.045,2.2032-.0625,3.2774-.0625.3516,0,.7119-.0108,1.0537-.0108,1.0049.0283,1.9697.0733,2.9268.1455.3877.0176.7802.0264,1.164.0635.9414.0811,1.8496.208,2.7539.335.3535.0429.7158.082,1.0723.1308,1.1435.1905,2.248.4278,3.3281.708.0694.0166.1514.0244.2207.0459,1.2324-4.9638,2.3613-10.1718,3.3633-15.9511C414.21393,227.99713,414.169,227.97563,414.11823,227.958Z"/>
            <path class="cls-4" d="M457.97563,253.38193c-9.0869-12.5704-29.5059-31.6329-29.5059-31.6329s24.6817,27.1641,30.6348,48.6651a37.31913,37.31913,0,0,1,1.3457,10.0068,25.99867,25.99867,0,0,0,8.6738,3.3838c3.3916.6338,6.7569,1.1279,10.2364.0283C472.75883,274.33113,463.42873,260.93653,457.97563,253.38193Zm-29.7832-41.7666s34.3154,26.7666,43.3926,36.0898c5.1914,5.3271,14.0762,15.416,20.749,23.0947a126.73921,126.73921,0,0,0,8.2217-18.834,43.9381,43.9381,0,0,1-19.0371-3.8535C467.33893,241.625,428.19243,211.61533,428.19243,211.61533ZM501.376,221.749c-13.6182-2.0214-70.9238-22.3027-70.9238-22.3027s23.5507,11.7637,36.5996,17.4404c9.4267,4.1045,27.1279,11.3858,38.5869,19.4034.5176-1.753,1.0361-3.5498,1.5635-5.4151.8916-3.1611,1.6757-6.1553,2.4179-9.1064A28.6351,28.6351,0,0,1,501.376,221.749Zm15.1787-45.9375a101.06035,101.06035,0,0,0-1.1377-17.3105,26.9644,26.9644,0,0,1-10.0683,8.5019c-11.9141,5.6875-73.7549,13.795-73.7549,13.795s54.4638-5.6719,68.9228-6.0889A82.07727,82.07727,0,0,1,516.55473,175.81153Zm-12.21-47.7148c-3.9218-6.1455-8.4043-9.6367-13.2539-11.2539a45.93658,45.93658,0,0,1-10.1396,13.6738c-11.915,10.5391-47.9453,30.4131-47.9453,30.4131s37.7295-15.8193,50.5029-22.7051C492.53033,133.34963,499.375,130.17483,504.34473,128.09673Zm-12.8945,64.8643c-24.5156-4.4229-59.8564-3.2403-59.8564-3.2403s48.5049,4.4571,66.665,11.7598c5.9238,2.3818,10.7715,4.2783,14.6465,5.7646.9922-5.0254,1.8008-9.7734,2.3613-14.1308C510.16023,194.51373,502.63193,194.97953,491.45023,192.961Zm-58.1562-23.5196s54.413-17.247,79.7793-21.2812a94.75294,94.75294,0,0,0-3.5205-9.5752,38.42649,38.42649,0,0,1-13.5694,7.7451C479.81453,151.60743,433.294,169.44143,433.294,169.44143Z"/>
            <g>
              <path class="cls-12" d="M184.19041,213.25s42.71979,41.1074,61.28809,14.1944c18.5703-26.9112,4.7871-51.0616-5.7685-56.9737-14.99707-8.415-29.3858,7.417-29.3858,7.417Z"/>
              <path class="cls-4" d="M217.0606,222.90333c-11.2071-2.4257-29.73149-10.0898-31.88379-10.9922l-.0264.0372c1.9326,1.2636,21.46,13.8779,39.76559,18.1933a56.86574,56.86574,0,0,0,16.8643,1.5352,23.45564,23.45564,0,0,0,3.6982-4.2324,56.64592,56.64592,0,0,0,3.4737-5.75C243.42093,223.88873,232.9024,226.335,217.0606,222.90333Zm25.2802-50.5937a29.75858,29.75858,0,0,1-9.2304,10.8672c-6.294,4.3613-35.5713,16.4795-35.5713,16.4795s32.9121-6.9922,37.5596-10.2618c3.707-2.6054,11.3027-7.0195,14.2441-8.708A30.88664,30.88664,0,0,0,242.3408,172.30963Zm-52.73919,35.3877s26.21479,7.0498,40.50389,6.2617a144.79662,144.79662,0,0,1,22.043.3887,42.85389,42.85389,0,0,0,2.39643-12.9307c-3.18063,1.749-13.11913,6.7754-24.00973,7.5899C217.294,209.999,189.60161,207.69733,189.60161,207.69733Zm3.2949-3.9043s22.57229,1.0635,38.66109-.6084a57.39383,57.39383,0,0,0,22.7989-6.9326,39.39726,39.39726,0,0,0-3.044-11.6582c-2.1025,2.166-7.5254,7.4619-12.5762,9.9199C224.3281,201.544,192.89651,203.793,192.89651,203.793Zm44.96779-34.1797a18.41936,18.41936,0,0,0-9.0537-1.5342,54.95365,54.95365,0,0,1-6.5606,8.3301c-7.3359,7.5898-19.333,15.8848-19.333,15.8848s12.167-4.208,20.1162-8.8008C229.2735,179.89263,235.4795,172.59963,237.8643,169.61333Z"/>
            </g>
            <g>
              <path class="cls-13" d="M59.02351,147.89453c-7.8262-4.583-18.3594-1.7353-23.1993,6.5127A16.17424,16.17424,0,0,0,41.667,177.252c7.832,4.5859,18.3613,1.7324,23.1973-6.5137A16.16775,16.16775,0,0,0,59.02351,147.89453Z"/>
              <path class="cls-14" d="M34.44731,156.98153A16.58776,16.58776,0,0,0,41.667,177.252c6.9404,4.04,16.0645,2.2392,21.50592-3.795a34.3859,34.3859,0,0,1-16.668-4.455A30.00763,30.00763,0,0,1,34.44731,156.98153Z"/>
              <path class="cls-14" d="M59.02351,147.89453a1.61716,1.61716,0,0,0-.89158-.5419,16.68871,16.68871,0,0,1,4.71678,22.2197,17.64761,17.64761,0,0,1-22.3096,7.0537,11.86094,11.86094,0,0,0,1.1279.626c7.832,4.5859,18.3613,1.7324,23.1973-6.5137A16.16775,16.16775,0,0,0,59.02351,147.89453Z"/>
              <path class="cls-15" d="M55.19241,147.39363c-.1689-.3057-.6523-.4649-1.1357-.6221,13.1787,8.6045-.9737,31.4443-14.8243,24.8896.4844.1573.64552.4649,1.1289.6241,8.0723,4.6621,18.0655,2.6445,22.1358-4.0869C66.64851,161.23633,63.334,151.82723,55.19241,147.39363Z"/>
              <path class="cls-16" d="M51.27931,151.87893c-3.31438-2.0947-8.06438-.626-10.2969,2.9297a7.15456,7.15456,0,0,0,2.5401,10.1592c3.3135,2.0947,8.0595.626,10.2871-2.9297C55.80371,158.40533,54.90631,153.82423,51.27931,151.87893Z"/>
              <path class="cls-13" d="M45.91121,154.958c-.8838-.5459-2.3887-.0312-3.15428,1.4854-.68752,1.2881-.65242,2.8125.23528,3.3545,1.127.622,2.4648-.1973,3.1523-1.4873A2.34829,2.34829,0,0,0,45.91121,154.958Z"/>
              <path class="cls-16" d="M58.74421,149.56743c-.9659-.3145-2.001,6.9111.0175,8.0742C63.03621,160.05183,61.64851,151.27643,58.74421,149.56743Z"/>
            </g>
            <g class="cls-17">
              <path class="cls-18" d="M515.45413,166.67483c-15.7256,55.7656-26.749,55.0332-38.0781,52.9297-19.0391-3.5254-26.9414-28.2373-55.0059-38.8135-32.79-12.3476-107.89063,24.6993-145.97753,42.3428-38.0742,17.6465-116.35939,12.3565-161.84467,1.7676-36.04892-8.3926-77.292-44.7608-96.42482-81.0449-8.3379,9.7763-15.0196,20.4072-12.3516,31.0166,1.0283,4.124-4.54-1.6162-5.6748,6.9033-.8145,6.0937,3.6865,15.4062,7.0898,22.6992,17.7159,37.9941,61.2823,77.6045,99.10942,86.4111,45.48438,10.5889,123.77047,15.878,161.84467-1.7675,38.087-17.6436,113.18663-54.6905,145.97763-42.3428,28.0644,10.5762,35.9668,35.2871,55.0058,38.8144,11.3282,2.1026,22.3526,2.835,38.0782-52.9297,9.0771-32.164,10.4267-53.2656,8.8164-68.0488C515.82813,165.30373,515.65243,165.97363,515.45413,166.67483Z"/>
            </g>
          </g>
          <g class="cls-19">
            <path class="cls-20" d="M201.0537,72.80373c40.1338,5.791,70.3545,23.4131,68.916,40.0362-2.3584,27.1806-137.13569,14.0087-138.41009-13.7618C130.28321,71.30673,180.13771,69.78423,201.0537,72.80373Z"/>
            <path class="cls-20" d="M208.2617,77.30183c19.86623,2.8672,34.8194,11.5898,34.1114,19.8193-1.17,13.4502-67.87309,6.9287-68.50689-6.8144C173.23631,76.55963,197.9131,75.80673,208.2617,77.30183Z"/>
          </g>
        </g>
      </g>
    </g>
  </g>
</svg>
