<svg xmlns="http://www.w3.org/2000/svg" xmlns:xlink="http://www.w3.org/1999/xlink" width="489.40554" height="403.7344" viewBox="0 0 489.40554 403.7344">
  <defs>
    <style>
      .cls-1 {
        fill: none;
      }

      .cls-2, .cls-5 {
        fill: #3c3641;
      }

      .cls-11, .cls-12, .cls-13, .cls-14, .cls-2, .cls-3, .cls-4 {
        fill-rule: evenodd;
      }

      .cls-3, .cls-6 {
        fill: #e00011;
      }

      .cls-4 {
        fill: #e2b459;
      }

      .cls-7 {
        fill: #ffc91f;
      }

      .cls-8 {
        fill: #d8b33a;
      }

      .cls-9 {
        clip-path: url(#clip-path);
      }

      .cls-10 {
        fill: #606060;
      }

      .cls-11 {
        fill: #212121;
      }

      .cls-12 {
        fill: #383838;
      }

      .cls-13 {
        fill: #eae2b8;
        opacity: 0.6;
      }

      .cls-14 {
        fill: #fffbd4;
      }

      .cls-15 {
        fill: #191919;
        opacity: 0.1;
      }

      .cls-16 {
        opacity: 0.5;
      }

      .cls-17 {
        fill: #fff;
        opacity: 0.3;
      }
    </style>
    <clipPath id="clip-path" transform="translate(23.3735)">
      <path class="cls-1" d="M0,249.8692c0-18.7959,52.9111-8.0537,75.5889-44.7608C98.2632,168.4014,102.959,80.6572,213.04829,56.499c107.9454-23.6894,160.1558-12.6103,150.8081,59.4971-7.3632,56.7754-8.7241,70.5283,1.1236,71.207,12.9604.8985,80.9902-56.4003,80.9902-56.4003,21.7017,50.6093,20.2671,113.5185-2.22459,149.2226,0,0-67.47171-53.8408-81.82811-51.0068-14.356,2.834,17.227,90.1133-14.356,102.0156-31.5825,11.9014-115.0366,12.3887-184.7114-3.9678C109.7334,314.5996,100.6108,286.46,72.8867,273.792,39.3901,258.4893,0,267.5596,0,249.8692Z"/>
    </clipPath>
  </defs>
  <g id="图层_2" data-name="图层 2">
    <g id="Layer_1" data-name="Layer 1">
      <g>
        <g>
          <g>
            <g>
              <path class="cls-2" d="M118.71529,117.7422s4.2715-79.2158,30.82131-107.1875c0,0,4.36429,18.5752,17.06449,5.9619,0,0,3.8696,17.9649,18.89551,6.4258,0,0,7.34419,19.3731,19.98139,5.9668,0,0,.4888,12.0273,13.2774,9.1641,0,0-6.8643,45.2461-3.5747,49.9951Z" transform="translate(23.3735)"/>
              <path class="cls-3" d="M116.74119,131.7979s4.272-79.2149,30.8223-107.1856c0,0,4.3628,18.5742,17.0635,5.9619,0,0,3.87061,17.9639,18.895,6.4248,0,0,7.3457,19.375,19.9824,5.9668,0,0,.4888,12.0284,13.2778,9.1651,0,0-6.8657,45.2461-3.5761,49.9931Z" transform="translate(23.3735)"/>
              <path class="cls-2" d="M113.71579,153.8916s4.272-79.2148,30.8223-107.1875c0,0,4.3633,18.5762,17.06351,5.9639,0,0,3.87009,17.9648,18.89549,6.4248,0,0,7.3457,19.374,19.9824,5.9687,0,0,.4888,12.0264,13.2778,9.1631,0,0-6.8652,45.2442-3.5761,49.9942Z" transform="translate(23.3735)"/>
              <g>
                <path class="cls-4" d="M144.31929,59.6641c5.5855-22.7344,13.563-40.8018,18.9566-52.834a468.77955,468.77955,0,0,0-16.542,52.9873c-5.1016,21.2754-8.438,42.8711-11.0757,60.3486C137.13819,103.752,138.8506,82.5664,144.31929,59.6641Z" transform="translate(23.3735)"/>
                <path class="cls-4" d="M156.418,54.0557c5.584-22.7363,13.5659-40.8047,18.9619-52.8301A467.84271,467.84271,0,0,0,158.833,54.2158c-5.1016,21.2725-8.437,42.8653-11.0723,60.3428C149.23929,98.1436,150.94529,76.96,156.418,54.0557Z" transform="translate(23.3735)"/>
                <path class="cls-4" d="M166.93409,53.0479C172.5176,30.3106,180.5,12.2451,185.8896.2158a467.18121,467.18121,0,0,0-16.53951,52.9903c-5.103,21.2724-8.4399,42.8691-11.0752,60.3447C159.75489,97.1367,161.46479,75.9531,166.93409,53.0479Z" transform="translate(23.3735)"/>
                <path class="cls-4" d="M179.70309,52.8262C185.28909,30.0889,193.2676,12.0254,198.6616,0a466.97676,466.97676,0,0,0-16.54251,52.9873c-5.1054,21.2715-8.4389,42.8672-11.0771,60.3467C172.52249,96.9151,174.23139,75.7334,179.70309,52.8262Z" transform="translate(23.3735)"/>
                <path class="cls-4" d="M189.80809,55.3115c5.583-22.7402,13.561-40.7968,18.9517-52.83a467.966,467.966,0,0,0-16.5376,52.9931c-5.1021,21.2696-8.4405,42.8594-11.0772,60.3418C182.626,99.3994,184.33789,78.2188,189.80809,55.3115Z" transform="translate(23.3735)"/>
                <path class="cls-4" d="M197.87989,59.2354c5.582-22.7393,13.5649-40.8037,18.9546-52.8321a467.91549,467.91549,0,0,0-16.5391,52.9893c-5.1006,21.2734-8.4375,42.8652-11.0747,60.3447C190.69969,103.3242,192.40819,82.1397,197.87989,59.2354Z" transform="translate(23.3735)"/>
                <path class="cls-4" d="M208.52149,61.1924c6.3218-22.1592,14.8662-39.3477,20.6269-50.7959a440.6598,440.6598,0,0,0-18.2373,51.2393c-5.791,20.7461-9.8418,42.0254-13.06149,59.2519C199.88129,104.5889,202.3066,83.5381,208.52149,61.1924Z" transform="translate(23.3735)"/>
                <path class="cls-4" d="M132.6426,62.5352c5.58349-22.7422,13.562-40.8067,18.95509-52.836a468.264,468.264,0,0,0-16.542,52.9903c-5.10109,21.2754-8.437,42.8662-11.0743,60.3486C125.46039,106.6182,127.17429,85.4375,132.6426,62.5352Z" transform="translate(23.3735)"/>
              </g>
            </g>
            <g>
              <path class="cls-2" d="M214.70019,333.4033s53.4487,53.0811,90.9336,67.9766c0,0-8.5454-13.2734,8.8974-6.6699,0,0-8.5258-12.7803,9.9649-7.2617,0,0-6.8369-14.2735,11.062-7.1211,0,0-7.27049-8.2344,4.0518-8.2588,0,0-33.8174-29.6367-34.3877-33.3643Z" transform="translate(23.3735)"/>
              <path class="cls-3" d="M204.311,324.169s53.4507,53.084,90.9341,67.9775c0,0-8.5459-13.2734,8.89651-6.6689,0,0-8.52391-12.7803,9.96629-7.2637,0,0-6.8369-14.2715,11.0625-7.1192,0,0-7.271-8.2333,4.0503-8.2587,0,0-33.8164-29.6368-34.3872-33.3663Z" transform="translate(23.3735)"/>
              <path class="cls-2" d="M188.04049,309.6465s53.4507,53.083,90.93411,67.9775c0,0-8.54591-13.2734,8.897-6.6689,0,0-8.52441-12.7812,9.96529-7.2617,0,0-6.8369-14.2735,11.0635-7.1221,0,0-7.2705-8.2344,4.0508-8.2578,0,0-33.8179-29.6367-34.3877-33.3662Z" transform="translate(23.3735)"/>
              <g>
                <path class="cls-4" d="M270.58739,368.8662a549.06611,549.06611,0,0,0,47.6211,32.9287c-12.3784-8.498-27.8272-19.1718-45.9238-33.4052-17.294-13.6485-33.48-27.7852-46.5332-39.2383C237.27049,340.0606,251.98929,354.169,270.58739,368.8662Z" transform="translate(23.3735)"/>
                <path class="cls-4" d="M283.14109,370.8115a547.44494,547.44494,0,0,0,47.6192,32.9229c-12.3819-8.498-27.8282-19.1689-45.9278-33.4023-17.2934-13.6485-33.4756-27.7832-46.5268-39.2354C249.82319,342.0049,264.53369,356.1143,283.14109,370.8115Z" transform="translate(23.3735)"/>
                <path class="cls-4" d="M291.59419,369.8789a549.00464,549.00464,0,0,0,47.6182,32.9248c-12.38179-8.498-27.8237-19.167-45.9243-33.4062-17.293-13.6445-33.47849-27.7822-46.5293-39.2344C258.27689,341.0713,272.99119,355.1797,291.59419,369.8789Z" transform="translate(23.3735)"/>
                <path class="cls-4" d="M301.22309,368.0645a548.55035,548.55035,0,0,0,47.6177,32.9238c-12.3808-8.4971-27.8237-19.166-45.9238-33.4053-17.29439-13.6445-33.4775-27.7822-46.5313-39.2324C267.90429,339.2598,282.61909,353.3662,301.22309,368.0645Z" transform="translate(23.3735)"/>
                <path class="cls-4" d="M307.15529,364.8262a548.66318,548.66318,0,0,0,47.6162,32.9248c-12.37789-8.499-27.8242-19.167-45.9253-33.4072-17.28959-13.6436-33.47459-27.7783-46.5283-39.2334C273.83739,336.0205,288.55369,350.126,307.15529,364.8262Z" transform="translate(23.3735)"/>
                <path class="cls-4" d="M310.66409,360.9229a548.61228,548.61228,0,0,0,47.6167,32.9267c-12.375-8.4961-27.8194-19.167-45.92-33.4043-17.2939-13.6474-33.4765-27.7822-46.53019-39.2353C277.34619,332.1182,292.06249,346.2266,310.66409,360.9229Z" transform="translate(23.3735)"/>
                <path class="cls-4" d="M317.33009,357.96a523.00053,523.00053,0,0,0,47.5683,31.2881c-12.3589-8.0684-27.7871-18.2061-46.0727-31.9571-17.4707-13.1836-33.9863-26.997-47.313-38.1884C283.36769,329.8487,298.53079,343.7569,317.33009,357.96Z" transform="translate(23.3735)"/>
                <path class="cls-4" d="M260.08639,368.7129a548.48338,548.48338,0,0,0,47.6211,32.9287c-12.3794-8.498-27.8237-19.1679-45.9228-33.4052-17.294-13.6475-33.47809-27.7823-46.5313-39.2354C226.77289,339.9112,241.48729,354.0166,260.08639,368.7129Z" transform="translate(23.3735)"/>
              </g>
            </g>
            <g>
              <g>
                <path class="cls-5" d="M202.02339,98.5801C234.54879,54.458,327.647-33.0244,385.061,22.1533c30.667,29.4707-13.10739,170.7403,2.4453,155.7911,0,0,17.9986,48.2402-48.622,23.8711C272.2646,177.4444,202.02339,98.5801,202.02339,98.5801Z" transform="translate(23.3735)"/>
                <path class="cls-6" d="M187.48829,110.5821c32.5259-44.1221,125.6235-131.6055,183.0376-76.4288,30.667,29.4707-13.1065,170.7403,2.4453,155.792,0,0,17.9985,48.2412-48.6221,23.8711C257.72949,189.4463,187.48829,110.5821,187.48829,110.5821Z" transform="translate(23.3735)"/>
                <path class="cls-5" d="M176.522,122.7256c32.5254-44.123,125.6235-131.6064,183.0371-76.4267,30.667,29.4707-13.10649,170.7392,2.4458,155.791,0,0,17.9985,48.2402-48.6226,23.8711C246.76269,201.5899,176.522,122.7256,176.522,122.7256Z" transform="translate(23.3735)"/>
                <path class="cls-5" d="M381.58739,236.2627c-13.5166-6.3799,42.30521,99.8731,14.6685,128.21-27.6382,28.3369-104.1368-19.6153-174.5132-27.6592-70.3775-8.0459,97.1074-119.7754,97.1074-119.7754l62.209,4.6152Z" transform="translate(23.3735)"/>
                <path class="cls-6" d="M366.58109,219.6143c-13.5166-6.3799,42.3042,99.874,14.6679,128.2109-27.6386,28.3389-104.1367-19.6162-174.5136-27.6611-70.3775-8.044,97.1074-119.7744,97.1074-119.7744l62.209,4.6133Z" transform="translate(23.3735)"/>
                <path class="cls-5" d="M354.34369,209.2207c-13.5166-6.3789,42.3042,99.8731,14.6675,128.211-27.6382,28.3369-104.1362-19.6143-174.5127-27.6582-70.37689-8.0459,97.1075-119.7774,97.1075-119.7774l62.2089,4.6143Z" transform="translate(23.3735)"/>
                <path class="cls-7" d="M424.51419,148.2871c-21.1104,16.7735-51.336,39.4844-59.5342,38.916-9.8477-.6767-8.4868-14.4316-1.1236-71.207,9.3477-72.1074-42.8627-83.1846-150.8081-59.4971C102.959,80.6582,98.2632,168.4024,75.5889,205.1084,52.9111,241.8155,0,231.0733,0,249.8701c0,17.6895,39.3901,8.6192,72.8867,23.9229,27.7241,12.667,36.8467,40.8066,89.96339,53.2734,69.6748,16.3565,153.1289,15.8701,184.7114,3.9688,31.583-11.9033,0-99.1817,14.356-102.0166,14.3564-2.834,81.82811,51.0088,81.82811,51.0088,15.90229-25.2452,21.26369-64.0899,15.37789-102.5713A37.5269,37.5269,0,0,1,424.51419,148.2871Z" transform="translate(23.3735)"/>
              </g>
              <g>
                <path class="cls-8" d="M221.644,127.4658c.3584-10.75-6.5293-16.2529-6.5293-16.2529.2354.0088,10.27891,2.2344,10.65291,16.127h0c.00579.2539,0,.4922,0,.7031h0c-.06891,13.9717-11.17821,16.3017-11.31691,16.3057h0A25.03552,25.03552,0,0,0,221.644,127.4658Z" transform="translate(23.3735)"/>
                <path class="cls-8" d="M220.48929,160.666a20.54662,20.54662,0,0,0-6.543-16.248c.2495.0098,10.2876,2.2334,10.6606,16.1318h0c.0069.25,0,.4864,0,.6934h0c-.0766,13.9765-11.17229,16.3066-11.3159,16.3174h0A25.08709,25.08709,0,0,0,220.48929,160.666Z" transform="translate(23.3735)"/>
                <path class="cls-8" d="M220.35789,193.7227a20.55964,20.55964,0,0,0-6.5351-16.252c.248.0137,10.2861,2.2393,10.65281,16.1319h0c.00679.248,0,.4921,0,.6972h0c-.06891,13.9776-11.17141,16.3028-11.31691,16.3116h0A25.03286,25.03286,0,0,0,220.35789,193.7227Z" transform="translate(23.3735)"/>
                <path class="cls-8" d="M219.978,226.9766a20.57778,20.57778,0,0,0-6.54339-16.2559c.24949.0147,10.28759,2.2451,10.66059,16.1377h0c.0073.249,0,.4863,0,.6983h0c-.0683,13.9707-11.1782,16.2998-11.3232,16.3037h0A25.07729,25.07729,0,0,0,219.978,226.9766Z" transform="translate(23.3735)"/>
                <path class="cls-8" d="M235.06639,207.6084a20.55133,20.55133,0,0,0-6.5356-16.2519c.25.0078,10.2876,2.2324,10.6543,16.1259h0c.0063.253,0,.4961,0,.7041h0c-.0704,13.9688-11.1729,16.2999-11.3179,16.3067h0A25.05424,25.05424,0,0,0,235.06639,207.6084Z" transform="translate(23.3735)"/>
                <path class="cls-8" d="M235.4126,174.7969a20.55317,20.55317,0,0,0-6.55081-16.251c.2569.0088,10.3023,2.2383,10.6675,16.1319h0c.00831.248,0,.4921,0,.6972h0c-.0684,13.9717-11.1841,16.2969-11.3159,16.3067h0A25.04514,25.04514,0,0,0,235.4126,174.7969Z" transform="translate(23.3735)"/>
                <path class="cls-8" d="M188.75729,262.9473a20.59111,20.59111,0,0,0-6.5493-16.251c.2554.0147,10.2861,2.2393,10.6675,16.1328h0c.0073.2481,0,.4903,0,.6983h0c-.0757,13.9677-11.1856,16.2959-11.3247,16.3105h0A25.05993,25.05993,0,0,0,188.75729,262.9473Z" transform="translate(23.3735)"/>
                <path class="cls-8" d="M189.08939,230.1338a20.52537,20.52537,0,0,0-6.5362-16.248c.2486.0107,10.2871,2.2402,10.6612,16.1318h0c.0063.249,0,.4883,0,.6943h0c-.0694,13.9766-11.1783,16.3047-11.3179,16.3145h0A25.008,25.008,0,0,0,189.08939,230.1338Z" transform="translate(23.3735)"/>
                <path class="cls-8" d="M219.33639,260.4268a20.56349,20.56349,0,0,0-6.5434-16.2481c.2485.0078,10.2788,2.2334,10.6601,16.128h0c.0073.2509,0,.4892,0,.7011h0c-.0761,13.9717-11.185,16.3008-11.3169,16.3047h0A25.06712,25.06712,0,0,0,219.33639,260.4268Z" transform="translate(23.3735)"/>
                <path class="cls-8" d="M192.83349,176.5342a20.5349,20.5349,0,0,0-6.5293-16.249c.2422.0127,10.2871,2.2363,10.6528,16.1299h0c.0142.249,0,.4921,0,.6982h0c-.0698,13.9766-11.17139,16.2998-11.3095,16.3096h0A25.021,25.021,0,0,0,192.83349,176.5342Z" transform="translate(23.3735)"/>
                <path class="cls-8" d="M267.605,141.2696c.3515-10.7471-6.5283-16.2559-6.5283-16.2559.2343.0137,10.2802,2.2441,10.646,16.1367h0c.0073.2481,0,.4854,0,.6992h0c-.06209,13.9688-11.1714,16.2998-11.3096,16.3037h0A25.06815,25.06815,0,0,0,267.605,141.2696Z" transform="translate(23.3735)"/>
                <path class="cls-8" d="M257.165,112.7002c.3384-10.7412-6.5361-16.2451-6.5361-16.2451.2412.0068,10.2808,2.2324,10.6528,16.127h0c.00691.25,0,.4892,0,.6992h0c-.0756,13.9736-11.1845,16.3037-11.3159,16.3076h0A25.10107,25.10107,0,0,0,257.165,112.7002Z" transform="translate(23.3735)"/>
                <path class="cls-8" d="M265.78319,177.8614a20.55684,20.55684,0,0,0-6.53559-16.251c.23429.0127,10.27929,2.2363,10.65279,16.1347h0c.0063.2442,0,.4873,0,.6934h0c-.0762,13.9766-11.1851,16.3027-11.3169,16.3125h0A25.07459,25.07459,0,0,0,265.78319,177.8614Z" transform="translate(23.3735)"/>
                <path class="cls-8" d="M265.64549,210.9141a20.54122,20.54122,0,0,0-6.5293-16.2471c.2417.0137,10.2803,2.2393,10.6528,16.1309h0c.0074.248,0,.4892,0,.6992h0c-.0693,13.9726-11.1777,16.3018-11.31639,16.3115h0A25.03029,25.03029,0,0,0,265.64549,210.9141Z" transform="translate(23.3735)"/>
                <path class="cls-8" d="M265.26419,244.1739c.354-10.7491-6.5352-16.2549-6.5352-16.2549.2422.0117,10.2808,2.2363,10.6533,16.1308h0c.0069.253,0,.4912,0,.7012h0c-.0625,13.9727-11.1709,16.2979-11.3159,16.3076h0A25.06086,25.06086,0,0,0,265.26419,244.1739Z" transform="translate(23.3735)"/>
                <path class="cls-8" d="M264.62889,277.6221a20.59162,20.59162,0,0,0-6.54929-16.252c.24849.0137,10.28759,2.2373,10.65429,16.1329h0c.019.246,0,.4912,0,.6972h0c-.0635,13.9746-11.1724,16.3018-11.3106,16.3106h0A25.08886,25.08886,0,0,0,264.62889,277.6221Z" transform="translate(23.3735)"/>
                <path class="cls-8" d="M204.70309,176.8711a20.54974,20.54974,0,0,0-6.5361-16.248c.2495.0088,10.2871,2.2334,10.6538,16.1318h0c.0063.25,0,.4883,0,.6992h0c-.062,13.9688-11.1709,16.2969-11.3164,16.3096h0A25.03718,25.03718,0,0,0,204.70309,176.8711Z" transform="translate(23.3735)"/>
                <path class="cls-8" d="M204.5786,209.9287a20.55239,20.55239,0,0,0-6.53611-16.2509c.2353.0078,10.2807,2.2382,10.6533,16.1367h0c.0073.2412,0,.4834,0,.6914h0c-.07519,13.9775-11.1714,16.3027-11.3159,16.3105h0A25.06618,25.06618,0,0,0,204.5786,209.9287Z" transform="translate(23.3735)"/>
                <path class="cls-8" d="M204.18509,243.1787a20.56016,20.56016,0,0,0-6.5289-16.247c.2417.0146,10.2803,2.2392,10.646,16.1328h0c.0069.248,0,.4863,0,.6972h0c-.0615,13.9707-11.1709,16.3008-11.3022,16.3096h0A25.03253,25.03253,0,0,0,204.18509,243.1787Z" transform="translate(23.3735)"/>
                <path class="cls-8" d="M203.54829,276.6358c.3462-10.7432-6.5346-16.252-6.5346-16.252.2348.0078,10.2802,2.2383,10.6465,16.1318h0c.0131.2491,0,.4922,0,.6983h0c-.063,13.9775-11.1724,16.3008-11.3111,16.3066h0A25.05564,25.05564,0,0,0,203.54829,276.6358Z" transform="translate(23.3735)"/>
                <path class="cls-8" d="M251.4946,160.666a20.52709,20.52709,0,0,0-6.53421-16.248c.2403.0098,10.2867,2.2334,10.6514,16.1318h0c.00881.25,0,.4864,0,.6934h0c-.0615,13.9765-11.1694,16.3066-11.3076,16.3174h0A25.094,25.094,0,0,0,251.4946,160.666Z" transform="translate(23.3735)"/>
                <path class="cls-8" d="M250.335,193.8701c.3593-10.7451-6.5279-16.2509-6.5279-16.2509.2354.0127,10.2788,2.2422,10.6529,16.1318h0c.0058.252,0,.4902,0,.6953h0c-.0762,13.9766-11.17139,16.3027-11.31739,16.3164h0A25.05107,25.05107,0,0,0,250.335,193.8701Z" transform="translate(23.3735)"/>
                <path class="cls-8" d="M250.21039,226.9268a20.548,20.548,0,0,0-6.5429-16.251c.2568.0127,10.28711,2.2373,10.66111,16.1328h0c.01419.2471,0,.4893,0,.6963h0c-.06931,13.9766-11.17041,16.3018-11.31641,16.3096h0A25.02724,25.02724,0,0,0,250.21039,226.9268Z" transform="translate(23.3735)"/>
                <path class="cls-8" d="M249.82319,260.1768a20.5499,20.5499,0,0,0-6.53459-16.2461c.24119.0107,10.28759,2.2383,10.65279,16.1318h0c.0073.2442,0,.4864,0,.6924h0c-.0762,13.9756-11.1709,16.3018-11.3179,16.3154h0A25.0676,25.0676,0,0,0,249.82319,260.1768Z" transform="translate(23.3735)"/>
                <path class="cls-8" d="M249.1816,293.6299c.35059-10.7432-6.53561-16.2461-6.53561-16.2461.2417.0088,10.2793,2.2344,10.6528,16.1309h0c.0064.25,0,.4873,0,.6972h0c-.0688,13.9707-11.17919,16.3018-11.3095,16.3106h0A25.09373,25.09373,0,0,0,249.1816,293.6299Z" transform="translate(23.3735)"/>
                <path class="cls-8" d="M179.20169,125.0987a20.56431,20.56431,0,0,0-6.5347-16.254c.2485.0147,10.2871,2.2403,10.6587,16.1368h0v.6933h0c-.0742,13.9776-11.1773,16.3028-11.3218,16.3155h0A25.01792,25.01792,0,0,0,179.20169,125.0987Z" transform="translate(23.3735)"/>
                <path class="cls-8" d="M178.04829,158.3018a20.54111,20.54111,0,0,0-6.5429-16.251c.2485.0147,10.2939,2.2383,10.6606,16.1318h0c.0069.253,0,.4922,0,.6973h0c-.0698,13.9766-11.1723,16.3018-11.3169,16.3115h0A25.07056,25.07056,0,0,0,178.04829,158.3018Z" transform="translate(23.3735)"/>
                <path class="cls-8" d="M197.06639,103.2471a20.56445,20.56445,0,0,0-6.5352-16.2539c.2486.0156,10.2867,2.2402,10.6587,16.1387h0v.6923h0c-.0747,13.9766-11.1772,16.3018-11.3222,16.3164h0A25.02359,25.02359,0,0,0,197.06639,103.2471Z" transform="translate(23.3735)"/>
                <path class="cls-8" d="M195.91309,136.4512a20.54117,20.54117,0,0,0-6.544-16.25c.2486.0146,10.295,2.2383,10.6612,16.1299h0c.00631.2539,0,.4922,0,.6992h0c-.0703,13.9756-11.1714,16.3008-11.3169,16.3096h0A25.06348,25.06348,0,0,0,195.91309,136.4512Z" transform="translate(23.3735)"/>
                <path class="cls-8" d="M177.9106,191.3614c.35259-10.7442-6.52881-16.254-6.52881-16.254.24081.0147,10.2862,2.2393,10.6455,16.1329h0c.0069.247,0,.4863,0,.6982h0c-.0615,13.9707-11.1709,16.3018-11.3022,16.3096h0A25.0349,25.0349,0,0,0,177.9106,191.3614Z" transform="translate(23.3735)"/>
                <path class="cls-8" d="M242.87789,94.0733c.3511-10.7432-6.5361-16.2471-6.5361-16.2471.2485.0098,10.2803,2.2353,10.65281,16.1269h0c.00739.2491,0,.4932,0,.6983h0c-.06931,13.9775-11.17141,16.3008-11.31591,16.3105h0A25.05931,25.05931,0,0,0,242.87789,94.0733Z" transform="translate(23.3735)"/>
                <path class="cls-8" d="M242.23439,127.5254a20.55094,20.55094,0,0,0-6.5425-16.2461c.2485.0108,10.2944,2.2344,10.6675,16.1319h0c.0068.2441,0,.4863,0,.6943h0c-.0825,13.9746-11.1856,16.2998-11.3242,16.3125h0A25.0801,25.0801,0,0,0,242.23439,127.5254Z" transform="translate(23.3735)"/>
              </g>
              <g>
                <path class="cls-6" d="M256.13379,198.5694c-.7193-4.7549-4.6577-7.7207-5.2197-8.5889-.5606-.8652-14.7398,2.1035-21.4717,3.5859-6.7261,1.4825-32.563,8.9483-45.03179,13.0674-6.47071,2.1397-14.28951,6.9043-20.31931,10.9971a37.07928,37.07928,0,0,1,13.0166,28.0078,36.15864,36.15864,0,0,1-1.7705,11.1611,218.8026,218.8026,0,0,0,22.0356,5.168c6.3892.9941,8.2774,2.917,16.7618.3955,8.4863-2.5225,15.52781-4.6113,20.9672-10.5703,5.4351-5.9619,10.7632-9.2002,12.6734-15.1455,1.9058-5.9502,3.1455-10.044,6.06-17.9424A42.017,42.017,0,0,0,256.13379,198.5694Z" transform="translate(23.3735)"/>
                <g>
                  <path class="cls-5" d="M227.72069,195.3262c-13.6987,1.8975-38.2002,8.8701-52.248,15.2119a94.35137,94.35137,0,0,0-11.9429,6.6045c.7534.624,1.4756,1.2832,2.1777,1.9639a291.11682,291.11682,0,0,1,29.6319-13.2305c12.0839-4.2051,53.853-14.1348,53.853-14.1348S238.70209,193.8057,227.72069,195.3262Z" transform="translate(23.3735)"/>
                  <path class="cls-5" d="M213.01219,205.9072c-10.7602,2.8868-31.4888,10.9063-39.05859,13.4688a47.80735,47.80735,0,0,0-5.74751,2.3916c.55951.6563,1.0986,1.3281,1.6127,2.0225,2.1836-1.1651,4.6392-2.3887,7.0762-3.4297,7.18361-3.0655,31.4224-11.1963,38.5498-13.3125,7.1284-2.1182,38.0586-10.6924,38.0586-10.6924S223.7656,203.0205,213.01219,205.9072Z" transform="translate(23.3735)"/>
                  <path class="cls-5" d="M219.94289,211.293c-5.0191,1.2373-36.7549,10.4189-48.5298,14.833q.8217,1.2993,1.5327,2.668c8.5063-3.003,29.3662-10.3965,33.6499-11.67,5.3467-1.5859,22.668-5.4951,27.7603-7.0068,5.0908-1.5107,19.6611-5.5273,19.6611-5.5273S226.1216,209.7705,219.94289,211.293Z" transform="translate(23.3735)"/>
                  <path class="cls-5" d="M198.167,254.085c-3.3296-.7168-14.5039-3.459-21.2212-5.1162q-.1245,1.3476-.34719,2.6689c5.87009,1.6856,14.47849,4.043,18.522,4.5918,6.45119.8799,30.60349,2.6992,30.60349,2.6992S203.02289,255.126,198.167,254.085Z" transform="translate(23.3735)"/>
                  <path class="cls-5" d="M201.81879,248.6494c-3.08-.6455-17.0957-2.3798-24.7187-3.3037.001.0987.0078.1944.0078.293,0,.6836-.0225,1.3613-.0605,2.0361,6.4096.7305,17.88621,2.0782,24.1513,3.0196,9.0098,1.3662,32.1787,2.8584,32.1787,2.8584S206.0996,249.5518,201.81879,248.6494Z" transform="translate(23.3735)"/>
                  <path class="cls-5" d="M205.209,242.0606c-5.8755-.0987-21.0059-.7012-28.4043-1.003.10791.8457.1943,1.6983.2436,2.5596,7.2256.2227,22.5992.7041,28.1807.9121,7.4043.291,35.0898.1377,35.0898.1377S213.123,242.1856,205.209,242.0606Z" transform="translate(23.3735)"/>
                  <path class="cls-5" d="M210.31489,234.6416c-4.4365.3789-24.5947,2.0557-34.1489,2.8487.1279.5507.2412,1.1035.3428,1.6621,7.7021-.3887,24.5234-1.2471,31.7241-1.7207,9.375-.6094,38.1826-4.2012,38.1826-4.2012S216.17969,234.1416,210.31489,234.6416Z" transform="translate(23.3735)"/>
                  <path class="cls-5" d="M176.27979,253.3037c-.1626.75-.353,1.4912-.5625,2.2256,2.501.7988,5.9087,1.8604,10.17431,3.1309,9.91259,2.9502,18.79589,4.9658,18.79589,4.9658Z" transform="translate(23.3735)"/>
                  <path class="cls-5" d="M209.561,220.5908c-5.4331,1.378-26.0722,6.7461-35.8769,9.7002q.5574,1.191,1.0322,2.4307c10.1152-2.9746,32.4844-9.1885,36.9009-10.2607,5.665-1.3741,40.41941-11.0772,40.41941-11.0772S216.75239,218.7617,209.561,220.5908Z" transform="translate(23.3735)"/>
                  <path class="cls-5" d="M210.57419,227.4268c-8.7051,1.3896-27.3481,4.623-35.395,6.5957.25541.7529.4941,1.5156.7007,2.289,8.9458-1.5,32.8598-5.5468,35.5464-6.3457,3.3066-.9814,38.5327-7.413,38.5327-7.413S221.85249,225.6289,210.57419,227.4268Z" transform="translate(23.3735)"/>
                </g>
              </g>
              <g>
                <path class="cls-7" d="M355.83349,178.96s38.1499-22.8877,48.1992-27.3555c10.043-4.4639,48.5513-22.7129,50.6172-20.834,6.1416,5.5821,10.0425,49.6885,10.605,76.4825.5605,26.7998-3.3496,84.3037-7.2578,84.8584-3.9087.5615-25.271-10.167-45.4068-19.7256-21.9599-10.418-54.124-33.9239-62.34269-41.6866-10.04981-9.4892-8.92731-27.3525-3.34871-37.9589C349.2256,188.3242,355.83349,178.96,355.83349,178.96Z" transform="translate(23.3735)"/>
                <path class="cls-6" d="M465.35889,207.253c-.5606-26.794-4.4639-70.9004-10.6045-76.4825-1.0532-.957-11.57279,3.3145-22.9649,8.3242a60.29862,60.29862,0,0,1-4.8652,72.1817,60.23333,60.23333,0,0,1,1.9898,68.8672c14.1821,6.7724,26.3344,12.3779,29.18751,11.9678C462.01029,291.5567,465.91939,234.0528,465.35889,207.253Z" transform="translate(23.3735)"/>
                <g>
                  <path class="cls-5" d="M384.29739,192.3506c.5366.375,1.0586.7412,1.5356,1.0996,10.9751-3.1269,25.73-7.3252,29.3657-8.3496,5.9561-1.6738,47.2686-14.8818,47.2686-14.8818s-41.5054,10.6064-48.20069,12.6533C410.11519,184.1387,395.11179,188.9082,384.29739,192.3506Z" transform="translate(23.3735)"/>
                  <path class="cls-5" d="M387.29489,194.5762c.4014.3223.7578.6367,1.11571.9609,11.34279-2.0361,24.21779-4.3476,27.34139-4.9433,5.8613-1.1182,48.289-10.6074,48.289-10.6074s-38.2392,6.4228-49.123,8.3759C409.29929,189.3701,397.45119,192.1348,387.29489,194.5762Z" transform="translate(23.3735)"/>
                  <path class="cls-5" d="M379.00439,189.0254c.6831.3897,1.3574.7813,2.0405,1.1992.34471.2119.6504.4131.9766.6221,10.4175-3.9316,27.6797-10.4219,30.3843-11.3281l49.3149-19.7207s-45.4067,16.1875-50.8018,17.8662C407.04879,178.8614,388.95749,185.4072,379.00439,189.0254Z" transform="translate(23.3735)"/>
                  <path class="cls-5" d="M369.07669,184.3174c.6626.2607,1.3393.5303,2.0205.8203,7.62741-3.4004,30.9453-13.8076,34.9829-15.6689,4.8388-2.2315,52.10151-27.166,52.10151-27.166s-60.48041,28.1005-64.38521,30.1464C390.667,174.086,375.15279,181.4424,369.07669,184.3174Z" transform="translate(23.3735)"/>
                  <path class="cls-5" d="M373.09369,186.0196c1.1226.5107,2.2505,1.0517,3.399,1.6455,9.23391-3.7803,27.00391-11.0537,30.1416-12.4219,4.2846-1.8652,53.7856-23.6387,53.7856-23.6387s-51.7324,19.5469-58.2495,22.5186C397.23579,176.378,380.78949,182.792,373.09369,186.0196Z" transform="translate(23.3735)"/>
                  <path class="cls-5" d="M464.32229,198.4131s-36.2881,1.3955-47.1724,1.9502c-4.9429.2529-14.8906.8506-24.2764,1.4316a7.52617,7.52617,0,0,1,.2422,1.3135c9.1436-.0361,18.8174-.1054,24.0342-.2334C423.28909,202.7324,464.32229,198.4131,464.32229,198.4131Z" transform="translate(23.3735)"/>
                  <path class="cls-5" d="M464.32229,218.5078s-25.6841-3.3486-40.751-5.0263c-7.6919-.8487-21.2525-2.6807-32.438-4.1114-.2681.4043-.563.8135-.875,1.2305-.0684.0869-.165.1856-.2344.2734,12.8999,1.9815,29.708,4.5079,33.5474,4.8399C429.99269,216.2764,464.32229,218.5078,464.32229,218.5078Z" transform="translate(23.3735)"/>
                  <path class="cls-5" d="M386.35109,214.5938c13.9951,3.1133,34.1904,7.5644,37.7744,8.1006,5.5859.8398,41.0322,7.2607,41.0322,7.2607s-27.0762-6.7012-41.8686-9.4922c-7.7979-1.4707-23.4336-4.7021-35.5616-7.126C387.30709,213.7403,386.835,214.1621,386.35109,214.5938Z" transform="translate(23.3735)"/>
                  <path class="cls-5" d="M390.56489,197.7237a15.44258,15.44258,0,0,1,1.021,1.3476c11.8584-1.1396,24.6958-2.3769,27.9795-2.706,8.3799-.8389,45.0381-7.4463,45.0381-7.4463s-42.52489,4.6533-56.7588,6.3271C403.30569,195.7822,396.87209,196.7344,390.56489,197.7237Z" transform="translate(23.3735)"/>
                  <path class="cls-5" d="M392.72609,206.1387a10.62942,10.62942,0,0,1-.4649,1.1963c10.25341.8838,21.7427,1.8203,26.0025,1.9619,8.373.2803,46.6196.5576,46.6196.5576s-49.4106-3.0654-58.6196-3.3476C402.98679,206.4053,397.90379,206.2725,392.72609,206.1387Z" transform="translate(23.3735)"/>
                  <path class="cls-5" d="M365.895,228.8194c-.60639.3437-1.19239.6533-1.7729.9599,6.8291,5.6709,24.5239,20.336,27.8144,22.8721,4.0933,3.1719,27.5405,19.3613,31.4497,22.1494,3.9077,2.7949,20.0982,11.9111,20.0982,11.9111s-44.1055-32.5732-51.5479-37.4052C386.03079,245.4746,371.6206,233.585,365.895,228.8194Z" transform="translate(23.3735)"/>
                  <path class="cls-5" d="M374.66209,223.4307c-.853.5635-1.7012,1.1191-2.563,1.667,16.6929,10.25,43.8433,26.9433,46.7266,28.8623,4.1836,2.791,42.4297,24.2822,42.4297,24.2822s-32.106-21.21-41.59479-26.7939C413.5576,247.8623,390.45119,233.2442,374.66209,223.4307Z" transform="translate(23.3735)"/>
                  <path class="cls-5" d="M378.59619,220.7119c-.6362.461-1.2944.917-1.9512,1.3662,14.0415,8.1739,42.333,24.6348,46.9263,27.1358,6.1401,3.3506,38.2388,18.4238,38.2388,18.4238s-28.75149-16.1894-38.2388-21.2168C417.40529,243.1563,393.187,228.9307,378.59619,220.7119Z" transform="translate(23.3735)"/>
                  <path class="cls-5" d="M369.47119,226.7295c-.7012.4238-1.3955.8418-2.0781,1.2412,8.2832,5.7637,44.6748,31.042,47.8056,32.6895,3.5318,1.8623,44.6592,27.166,44.6592,27.166s-34.6118-24.1895-43.5439-29.21C408.6626,254.3086,378.08639,232.8135,369.47119,226.7295Z" transform="translate(23.3735)"/>
                  <path class="cls-5" d="M384.81979,215.9151c-.4653.3867-.9238.7714-1.4219,1.1709,14.1885,4.6855,34.4078,11.3476,38.4952,12.5879,6.4214,1.9541,42.4292,11.164,42.4292,11.164s-36.0078-12.2812-46.8926-15.3545C411.46729,223.8106,396.61129,219.3076,384.81979,215.9151Z" transform="translate(23.3735)"/>
                  <path class="cls-5" d="M380.65039,219.1983c-.1914.1484-.3955.2939-.5933.4433,14.5689,6.6299,39.66851,18.0381,43.79451,19.8008,5.85979,2.5098,39.63619,15.0723,39.63619,15.0723s-31.5454-13.6768-39.3623-17.5821C418.74949,234.2451,394.97219,224.8223,380.65039,219.1983Z" transform="translate(23.3735)"/>
                  <path class="cls-5" d="M362.16449,181.9414c1.1924.3575,2.4874.7705,3.8399,1.2422,6.5405-3.6719,33.5654-18.8418,36.166-20.2256,3.1641-1.6738,54.15721-28.2822,54.15721-28.2822s-47.271,22.1455-55.46431,26.2383C392.68309,165.002,362.209,181.9151,362.16449,181.9414Z" transform="translate(23.3735)"/>
                  <path class="cls-5" d="M360.76069,181.5362a16.269,16.269,0,0,0,2.2774-1.084c11.4712-6.2901,37.5708-22.2442,40.9946-23.8213,4.8325-2.2363,34.7974-20.4707,34.7974-20.4707s-42.4307,22.1474-46.3399,24.3779c-3.7739,2.1582-31.518,19.3818-33.393,20.5488Q359.89114,181.2861,360.76069,181.5362Z" transform="translate(23.3735)"/>
                </g>
              </g>
            </g>
            <g class="cls-9">
              <path class="cls-6" d="M369.11769,284.8145c.101-.0254.1943-.0254.29391-.042-.32761-15.6123,6.88769-16.2725-10.96581-46.8037-19.5347-33.4014-30.7036-149.7002-2.5835-173.7754-.686-10.335,1.65431-19.3291,9.5449-27.3467,3.4097-3.4609,8.92141-6.0137,16.0913-7.8633-8.9975-5.0928-25.289-5.5127-47.9638,6.1436-57.7334,29.6748-59.01809,83.581-53.5474,155.8056,5.1162,67.5684,31.9795,130.8457,73.146,160.583,8.79931-.4023,14.2285-2.3027,15.2178-5.583C372.87839,330.9258,358.72019,287.7852,369.11769,284.8145Z" transform="translate(23.3735)"/>
              <path class="cls-5" d="M370.75339,289.5684c.1011-.0235-8.4184-3.335-8.3193-3.3496-.3272-15.6133,1.8467-33.3955-16.0069-63.9268-19.5361-33.4004-25.6621-132.5781,2.4576-156.6533-.6861-10.335,1.6552-19.3291,9.5449-27.3467,3.4106-3.4609,8.92191-6.0137,16.0918-7.8633-8.9976-5.0927-25.2896-5.5127-47.96489,6.1436-57.73291,29.6738-59.01751,83.581-53.54681,155.8057,5.1162,67.5683,31.9795,130.8457,73.1464,160.582,8.7999-.4014,14.2286-2.3018,15.2178-5.582C365.90089,332.3711,360.35639,292.5401,370.75339,289.5684Z" transform="translate(23.3735)"/>
              <g>
                <polygon class="cls-10" points="312.932 133.754 310.447 134.804 308.307 133.162 308.634 130.49 311.119 129.44 313.276 131.069 312.932 133.754"/>
                <polygon class="cls-10" points="318.889 132.3 316.404 133.355 314.258 131.728 314.593 129.048 317.076 127.997 319.223 129.632 318.889 132.3"/>
                <polygon class="cls-10" points="324.718 131.841 322.232 132.886 320.07 131.256 320.42 128.576 322.9 127.528 325.051 129.168 324.718 131.841"/>
                <polygon class="cls-10" points="332.882 130.264 330.405 131.325 328.247 129.702 328.574 127.022 331.059 125.967 333.216 127.591 332.882 130.264"/>
                <polygon class="cls-10" points="340.333 129.617 337.843 130.654 335.697 129.037 336.025 126.353 338.516 125.31 340.667 126.942 340.333 129.617"/>
                <polygon class="cls-10" points="334.99 122.97 332.5 124.024 330.348 122.396 330.687 119.705 333.172 118.661 335.329 120.297 334.99 122.97"/>
                <polygon class="cls-10" points="327.96 123.492 325.47 124.536 323.325 122.907 323.646 120.234 326.136 119.18 328.294 120.808 327.96 123.492"/>
                <polygon class="cls-10" points="320.872 124.392 318.382 125.44 316.242 123.811 316.569 121.133 319.066 120.077 321.216 121.718 320.872 124.392"/>
                <polygon class="cls-10" points="314.306 125.963 311.822 127.007 309.669 125.372 310.021 122.704 312.499 121.648 314.645 123.278 314.306 125.963"/>
                <polygon class="cls-10" points="307.717 127.722 305.226 128.767 303.076 127.138 303.408 124.463 305.893 123.419 308.056 125.042 307.717 127.722"/>
                <polygon class="cls-10" points="323.958 117.215 321.478 118.269 319.322 116.636 319.672 113.958 322.151 112.9 324.303 114.529 323.958 117.215"/>
                <polygon class="cls-10" points="332.123 115.66 329.644 116.704 327.493 115.064 327.832 112.39 330.312 111.335 332.455 112.974 332.123 115.66"/>
                <polygon class="cls-10" points="327.185 139.109 324.706 140.167 322.55 138.538 322.889 135.859 325.379 134.808 327.53 136.443 327.185 139.109"/>
                <polygon class="cls-10" points="334.244 136.813 331.759 137.868 329.607 136.243 329.953 133.564 332.431 132.517 334.582 134.138 334.244 136.813"/>
                <polygon class="cls-10" points="320.163 141.232 317.677 142.276 315.521 140.638 315.859 137.976 318.338 136.925 320.494 138.548 320.163 141.232"/>
                <polygon class="cls-10" points="327.956 109.151 325.473 110.196 323.321 108.574 323.666 105.895 326.145 104.851 328.295 106.478 327.956 109.151"/>
                <polygon class="cls-10" points="330.197 100.869 327.707 101.919 325.557 100.296 325.896 97.616 328.38 96.566 330.537 98.185 330.197 100.869"/>
                <polygon class="cls-10" points="323.82 100.864 321.34 101.915 319.183 100.286 319.517 97.612 322.001 96.557 324.158 98.185 323.82 100.864"/>
                <polygon class="cls-10" points="320.271 110.181 317.787 111.225 315.63 109.601 315.962 106.916 318.447 105.87 320.6 107.505 320.271 110.181"/>
                <polygon class="cls-10" points="335.134 93.129 332.661 94.185 330.51 92.551 330.844 89.877 333.333 88.816 335.485 90.449 335.134 93.129"/>
                <polygon class="cls-10" points="327.823 92.821 325.333 93.853 323.182 92.226 323.516 89.561 325.995 88.507 328.151 90.136 327.823 92.821"/>
                <polygon class="cls-10" points="335.735 107.545 333.246 108.596 331.099 106.954 331.427 104.281 333.912 103.231 336.063 104.86 335.735 107.545"/>
                <polygon class="cls-10" points="339.012 113.127 336.521 114.178 334.375 112.547 334.709 109.87 337.187 108.819 339.356 110.454 339.012 113.127"/>
                <polygon class="cls-10" points="342.495 106.002 339.999 107.048 337.853 105.419 338.187 102.744 340.676 101.685 342.829 103.324 342.495 106.002"/>
                <polygon class="cls-10" points="342.569 94.258 340.078 95.309 337.933 93.68 338.266 91 340.761 89.95 342.901 91.592 342.569 94.258"/>
                <polygon class="cls-10" points="343.778 83.064 341.293 84.112 339.136 82.479 339.475 79.8 341.96 78.744 344.111 80.389 343.778 83.064"/>
                <polygon class="cls-10" points="337.036 82.825 334.558 83.868 332.406 82.234 332.733 79.561 335.217 78.511 337.374 80.151 337.036 82.825"/>
                <polygon class="cls-10" points="330.049 86.124 327.563 87.17 325.413 85.54 325.756 82.86 328.236 81.811 330.387 83.444 330.049 86.124"/>
                <polygon class="cls-10" points="323.065 86.25 320.587 87.288 318.43 85.663 318.768 82.986 321.253 81.936 323.405 83.564 323.065 86.25"/>
                <polygon class="cls-10" points="333.688 76.229 331.198 77.274 329.041 75.645 329.385 72.966 331.871 71.91 334.016 73.55 333.688 76.229"/>
                <polygon class="cls-10" points="341.039 74.758 338.55 75.807 336.399 74.174 336.731 71.499 339.216 70.455 341.368 72.078 341.039 74.758"/>
                <polygon class="cls-10" points="344.189 66.989 341.711 68.033 339.572 66.412 339.893 63.732 342.372 62.692 344.535 64.316 344.189 66.989"/>
                <polygon class="cls-10" points="322.385 150.465 319.9 151.507 317.748 149.874 318.082 147.199 320.572 146.15 322.717 147.79 322.385 150.465"/>
                <polygon class="cls-10" points="333.654 147.894 331.176 148.939 329.031 147.306 329.351 144.632 331.849 143.581 333.999 145.217 333.654 147.894"/>
                <polygon class="cls-10" points="317.483 156.217 315.004 157.268 312.848 155.639 313.186 152.955 315.671 151.909 317.822 153.539 317.483 156.217"/>
                <polygon class="cls-10" points="314.358 147.854 311.857 148.908 309.717 147.275 310.044 144.603 312.534 143.551 314.68 145.18 314.358 147.854"/>
                <polygon class="cls-10" points="323.142 161.91 320.652 162.955 318.507 161.319 318.835 158.64 321.325 157.596 323.481 159.231 323.142 161.91"/>
                <polygon class="cls-10" points="329.421 156.314 326.926 157.365 324.78 155.741 325.107 153.068 327.592 152.013 329.748 153.642 329.421 156.314"/>
                <polygon class="cls-10" points="335.071 163.599 332.592 164.649 330.435 163.02 330.773 160.349 333.252 159.298 335.41 160.915 335.071 163.599"/>
                <polygon class="cls-10" points="327.96 167.879 325.487 168.939 323.324 167.311 323.663 164.638 326.154 163.575 328.3 165.204 327.96 167.879"/>
                <polygon class="cls-10" points="339.38 152.995 336.907 154.04 334.761 152.399 335.089 149.726 337.567 148.682 339.735 150.323 339.38 152.995"/>
              </g>
              <g>
                <polygon class="cls-10" points="332.955 193.068 334.923 191.223 337.498 192.02 338.117 194.639 336.149 196.486 333.563 195.705 332.955 193.068"/>
                <polygon class="cls-10" points="327.87 196.494 329.835 194.644 332.413 195.428 333.028 198.057 331.061 199.902 328.481 199.112 327.87 196.494"/>
                <polygon class="cls-10" points="322.562 198.944 324.531 197.103 327.123 197.882 327.723 200.517 325.761 202.361 323.175 201.567 322.562 198.944"/>
                <polygon class="cls-10" points="315.448 203.252 317.406 201.396 319.992 202.173 320.612 204.799 318.646 206.65 316.061 205.875 315.448 203.252"/>
                <polygon class="cls-10" points="308.683 206.439 310.659 204.603 313.232 205.376 313.853 208.008 311.879 209.851 309.295 209.063 308.683 206.439"/>
                <polygon class="cls-10" points="315.997 210.823 317.968 208.972 320.55 209.754 321.164 212.396 319.196 214.235 316.606 213.448 315.997 210.823"/>
                <polygon class="cls-10" points="322.412 207.898 324.386 206.056 326.962 206.841 327.586 209.461 325.616 211.313 323.028 210.533 322.412 207.898"/>
                <polygon class="cls-10" points="328.749 204.601 330.721 202.754 333.294 203.54 333.914 206.167 331.937 208.022 329.352 207.228 328.749 204.601"/>
                <polygon class="cls-10" points="334.365 200.853 336.332 199.012 338.918 199.8 339.512 202.425 337.554 204.274 334.975 203.488 334.365 200.853"/>
                <polygon class="cls-10" points="339.936 196.921 341.911 195.078 344.493 195.861 345.108 198.483 343.137 200.324 340.547 199.55 339.936 196.921"/>
                <polygon class="cls-10" points="328.34 212.402 330.3 210.553 332.889 211.34 333.489 213.974 331.529 215.824 328.946 215.039 328.34 212.402"/>
                <polygon class="cls-10" points="321.219 216.689 323.182 214.851 325.768 215.645 326.376 218.27 324.416 220.118 321.836 219.324 321.219 216.689"/>
                <polygon class="cls-10" points="317.729 192.98 319.688 191.13 322.275 191.911 322.885 194.541 320.913 196.389 318.33 195.601 317.729 192.98"/>
                <polygon class="cls-10" points="311.902 197.579 313.87 195.729 316.449 196.507 317.053 199.14 315.091 200.983 312.512 200.206 311.902 197.579"/>
                <polygon class="cls-10" points="323.582 188.557 325.551 186.717 328.142 187.509 328.746 190.122 326.784 191.967 324.201 191.189 323.582 188.557"/>
                <polygon class="cls-10" points="327.382 221.351 329.35 219.509 331.931 220.286 332.535 222.92 330.571 224.76 327.989 223.976 327.382 221.351"/>
                <polygon class="cls-10" points="328.148 229.896 330.119 228.049 332.7 228.827 333.31 231.457 331.343 233.304 328.76 232.533 328.148 229.896"/>
                <polygon class="cls-10" points="334.132 227.692 336.095 225.848 338.683 226.63 339.296 229.252 337.33 231.103 334.743 230.323 334.132 227.692"/>
                <polygon class="cls-10" points="334.234 217.724 336.204 215.883 338.789 216.659 339.408 219.293 337.438 221.133 334.853 220.345 334.234 217.724"/>
                <polygon class="cls-10" points="326.196 238.868 328.151 237.02 330.737 237.809 331.349 240.431 329.381 242.29 326.796 241.502 326.196 238.868"/>
                <polygon class="cls-10" points="333.163 236.626 335.142 234.794 337.723 235.575 338.332 238.189 336.373 240.039 333.786 239.258 333.163 236.626"/>
                <polygon class="cls-10" points="320.64 225.55 322.612 223.705 325.194 224.501 325.812 227.122 323.846 228.967 321.264 228.185 320.64 225.55"/>
                <polygon class="cls-10" points="315.634 221.45 317.606 219.602 320.183 220.388 320.798 223.016 318.837 224.859 316.237 224.077 315.634 221.45"/>
                <polygon class="cls-10" points="314.833 229.341 316.813 227.495 319.391 228.282 320.004 230.904 318.035 232.761 315.448 231.968 314.833 229.341"/>
                <polygon class="cls-10" points="318.831 240.385 320.806 238.537 323.382 239.32 323.998 241.95 322.02 243.8 319.444 243.002 318.831 240.385"/>
                <polygon class="cls-10" points="321.575 251.304 323.542 249.46 326.132 250.243 326.742 252.875 324.776 254.726 322.189 253.927 321.575 251.304"/>
                <polygon class="cls-10" points="327.982 249.192 329.946 247.354 332.53 248.143 333.149 250.764 331.183 252.61 328.591 251.818 327.982 249.192"/>
                <polygon class="cls-10" points="333.395 243.676 335.365 241.835 337.946 242.619 338.551 245.253 336.589 247.096 334.006 246.308 333.395 243.676"/>
                <polygon class="cls-10" points="339.903 241.142 341.868 239.308 344.455 240.085 345.064 242.715 343.096 244.56 340.514 243.777 339.903 241.142"/>
                <polygon class="cls-10" points="333.407 254.221 335.381 252.378 337.969 253.159 338.574 255.791 336.609 257.643 334.028 256.846 333.407 254.221"/>
                <polygon class="cls-10" points="327.021 258.146 328.994 256.302 331.577 257.088 332.191 259.71 330.222 261.552 327.642 260.774 327.021 258.146"/>
                <polygon class="cls-10" points="326.758 266.525 328.72 264.688 331.288 265.469 331.915 268.094 329.95 269.928 327.359 269.152 326.758 266.525"/>
                <polygon class="cls-10" points="318.299 180.665 320.269 178.825 322.854 179.613 323.465 182.237 321.494 184.084 318.914 183.29 318.299 180.665"/>
                <polygon class="cls-10" points="308.618 186.978 310.58 185.14 313.159 185.93 313.784 188.55 311.805 190.4 309.222 189.611 308.618 186.978"/>
                <polygon class="cls-10" points="320.904 173.571 322.867 171.727 325.455 172.508 326.066 175.145 324.097 176.984 321.514 176.2 320.904 173.571"/>
                <polygon class="cls-10" points="326.732 180.335 328.715 178.478 331.287 179.27 331.906 181.891 329.935 183.739 327.357 182.954 326.732 180.335"/>
                <polygon class="cls-10" points="313.623 170.19 315.599 168.348 318.177 169.14 318.797 171.767 316.823 173.607 314.234 172.821 313.623 170.19"/>
                <polygon class="cls-10" points="309.672 177.613 311.65 175.763 314.225 176.544 314.844 179.165 312.879 181.018 310.29 180.236 309.672 177.613"/>
                <polygon class="cls-10" points="301.85 172.737 303.81 170.893 306.398 171.674 307.006 174.3 305.044 176.144 302.46 175.372 301.85 172.737"/>
                <polygon class="cls-10" points="307.038 166.262 308.991 164.408 311.584 165.189 312.19 167.814 310.222 169.672 307.644 168.887 307.038 166.262"/>
                <polygon class="cls-10" points="301.479 184.177 303.437 182.34 306.02 183.136 306.638 185.757 304.674 187.597 302.072 186.808 301.479 184.177"/>
              </g>
              <g>
                <polygon class="cls-10" points="372.302 248.826 374.753 247.702 376.942 249.275 376.698 251.957 374.246 253.083 372.039 251.52 372.302 248.826"/>
                <polygon class="cls-10" points="366.392 250.462 368.843 249.331 371.038 250.892 370.786 253.58 368.335 254.706 366.14 253.138 366.392 250.462"/>
                <polygon class="cls-10" points="360.58 251.098 363.032 249.978 365.243 251.539 364.975 254.228 362.528 255.354 360.329 253.779 360.58 251.098"/>
                <polygon class="cls-10" points="352.467 252.923 354.912 251.787 357.118 253.343 356.872 256.029 354.419 257.163 352.216 255.604 352.467 252.923"/>
                <polygon class="cls-10" points="345.039 253.796 347.496 252.684 349.69 254.235 349.444 256.927 346.987 258.047 344.787 256.478 345.039 253.796"/>
                <polygon class="cls-10" points="350.582 260.278 353.039 259.147 355.239 260.709 354.983 263.41 352.532 264.528 350.326 262.96 350.582 260.278"/>
                <polygon class="cls-10" points="357.593 259.541 360.05 258.421 362.244 259.983 362.004 262.666 359.547 263.796 357.341 262.234 357.593 259.541"/>
                <polygon class="cls-10" points="364.651 258.427 367.107 257.302 369.296 258.864 369.051 261.553 366.587 262.684 364.388 261.109 364.651 258.427"/>
                <polygon class="cls-10" points="371.166 256.657 373.617 255.536 375.818 257.105 375.547 259.782 373.103 260.912 370.908 259.35 371.166 256.657"/>
                <polygon class="cls-10" points="377.698 254.696 380.155 253.578 382.355 255.139 382.104 257.821 379.652 258.941 377.442 257.387 377.698 254.696"/>
                <polygon class="cls-10" points="361.785 265.695 364.23 264.564 366.435 266.131 366.168 268.821 363.722 269.952 361.522 268.389 361.785 265.695"/>
                <polygon class="cls-10" points="353.671 267.498 356.116 266.378 358.317 267.952 358.059 270.635 355.613 271.767 353.419 270.19 353.671 267.498"/>
                <polygon class="cls-10" points="357.892 243.907 360.337 242.774 362.541 244.337 362.285 247.025 359.828 248.151 357.629 246.584 357.892 243.907"/>
                <polygon class="cls-10" points="350.907 246.42 353.359 245.289 355.558 246.845 355.294 249.533 352.849 250.657 350.65 249.103 350.907 246.42"/>
                <polygon class="cls-10" points="364.847 241.572 367.298 240.452 369.504 242.027 369.246 244.697 366.801 245.822 364.597 244.266 364.847 241.572"/>
                <polygon class="cls-10" points="358.035 273.874 360.485 272.755 362.685 274.311 362.421 277.001 359.975 278.119 357.776 276.556 358.035 273.874"/>
                <polygon class="cls-10" points="356.047 282.222 358.502 281.097 360.703 282.653 360.445 285.341 357.995 286.467 355.789 284.916 356.047 282.222"/>
                <polygon class="cls-10" points="362.421 282.032 364.869 280.905 367.074 282.47 366.822 285.151 364.37 286.282 362.164 284.72 362.421 282.032"/>
                <polygon class="cls-10" points="365.683 272.612 368.136 271.493 370.341 273.049 370.091 275.745 367.639 276.864 365.437 275.296 365.683 272.612"/>
                <polygon class="cls-10" points="351.348 290.108 353.788 288.977 355.987 290.548 355.735 293.226 353.28 294.365 351.079 292.798 351.348 290.108"/>
                <polygon class="cls-10" points="358.664 290.195 361.122 289.086 363.322 290.648 363.069 293.319 360.625 294.451 358.419 292.887 358.664 290.195"/>
                <polygon class="cls-10" points="350.308 275.718 352.764 274.593 354.959 276.166 354.712 278.849 352.262 279.976 350.061 278.411 350.308 275.718"/>
                <polygon class="cls-10" points="346.862 270.237 349.32 269.112 351.514 270.676 351.263 273.362 348.817 274.489 346.601 272.921 346.862 270.237"/>
                <polygon class="cls-10" points="343.598 277.466 346.061 276.345 348.256 277.908 348.004 280.591 345.546 281.728 343.347 280.153 343.598 277.466"/>
                <polygon class="cls-10" points="343.882 289.208 346.34 288.082 348.535 289.645 348.284 292.333 345.82 293.459 343.631 291.883 343.882 289.208"/>
                <polygon class="cls-10" points="343.015 300.432 345.466 299.31 347.672 300.876 347.415 303.564 344.963 304.696 342.763 303.116 343.015 300.432"/>
                <polygon class="cls-10" points="349.761 300.468 352.207 299.345 354.407 300.915 354.162 303.597 351.71 304.724 349.505 303.147 349.761 300.468"/>
                <polygon class="cls-10" points="356.645 296.955 359.097 295.836 361.296 297.397 361.034 300.086 358.588 301.212 356.388 299.644 356.645 296.955"/>
                <polygon class="cls-10" points="363.621 296.617 366.068 295.504 368.273 297.061 368.016 299.749 365.564 300.873 363.363 299.311 363.621 296.617"/>
                <polygon class="cls-10" points="353.308 306.956 355.766 305.837 357.971 307.399 357.708 310.088 355.256 311.219 353.063 309.645 353.308 306.956"/>
                <polygon class="cls-10" points="346.006 308.652 348.462 307.526 350.661 309.094 350.411 311.777 347.959 312.897 345.76 311.341 346.006 308.652"/>
                <polygon class="cls-10" points="343.094 316.514 345.539 315.394 347.726 316.95 347.487 319.639 345.042 320.752 342.83 319.196 343.094 316.514"/>
                <polygon class="cls-10" points="362.344 232.411 364.796 231.292 366.997 232.86 366.744 235.544 364.288 236.668 362.093 235.096 362.344 232.411"/>
                <polygon class="cls-10" points="351.158 235.323 353.603 234.202 355.797 235.77 355.558 238.454 353.094 239.581 350.896 238.012 351.158 235.323"/>
                <polygon class="cls-10" points="367.067 226.513 369.513 225.386 371.72 226.95 371.462 229.643 369.01 230.765 366.81 229.2 367.067 226.513"/>
                <polygon class="cls-10" points="370.445 234.775 372.914 233.645 375.102 235.213 374.857 237.895 372.4 239.022 370.206 237.46 370.445 234.775"/>
                <polygon class="cls-10" points="361.237 220.994 363.695 219.875 365.888 221.443 365.642 224.132 363.185 225.251 360.98 223.684 361.237 220.994"/>
                <polygon class="cls-10" points="355.133 226.779 357.595 225.654 359.789 227.211 359.544 229.893 357.093 231.024 354.887 229.462 355.133 226.779"/>
                <polygon class="cls-10" points="349.263 219.669 351.71 218.543 353.914 220.106 353.658 222.788 351.211 223.913 349.005 222.362 349.263 219.669"/>
                <polygon class="cls-10" points="356.241 215.177 358.681 214.039 360.892 215.602 360.634 218.284 358.176 219.421 355.982 217.858 356.241 215.177"/>
                <polygon class="cls-10" points="345.28 230.398 347.72 229.28 349.914 230.854 349.669 233.536 347.223 234.655 345.006 233.081 345.28 230.398"/>
              </g>
              <path class="cls-6" d="M174.228,70.5303c11.8418-8.7266,20.1079-16.04,25.481-22.2139a309.63974,309.63974,0,0,0-72.1206,29.9385c-37.41359,39.6406-58.77,105.29-57.60159,149.2324,1.1987,45.1553-30.3515,46.1494-33.2012,67.7012,7.9253,4.1123,52.7046,11.8447,62.1231,15.9766,17.5239,7.6884,10.1274,6.0048,27.019,10.5507C88.3569,233.8447,110.9922,117.1348,174.228,70.5303Z" transform="translate(23.3735)"/>
              <path class="cls-5" d="M168.45649,70.6289c11.8418-8.7256,20.1084-16.04,25.4815-22.2138a309.62318,309.62318,0,0,0-72.1206,29.9384C84.4043,117.9942,63.0479,183.6436,64.2163,227.586c1.1982,45.1552-30.3525,46.1494-33.2021,67.7011,7.9257,4.1123,52.7045,11.8448,62.123,15.9776,17.5249,7.6875,10.1284,6.0049,27.02,10.5498C82.5864,233.9444,105.2212,117.2334,168.45649,70.6289Z" transform="translate(23.3735)"/>
              <path class="cls-5" d="M67.5107,160.4209c10.6241-5.1367,18.042-9.4414,22.8628-13.0762a370.59659,370.59659,0,0,0-64.7119,17.6211c-33.5708,23.335-35.9765,54.0596-34.9292,79.9248,1.0757,26.5772-11.5483,37.1993-14.1059,49.8838,7.1128,2.4219,14.8501,4.8555,23.3007,7.2881a457.79033,457.79033,0,0,0,46.7295,10.7334C12.9453,261.0733,10.769,187.8526,67.5107,160.4209Z" transform="translate(23.3735)"/>
            </g>
            <g>
              <path class="cls-11" d="M141.62839,207.4287c-8.3745-4.9033-19.644-1.8554-24.82079,6.9688a17.29856,17.29856,0,0,0,6.25049,24.4365c8.3779,4.9033,19.644,1.8535,24.8169-6.9687A17.29739,17.29739,0,0,0,141.62839,207.4287Z" transform="translate(23.3735)"/>
              <path class="cls-12" d="M115.33539,217.1494a17.74282,17.74282,0,0,0,7.7227,21.6846c7.4258,4.3223,17.1856,2.3945,23.0064-4.0586a36.79212,36.79212,0,0,1-17.8321-4.7656A32.1007,32.1007,0,0,1,115.33539,217.1494Z" transform="translate(23.3735)"/>
              <path class="cls-12" d="M141.62839,207.4287a1.74081,1.74081,0,0,0-.9555-.581,17.85478,17.85478,0,0,1,5.0449,23.7724,18.8848,18.8848,0,0,1-23.8658,7.5469,13.282,13.282,0,0,0,1.2061.667c8.3779,4.9033,19.644,1.8535,24.8169-6.9687A17.29739,17.29739,0,0,0,141.62839,207.4287Z" transform="translate(23.3735)"/>
              <path class="cls-13" d="M137.52589,206.8906c-.1797-.3242-.69629-.4951-1.2129-.663,14.0991,9.2031-1.0401,33.6396-15.85939,26.6259.51949.1709.69289.4961,1.20659.6661,8.6367,4.9863,19.3261,2.831,23.6835-4.3711C149.78119,221.7022,146.23629,211.6367,137.52589,206.8906Z" transform="translate(23.3735)"/>
              <path class="cls-14" d="M133.33979,211.6914c-3.5439-2.2422-8.6259-.6709-11.0117,3.1348a7.6487,7.6487,0,0,0,2.7158,10.8662c3.5445,2.2422,8.6206.6699,11.0049-3.1328C138.18209,218.6739,137.22119,213.7715,133.33979,211.6914Z" transform="translate(23.3735)"/>
              <path class="cls-11" d="M127.60009,214.9844c-.9473-.583-2.5562-.0303-3.375,1.5889-.7349,1.3779-.6978,3.0097.25,3.5898,1.20651.666,2.6372-.2109,3.374-1.5898A2.51806,2.51806,0,0,0,127.60009,214.9844Z" transform="translate(23.3735)"/>
              <path class="cls-14" d="M141.3276,209.2188c-1.03321-.3389-2.14111,7.3906.01809,8.6357C145.918,220.4346,144.4346,211.0479,141.3276,209.2188Z" transform="translate(23.3735)"/>
            </g>
            <g>
              <path class="cls-6" d="M215.4746,353.0918c-3.24711-6.0752-17.42671-28.9267-24.76661-39.8164-3.8433-5.6982-10.6289-11.9932-16.228-16.7031a37.45969,37.45969,0,0,1-34.2432,23.0752c-.0976,0-.1953-.0088-.293-.0088-.0195,6.5674.438,16.3662,1.004,21.0928.7705,6.4199-.5694,8.7578,4.1547,16.2422,4.7237,7.4873,8.6426,13.7002,15.85111,17.3242,7.21089,3.6181,11.77,7.872,18.00779,8.1025,6.2456.2227,10.523.3096,18.9151.9756a42.01979,42.01979,0,0,0,20.0058-3.2363c4.38231-1.9776,6.1729-6.5733,6.8555-7.3487C225.41939,372.0176,218.72409,359.1709,215.4746,353.0918Z" transform="translate(23.3735)"/>
              <g>
                <path class="cls-5" d="M213.314,351.9092c-5.5332-12.6738-18.8765-34.373-28.7837-46.1807a94.81242,94.81242,0,0,0-9.7676-9.8642c-.3628.9209-.7534,1.8301-1.1865,2.7158a291.23561,291.23561,0,0,1,20.81741,25.0117c7.31979,10.4961,28.18349,48.0176,28.18349,48.0176S217.751,362.0694,213.314,351.9092Z" transform="translate(23.3735)"/>
                <path class="cls-5" d="M199.14749,340.6143c-5.6924-9.5781-19.021-27.3623-23.5367-33.9571a47.76534,47.76534,0,0,0-3.8291-4.8349c-.4546.7344-.9394,1.4492-1.4423,2.1494,1.6835,1.7617,3.4897,3.7607,5.1191,5.7842,4.8955,6.0859,19.2827,27.2197,23.2505,33.5088,3.9682,6.289,20.5932,33.7441,20.5932,33.7441S204.83689,350.1856,199.14749,340.6143Z" transform="translate(23.3735)"/>
                <path class="cls-5" d="M195.83939,348.7442c-2.5332-4.4659-19.7447-32.1866-27.2627-42.4971q-.99914,1.19235-2.0904,2.2959c5.32131,7.5576,17.773,25.2012,20.1255,28.9307,2.9746,4.7177,11.42681,20.3349,14.25881,24.8261,2.834,4.4932,10.645,17.4317,10.645,17.4317S198.97749,354.2793,195.83939,348.7442Z" transform="translate(23.3735)"/>
                <path class="cls-5" d="M147.97269,318.8018c-.8926.1963-1.7969.3545-2.711.4844-.01509,6.0078.0747,13.9716.5991,17.7246.8995,6.4472,5.6846,30.1914,5.6846,30.1914s-2.4814-22.8828-2.7939-27.8399C148.55129,336.1612,148.19779,325.7774,147.97269,318.8018Z" transform="translate(23.3735)"/>
                <path class="cls-5" d="M151.62839,317.7949c-.7363.2452-1.479.4737-2.2339.6719,1.0508,6.5205,2.6978,16.9776,3.44,22.8975,1.123,9.042,5.9585,31.751,5.9585,31.751s-3.5308-27.3428-3.8208-31.709C154.769,338.4102,152.82709,325.5586,151.62839,317.7949Z" transform="translate(23.3735)"/>
                <path class="cls-5" d="M155.72269,316.1592q-1.16385.5478-2.3677,1.0156c1.8213,7.3438,5.2534,21.21,6.5054,26.4004,1.7246,7.2061,9.3657,33.8164,9.3657,33.8164s-4.9727-26.8515-6.9932-34.5058C160.79689,337.4287,157.49709,323.628,155.72269,316.1592Z" transform="translate(23.3735)"/>
                <path class="cls-5" d="M170.75629,345.794c-1.5263-4.0625-8.27969-22.166-11.7226-31.3985q-.74413.44535-1.5064.8575c2.5611,7.6113,7.6578,22.7207,9.9795,29.291,3.1231,8.8623,14.3775,35.622,14.3775,35.622S172.82569,351.3067,170.75629,345.794Z" transform="translate(23.3735)"/>
                <path class="cls-5" d="M141.23439,319.6201c-.0767,2.4346-.1543,5.4961-.2095,9.1631-.1587,10.3418.30471,19.4385.30471,19.4385l2.14549-28.7305C142.73389,319.5586,141.98629,319.5987,141.23439,319.6201Z" transform="translate(23.3735)"/>
                <path class="cls-5" d="M184.0786,341.2647c-2.75931-4.7891-13.25191-22.7598-18.81351-31.543-.6499.6006-1.3232,1.1768-2.0136,1.7314,5.7119,9.1329,17.39211,28.4024,19.583,32.2979,2.8564,5.082,21.6025,35.9141,21.6025,35.9141S187.7866,347.6944,184.0786,341.2647Z" transform="translate(23.3735)"/>
                <path class="cls-5" d="M177.77249,344.0908c-3.60889-7.8183-11.4761-24.2861-15.6382-31.7685-.6548.4873-1.3286.9463-2.01469,1.3916,4.06889,8.6318,13.97849,29.5703,15.437,31.8848,1.84039,2.9169,17.56639,35.0878,17.56639,35.0878S182.55519,354.4639,177.77249,344.0908Z" transform="translate(23.3735)"/>
              </g>
            </g>
          </g>
          <path class="cls-15" d="M465.832,201.9805c-9.4067,1.2959-18.8466,2.3935-28.2968,3.0752a356.49976,356.49976,0,0,1-38.9141.3867c-12.9102-.4805-25.8023-1.3154-38.71-1.8369-12.9394-.5234-25.8999-.2412-38.8281-1.0127-24.8843-1.4873-49.7788-5.0439-74.31439-9.1797-12.45951-2.0996-24.81211-4.7764-37.05471-7.8945-17.646-4.4942-34.9624-10.0967-52.6905-14.0459q-7.17555-.30765-14.3554-.1172-3.73755.9258-7.4278,2.0156-3.5295,1.9761-6.9648,4.1123c-.6709.628-1.3491,1.2471-2.0122,1.8848a148.21694,148.21694,0,0,1-56.65089,34.418C44.6533,240.1074.7246,232.7178.7246,249.8438c0,17.6884,39.3892,8.6201,72.8858,23.9238,23.165,10.584,33.35,31.9688,67.05709,45.9893-.0127,6.5654.4429,16.2568,1.0049,20.9492.7695,6.4199-.5704,8.7568,4.1547,16.2422,4.7237,7.4873,8.6416,13.7002,15.8501,17.3242,7.2115,3.6191,11.7696,7.8721,18.0083,8.1015,6.2447.2247,10.523.3106,18.9146.9786a42.03265,42.03265,0,0,0,20.0063-3.2373c4.3819-1.9786,6.1724-6.5743,6.856-7.3497.68121-.7734-6.0142-13.6201-9.2632-19.7011-1.64259-3.0713-6.0815-10.4346-11.01759-18.3711,5.77929.7988,11.565,1.4971,17.32469,2.0986,70.36631,8.0586,146.8399,55.9883,174.4737,27.6563,19.3511-19.8438-2.2139-77.8819-12.2437-108.709a252.67867,252.67867,0,0,0,28.5777,16.6211c20.1362,9.5576,41.4985,20.2871,45.4067,19.7256,3.9092-.5547,7.8188-58.0596,7.2573-84.8584C465.94289,205.541,465.895,203.7881,465.832,201.9805Z" transform="translate(23.3735)"/>
          <path class="cls-15" d="M313.79829,281.0186c-39.0244-3.6856-77.8921-9.1983-116.582-15.4434-16.8462-2.7168-33.6572-5.6523-50.5185-8.2685-20.6294-2.2344-41.42189-3.4131-62.11629-2.2959a167.73161,167.73161,0,0,0-24.9287,7.6982,148.6246,148.6246,0,0,1-16.7524,3.4746c9.7998,1.583,20.2666,3.9795,30.2129,8.5244,23.1655,10.584,33.3501,31.9698,67.05859,45.9893-.0137,6.5654.4409,16.2568,1.0039,20.9482.7695,6.4209-.5703,8.7578,4.15381,16.2432,4.72359,7.4873,8.64259,13.7012,15.852,17.3232,7.21049,3.6192,11.76859,7.8731,18.00789,8.1036,6.24411.2236,10.5224.3085,18.914.9765a42.01562,42.01562,0,0,0,20.0054-3.2363c4.3838-1.9805,6.1733-6.5742,6.8569-7.3506.6812-.7725-6.0141-13.6201-9.26319-19.6992-1.64211-3.0733-6.08151-10.4365-11.01751-18.3721q8.66895,1.19685,17.3247,2.0996c70.3657,8.0576,146.83981,55.9873,174.4726,27.6553,14.312-14.6758,6.2437-50.2412-2.98679-80.2422Q353.58374,284.84035,313.79829,281.0186Z" transform="translate(23.3735)"/>
        </g>
        <g class="cls-16">
          <path class="cls-17" d="M214.084,66.3731c43.39161-8.0088,80.685-.3692,84.9922,17.2705,7.0371,28.8437-136.4981,62.2051-147.4844,34.0215C140.60449,89.4785,191.46969,70.543,214.084,66.3731Z" transform="translate(23.3735)"/>
          <path class="cls-17" d="M223.083,68.499c21.4761-3.9628,39.9331-.1806,42.0679,8.5508,3.4804,14.2725-67.5586,30.7842-72.9971,16.836C186.71529,79.9346,211.89209,70.5645,223.083,68.499Z" transform="translate(23.3735)"/>
        </g>
      </g>
    </g>
  </g>
</svg>
