<svg xmlns="http://www.w3.org/2000/svg" width="668.87925" height="324.15894" viewBox="0 0 668.87925 324.15894">
  <defs>
    <style>
      .cls-1 {
        fill: #e2c85a;
      }

      .cls-11, .cls-12, .cls-2, .cls-4 {
        fill: none;
      }

      .cls-12, .cls-2 {
        stroke: #224c5e;
      }

      .cls-12, .cls-2, .cls-4 {
        stroke-linecap: round;
        stroke-linejoin: round;
      }

      .cls-2 {
        stroke-width: 1.39111px;
      }

      .cls-3 {
        fill: #dbdabf;
      }

      .cls-4 {
        stroke: #bfbeb2;
        stroke-width: 2.64988px;
      }

      .cls-5 {
        fill: #8daa79;
      }

      .cls-6 {
        fill: #467e9e;
      }

      .cls-7 {
        fill: #2a6077;
      }

      .cls-8 {
        fill: #0c3c4c;
      }

      .cls-9 {
        fill: #eac204;
      }

      .cls-10 {
        fill: #185068;
      }

      .cls-12 {
        stroke-width: 2.08666px;
      }
    </style>
  </defs>
  <g id="图层_2" data-name="图层 2">
    <g id="Layer_1" data-name="Layer 1">
      <g>
        <g>
          <g>
            <path class="cls-1" d="M304.226,56.7398,243.06185,0s-55.4355,21.5-59.7656,82.1866C294.46815,84.1216,304.226,56.7398,304.226,56.7398Z"/>
            <line class="cls-2" x1="304.01105" y1="60.0108" x2="238.35775" y2="9.0093"/>
            <line class="cls-2" x1="301.59795" y1="62.0191" x2="228.09115" y2="14.6456"/>
            <line class="cls-2" x1="299.36265" y1="64.2203" x2="218.83725" y2="20.7535"/>
            <line class="cls-2" x1="297.31575" y1="66.5987" x2="210.13805" y2="26.857"/>
            <line class="cls-2" x1="295.47595" y1="69.1421" x2="205.14095" y2="36.4834"/>
            <line class="cls-2" x1="293.85485" y1="71.8306" x2="198.66535" y2="44.9976"/>
            <line class="cls-2" x1="292.46225" y1="74.6456" x2="194.40565" y2="56.2857"/>
            <line class="cls-2" x1="291.31085" y1="77.566" x2="192.37045" y2="68.316"/>
          </g>
          <g>
            <path class="cls-1" d="M312.21025,143.1832l-49.6201,67.0673s-58.4521-10.8789-73.9277-69.7187C297.559,118.0782,312.21025,143.1832,312.21025,143.1832Z"/>
            <line class="cls-2" x1="311.39485" y1="140.0064" x2="256.30205" y2="202.2681"/>
            <line class="cls-2" x1="308.65265" y1="138.4786" x2="245.17315" y2="198.627"/>
            <line class="cls-2" x1="306.04725" y1="136.7286" x2="234.95055" y2="194.3399"/>
            <line class="cls-2" x1="303.59795" y1="134.7725" x2="225.27185" y2="189.9429"/>
            <line class="cls-2" x1="301.31865" y1="132.6094" x2="218.58335" y2="181.4073"/>
            <line class="cls-2" x1="299.22885" y1="130.2701" x2="210.64195" y2="174.2388"/>
            <line class="cls-2" x1="297.34115" y1="127.7627" x2="204.37045" y2="163.9341"/>
            <line class="cls-2" x1="295.66735" y1="125.105" x2="200.14385" y2="152.4869"/>
          </g>
          <path class="cls-3" d="M631.03545,158.0738c0-86.6739-68.7919-114.7486-155.4589-114.7486-86.6719,0-158.4073,28.0747-158.4073,114.7486a156.9331,156.9331,0,1,0,313.8662,0Z"/>
          <g>
            <g>
              <g>
                <line class="cls-4" x1="624.72685" y1="158.0132" x2="638.96815" y2="158.0132"/>
                <line class="cls-4" x1="624.23665" y1="170.212" x2="638.43195" y2="171.3633"/>
                <line class="cls-4" x1="622.75815" y1="182.3394" x2="636.81185" y2="184.6333"/>
                <line class="cls-4" x1="620.30015" y1="194.3052" x2="634.12145" y2="197.7251"/>
                <line class="cls-4" x1="616.88705" y1="206.0215" x2="630.38515" y2="210.5582"/>
                <line class="cls-4" x1="612.53355" y1="217.4322" x2="625.61855" y2="223.0411"/>
                <line class="cls-4" x1="607.26695" y1="228.4517" x2="619.85675" y2="235.1036"/>
                <line class="cls-4" x1="601.12725" y1="239.0098" x2="613.13605" y2="246.6607"/>
                <line class="cls-4" x1="594.15175" y1="249.0328" x2="605.50225" y2="257.6304"/>
                <line class="cls-4" x1="586.38705" y1="258.461" x2="597.00325" y2="267.9478"/>
                <line class="cls-4" x1="577.88515" y1="267.2266" x2="587.69765" y2="277.5464"/>
                <line class="cls-4" x1="568.70055" y1="275.274" x2="577.64485" y2="286.3531"/>
                <line class="cls-4" x1="558.89095" y1="282.5523" x2="566.90955" y2="294.3204"/>
                <line class="cls-4" x1="548.52765" y1="289.0132" x2="555.56775" y2="301.3882"/>
                <line class="cls-4" x1="537.67705" y1="294.6172" x2="543.68785" y2="307.5132"/>
                <line class="cls-4" x1="526.40365" y1="299.3174" x2="531.35185" y2="312.6568"/>
                <line class="cls-4" x1="514.78845" y1="303.0835" x2="518.63905" y2="316.7886"/>
                <line class="cls-4" x1="502.90465" y1="305.9078" x2="505.63315" y2="319.8707"/>
                <line class="cls-4" x1="490.83335" y1="307.7564" x2="492.41925" y2="321.8892"/>
                <line class="cls-4" x1="478.64775" y1="308.6236" x2="479.08435" y2="322.834"/>
                <line class="cls-4" x1="466.43395" y1="308.4922" x2="465.71905" y2="322.6944"/>
                <line class="cls-4" x1="454.27475" y1="307.3731" x2="452.40855" y2="321.4673"/>
                <line class="cls-4" x1="442.23955" y1="305.2769" x2="439.24355" y2="319.1734"/>
                <line class="cls-4" x1="430.42025" y1="302.21" x2="426.30505" y2="315.8204"/>
                <line class="cls-4" x1="418.88415" y1="298.1939" x2="413.68005" y2="311.4253"/>
                <line class="cls-4" x1="407.71025" y1="293.2613" x2="401.45445" y2="306.0279"/>
                <line class="cls-4" x1="396.97495" y1="287.4356" x2="389.70545" y2="299.6553"/>
                <line class="cls-4" x1="386.75225" y1="280.7618" x2="378.51405" y2="292.3531"/>
                <line class="cls-4" x1="377.09795" y1="273.2828" x2="367.94765" y2="284.1685"/>
                <line class="cls-4" x1="368.08525" y1="265.0464" x2="358.07945" y2="275.1529"/>
                <line class="cls-4" x1="359.76495" y1="256.1089" x2="348.97395" y2="265.3697"/>
                <line class="cls-4" x1="352.19765" y1="246.5186" x2="340.69275" y2="254.8799"/>
                <line class="cls-4" x1="345.43395" y1="236.3497" x2="333.28935" y2="243.751"/>
                <line class="cls-4" x1="339.51495" y1="225.6665" x2="326.81085" y2="232.0562"/>
                <line class="cls-4" x1="334.47685" y1="214.5396" x2="321.29915" y2="219.8814"/>
                <line class="cls-4" x1="330.35975" y1="203.0455" x2="316.79235" y2="207.2979"/>
                <line class="cls-4" x1="327.18785" y1="191.2535" x2="313.32165" y2="194.3892"/>
                <line class="cls-4" x1="324.98175" y1="179.2403" x2="310.90655" y2="181.2373"/>
                <line class="cls-4" x1="323.75525" y1="167.0894" x2="309.56775" y2="167.9415"/>
                <line class="cls-4" x1="323.51795" y1="154.878" x2="309.30995" y2="154.5787"/>
              </g>
              <g>
                <line class="cls-4" x1="607.37635" y1="163.7232" x2="619.97785" y2="164.2657"/>
                <line class="cls-4" x1="606.47885" y1="174.5054" x2="618.99155" y2="176.0591"/>
                <line class="cls-4" x1="604.71025" y1="185.1758" x2="617.05895" y2="187.7369"/>
                <line class="cls-4" x1="602.08435" y1="195.6656" x2="614.18395" y2="199.2207"/>
                <line class="cls-4" x1="598.61555" y1="205.9034" x2="610.38995" y2="210.4356"/>
                <line class="cls-4" x1="594.33235" y1="215.8355" x2="605.69565" y2="221.2998"/>
                <line class="cls-4" x1="589.25815" y1="225.3887" x2="600.14295" y2="231.7466"/>
                <line class="cls-4" x1="583.42515" y1="234.4966" x2="593.76015" y2="241.7217"/>
                <line class="cls-4" x1="576.86945" y1="243.1031" x2="586.58925" y2="251.1353"/>
                <line class="cls-4" x1="569.64485" y1="251.146" x2="578.67805" y2="259.9439"/>
                <line class="cls-4" x1="561.79135" y1="258.586" x2="570.07945" y2="268.0791"/>
                <line class="cls-4" x1="553.35775" y1="265.3521" x2="560.84895" y2="275.4932"/>
                <line class="cls-4" x1="544.40265" y1="271.4214" x2="551.05305" y2="282.1392"/>
                <line class="cls-4" x1="534.98665" y1="276.7457" x2="540.74645" y2="287.9629"/>
                <line class="cls-4" x1="525.17515" y1="281.2891" x2="530.00425" y2="292.9258"/>
                <line class="cls-4" x1="515.02085" y1="285.023" x2="518.89485" y2="297.0147"/>
                <line class="cls-4" x1="504.60285" y1="287.9131" x2="507.48865" y2="300.1871"/>
                <line class="cls-4" x1="493.97685" y1="289.9624" x2="495.86455" y2="302.4253"/>
                <line class="cls-4" x1="483.22985" y1="291.1353" x2="484.09895" y2="303.7081"/>
                <line class="cls-4" x1="472.41535" y1="291.4449" x2="472.26205" y2="304.0352"/>
                <line class="cls-4" x1="461.61555" y1="290.8658" x2="460.44465" y2="303.4068"/>
                <line class="cls-4" x1="450.89585" y1="289.4112" x2="448.71125" y2="301.814"/>
                <line class="cls-4" x1="440.32845" y1="287.104" x2="437.14975" y2="299.2832"/>
                <line class="cls-4" x1="429.98475" y1="283.938" x2="425.82745" y2="295.8248"/>
                <line class="cls-4" x1="419.93495" y1="279.9527" x2="414.82555" y2="291.4624"/>
                <line class="cls-4" x1="410.23275" y1="275.1661" x2="404.21515" y2="286.2237"/>
                <line class="cls-4" x1="400.95735" y1="269.605" x2="394.06185" y2="280.1421"/>
                <line class="cls-4" x1="392.16345" y1="263.3165" x2="384.43495" y2="273.2574"/>
                <line class="cls-4" x1="383.90755" y1="256.3262" x2="375.39775" y2="265.6128"/>
                <line class="cls-4" x1="376.23955" y1="248.7012" x2="367.00915" y2="257.2603"/>
                <line class="cls-4" x1="369.21715" y1="240.4693" x2="359.32165" y2="248.2623"/>
                <line class="cls-4" x1="362.88995" y1="231.7012" x2="352.39095" y2="238.67"/>
                <line class="cls-4" x1="357.29135" y1="222.4488" x2="346.26405" y2="228.5352"/>
                <line class="cls-4" x1="352.45635" y1="212.7686" x2="340.97395" y2="217.9424"/>
                <line class="cls-4" x1="348.42315" y1="202.7373" x2="336.55995" y2="206.962"/>
                <line class="cls-4" x1="345.21615" y1="192.4117" x2="333.04815" y2="195.6548"/>
                <line class="cls-4" x1="342.85285" y1="181.857" x2="330.46905" y2="184.1021"/>
                <line class="cls-4" x1="341.35975" y1="171.1441" x2="328.82945" y2="172.3746"/>
                <line class="cls-4" x1="340.73765" y1="160.3443" x2="328.14975" y2="160.5616"/>
                <line class="cls-4" x1="340.98665" y1="149.5298" x2="328.42905" y2="148.7271"/>
              </g>
            </g>
            <g>
              <g>
                <line class="cls-4" x1="585.61655" y1="158.0264" x2="596.16145" y2="158.0264"/>
                <line class="cls-4" x1="585.25225" y1="167.0547" x2="595.76105" y2="167.9112"/>
                <line class="cls-4" x1="584.15655" y1="176.0376" x2="594.56085" y2="177.7378"/>
                <line class="cls-4" x1="582.33625" y1="184.896" x2="592.57165" y2="187.4312"/>
                <line class="cls-4" x1="579.80995" y1="193.5738" x2="589.80015" y2="196.9268"/>
                <line class="cls-4" x1="576.58625" y1="202.0186" x2="586.27475" y2="206.1744"/>
                <line class="cls-4" x1="572.68785" y1="210.1753" x2="582.00915" y2="215.0992"/>
                <line class="cls-4" x1="568.14295" y1="217.9942" x2="577.03545" y2="223.6587"/>
                <line class="cls-4" x1="562.97785" y1="225.4107" x2="571.38215" y2="231.7745"/>
                <line class="cls-4" x1="557.23175" y1="232.3921" x2="565.08925" y2="239.4146"/>
                <line class="cls-4" x1="550.93885" y1="238.8785" x2="558.20155" y2="246.5186"/>
                <line class="cls-4" x1="544.13515" y1="244.8399" x2="550.75815" y2="253.0464"/>
                <line class="cls-4" x1="536.87435" y1="250.229" x2="542.81185" y2="258.939"/>
                <line class="cls-4" x1="529.20345" y1="255.0113" x2="534.41435" y2="264.1729"/>
                <line class="cls-4" x1="521.16735" y1="259.1582" x2="525.61855" y2="268.7095"/>
                <line class="cls-4" x1="512.82355" y1="262.6363" x2="516.48665" y2="272.5166"/>
                <line class="cls-4" x1="504.22395" y1="265.4273" x2="507.07555" y2="275.5772"/>
                <line class="cls-4" x1="495.42805" y1="267.5196" x2="497.44665" y2="277.8584"/>
                <line class="cls-4" x1="486.49055" y1="268.8863" x2="487.66245" y2="279.354"/>
                <line class="cls-4" x1="477.47005" y1="269.5274" x2="477.79335" y2="280.0538"/>
                <line class="cls-4" x1="468.42705" y1="269.4327" x2="467.89775" y2="279.9502"/>
                <line class="cls-4" x1="459.42415" y1="268.604" x2="458.04335" y2="279.042"/>
                <line class="cls-4" x1="450.51695" y1="267.0547" x2="448.29335" y2="277.3418"/>
                <line class="cls-4" x1="441.76405" y1="264.7798" x2="438.71905" y2="274.8584"/>
                <line class="cls-4" x1="433.22205" y1="261.8077" x2="429.37145" y2="271.6021"/>
                <line class="cls-4" x1="424.95345" y1="258.1553" x2="420.32265" y2="267.6099"/>
                <line class="cls-4" x1="417.00815" y1="253.8423" x2="411.62335" y2="262.8921"/>
                <line class="cls-4" x1="409.43685" y1="248.9034" x2="403.33335" y2="257.4839"/>
                <line class="cls-4" x1="402.29135" y1="243.3658" x2="395.51595" y2="251.4302"/>
                <line class="cls-4" x1="395.61555" y1="237.273" x2="388.20735" y2="244.752"/>
                <line class="cls-4" x1="389.45545" y1="230.649" x2="381.46715" y2="237.5079"/>
                <line class="cls-4" x1="383.85385" y1="223.5552" x2="375.33525" y2="229.7427"/>
                <line class="cls-4" x1="378.84605" y1="216.0206" x2="369.85385" y2="221.5"/>
                <line class="cls-4" x1="374.46425" y1="208.1158" x2="365.05895" y2="212.8418"/>
                <line class="cls-4" x1="370.73665" y1="199.875" x2="360.97885" y2="203.8331"/>
                <line class="cls-4" x1="367.68685" y1="191.3677" x2="357.64295" y2="194.5142"/>
                <line class="cls-4" x1="365.33925" y1="182.6343" x2="355.07265" y2="184.9585"/>
                <line class="cls-4" x1="363.70345" y1="173.7417" x2="353.28645" y2="175.2222"/>
                <line class="cls-4" x1="362.79725" y1="164.7457" x2="352.29235" y2="165.376"/>
                <line class="cls-4" x1="362.62245" y1="155.7066" x2="352.10285" y2="155.4869"/>
              </g>
              <g>
                <line class="cls-4" x1="572.76985" y1="162.2574" x2="582.09995" y2="162.6539"/>
                <line class="cls-4" x1="572.10675" y1="170.2378" x2="581.36755" y2="171.3873"/>
                <line class="cls-4" x1="570.79625" y1="178.1363" x2="579.93685" y2="180.0323"/>
                <line class="cls-4" x1="568.85095" y1="185.9053" x2="577.80995" y2="188.5357"/>
                <line class="cls-4" x1="566.28545" y1="193.481" x2="574.99745" y2="196.8384"/>
                <line class="cls-4" x1="563.11065" y1="200.8326" x2="571.52765" y2="204.8809"/>
                <line class="cls-4" x1="559.35585" y1="207.9092" x2="567.41345" y2="212.6158"/>
                <line class="cls-4" x1="555.03845" y1="214.6519" x2="562.68975" y2="220"/>
                <line class="cls-4" x1="550.18785" y1="221.0201" x2="557.38025" y2="226.9707"/>
                <line class="cls-4" x1="544.83525" y1="226.9751" x2="551.52185" y2="233.4917"/>
                <line class="cls-4" x1="539.01795" y1="232.4844" x2="545.15755" y2="239.5157"/>
                <line class="cls-4" x1="532.77865" y1="237.4903" x2="538.32455" y2="245.0015"/>
                <line class="cls-4" x1="526.14775" y1="241.9883" x2="531.07165" y2="249.9253"/>
                <line class="cls-4" x1="519.17905" y1="245.9312" x2="523.44275" y2="254.2339"/>
                <line class="cls-4" x1="511.91345" y1="249.2886" x2="515.48565" y2="257.9058"/>
                <line class="cls-4" x1="504.39585" y1="252.0542" x2="507.26305" y2="260.9341"/>
                <line class="cls-4" x1="496.68295" y1="254.1978" x2="498.81965" y2="263.2837"/>
                <line class="cls-4" x1="488.81675" y1="255.7173" x2="490.21325" y2="264.939"/>
                <line class="cls-4" x1="480.86165" y1="256.5801" x2="481.50325" y2="265.8863"/>
                <line class="cls-4" x1="472.85185" y1="256.8125" x2="472.73955" y2="266.1314"/>
                <line class="cls-4" x1="464.85875" y1="256.3843" x2="463.99155" y2="265.6665"/>
                <line class="cls-4" x1="456.92415" y1="255.3101" x2="455.30695" y2="264.4893"/>
                <line class="cls-4" x1="449.10095" y1="253.5972" x2="446.74645" y2="262.6192"/>
                <line class="cls-4" x1="441.44365" y1="251.2491" x2="438.36165" y2="260.0557"/>
                <line class="cls-4" x1="434.00135" y1="248.3052" x2="430.21715" y2="256.8233"/>
                <line class="cls-4" x1="426.82165" y1="244.7627" x2="422.36265" y2="252.9449"/>
                <line class="cls-4" x1="419.95155" y1="240.6431" x2="414.84705" y2="248.4449"/>
                <line class="cls-4" x1="413.44175" y1="235.9883" x2="407.71905" y2="243.3443"/>
                <line class="cls-4" x1="407.33135" y1="230.8145" x2="401.02965" y2="237.6841"/>
                <line class="cls-4" x1="401.65175" y1="225.167" x2="394.82065" y2="231.5035"/>
                <line class="cls-4" x1="396.45445" y1="219.0748" x2="389.12925" y2="224.8443"/>
                <line class="cls-4" x1="391.76985" y1="212.5816" x2="383.99835" y2="217.7447"/>
                <line class="cls-4" x1="387.62435" y1="205.731" x2="379.46125" y2="210.2398"/>
                <line class="cls-4" x1="384.04525" y1="198.5645" x2="375.54425" y2="202.3975"/>
                <line class="cls-4" x1="381.05795" y1="191.1441" x2="372.27765" y2="194.2686"/>
                <line class="cls-4" x1="378.68685" y1="183.4952" x2="369.67805" y2="185.8946"/>
                <line class="cls-4" x1="376.93885" y1="175.6851" x2="367.76885" y2="177.3423"/>
                <line class="cls-4" x1="375.83045" y1="167.752" x2="366.55305" y2="168.6646"/>
                <line class="cls-4" x1="375.37245" y1="159.7525" x2="366.04915" y2="159.9136"/>
                <line class="cls-4" x1="375.55695" y1="151.753" x2="366.25815" y2="151.1524"/>
              </g>
            </g>
            <g>
              <g>
                <line class="cls-4" x1="556.65855" y1="158.0372" x2="564.46515" y2="158.0372"/>
                <line class="cls-4" x1="556.39195" y1="164.7242" x2="564.17025" y2="165.3545"/>
                <line class="cls-4" x1="555.58045" y1="171.3765" x2="563.28155" y2="172.6309"/>
                <line class="cls-4" x1="554.23085" y1="177.9253" x2="561.80695" y2="179.8042"/>
                <line class="cls-4" x1="552.36065" y1="184.3516" x2="559.75815" y2="186.835"/>
                <line class="cls-4" x1="549.97685" y1="190.606" x2="557.14775" y2="193.6812"/>
                <line class="cls-4" x1="547.08825" y1="196.647" x2="553.99055" y2="200.2925"/>
                <line class="cls-4" x1="543.72495" y1="202.4361" x2="550.30605" y2="206.6285"/>
                <line class="cls-4" x1="539.89975" y1="207.9283" x2="546.11945" y2="212.6333"/>
                <line class="cls-4" x1="535.64295" y1="213.0914" x2="541.46225" y2="218.2974"/>
                <line class="cls-4" x1="530.98765" y1="217.8951" x2="536.36365" y2="223.5552"/>
                <line class="cls-4" x1="525.94955" y1="222.3091" x2="530.85485" y2="228.3824"/>
                <line class="cls-4" x1="520.57555" y1="226.2969" x2="524.96815" y2="232.7447"/>
                <line class="cls-4" x1="514.89385" y1="229.8394" x2="518.75325" y2="236.6211"/>
                <line class="cls-4" x1="508.94765" y1="232.9126" x2="512.24255" y2="239.9805"/>
                <line class="cls-4" x1="502.77085" y1="235.4825" x2="505.48085" y2="242.7998"/>
                <line class="cls-4" x1="496.40265" y1="237.5528" x2="498.51205" y2="245.066"/>
                <line class="cls-4" x1="489.89095" y1="239.1001" x2="491.38415" y2="246.7554"/>
                <line class="cls-4" x1="483.27475" y1="240.1099" x2="484.14385" y2="247.8594"/>
                <line class="cls-4" x1="476.59705" y1="240.5831" x2="476.83525" y2="248.376"/>
                <line class="cls-4" x1="469.90075" y1="240.5186" x2="469.51015" y2="248.2984"/>
                <line class="cls-4" x1="463.23865" y1="239.9009" x2="462.21125" y2="247.6314"/>
                <line class="cls-4" x1="456.64195" y1="238.754" x2="454.99545" y2="246.3702"/>
                <line class="cls-4" x1="450.16145" y1="237.0728" x2="447.90855" y2="244.5347"/>
                <line class="cls-4" x1="443.84115" y1="234.8711" x2="440.98665" y2="242.1241"/>
                <line class="cls-4" x1="437.71615" y1="232.1705" x2="434.28545" y2="239.1646"/>
                <line class="cls-4" x1="431.83135" y1="228.9722" x2="427.84605" y2="235.6763"/>
                <line class="cls-4" x1="426.22785" y1="225.3179" x2="421.71225" y2="231.6709"/>
                <line class="cls-4" x1="420.93975" y1="221.2159" x2="415.92315" y2="227.1861"/>
                <line class="cls-4" x1="415.99645" y1="216.7051" x2="410.51695" y2="222.2403"/>
                <line class="cls-4" x1="411.43785" y1="211.8042" x2="405.52375" y2="216.8794"/>
                <line class="cls-4" x1="407.28845" y1="206.5489" x2="400.98275" y2="211.1309"/>
                <line class="cls-4" x1="403.58235" y1="200.9751" x2="396.92415" y2="205.0274"/>
                <line class="cls-4" x1="400.33725" y1="195.1167" x2="393.37725" y2="198.6226"/>
                <line class="cls-4" x1="397.58045" y1="189.0196" x2="390.35585" y2="191.9507"/>
                <line class="cls-4" x1="395.32265" y1="182.7247" x2="387.88515" y2="185.0513"/>
                <line class="cls-4" x1="393.58335" y1="176.2554" x2="385.98275" y2="177.9771"/>
                <line class="cls-4" x1="392.37435" y1="169.6739" x2="384.66045" y2="170.7691"/>
                <line class="cls-4" x1="391.70245" y1="163.0132" x2="383.92515" y2="163.4781"/>
                <line class="cls-4" x1="391.57165" y1="156.3238" x2="383.78255" y2="156.1539"/>
              </g>
              <g>
                <line class="cls-4" x1="547.14875" y1="161.1729" x2="554.05695" y2="161.4634"/>
                <line class="cls-4" x1="546.65755" y1="167.0762" x2="553.51695" y2="167.9283"/>
                <line class="cls-4" x1="545.68975" y1="172.9234" x2="552.45545" y2="174.3267"/>
                <line class="cls-4" x1="544.24745" y1="178.6763" x2="550.88025" y2="180.6265"/>
                <line class="cls-4" x1="542.34895" y1="184.2891" x2="548.79915" y2="186.773"/>
                <line class="cls-4" x1="539.99935" y1="189.73" x2="546.22985" y2="192.7281"/>
                <line class="cls-4" x1="537.22105" y1="194.9683" x2="543.18395" y2="198.4546"/>
                <line class="cls-4" x1="534.02275" y1="199.959" x2="539.68685" y2="203.9165"/>
                <line class="cls-4" x1="530.43105" y1="204.6724" x2="535.75325" y2="209.0821"/>
                <line class="cls-4" x1="526.47105" y1="209.084" x2="531.42025" y2="213.9048"/>
                <line class="cls-4" x1="522.16435" y1="213.1626" x2="526.70735" y2="218.3687"/>
                <line class="cls-4" x1="517.54335" y1="216.8687" x2="521.64975" y2="222.4273"/>
                <line class="cls-4" x1="512.63415" y1="220.1958" x2="516.27765" y2="226.0733"/>
                <line class="cls-4" x1="507.47395" y1="223.1182" x2="510.63115" y2="229.2608"/>
                <line class="cls-4" x1="502.09505" y1="225.5977" x2="504.74445" y2="231.983"/>
                <line class="cls-4" x1="496.52965" y1="227.6509" x2="498.65175" y2="234.2193"/>
                <line class="cls-4" x1="490.81775" y1="229.2388" x2="492.40175" y2="235.9644"/>
                <line class="cls-4" x1="484.99445" y1="230.3623" x2="486.03155" y2="237.189"/>
                <line class="cls-4" x1="479.10585" y1="231.004" x2="479.58135" y2="237.8887"/>
                <line class="cls-4" x1="473.17905" y1="231.1714" x2="473.09705" y2="238.0757"/>
                <line class="cls-4" x1="467.26015" y1="230.8555" x2="466.61755" y2="237.729"/>
                <line class="cls-4" x1="461.38515" y1="230.0572" x2="460.18885" y2="236.8555"/>
                <line class="cls-4" x1="455.59405" y1="228.7915" x2="453.85285" y2="235.4673"/>
                <line class="cls-4" x1="449.92315" y1="227.0547" x2="447.64585" y2="233.5738"/>
                <line class="cls-4" x1="444.41535" y1="224.8726" x2="441.61555" y2="231.1802"/>
                <line class="cls-4" x1="439.09795" y1="222.251" x2="435.80015" y2="228.3135"/>
                <line class="cls-4" x1="434.01205" y1="219.2056" x2="430.23475" y2="224.98"/>
                <line class="cls-4" x1="429.19365" y1="215.7579" x2="424.95735" y2="221.2027"/>
                <line class="cls-4" x1="424.67125" y1="211.9229" x2="420.00615" y2="217.0127"/>
                <line class="cls-4" x1="420.46815" y1="207.7388" x2="415.40655" y2="212.4351"/>
                <line class="cls-4" x1="416.62045" y1="203.2349" x2="411.19275" y2="207.5064"/>
                <line class="cls-4" x1="413.14685" y1="198.4268" x2="407.39585" y2="202.251"/>
                <line class="cls-4" x1="410.08235" y1="193.356" x2="404.03645" y2="196.6919"/>
                <line class="cls-4" x1="407.43105" y1="188.0489" x2="401.13805" y2="190.8897"/>
                <line class="cls-4" x1="405.22005" y1="182.5591" x2="398.71905" y2="184.8682"/>
                <line class="cls-4" x1="403.46225" y1="176.8941" x2="396.79425" y2="178.6744"/>
                <line class="cls-4" x1="402.16835" y1="171.1138" x2="395.38315" y2="172.334"/>
                <line class="cls-4" x1="401.34895" y1="165.2339" x2="394.48275" y2="165.9141"/>
                <line class="cls-4" x1="401.00815" y1="159.3155" x2="394.10875" y2="159.4361"/>
                <line class="cls-4" x1="401.14685" y1="153.3887" x2="394.26405" y2="152.9517"/>
              </g>
            </g>
            <g>
              <g>
                <line class="cls-4" x1="535.22105" y1="158.0435" x2="541.00225" y2="158.0435"/>
                <line class="cls-4" x1="535.02375" y1="163" x2="540.78255" y2="163.4693"/>
                <line class="cls-4" x1="534.42515" y1="167.9219" x2="540.12335" y2="168.8497"/>
                <line class="cls-4" x1="533.42415" y1="172.771" x2="539.03455" y2="174.1612"/>
                <line class="cls-4" x1="532.04035" y1="177.5293" x2="537.51595" y2="179.3648"/>
                <line class="cls-4" x1="530.27575" y1="182.1626" x2="535.58525" y2="184.4356"/>
                <line class="cls-4" x1="528.13605" y1="186.6265" x2="533.24545" y2="189.3296"/>
                <line class="cls-4" x1="525.64685" y1="190.9136" x2="530.52085" y2="194.021"/>
                <line class="cls-4" x1="522.81675" y1="194.981" x2="527.41735" y2="198.4673"/>
                <line class="cls-4" x1="519.66535" y1="198.8052" x2="523.97205" y2="202.6597"/>
                <line class="cls-4" x1="516.21515" y1="202.3565" x2="520.19955" y2="206.5489"/>
                <line class="cls-4" x1="512.49055" y1="205.6255" x2="516.11855" y2="210.128"/>
                <line class="cls-4" x1="508.50915" y1="208.585" x2="511.76105" y2="213.354"/>
                <line class="cls-4" x1="504.30305" y1="211.2041" x2="507.16145" y2="216.2227"/>
                <line class="cls-4" x1="499.89975" y1="213.479" x2="502.34015" y2="218.7129"/>
                <line class="cls-4" x1="495.32845" y1="215.3794" x2="497.33435" y2="220.8003"/>
                <line class="cls-4" x1="490.61165" y1="216.9156" x2="492.17415" y2="222.4751"/>
                <line class="cls-4" x1="485.79035" y1="218.0562" x2="486.89875" y2="223.7276"/>
                <line class="cls-4" x1="480.89485" y1="218.8096" x2="481.53745" y2="224.5474"/>
                <line class="cls-4" x1="475.94855" y1="219.1563" x2="476.12535" y2="224.9283"/>
                <line class="cls-4" x1="470.99255" y1="219.1109" x2="470.70345" y2="224.8682"/>
                <line class="cls-4" x1="466.05995" y1="218.6504" x2="465.30205" y2="224.3794"/>
                <line class="cls-4" x1="461.17615" y1="217.8067" x2="459.96025" y2="223.439"/>
                <line class="cls-4" x1="456.37925" y1="216.5586" x2="454.71325" y2="222.0831"/>
                <line class="cls-4" x1="451.70055" y1="214.9292" x2="449.58725" y2="220.3013"/>
                <line class="cls-4" x1="447.16345" y1="212.9302" x2="444.62825" y2="218.108"/>
                <line class="cls-4" x1="442.80995" y1="210.5606" x2="439.85975" y2="215.521"/>
                <line class="cls-4" x1="438.66045" y1="207.8531" x2="435.31865" y2="212.5601"/>
                <line class="cls-4" x1="434.74545" y1="204.8189" x2="431.02865" y2="209.2369"/>
                <line class="cls-4" x1="431.08725" y1="201.4805" x2="427.02765" y2="205.5806"/>
                <line class="cls-4" x1="427.71225" y1="197.8501" x2="423.33335" y2="201.6055"/>
                <line class="cls-4" x1="424.63905" y1="193.9585" x2="419.97105" y2="197.3506"/>
                <line class="cls-4" x1="421.89775" y1="189.8355" x2="416.96715" y2="192.8335"/>
                <line class="cls-4" x1="419.49155" y1="185.4986" x2="414.33925" y2="188.0899"/>
                <line class="cls-4" x1="417.45155" y1="180.9834" x2="412.10485" y2="183.1509"/>
                <line class="cls-4" x1="415.78065" y1="176.3199" x2="410.27575" y2="178.0459"/>
                <line class="cls-4" x1="414.49445" y1="171.5313" x2="408.86365" y2="172.8096"/>
                <line class="cls-4" x1="413.59895" y1="166.6587" x2="407.88705" y2="167.4742"/>
                <line class="cls-4" x1="413.09995" y1="161.73" x2="407.34215" y2="162.0748"/>
                <line class="cls-4" x1="413.00225" y1="156.774" x2="407.23665" y2="156.6558"/>
              </g>
              <g>
                <line class="cls-4" x1="528.17905" y1="160.3677" x2="533.29335" y2="160.5831"/>
                <line class="cls-4" x1="527.81775" y1="164.7413" x2="532.89485" y2="165.3653"/>
                <line class="cls-4" x1="527.10095" y1="169.0689" x2="532.11165" y2="170.1065"/>
                <line class="cls-4" x1="526.03545" y1="173.3262" x2="530.94275" y2="174.7725"/>
                <line class="cls-4" x1="524.62825" y1="177.4839" x2="529.40365" y2="179.3199"/>
                <line class="cls-4" x1="522.88905" y1="181.5108" x2="527.50135" y2="183.7276"/>
                <line class="cls-4" x1="520.83235" y1="185.3848" x2="525.24645" y2="187.9712"/>
                <line class="cls-4" x1="518.46515" y1="189.0757" x2="522.65655" y2="192.0088"/>
                <line class="cls-4" x1="515.80505" y1="192.5728" x2="519.74745" y2="195.8374"/>
                <line class="cls-4" x1="512.87335" y1="195.8374" x2="516.53645" y2="199.4039"/>
                <line class="cls-4" x1="509.68395" y1="198.857" x2="513.05015" y2="202.7139"/>
                <line class="cls-4" x1="506.26205" y1="201.5992" x2="509.30505" y2="205.7159"/>
                <line class="cls-4" x1="502.62925" y1="204.063" x2="505.32745" y2="208.419"/>
                <line class="cls-4" x1="498.81085" y1="206.2261" x2="501.14585" y2="210.7735"/>
                <line class="cls-4" x1="494.82745" y1="208.064" x2="496.78545" y2="212.7881"/>
                <line class="cls-4" x1="490.70835" y1="209.5816" x2="492.27965" y2="214.4473"/>
                <line class="cls-4" x1="486.47885" y1="210.7608" x2="487.64975" y2="215.7364"/>
                <line class="cls-4" x1="482.16835" y1="211.5894" x2="482.93495" y2="216.6426"/>
                <line class="cls-4" x1="477.80605" y1="212.065" x2="478.16145" y2="217.1592"/>
                <line class="cls-4" x1="473.42025" y1="212.19" x2="473.35975" y2="217.3013"/>
                <line class="cls-4" x1="469.03845" y1="211.9527" x2="468.56285" y2="217.045"/>
                <line class="cls-4" x1="464.69075" y1="211.3633" x2="463.80405" y2="216.3995"/>
                <line class="cls-4" x1="460.39975" y1="210.4292" x2="459.11265" y2="215.3687"/>
                <line class="cls-4" x1="456.20545" y1="209.1358" x2="454.51795" y2="213.9673"/>
                <line class="cls-4" x1="452.12635" y1="207.5303" x2="450.05205" y2="212.1963"/>
                <line class="cls-4" x1="448.18785" y1="205.5845" x2="445.74745" y2="210.0718"/>
                <line class="cls-4" x1="444.42415" y1="203.3272" x2="441.62435" y2="207.6036"/>
                <line class="cls-4" x1="440.85585" y1="200.7769" x2="437.72005" y2="204.8077"/>
                <line class="cls-4" x1="437.50715" y1="197.9405" x2="434.05305" y2="201.711"/>
                <line class="cls-4" x1="434.39485" y1="194.8453" x2="430.65265" y2="198.3189"/>
                <line class="cls-4" x1="431.54725" y1="191.5074" x2="427.52965" y2="194.669"/>
                <line class="cls-4" x1="428.97785" y1="187.9458" x2="424.71715" y2="190.7779"/>
                <line class="cls-4" x1="426.70935" y1="184.1944" x2="422.23275" y2="186.6675"/>
                <line class="cls-4" x1="424.74645" y1="180.2623" x2="420.08525" y2="182.3697"/>
                <line class="cls-4" x1="423.10875" y1="176.2012" x2="418.29525" y2="177.9102"/>
                <line class="cls-4" x1="421.80695" y1="172.0044" x2="416.86945" y2="173.3262"/>
                <line class="cls-4" x1="420.85185" y1="167.7242" x2="415.82455" y2="168.6299"/>
                <line class="cls-4" x1="420.24055" y1="163.3746" x2="415.15655" y2="163.8736"/>
                <line class="cls-4" x1="419.99055" y1="158.9908" x2="414.88115" y2="159.0811"/>
                <line class="cls-4" x1="420.09215" y1="154.6065" x2="414.99545" y2="154.2837"/>
              </g>
            </g>
            <g>
              <g>
                <line class="cls-4" x1="519.35385" y1="158.0542" x2="523.63025" y2="158.0542"/>
                <line class="cls-4" x1="519.20545" y1="161.7193" x2="523.46815" y2="162.0704"/>
                <line class="cls-4" x1="518.76205" y1="165.3653" x2="522.97985" y2="166.0562"/>
                <line class="cls-4" x1="518.02185" y1="168.9551" x2="522.17515" y2="169.9815"/>
                <line class="cls-4" x1="516.99445" y1="172.48" x2="521.05115" y2="173.8365"/>
                <line class="cls-4" x1="515.68785" y1="175.9024" x2="519.62245" y2="177.5918"/>
                <line class="cls-4" x1="514.10385" y1="179.2081" x2="517.88805" y2="181.2115"/>
                <line class="cls-4" x1="512.26205" y1="182.3843" x2="515.86945" y2="184.6851"/>
                <line class="cls-4" x1="510.16635" y1="185.3956" x2="513.57745" y2="187.9761"/>
                <line class="cls-4" x1="507.83725" y1="188.2256" x2="511.02275" y2="191.0791"/>
                <line class="cls-4" x1="505.28065" y1="190.8619" x2="508.22885" y2="193.9585"/>
                <line class="cls-4" x1="502.52185" y1="193.2808" x2="505.20935" y2="196.608"/>
                <line class="cls-4" x1="499.57745" y1="195.4673" x2="501.98375" y2="198.9971"/>
                <line class="cls-4" x1="496.46325" y1="197.4068" x2="498.57845" y2="201.1211"/>
                <line class="cls-4" x1="493.20245" y1="199.0918" x2="495.01015" y2="202.9698"/>
                <line class="cls-4" x1="489.81775" y1="200.5015" x2="491.30015" y2="204.5108"/>
                <line class="cls-4" x1="486.32455" y1="201.6377" x2="487.48275" y2="205.7486"/>
                <line class="cls-4" x1="482.75815" y1="202.4834" x2="483.57845" y2="206.6758"/>
                <line class="cls-4" x1="479.13215" y1="203.0347" x2="479.60775" y2="207.2808"/>
                <line class="cls-4" x1="475.47105" y1="203.295" x2="475.60185" y2="207.5625"/>
                <line class="cls-4" x1="471.80115" y1="203.2583" x2="471.58825" y2="207.5215"/>
                <line class="cls-4" x1="468.14685" y1="202.9205" x2="467.58825" y2="207.1622"/>
                <line class="cls-4" x1="464.53355" y1="202.294" x2="463.63215" y2="206.4693"/>
                <line class="cls-4" x1="460.98085" y1="201.3707" x2="459.74745" y2="205.46"/>
                <line class="cls-4" x1="457.51985" y1="200.1656" x2="455.95345" y2="204.1431"/>
                <line class="cls-4" x1="454.16245" y1="198.6871" x2="452.28155" y2="202.5181"/>
                <line class="cls-4" x1="450.93685" y1="196.9312" x2="448.75225" y2="200.6045"/>
                <line class="cls-4" x1="447.86365" y1="194.9292" x2="445.38995" y2="198.4161"/>
                <line class="cls-4" x1="444.96905" y1="192.6763" x2="442.21425" y2="195.9537"/>
                <line class="cls-4" x1="442.25715" y1="190.2095" x2="439.25225" y2="193.2442"/>
                <line class="cls-4" x1="439.75815" y1="187.522" x2="436.51695" y2="190.2959"/>
                <line class="cls-4" x1="437.48375" y1="184.6465" x2="434.02675" y2="187.147"/>
                <line class="cls-4" x1="435.45635" y1="181.586" x2="431.80405" y2="183.8091"/>
                <line class="cls-4" x1="433.67415" y1="178.375" x2="429.85775" y2="180.2925"/>
                <line class="cls-4" x1="432.16345" y1="175.0372" x2="428.20345" y2="176.6446"/>
                <line class="cls-4" x1="430.92615" y1="171.5826" x2="426.85185" y2="172.857"/>
                <line class="cls-4" x1="429.97205" y1="168.0362" x2="425.80605" y2="168.9849"/>
                <line class="cls-4" x1="429.30895" y1="164.4292" x2="425.08235" y2="165.0318"/>
                <line class="cls-4" x1="428.93975" y1="160.7813" x2="424.67805" y2="161.0372"/>
                <line class="cls-4" x1="428.87045" y1="157.1138" x2="424.60095" y2="157.0215"/>
              </g>
              <g>
                <line class="cls-4" x1="514.13905" y1="159.774" x2="517.92615" y2="159.9312"/>
                <line class="cls-4" x1="513.87145" y1="163.0064" x2="517.62925" y2="163.4712"/>
                <line class="cls-4" x1="513.33825" y1="166.211" x2="517.04625" y2="166.9815"/>
                <line class="cls-4" x1="512.54815" y1="169.3619" x2="516.18785" y2="170.4356"/>
                <line class="cls-4" x1="511.50915" y1="172.4371" x2="515.04235" y2="173.8038"/>
                <line class="cls-4" x1="510.22205" y1="175.4244" x2="513.63705" y2="177.0645"/>
                <line class="cls-4" x1="508.70055" y1="178.2891" x2="511.96715" y2="180.211"/>
                <line class="cls-4" x1="506.94665" y1="181.0245" x2="510.04915" y2="183.1939"/>
                <line class="cls-4" x1="504.97885" y1="183.6133" x2="507.89485" y2="186.0303"/>
                <line class="cls-4" x1="502.80505" y1="186.0303" x2="505.51695" y2="188.6709"/>
                <line class="cls-4" x1="500.44665" y1="188.2642" x2="502.93495" y2="191.1221"/>
                <line class="cls-4" x1="497.91345" y1="190.2959" x2="500.16245" y2="193.3453"/>
                <line class="cls-4" x1="495.22295" y1="192.1231" x2="497.21905" y2="195.3472"/>
                <line class="cls-4" x1="492.39585" y1="193.7198" x2="494.12635" y2="197.0904"/>
                <line class="cls-4" x1="489.44765" y1="195.0801" x2="490.89775" y2="198.5816"/>
                <line class="cls-4" x1="486.39775" y1="196.2037" x2="487.55995" y2="199.8106"/>
                <line class="cls-4" x1="483.26595" y1="197.0772" x2="484.13315" y2="200.7618"/>
                <line class="cls-4" x1="480.07455" y1="197.6949" x2="480.64295" y2="201.4332"/>
                <line class="cls-4" x1="476.84605" y1="198.0435" x2="477.10675" y2="201.814"/>
                <line class="cls-4" x1="473.59605" y1="198.1382" x2="473.55305" y2="201.9195"/>
                <line class="cls-4" x1="470.35585" y1="197.9639" x2="470.00225" y2="201.73"/>
                <line class="cls-4" x1="467.13605" y1="197.5269" x2="466.47885" y2="201.2525"/>
                <line class="cls-4" x1="463.95935" y1="196.8384" x2="463.00615" y2="200.4908"/>
                <line class="cls-4" x1="460.85385" y1="195.8765" x2="459.60285" y2="199.4576"/>
                <line class="cls-4" x1="457.83435" y1="194.6905" x2="456.29725" y2="198.1426"/>
                <line class="cls-4" x1="454.91835" y1="193.2505" x2="453.10975" y2="196.5669"/>
                <line class="cls-4" x1="452.13115" y1="191.5762" x2="450.05895" y2="194.7422"/>
                <line class="cls-4" x1="449.49255" y1="189.689" x2="447.17025" y2="192.6719"/>
                <line class="cls-4" x1="447.01105" y1="187.584" x2="444.45635" y2="190.3799"/>
                <line class="cls-4" x1="444.70835" y1="185.2964" x2="441.93395" y2="187.8682"/>
                <line class="cls-4" x1="442.59705" y1="182.8301" x2="439.62725" y2="185.1675"/>
                <line class="cls-4" x1="440.69465" y1="180.1895" x2="437.54335" y2="182.2876"/>
                <line class="cls-4" x1="439.01595" y1="177.4151" x2="435.70155" y2="179.2403"/>
                <line class="cls-4" x1="437.56475" y1="174.5054" x2="434.11555" y2="176.0591"/>
                <line class="cls-4" x1="436.35095" y1="171.4903" x2="432.78745" y2="172.7623"/>
                <line class="cls-4" x1="435.38705" y1="168.3912" x2="431.73275" y2="169.3619"/>
                <line class="cls-4" x1="434.68105" y1="165.2188" x2="430.95835" y2="165.8863"/>
                <line class="cls-4" x1="434.22685" y1="161.9971" x2="430.46715" y2="162.3653"/>
                <line class="cls-4" x1="434.04235" y1="158.7515" x2="430.26105" y2="158.8208"/>
                <line class="cls-4" x1="434.11755" y1="155.5083" x2="430.34705" y2="155.2696"/>
              </g>
            </g>
          </g>
          <path d="M633.99445,75.7559s33.4512.5273,34.8848,22.2769h-24.1416s-.2363,5.2597,23.4248,5.2597c0,0-.3838,12.1665-9.9932,17.7964-9.6064,5.626-24.9043-2.7373-24.9043-2.7373l-7.8857-29.1597Z"/>
          <path class="cls-5" d="M633.99445,75.7559s-38.4199-46.3789-119.873-46.3789c-107.6572,0-339.1602,54.7446-339.1602,54.7446l-95.749-20.5595a55.31283,55.31283,0,1,0,4.28908,102.4726l95.46682-23.1616h133.5263l315.459,47.7222,30.2158-69.5064C627.94955,116.5567,633.99445,75.7559,633.99445,75.7559Z"/>
          <path class="cls-6" d="M658.16925,121.0889c-30.2197-4.5322-24.1748-45.333-24.1748-45.333s-38.4199-46.3789-119.873-46.3789c-107.6572,0-339.1602,54.7446-339.1602,54.7446L158.805,80.6543l14.07322,29.4224c5.4297,4.3384,10.7149,8.7847,21.5625,8.7847,21.168,0,21.168-16.9419,42.3408-16.9419,21.169,0,21.169,16.9419,42.3379,16.9419,21.168,0,21.168-16.9419,42.3369-16.9419,21.1661,0,21.1661,16.9419,42.335,16.9419,21.1729,0,21.1729-16.9419,42.3496-16.9419,21.1817,0,21.1817,16.9419,42.3613,16.9419,21.1729,0,21.1729-16.9419,42.3506-16.9419,21.1856,0,21.1856,16.9419,42.376,16.9419,21.1895,0,21.1895-16.9419,42.3779-16.9419,0,0-1.9824,63.7168,60.8516,69.1103Z"/>
          <path class="cls-7" d="M593.83725,99.8858a52.27858,52.27858,0,0,0,50.8408,52.2392l4.4395-10.2094a52.24808,52.24808,0,0,1-27.5215-77.7144c-2.2041-1.7583-4.6875-3.6264-7.4854-5.5654A52.07555,52.07555,0,0,0,593.83725,99.8858Z"/>
          <path class="cls-1" d="M501.75525,137.7017l-87.459,4.0049s-2.1631,61.0781,56.6963,77.4043l39.5068-59.2442Z"/>
          <path class="cls-5" d="M561.52475,138.8702c0-20.2818-15.4346-11.9336-35.7148-11.9336-20.2793,0-37.7256-8.3482-37.7256,11.9336a36.7202,36.7202,0,1,0,73.4404,0Z"/>
          <path class="cls-8" d="M606.97395,73.8941a17.44725,17.44725,0,1,1-17.4453-17.4473A17.4483,17.4483,0,0,1,606.97395,73.8941Z"/>
          <path class="cls-9" d="M602.51885,73.8941a12.9902,12.9902,0,1,1-12.9902-12.9922A12.992,12.992,0,0,1,602.51885,73.8941Z"/>
          <path d="M599.56675,74.4947a2.98249,2.98249,0,0,1-2.9854,2.9829h-15.538a2.985,2.985,0,0,1-2.9854-2.9829h0a2.98635,2.98635,0,0,1,2.9854-2.9893h15.538a2.98386,2.98386,0,0,1,2.9854,2.9893Z"/>
          <g>
            <path class="cls-8" d="M567.85185,168.1221a4.506,4.506,0,0,1-4.5019,4.5088h0a4.507,4.507,0,0,1-4.5068-4.5088V118.0523a4.50685,4.50685,0,0,1,4.5068-4.5068h0a4.5058,4.5058,0,0,1,4.5019,4.5068Z"/>
            <path class="cls-8" d="M545.60775,166.6695a5.61606,5.61606,0,0,1-5.6172,5.6191h0a5.61606,5.61606,0,0,1-5.6172-5.6191V136.3179a5.614,5.614,0,0,1,5.6172-5.6152h0a5.614,5.614,0,0,1,5.6172,5.6152Z"/>
            <path class="cls-8" d="M523.22685,161.2676a4.06277,4.06277,0,0,1-4.0605,4.063h0a4.06533,4.06533,0,0,1-4.0635-4.063V139.2813a4.0649,4.0649,0,0,1,4.0635-4.061h0a4.06234,4.06234,0,0,1,4.0605,4.061Z"/>
          </g>
          <g>
            <path class="cls-10" d="M533.22885,124.2032c-12.4678,0-18.8701-5.1245-24.5225-9.6397-5.1045-4.0781-9.1337-7.3042-17.8535-7.3042-8.7168,0-12.7412,3.2261-17.8418,7.3042-5.6455,4.5152-12.0478,9.6397-24.5088,9.6397-12.4629,0-18.8652-5.1245-24.5127-9.6397-5.1025-4.0781-9.1298-7.3042-17.8486-7.3042-8.7158,0-12.7422,3.2261-17.8389,7.3042-5.6474,4.5152-12.0517,9.6397-24.5107,9.6397s-18.8594-5.1245-24.5068-9.646c-5.0957-4.0718-9.1202-7.2979-17.8282-7.2979-8.7119,0-12.7343,3.2261-17.831,7.2979-5.6494,4.5215-12.0498,9.646-24.5059,9.646-12.459,0-18.8574-5.1245-24.5088-9.646-5.0947-4.0718-9.1171-7.2979-17.8291-7.2979-8.7138,0-12.7363,3.2261-17.8349,7.3042-5.6494,4.5152-12.0449,9.6397-24.5059,9.6397-12.4658,0-18.8662-5.1284-24.5176-9.6524a5.55651,5.55651,0,0,1-1.0244-7.6552,5.14709,5.14709,0,0,1,7.3155-.9922l.3847.312c5.1006,4.083,9.125,7.3047,17.8418,7.3047,8.71,0,12.7363-3.2217,17.832-7.2984,5.6475-4.5215,12.0479-9.6435,24.5088-9.6435,12.4571,0,18.8575,5.122,24.5069,9.6435,5.0947,4.0767,9.1191,7.2984,17.831,7.2984,8.709,0,12.7344-3.2217,17.8301-7.2984,5.6494-4.5215,12.0479-9.6435,24.5068-9.6435s18.8575,5.122,24.5049,9.6372c5.0957,4.083,9.1201,7.3047,17.8301,7.3047,8.7139,0,12.7383-3.2217,17.8389-7.3047,5.6455-4.5152,12.0478-9.6372,24.5107-9.6372,12.4639,0,18.8682,5.122,24.5176,9.6372,5.1006,4.083,9.1279,7.3047,17.8437,7.3047,8.712,0,12.7413-3.2217,17.8399-7.3047,5.6445-4.5152,12.0469-9.6372,24.5107-9.6372,12.4649,0,18.8721,5.122,24.5235,9.6372,5.1005,4.083,9.1298,7.3047,17.8525,7.3047,8.7246,0,12.7529-3.2217,17.8535-7.3047,5.6524-4.5152,12.0586-9.6372,24.5244-9.6372a5.34055,5.34055,0,1,1,0,10.6811c-8.7226,0-12.7519,3.2261-17.8525,7.3042C552.10285,119.0787,545.69765,124.2032,533.22885,124.2032Z"/>
            <path class="cls-9" d="M533.22885,121.0484c-11.3555,0-17.041-4.5459-22.542-8.9385-5.1611-4.1255-10.0117-8.0059-19.834-8.0059-9.8183,0-14.667,3.8804-19.8027,7.9888-5.5117,4.4077-11.1973,8.9556-22.5479,8.9556s-17.0361-4.5459-22.5351-8.9424c-5.1582-4.1235-10.0098-8.002-19.8262-8.002-9.8174,0-14.6689,3.8804-19.8017,7.9888-5.5118,4.4077-11.1954,8.9556-22.5479,8.9556-11.3486,0-17.0361-4.5523-22.5352-8.9531-5.1523-4.1192-9.997-7.9913-19.7998-7.9913-9.8056,0-14.6513,3.8721-19.7802,7.9717-5.5244,4.4204-11.209,8.9727-22.5567,8.9727-11.3467,0-17.0351-4.5523-22.5332-8.9512-5.1523-4.1172-9.997-7.9932-19.8047-7.9932-9.8134,0-14.6601,3.8785-19.7929,7.9869-5.5225,4.414-11.2061,8.9575-22.5479,8.9575-11.3574,0-17.0459-4.5542-22.5439-8.9575a2.41394,2.41394,0,0,1-.5362-3.2261,2.26809,2.26809,0,0,1,1.7344-.9126,1.81287,1.81287,0,0,1,1.0742.3594l.458.3657c5.1377,4.1133,9.9903,7.9956,19.8135,7.9956,9.8135,0,14.6602-3.876,19.7949-7.9824,5.5059-4.4058,11.1914-8.9575,22.5459-8.9575,11.3506,0,17.0371,4.5517,22.5352,8.9511,5.1416,4.1128,9.9883,7.9888,19.8027,7.9888,9.8096,0,14.6563-3.876,19.791-7.978,5.5098-4.4102,11.1954-8.9619,22.5459-8.9619,11.3457,0,17.0303,4.5454,22.5245,8.9404,5.1435,4.1172,9.9921,7.9995,19.8105,7.9995,9.8203,0,14.6738-3.8823,19.8105-7.9956,5.4971-4.3965,11.1827-8.9443,22.5391-8.9443,11.3574,0,17.0479,4.5478,22.5488,8.9467,5.3614,4.2915,9.9903,7.9932,19.8125,7.9932,9.8204,0,14.4493-3.7017,19.8106-7.9932,5.499-4.4013,11.1846-8.9467,22.54-8.9467,11.3565,0,17.0449,4.5454,22.5479,8.9423,5.1435,4.1153,9.997,7.9976,19.8281,7.9976,9.833,0,14.6855-3.8823,19.8252-7.9932,5.5078-4.4013,11.1953-8.9467,22.5527-8.9467a2.1855,2.1855,0,1,1,0,4.371c-9.8252,0-14.6777,3.8804-19.8154,7.9888C550.27575,116.5025,544.58725,121.0484,533.22885,121.0484Z"/>
          </g>
          <g>
            <path class="cls-11" d="M649.11755,141.9156l9.0517-20.8267c-30.2197-4.5322-24.1748-45.333-24.1748-45.333a92.60735,92.60735,0,0,0-12.3984-11.5547,52.24808,52.24808,0,0,0,27.5215,77.7144Z"/>
            <path class="cls-11" d="M593.83725,99.8858a52.07555,52.07555,0,0,1,20.2734-41.25c-19.0722-13.2163-52.0781-29.2588-99.9892-29.2588-107.6572,0-339.1602,54.7446-339.1602,54.7446L158.805,80.6543l14.07322,29.4224c5.4297,4.3384,10.7149,8.7847,21.5625,8.7847,21.168,0,21.168-16.9419,42.3408-16.9419,21.169,0,21.169,16.9419,42.3379,16.9419,21.168,0,21.168-16.9419,42.3369-16.9419,21.1661,0,21.1661,16.9419,42.335,16.9419,21.1729,0,21.1729-16.9419,42.3496-16.9419,21.1817,0,21.1817,16.9419,42.3613,16.9419,21.1729,0,21.1729-16.9419,42.3506-16.9419,21.1856,0,21.1856,16.9419,42.376,16.9419,21.1895,0,21.1895-16.9419,42.3779-16.9419,0,0-1.9824,63.7168,60.8516,69.1103l8.2197-18.9048A52.27858,52.27858,0,0,1,593.83725,99.8858Z"/>
          </g>
          <path class="cls-7" d="M534.94765,68.4903a12.44485,12.44485,0,1,1-12.4454-12.4439A12.44321,12.44321,0,0,1,534.94765,68.4903Z"/>
          <path class="cls-7" d="M521.39975,37.7725a4.72605,4.72605,0,1,1-4.7256-4.7261A4.7251,4.7251,0,0,1,521.39975,37.7725Z"/>
          <path class="cls-7" d="M490.20935,73.8492a4.56835,4.56835,0,1,1-4.5694-4.5713A4.57029,4.57029,0,0,1,490.20935,73.8492Z"/>
          <path class="cls-7" d="M458.70345,86.4502a7.4033,7.4033,0,1,1-7.4033-7.4038A7.40317,7.40317,0,0,1,458.70345,86.4502Z"/>
          <path class="cls-7" d="M439.48665,52.896a3.4668,3.4668,0,1,1-3.4668-3.4672A3.46462,3.46462,0,0,1,439.48665,52.896Z"/>
          <path class="cls-7" d="M362.29335,82.0381a10.5542,10.5542,0,1,1-10.5538-10.5542A10.55235,10.55235,0,0,1,362.29335,82.0381Z"/>
          <path class="cls-7" d="M285.73275,84.087a5.9863,5.9863,0,1,1-5.9853-5.9873A5.98529,5.98529,0,0,1,285.73275,84.087Z"/>
          <path class="cls-7" d="M256.11655,77.6304a3.938,3.938,0,1,1-3.9385-3.9404A3.93727,3.93727,0,0,1,256.11655,77.6304Z"/>
          <path class="cls-7" d="M213.58625,90.2315a7.08935,7.08935,0,1,1-7.0898-7.0913A7.08885,7.08885,0,0,1,213.58625,90.2315Z"/>
          <path class="cls-7" d="M303.69275,90.2315a3.3081,3.3081,0,1,1-3.3076-3.3081A3.30778,3.30778,0,0,1,303.69275,90.2315Z"/>
          <path class="cls-7" d="M385.29335,80.6241a4.0967,4.0967,0,1,1-4.0977-4.0977A4.09746,4.09746,0,0,1,385.29335,80.6241Z"/>
          <path class="cls-7" d="M424.04525,83.9278a2.67725,2.67725,0,1,1-2.6777-2.6753A2.6795,2.6795,0,0,1,424.04525,83.9278Z"/>
          <path class="cls-7" d="M546.92025,90.5479a3.93845,3.93845,0,1,1-3.9385-3.9385A3.93891,3.93891,0,0,1,546.92025,90.5479Z"/>
          <path class="cls-7" d="M560.46615,67.3882a2.83445,2.83445,0,1,1-2.835-2.834A2.8348,2.8348,0,0,1,560.46615,67.3882Z"/>
          <g>
            <path class="cls-11" d="M633.99445,75.7559s-17.2021-20.7163-52.9218-34.4604a24.24339,24.24339,0,0,1-46.125-10.4551c0-.1358.0175-.2666.0195-.4024a204.64051,204.64051,0,0,0-20.8457-1.061c-7.0352,0-14.6084.2388-22.6016.6758a21.73637,21.73637,0,1,1-42.5849,6.1421,21.20835,21.20835,0,0,1,.1533-2.4815c-11.2559,1.2569-22.919,2.753-34.7989,4.4165a27.5632,27.5632,0,1,1-54.3779,8.4986c-7.7265,1.3154-15.4267,2.6689-23.0547,4.042a20.31224,20.31224,0,1,1-39.7002,7.4335c-20.5341,3.9859-39.7783,7.9327-56.6689,11.5035a12.24227,12.24227,0,0,1-22.3731,4.8012c-26.4697,5.7676-43.1533,9.7129-43.1533,9.7129L158.805,80.6543l14.07322,29.4224c5.4297,4.3384,10.7149,8.7847,21.5625,8.7847,21.168,0,21.168-16.9419,42.3408-16.9419,21.169,0,21.169,16.9419,42.3379,16.9419,21.168,0,21.168-16.9419,42.3369-16.9419,21.1661,0,21.1661,16.9419,42.335,16.9419,21.1729,0,21.1729-16.9419,42.3496-16.9419,21.1817,0,21.1817,16.9419,42.3613,16.9419,21.1729,0,21.1729-16.9419,42.3506-16.9419,21.1856,0,21.1856,16.9419,42.376,16.9419,21.1895,0,21.1895-16.9419,42.3779-16.9419,0,0-1.9824,63.7168,60.8516,69.1103l21.7109-49.9409C627.94955,116.5567,633.99445,75.7559,633.99445,75.7559Z"/>
            <path class="cls-7" d="M470.67615,57.938a21.71366,21.71366,0,0,0,20.8437-27.8852c-13.1328.7168-27.4189,1.98-42.4316,3.6606a21.20835,21.20835,0,0,0-.1533,2.4815A21.7419,21.7419,0,0,0,470.67615,57.938Z"/>
            <path class="cls-7" d="M559.20545,55.1016a24.24163,24.24163,0,0,0,21.8672-13.8061,178.863,178.863,0,0,0-46.1055-10.8575c-.002.1358-.0195.2666-.0195.4024A24.26168,24.26168,0,0,0,559.20545,55.1016Z"/>
            <path class="cls-7" d="M387.34015,71.4839a27.542,27.542,0,0,0,26.9492-33.354c-17.8437,2.5049-36.1757,5.3999-54.3779,8.4986A27.56342,27.56342,0,0,0,387.34015,71.4839Z"/>
            <path class="cls-7" d="M317.39775,76.8409a20.31166,20.31166,0,0,0,19.459-26.1704c-13.5498,2.4365-26.874,4.9414-39.7002,7.4335A20.31132,20.31132,0,0,0,317.39775,76.8409Z"/>
            <path class="cls-7" d="M228.393,79.9917a12.256,12.256,0,0,0,12.0947-10.3842c-8.0313,1.6977-15.5322,3.312-22.3731,4.8012A12.25765,12.25765,0,0,0,228.393,79.9917Z"/>
          </g>
          <g>
            <path class="cls-6" d="M79.21225,63.5621a55.31283,55.31283,0,1,0,4.28908,102.4726l95.46682-23.1616c-10.7842-22.6924-4.0069-58.7515-4.0069-58.7515Z"/>
            <g>
              <line class="cls-12" x1="34.26403" y1="62.5137" x2="173.03545" y2="89.0669"/>
              <line class="cls-12" x1="11.91833" y1="79.9185" x2="171.37145" y2="99.2232"/>
              <line class="cls-12" x1="1.04333" y1="101.9781" x2="170.63115" y2="109.4761"/>
              <line class="cls-12" x1="2.08043" y1="128.688" x2="170.80995" y2="119.7632"/>
              <line class="cls-12" x1="13.05693" y1="153.7286" x2="171.91345" y2="129.9859"/>
              <line class="cls-12" x1="34.62143" y1="169.1875" x2="173.91345" y2="140.0708"/>
            </g>
          </g>
        </g>
        <line class="cls-2" x1="488.23955" y1="142.1866" x2="414.44665" y2="150.4683"/>
        <line class="cls-2" x1="489.00615" y1="147.0484" x2="416.19855" y2="162.4165"/>
        <line class="cls-2" x1="490.10775" y1="150.9009" x2="418.62145" y2="171.1612"/>
        <line class="cls-2" x1="491.23565" y1="153.7588" x2="423.54625" y2="182.5718"/>
        <line class="cls-2" x1="492.78545" y1="156.8428" x2="430.79425" y2="193.4488"/>
        <line class="cls-2" x1="494.40175" y1="159.4639" x2="438.87825" y2="201.7325"/>
        <line class="cls-2" x1="496.17905" y1="161.8638" x2="449.06675" y2="208.9659"/>
        <line class="cls-2" x1="498.66045" y1="164.6402" x2="456.57265" y2="214.0064"/>
        <line class="cls-2" x1="501.69075" y1="167.397" x2="463.80405" y2="216.3995"/>
      </g>
    </g>
  </g>
</svg>
