<svg xmlns="http://www.w3.org/2000/svg" width="661.1636" height="443.64452" viewBox="0 0 661.1636 443.64452">
  <defs>
    <style>
      .cls-1 {
        fill: #e2c85a;
      }

      .cls-2, .cls-7 {
        fill: none;
      }

      .cls-2 {
        stroke: #114354;
        stroke-linecap: round;
        stroke-linejoin: round;
        stroke-width: 1.85691px;
      }

      .cls-3 {
        fill: #8daa79;
      }

      .cls-4 {
        fill: #eac204;
      }

      .cls-5 {
        fill: #dbdabf;
      }

      .cls-6 {
        fill: #467e9e;
      }

      .cls-8 {
        fill: #2e647c;
      }

      .cls-9 {
        fill: #163e4c;
      }

      .cls-10 {
        fill: #fff;
      }

      .cls-11 {
        fill: #2c627a;
      }
    </style>
  </defs>
  <g id="图层_2" data-name="图层 2">
    <g id="Layer_1" data-name="Layer 1">
      <g>
        <g>
          <g>
            <path class="cls-1" d="M557.09958,318.3921s-73.6387,118.4912-94.125,124.4805c-20.4864,5.9873-108.7378-22.6924-100.23-91.7207,2.52-32.7598,66.50341-47.5908,66.50341-47.5908Z"/>
            <line class="cls-2" x1="556.90128" y1="307.3384" x2="433.03169" y2="436.8833"/>
            <line class="cls-2" x1="540.82418" y1="307.3384" x2="405.60879" y2="423.0142"/>
            <path class="cls-2" d="M529.48038,305.4488s-145.61909,94.876-146.56389,95.5068"/>
            <line class="cls-2" x1="516.24018" y1="303.2427" x2="369.36229" y2="369.7466"/>
            <line class="cls-2" x1="497.01558" y1="302.9283" x2="375.666" y2="337.9166"/>
          </g>
          <g>
            <path class="cls-1" d="M356.19089,319.856l-13.7544,67.749s-64.752-1.9472-108.4019-46.2129c-43.6543-44.2588-44.2265-90.7519-44.2265-90.7519l29.1054-13.9697Z"/>
            <path class="cls-3" d="M342.43649,387.605s-64.752-1.9472-108.4019-46.2129c-43.6543-44.2588-44.2265-90.7519-44.2265-90.7519l10.894-5.2363s7.7734,58.8701,58.58591,94.4834c32.22659,22.5937,66.12309,28.9687,86.62019,30.621Z"/>
            <line class="cls-2" x1="321.26609" y1="383.0083" x2="339.12889" y2="311.8687"/>
            <line class="cls-2" x1="299.21479" y1="379.5171" x2="322.02339" y2="302.3775"/>
            <line class="cls-2" x1="280.12539" y1="372.4322" x2="303.10589" y2="296.9478"/>
            <line class="cls-2" x1="261.14349" y1="362.6314" x2="289.06979" y2="288.8863"/>
            <line class="cls-2" x1="242.90179" y1="349.5894" x2="275.23139" y2="281.6871"/>
            <line class="cls-2" x1="225.413" y1="331.9849" x2="259.77679" y2="274.3394"/>
            <line class="cls-2" x1="210.69479" y1="311.8345" x2="249.48289" y2="265.0249"/>
            <line class="cls-2" x1="198.875" y1="288.524" x2="241.20549" y2="260.8238"/>
          </g>
          <g>
            <path class="cls-1" d="M362.29439,73.815,328.86709,0s-73.4658,19.1519-111.7675,81.1294C178.79729,143.105,190.288,196.3775,190.288,196.3775l36.90729,8.3525Z"/>
            <path class="cls-3" d="M328.86709,0s-73.4658,19.1519-111.7675,81.1294C178.79729,143.105,190.288,196.3775,190.288,196.3775l13.81689,3.125s-6.5063-69.2861,42.2422-123.2539c30.916-34.2276,67.9717-50.375,90.961-57.6172Z"/>
            <line class="cls-2" x1="305.88669" y1="10.7906" x2="344.88379" y2="87.3902"/>
            <line class="cls-2" x1="281.60589" y1="20.5406" x2="327.82129" y2="102.7115"/>
            <line class="cls-2" x1="261.64689" y1="33.6207" x2="307.62789" y2="113.8531"/>
            <line class="cls-2" x1="242.52049" y1="49.7749" x2="293.70109" y2="126.7359"/>
            <line class="cls-2" x1="225.09029" y1="69.4478" x2="279.77239" y2="138.5748"/>
            <line class="cls-2" x1="209.707" y1="94.1314" x2="264.03559" y2="151.0103"/>
            <line class="cls-2" x1="198.16059" y1="120.9986" x2="254.70409" y2="164.3404"/>
            <line class="cls-2" x1="190.74609" y1="150.7242" x2="246.34709" y2="171.3052"/>
          </g>
          <path class="cls-4" d="M634.59858,153.2144s-33.6563.4385-69.085-24.3603l-40.7422-22.585L360.03459,65.5308s-3.9878-4.8682-31.8862,23.0303c-27.90039,27.9004-100.9702,97.8672-100.9702,97.8672s-22.585,22.1416-41.1841-7.9717c-18.6006-30.1152-27.0112-54.9121-71.2964-90.3428C70.413,52.6871,0,30.9888,0,30.9888S93.43989,66.8589,39.413,140.813c-54.0273,73.9532-40.7412,107.6172-3.9868,152.7842,36.7559,45.169,22.585,64.6524,22.585,64.6524s58.01459,9.2998,98.31349-51.8125c40.29931-61.1123,57.1269-66.8702,85.02731-39.8565,27.89839,27.0117,53.14109,51.8115,102.73979,51.8115H557.09958l97.4277-144.3691-16.8301,6.6436Z"/>
          <path class="cls-5" d="M512.18748,177.4126l-68.43359-4.9218-114.2193-5.4141L293.103,177.4126l-76.17141,24.9952L186.27,204.9869s-6.89111-.4981-12.80131,13.289c-5.90769,13.7891-1.6011,29.7832-1.6011,29.7832l1.0913,1.5928a149.20331,149.20331,0,0,0,13.1216,17.2861c21.1299-22.1904,35.3941-19.6054,55.27151-.3574,27.89839,27.0117,53.14109,51.8115,102.73979,51.8115H557.09958l97.4277-144.3691-16.8301,6.6436-1.2138-10.7598c-6.753,1.1933-12.5127,2.0918-14.5098,2.0918C616.06638,171.9986,512.18748,177.4126,512.18748,177.4126Z"/>
          <path class="cls-6" d="M634.59858,153.2144s-33.6563.4385-69.085-24.3603l-40.7422-22.585L360.03459,65.5308s-3.9878-4.8682-31.8862,23.0303c-27.90039,27.9004-100.9702,97.8672-100.9702,97.8672s-22.585,22.1416-41.1841-7.9717q-1.78485-2.8887-3.45609-5.7158h0c-42.63861,38.2138-7.73921,79.3515-7.73921,79.3515l38.0737-38.0752,42.7354,42.7354,58.3667-58.3692,56.8662,56.8643,55.7021-55.7021,49.72069,49.7236,49.7149-49.7188,56.2207,56.2178,52.7803-52.7793h0l19.5478-28.9658-16.8301,6.6436Z"/>
          <g>
            <path class="cls-7" d="M580.872,254.4429l1.32718,1.3252,1.3799-1.3789a6.79473,6.79473,0,0,1-2.70708.0537Z"/>
            <path class="cls-7" d="M348.77049,84.8853a9.19183,9.19183,0,0,1-18.2847,1.3623c-.7617.7471-1.5366,1.5127-2.3374,2.3135-10.3218,10.3193-26.8203,26.3965-43.5166,42.5566a9.18464,9.18464,0,1,1-13.0679,12.6289c-4.04389,3.9043-8.0014,7.7217-11.7895,11.3682a9.32809,9.32809,0,1,1-5.9356,5.7139c-15.38379,14.8027-26.6606,25.5996-26.6606,25.5996s-.2974.2861-.8223.7363a9.17907,9.17907,0,1,1-16.7436,7.0762,20.74414,20.74414,0,0,1-12.3169-3.4951,9.04727,9.04727,0,0,1,.1118,1.1084,9.2102,9.2102,0,1,1-9.209-9.2071c.252,0,.4883.0537.73581.0733a51.50025,51.50025,0,0,1-2.93991-4.2637q-1.78485-2.8887-3.45609-5.7158a68.7994,68.7994,0,0,0-15.416,19.2363,9.15913,9.15913,0,0,1-2.87941,6.5508c-10.3715,28.8838,10.5562,53.5644,10.5562,53.5644l4.498-4.5a9.10287,9.10287,0,0,1,8.9014-11.4599,9.269,9.269,0,0,1,2.251.3076l10.0249-10.0244a9.19451,9.19451,0,1,1,10.5371-10.5371l1.8613-1.8614,27.5088,27.5088a9.19683,9.19683,0,1,1,12.1773,12.1768l3.0493,3.0498,14.8842-14.8867a9.23575,9.23575,0,0,1,5.045-5.045l11.9443-11.9423A9.19824,9.19824,0,1,1,300.291,212.0689l11.34179-11.3438a9.08083,9.08083,0,0,1-2.3457.3399,9.28764,9.28764,0,1,1,5.50491-1.8652l9.02189,9.0234a9.14779,9.14779,0,0,1,8.357,8.3545l28.6816,28.6816a9.20507,9.20507,0,1,1,18.2441,1.7324l26.3916-26.3896a9.14678,9.14678,0,0,1,11.837-11.8389l8.8671-8.8662a9.42911,9.42911,0,1,1,1.2911.5889l10.354,10.3564a9.20915,9.20915,0,1,1,13.0249,13.0225l12.7168,12.7197a9.171,9.171,0,0,1,6.0498,6.0469l6.63469,6.6377,5.8887-5.8906a9.21225,9.21225,0,0,1,7.0244-7.0244l11.084-11.084a9.18333,9.18333,0,1,1,12.5518-12.5508L525.413,200.1177a9.21649,9.21649,0,1,1,.73638-.3974l8.4795,8.4775c.1826-.0088.3545-.0547.54-.0547a9.21089,9.21089,0,0,1,9.2109,9.21c0,.1845-.0449.3593-.0556.54l28.5371,28.5371a9.11073,9.11073,0,0,1-.11128-1.0888,9.21089,9.21089,0,0,1,18.42178,0,9.10066,9.10066,0,0,1-.163,1.6181l26.3808-26.3789a9.09757,9.09757,0,0,1-.6152-3.2275,9.14154,9.14154,0,0,1,12.4365-8.5957l5.7686-5.7686,2.3652-3.5058a9.21043,9.21043,0,0,1,10.3037-15.2696l6.8789-10.1904-16.8301,6.6436-3.0986-27.4522s-19.54.2412-44.5068-10.6016a9.17083,9.17083,0,1,1-16.3047-8.4004c-2.7373-1.6464-5.49908-3.4169-8.2735-5.3583l-23.122-12.8184a9.15992,9.15992,0,0,1-15.85058-8.7852l-1.76962-.9814-15.125-3.7402a9.21043,9.21043,0,1,1-5.2753-1.3047L466.747,91.9205a9.10637,9.10637,0,0,1-5.875,2.1738,9.20457,9.20457,0,0,1-8.52051-5.7334l-12.5791-3.1123a9.19447,9.19447,0,1,1-17.4609-4.3164l-18.6397-4.6104a9.16665,9.16665,0,1,1-3.3442-.6494,8.70985,8.70985,0,0,1,1.2139.124l-41.5069-10.2656s-2.6167-3.1826-18.4048,10.3955A9.20252,9.20252,0,0,1,348.77049,84.8853ZM171.67619,226.564a9.21045,9.21045,0,1,1,9.209-9.2109A9.20988,9.20988,0,0,1,171.67619,226.564ZM339.559,129.1597a9.21,9.21,0,1,1-9.21091,9.2129A9.212,9.212,0,0,1,339.559,129.1597Zm30.49419,18.4199a9.21,9.21,0,1,1,9.209-9.207A9.20888,9.20888,0,0,1,370.05319,147.5796Zm13.7544,7.0811a9.209,9.209,0,1,1-9.2114,9.207A9.20766,9.20766,0,0,1,383.80759,154.6607Zm-21.2871,9.207a9.209,9.209,0,1,1-9.209-9.207A9.21012,9.21012,0,0,1,362.52049,163.8677ZM323.039,101.1724a9.21145,9.21145,0,1,1-9.21091,9.209A9.21046,9.21046,0,0,1,323.039,101.1724ZM232.22259,226.564a9.21045,9.21045,0,1,1,9.209-9.2109A9.21215,9.21215,0,0,1,232.22259,226.564Zm7.3086-34.7099a9.2102,9.2102,0,1,1,9.2114,9.2109A9.2082,9.2082,0,0,1,239.53119,191.8541Zm22.9639,34.7099a9.21045,9.21045,0,1,1,9.2065-9.2109A9.21215,9.21215,0,0,1,262.49509,226.564Zm16.5195-25.499a9.209,9.209,0,1,1,9.2095-9.2109A9.2089,9.2089,0,0,1,279.01459,201.065Zm13.7525-27.9863a9.209,9.209,0,1,1,9.20891-9.211A9.21225,9.21225,0,0,1,292.76709,173.0787Zm7.3085-34.7061a9.21025,9.21025,0,1,1,9.2115,9.207A9.2108,9.2108,0,0,1,300.07559,138.3726ZM323.039,173.0787a9.209,9.209,0,1,1,9.21139-9.211A9.21206,9.21206,0,0,1,323.039,173.0787Zm7.30909,18.7754a9.2112,9.2112,0,1,1,9.21091,9.2109A9.20809,9.20809,0,0,1,330.34809,191.8541Zm22.9634,34.7099a9.21045,9.21045,0,1,1,9.209-9.2109A9.2101,9.2101,0,0,1,353.31149,226.564Zm7.5327-34.7099a9.209,9.209,0,1,1,9.209,9.2109A9.20769,9.20769,0,0,1,360.84419,191.8541Zm22.9634,34.7099a9.21045,9.21045,0,1,1,9.209-9.2109A9.21087,9.21087,0,0,1,383.80759,226.564Zm16.52-25.499a9.209,9.209,0,1,1,9.2065-9.2109A9.209,9.209,0,0,1,400.32759,201.065Zm13.752-27.9863a9.209,9.209,0,1,1,9.207-9.211A9.21208,9.21208,0,0,1,414.07959,173.0787Zm30.27241,0a9.209,9.209,0,1,1,9.209-9.211A9.21217,9.21217,0,0,1,444.352,173.0787Zm7.30859,18.7754a9.20925,9.20925,0,1,1,9.21141,9.2109A9.2082,9.2082,0,0,1,451.66059,191.8541ZM465.413,163.8677a9.21,9.21,0,1,1,9.211,9.211A9.20687,9.20687,0,0,1,465.413,163.8677Zm9.211,62.6963a9.21045,9.21045,0,1,1,9.209-9.2109A9.21212,9.21212,0,0,1,474.624,226.564Zm16.52048-25.499a9.209,9.209,0,1,1,9.2109-9.2109A9.20944,9.20944,0,0,1,491.14448,201.065Zm51.333-9.2109a9.21,9.21,0,1,1,9.2109,9.2109A9.20777,9.20777,0,0,1,542.47748,191.8541Zm22.9629,34.7099a9.21045,9.21045,0,1,1,9.2119-9.2109A9.21236,9.21236,0,0,1,565.44038,226.564Zm30.2725,0a9.21045,9.21045,0,1,1,9.2109-9.2109A9.21182,9.21182,0,0,1,595.71288,226.564Zm30.2724-71.9033a9.209,9.209,0,1,1-9.2109,9.207A9.20485,9.20485,0,0,1,625.98528,154.6607Zm-13.7519,27.9863a9.209,9.209,0,1,1-9.212,9.2071A9.20841,9.20841,0,0,1,612.23338,182.647Zm-16.5205-27.9863a9.209,9.209,0,1,1-9.211,9.207A9.20654,9.20654,0,0,1,595.71288,154.6607Zm-13.752,27.9863a9.209,9.209,0,1,1-9.21088,9.2071A9.20963,9.20963,0,0,1,581.96088,182.647Zm-7.3086-18.7793a9.2114,9.2114,0,1,1-9.2119-9.207A9.21259,9.21259,0,0,1,574.65228,163.8677Zm-22.9639-34.708a9.21,9.21,0,1,1-9.2109,9.2129A9.20867,9.20867,0,0,1,551.68838,129.1597Zm-7.3086,34.708a9.21139,9.21139,0,1,1-9.2109-9.207A9.2136,9.2136,0,0,1,544.37978,163.8677ZM521.416,129.1597a9.21,9.21,0,1,1-9.211,9.2129A9.20868,9.20868,0,0,1,521.416,129.1597Zm-7.31252,34.708a9.209,9.209,0,1,1-9.2071-9.207A9.20971,9.20971,0,0,1,514.10348,163.8677Zm-22.959-34.708a9.21,9.21,0,1,1-9.2119,9.2129A9.21343,9.21343,0,0,1,491.14448,129.1597ZM474.624,101.1724a9.21145,9.21145,0,1,1-9.211,9.209A9.2097,9.2097,0,0,1,474.624,101.1724Zm-13.752,27.9873a9.21,9.21,0,1,1-9.21141,9.2129A9.20858,9.20858,0,0,1,460.872,129.1597Zm-16.52-27.9873a9.21145,9.21145,0,1,1-9.21141,9.209A9.21,9.21,0,0,1,444.352,101.1724Zm-13.75241,27.9873a9.21,9.21,0,1,1-9.211,9.2129A9.20978,9.20978,0,0,1,430.59959,129.1597Zm-16.52-27.9873a9.21145,9.21145,0,1,1-9.211,9.209A9.208,9.208,0,0,1,414.07959,101.1724Zm-13.752,27.9873a9.21,9.21,0,1,1-9.2114,9.2129A9.20813,9.20813,0,0,1,400.32759,129.1597Zm-7.311-18.7783a9.2102,9.2102,0,1,1-9.209-9.209A9.21356,9.21356,0,0,1,393.01659,110.3814Zm-22.9634-34.709a9.211,9.211,0,1,1-9.209,9.2129A9.209,9.209,0,0,1,370.05319,75.6724Zm-7.5327,34.709a9.209,9.209,0,1,1-9.209-9.209A9.21074,9.21074,0,0,1,362.52049,110.3814Z"/>
            <path class="cls-7" d="M370.84079,255.2476l.8633-.8623a9.55484,9.55484,0,0,1-1.5669.1611Z"/>
            <path class="cls-8" d="M460.872,94.0943a9.10637,9.10637,0,0,0,5.875-2.1738l-14.39551-3.5596A9.20457,9.20457,0,0,0,460.872,94.0943Z"/>
            <path class="cls-8" d="M430.59959,94.0943a9.19584,9.19584,0,0,0,9.1728-8.8457l-17.4609-4.3164a9.15592,9.15592,0,0,0,8.2881,13.1621Z"/>
            <path class="cls-8" d="M391.11619,84.8853a9.209,9.209,0,1,0,12.5556-8.5635l-2.1303-.5254a8.70985,8.70985,0,0,0-1.2139-.124A9.21072,9.21072,0,0,0,391.11619,84.8853Z"/>
            <path class="cls-8" d="M370.05319,94.0943a9.211,9.211,0,1,0-9.209-9.209A9.20937,9.20937,0,0,0,370.05319,94.0943Z"/>
            <path class="cls-8" d="M535.16888,119.5953a9.15726,9.15726,0,0,0,7.2227-3.5596L526.541,107.2505a9.13105,9.13105,0,0,0,8.62788,12.3448Z"/>
            <path class="cls-8" d="M495.68548,110.3814a9.20907,9.20907,0,1,0,13.9609-7.8525l-5.2753-1.3047A9.1863,9.1863,0,0,0,495.68548,110.3814Z"/>
            <path class="cls-8" d="M474.624,119.5953a9.21145,9.21145,0,1,0-9.211-9.2139A9.212,9.212,0,0,0,474.624,119.5953Z"/>
            <path class="cls-8" d="M444.352,119.5953a9.21145,9.21145,0,1,0-9.21141-9.2139A9.21228,9.21228,0,0,0,444.352,119.5953Z"/>
            <path class="cls-8" d="M414.07959,119.5953a9.21145,9.21145,0,1,0-9.211-9.2139A9.21031,9.21031,0,0,0,414.07959,119.5953Z"/>
            <path class="cls-8" d="M374.59619,110.3814a9.2102,9.2102,0,1,0,9.2114-9.209A9.21151,9.21151,0,0,0,374.59619,110.3814Z"/>
            <path class="cls-8" d="M581.96088,147.5796a9.17908,9.17908,0,0,0,8.1309-4.9668,139.69477,139.69477,0,0,1-16.3047-8.4004,9.0942,9.0942,0,0,0-1.03708,4.1602A9.21024,9.21024,0,0,0,581.96088,147.5796Z"/>
            <path class="cls-8" d="M551.68838,147.5796a9.21,9.21,0,1,0-9.2109-9.207A9.20734,9.20734,0,0,0,551.68838,147.5796Z"/>
            <path class="cls-8" d="M521.416,147.5796a9.21,9.21,0,1,0-9.211-9.207A9.20736,9.20736,0,0,0,521.416,147.5796Z"/>
            <path class="cls-8" d="M491.14448,147.5796a9.21,9.21,0,1,0-9.2119-9.207A9.21211,9.21211,0,0,0,491.14448,147.5796Z"/>
            <path class="cls-8" d="M460.872,147.5796a9.21,9.21,0,1,0-9.21141-9.207A9.20726,9.20726,0,0,0,460.872,147.5796Z"/>
            <path class="cls-8" d="M430.59959,147.5796a9.21,9.21,0,1,0-9.211-9.207A9.20845,9.20845,0,0,0,430.59959,147.5796Z"/>
            <path class="cls-8" d="M400.32759,147.5796a9.21,9.21,0,1,0-9.2114-9.207A9.2068,9.2068,0,0,0,400.32759,147.5796Z"/>
            <path class="cls-8" d="M370.05319,129.1597a9.21,9.21,0,1,0,9.209,9.2129A9.2102,9.2102,0,0,0,370.05319,129.1597Z"/>
            <path class="cls-8" d="M625.98528,173.0787a9.209,9.209,0,1,0-9.2109-9.211A9.21012,9.21012,0,0,0,625.98528,173.0787Z"/>
            <path class="cls-8" d="M595.71288,173.0787a9.209,9.209,0,1,0-9.211-9.211A9.2118,9.2118,0,0,0,595.71288,173.0787Z"/>
            <path class="cls-8" d="M556.22948,163.8677a9.2114,9.2114,0,1,0,9.2109-9.207A9.21238,9.21238,0,0,0,556.22948,163.8677Z"/>
            <path class="cls-8" d="M525.957,163.8677a9.21139,9.21139,0,1,0,9.21188-9.207A9.21259,9.21259,0,0,0,525.957,163.8677Z"/>
            <path class="cls-8" d="M495.68548,163.8677a9.209,9.209,0,1,0,9.2109-9.207A9.2118,9.2118,0,0,0,495.68548,163.8677Z"/>
            <path class="cls-8" d="M474.624,173.0787a9.209,9.209,0,1,0-9.211-9.211A9.21141,9.21141,0,0,0,474.624,173.0787Z"/>
            <path class="cls-8" d="M444.352,154.6607a9.209,9.209,0,1,0,9.209,9.207A9.2069,9.2069,0,0,0,444.352,154.6607Z"/>
            <path class="cls-8" d="M414.07959,154.6607a9.209,9.209,0,1,0,9.207,9.207A9.20681,9.20681,0,0,0,414.07959,154.6607Z"/>
            <path class="cls-8" d="M383.80759,173.0787a9.209,9.209,0,1,0-9.2114-9.211A9.21294,9.21294,0,0,0,383.80759,173.0787Z"/>
            <path class="cls-8" d="M633.29588,191.8541a9.1938,9.1938,0,0,0,4.0488,7.6289l10.3037-15.2696a9.21342,9.21342,0,0,0-14.3525,7.6407Z"/>
            <path class="cls-8" d="M612.23338,201.065a9.209,9.209,0,1,0-9.212-9.2109A9.20922,9.20922,0,0,0,612.23338,201.065Z"/>
            <path class="cls-8" d="M581.96088,201.065a9.209,9.209,0,1,0-9.21088-9.2109A9.21044,9.21044,0,0,0,581.96088,201.065Z"/>
            <path class="cls-8" d="M560.89738,191.8541a9.21,9.21,0,1,0-9.209,9.2109A9.20615,9.20615,0,0,0,560.89738,191.8541Z"/>
            <path class="cls-8" d="M530.625,191.8541a9.30356,9.30356,0,1,0-5.212,8.2636l.56548-.5674.1709.17A9.17975,9.17975,0,0,0,530.625,191.8541Z"/>
            <path class="cls-8" d="M491.14448,182.647a9.209,9.209,0,1,0,9.2109,9.2071A9.20863,9.20863,0,0,0,491.14448,182.647Z"/>
            <path class="cls-8" d="M470.07909,191.8541a9.20925,9.20925,0,1,0-9.20709,9.2109A9.20606,9.20606,0,0,0,470.07909,191.8541Z"/>
            <path class="cls-8" d="M439.80659,191.8541a9.20911,9.20911,0,1,0-13.6143,8.0429l.3506-.3515.9405.9404a9.11061,9.11061,0,0,0,3.1162.5791A9.20807,9.20807,0,0,0,439.80659,191.8541Z"/>
            <path class="cls-8" d="M400.32759,182.647a9.209,9.209,0,1,0,9.2065,9.2071A9.2082,9.2082,0,0,0,400.32759,182.647Z"/>
            <path class="cls-8" d="M379.26219,191.8541a9.209,9.209,0,1,0-9.209,9.2109A9.20647,9.20647,0,0,0,379.26219,191.8541Z"/>
            <path class="cls-8" d="M616.77438,217.3531a9.09757,9.09757,0,0,0,.6152,3.2275l11.8213-11.8232a9.14154,9.14154,0,0,0-12.4365,8.5957Z"/>
            <path class="cls-8" d="M595.71288,208.1431a9.21045,9.21045,0,1,0,9.2109,9.21A9.20913,9.20913,0,0,0,595.71288,208.1431Z"/>
            <path class="cls-8" d="M565.44038,208.1431a9.21045,9.21045,0,1,0,9.2119,9.21A9.20967,9.20967,0,0,0,565.44038,208.1431Z"/>
            <path class="cls-8" d="M535.16888,208.1431c-.1855,0-.3574.0459-.54.0547l9.6953,9.6953c.0107-.1807.0556-.3555.0556-.54A9.21089,9.21089,0,0,0,535.16888,208.1431Z"/>
            <path class="cls-8" d="M504.89638,208.1431a9.18347,9.18347,0,0,0-4.6357,17.127l12.5518-12.5508A9.17356,9.17356,0,0,0,504.89638,208.1431Z"/>
            <path class="cls-8" d="M474.624,208.1431a9.21045,9.21045,0,1,0,9.209,9.21A9.20943,9.20943,0,0,0,474.624,208.1431Z"/>
            <path class="cls-8" d="M453.561,217.3531a9.20965,9.20965,0,0,0-15.72361-6.5108l13.0249,13.0225A9.17128,9.17128,0,0,0,453.561,217.3531Z"/>
            <path class="cls-8" d="M404.86859,217.3531a9.1778,9.1778,0,0,0,.6196,3.249l11.837-11.8389a9.1459,9.1459,0,0,0-12.4566,8.5899Z"/>
            <path class="cls-8" d="M383.80759,208.1431a9.21045,9.21045,0,1,0,9.209,9.21A9.20818,9.20818,0,0,0,383.80759,208.1431Z"/>
            <path class="cls-8" d="M581.96088,236.1324a9.20945,9.20945,0,0,0-9.21088,9.209,9.11073,9.11073,0,0,0,.11128,1.0888l8.01072,8.0127a6.79473,6.79473,0,0,0,2.70708-.0537l7.4297-7.4297a9.10066,9.10066,0,0,0,.163-1.6181A9.21,9.21,0,0,0,581.96088,236.1324Z"/>
            <path class="cls-8" d="M482.15228,243.3785l7.0244-7.0244A9.21225,9.21225,0,0,0,482.15228,243.3785Z"/>
            <path class="cls-8" d="M463.57909,236.5845l6.0498,6.0469A9.171,9.171,0,0,0,463.57909,236.5845Z"/>
            <path class="cls-8" d="M370.05319,236.1324a9.20326,9.20326,0,0,0-9.2007,9.1269l9.2847,9.2871a9.55484,9.55484,0,0,0,1.5669-.1611l7.3925-7.3936a9.127,9.127,0,0,0-9.0434-10.8593Z"/>
            <path class="cls-8" d="M339.559,94.0943a9.2008,9.2008,0,0,0,2.07079-18.168c-3.1596,2.7158-6.8461,6.1035-11.144,10.3213A9.18733,9.18733,0,0,0,339.559,94.0943Z"/>
            <path class="cls-8" d="M344.10249,110.3814a9.209,9.209,0,1,0,9.209-9.209A9.21074,9.21074,0,0,0,344.10249,110.3814Z"/>
            <path class="cls-8" d="M323.039,119.5953a9.21145,9.21145,0,1,0-9.21091-9.2139A9.21278,9.21278,0,0,0,323.039,119.5953Z"/>
            <path class="cls-8" d="M339.559,147.5796a9.21,9.21,0,1,0-9.21091-9.207A9.21069,9.21069,0,0,0,339.559,147.5796Z"/>
            <path class="cls-8" d="M318.49609,138.3726a9.21025,9.21025,0,1,0-9.209,9.207A9.20866,9.20866,0,0,0,318.49609,138.3726Z"/>
            <path class="cls-8" d="M279.01459,147.5796a9.17891,9.17891,0,0,0,5.6172-16.4619c-4.3794,4.2383-8.77,8.4815-13.0679,12.6289A9.17993,9.17993,0,0,0,279.01459,147.5796Z"/>
            <path class="cls-8" d="M353.31149,154.6607a9.209,9.209,0,1,0,9.209,9.207A9.20485,9.20485,0,0,0,353.31149,154.6607Z"/>
            <path class="cls-8" d="M323.039,154.6607a9.209,9.209,0,1,0,9.21139,9.207A9.20679,9.20679,0,0,0,323.039,154.6607Z"/>
            <path class="cls-8" d="M292.76709,154.6607a9.209,9.209,0,1,0,9.20891,9.207A9.207,9.207,0,0,0,292.76709,154.6607Z"/>
            <path class="cls-8" d="M262.49509,173.0787a9.21,9.21,0,1,0-2.7207-17.9639c-2.0337,1.958-4.0156,3.8691-5.9356,5.7139a9.11493,9.11493,0,0,0-.5551,3.039A9.21217,9.21217,0,0,0,262.49509,173.0787Z"/>
            <path class="cls-8" d="M348.77049,191.8541a9.2112,9.2112,0,1,0-9.21149,9.2109A9.20949,9.20949,0,0,0,348.77049,191.8541Z"/>
            <path class="cls-8" d="M318.49609,191.8541a9.21025,9.21025,0,1,0-9.209,9.2109,9.08083,9.08083,0,0,0,2.3457-.3399l2.3418-2.3418.81741.8165A9.16771,9.16771,0,0,0,318.49609,191.8541Z"/>
            <path class="cls-8" d="M279.01459,182.647a9.209,9.209,0,1,0,9.2095,9.2071A9.20809,9.20809,0,0,0,279.01459,182.647Z"/>
            <path class="cls-8" d="M257.95159,191.8541a9.2102,9.2102,0,1,0-9.209,9.2109A9.20769,9.20769,0,0,0,257.95159,191.8541Z"/>
            <path class="cls-8" d="M218.46819,201.065a9.16083,9.16083,0,0,0,7.8877-13.9004c-2.206,1.8789-8.6841,6.751-16.7436,7.0762A9.18113,9.18113,0,0,0,218.46819,201.065Z"/>
            <path class="cls-8" d="M178.98679,191.8541a9.2102,9.2102,0,1,0,18.4204,0,9.04727,9.04727,0,0,0-.1118-1.1084,33.48026,33.48026,0,0,1-8.36139-8.0254c-.24751-.0196-.48381-.0733-.73581-.0733A9.2082,9.2082,0,0,0,178.98679,191.8541Z"/>
            <path class="cls-8" d="M167.122,191.9771a52.44723,52.44723,0,0,0-2.87941,6.5508A9.15913,9.15913,0,0,0,167.122,191.9771Z"/>
            <path class="cls-8" d="M353.31149,208.1431a9.21045,9.21045,0,1,0,9.209,9.21A9.20741,9.20741,0,0,0,353.31149,208.1431Z"/>
            <path class="cls-8" d="M323.81389,208.2232l8.357,8.3545A9.14779,9.14779,0,0,0,323.81389,208.2232Z"/>
            <path class="cls-8" d="M292.76709,208.1431a9.19823,9.19823,0,0,0-5.2857,16.7354L300.291,212.0689A9.17987,9.17987,0,0,0,292.76709,208.1431Z"/>
            <path class="cls-8" d="M262.49509,208.1431a9.21045,9.21045,0,1,0,9.2065,9.21A9.20946,9.20946,0,0,0,262.49509,208.1431Z"/>
            <path class="cls-8" d="M232.22259,208.1431a9.21045,9.21045,0,1,0,9.209,9.21A9.20946,9.20946,0,0,0,232.22259,208.1431Z"/>
            <path class="cls-8" d="M201.94819,208.1431a9.19456,9.19456,0,0,0-1.4741,18.2725l10.5371-10.5371A9.19073,9.19073,0,0,0,201.94819,208.1431Z"/>
            <path class="cls-8" d="M171.67619,208.1431a9.21045,9.21045,0,1,0,9.209,9.21A9.2072,9.2072,0,0,0,171.67619,208.1431Z"/>
            <path class="cls-8" d="M270.49209,241.8658l5.045-5.045A9.23575,9.23575,0,0,0,270.49209,241.8658Z"/>
            <path class="cls-8" d="M257.95159,245.3414a9.19678,9.19678,0,0,0-17.5703-3.8155l12.1773,12.1768A9.19669,9.19669,0,0,0,257.95159,245.3414Z"/>
            <path class="cls-8" d="M178.98679,245.3414a9.12123,9.12123,0,0,0,.31,2.2509l11.1524-11.1523a9.11318,9.11318,0,0,0-11.4624,8.9014Z"/>
          </g>
          <path class="cls-9" d="M642.92278,181.6958a6.21914,6.21914,0,0,1-6.2197,6.2198h0a6.22036,6.22036,0,0,1-6.2197-6.2198V150.9302a6.222,6.222,0,0,1,6.2197-6.2217h0a6.22083,6.22083,0,0,1,6.2197,6.2217Z"/>
          <path class="cls-9" d="M640,186.7232a6.21837,6.21837,0,0,1-8.62112-1.7344h0a6.22442,6.22442,0,0,1,1.7343-8.6279L651.499,163.94a6.21843,6.21843,0,0,1,8.624,1.7412h0a6.21547,6.21547,0,0,1-1.73922,8.6201Z"/>
          <path class="cls-9" d="M549.913,147.6099a18.71386,18.71386,0,1,1-18.71282-18.7148A18.71379,18.71379,0,0,1,549.913,147.6099Z"/>
          <path d="M544.90038,147.608a13.70069,13.70069,0,1,1-13.7002-13.7032A13.69979,13.69979,0,0,1,544.90038,147.608Z"/>
          <path class="cls-10" d="M535.999,144.9888a4.27636,4.27636,0,1,1-4.27352-4.2783A4.27581,4.27581,0,0,1,535.999,144.9888Z"/>
          <line class="cls-2" x1="188.706" y1="173.0396" x2="234.93839" y2="178.9888"/>
          <path class="cls-1" d="M507.22458,217.1724l-57.56109-30.998s-34.5854,60.833,17.626,98.0283l43.32079-39.1631S500.11908,229.857,507.22458,217.1724Z"/>
          <line class="cls-2" x1="444.89639" y1="197.6714" x2="505.73138" y2="219.8013"/>
          <line class="cls-2" x1="441.21819" y1="209.9517" x2="504.664" y2="222.8023"/>
          <line class="cls-2" x1="439.40429" y1="222.647" x2="504.05658" y2="225.9263"/>
          <line class="cls-2" x1="439.49649" y1="235.4654" x2="503.91888" y2="229.108"/>
          <line class="cls-2" x1="441.49169" y1="248.1285" x2="504.25478" y2="232.2759"/>
          <line class="cls-2" x1="445.34419" y1="260.355" x2="505.05948" y2="235.358"/>
          <line class="cls-2" x1="450.97209" y1="271.8755" x2="506.31048" y2="238.2847"/>
          <line class="cls-2" x1="458.24609" y1="282.4322" x2="507.98238" y2="240.9917"/>
          <g>
            <path class="cls-7" d="M93.498,335.4996c-26.123-30.2979-40.5088-71.7598-40.5088-116.7354A186.74694,186.74694,0,0,1,91.22309,104.9673l.8052-.8652c.355-.3418,10.5088-10.4854-5.1524-33.1992l1.3086-.9024C46.8735,45.438,0,30.9888,0,30.9888S93.43989,66.8589,39.413,140.813c-54.0273,73.9532-40.7412,107.6172-3.9868,152.7842,36.7559,45.169,22.585,64.6524,22.585,64.6524s18.0308,2.8779,40.9648-5.1475C101.89989,345.2935,98.65669,341.4849,93.498,335.4996Z"/>
            <path class="cls-7" d="M162.77239,139.4488a192.37741,192.37741,0,0,0-19.8061-25.333,143.44968,143.44968,0,0,0,.0805,209.3789,135.52363,135.52363,0,0,0,13.2779-17.0576c2.0459-3.0997,4.0151-6.0225,5.94431-8.8409a111.55733,111.55733,0,0,1,.50339-158.1474Z"/>
            <path class="cls-7" d="M85.79629,218.7642a155.16526,155.16526,0,0,1,48.897-113.0976c-5.7632-5.5938-12.3115-11.4043-19.9956-17.5528-3.0278-2.4219-6.1875-4.7734-9.42869-7.0654,6.08979,18.4433-2.49221,28.9658-4.87351,31.4043A175.00572,175.00572,0,0,0,64.8203,218.7642c0,42.1416,13.36619,80.8565,37.63909,109.0088,5.8057,6.7344,9.3492,12.7178,9.3833,19.8105a107.78778,107.78778,0,0,0,22.7989-15.7646A155.17027,155.17027,0,0,1,85.79629,218.7642Z"/>
            <path class="cls-11" d="M169.22459,149.7837c-2.0464-3.4375-4.1763-6.8701-6.4522-10.3349a111.55733,111.55733,0,0,0-.50339,158.1474q3.591-5.25,6.93309-9.8593a99.6588,99.6588,0,0,1,.0225-137.9532Z"/>
            <path class="cls-11" d="M97.62789,218.7642a143.35278,143.35278,0,0,1,45.3384-104.6484q-3.83055-4.13535-8.273-8.4492a155.25117,155.25117,0,0,0-.0517,226.1523q4.24365-3.8028,8.4052-8.3242A143.37878,143.37878,0,0,1,97.62789,218.7642Z"/>
            <path class="cls-11" d="M64.8203,218.7642a175.00572,175.00572,0,0,1,35.57519-106.3115c2.3813-2.4385,10.9633-12.961,4.87351-31.4043-5.48341-3.874-11.22661-7.5654-17.08451-11.0479l-1.3086.9024c15.6612,22.7138,5.5074,32.8574,5.1524,33.1992l-.8052.8652A186.74694,186.74694,0,0,0,52.9892,218.7642c0,44.9756,14.3858,86.4375,40.5088,116.7354,5.15869,5.9853,8.40189,9.7939,5.478,17.6025a102.41089,102.41089,0,0,0,12.86669-5.5186c-.0341-7.0927-3.5776-13.0761-9.3833-19.8105C78.18649,299.6207,64.8203,260.9058,64.8203,218.7642Z"/>
          </g>
        </g>
        <path class="cls-9" d="M573.52628,265.9117a1.62723,1.62723,0,0,1,0,2.3076h0a1.63262,1.63262,0,0,1-2.3047,0l-42.9101-42.9121a1.63032,1.63032,0,0,1,0-2.3028h0a1.6344,1.6344,0,0,1,2.3076-.0019Z"/>
      </g>
    </g>
  </g>
</svg>
