<svg xmlns="http://www.w3.org/2000/svg" width="61.3201" height="46.6598" viewBox="0 0 61.3201 46.6598">
  <defs>
    <style>
      .cls-1 {
        fill: #b69162;
      }
    </style>
  </defs>
  <g id="图层_2" data-name="图层 2">
    <g id="Layer_1" data-name="Layer 1">
      <path class="cls-1" d="M61.3201,23.5791l-5.3644,3.4265-5.3644,3.4233L46.8926,28.068a18.79741,18.79741,0,0,1-6.5415,6.7252,18.415,18.415,0,0,1-1.774.9509c-.1344.0623-.2688.1246-.4033.1836a18.66258,18.66258,0,0,1-6.1251,1.5214v6.3907c-.8984.9641-1.8264,1.9084-2.7773,2.82V37.4491a18.5741,18.5741,0,0,1-9.7517-3.6363,18.19371,18.19371,0,0,1-2.269-1.9904,18.7518,18.7518,0,0,1-2.82649-3.7544L10.7288,30.4289,7.5285,28.386l-1.446-.9214-.7181-.459L0,23.5791H12.588a17.48922,17.48922,0,0,1-.4099-2.0035l-.2066.1312L9.0401,19.8345l-2.4297-1.551L1.69521,15.1423,1.246,14.857H12.3978c.0656-.305.1377-.6066.2197-.905.0623-.2459.1344-.4886.2098-.7312h5.6858V0l.29511,1.1279.50169,1.9117L20.9428,9.286l.541-2.0657.3542-1.3575.8066-3.0954L23.3299.1541,23.3693,0l.2131.8132.0033.0098.941,3.6003L25.799,9.286,28.2287,0l2.4297,9.286L33.0881,0l2.4297,9.286L37.9476,0l2.4297,9.286L42.807,0V13.2208h5.6857c.0984.3181.1902.6394.2722.9673q.08355.3345.1574.6689H60.0741l-5.3644,3.4265-5.3644,3.4233-.2033-.1312a19.02669,19.02669,0,0,1-.4099,2.0035Z"/>
    </g>
  </g>
</svg>
