<svg xmlns="http://www.w3.org/2000/svg" width="61.3201" height="52.998" viewBox="0 0 61.3201 52.998">
  <defs>
    <style>
      .cls-1 {
        fill: #b69162;
      }
    </style>
  </defs>
  <g id="图层_2" data-name="图层 2">
    <g id="Layer_1" data-name="Layer 1">
      <path class="cls-1" d="M61.3201,23.5791l-5.3644,3.4265-4.9382,3.1511-.4262.2722L46.8926,28.068a18.862,18.862,0,0,1-2.8232,3.7544,18.64332,18.64332,0,0,1-12.0208,5.6267V52.998q-1.41645-1.0329-2.7772-2.1346V37.4491A18.68611,18.68611,0,0,1,14.42421,28.068L11.5485,29.9042l-.8198.5247L5.3644,27.0056,0,23.5791H12.5879a17.489,17.489,0,0,1-.4098-2.0035l-.2066.1312L6.6104,18.2835l-.387-.2459L1.246,14.857H12.3978c.118-.5541.259-1.1017.4295-1.6362H18.513V0l2.4298,9.286L23.36921,0,25.7989,9.286,28.2287,0l2.4297,9.286L33.0881,0l2.4297,9.286L37.9475,0l2.42971,9.286L42.807,0V13.2208h5.6857c.1672.5345.3083,1.0821.42951,1.6362H60.074l-.5344.341-3.7315,2.3838-1.0984.7017-2.4298,1.551-1.3148.8394-1.61989,1.0329-.20331-.1312a19.00115,19.00115,0,0,1-.4098,2.0035Z"/>
    </g>
  </g>
</svg>
