<svg xmlns="http://www.w3.org/2000/svg" width="117.0876" height="150.36839" viewBox="0 0 117.0876 150.36839">
  <defs>
    <style>
      .cls-1 {
        fill: #111312;
      }

      .cls-2 {
        fill: #4b3d17;
      }

      .cls-3 {
        fill: #9c7438;
      }

      .cls-4 {
        fill: #cfba9f;
      }

      .cls-5 {
        fill: #b69162;
      }

      .cls-6 {
        fill: #cd5917;
      }

      .cls-7 {
        fill: #e5e5e5;
      }

      .cls-8 {
        fill: #174449;
      }
    </style>
  </defs>
  <g id="图层_2" data-name="图层 2">
    <g id="Layer_1" data-name="Layer 1">
      <g>
        <rect class="cls-1" x="40.11077" y="79.99458" width="2.37765" height="25.30518" transform="translate(39.90928 -8.77877) rotate(23.24067)"/>
        <path class="cls-1" d="M19.8569.51259s3.61221,1.1039,4.8403,9.9352l5.0493,3.3033S29.7105,1.87129,19.8569.51259Z"/>
        <polygon class="cls-2" points="106.898 134.681 110.719 148.183 70.15 87.078 69.959 86.788 70.198 86.594 72.922 84.391 77.81 80.432 117.088 141.814 106.898 134.681"/>
        <polygon class="cls-3" points="106.898 134.681 110.719 148.183 70.15 87.078 70.198 86.594 70.692 81.492 72.922 84.391 117.088 141.814 106.898 134.681"/>
        <path class="cls-4" d="M86.6857,97.48739,36.2172,82.69409c-.4382-.0994-.8738-.2063-1.3069-.3235a36.56853,36.56853,0,0,1-16.2301-9.2092.13006.13006,0,0,1-.0204-.0179c-.2063-.1987-.4076-.4025-.6088-.6088l-.0026-.0051c-.2216-.2293-.4407-.4611-.6572-.698-.0637-.0714-.13-.1427-.1936-.214-.1554-.1733-.3108-.3465-.4611-.5197-.0663-.0764-.1325-.1529-.1962-.2293-.1834-.214-.3643-.428-.5401-.6471-.0254-.0305-.0509-.0586-.0738-.0891-.1987-.2471-.3949-.4968-.586-.7464-.0586-.0765-.1146-.1529-.1706-.2293-.1402-.1834-.2752-.3694-.4102-.5554-.0611-.084-.1223-.1706-.1834-.2547l-.0153-.023c-.1376-.1961-.2751-.3948-.4101-.5935l-.00769-.0127c-.03571-.0561-.07391-.1096-.10951-.1631-.1758-.2624-.3439-.5248-.50949-.7897-.051-.0815-.09941-.1631-.15031-.2446-.0994-.1579-.1936-.3159-.2879-.4764-.0229-.0331-.0433-.0687-.0637-.1044l-.16809-.2904c-.01531-.028-.03061-.0535-.04591-.0815-.0993-.1733-.1987-.3516-.2955-.5274-.0433-.0764-.08659-.1528-.1274-.2318-.14519-.27-.2878-.5452-.4279-.8203l-.13-.2675c-.09929-.1961-.1961-.3949-.2878-.5961-.051-.1095-.1019-.2191-.1503-.3286-.08919-.1936-.1758-.3898-.2599-.5834-.04329-.1019-.0892-.2013-.1299-.3032-.1172-.2776-.2318-.5579-.34139-.8406-.03821-.0994-.07381-.1987-.11211-.2981-.0764-.1987-.1503-.3999-.2216-.6012-.04329-.1223-.0866-.2446-.1299-.3694-.0637-.186-.12739-.377-.1885-.5655-.0383-.1198-.0765-.237-.1147-.3541-.0891-.2879-.1758-.5783-.2573-.8662-.0051-.0204-.0102-.0382-.0153-.056v-.0026a33.19089,33.19089,0,0,1-.8687-4.0938,32.70117,32.70117,0,0,1-.3464-4.0811c-.0077-.2624-.0102-.5248-.0102-.7897a33.6693,33.6693,0,0,1,9.23471-23.1008l1.97429-11.5452h9.5073l1.7017-12.3045,5.26571,1.149c.30059,0,.60119.0076.89919.0203A19.491,19.491,0,0,1,52.888,32.53889l21.1366,40.6174Z"/>
        <path class="cls-5" d="M30.1319,17.75069h0a14.60724,14.60724,0,0,0,12.6984,7.3877H50.636l-10.19-14.5207H29.7465Z"/>
        <path class="cls-5" d="M74.5825,77.36219l-39.6722,5.0084a36.56853,36.56853,0,0,1-16.2301-9.2092.13006.13006,0,0,1-.0204-.0179c-.2063-.1987-.4076-.4025-.6088-.6088l-.0026-.0051c-.2216-.2293-.4407-.4611-.6572-.698-.0637-.0714-.13-.1427-.1936-.214-.1554-.1733-.3108-.3465-.4611-.5197-.0663-.0764-.1325-.1529-.1962-.2293-.1834-.214-.3643-.428-.5401-.6471-.0254-.0305-.0509-.0586-.0738-.0891-.1987-.2471-.3949-.4968-.586-.7464-.0586-.0765-.1146-.1529-.1706-.2293-.1402-.1834-.2752-.3694-.4102-.5554-.0611-.084-.1223-.1706-.1834-.2547l-.0153-.023c-.1376-.1961-.2751-.3948-.4101-.5935l-.00769-.0127c-.03571-.0561-.07391-.1096-.10951-.1631-.1758-.2624-.3439-.5248-.50949-.7897-.051-.0815-.09941-.1631-.15031-.2446-.0994-.1579-.1936-.3159-.2879-.4764-.0229-.0331-.0433-.0687-.0637-.1044l-.16809-.2904c-.01531-.028-.03061-.0535-.04591-.0815-.0993-.1733-.1987-.3516-.2955-.5274-.0433-.0764-.08659-.1528-.1274-.2318-.14519-.27-.2878-.5452-.4279-.8203l-.13-.2675c-.09929-.1987-.1936-.3949-.2878-.5961-.051-.1095-.1019-.2191-.1503-.3286-.08919-.1936-.1758-.3898-.2599-.5834-.04329-.1019-.0892-.2013-.1299-.3032-.1172-.2776-.2318-.5579-.34139-.8406-.03821-.0994-.07381-.1987-.11211-.2981-.0764-.1987-.1503-.3999-.2216-.6012-.04329-.1223-.0866-.2446-.1299-.3694-.0637-.186-.12739-.377-.1885-.5655-.0383-.1198-.0765-.237-.1147-.3541-.0891-.2879-.1758-.5783-.2573-.8662-.0051-.0204-.0102-.0382-.0153-.056v-.0026a33.19089,33.19089,0,0,1-.8687-4.0938,32.70117,32.70117,0,0,1-.3464-4.0811c-.0077-.2624-.0102-.5248-.0102-.7897a33.6693,33.6693,0,0,1,9.23471-23.1008l1.97429-11.5452H26.473l3.6582,3.406v3.327a46.16869,46.16869,0,0,0,5.94591,22.6575Z"/>
        <path class="cls-2" d="M86.6857,97.48739,36.2172,82.69409a36.63561,36.63561,0,0,1-17.537-9.5327c2.6927,2.364,14.8188,10.0779,51.5716.889q1.96035-.48915,3.7728-.8941Z"/>
        <path class="cls-6" d="M37.5256,12.40089l6.324,9.0296a4.20308,4.20308,0,0,0,5.854,1.0316l-7.04649-10.0612Z"/>
        <path class="cls-7" d="M25.4173,25.88989H17.62811l1.97429-11.5452H26.473l3.6582,3.406v3.3754A4.72967,4.72967,0,0,1,25.4173,25.88989Z"/>
        <g>
          <path class="cls-4" d="M21.2455,43.15769a4.74854,4.74854,0,0,1-9.492,0Z"/>
          <polygon class="cls-3" points="17.913 43.158 16.499 45.608 15.086 43.158 17.913 43.158"/>
        </g>
        <g>
          <path class="cls-4" d="M26.5953,49.78119a4.74854,4.74854,0,0,1-9.492,0Z"/>
          <polygon class="cls-3" points="23.263 49.781 21.849 52.232 20.435 49.781 23.263 49.781"/>
        </g>
        <g>
          <path class="cls-4" d="M24.9063,61.298a3.05864,3.05864,0,0,1-6.114,0Z"/>
          <polygon class="cls-3" points="22.76 61.298 21.849 62.876 20.939 61.298 22.76 61.298"/>
        </g>
        <g>
          <path class="cls-4" d="M24.9063,38.37049a3.05864,3.05864,0,0,1-6.114,0Z"/>
          <polygon class="cls-3" points="22.76 38.37 21.849 39.949 20.939 38.37 22.76 38.37"/>
        </g>
        <g>
          <path class="cls-4" d="M38.5685,49.78119a4.74854,4.74854,0,0,1-9.492,0Z"/>
          <polygon class="cls-3" points="35.236 49.781 33.822 52.232 32.409 49.781 35.236 49.781"/>
        </g>
        <g>
          <path class="cls-4" d="M15.641,49.78039a4.74867,4.74867,0,0,1-6.891,4.0811,32.70117,32.70117,0,0,1-.3464-4.0811Z"/>
          <polygon class="cls-3" points="12.309 49.781 10.895 52.232 9.481 49.781 12.309 49.781"/>
        </g>
        <g>
          <path class="cls-4" d="M32.7093,43.15769a4.74854,4.74854,0,0,1-9.492,0Z"/>
          <polygon class="cls-3" points="29.377 43.158 27.963 45.608 26.549 43.158 29.377 43.158"/>
        </g>
        <g>
          <path class="cls-4" d="M21.2455,56.40469a4.74854,4.74854,0,0,1-9.492,0Z"/>
          <polygon class="cls-3" points="17.913 56.405 16.499 58.855 15.086 56.405 17.913 56.405"/>
        </g>
        <g>
          <path class="cls-4" d="M32.7093,56.40469a4.74854,4.74854,0,0,1-9.492,0Z"/>
          <polygon class="cls-3" points="29.377 56.405 27.963 58.855 26.549 56.405 29.377 56.405"/>
        </g>
        <path class="cls-6" d="M19.6022,14.34409s-3.7363-.5845-4.9252-3.8963H24.6972l4.4157,1.9482A16.45379,16.45379,0,0,0,19.8569.51259a13.79418,13.79418,0,0,1,10.9543,1.5285l-.6793,15.7096h0a10.90776,10.90776,0,0,0-7.9192-3.4066Z"/>
        <path class="cls-7" d="M42.5085,11.159a3.21625,3.21625,0,1,1-3.2163-3.2162A3.21623,3.21623,0,0,1,42.5085,11.159Z"/>
        <path class="cls-1" d="M41.9034,11.159a2.61115,2.61115,0,1,1-2.6112-2.6112A2.61117,2.61117,0,0,1,41.9034,11.159Z"/>
        <polygon class="cls-5" points="59.394 89.487 72.477 82.764 88.47 104.95 59.394 89.487"/>
        <path class="cls-3" d="M36.076,43.73519l50.6104,44.5812s-10.2076-31.7842-28.7531-46.08Z"/>
        <path class="cls-7" d="M79.9417,72.01239c-.7628-1.5666-1.5879-3.1888-2.475-4.8402H62.6826l5.4949,4.8402Z"/>
        <path class="cls-7" d="M72.1603,58.25589c-1.2018-1.8179-2.47219-3.6134-3.8151-5.3497H46.4873l6.0733,5.3497Z"/>
        <path class="cls-1" d="M64.9504,48.83019a53.16477,53.16477,0,0,0-7.0171-6.5938L36.076,43.73519l5.78411,5.095Z"/>
        <rect class="cls-1" x="63.41917" y="79.99458" width="2.37765" height="25.30518" transform="translate(41.80063 -17.97614) rotate(23.24067)"/>
        <g>
          <path class="cls-2" d="M44.0557,125.65479v24.635q-1.68225.0786-3.384.0786c-.1442,0-.2918,0-.436-.0032v-24.7104Z"/>
          <g>
            <polygon class="cls-6" points="55.503 95.623 52.163 82.859 48.823 95.623 45.483 82.859 42.143 95.623 38.804 82.859 35.465 95.623 32.125 82.859 28.786 95.623 25.447 82.859 25.447 101.366 58.843 101.366 58.843 82.859 55.503 95.623"/>
            <path class="cls-2" d="M17.632,101.02929a25.68636,25.68636,0,1,0,49.0265,0Z"/>
            <polygon class="cls-8" points="42.145 107.222 34.772 102.515 27.398 97.809 42.145 97.809 56.892 97.809 49.519 102.515 42.145 107.222"/>
            <g>
              <polygon class="cls-8" points="14.747 124.683 7.374 119.976 0 115.269 14.747 115.269 29.494 115.269 22.121 119.976 14.747 124.683"/>
              <polygon class="cls-8" points="69.543 124.683 62.17 119.976 54.796 115.269 69.543 115.269 84.29 115.269 76.917 119.976 69.543 124.683"/>
            </g>
            <g>
              <polygon class="cls-8" points="16.459 112.695 9.085 107.988 1.712 103.281 16.459 103.281 31.206 103.281 23.833 107.988 16.459 112.695"/>
              <polygon class="cls-8" points="67.832 112.695 60.458 107.988 53.084 103.281 67.832 103.281 82.579 103.281 75.205 107.988 67.832 112.695"/>
            </g>
            <g>
              <polygon class="cls-8" points="42.145 120.542 34.772 115.835 27.398 111.128 42.145 111.128 56.892 111.128 49.519 115.835 42.145 120.542"/>
              <polygon class="cls-8" points="42.145 133.862 34.772 129.155 27.398 124.448 42.145 124.448 56.892 124.448 49.519 129.155 42.145 133.862"/>
            </g>
          </g>
        </g>
        <path class="cls-6" d="M55.5655,22.68009a19.39441,19.39441,0,0,1-2.6775,9.8588,9.92225,9.92225,0,0,1-1.2966-6.491c1.3119-9.3366-4.8068-15.0274-8.41029-17.5171a54.64343,54.64343,0,0,1-6.23921-4.9879l-.0624-.0582.0968-.2752A19.4903,19.4903,0,0,1,55.5655,22.68009Z"/>
        <path class="cls-6" d="M36.076,43.73519v-13.247s13.6148.8237,21.8573,11.7482Z"/>
        <g>
          <polygon class="cls-8" points="23.804 125.655 5.463 145.907 32.593 131.769 23.804 125.655"/>
          <polygon class="cls-8" points="60.486 125.655 78.827 145.907 51.698 131.769 60.486 125.655"/>
        </g>
        <rect class="cls-1" x="64.90208" y="39.50424" width="0.76414" height="51.7694" transform="translate(-26.99361 70.13756) rotate(-47.99179)"/>
        <rect class="cls-1" x="66.47311" y="41.55775" width="0.76407" height="38.83099" transform="translate(-23.24294 69.32081) rotate(-47.65878)"/>
        <rect class="cls-1" x="67.15229" y="44.86256" width="0.76443" height="21.86167" transform="translate(-19.46799 66.00995) rotate(-46.25917)"/>
      </g>
    </g>
  </g>
</svg>
