<svg xmlns="http://www.w3.org/2000/svg" width="188.23509" height="182.86896" viewBox="0 0 188.23509 182.86896">
  <defs>
    <style>
      .cls-1 {
        fill: #111312;
      }

      .cls-2 {
        fill: #4b3d17;
      }

      .cls-3 {
        fill: #33290f;
      }

      .cls-4 {
        fill: #cd5917;
      }

      .cls-5 {
        fill: #cfba9f;
      }

      .cls-6 {
        fill: #e5e5e5;
      }

      .cls-7 {
        fill: #9c7438;
      }

      .cls-8 {
        fill: #993c0e;
      }
    </style>
  </defs>
  <g id="图层_2" data-name="图层 2">
    <g id="Layer_1" data-name="Layer 1">
      <g>
        <path class="cls-1" d="M133.2818,135.0023s4.5521-24.503,30.0276-18.6893l-21.3935,11.1502a22.84071,22.84071,0,0,0-6.7557,5.3561Z"/>
        <path class="cls-1" d="M69.5401,49.5848S44.1636,31.7081,63.9734,5.8857l1.5149,30.0096a28.446,28.446,0,0,0,2.5558,10.4293Z"/>
        <path class="cls-1" d="M101.4489,107.9562S83.1287,70.7188,44.8997,91.4991l39.3151,8.2537a38.03016,38.03016,0,0,1,13.2405,5.5484Z"/>
        <path class="cls-1" d="M110.0557,133.1489s-28.5344,18.4392-8.0006,47.5458l2.9703-32.7523a31.13286,31.13286,0,0,1,3.2515-11.2937Z"/>
        <path class="cls-1" d="M123.1633,152.335s24.2796-23.7639,48.1395,2.6849l-32.6006-4.3279a31.1317,31.1317,0,0,0-11.7328.6801Z"/>
        <path class="cls-1" d="M87.7789,62.0921s-7.2653-24.8451,19.0724-31.397L92.2482,51.0573a23.72112,23.72112,0,0,0-3.7513,8.1309Z"/>
        <path class="cls-1" d="M117.3989,135.7551s-7.2654-24.845,19.0724-31.3969l-14.6031,20.3622a23.7232,23.7232,0,0,0-3.7514,8.1309Z"/>
        <g>
          <path class="cls-1" d="M46.4793,172.3585a8.291,8.291,0,0,1-14.3513-8.2857,8.291,8.291,0,0,1,14.3513,8.2857Z"/>
          <path class="cls-1" d="M61.6499,178.9418a8.291,8.291,0,1,1-3.178-11.067A8.14439,8.14439,0,0,1,61.6499,178.9418Z"/>
          <polygon class="cls-1" points="33.617 162.222 49.191 152.096 47.287 169.467 33.617 162.222"/>
          <polyline class="cls-1" points="47.575 170.125 63.436 157.191 62.622 176.067 48.772 168.82"/>
        </g>
        <path class="cls-2" d="M127.4658,158.774a71.44518,71.44518,0,0,1-11.7842,2.6959L101.6348,123.313,66.3394,27.4648a72.2384,72.2384,0,0,1,10.7263-5.5894l44.6769,121.3541Z"/>
        <path class="cls-3" d="M127.4658,158.774a71.44518,71.44518,0,0,1-11.7842,2.6959L101.6348,123.313l20.1078,19.9165Z"/>
        <path class="cls-1" d="M106.8991,144.5892h0a1.11856,1.11856,0,0,1,.6018-1.458l13.8153-5.8432a1.11866,1.11866,0,0,1,1.458.6018h0a1.11849,1.11849,0,0,1-.6018,1.458l-13.8153,5.8432A1.11856,1.11856,0,0,1,106.8991,144.5892Z"/>
        <path class="cls-1" d="M113.1858,142.2573h0a1.11861,1.11861,0,0,1-.2009-1.5645l4.5747-6.3892a1.11871,1.11871,0,0,1,1.5645-.201h0a1.11861,1.11861,0,0,1,.2009,1.5645l-4.5747,6.3892A1.11871,1.11871,0,0,1,113.1858,142.2573Z"/>
        <path class="cls-1" d="M113.5086,142.0659h0a1.11865,1.11865,0,0,1,1.3661-.7885l7.6589,1.7584a1.11865,1.11865,0,0,1,.7885,1.3661h0a1.1187,1.1187,0,0,1-1.3661.7885l-7.6589-1.7584A1.11865,1.11865,0,0,1,113.5086,142.0659Z"/>
        <path class="cls-2" d="M143.149,97.4532s10.0193-26.1222,36.9579-14.5121l-25.8897,7.9491a25.63842,25.63842,0,0,0-8.5495,4.5359Z"/>
        <path class="cls-2" d="M152.3894,111.6342s13.549-21.8349,35.84569-6.7098l-24.72779,2.7004a23.54893,23.54893,0,0,0-8.4958,2.6156Z"/>
        <path class="cls-2" d="M149.6157,84.411s3.7248-19.4471,23.9389-14.7157l-17.0459,8.7642a18.14348,18.14348,0,0,0-5.3909,4.2254Z"/>
        <path class="cls-2" d="M49.2313,50.8219s-15.3505-12.507-27.7984,4.1077l18.6925-4.2385a18.14746,18.14746,0,0,1,6.8458-.2266Z"/>
        <path class="cls-2" d="M45.9953,47.8481S27.122,53.8367,34.2005,73.3531l6.6962-17.9592A18.14637,18.14637,0,0,1,44.458,49.543Z"/>
        <path class="cls-2" d="M89.758,99.8422s-25.1474-15.617-40.4357,11.3935l26.9086-9.8503a27.125,27.125,0,0,1,10.1077-1.6419Z"/>
        <path class="cls-2" d="M110.807,134.7287s-25.1474-15.6171-40.4357,11.3935L97.28,136.2718a27.12658,27.12658,0,0,1,10.1077-1.6418Z"/>
        <path class="cls-2" d="M110.357,134.1418s-29.5633,1.5151-26.7155,32.4213l16.4845-23.4386a27.12834,27.12834,0,0,1,7.366-7.1136Z"/>
        <path class="cls-2" d="M33.0573,27.5588S29.7845-1.0053,0,3.6413L23.7257,18.1898a26.34509,26.34509,0,0,1,7.3449,6.706Z"/>
        <g>
          <g>
            <polygon class="cls-1" points="93.798 123.106 112.233 142.65 115.778 142.675 98.356 123.138 93.798 123.106"/>
            <path class="cls-4" d="M134.2619,42.8001l-.0377,5.398c-.0963.0949-.1862.1899-.2761.2849v.0064c-.1028.1076-.2055.2216-.3083.3356-.2055.2216-.3919.4498-.572.6843s-.3539.4692-.5213.7102c-.161.2411-.3156.4822-.4639.7297-.1483.2411-.2903.4951-.4195.7428-.2002.3746-.3749.7494-.5369,1.1371-.162.3813-.3114.769-.4415,1.1568-.026.07-.0456.1336-.0716.2035a21.29649,21.29649,0,0,0-.9513,6.6154c-.0033.478.0126.9369.0349,1.3896.0282.5356.0756,1.0458.1232,1.5305a26.73324,26.73324,0,0,0,.8856,4.6015c5.7616,12.7617.7458,30.0561.7458,30.0561-3.3799,13.9534-16.406,21.0643-27.3168,24.6273l-.0064-.0001c-1.6161.5304-3.1872.9783-4.6684,1.3567-1.2962.3352-2.5283.6197-3.6644.8603a67.47138,67.47138,0,0,1-7.7587,1.2141L62.8018,173.2495l-.0129.0254-.4907.908-.1227.2285c-.6464,1.2829.1782,1.856-1.0254,2.6315-13.6688,8.7763-13.4749-7.0987-13.4264-8.5642l.0001-.0128v-.0063l.0007-.0893c-.0896.044-.1728.0881-.2623.1321l-.0063-.0001c-11.5316,5.7447-14.8023,2.2674-15.626-1.1737a7.91938,7.91938,0,0,1,.688-5.4189c.0002-.0192.013-.0318.0259-.0508.084-.1651.1743-.3238.2711-.4825l28.4102-47.016,4.4942-7.4255.3418-.5648a39.05286,39.05286,0,0,1,3.9537-19.4497l6.0557-8.3388,1.8921-2.6126,1.197-1.6551.7144-.9829L94.4569,53.2164a23.18505,23.18505,0,0,1,8.6141-12.3617,18.15365,18.15365,0,0,1,5.6795-2.8347,14.82072,14.82072,0,0,1,6.0036-1.7872C126.6987,34.2959,134.2619,42.8001,134.2619,42.8001Z"/>
            <path class="cls-5" d="M131.4513,98.3825c-3.3799,13.9534-16.406,21.0643-27.3168,24.6273,15.6605-8.3291,21.4693-19.6332,22.7232-30.3318.0612-.5541.116-1.1018.1581-1.6496.8434-11.2306-3.0932-21.5704-5.5298-26.769-1.0551-2.2381-1.83-3.5246-1.83-3.5246l10.0058.07c-.0033.478.0126.9369.0349,1.3896.0346.5293.0756,1.0458.1295,1.5305h-.0063a26.73324,26.73324,0,0,0,.8856,4.6015C136.4671,81.0881,131.4513,98.3825,131.4513,98.3825Z"/>
            <path class="cls-1" d="M133.9481,48.483v.0064c-.1028.1076-.2055.2216-.3083.3356-.1991.2217-.392.4561-.572.6843-.1801.2346-.3539.4692-.5213.7102-.161.2411-.3156.4822-.4639.7297-.1483.2411-.2839.4888-.4195.7428-.1938.3746-.3749.7494-.5369,1.1371-.162.3813-.3114.769-.4415,1.1568-.026.07-.0456.1336-.0716.2035a21.29649,21.29649,0,0,0-.9513,6.6154c-.0033.478.0126.9369.0349,1.3896.0346.5293.0756,1.0458.1295,1.5305h-.0063c-.2483-.04-.4838-.0862-.7448-.139a21.39638,21.39638,0,0,1-7.1197-2.6502l-.0063-.0064c-.0952-.058-.1968-.1161-.2856-.1805-.0825-.0515-.165-.1031-.2411-.1546-.3298-.2254-.6405-.457-.9384-.6885-.2979-.2379-.5767-.4821-.8426-.7261-.133-.1284-.2596-.2504-.3861-.3788-.1013-.1026-.2026-.2053-.3038-.3144-.0126-.0192-.038-.0385-.0569-.0641a10.51847,10.51847,0,0,1-.9415-1.1666.34294.34294,0,0,1-.0442-.0577c-.0757-.1152-.1577-.2305-.2334-.3457-.0883-.1281-.1702-.2626-.2522-.397a.22588.22588,0,0,0-.0315-.0512c-.0693-.1152-.1322-.2303-.2015-.3519-.1447-.2687-.283-.5374-.4087-.7996a11.12186,11.12186,0,0,1-.4887-1.2016c-.0437-.1278-.0874-.2619-.1311-.3897-.1247-.396-.2304-.7792-.3106-1.1557a.02331.02331,0,0,0-.0062-.0192,14.74406,14.74406,0,0,1-.2806-4.5335l.0002-.0319c.0203-.1592.034-.2993.0476-.4203.0133-.0764.0201-.1401.0332-.1973.0203-.1592.04-.2483.04-.2483l-7.5394-.0528a13.30656,13.30656,0,0,1,12.7741-8.4574,13.616,13.616,0,0,1,11.354,5.9748,2.04308,2.04308,0,0,1,.1828.2945,10.86436,10.86436,0,0,1,.7736,1.4777A11.15028,11.15028,0,0,1,133.9481,48.483Z"/>
            <path class="cls-6" d="M125.8356,45.379a2.83842,2.83842,0,1,1-2.8185-2.8582A2.83846,2.83846,0,0,1,125.8356,45.379Z"/>
            <path class="cls-1" d="M147.2318,44.6371l-17.4841,2.0702,2.0968-1.8145,1.7185-1.4858.6989-.6069C143.5669,41.9218,147.2318,44.6371,147.2318,44.6371Z"/>
            <polygon points="137.203 44.185 131.844 44.893 133.563 43.407 137.203 44.185"/>
            <polygon points="129.744 46.708 133.949 48.485 147.233 44.635 129.744 46.708"/>
            <path class="cls-7" d="M127.1969,45.8563a2.83842,2.83842,0,1,1-2.8185-2.8582A2.83833,2.83833,0,0,1,127.1969,45.8563Z"/>
            <path d="M126.4758,45.8513a1.74094,1.74094,0,1,1-1.7287-1.7531A1.741,1.741,0,0,1,126.4758,45.8513Z"/>
            <path class="cls-6" d="M115.6869,47.0552l-3.258-.0228a13.31086,13.31086,0,0,0,10.9826,17.612l.0031-.0027.0002-.0339a5.32156,5.32156,0,0,0-1.4661-3.6782C113.8267,55.9146,115.6869,47.0552,115.6869,47.0552Z"/>
            <path class="cls-6" d="M126.5634,50.6097l.0026-.0026a7.85851,7.85851,0,0,1,5.5729-2.2629h0l-5.0228,9.066a6.178,6.178,0,0,0-.9897-3.0224A2.98381,2.98381,0,0,1,126.5634,50.6097Z"/>
            <path class="cls-2" d="M126.8703,92.2712c-17.2929,25.8805-45.7479,32.9404-45.7479,32.9404-.1538-.5292-.2891-1.0536-.4152-1.5779-5.1523-21.6923,12.5246-40.881,12.5246-40.881l28.4929,8.0603Z"/>
            <path class="cls-8" d="M126.8703,92.2712c-17.2929,25.8805-45.7479,32.9404-45.7479,32.9404-.1538-.5292-.2891-1.0536-.4152-1.5779L121.7247,90.813Z"/>
            <path class="cls-2" d="M67.5016,117.1817S59.1374,93.4719,77.9599,75.9681l13.9254,6.7737S84.6212,107.5092,67.5016,117.1817Z"/>
            <g>
              <path class="cls-4" d="M105.9241,84.6166a6.5515,6.5515,0,0,1-12.5186-3.8457Z"/>
              <polygon class="cls-1" points="101.529 83.267 98.672 85.926 97.8 82.121 101.529 83.267"/>
            </g>
            <g>
              <path class="cls-8" d="M96.8735,72.3139a6.55156,6.55156,0,0,1-12.1924-4.7805Z"/>
              <polygon class="cls-1" points="92.593 70.636 89.543 73.072 88.961 69.212 92.593 70.636"/>
            </g>
            <g>
              <path class="cls-8" d="M109.4246,77.4524a6.55156,6.55156,0,0,1-12.1924-4.7805Z"/>
              <polygon class="cls-1" points="105.144 75.774 102.094 78.21 101.512 74.35 105.144 75.774"/>
            </g>
            <g>
              <path class="cls-8" d="M121.9756,82.591a6.55156,6.55156,0,0,1-12.1924-4.7805Z"/>
              <polygon class="cls-1" points="117.695 80.913 114.645 83.349 114.063 79.489 117.695 80.913"/>
            </g>
            <g>
              <path class="cls-8" d="M106.0369,68.49a6.55156,6.55156,0,0,1-12.1924-4.7805Z"/>
              <polygon class="cls-1" points="101.757 66.812 98.706 69.248 98.125 65.388 101.757 66.812"/>
            </g>
            <g>
              <path class="cls-8" d="M118.588,73.6286a6.55156,6.55156,0,0,1-12.1924-4.7805Z"/>
              <polygon class="cls-1" points="114.308 71.95 111.257 74.386 110.676 70.526 114.308 71.95"/>
            </g>
            <g>
              <path class="cls-8" d="M112.9748,66.2059a4.397,4.397,0,0,1-8.1827-3.2084Z"/>
              <polygon class="cls-1" points="110.102 65.08 108.055 66.714 107.665 64.124 110.102 65.08"/>
            </g>
            <g>
              <path class="cls-8" d="M121.6915,69.6719a4.397,4.397,0,0,1-8.1827-3.2084Z"/>
              <polygon class="cls-1" points="118.819 68.546 116.772 70.18 116.381 67.59 118.819 68.546"/>
            </g>
            <g>
              <path class="cls-8" d="M103.9199,62.7033a4.39695,4.39695,0,0,1-8.1827-3.2083Z"/>
              <polygon class="cls-1" points="101.047 61.577 99 63.212 98.61 60.621 101.047 61.577"/>
            </g>
            <g>
              <path class="cls-8" d="M110.7505,59.8314a4.39694,4.39694,0,0,1-8.1827-3.2083Z"/>
              <polygon class="cls-1" points="107.878 58.705 105.831 60.34 105.44 57.749 107.878 58.705"/>
            </g>
            <g>
              <path class="cls-8" d="M120.0367,63.8862a4.397,4.397,0,0,1-8.1827-3.2084Z"/>
              <polygon class="cls-1" points="117.164 62.76 115.117 64.395 114.726 61.804 117.164 62.76"/>
            </g>
            <g>
              <path class="cls-4" d="M94.1821,80.359a6.55156,6.55156,0,0,1-11.994-5.2585Z"/>
              <polygon class="cls-1" points="89.972 78.513 86.827 80.827 86.399 76.947 89.972 78.513"/>
            </g>
            <g>
              <path class="cls-4" d="M84.4728,75.3445a6.55268,6.55268,0,0,1-8.4025,3.2348l3.0918-4.2679.711-.9817.3926.1695Z"/>
              <polygon class="cls-1" points="80.266 73.499 79.162 74.311 79.873 73.33 80.266 73.499"/>
            </g>
            <g>
              <path class="cls-4" d="M116.7408,87.911a6.55155,6.55155,0,0,1-12.5187-3.8457Z"/>
              <polygon class="cls-1" points="112.346 86.561 109.488 89.22 108.617 85.415 112.346 86.561"/>
            </g>
            <g>
              <path class="cls-4" d="M127.5841,91.2056a6.55155,6.55155,0,0,1-12.5187-3.8457Z"/>
              <polygon class="cls-1" points="123.189 89.856 120.332 92.515 119.46 88.71 123.189 89.856"/>
            </g>
            <rect class="cls-1" x="79.38301" y="110.8136" width="43.64842" height="0.4633" transform="translate(-46.76336 84.99423) rotate(-37.66888)"/>
            <rect class="cls-1" x="87.38811" y="110.3505" width="36.37998" height="0.4629" transform="translate(-45.54546 87.41362) rotate(-37.6101)"/>
            <rect class="cls-1" x="118.26029" y="94.34545" width="0.46337" height="6.7508" transform="matrix(0.76185, -0.64775, 0.64775, 0.76185, -35.08017, 100.02477)"/>
            <polygon class="cls-8" points="113.962 94.018 106.288 93.965 99.397 105.497 113.962 94.018"/>
            <polygon class="cls-8" points="105.632 92.05 97.958 91.997 91.067 103.529 105.632 92.05"/>
            <polygon class="cls-8" points="97.303 90.082 89.629 90.028 82.738 101.561 97.303 90.082"/>
            <polygon class="cls-8" points="75.805 79.753 77.24 87.291 67.137 96.147 75.805 79.753"/>
            <polygon class="cls-8" points="72.872 92.185 73.781 96.965 67.375 102.58 72.872 92.185"/>
            <polygon class="cls-8" points="72.826 98.665 73.736 103.445 67.33 109.06 72.826 98.665"/>
            <polygon class="cls-8" points="80.299 95.754 81.209 100.534 74.803 106.149 80.299 95.754"/>
            <polygon class="cls-8" points="83.188 82.316 84.623 89.855 74.52 98.71 83.188 82.316"/>
            <polygon class="cls-8" points="92.389 99.929 86.968 99.891 82.101 108.037 92.389 99.929"/>
            <polygon class="cls-8" points="91.308 106.392 85.888 106.354 81.02 114.501 91.308 106.392"/>
            <polygon class="cls-8" points="100.313 102.009 94.893 101.971 90.025 110.117 100.313 102.009"/>
            <path class="cls-8" d="M74.6005,134.7725l1.1944-16.7793L62.7775,129.3298l-1.5524-14.9694-28.4102,47.016c-.0711.1269-.1356.2475-.2002.3746l-.0065.0063-.0387.0762c-.0193.0254-.0323.0508-.0516.0762a2.97777,2.97777,0,0,0-.1932.2981,8.29128,8.29128,0,0,0,14.2943,8.3855,2.55852,2.55852,0,0,0,.1551-.2921,2.42835,2.42835,0,0,0,.1099-.2222.13534.13534,0,0,0,.0257-.0381,7.96788,7.96788,0,0,0,.3816,6.5035,5.09911,5.09911,0,0,0,.3335.6015,8.26275,8.26275,0,0,0,1.1371,1.4484,8.67212,8.67212,0,0,0,.8361.7515,8.31723,8.31723,0,0,0,.9515.644,8.50872,8.50872,0,0,0,4.2429,1.1769,6.839,6.839,0,0,0,.8097-.0389.913.913,0,0,0,.1849-.0179c.1659-.018.3254-.0424.4913-.073a8.0344,8.0344,0,0,0,2.8182-1.0639,9.12246,9.12246,0,0,0,.8198-.5805,8.51811,8.51811,0,0,0,.7505-.6895c.1156-.1267.2249-.2533.3341-.3801.0128-.0062.0192-.0062.0065-.0126a7.30985,7.30985,0,0,0,.6113-.8435c0,.0064-.0064.0127-.0065.0191-.0325.1017-.065.178-.0651.1908.013-.0254.0648-.1398.194-.3939.0968-.165.1872-.3365.2713-.5079.0387-.0762.0775-.1461.1098-.2223l25.9144-50.1118ZM47.582,168.688a1.92393,1.92393,0,0,0-.1353.2094,2.56484,2.56484,0,0,0-.155.292,1.6875,1.6875,0,0,0-.1164.2415.256.256,0,0,0-.0323.0571c.0065-.0191.0131-.0445.0196-.0636a7.03144,7.03144,0,0,0,.2933-.9221l.0063.0001c.0895-.044.1727-.0881.2623-.1321l-.0007.0893v.0063l-.0001.0128C47.6722,168.5484,47.6271,168.6182,47.582,168.688Z"/>
            <g>
              <path class="cls-7" d="M46.6158,170.5956a8.29094,8.29094,0,0,1-14.2929-8.3858,8.29093,8.29093,0,0,1,14.2929,8.3858Z"/>
              <path class="cls-7" d="M61.74,177.2848a8.291,8.291,0,1,1-3.1005-11.0889A8.14434,8.14434,0,0,1,61.74,177.2848Z"/>
              <polygon class="cls-7" points="33.825 160.369 49.47 150.352 47.443 167.71 33.825 160.369"/>
              <polygon class="cls-7" points="47.727 168.369 63.678 155.547 62.732 174.417 48.933 167.073 47.727 168.369"/>
            </g>
            <polygon class="cls-7" points="38.774 167.772 38.383 167.524 62.584 129.206 62.976 129.454 38.774 167.772"/>
            <rect class="cls-7" x="42.98389" y="153.70112" width="43.22822" height="0.46316" transform="translate(-101.74851 139.89644) rotate(-62.41142)"/>
          </g>
          <path class="cls-6" d="M124.861,45.342a.498.498,0,1,1-.4945-.5015A.498.498,0,0,1,124.861,45.342Z"/>
        </g>
        <polygon class="cls-2" points="81.209 54.749 30.087 21.508 30.745 26.605 82.943 61.736 81.209 54.749"/>
        <path class="cls-2" d="M153.0865,80.4206l-26.2708,78.551q-1.7781.56415-3.5945,1.0134l-1.8993-4.4167,27.7685-78.277Z"/>
        <polygon class="cls-2" points="132.139 132.243 157.02 103.448 157.02 108.815 129.748 140.623 132.139 132.243"/>
        <polygon class="cls-2" points="65.65 47.716 42.555 47.716 42.555 50.788 72.189 52.783 65.65 47.716"/>
        <g>
          <path class="cls-2" d="M131.4346,140.1729s7.7836-20.6951-14.2286-27.9668l11.1305,18.281a20.26086,20.26086,0,0,1,2.6731,7.1663Z"/>
          <path class="cls-7" d="M131.8418,139.2476s6.143-18.5924,25.3585-11.3641l-17.8372,6.4109a17.94434,17.94434,0,0,0-5.8274,3.453Z"/>
        </g>
        <g>
          <path class="cls-1" d="M80.892,38.3174s-4.4336-24.5248,21.4479-28.1237L86.2913,28.2062a22.83712,22.83712,0,0,0-4.4171,7.4039Z"/>
          <path class="cls-7" d="M80.0101,40.7738S87.7936,20.0787,65.7814,12.807L76.912,31.088a20.26188,20.26188,0,0,1,2.673,7.1663Z"/>
          <path class="cls-7" d="M80.4172,39.8485s6.143-18.5924,25.3585-11.3642l-17.8372,6.411a17.94434,17.94434,0,0,0-5.8274,3.453Z"/>
        </g>
        <g>
          <path class="cls-7" d="M37.0151,28.4276S20.2984,13.9561,5.8508,32.0857l21.0051-4.1076a20.26031,20.26031,0,0,1,7.6485-.0246Z"/>
          <path class="cls-7" d="M36.2881,27.7251S20.9756,15.5211,34.4136,0l-.166,18.9536a17.941,17.941,0,0,0,1.2202,6.6627Z"/>
        </g>
        <path class="cls-7" d="M71.9586,51.3708S53.0087,46.44,48.6512,66.5024L63.7164,54.9999a17.94472,17.94472,0,0,1,6.0628-3.0205Z"/>
        <g>
          <path class="cls-4" d="M149.4416,133.0749a9.84521,9.84521,0,1,1-8.9774-10.6423A9.84532,9.84532,0,0,1,149.4416,133.0749Z"/>
          <path class="cls-1" d="M142.3225,125.0682l.3728,1.5955a1.56757,1.56757,0,0,0,1.3942,1.2056l1.6326.1386a1.5679,1.5679,0,0,1,.6784,2.9042l-1.4023.8475a1.56774,1.56774,0,0,0-.7156,1.6985l.3727,1.5955a1.568,1.568,0,0,1-2.5524,1.5428l-1.2394-1.0717a1.56789,1.56789,0,0,0-1.8365-.1559l-1.4023.8475a1.56779,1.56779,0,0,1-2.2558-1.9506l.6362-1.51a1.56777,1.56777,0,0,0-.4193-1.7948l-1.2395-1.0717a1.568,1.568,0,0,1,1.1583-2.7484l1.6324.1385a1.5681,1.5681,0,0,0,1.5776-.9533l.6362-1.5101A1.568,1.568,0,0,1,142.3225,125.0682Z"/>
          <path class="cls-5" d="M144.0215,130.9682a3.61,3.61,0,1,1-3.2919-3.9022A3.61031,3.61031,0,0,1,144.0215,130.9682Z"/>
        </g>
        <g>
          <path class="cls-4" d="M42.3996,24.8034a9.84521,9.84521,0,1,1-8.9773-10.6422A9.84525,9.84525,0,0,1,42.3996,24.8034Z"/>
          <path class="cls-1" d="M35.2806,16.7967l.3727,1.5955a1.56753,1.56753,0,0,0,1.3942,1.2056l1.6326.1386a1.56791,1.56791,0,0,1,.6784,2.9042l-1.4022.8475a1.568,1.568,0,0,0-.7157,1.6986l.3727,1.5955a1.56786,1.56786,0,0,1-2.5523,1.5427l-1.2395-1.0717a1.56785,1.56785,0,0,0-1.8365-.1558l-1.4022.8475a1.56788,1.56788,0,0,1-2.2559-1.9507l.6362-1.5099a1.56792,1.56792,0,0,0-.4193-1.7949l-1.2395-1.0717a1.568,1.568,0,0,1,1.1583-2.7483l1.6324.1385a1.56825,1.56825,0,0,0,1.5777-.9534l.6362-1.51A1.568,1.568,0,0,1,35.2806,16.7967Z"/>
          <path class="cls-5" d="M36.9795,22.6967a3.61,3.61,0,1,1-3.2919-3.9022A3.6104,3.6104,0,0,1,36.9795,22.6967Z"/>
        </g>
        <g>
          <path class="cls-4" d="M76.5913,40.5416a9.84526,9.84526,0,1,1-8.9774-10.6423A9.84538,9.84538,0,0,1,76.5913,40.5416Z"/>
          <path class="cls-1" d="M69.4722,32.5349l.3727,1.5955a1.56757,1.56757,0,0,0,1.3943,1.2055l1.6325.1387a1.56785,1.56785,0,0,1,.6785,2.9041l-1.4023.8475a1.5678,1.5678,0,0,0-.7156,1.6986l.3727,1.5955a1.56791,1.56791,0,0,1-2.5524,1.5427l-1.2394-1.0717a1.568,1.568,0,0,0-1.8366-.1558l-1.4022.8475a1.56788,1.56788,0,0,1-2.2559-1.9507l.6363-1.5099a1.568,1.568,0,0,0-.4194-1.7948L61.496,37.3559a1.568,1.568,0,0,1,1.1583-2.7484l1.6324.1385a1.5681,1.5681,0,0,0,1.5776-.9533l.6362-1.5101A1.568,1.568,0,0,1,69.4722,32.5349Z"/>
          <path class="cls-5" d="M71.1711,38.4349a3.60992,3.60992,0,1,1-3.2918-3.9022A3.61023,3.61023,0,0,1,71.1711,38.4349Z"/>
        </g>
        <g>
          <path class="cls-4" d="M65.3152,56.6708a9.84521,9.84521,0,1,1-8.9774-10.6423A9.84532,9.84532,0,0,1,65.3152,56.6708Z"/>
          <path class="cls-1" d="M58.1961,48.6641l.3728,1.5955a1.56757,1.56757,0,0,0,1.3942,1.2056l1.6326.1386a1.5679,1.5679,0,0,1,.6784,2.9042l-1.4023.8475a1.56789,1.56789,0,0,0-.7156,1.6985l.3727,1.5955a1.568,1.568,0,0,1-2.5524,1.5428l-1.2394-1.0717a1.56772,1.56772,0,0,0-1.8365-.1559l-1.4023.8475a1.56779,1.56779,0,0,1-2.2558-1.9506l.6362-1.51a1.56777,1.56777,0,0,0-.4193-1.7948l-1.2395-1.0717a1.568,1.568,0,0,1,1.1583-2.7484l1.6324.1385a1.5681,1.5681,0,0,0,1.5776-.9533l.6363-1.5101A1.56791,1.56791,0,0,1,58.1961,48.6641Z"/>
          <path class="cls-5" d="M59.8951,54.5641a3.61,3.61,0,1,1-3.2919-3.9022A3.61025,3.61025,0,0,1,59.8951,54.5641Z"/>
        </g>
        <g>
          <path class="cls-4" d="M141.6544,151.1848a9.84521,9.84521,0,1,1-8.9773-10.6422A9.84532,9.84532,0,0,1,141.6544,151.1848Z"/>
          <path class="cls-1" d="M134.5354,143.1781l.3727,1.5955a1.56755,1.56755,0,0,0,1.3943,1.2056l1.6325.1386a1.5679,1.5679,0,0,1,.6784,2.9042l-1.4022.8475a1.56794,1.56794,0,0,0-.7157,1.6986l.3727,1.5954a1.56788,1.56788,0,0,1-2.5523,1.5428l-1.2395-1.0717a1.56785,1.56785,0,0,0-1.8365-.1558l-1.4022.8475a1.56789,1.56789,0,0,1-2.2559-1.9507l.6362-1.5099a1.56792,1.56792,0,0,0-.4193-1.7949l-1.2394-1.0717a1.568,1.568,0,0,1,1.1583-2.7483l1.6324.1384a1.56813,1.56813,0,0,0,1.5776-.9533l.6362-1.5101A1.568,1.568,0,0,1,134.5354,143.1781Z"/>
          <path class="cls-5" d="M136.2343,149.0781a3.60992,3.60992,0,1,1-3.2918-3.9022A3.61034,3.61034,0,0,1,136.2343,149.0781Z"/>
        </g>
        <path class="cls-7" d="M146.7882,88.7612s12.2603-18.3137-7.4482-30.3767l6.6444,20.2725a20.19633,20.19633,0,0,1,.9643,7.5625Z"/>
        <path class="cls-7" d="M154.1361,108.4462s19.7681-12.9926,5.314-33.1478l-1.8913,22.8204a21.67846,21.67846,0,0,1-2.203,7.8809Z"/>
      </g>
    </g>
  </g>
</svg>
