<svg xmlns="http://www.w3.org/2000/svg" width="144.2837" height="181.6504" viewBox="0 0 144.2837 181.6504">
  <defs>
    <style>
      .cls-1 {
        fill: #4b3d17;
      }

      .cls-2 {
        fill: #111312;
      }

      .cls-3 {
        fill: #b69162;
      }

      .cls-4 {
        fill: #cfba9f;
      }

      .cls-5 {
        fill: #9c7438;
      }

      .cls-6 {
        fill: #2a2935;
      }

      .cls-7 {
        fill: #fff;
      }

      .cls-8 {
        fill: #6d4b35;
      }

      .cls-9 {
        fill: #b5a51b;
      }

      .cls-10 {
        fill: #646c00;
      }

      .cls-11 {
        fill: #ffd85a;
      }

      .cls-12 {
        fill: #ea6c2d;
      }

      .cls-13 {
        fill: #28190f;
      }

      .cls-14 {
        fill: #cd5917;
      }
    </style>
  </defs>
  <g id="图层_2" data-name="图层 2">
    <g id="Layer_1" data-name="Layer 1">
      <g>
        <path class="cls-1" d="M64.4037,150.4809l1.7919-6.8645a24.70153,24.70153,0,0,1,6.424-11.2174l52.8438-52.9034,1.8259,1.9536L77.4918,134.0013a24.04089,24.04089,0,0,0-6.2539,12.5285l-2.7144,16.055Z"/>
        <path class="cls-2" d="M65.3208,167.5407s-5.5458-22.564-28.9475-15.792l20.5083,9.2358a21.29829,21.29829,0,0,1,6.5743,4.6246Z"/>
        <path class="cls-2" d="M79.5799,130.0043s19.1787-13.1173,32.1028,7.5338l-21.442-6.7923a21.29719,21.29719,0,0,0-7.983-.9374Z"/>
        <path class="cls-2" d="M23.61711,54.1694S19.6602,39.1498,35.5636,35.6451L26.4758,47.6228a14.23507,14.23507,0,0,0-2.3813,4.8165Z"/>
        <path class="cls-2" d="M18.5232,17.1015S17.7803,2.6511,2.6736,4.0456l11.4581,8.0557a13.26358,13.26358,0,0,1,3.4777,3.6Z"/>
        <path class="cls-2" d="M69.3453,86.4088l-1.738,1.8999-37.2177,61.663c27.2583-11.251,42.09-34.5771,47.7119-45.3073Z"/>
        <path class="cls-3" d="M89.1039,98.9562c-2.5313,9.4098-6.6086,14.4427-6.6086,14.4427-14.4396,20.971-54.9959,32.642-54.9959,32.642l-.0029.0089L13.84911,181.6504c-4.54911-2.4659-3.64111-7.5611-3.558-7.9854,0-.0089.003-.0148.003-.0208a7.47289,7.47289,0,0,1-2.75381,2.6351A12.232,12.232,0,0,1,0,177.2972l18.0035-37.9835,1.4393-17.2795.1424-1.7123c0-.1424.003-.2848.00591-.4273.282-31.6123,14.06579-49.6604,19.20539-55.3016,1.1841-1.2967,1.9081-1.9377,1.9081-1.9377L54.5122,45.4321A17.28555,17.28555,0,0,1,85.6616,55.756c0,.2611-.0089.5222-.0207.7804l.2196.086C92.6915,74.902,91.7182,89.2556,89.1039,98.9562Z"/>
        <path class="cls-1" d="M27.4994,146.0409l-.0029.0089L13.84911,181.6504c-4.54911-2.4659-3.64111-7.5611-3.558-7.9854,0-.0089.003-.0148.003-.0208a7.47289,7.47289,0,0,1-2.75381,2.6351l10.4632-36.9656Z"/>
        <polygon class="cls-4" points="30.772 106.4 33.546 111.204 36.32 116.008 30.772 116.008 25.225 116.008 27.999 111.204 30.772 106.4"/>
        <polygon class="cls-4" points="38.191 117.379 40.965 122.184 43.739 126.988 38.191 126.988 32.643 126.988 35.417 122.184 38.191 117.379"/>
        <path class="cls-4" d="M29.3719,120.2596l-2.9497,4.6975-2.9496,4.6975-2.5936-4.9022-1.4362-2.7182.1424-1.7123c0-.1424.003-.2848.00591-.4273l4.23759.1573Z"/>
        <polygon class="cls-4" points="32.079 141.525 29.484 136.622 26.89 131.718 32.434 131.923 37.978 132.128 35.028 136.827 32.079 141.525"/>
        <polygon class="cls-4" points="50.646 137.085 48.384 133.162 45.61 128.358 42.835 133.162 40.064 137.967 45.61 137.967 48.752 137.967 50.646 137.085"/>
        <polygon class="cls-4" points="53.919 116.192 56.692 120.997 59.466 125.801 53.919 125.801 48.371 125.801 51.145 120.997 53.919 116.192"/>
        <polygon class="cls-4" points="44.616 104.737 47.39 109.541 50.164 114.346 44.616 114.346 39.069 114.346 41.843 109.541 44.616 104.737"/>
        <polygon class="cls-1" points="51.94 104.299 46.401 104.299 46.401 114.388 51.94 104.299"/>
        <path class="cls-1" d="M89.1039,98.9562h0a10.2225,10.2225,0,0,0-7.2287,2.9945L63.3078,120.5208V96.9521a9.63663,9.63663,0,0,1,1.2565-4.7581l2.1406-3.77a9.63642,9.63642,0,0,0-1.56579-11.572h0a9.63648,9.63648,0,0,0-6.814-2.8224H47.877L38.7965,64.593c.2582-.2819.49261-.5311.7033-.7507.7597-.7953,1.2048-1.187,1.2048-1.187L54.5122,45.4321A17.28555,17.28555,0,0,1,85.6616,55.756c0,.2611-.0089.5222-.0207.7804l.2196.086q1.3887,3.7212,2.362,7.2199C92.3978,78.7122,91.36211,90.5702,89.1039,98.9562Z"/>
        <path class="cls-5" d="M88.2225,63.8423H39.4998c.7597-.7953,1.2048-1.187,1.2048-1.187L54.5122,45.4321A17.28368,17.28368,0,0,1,85.6616,55.756c0,.2611-.0089.5222-.0207.7804l.2196.086c.1988.5312.3887,1.0565.5727,1.5817q.5919,1.6692,1.095,3.2939Q87.89765,62.682,88.2225,63.8423Z"/>
        <path class="cls-1" d="M87.5282,61.498c-19.8256,3.65-26.7843-11.0093-26.7843-11.0093h8.9023c0-6.6115-7.6263-7.8994-12.2585-8.0715A17.2803,17.2803,0,0,1,85.6616,55.756c0,.2611-.0089.5222-.0207.7804l.2196.086c.1988.5312.3887,1.0565.5727,1.5817Q87.0251,59.8733,87.5282,61.498Z"/>
        <path class="cls-2" d="M86.4332,58.2041H74.9877a5.63816,5.63816,0,0,1,0-11.2763h8.2525a17.2144,17.2144,0,0,1,2.4214,8.8282c0,.2611-.0089.5222-.0207.7804l.2196.086C86.0593,57.1536,86.2492,57.6789,86.4332,58.2041Z"/>
        <path class="cls-6" d="M97.0375,53.1594H78.5403a12.53285,12.53285,0,0,1,5.4403-4.9457A27.772,27.772,0,0,1,97.0375,53.1594Z"/>
        <path class="cls-6" d="M78.5403,53.1594H97.0375A33.292,33.292,0,0,1,85.86,56.6215,11.75424,11.75424,0,0,1,78.5403,53.1594Z"/>
        <path class="cls-7" d="M75.0783,52.7638a4.64905,4.64905,0,1,1-4.6491-4.6491A4.64911,4.64911,0,0,1,75.0783,52.7638Z"/>
        <path class="cls-2" d="M73.7924,52.7638a3.36315,3.36315,0,1,1-3.3632-3.3632A3.36317,3.36317,0,0,1,73.7924,52.7638Z"/>
        <path class="cls-1" d="M56.0879,63.5455,48.23011,75.5252l-.911,1.3887L7.8163,137.1385C6.1723,107.6954,20.79,84.2347,28.0336,74.5251c2.3442-3.1425,3.917-4.8458,3.917-4.8458C43.4258,58.0053,56.0879,63.5455,56.0879,63.5455Z"/>
        <path class="cls-5" d="M48.2795,74.5235l-.9605,2.392L21.8223,115.785,7.8178,137.1369q-.115-2.0103-.1242-3.9804c-.2082-27.5673,13.4239-49.3647,20.3404-58.633Z"/>
        <path class="cls-1" d="M45.358,75.4365l-.0511,1.0006L21.8223,115.785,7.8178,137.1369l-.0023-.0402a30.915,30.915,0,0,1,.5443-7.6796A108.71858,108.71858,0,0,1,19.8796,97.4384,49.89167,49.89167,0,0,1,45.358,75.4365Z"/>
        <path class="cls-2" d="M48.2805,74.5251A49.88122,49.88122,0,0,0,22.8018,96.5253,132.9305,132.9305,0,0,0,7.8163,137.1385L48.23011,75.5252l.05039-1.0001Z"/>
        <rect class="cls-4" x="-7.79354" y="104.64494" width="70.45534" height="0.29663" transform="translate(-75.34417 70.57514) rotate(-56.91539)"/>
        <rect class="cls-4" x="-5.76933" y="103.30959" width="65.5166" height="0.29663" transform="translate(-74.42748 69.59575) rotate(-56.91539)"/>
        <rect class="cls-4" x="-3.51128" y="102.04848" width="59.96207" height="0.29665" transform="translate(-73.69749 68.85976) rotate(-57.0709)"/>
        <rect class="cls-2" x="78.69711" y="53.0606" width="18.15079" height="0.2967"/>
        <path class="cls-2" d="M84.68411,51.6a2.41225,2.41225,0,0,1,3.15979,0Z"/>
        <polygon class="cls-1" points="57.875 76.405 52.336 76.405 52.336 86.494 57.875 76.405"/>
        <polygon class="cls-1" points="59.656 96.88 54.116 96.88 54.116 106.969 59.656 96.88"/>
        <polygon class="cls-1" points="62.326 107.86 56.787 107.86 56.787 117.949 62.326 107.86"/>
        <polygon class="cls-1" points="76.57 111.717 71.031 111.717 71.031 121.807 76.57 111.717"/>
        <polygon class="cls-3" points="71.229 96.583 65.69 96.583 65.69 106.673 71.229 96.583"/>
        <polygon class="cls-3" points="78.054 85.604 72.515 85.604 72.515 95.693 78.054 85.604"/>
        <polygon class="cls-3" points="73.199 105.461 67.66 105.461 67.66 115.551 73.199 105.461"/>
        <polygon class="cls-3" points="79.834 96.583 74.295 96.583 74.295 106.673 79.834 96.583"/>
        <polygon class="cls-1" points="64.404 82.043 58.864 82.043 58.864 92.132 64.404 82.043"/>
        <polygon class="cls-1" points="55.501 89.461 49.962 89.461 49.962 99.551 55.501 89.461"/>
        <polygon class="cls-1" points="48.973 84.417 43.434 84.417 43.434 94.506 48.973 84.417"/>
        <polygon class="cls-1" points="86.66 103.408 81.12 103.408 81.12 113.498 86.66 103.408"/>
        <polygon class="cls-5" points="58.469 65.128 65.591 65.128 61.436 67.898 58.469 65.128"/>
        <polygon class="cls-5" points="62.425 70.272 69.547 70.272 65.393 73.041 62.425 70.272"/>
        <polygon class="cls-5" points="71.526 70.272 78.647 70.272 74.493 73.041 71.526 70.272"/>
        <polygon class="cls-5" points="80.626 70.272 87.748 70.272 83.593 73.041 80.626 70.272"/>
        <polygon class="cls-5" points="67.569 65.128 74.691 65.128 70.536 67.898 67.569 65.128"/>
        <polygon class="cls-5" points="76.669 65.128 83.791 65.128 79.637 67.898 76.669 65.128"/>
        <polygon class="cls-5" points="89.184 67.599 88.736 67.899 85.768 65.127 88.573 65.127 89.184 67.599"/>
        <path class="cls-2" d="M18.0035,139.3137l-7.70639,34.3246-.003.0059C7.1248,178.7839,0,177.2972,0,177.2972Z"/>
        <polygon class="cls-4" points="27.499 146.041 18.003 139.314 13.858 157.911 27.499 146.041"/>
        <path class="cls-1" d="M70.2714,167.7044q-3.32865.29925-6.7451.2953c-.2794,0-.5588,0-.83019-.008l.16759-2.0115.0639-.8861.0399-.455.1677-2.0594c-.008-.1597-.016-.3273-.0319-.4869A52.17938,52.17938,0,0,0,59.5112,146.12a51.17991,51.17991,0,0,0-2.3229-5.029L24.59611,79.2914a22.11878,22.11878,0,0,1-2.45051-8.2379L18.338,30.0161,16.6217,11.5129l2.77-.9898L21.499,27.8129l4.9172,40.4229a22.04151,22.04151,0,0,0,2.3707,7.5912c6.1544,11.6862,25.7353,48.8602,34.3483,65.0007a53.43265,53.43265,0,0,1,4.526,11.6782c.4071,1.5965.7423,3.2009.9978,4.8293l.1836,1.1894.1756,1.1255.2315,1.4848Z"/>
        <path class="cls-2" d="M37.2382,108.4097h-.00009a1.48794,1.48794,0,0,1-.54321-2.0267l4.577-7.9274a1.488,1.488,0,0,1,2.0267-.5431h.0001a1.48792,1.48792,0,0,1,.5431,2.0267l-4.5769,7.9274A1.488,1.488,0,0,1,37.2382,108.4097Z"/>
        <path class="cls-2" d="M39.6123,110.7838l-.00019-.0001a1.48794,1.48794,0,0,1-.54321-2.0267l4.577-7.9275a1.488,1.488,0,0,1,2.0267-.543h.0001a1.48806,1.48806,0,0,1,.543,2.0267l-4.5768,7.9275A1.48809,1.48809,0,0,1,39.6123,110.7838Z"/>
        <path class="cls-2" d="M52.9656,138.381h0a1.48823,1.48823,0,0,1-.543-2.0268l4.5768-7.9272a1.488,1.488,0,0,1,2.0269-.5431h0a1.48818,1.48818,0,0,1,.543,2.0268l-4.577,7.9275A1.48774,1.48774,0,0,1,52.9656,138.381Z"/>
        <path class="cls-2" d="M55.83411,140.755h0a1.488,1.488,0,0,1-.543-2.0267l4.577-7.9276a1.48763,1.48763,0,0,1,2.02659-.5428l.00041.0001a1.488,1.488,0,0,1,.54279,2.0266L57.861,140.212A1.48813,1.48813,0,0,1,55.83411,140.755Z"/>
        <path class="cls-8" d="M19.4048,10.5912c.14031.4468-.3744,1.0062-1.1495,1.2495s-1.51719.0783-1.6574-.3684.3744-1.0062,1.1496-1.2495S19.2646,10.1445,19.4048,10.5912Z"/>
        <path class="cls-7" d="M69.3478,52.1296a.73035.73035,0,1,1-.7304-.7303A.73039.73039,0,0,1,69.3478,52.1296Z"/>
        <path class="cls-9" d="M21.1969,46.3407S19.1432,27.9838,0,30.918l15.2178,9.3875a16.932,16.932,0,0,1,4.7074,4.3209Z"/>
        <path class="cls-9" d="M28.1976,78.4445S20.6754,60.045,40.2716,52.9494l-9.5368,16.712a18.22154,18.22154,0,0,0-2.2196,6.5082Z"/>
        <path class="cls-9" d="M128.3687,77.5135s9.2047-6.3993,2.1082-15.7694l-.6142,10.8346a10.27583,10.27583,0,0,1-.9464,3.7608Z"/>
        <path class="cls-9" d="M106.6186,98.6071s8.4607-9.848-2.2169-18.2915l2.45841,12.3251a11.8991,11.8991,0,0,1,.03139,4.4912Z"/>
        <path class="cls-9" d="M18.9769,15.7999S16.1908,2.3449,30.40511,0L21.8114,10.1517a12.59507,12.59507,0,0,0-2.3311,4.1423Z"/>
        <path class="cls-10" d="M19.9385,31.6712s-1.0522-16.336,16.1062-16.7418L24.2207,25.4786a14.99913,14.99913,0,0,0-3.438,4.4997Z"/>
        <path class="cls-10" d="M92.6974,115.8232s13.3564-9.4645,22.7019,4.9312l-15.1835-4.5336a14.99878,14.99878,0,0,0-5.6343-.5668Z"/>
        <path class="cls-10" d="M107.39311,104.6695s6.73879-14.9184,22.08009-7.2226l-15.3923,3.7646a15.00008,15.00008,0,0,0-5.14779,2.3594Z"/>
        <path class="cls-10" d="M127.8533,81.4158s5.0146-11.1011,16.4304-5.3745l-11.4538,2.8014a11.15983,11.15983,0,0,0-3.8306,1.7557Z"/>
        <path class="cls-10" d="M125.0824,80.4693s9.6308-7.4584,1.40671-17.2298l-.06131,11.7913a11.16259,11.16259,0,0,1-.8169,4.1339Z"/>
        <path class="cls-10" d="M98.2778,110.5059s7.6856-11.679-4.877-19.2325l4.3164,12.8268a12.81165,12.81165,0,0,1,.6496,4.7925Z"/>
        <path class="cls-10" d="M75.0756,131.7998s7.6856-11.679-4.877-19.2326L74.515,125.394a12.81244,12.81244,0,0,1,.6496,4.7926Z"/>
        <path class="cls-10" d="M68.5235,162.5848s-1.0523-16.3359,16.1062-16.7417L72.8056,156.3923a15.00044,15.00044,0,0,0-3.4379,4.4997Z"/>
        <g>
          <g>
            <path class="cls-11" d="M16.6185,26.4672h0a4.0194,4.0194,0,0,1-4.0076-4.0075h0a4.01944,4.01944,0,0,1,4.0076-4.0077h0a4.01946,4.01946,0,0,1,4.0077,4.0077h0A4.01942,4.01942,0,0,1,16.6185,26.4672Z"/>
            <path class="cls-11" d="M16.6185,35.8184h0a4.01944,4.01944,0,0,1-4.0076-4.0077h0a4.01934,4.01934,0,0,1,4.0076-4.0075h0a4.01936,4.01936,0,0,1,4.0077,4.0075h0A4.01946,4.01946,0,0,1,16.6185,35.8184Z"/>
          </g>
          <g>
            <path class="cls-11" d="M17.2865,27.1351h0a4.0194,4.0194,0,0,1,4.00761-4.0075h0a4.01942,4.01942,0,0,1,4.00769,4.0075h0a4.01946,4.01946,0,0,1-4.00769,4.0077h0A4.01944,4.01944,0,0,1,17.2865,27.1351Z"/>
            <path class="cls-11" d="M7.9353,27.1351h0a4.01942,4.01942,0,0,1,4.0077-4.0075h0a4.01939,4.01939,0,0,1,4.0076,4.0075h0a4.01944,4.01944,0,0,1-4.0076,4.0077h0A4.01946,4.01946,0,0,1,7.9353,27.1351Z"/>
          </g>
          <path class="cls-2" d="M19.7356,27.1351a3.11705,3.11705,0,1,1-3.1171-3.117A3.11716,3.11716,0,0,1,19.7356,27.1351Z"/>
          <g>
            <g>
              <path class="cls-12" d="M17.8773,25.6959a1.25875,1.25875,0,1,1-1.2588-1.2587A1.25882,1.25882,0,0,1,17.8773,25.6959Z"/>
              <path class="cls-12" d="M17.8773,28.5745a1.25875,1.25875,0,1,1-1.2588-1.2588A1.25871,1.25871,0,0,1,17.8773,28.5745Z"/>
            </g>
            <g>
              <path class="cls-12" d="M18.0578,28.3939a1.2587,1.2587,0,1,1,1.2587-1.2588A1.25873,1.25873,0,0,1,18.0578,28.3939Z"/>
              <path class="cls-12" d="M15.1793,28.3939a1.2587,1.2587,0,1,1,1.2586-1.2588A1.2588,1.2588,0,0,1,15.1793,28.3939Z"/>
            </g>
          </g>
          <path class="cls-11" d="M17.8059,27.1351a1.1874,1.1874,0,1,1-1.1874-1.1874A1.18742,1.18742,0,0,1,17.8059,27.1351Z"/>
        </g>
        <g>
          <g>
            <path class="cls-11" d="M105.7207,100.8518h0a4.67035,4.67035,0,0,1-4.6567-4.6566h0a4.67035,4.67035,0,0,1,4.6567-4.6566h0a4.67035,4.67035,0,0,1,4.6567,4.6566h0A4.67035,4.67035,0,0,1,105.7207,100.8518Z"/>
            <path class="cls-11" d="M105.7207,111.7173h0a4.67037,4.67037,0,0,1-4.6567-4.6567h0a4.67033,4.67033,0,0,1,4.6567-4.6565h0a4.67033,4.67033,0,0,1,4.6567,4.6565h0A4.67037,4.67037,0,0,1,105.7207,111.7173Z"/>
          </g>
          <g>
            <path class="cls-11" d="M106.4968,101.6279h0a4.67035,4.67035,0,0,1,4.6567-4.6566h0a4.67035,4.67035,0,0,1,4.6567,4.6566h0a4.67035,4.67035,0,0,1-4.6567,4.6566h0A4.67035,4.67035,0,0,1,106.4968,101.6279Z"/>
            <path class="cls-11" d="M95.6313,101.6279h0a4.67029,4.67029,0,0,1,4.6567-4.6566h0a4.67026,4.67026,0,0,1,4.6566,4.6566h0a4.67026,4.67026,0,0,1-4.6566,4.6566h0A4.67029,4.67029,0,0,1,95.6313,101.6279Z"/>
          </g>
          <path class="cls-2" d="M109.3425,101.6279a3.6218,3.6218,0,1,1-3.6218-3.6218A3.62178,3.62178,0,0,1,109.3425,101.6279Z"/>
          <g>
            <g>
              <circle class="cls-12" cx="105.7207" cy="99.9556" r="1.4626"/>
              <path class="cls-12" d="M107.1833,103.3003a1.4626,1.4626,0,1,1-1.4626-1.4626A1.46246,1.46246,0,0,1,107.1833,103.3003Z"/>
            </g>
            <g>
              <path class="cls-12" d="M107.393,103.0904a1.4625,1.4625,0,1,1,1.4626-1.4625A1.46244,1.46244,0,0,1,107.393,103.0904Z"/>
              <circle class="cls-12" cx="104.0484" cy="101.6279" r="1.4625"/>
            </g>
          </g>
          <path class="cls-11" d="M107.1004,101.6279a1.3797,1.3797,0,1,1-1.3797-1.3797A1.37971,1.37971,0,0,1,107.1004,101.6279Z"/>
        </g>
        <g>
          <g>
            <path class="cls-11" d="M15.9506,62.1759h0a4.67033,4.67033,0,0,1-4.6567-4.6565h0a4.67037,4.67037,0,0,1,4.6567-4.6567h0a4.67037,4.67037,0,0,1,4.6567,4.6567h0A4.67033,4.67033,0,0,1,15.9506,62.1759Z"/>
            <path class="cls-11" d="M15.9506,73.0414h0a4.67037,4.67037,0,0,1-4.6567-4.6567h0a4.67033,4.67033,0,0,1,4.6567-4.6565h0a4.67033,4.67033,0,0,1,4.6567,4.6565h0A4.67037,4.67037,0,0,1,15.9506,73.0414Z"/>
          </g>
          <g>
            <path class="cls-11" d="M16.7267,62.952h0a4.67035,4.67035,0,0,1,4.6567-4.6566h0a4.67036,4.67036,0,0,1,4.65671,4.6566h0a4.67036,4.67036,0,0,1-4.65671,4.6566h0A4.67035,4.67035,0,0,1,16.7267,62.952Z"/>
            <path class="cls-11" d="M5.8612,62.952h0a4.67029,4.67029,0,0,1,4.6567-4.6566h0a4.67026,4.67026,0,0,1,4.6566,4.6566h0a4.67026,4.67026,0,0,1-4.6566,4.6566h0A4.67029,4.67029,0,0,1,5.8612,62.952Z"/>
          </g>
          <path class="cls-2" d="M19.5724,62.952a3.6218,3.6218,0,1,1-3.6218-3.6218A3.62178,3.62178,0,0,1,19.5724,62.952Z"/>
          <g>
            <g>
              <circle class="cls-12" cx="15.9506" cy="61.2797" r="1.4626"/>
              <path class="cls-12" d="M17.4132,64.6244a1.4626,1.4626,0,1,1-1.4626-1.4626A1.46246,1.46246,0,0,1,17.4132,64.6244Z"/>
            </g>
            <g>
              <path class="cls-12" d="M17.6229,64.4145a1.4625,1.4625,0,1,1,1.4626-1.4625A1.46244,1.46244,0,0,1,17.6229,64.4145Z"/>
              <circle class="cls-12" cx="14.2783" cy="62.952" r="1.4625"/>
            </g>
          </g>
          <path class="cls-11" d="M17.3303,62.952a1.3797,1.3797,0,1,1-1.3797-1.3797A1.37971,1.37971,0,0,1,17.3303,62.952Z"/>
        </g>
        <g>
          <g>
            <path class="cls-11" d="M25.3018,45.6002h0a3.61117,3.61117,0,0,1-3.60069-3.6006h0a3.61119,3.61119,0,0,1,3.60069-3.6007h0a3.61126,3.61126,0,0,1,3.6007,3.6007h0A3.61124,3.61124,0,0,1,25.3018,45.6002Z"/>
            <path class="cls-11" d="M25.3018,54.0019h0a3.61119,3.61119,0,0,1-3.60069-3.6007h0a3.61117,3.61117,0,0,1,3.60069-3.6006h0a3.61124,3.61124,0,0,1,3.6007,3.6006h0A3.61126,3.61126,0,0,1,25.3018,54.0019Z"/>
          </g>
          <g>
            <path class="cls-11" d="M25.9019,46.2003h0a3.61131,3.61131,0,0,1,3.6007-3.6006h0a3.61133,3.61133,0,0,1,3.6008,3.6006h0a3.61137,3.61137,0,0,1-3.6008,3.6008h0A3.61135,3.61135,0,0,1,25.9019,46.2003Z"/>
            <path class="cls-11" d="M17.5002,46.2003h0a3.61131,3.61131,0,0,1,3.6007-3.6006h0a3.61133,3.61133,0,0,1,3.6008,3.6006h0a3.61137,3.61137,0,0,1-3.6008,3.6008h0A3.61135,3.61135,0,0,1,17.5002,46.2003Z"/>
          </g>
          <path class="cls-2" d="M28.1023,46.2003a2.8005,2.8005,0,1,1-2.8005-2.8005A2.80057,2.80057,0,0,1,28.1023,46.2003Z"/>
          <g>
            <g>
              <path class="cls-12" d="M26.4327,44.9073a1.1309,1.1309,0,1,1-1.1309-1.131A1.13094,1.13094,0,0,1,26.4327,44.9073Z"/>
              <path class="cls-12" d="M26.4327,47.4935a1.1309,1.1309,0,1,1-1.1309-1.1309A1.13079,1.13079,0,0,1,26.4327,47.4935Z"/>
            </g>
            <g>
              <path class="cls-12" d="M26.5949,47.3313a1.1309,1.1309,0,1,1,1.1309-1.131A1.13086,1.13086,0,0,1,26.5949,47.3313Z"/>
              <path class="cls-12" d="M24.0087,47.3313a1.1309,1.1309,0,1,1,1.1308-1.131A1.131,1.131,0,0,1,24.0087,47.3313Z"/>
            </g>
          </g>
          <path class="cls-11" d="M26.3686,46.2003a1.0668,1.0668,0,1,1-1.0668-1.0668A1.06688,1.06688,0,0,1,26.3686,46.2003Z"/>
        </g>
        <g>
          <g>
            <path class="cls-11" d="M123.6117,78.8955h0a3.61131,3.61131,0,0,1-3.6007-3.6006h0a3.61135,3.61135,0,0,1,3.6007-3.6008h0a3.61137,3.61137,0,0,1,3.6008,3.6008h0A3.61132,3.61132,0,0,1,123.6117,78.8955Z"/>
            <path class="cls-11" d="M123.6117,87.2971h0a3.61127,3.61127,0,0,1-3.6007-3.6007h0a3.61125,3.61125,0,0,1,3.6007-3.6006h0a3.61126,3.61126,0,0,1,3.6008,3.6006h0A3.61128,3.61128,0,0,1,123.6117,87.2971Z"/>
          </g>
          <g>
            <path class="cls-11" d="M124.2118,79.4956h0a3.61127,3.61127,0,0,1,3.6008-3.6006h0a3.61125,3.61125,0,0,1,3.6007,3.6006h0a3.61127,3.61127,0,0,1-3.6007,3.6007h0A3.61129,3.61129,0,0,1,124.2118,79.4956Z"/>
            <path class="cls-11" d="M115.8102,79.4956h0a3.61118,3.61118,0,0,1,3.6007-3.6006h0a3.61118,3.61118,0,0,1,3.6007,3.6006h0a3.6112,3.6112,0,0,1-3.6007,3.6007h0A3.6112,3.6112,0,0,1,115.8102,79.4956Z"/>
          </g>
          <path class="cls-2" d="M126.4123,79.4956a2.80055,2.80055,0,1,1-2.8006-2.8006A2.80057,2.80057,0,0,1,126.4123,79.4956Z"/>
          <g>
            <g>
              <path class="cls-12" d="M124.7427,78.2025a1.131,1.131,0,1,1-1.131-1.1309A1.131,1.131,0,0,1,124.7427,78.2025Z"/>
              <path class="cls-12" d="M124.7427,80.7888a1.131,1.131,0,1,1-1.131-1.131A1.13094,1.13094,0,0,1,124.7427,80.7888Z"/>
            </g>
            <g>
              <path class="cls-12" d="M124.9048,80.6265a1.13085,1.13085,0,1,1,1.1309-1.1309A1.13085,1.13085,0,0,1,124.9048,80.6265Z"/>
              <path class="cls-12" d="M122.3187,80.6265a1.13085,1.13085,0,1,1,1.1308-1.1309A1.131,1.131,0,0,1,122.3187,80.6265Z"/>
            </g>
          </g>
          <path class="cls-11" d="M124.6786,79.4956a1.06685,1.06685,0,1,1-1.0669-1.0669A1.06688,1.06688,0,0,1,124.6786,79.4956Z"/>
        </g>
        <g>
          <g>
            <path class="cls-11" d="M129.4732,91.5319h0a3.61133,3.61133,0,0,1-3.6008-3.6006h0a3.61137,3.61137,0,0,1,3.6008-3.6008h0a3.61135,3.61135,0,0,1,3.6007,3.6008h0A3.61131,3.61131,0,0,1,129.4732,91.5319Z"/>
            <path class="cls-11" d="M129.4732,99.9336h0a3.61137,3.61137,0,0,1-3.6008-3.6008h0a3.61133,3.61133,0,0,1,3.6008-3.6006h0a3.61131,3.61131,0,0,1,3.6007,3.6006h0A3.61135,3.61135,0,0,1,129.4732,99.9336Z"/>
          </g>
          <g>
            <path class="cls-11" d="M130.0733,92.132h0a3.61125,3.61125,0,0,1,3.6007-3.6006h0a3.61118,3.61118,0,0,1,3.6007,3.6006h0a3.6112,3.6112,0,0,1-3.6007,3.6007h0A3.61127,3.61127,0,0,1,130.0733,92.132Z"/>
            <path class="cls-11" d="M121.6716,92.132h0a3.61125,3.61125,0,0,1,3.6007-3.6006h0a3.61127,3.61127,0,0,1,3.60081,3.6006h0a3.6113,3.6113,0,0,1-3.60081,3.6007h0A3.61127,3.61127,0,0,1,121.6716,92.132Z"/>
          </g>
          <path class="cls-2" d="M132.2737,92.132a2.8005,2.8005,0,1,1-2.8005-2.8005A2.80049,2.80049,0,0,1,132.2737,92.132Z"/>
          <g>
            <g>
              <path class="cls-12" d="M130.60411,90.8389a1.131,1.131,0,1,1-1.13091-1.1309A1.131,1.131,0,0,1,130.60411,90.8389Z"/>
              <path class="cls-12" d="M130.60411,93.4252a1.131,1.131,0,1,1-1.13091-1.1309A1.1308,1.1308,0,0,1,130.60411,93.4252Z"/>
            </g>
            <g>
              <path class="cls-12" d="M130.7663,93.2629a1.13085,1.13085,0,1,1,1.1309-1.1309A1.13087,1.13087,0,0,1,130.7663,93.2629Z"/>
              <path class="cls-12" d="M128.18011,93.2629a1.13085,1.13085,0,1,1,1.13079-1.1309A1.13088,1.13088,0,0,1,128.18011,93.2629Z"/>
            </g>
          </g>
          <path class="cls-11" d="M130.54,92.132a1.06685,1.06685,0,1,1-1.0668-1.0668A1.06694,1.06694,0,0,1,130.54,92.132Z"/>
        </g>
        <path class="cls-13" d="M70.2714,167.7044q-3.32865.29925-6.7451.2953c-.2794,0-.5588,0-.83019-.008l.16759-2.0115.0639-.8861.0399-.455.1677-2.0594c-.008-.1597-.016-.3273-.0319-.4869A52.17938,52.17938,0,0,0,59.5112,146.12c1.6603,1.3091,3.3366,2.6182,5.00491,3.9193q1.58053,1.2453,3.14509,2.4666c.4071,1.5965.7423,3.2009.9978,4.8293l.1836,1.1894.1756,1.1255.2315,1.4848Z"/>
        <path class="cls-10" d="M64.7663,167.0499s-9.3847-15.9098-25.6518-5.3999l17.7267,2.3394a16.93073,16.93073,0,0,1,6.0633,2.0166Z"/>
        <path class="cls-10" d="M32.3983,89.9875S23.0136,74.0777,6.7466,84.5876l17.7266,2.3393a16.93025,16.93025,0,0,1,6.0633,2.0167Z"/>
        <circle class="cls-14" cx="97.0375" cy="122.1835" r="7.7955"/>
        <circle class="cls-12" cx="89.242" cy="128.3578" r="7.7955"/>
      </g>
    </g>
  </g>
</svg>
