<svg xmlns="http://www.w3.org/2000/svg" width="213.6854" height="183.3339" viewBox="0 0 213.6854 183.3339">
  <defs>
    <style>
      .cls-1 {
        fill: #111312;
      }

      .cls-2 {
        fill: #4b3d17;
      }

      .cls-3 {
        fill: #9c7438;
      }

      .cls-4 {
        fill: #b69162;
      }

      .cls-5 {
        fill: #f13222;
      }

      .cls-6 {
        fill: #cfba9f;
      }

      .cls-7 {
        fill: #e7caab;
      }

      .cls-8 {
        fill: #fb7420;
      }

      .cls-9 {
        fill: #f1f1f1;
      }

      .cls-10 {
        fill: #be251d;
      }
    </style>
  </defs>
  <g id="图层_2" data-name="图层 2">
    <g id="Layer_1" data-name="Layer 1">
      <g>
        <path class="cls-1" d="M78.1706,115.594s13.0463-14.999-3.2232-28.0268l3.6487,18.8938a18.21625,18.21625,0,0,1,.0061,6.8768Z"/>
        <path class="cls-2" d="M119.9601,80.8688s11.6924,11.2277,22.956-1.5001L127.3814,81.582a14.85211,14.85211,0,0,1-5.601-.2711Z"/>
        <path class="cls-1" d="M112.152,82.6907h11.3668a9.68262,9.68262,0,0,0-7.6588-3.7584h-5.3377a7.31129,7.31129,0,0,0-6.1051,3.2885h0a14.73622,14.73622,0,0,0-2.3299,9.8326h0l4.9389-6.7596A6.34838,6.34838,0,0,1,112.152,82.6907Z"/>
        <path class="cls-1" d="M157.9232,109.0239s12.88,9.8426,22.642-4.0703l-15.1876,3.945a14.85742,14.85742,0,0,1-5.596.36Z"/>
        <path class="cls-1" d="M117.6336,83.3799s15.0891-5.9237,8.24-21.4786l-4.4879,15.0361a14.85332,14.85332,0,0,1-2.5891,4.974Z"/>
        <path class="cls-1" d="M124.6076,82.6714s10.6007,12.2636,22.9962.6353l-15.673.7631a14.855,14.855,0,0,1-5.5517-.7894Z"/>
        <path class="cls-1" d="M114.8159,85.5004s12.9985,9.6855,2.2976,22.8899l-.373-15.6871a14.85556,14.85556,0,0,0-1.189-5.4801Z"/>
        <path class="cls-1" d="M116.2106,85.6344s21.0228,8.4185,11.307,30.0832L121.3911,94.67a20.7538,20.7538,0,0,0-3.5698-6.9732Z"/>
        <path class="cls-1" d="M139.8134,103.4354s12.929,9.7781,2.134,22.9057l-.2609-15.6894a14.85425,14.85425,0,0,0-1.1499-5.4884Z"/>
        <path class="cls-1" d="M174.4052,114.7761s16.20379.4582,15.0327,17.4139l-9.3188-12.6247a14.85505,14.85505,0,0,0-4.122-3.8019Z"/>
        <path class="cls-2" d="M202.90669,116.2853a1.395,1.395,0,0,1-1.3404,1.3892h-.0813l-3.8019.1543h-.11369l-5.67841.2275c-2.72139.1056-5.451.0894-8.16429-.0488q-2.69295-.13395-5.3778-.4305a92.00675,92.00675,0,0,1-10.6014-1.8116c-.2924-.0731-.5768-.1462-.8692-.2193-.7555-.1787-1.5191-.3737-2.2746-.5768-.4793-.13-.9586-.2681-1.4379-.4062l-2.6321-.7636-2.3396-.6743-2.3071-.6661-7.7906-2.2502-.4224-.1219-1.3242-.3818c-.3412-.0975-.6905-.2031-1.0316-.3168-.2763-.0894-.5444-.1787-.8205-.2763-1.0642-.3736-2.1122-.7961-3.1276-1.2673a35.35752,35.35752,0,0,1-15.8493-14.4682c-.0244-.0406-.0487-.0893-.0731-.1299l-1.1617-2.0309-.7636-1.3405-.5199-.9179-.2843-.4956a3.92662,3.92662,0,0,0-3.1845-1.9659,3.95626,3.95626,0,0,0-2.2259.5443l-.1218.0731-.3737.2437-.9668.6256-8.5379,5.524c-1.4704.9505-2.9082,1.9578-4.2974,2.9977a76.33289,76.33289,0,0,0-6.6127,5.589c-.3817.3656-.7636.7311-1.1372,1.0967-.2275.2275-.4469.4468-.6662.6743-1.048,1.0479-2.0634,2.1365-3.0382,3.2494-.0488.0488-.0894.0975-.13.1463q-.24375.268-.4631.5361c-.268.3087-.5361.6174-.7879.9342a71.41914,71.41914,0,0,0-4.4924,5.9872,72.633,72.633,0,0,0-4.7361,8.018l-.853,1.6735-.7474,1.4703-6.5395,12.8192-.1462.2843h-.2275l.1949-.3737a71.28518,71.28518,0,0,1-10.7475-7.3681l9.9027-15.0125.3737-.5606,1.1698-1.7791q.87735-1.34025,1.8278-2.632c1.1048-1.5435,2.2665-3.0382,3.5013-4.4842.9099-1.0968,1.8685-2.1609,2.8595-3.2007.5118-.5606,1.048-1.1049,1.5923-1.6329.4549-.4631.9098-.9099,1.381-1.3486.13-.1299.26-.2518.398-.3736q1.03575-.97485,2.1203-1.901c.3493-.3087.7068-.6092,1.0642-.8936,1.2511-1.0641,2.5427-2.0634,3.8669-3.0301q1.76685-1.29165,3.615-2.4777c.6661-.4387,1.3404-.853,2.0228-1.2673l4.3705-2.632h.0081l.2437-.1463,5.3779-3.2413,2.7945-1.6735,3.6557-2.2015a10.32329,10.32329,0,0,1,4.4517-1.4541,10.01449,10.01449,0,0,1,1.9741.0081,10.26942,10.26942,0,0,1,2.5264.5686c.1869.065.3737.1382.5524.2113a10.61863,10.61863,0,0,1,1.641.8773,9.9194,9.9194,0,0,1,.9992.7393c.1381.1137.2681.2274.3981.3574a10.0626,10.0626,0,0,1,1.4622,1.6816,9.88747,9.88747,0,0,1,.8368,1.4216l.0487.0975.5768,1.178.528,1.0886c.3006.6092.6093,1.2185.9423,1.8034a35.269,35.269,0,0,0,7.7825,9.5371c.6905.6012,1.4054,1.1617,2.1365,1.706a35.77074,35.77074,0,0,0,9.326,4.9067l4.5492,1.5841,2.4696.853,1.0398.3656h.0082l1.9334.6742h.0162l1.1698.4062,1.3892.4874c.1137.0406.2193.0731.333.1138q2.99775,1.0356,6.0684,1.844c.4387.1219.8855.2437,1.3323.3493a90.34939,90.34939,0,0,0,22.04759,2.7296h8.9522a1.37909,1.37909,0,0,1,.853.3006,1.19505,1.19505,0,0,1,.4143.5442A1.27769,1.27769,0,0,1,202.90669,116.2853Z"/>
        <path class="cls-3" d="M156.1624,108.6781s16.1429-1.4751,13.9092-18.3237l-8.5075,13.1851a14.85578,14.85578,0,0,1-3.875,4.0533Z"/>
        <path class="cls-3" d="M121.5058,80.8701s15.9977,2.6161,18.0562-14.2548L128.0226,77.2486a14.85382,14.85382,0,0,1-4.7669,2.9532Z"/>
        <path class="cls-3" d="M121.1461,83.446s4.7678,15.4932-11.6663,19.8273l8.9649-12.8785a14.85672,14.85672,0,0,0,2.2774-5.1242Z"/>
        <path class="cls-2" d="M157.5995,108.4285s15.4486,4.9103,19.9339-11.4832l-12.9605,8.8459a14.85649,14.85649,0,0,1-5.145,2.2301Z"/>
        <path class="cls-2" d="M192.37579,116.9749s14.638-6.9643,21.30961,8.6675L199.643,118.64a14.85511,14.85511,0,0,0-5.4004-1.5102Z"/>
        <path class="cls-2" d="M191.59119,115.4691s15.4486,4.9104,19.934-11.4831l-12.9605,8.8458a14.85449,14.85449,0,0,1-5.1451,2.2302Z"/>
        <path class="cls-2" d="M134.8397,99.9077s15.4486,4.9103,19.934-11.4832l-12.9605,8.8458a14.85482,14.85482,0,0,1-5.145,2.2302Z"/>
        <path class="cls-2" d="M144.1373,107.5501s14.4602,7.3264,6.1684,22.1625l-3.0434-15.3935a14.85393,14.85393,0,0,0-2.1063-5.197Z"/>
        <path class="cls-3" d="M155.5231,110.0722s16.2095.1432,15.3683,17.1184l-9.5625-12.4412a14.85512,14.85512,0,0,0-4.195-3.7211Z"/>
        <path class="cls-3" d="M194.87279,116.1583s16.20961.1432,15.3684,17.1184l-9.5625-12.4411a14.85534,14.85534,0,0,0-4.1951-3.7211Z"/>
        <path class="cls-1" d="M96.3975,102.0933c-.3817.3656-.7636.7311-1.1372,1.0967-.2275.2275-.4469.4468-.6662.6743-1.048,1.0479-2.0634,2.1365-3.0382,3.2494-.0488.0488-.0894.0975-.13.1463q-.24375.268-.4631.5361c-.268.3087-.5361.6174-.7879.9342a71.41914,71.41914,0,0,0-4.4924,5.9872,72.633,72.633,0,0,0-4.7361,8.018l-.8855,1.6897-.7636,1.4541-6.6696,12.7298a71.28518,71.28518,0,0,1-10.7475-7.3681c-.4793-.39-.9505-.788-1.4135-1.2023l11.2999-13.8915.39-.4793,3.022-1.6897,3.6313-2.0309,2.4371-1.3729,1.4622-.8205,6.2065-3.4688.1137-.065h.0081Z"/>
        <g>
          <path class="cls-4" d="M129.154,15.5134a16.46916,16.46916,0,0,1-.7673,4.9784l-1.822,8.8227-5.0351,24.3626-.0113.0416a73.693,73.693,0,0,1-2.9296,9.2763c-14.8255,37.8121-53.1933,35.8541-53.1933,35.8541L0,183.3339,80.6632,45.5991l4.6759-7.9798,1.1076-1.8976.3704-.6313.2457-1.0584.3289-1.4099,1.8447-7.9344v-.0038l.0983-.4272c.0415-.1549.0793-.3099.1209-.4611.0076-.034.0189-.0643.0265-.0983.0491-.1777.0945-.3515.1436-.5217.1097-.3893.2231-.7749.3365-1.1491l.0037-.0076c.1399-.4498.2798-.8921.4272-1.323.2873-.8505.5935-1.6595.9072-2.4381.0794-.1928.1588-.3856.2419-.5746.0794-.1852.1588-.3705.2382-.5519q.42525-.9639.8807-1.8485c.0454-.0945.0945-.189.1437-.2797.0869-.1701.1776-.3402.2684-.5065.0793-.1475.1587-.2949.2419-.4385.1021-.1852.2079-.3667.3137-.5481s.2117-.3591.3176-.533c.1058-.1777.2154-.3478.3251-.5217.1058-.1701.2154-.3364.325-.5027.2193-.3289.4385-.6502.6615-.9602l.0038-.0037c.1134-.155.223-.31.3365-.4612.1928-.2608.3893-.5103.5821-.756.1512-.189.2986-.3667.4498-.5444.1134-.1398.2306-.2721.3478-.4082.2343-.2684.4687-.5254.7031-.7749.1172-.1248.2344-.2457.3515-.3667l.3554-.3553c.136-.1361.2721-.2684.412-.3969.0983-.0945.2003-.189.3024-.2798.2041-.1852.4082-.3666.6124-.5405.0793-.0681.1625-.1399.2419-.2079.3477-.2873.6917-.5595,1.0395-.8203q.27225-.20415.5443-.3969c.3024-.2155.6049-.4158.9035-.6086.1021-.0643.2003-.1285.3024-.189A22.19809,22.19809,0,0,1,110.609.8202c.1096-.0189.2154-.0378.3175-.0529a11.7014,11.7014,0,0,1,1.4478-.1474A16.842,16.842,0,0,1,116.7932,0c.155,0,.3099.0038.4611.0075q.2325.0057.4537.0227.1473.0057.2948.0227c.0945.0075.1852.0151.276.0264.2494.0265.4951.0567.7371.0983.1398.0227.2797.0492.4158.0794.1587.0303.3137.0643.4687.1021l.3402.0907c.2571.0718.5065.1512.7522.2381a.78893.78893,0,0,1,.087.0303c.1021.0378.2041.0756.3062.1171.1247.0492.2457.1021.3666.155s.2382.1097.3554.1664.2343.1172.3477.1776c.2306.1248.4537.2533.6691.3932.1247.0793.2495.1625.3705.2457.2419.1701.48.3477.7068.5405.1134.0945.2268.1928.3365.2911.0075.0075.0189.0151.0264.0227.1021.0945.2004.1852.2986.2835.1059.102.2079.2079.31.3175.0983.102.189.2041.2835.31.1096.1247.2193.257.3213.3893.0907.1096.1777.223.2608.3364.0794.1021.155.2079.2231.3138a.66441.66441,0,0,1,.0605.0831c.068.0983.136.2004.2003.3062.0983.1437.189.2911.2759.4423.1097.1852.2155.3742.3138.567.1058.1966.2079.4007.3024.6086.0794.1663.155.3402.2306.5141.0038.0113.0113.0227.0151.034.0454.1059.087.2155.1285.3251.0643.1474.121.2948.1739.4461.0718.2041.1437.4158.2117.6274.0718.2269.1399.4574.2041.688v.0038q.10215.3516.1815.7031l.0037.0113c.053.2155.0983.4347.1437.654.0113.0567.0227.1134.0302.1701.0416.2079.0794.4196.1134.6313.0378.2343.0719.4687.1021.7068.0076.053.0151.1059.0189.155q.03975.31185.068.6237a.34443.34443,0,0,1,.0038.0605c.0265.2533.0454.5103.0605.7674.0151.2192.0265.4385.0302.6615.0076.1172.0114.2306.0114.3478C129.1503,15.1127,129.154,15.3131,129.154,15.5134Z"/>
          <path class="cls-5" d="M121.5183,53.7187a73.693,73.693,0,0,1-2.9296,9.2763c-14.8255,37.8121-53.1933,35.8541-53.1933,35.8541C102.0395,45.6747,121.5183,53.7187,121.5183,53.7187Z"/>
          <path class="cls-3" d="M49.6975,98.4711l-10.241,17.4868v16.3997L65.3938,98.8491a45.81506,45.81506,0,0,0,7.044-.378Z"/>
          <path class="cls-4" d="M129.154,15.5134a16.46916,16.46916,0,0,1-.7673,4.9784l-1.822,8.8227-5.0351,24.3626-.0113.0416a73.693,73.693,0,0,1-2.9296,9.2763c-2.9938-.412-7.1217-2.5818-9.1553-10.8299l-28.7702-6.566,4.6759-7.9798,1.1076-1.8976.3704-.6313.2457-1.0584.3289-1.4099,1.8447-7.9344v-.0038l.0983-.4272c.0415-.1549.0793-.3099.1209-.4611.0076-.034.0189-.0643.0265-.0983.0491-.1777.0945-.3515.1436-.5217.1097-.3893.2231-.7749.3365-1.1491l.0037-.0076c.1399-.4498.2798-.8921.4272-1.323.2873-.8505.5935-1.6595.9072-2.4381.0794-.1928.1588-.3856.2419-.5746.0794-.1852.1588-.3705.2382-.5519q.42525-.9639.8807-1.8485c.0454-.0945.0945-.189.1437-.2797.0869-.1701.1776-.3402.2684-.5065.0793-.1475.1587-.2949.2419-.4385.1021-.1852.2079-.3667.3137-.5481s.2117-.3591.3176-.533c.1058-.1777.2154-.3478.3251-.5217.1058-.1701.2154-.3364.325-.5027.2193-.3289.4385-.6502.6615-.9602l.0038-.0037c.1134-.155.223-.31.3365-.4612.1928-.2608.3893-.5103.5821-.756.1512-.189.2986-.3667.4498-.5444.1134-.1398.2306-.2721.3478-.4082.2343-.2684.4687-.5254.7031-.7749.1172-.1248.2344-.2457.3515-.3667l.3554-.3553c.136-.1361.2721-.2684.412-.3969.0983-.0945.2003-.189.3024-.2798.2041-.1852.4082-.3666.6124-.5405.0793-.0681.1625-.1399.2419-.2079.3477-.2873.6917-.5595,1.0395-.8203q.27225-.20415.5443-.3969c.3024-.2155.6049-.4158.9035-.6086.1021-.0643.2003-.1285.3024-.189A22.19809,22.19809,0,0,1,110.609.8202c.1096-.0189.2154-.0378.3175-.0529a11.7014,11.7014,0,0,1,1.4478-.1474A16.842,16.842,0,0,1,116.7932,0c.155,0,.3099.0038.4611.0075q.2325.0057.4537.0227.1473.0057.2948.0227c.0945.0075.1852.0151.276.0264.2494.0265.4951.0567.7371.0983.1398.0227.2797.0492.4158.0794.1587.0303.3137.0643.4687.1021l.3402.0907c.2571.0718.5065.1512.7522.2381a.78893.78893,0,0,1,.087.0303c.1021.0378.2041.0756.3062.1171.1247.0492.2457.1021.3666.155s.2382.1097.3554.1664.2343.1172.3477.1776c.2306.1248.4537.2533.6691.3932.1247.0793.2495.1625.3705.2457.2457.1701.48.3515.7068.5405.1134.0945.2268.1928.3365.2911.0075.0075.0189.0151.0264.0227.1021.0945.2004.1852.2986.2835.1059.102.2079.2079.31.3175.0983.102.189.2041.2835.31.1096.1247.2193.257.3213.3893.0907.1096.1777.223.2608.3364.0794.1021.155.2079.2231.3138a.66441.66441,0,0,1,.0605.0831c.068.0983.136.2004.2003.3062.0983.1437.189.2911.2759.4423.1097.1852.2155.3742.3138.567.1058.1966.2079.4007.3024.6086.0794.1663.155.3402.2306.5141.0038.0113.0113.0227.0151.034.0454.1059.087.2155.1285.3251.0643.1474.121.2948.1739.4461.0718.2041.1437.4158.2117.6274.0718.2269.1399.4574.2041.688v.0038q.10215.3516.1815.7031l.0037.0113c.053.2155.0983.4347.1437.654.0113.0567.0227.1134.0302.1701.0416.2079.0794.4196.1134.6313.0378.2343.0719.4687.1021.7068.0076.053.0151.1059.0189.155q.03975.31185.068.6237a.34443.34443,0,0,1,.0038.0605c.0265.2533.0454.5103.0605.7674.0151.2192.0265.4385.0302.6615.0076.1172.0114.2306.0114.3478C129.1503,15.1127,129.154,15.3131,129.154,15.5134Z"/>
          <path class="cls-6" d="M129.154,15.5134a16.46916,16.46916,0,0,1-.7673,4.9784l-1.822,8.8227-5.0351,24.3626-.0113.0416C95.9687,38.2015,96.9591,16.5983,99.1024,6.6453,105.6117.6993,112.3743.6199,112.3743.6199A16.842,16.842,0,0,1,116.7932,0a11.54678,11.54678,0,0,1,6.3316,1.7275C127.1468,4.2828,129.154,9.4388,129.154,15.5134Z"/>
          <path class="cls-7" d="M129.154,15.5134a16.46916,16.46916,0,0,1-.7673,4.9784l-1.822,8.8227a11.531,11.531,0,0,1-6.755,2.2264c-7.1482,0-12.943-6.7852-12.943-15.1581s5.7948-15.1581,12.943-15.1581a11.1432,11.1432,0,0,1,3.3151.5028,11.31441,11.31441,0,0,1,3.7196,3.9615,18.19312,18.19312,0,0,1,2.2114,7.5488Q129.1521,14.34915,129.154,15.5134Z"/>
          <path class="cls-8" d="M129.0558,13.2378l-7.0386,1.9392-7.8285-2.4306L126.8444,5.689A18.19312,18.19312,0,0,1,129.0558,13.2378Z"/>
          <path class="cls-6" d="M118.5669,15.1713a2.04013,2.04013,0,0,0,4.0783,0Z"/>
          <path class="cls-8" d="M109.4334,52.1651c-1.0093,9.7375-7.254,18.855-15.8764,26.9897-.3629.3441-.7333.688-1.1075,1.0282-15.5324,14.1867-38.0428,25.2774-51.8401,31.2802-7.3749,3.2093-12.2588,4.9633-12.2588,4.9633.0567-.2722.1172-.5443.1852-.8165.1134-.4726.2382-.9375.378-1.3987a27.7062,27.7062,0,0,1,2.1244-5.1825c.3403-.6388.7032-1.2625,1.0963-1.8711a27.92275,27.92275,0,0,1,7.4808-7.8437l3.0165-2.1244a28.04765,28.04765,0,0,0,7.613-8.0477l1.066-1.7049,1.6973-2.7141v-.0038l19.7585-31.609c6.8041-10.0172,18.8588-13.0413,18.8588-13.0413C108.0272,37.9898,109.4334,52.1651,109.4334,52.1651Z"/>
          <path class="cls-1" d="M93.557,79.1548c-.3629.3441-.7333.688-1.1075,1.0282-15.5324,14.1867-38.0428,25.2774-51.8401,31.2802-7.3749,3.2093-12.2588,4.9633-12.2588,4.9633.0567-.2722.1172-.5443.1852-.8165L90.6842,74.7813l1.7388,2.6461Z"/>
          <path class="cls-2" d="M93.5003,76.7167l-1.0773.7107L40.6094,111.4632c-7.3749,3.2093-12.2588,4.9633-12.2588,4.9633.0567-.2722.1172-.5443.1852-.8165.1134-.4726.2382-.9375.378-1.3987a27.7062,27.7062,0,0,1,2.1244-5.1825L89.501,70.6232l1.735,2.6461Z"/>
          <path class="cls-3" d="M92.3172,72.5586l-1.0812.7107-62.3222,40.942a27.7062,27.7062,0,0,1,2.1244-5.1825c.3403-.6388.7032-1.2625,1.0963-1.8711a27.92275,27.92275,0,0,1,7.4808-7.8437l3.0165-2.1244a27.56559,27.56559,0,0,0,3.7649-3.1866L88.314,66.4651l1.7389,2.6461Z"/>
          <path class="cls-8" d="M91.1302,68.4005l-1.0773.7107L32.1345,107.1577a27.92275,27.92275,0,0,1,7.4808-7.8437l3.0165-2.1244a28.04765,28.04765,0,0,0,7.613-8.0477l1.066-1.7049,1.6973-2.7141v-.0038L87.1271,62.307Z"/>
          <path class="cls-2" d="M109.4334,52.1651c-1.0509,10.1495-7.7946,19.6261-16.9839,28.0179-15.2111,7.7681-32.9397,7.7757-41.1387,7.254L72.7666,53.1101c6.8041-10.0172,18.8588-13.0413,18.8588-13.0413C108.0272,37.9898,109.4334,52.1651,109.4334,52.1651Z"/>
          <path class="cls-3" d="M91.6239,40.0688s-12.0548,3.0241-18.859,13.0413l-1.9337,3.094v2.3992A21.59735,21.59735,0,0,0,92.4286,80.2007h0c9.1967-8.3966,15.9506-17.8788,17.0031-28.0356C109.4317,52.1651,108.0259,37.9898,91.6239,40.0688Z"/>
          <polygon class="cls-8" points="42.787 128.055 79.041 97.311 65.394 98.849 42.787 128.055"/>
          <path class="cls-3" d="M129.9689,23.5612a8.38787,8.38787,0,0,0-4.4076-6.5509l-3.78-1.9543,5.6701-6.2976S134.3803,15.056,129.9689,23.5612Z"/>
          <path class="cls-3" d="M129.1297,20.6694l-.6275.8846-1.4288,2.0072-5.1485-8.2746-.0076-.0076-.136-.223.2343.121,3.5457,1.8333A7.98879,7.98879,0,0,1,129.1297,20.6694Z"/>
          <path class="cls-9" d="M118.5669,10.9622a3.08705,3.08705,0,1,1-3.0871-3.0871A3.08711,3.08711,0,0,1,118.5669,10.9622Z"/>
          <path class="cls-1" d="M117.6849,10.9622a2.20505,2.20505,0,1,1-2.2051-2.205A2.205,2.205,0,0,1,117.6849,10.9622Z"/>
          <path class="cls-1" d="M128.7555,13.8426a16.973,16.973,0,0,1-1.6919-.4301,4.0052,4.0052,0,0,0-3.0838.3814l-2.1985,1.2621,5.6701-6.2976S129.0428,13.8426,128.7555,13.8426Z"/>
          <path d="M127.3893,11.9072a.77965.77965,0,1,1-.7796-.7796A.77964.77964,0,0,1,127.3893,11.9072Z"/>
          <path class="cls-1" d="M129.1297,20.6694l-.6275.8846-6.5773-6.2674-.0076-.0076.0983-.102,3.5457,1.8333A7.98879,7.98879,0,0,1,129.1297,20.6694Z"/>
          <g>
            <path class="cls-8" d="M101.6664,55.3782,94.0787,65.9624s4.5832.126,10.8283-8.6942Z"/>
            <polygon class="cls-2" points="104.907 57.268 98.426 67.474 101.666 55.378 104.907 57.268"/>
          </g>
          <g>
            <path class="cls-8" d="M89.3993,47.9344,81.8116,58.5186s4.5832.126,10.8283-8.6942Z"/>
            <polygon class="cls-2" points="92.64 49.824 86.159 60.031 89.399 47.934 92.64 49.824"/>
          </g>
          <g>
            <path class="cls-8" d="M95.1852,68.1044,87.5975,78.6886s4.5832.126,10.8283-8.6941Z"/>
            <polygon class="cls-2" points="98.426 69.995 91.944 80.201 95.185 68.104 98.426 69.995"/>
          </g>
          <g>
            <path class="cls-8" d="M78.058,49.33,70.4703,59.9143s4.5832.126,10.8283-8.6942Z"/>
            <polygon class="cls-2" points="81.299 51.22 74.817 61.426 78.058 49.33 81.299 51.22"/>
          </g>
          <g>
            <path class="cls-8" d="M90.4664,59.0868,82.8787,69.671s4.5832.126,10.8283-8.6941Z"/>
            <polygon class="cls-2" points="93.707 60.977 87.226 71.183 90.466 59.087 93.707 60.977"/>
          </g>
          <g>
            <path class="cls-8" d="M79.707,62.0563,72.1193,72.6405s4.5833.126,10.8283-8.6942Z"/>
            <polygon class="cls-2" points="82.948 63.946 76.466 74.153 79.707 62.056 82.948 63.946"/>
          </g>
          <g>
            <path class="cls-8" d="M67.2269,68.1044l-6.6393,9.2613s4.0104.1103,9.4748-7.6075Z"/>
            <polygon class="cls-1" points="70.062 69.758 64.391 78.689 67.227 68.104 70.062 69.758"/>
          </g>
          <g>
            <path class="cls-8" d="M81.2213,74.9085,74.582,84.1698s4.0104.1102,9.4749-7.6075Z"/>
            <polygon class="cls-1" points="84.057 76.562 78.386 85.493 81.221 74.909 84.057 76.562"/>
          </g>
          <g>
            <path class="cls-8" d="M70.7939,77.3658l-6.6393,9.2613s4.0103.1102,9.4748-7.6075Z"/>
            <polygon class="cls-1" points="73.629 79.02 67.958 87.95 70.794 77.366 73.629 79.02"/>
          </g>
          <g>
            <path class="cls-8" d="M60.2549,80.2007,53.6156,89.462s4.0104.1102,9.4749-7.6075Z"/>
            <polygon class="cls-1" points="63.091 81.855 57.419 90.785 60.255 80.201 63.091 81.855"/>
          </g>
          <g>
            <path class="cls-8" d="M99.5322,45.5499,91.9445,56.1342s4.5833.126,10.8284-8.6942Z"/>
            <polygon class="cls-2" points="102.773 47.44 96.292 57.646 99.532 45.55 102.773 47.44"/>
          </g>
          <g>
            <path class="cls-6" d="M108.3145,15.1713a2.04013,2.04013,0,0,0,4.0783,0Z"/>
            <path class="cls-6" d="M113.4407,15.1713a2.04013,2.04013,0,0,0,4.0783,0Z"/>
            <path class="cls-6" d="M113.4407,21.0934a2.04013,2.04013,0,0,0,4.0783,0Z"/>
            <path class="cls-6" d="M110.8776,18.2703a2.04013,2.04013,0,0,0,4.0783,0Z"/>
            <path class="cls-6" d="M116.0038,18.2703a2.04013,2.04013,0,0,0,4.0783,0Z"/>
          </g>
          <g>
            <path class="cls-7" d="M109.9757,4.4733a2.04011,2.04011,0,0,0-1.9558,3.5787Z"/>
            <path class="cls-7" d="M107.5173,8.9716a2.04011,2.04011,0,0,0-1.9558,3.5787Z"/>
            <path class="cls-7" d="M102.3207,6.1315a2.04013,2.04013,0,0,0-1.9559,3.5787Z"/>
            <path class="cls-7" d="M106.0271,5.2363a2.04006,2.04006,0,0,0-1.9558,3.5786Z"/>
            <path class="cls-7" d="M103.5687,9.7345a2.04011,2.04011,0,0,0-1.9558,3.5787Z"/>
          </g>
          <g>
            <path class="cls-4" d="M110.8776,41.6004a2.04013,2.04013,0,0,0,4.0783,0Z"/>
            <path class="cls-4" d="M116.0038,41.6004a2.04013,2.04013,0,0,0,4.0783,0Z"/>
            <path class="cls-4" d="M116.0038,47.5225a2.04013,2.04013,0,0,0,4.0783,0Z"/>
            <path class="cls-4" d="M113.4407,44.6994a2.04013,2.04013,0,0,0,4.0783,0Z"/>
            <path class="cls-4" d="M118.5669,44.6994a2.04013,2.04013,0,0,0,4.0783,0Z"/>
          </g>
          <g>
            <path class="cls-4" d="M103.5479,32.6211a2.04013,2.04013,0,0,0,4.0783,0Z"/>
            <path class="cls-4" d="M108.6741,32.6211a2.04013,2.04013,0,0,0,4.0783,0Z"/>
            <path class="cls-4" d="M108.6741,38.5432a2.04013,2.04013,0,0,0,4.0783,0Z"/>
            <path class="cls-4" d="M106.111,35.7201a2.04013,2.04013,0,0,0,4.0783,0Z"/>
            <path class="cls-4" d="M111.2372,35.7201a2.04013,2.04013,0,0,0,4.0783,0Z"/>
          </g>
          <g>
            <path class="cls-10" d="M107.7471,65.3153a2.04013,2.04013,0,0,0,4.0783,0Z"/>
            <path class="cls-10" d="M112.8733,65.3153a2.04013,2.04013,0,0,0,4.0783,0Z"/>
            <path class="cls-10" d="M110.3102,68.4143a2.04013,2.04013,0,0,0,4.0783,0Z"/>
          </g>
          <g>
            <path class="cls-10" d="M102.741,71.6145a2.04008,2.04008,0,0,0,4.0782,0Z"/>
            <path class="cls-10" d="M107.8672,71.6145a2.04008,2.04008,0,0,0,4.0782,0Z"/>
            <path class="cls-10" d="M105.3041,74.7136a2.04008,2.04008,0,0,0,4.0782,0Z"/>
          </g>
          <g>
            <path class="cls-10" d="M97.7184,78.4787a2.04013,2.04013,0,0,0,4.0783,0Z"/>
            <path class="cls-10" d="M102.8446,78.4787a2.04013,2.04013,0,0,0,4.0783,0Z"/>
            <path class="cls-10" d="M100.2815,81.5777a2.04013,2.04013,0,0,0,4.0783,0Z"/>
          </g>
          <g>
            <path class="cls-3" d="M89.3014,29.66a2.04008,2.04008,0,0,0,4.0782,0Z"/>
            <path class="cls-3" d="M94.4276,29.66a2.04008,2.04008,0,0,0,4.0782,0Z"/>
            <path class="cls-3" d="M94.4276,35.5822a2.04008,2.04008,0,0,0,4.0782,0Z"/>
            <path class="cls-3" d="M91.8645,32.7591a2.04008,2.04008,0,0,0,4.0782,0Z"/>
            <path class="cls-3" d="M96.9907,32.7591a2.04008,2.04008,0,0,0,4.0782,0Z"/>
          </g>
          <path class="cls-3" d="M91.5596,20.6953a2.04008,2.04008,0,0,0,4.0782,0Z"/>
          <path class="cls-3" d="M91.5596,26.6175a2.04008,2.04008,0,0,0,4.0782,0Z"/>
          <path class="cls-3" d="M93.0732,23.7956a2.037,2.037,0,0,1-3.8368.8921v-.0038l.0983-.4272c.0415-.1549.0793-.3099.1209-.4611Z"/>
          <path class="cls-3" d="M94.1227,23.7944a2.04008,2.04008,0,0,0,4.0782,0Z"/>
          <path class="cls-3" d="M90.5103,32.6221a2.03784,2.03784,0,0,1-3.4475,1.4099l.3289-1.4099Z"/>
          <path class="cls-3" d="M86.4334,38.5432a2.04008,2.04008,0,0,0,4.0782,0Z"/>
          <path class="cls-3" d="M87.9474,35.7217a2.04508,2.04508,0,0,1-2.6083,1.8976l1.1076-1.8976Z"/>
          <path class="cls-3" d="M88.9965,35.7201a2.04008,2.04008,0,0,0,4.0782,0Z"/>
        </g>
        <path class="cls-1" d="M97.1275,91.7086h11.3668a9.68271,9.68271,0,0,0-7.6588-3.7585H95.4978a7.31129,7.31129,0,0,0-6.1051,3.2885h0a14.73622,14.73622,0,0,0-2.3299,9.8326h0l4.9389-6.7595A6.34811,6.34811,0,0,1,97.1275,91.7086Z"/>
        <path class="cls-2" d="M87.8596,108.0325s11.2594-11.6618,22.9963.631l-15.6073-1.6243a14.85368,14.85368,0,0,0-5.5867.4827Z"/>
        <path class="cls-2" d="M72.3839,123.483s10.2086-17.0576-8.0964-27.0248l6.911,17.9591a18.21767,18.21767,0,0,1,1.214,6.7687Z"/>
        <path class="cls-3" d="M88.2717,108.0312S92.539,92.3927,108.74,97.53l-14.4665,6.0782a14.85477,14.85477,0,0,0-4.6669,3.1089Z"/>
        <path class="cls-3" d="M88.5652,108.9512s12.1581-9.4934,21.5851,3.6484l-14.4907-3.6031a14.13438,14.13438,0,0,0-5.3283-.2871Z"/>
        <path class="cls-3" d="M77.0671,126.1746s12.1581-9.4934,21.585,3.6484l-14.4906-3.6031a14.13684,14.13684,0,0,0-5.3284-.2871Z"/>
        <g>
          <circle class="cls-5" cx="122.6452" cy="89.8337" r="4.5677"/>
          <rect class="cls-7" x="121.7716" y="88.9601" width="1.7472" height="1.7472" rx="0.6842"/>
        </g>
        <g>
          <circle class="cls-5" cx="87.2257" cy="110.4152" r="4.5677"/>
          <path class="cls-7" d="M87.0364,109.5416h.3788a.6841.6841,0,0,1,.6841.6841v.3789a.6842.6842,0,0,1-.6842.6842h-.3788a.6841.6841,0,0,1-.6841-.6841v-.3789A.6842.6842,0,0,1,87.0364,109.5416Z"/>
        </g>
        <g>
          <circle class="cls-5" cx="85.3391" cy="101.0712" r="4.5677"/>
          <rect class="cls-7" x="84.4655" y="100.1976" width="1.7472" height="1.7472" rx="0.6842"/>
        </g>
        <g>
          <circle class="cls-5" cx="130.1978" cy="84.8314" r="4.5677"/>
          <rect class="cls-7" x="130.5645" y="83.0842" width="1.7472" height="1.7472" rx="0.6842"/>
        </g>
        <g>
          <circle class="cls-5" cx="160.5396" cy="117.0395" r="4.5677"/>
          <path class="cls-7" d="M160.3503,116.1659h.3788a.6841.6841,0,0,1,.6841.6841v.3789a.6842.6842,0,0,1-.6842.6842h-.3787a.6842.6842,0,0,1-.6842-.6842v-.3788a.6842.6842,0,0,1,.6842-.6842Z"/>
        </g>
        <g>
          <circle class="cls-5" cx="151.4042" cy="113.3454" r="4.5677"/>
          <rect class="cls-7" x="150.5307" y="112.4718" width="1.7471" height="1.7471" rx="0.6841"/>
        </g>
        <g>
          <circle class="cls-5" cx="159.2994" cy="107.4694" r="4.5677"/>
          <path class="cls-7" d="M160.3503,105.7223h.3787a.6842.6842,0,0,1,.6842.6842v.3788a.6841.6841,0,0,1-.6841.6841h-.3789a.6841.6841,0,0,1-.6841-.6841v-.3788A.6842.6842,0,0,1,160.3503,105.7223Z"/>
        </g>
        <path class="cls-3" d="M195.75,116.3196s16.143-1.4751,13.9093-18.3238l-8.5075,13.1851a14.85443,14.85443,0,0,1-3.875,4.0533Z"/>
        <path class="cls-9" d="M115.1442,10.5619a.85175.85175,0,1,1-.8517-.8517A.85176.85176,0,0,1,115.1442,10.5619Z"/>
      </g>
    </g>
  </g>
</svg>
