<svg xmlns="http://www.w3.org/2000/svg" width="164.7721" height="213.3154" viewBox="0 0 164.7721 213.3154">
  <defs>
    <style>
      .cls-1 {
        fill: #111312;
      }

      .cls-2 {
        fill: #4b3d17;
      }

      .cls-3 {
        fill: #9c7438;
      }

      .cls-4 {
        fill: #fb8c19;
      }

      .cls-5 {
        fill: #1e1e1e;
      }

      .cls-6 {
        fill: #b69162;
      }

      .cls-7 {
        fill: #cfba9f;
      }

      .cls-8 {
        fill: #fb7420;
      }

      .cls-9 {
        fill: #174449;
      }

      .cls-10 {
        fill: #e5e5e5;
      }

      .cls-11 {
        fill: #32595b;
      }

      .cls-12 {
        fill: #f13222;
      }

      .cls-13 {
        fill: #cd5917;
      }
    </style>
  </defs>
  <g id="图层_2" data-name="图层 2">
    <g id="Layer_1" data-name="Layer 1">
      <g>
        <g>
          <path class="cls-1" d="M142.2659,62.4827s18.209-7.3561,9.7262-26.1184l-5.2575,18.2689a17.9948,17.9948,0,0,1-3.07729,6.0567Z"/>
          <path class="cls-2" d="M148.0105,77.2171a.41949.41949,0,0,1-.09619.0592l-.866.4663-.38491.2146-1.01409.5404-.50331.2739-.17769.0962-.47371.2517-.31829.1776-.02961.0148-1.62839.8808-.36271.1999-.4219.2221-.1702.0962-.5256.2813-.7105.3849-1.0807.5847-.4738.2591-4.6114,2.4944-2.4426,1.325L99.1725,139.2453a60.91193,60.91193,0,0,1-8.416,1.8061l40.0816-62.0209,2.3834-3.6861.7253-1.1251.4516-.6958,2.6351-4.0785v-.0073l.23681-.3628,2.93859-4.5521,1.55441-2.3909.55519-.866a1.58714,1.58714,0,0,1,.4367-.4515,1.65926,1.65926,0,0,1,1.0437-.3183,1.67914,1.67914,0,0,1,.6513.1555.82156.82156,0,0,1,.1554.0888,1.156,1.156,0,0,1,.2961.2146.84358.84358,0,0,1,.0815.0814,1.70423,1.70423,0,0,1,.185,2.0578l-.074.1184-2.2132,3.4641-.1924.3109-1.9838,3.1014-.333.5181-.15549.2369-.21461.3479-.3035.4737-1.1103,1.7321-.1629.2664-.1036.1555-.1554.2443-1.0215,1.6062-.3331.5181-.1332.2073L135.79,77.787l-.0519.0814-.3256.5108.5329-.2813,2.0873-1.1029,1.99861-1.0585.05179-.0296.4219-.222.0296-.0148h.0074l.1036-.0593.0222-.0074.1703-.0888.0073-.0074.0075-.0074.0296-.0074.148-.0814.0222-.0148.037-.0222.0518-.0222.3701-.1925v-.0074h.0149l2.1613-1.1473.2443-.1258,1.6876-.8956a.96419.96419,0,0,1,.1258-.0593,2.40982,2.40982,0,0,1,1.3472-.2072,2.45579,2.45579,0,0,1,1.7839,1.2065,2.57552,2.57552,0,0,1,.28871.8809c0,.0221.00729.037.00729.0591A2.41754,2.41754,0,0,1,148.0105,77.2171Z"/>
          <path class="cls-2" d="M140.583,65.588s8.3658-15.2831,24.0198-5.8673l-16.6411,2.7421a15.964,15.964,0,0,0-5.655,2.0848Z"/>
          <path class="cls-3" d="M142.9101,78.5629s11.0394-10.7801,21.862,1.2445l-14.8039-1.9826a14.13818,14.13818,0,0,0-5.329.3028Z"/>
          <path class="cls-3" d="M142.84531,64.6081s7.95239-13.2226-6.23881-20.9897l5.334,13.9511a14.14207,14.14207,0,0,1,.9309,5.2558Z"/>
          <path class="cls-3" d="M142.9685,77.6598s5.1511-14.5446,20.1685-8.528l-14.16,4.7518a14.13988,14.13988,0,0,0-4.6488,2.6227Z"/>
          <g>
            <g>
              <g>
                <g>
                  <path class="cls-4" d="M137.08531,69.8437c.486,3.5684,3.916,6.0478,3.916,6.0478s2.64219-3.3062,2.15619-6.8747-2.0266-4.7156-3.7034-4.4872S136.5994,66.2753,137.08531,69.8437Z"/>
                  <path class="cls-4" d="M144.8699,81.5915c-.486-3.5685-3.916-6.0478-3.916-6.0478s-2.6422,3.3062-2.1562,6.8746,2.02661,4.7156,3.7034,4.4873S145.3558,85.1599,144.8699,81.5915Z"/>
                </g>
                <g>
                  <path class="cls-4" d="M135.1038,79.6098c3.5683-.4859,6.0476-3.9158,6.0476-3.9158s-3.3062-2.6422-6.8745-2.1563-4.7157,2.0266-4.4874,3.7035C130.0179,78.9179,131.53531,80.0957,135.1038,79.6098Z"/>
                  <path class="cls-4" d="M146.8514,71.8254c-3.5684.4859-6.0477,3.9159-6.0477,3.9159s3.3061,2.6421,6.87461,2.1561,4.71569-2.0266,4.48739-3.7033S150.4198,71.3395,146.8514,71.8254Z"/>
                </g>
              </g>
              <g>
                <g>
                  <path class="cls-4" d="M134.072,74.3164c2.8668,2.1796,7.04531,1.5074,7.04531,1.5074s-.46951-4.206-3.33651-6.3858c-2.8668-2.1796-4.76749-1.9014-5.7916-.5542C130.9649,70.2308,131.2052,72.1367,134.072,74.3164Z"/>
                  <path class="cls-4" d="M147.8832,77.1188c-2.8668-2.1796-7.0453-1.5075-7.0453-1.5075s.4695,4.2062,3.3363,6.3859c2.867,2.1796,4.7676,1.9013,5.7918.5543C150.9901,81.2043,150.75,79.2984,147.8832,77.1188Z"/>
                </g>
                <g>
                  <path class="cls-4" d="M139.57631,82.6233c2.17979-2.8669,1.50749-7.0454,1.50749-7.0454s-4.2061.4696-6.3857,3.3364-1.9015,4.7675-.5543,5.7918C135.4908,85.7302,137.3967,85.4901,139.57631,82.6233Z"/>
                  <path class="cls-4" d="M142.3788,68.8119c-2.1797,2.867-1.5074,7.0454-1.5074,7.0454s4.2061-.4696,6.3857-3.3364,1.9014-4.7675.5544-5.7917C146.46431,65.705,144.5585,65.9451,142.3788,68.8119Z"/>
                </g>
              </g>
            </g>
            <path class="cls-1" d="M137.80031,76.1503a3.20662,3.20662,0,1,0,2.74459-3.6099A3.20661,3.20661,0,0,0,137.80031,76.1503Z"/>
            <g>
              <g>
                <g>
                  <rect class="cls-1" x="140.88596" y="70.54843" width="0.18343" height="10.33844" transform="translate(-8.94496 19.76168) rotate(-7.77259)"/>
                  <path class="cls-1" d="M139.6288,70.6843a.65736.65736,0,1,0,.5626-.7401A.65726.65726,0,0,0,139.6288,70.6843Z"/>
                  <path class="cls-1" d="M141.0237,80.9283a.65736.65736,0,1,0,.5627-.7401A.65736.65736,0,0,0,141.0237,80.9283Z"/>
                </g>
                <g>
                  <rect class="cls-1" x="135.80838" y="75.62587" width="10.33854" height="0.18342" transform="matrix(0.99086, -0.13492, 0.13492, 0.99086, -8.92692, 19.7134)"/>
                  <path class="cls-1" d="M135.9444,77.0665a.65747.65747,0,1,0-.7402-.5627A.65736.65736,0,0,0,135.9444,77.0665Z"/>
                  <path class="cls-1" d="M146.1882,75.6715a.65741.65741,0,1,0-.74-.5626A.65731.65731,0,0,0,146.1882,75.6715Z"/>
                </g>
              </g>
              <g>
                <g>
                  <rect class="cls-1" x="140.88587" y="70.5484" width="0.18344" height="10.33835" transform="translate(-4.59868 142.16591) rotate(-52.77412)"/>
                  <path class="cls-1" d="M136.4648,73.1123a.6574.6574,0,1,0-.12549-.9212A.65739.65739,0,0,0,136.4648,73.1123Z"/>
                  <path class="cls-1" d="M144.6947,79.3696a.6574.6574,0,1,0-.1255-.9213A.65766.65766,0,0,0,144.6947,79.3696Z"/>
                </g>
                <g>
                  <rect class="cls-1" x="135.80845" y="75.62586" width="10.3383" height="0.18343" transform="translate(-4.62109 142.1168) rotate(-52.75479)"/>
                  <path class="cls-1" d="M138.3724,80.2305a.65743.65743,0,1,0-.9213.1254A.65764.65764,0,0,0,138.3724,80.2305Z"/>
                  <path class="cls-1" d="M144.6295,72.0005a.65743.65743,0,1,0-.92119.1254A.65748.65748,0,0,0,144.6295,72.0005Z"/>
                </g>
              </g>
            </g>
          </g>
        </g>
        <path class="cls-1" d="M85.0012,109.5596s-18.7777-4.304-22.48589,15.5512L77,113.3656a17.65244,17.65244,0,0,1,5.8755-3.1448Z"/>
        <path class="cls-1" d="M96.00731,129.6632S77.1835,113.1298,60.6656,133.5548l23.834-4.4835a22.95735,22.95735,0,0,1,8.66671.0343Z"/>
        <path class="cls-1" d="M100.0177,131.7724s-22.9902-5.2695-27.5303,19.04l17.7342-14.3801a21.61536,21.61536,0,0,1,7.1935-3.8504Z"/>
        <path class="cls-1" d="M59.2818,78.5549s-8.2273-17.4195-26.1253-8.0578l18.1869,4.1224a17.65512,17.65512,0,0,1,6.1044,2.6735Z"/>
        <polygon class="cls-2" points="83.756 106.292 35.134 91.3 35.723 95.085 93.208 116.89 83.756 106.292"/>
        <path class="cls-1" d="M81.3051,101.3138S63.4805,88.3395,50.6486,107.566l20.5249-5.8455a20.20342,20.20342,0,0,1,7.5972-.6669Z"/>
        <path class="cls-1" d="M133.9395,98.6161l-13.4716,28.0237c-.3849.7994-.7328,1.621-1.0363,2.4501q-2.2983,1.74315-4.752,3.2568C112.9328,122.739,113.9542,107.4836,133.9395,98.6161Z"/>
        <path class="cls-1" d="M57.3744,71.8937s-17.5609-17.0271,1.0257-34.698L55.8992,60.7409a22.41469,22.41469,0,0,0,.7105,8.4316Z"/>
        <path class="cls-1" d="M22.50531,28.9177S3.47031,24.0857,9.344,4.3504l7.6744,17.3925a17.99667,17.99667,0,0,0,3.8664,5.5861Z"/>
        <path class="cls-2" d="M33.2065,40.4442l79.741,92.9462a62.656,62.656,0,0,1-6.7283,3.3605L36.1376,50.8366l-8.01629-3.0274L18.9059,44.3377a2.43575,2.43575,0,0,1,1.6951-4.567l10.2738,3.7675.57.2073-.3923-.4663L19.7127,29.9187a1.69325,1.69325,0,0,1,2.5759-2.1984Z"/>
        <path class="cls-2" d="M24.5919,31.7675S14.2404,17.7529,0,29.1948l16.8589.4716a15.96618,15.96618,0,0,1,5.8847,1.3027Z"/>
        <path class="cls-2" d="M45.496,57.3826S31.413,47.1244,21.2669,62.3153l16.2221-4.614a15.96538,15.96538,0,0,1,6.0042-.525Z"/>
        <path class="cls-2" d="M39.1115,94.8842S25.0286,84.626,14.8825,99.8168l16.2221-4.6139a15.96747,15.96747,0,0,1,6.0042-.5251Z"/>
        <path class="cls-2" d="M66.5584,84.8455s-11.85009-18.5909-30.8209-5.384L56.979,81.5214a20.203,20.203,0,0,1,7.3155,2.1557Z"/>
        <path class="cls-2" d="M112.4697,110.4119s12.7972-17.9521,31.0584-3.7801l-21.3196.9567a20.205,20.205,0,0,0-7.4174,1.7739Z"/>
        <path class="cls-2" d="M118.9561,98.9589s13.1595-17.6883-5.932-30.7201l5.631,20.5848a20.20236,20.20236,0,0,1,.5876,7.6038Z"/>
        <path class="cls-3" d="M24.0367,44.9377s-12.393-9.192-21.4941,4.1829l14.401-3.9619a14.14,14.14,0,0,1,5.3211-.4191Z"/>
        <path class="cls-3" d="M40.1134,94.1837s-15.3673-1.3869-16.165,14.7711L34.1747,98.0687a14.13811,14.13811,0,0,1,4.3231-3.1306Z"/>
        <path class="cls-3" d="M22.218,31.1018S12.5542,19.0731,25.5676,9.4622L22.1648,24.0054a14.14172,14.14172,0,0,0-.2132,5.3334Z"/>
        <path class="cls-3" d="M118.8017,101.7597s5.9797-18.3775-13.5278-23.8583l10.44041,15.5233a17.70984,17.70984,0,0,1,2.61689,6.1519Z"/>
        <path class="cls-3" d="M119.42431,103.8928s11.892-15.2339,27.34409-2.1261l-18.7076.0249a17.70992,17.70992,0,0,0-6.56349,1.2706Z"/>
        <path class="cls-3" d="M44.4915,56.7907s-14.2729-9.5822-.8889-21.8912l-.77929,14.9708a11.68966,11.68966,0,0,0,.95109,5.2579Z"/>
        <path class="cls-3" d="M37.5747,92.2558s-16.28439-5.5095-6.5915-20.8942l3.1689,14.6522a11.68938,11.68938,0,0,0,2.2951,4.8253Z"/>
        <path class="cls-3" d="M23.8569,44.0507S16.7905,30.3342,2.72231,38.322L17.3939,41.1198a14.13908,14.13908,0,0,1,4.9602,1.9714Z"/>
        <g>
          <path class="cls-5" d="M73.5788,88.987c1.0706-2.6256-.02749-6.4622-2.938-9.4359s-6.7227-4.1537-9.3707-3.1397Z"/>
          <path class="cls-6" d="M110.6101,73.2131v82.6398L69.5338,80.0433a71.646,71.646,0,0,1-8.4021-40.0568l.1859-2.25.16071-1.9134-.683-1.577L59.6251,31.5543l-2.3755-5.4642A16.78752,16.78752,0,0,1,77.10731,1.0647L80.8488,2.506a20.83008,20.83008,0,0,1,8.4924,6.0517l.24611.2913a20.86452,20.86452,0,0,1,4.56019,9.7079l1.6271,8.9746a19.83748,19.83748,0,0,0,1.8633,5.5194l6.1823,12.0481A61.58033,61.58033,0,0,1,110.6101,73.2131Z"/>
          <path class="cls-7" d="M110.6101,109.6088,86.62931,75.0965s15.48329,10.7976,23.98079,7.7994Z"/>
          <path class="cls-3" d="M110.6101,73.2131v1.8834C78.177,70.4961,71.9395,35.8231,71.9395,35.8231L61.3176,37.7365l.16071-1.9134-.683-1.577L59.6251,31.5543l-2.3755-5.4642a16.67762,16.67762,0,0,1-2.8224-9.3111,16.87838,16.87838,0,0,1,.4419-3.8319c.1105-.4821.2461-.9542.3968-1.4162A16.80385,16.80385,0,0,1,77.10731,1.0647L80.8488,2.506a20.83008,20.83008,0,0,1,8.4924,6.0517l.24611.2913a20.86452,20.86452,0,0,1,4.56019,9.7079l1.6271,8.9746a19.83748,19.83748,0,0,0,1.8633,5.5194l6.1823,12.0481c.26111.5123.5173,1.0296.7684,1.5469A61.60826,61.60826,0,0,1,110.6101,73.2131Z"/>
          <path class="cls-8" d="M104.5886,46.6459C91.4455,48.5091,79.8142,28.1944,79.8142,28.1944L54.8691,12.9471c.1105-.4821.2461-.9542.3968-1.4162.0803-.2411.1657-.4771.2561-.7132a16.801,16.801,0,0,1,21.58531-9.753L80.8488,2.506a20.83008,20.83008,0,0,1,8.4924,6.0517l.24611.2913a20.86452,20.86452,0,0,1,4.56019,9.7079l1.6271,8.9746a19.83748,19.83748,0,0,0,1.8633,5.5194l6.1823,12.0481C104.08131,45.6113,104.3375,46.1286,104.5886,46.6459Z"/>
          <path class="cls-7" d="M79.7288,14.0671,77.8857,15.855l-.1708.1657L55.522,10.8177a16.83745,16.83745,0,0,1,9.13031-9.4919L70.3926,6.1772Z"/>
          <path class="cls-9" d="M79.7288,14.0671,77.8857,15.855,59.6251,11.2044l6.2714-2.928A7.75469,7.75469,0,0,1,74.1825,9.38Z"/>
          <path class="cls-7" d="M81.8581,24.92l-4.1432,6.6343H59.625l-2.3755-5.4642a16.79378,16.79378,0,0,1-1.9837-14.5592l2.7371-.9492Z"/>
          <path class="cls-10" d="M65.8024,32.9002l4.1392-3.5654a3.60373,3.60373,0,0,0,.6785-4.6806L64.9605,15.86l-3.5274-3.1439L83.923,24.5803l-6.2081,6.974Z"/>
          <path class="cls-1" d="M58.0029,10.5814H71.1481a9.26746,9.26746,0,0,1,4.5831,1.2125l8.6873,4.9427a4.3736,4.3736,0,0,1,2.2107,3.8013h0A4.3735,4.3735,0,0,1,79.9431,24.25Z"/>
          <path class="cls-6" d="M110.6101,155.8529l-18.1702-33.533L69.5338,80.0433q-.73815-1.3635-1.4112-2.7472a71.62572,71.62572,0,0,1-6.9909-37.3096l.34661-4.1634-.683-1.577L77.7149,31.5543l-5.7754,4.2688,11.4153,41.473,6.4134,23.313,11.5359,30.5699Z"/>
          <path class="cls-10" d="M101.3041,131.179l-8.8642-8.8591L69.5338,80.0433q-.73815-1.3635-1.4112-2.7472H83.3548l6.4134,23.313Z"/>
          <path class="cls-11" d="M113.0709,178.788l7.1365,34.5274-9.2609-34.5274h-1.2706a10.98,10.98,0,0,1-10.79259-8.9545L86.9707,106.4387l-.7181-3.822,4.5902-5.9461,2.1897-2.8427,1.9335,5.4039,18.3811,51.407,6.5841,18.4062A7.28943,7.28943,0,0,1,113.0709,178.788Z"/>
          <polygon class="cls-1" points="113.347 150.639 86.971 106.439 86.253 102.617 90.843 96.671 94.966 99.232 113.347 150.639"/>
          <path class="cls-9" d="M125.4255,154.3462s-25.608-28.1542-44.3357-58.689C73.5264,83.3177,67.083,70.5916,63.904,59.1762c0,0-5.0222-17.0754,8.0355-23.3531,0,0,9.5421,3.2644,13.0576,22.5998a59.07046,59.07046,0,0,0,1.41121,5.9663c1.92519,6.7799,6.10679,18.0553,14.283,26.9529a41.71136,41.71136,0,0,1,8.75879,15.078Z"/>
          <path class="cls-2" d="M64.9586,15.86,29.8788,3.179A54.19932,54.19932,0,0,1,57.566,7.0059a14.30814,14.30814,0,0,0,.7784,1.6021,21.42348,21.42348,0,0,0,3.0887,4.1081l.005.005A26.72851,26.72851,0,0,0,64.9586,15.86Z"/>
          <polygon class="cls-1" points="29.879 3.179 54.428 14.981 64.96 15.86 29.879 3.179"/>
          <circle class="cls-6" cx="72.678" cy="14.4294" r="3.6254"/>
          <circle class="cls-12" cx="72.678" cy="14.4294" r="2.5635"/>
          <circle class="cls-1" cx="72.678" cy="14.4294" r="1.112"/>
          <polygon class="cls-1" points="77.715 31.554 60.795 34.246 59.625 31.554 77.715 31.554"/>
          <path class="cls-1" d="M61.4331,12.7161,56.2602,8.392l2.0842.216A21.42348,21.42348,0,0,0,61.4331,12.7161Z"/>
          <path class="cls-13" d="M86.40831,64.3892,81.0898,95.6572C73.5264,83.3177,67.083,70.5916,63.904,59.1762c0,0-.0452-.1607-.1205-.452-.678-2.7421-3.6411-17.2311,8.156-22.9011,0,0,2.8475.9743,6.0115,5.0121,2.6165,3.3548,5.449,8.8189,7.0461,17.5877A59.07046,59.07046,0,0,0,86.40831,64.3892Z"/>
          <g>
            <path class="cls-8" d="M76.5152,45.7524l5.1376,13.382s-4.9161-1.1403-9.1144-12.2703Z"/>
            <polygon class="cls-5" points="72.538 46.864 76.603 59.536 76.515 45.752 72.538 46.864"/>
          </g>
          <g>
            <path class="cls-8" d="M69.8728,54.5447l5.1377,13.382s-4.91619-1.1403-9.1144-12.2703Z"/>
            <polygon class="cls-5" points="65.896 55.656 69.96 68.328 69.873 54.545 65.896 55.656"/>
          </g>
          <g>
            <path class="cls-8" d="M82.3132,64.1073l5.1376,13.382s-4.9161-1.1402-9.1144-12.2702Z"/>
            <polygon class="cls-5" points="78.336 65.219 82.401 77.891 82.313 64.107 78.336 65.219"/>
          </g>
          <g>
            <path class="cls-8" d="M77.3705,71.7198l5.1377,13.382s-4.9162-1.1403-9.1144-12.2702Z"/>
            <polygon class="cls-5" points="73.394 72.832 77.458 85.503 77.37 71.72 73.394 72.832"/>
          </g>
          <path class="cls-5" d="M77.951,40.8352c-8.30669,4.1182-12.3194,11.094-14.1675,17.889-.678-2.7421-3.6411-17.2311,8.156-22.9011C71.9395,35.8231,74.787,36.7974,77.951,40.8352Z"/>
          <polygon class="cls-1" points="84.713 91.3 120.209 145.474 83.923 96.548 84.713 91.3"/>
          <polygon class="cls-1" points="86.252 85.102 85.703 89.808 118.2 139.615 86.252 85.102"/>
          <polygon class="cls-1" points="87.269 82.637 87.9 77.926 115.76 131.655 87.269 82.637"/>
          <path class="cls-13" d="M88.58331,22.1817a1.72971,1.72971,0,0,0,3.32539,0Z"/>
          <path class="cls-13" d="M88.58331,28.2363a1.72967,1.72967,0,0,0,3.32539,0Z"/>
          <path class="cls-13" d="M87.4508,19.029a1.72975,1.72975,0,0,0,3.32551,0Z"/>
          <path class="cls-13" d="M89.2019,34.2461a1.72969,1.72969,0,0,0,3.32541,0Z"/>
          <path class="cls-13" d="M94.56331,20.8664a1.83166,1.83166,0,0,1-.37161.0402,1.72335,1.72335,0,0,1-1.66239-1.2505h1.818Z"/>
          <path class="cls-13" d="M96.2206,29.4493a1.74554,1.74554,0,0,1-.3666.0402,1.72784,1.72784,0,0,1-1.6623-1.2556h1.7175Z"/>
          <path class="cls-13" d="M83.3037,28.2363a1.72975,1.72975,0,0,0,3.3255,0Z"/>
          <path class="cls-13" d="M90.8646,24.9184a1.72975,1.72975,0,0,0,3.3255,0Z"/>
          <path class="cls-13" d="M85.7881,24.9184a1.72975,1.72975,0,0,0,3.3255,0Z"/>
          <path class="cls-13" d="M91.8836,30.9278a1.72972,1.72972,0,0,0,3.3254,0Z"/>
          <path class="cls-13" d="M86.045,30.9278a1.72979,1.72979,0,0,0,3.3255,0Z"/>
        </g>
        <g>
          <g>
            <g>
              <g>
                <path class="cls-4" d="M28.6317,35.5123c0,3.6014-3.0641,6.5208-3.0641,6.5208s-3.0641-2.9194-3.0641-6.5208,1.37181-4.9459,3.0641-4.9459S28.6317,31.911,28.6317,35.5123Z"/>
                <path class="cls-4" d="M22.5035,48.203c0-3.6014,3.0641-6.5208,3.0641-6.5208s3.0641,2.9194,3.0641,6.5208-1.3718,4.9459-3.0641,4.9459S22.5035,51.8044,22.5035,48.203Z"/>
              </g>
              <g>
                <path class="cls-4" d="M31.9129,44.9217c-3.6012,0-6.5207-3.064-6.5207-3.064s2.9195-3.0641,6.5207-3.0641c3.60141,0,4.946,1.3718,4.946,3.0641S35.51431,44.9217,31.9129,44.9217Z"/>
                <path class="cls-4" d="M19.2224,38.7936c3.6013,0,6.5208,3.0641,6.5208,3.0641s-2.9195,3.064-6.5208,3.064-4.94609-1.3718-4.94609-3.064S15.621,38.7936,19.2224,38.7936Z"/>
              </g>
            </g>
            <g>
              <g>
                <path class="cls-4" d="M32.221,39.5375c-2.5465,2.5465-6.7774,2.4443-6.7774,2.4443s-.1024-4.231,2.4443-6.7776c2.5465-2.5465,4.4673-2.5273,5.6639-1.3306C34.7484,35.0701,34.7675,36.991,32.221,39.5375Z"/>
                <path class="cls-4" d="M18.9142,44.1778c2.5465-2.5465,6.7775-2.4443,6.7775-2.4443s.1023,4.2311-2.4442,6.7776-4.4674,2.5273-5.664,1.3308C16.387,48.6452,16.3677,46.7243,18.9142,44.1778Z"/>
              </g>
              <g>
                <path class="cls-4" d="M27.8879,48.5111c-2.5467-2.5465-2.4443-6.7776-2.4443-6.7776s4.2309-.1022,6.7774,2.4443,2.5274,4.4674,1.3308,5.6641C32.3552,51.0384,30.4344,51.0576,27.8879,48.5111Z"/>
                <path class="cls-4" d="M23.2475,35.2042c2.5465,2.5466,2.4442,6.7776,2.4442,6.7776s-4.231.1022-6.7775-2.4443-2.5272-4.4674-1.3307-5.6639C18.7801,32.6769,20.7009,32.6577,23.2475,35.2042Z"/>
              </g>
            </g>
          </g>
          <path class="cls-1" d="M28.7742,41.8577a3.2066,3.2066,0,1,1-3.2066-3.2066A3.20652,3.20652,0,0,1,28.7742,41.8577Z"/>
          <g>
            <g>
              <g>
                <rect class="cls-1" x="25.4758" y="36.6885" width="0.18351" height="10.3384"/>
                <path class="cls-1" d="M26.225,36.6884a.6574.6574,0,1,1-.6574-.6574A.65734.65734,0,0,1,26.225,36.6884Z"/>
                <path class="cls-1" d="M26.225,47.0269a.6574.6574,0,1,1-.6574-.6573A.65736.65736,0,0,1,26.225,47.0269Z"/>
              </g>
              <g>
                <rect class="cls-1" x="20.39831" y="41.7659" width="10.33849" height="0.1835"/>
                <path class="cls-1" d="M30.7368,42.5151a.65745.65745,0,1,1,.65751-.6574A.65734.65734,0,0,1,30.7368,42.5151Z"/>
                <path class="cls-1" d="M20.3984,42.5151a.65745.65745,0,1,1,.6574-.6574A.65743.65743,0,0,1,20.3984,42.5151Z"/>
              </g>
            </g>
            <g>
              <g>
                <rect class="cls-1" x="20.39844" y="41.76592" width="10.33836" height="0.18346" transform="translate(-22.11368 30.35724) rotate(-45.02208)"/>
                <path class="cls-1" d="M29.6877,38.6673a.65747.65747,0,1,1,0-.9298A.65757.65757,0,0,1,29.6877,38.6673Z"/>
                <path class="cls-1" d="M22.37731,45.9778a.65744.65744,0,1,1,0-.9298A.65764.65764,0,0,1,22.37731,45.9778Z"/>
              </g>
              <g>
                <rect class="cls-1" x="25.47589" y="36.68847" width="0.18346" height="10.33836" transform="translate(-22.10917 30.33854) rotate(-44.99961)"/>
                <path class="cls-1" d="M28.7579,45.9778a.65747.65747,0,1,1,.9298,0A.65777.65777,0,0,1,28.7579,45.9778Z"/>
                <path class="cls-1" d="M21.4476,38.6673a.65744.65744,0,1,1,.92971,0A.65739.65739,0,0,1,21.4476,38.6673Z"/>
              </g>
            </g>
          </g>
        </g>
        <g>
          <g>
            <g>
              <g>
                <path class="cls-4" d="M43.4097,89.3119c0,3.6013-3.0641,6.5208-3.0641,6.5208s-3.0641-2.9195-3.0641-6.5208,1.37181-4.946,3.0641-4.946S43.4097,85.7105,43.4097,89.3119Z"/>
                <path class="cls-4" d="M37.2815,102.0025c0-3.6013,3.0641-6.5208,3.0641-6.5208s3.0641,2.9195,3.0641,6.5208-1.3718,4.946-3.0641,4.946S37.2815,105.6039,37.2815,102.0025Z"/>
              </g>
              <g>
                <path class="cls-4" d="M46.6909,98.7213c-3.6013,0-6.5207-3.064-6.5207-3.064s2.9194-3.0641,6.5207-3.0641,4.946,1.3718,4.946,3.0641C51.6369,97.3494,50.2922,98.7213,46.6909,98.7213Z"/>
                <path class="cls-4" d="M34.00031,92.5932c3.60139,0,6.52089,3.0641,6.52089,3.0641s-2.9195,3.064-6.52089,3.064-4.946-1.3719-4.946-3.064C29.05431,93.965,30.399,92.5932,34.00031,92.5932Z"/>
              </g>
            </g>
            <g>
              <g>
                <path class="cls-4" d="M46.999,93.337c-2.5465,2.5465-6.7774,2.4443-6.7774,2.4443s-.1024-4.2309,2.4442-6.7776c2.5466-2.5465,4.4674-2.5272,5.6639-1.3306C49.5264,88.8697,49.5455,90.7905,46.999,93.337Z"/>
                <path class="cls-4" d="M33.6922,97.9774c2.5465-2.5465,6.7774-2.4443,6.7774-2.4443s.1024,4.2311-2.4441,6.7776c-2.5467,2.5465-4.4674,2.5272-5.6641,1.3307C31.1649,102.4448,31.1457,100.5239,33.6922,97.9774Z"/>
              </g>
              <g>
                <path class="cls-4" d="M42.6658,102.3107c-2.5466-2.5465-2.4442-6.7776-2.4442-6.7776s4.2309-.1022,6.7774,2.4443,2.5274,4.4674,1.3307,5.664C47.1332,104.8379,45.2124,104.8572,42.6658,102.3107Z"/>
                <path class="cls-4" d="M38.0255,89.0037c2.5465,2.5467,2.4441,6.7776,2.4441,6.7776s-4.2309.1022-6.7774-2.4443-2.5273-4.4673-1.3308-5.6639C33.5581,86.4765,35.4788,86.4572,38.0255,89.0037Z"/>
              </g>
            </g>
          </g>
          <path class="cls-1" d="M43.5522,95.6573a3.2066,3.2066,0,1,1-3.2066-3.2066A3.2065,3.2065,0,0,1,43.5522,95.6573Z"/>
          <g>
            <g>
              <g>
                <rect class="cls-1" x="40.2538" y="90.4881" width="0.1834" height="10.3384"/>
                <path class="cls-1" d="M41.003,90.4879a.6574.6574,0,1,1-.6574-.6573A.65743.65743,0,0,1,41.003,90.4879Z"/>
                <circle class="cls-1" cx="40.3456" cy="100.8265" r="0.6574"/>
              </g>
              <g>
                <rect class="cls-1" x="35.1762" y="95.5655" width="10.3386" height="0.1834"/>
                <path class="cls-1" d="M45.5148,96.3146a.6574.6574,0,1,1,.65751-.6573A.65741.65741,0,0,1,45.5148,96.3146Z"/>
                <path class="cls-1" d="M35.1764,96.3146a.6574.6574,0,1,1,.6574-.6573A.65735.65735,0,0,1,35.1764,96.3146Z"/>
              </g>
            </g>
            <g>
              <g>
                <rect class="cls-1" x="35.17641" y="95.56548" width="10.33832" height="0.1835" transform="translate(-55.80882 56.51132) rotate(-44.97935)"/>
                <path class="cls-1" d="M44.4656,92.4668a.6574.6574,0,1,1,0-.9297A.65727.65727,0,0,1,44.4656,92.4668Z"/>
                <path class="cls-1" d="M37.15531,99.7773a.65744.65744,0,1,1,0-.9297A.65758.65758,0,0,1,37.15531,99.7773Z"/>
              </g>
              <g>
                <rect class="cls-1" x="40.25383" y="90.48806" width="0.1835" height="10.33832" transform="translate(-55.82239 56.54467) rotate(-44.99922)"/>
                <path class="cls-1" d="M43.5359,99.7773a.6574.6574,0,1,1,.9297,0A.65765.65765,0,0,1,43.5359,99.7773Z"/>
                <path class="cls-1" d="M36.2255,92.4668a.65744.65744,0,1,1,.92981,0A.65745.65745,0,0,1,36.2255,92.4668Z"/>
              </g>
            </g>
          </g>
        </g>
        <g>
          <g>
            <g>
              <g>
                <path class="cls-4" d="M43.1696,55.0491A7.32328,7.32328,0,0,1,41.003,59.66a7.32318,7.32318,0,0,1-2.16669-4.6109c0-2.5466.97-3.4973,2.16669-3.4973S43.1696,52.5025,43.1696,55.0491Z"/>
                <path class="cls-4" d="M38.83631,64.0227A7.32284,7.32284,0,0,1,41.003,59.4118a7.32294,7.32294,0,0,1,2.1666,4.6109c0,2.5465-.97,3.4973-2.1666,3.4973S38.83631,66.5692,38.83631,64.0227Z"/>
              </g>
              <g>
                <path class="cls-4" d="M45.4897,61.7025a7.32325,7.32325,0,0,1-4.6108-2.1666,7.32325,7.32325,0,0,1,4.6108-2.1666c2.54661,0,3.4974.97,3.4974,2.1666S48.03631,61.7025,45.4897,61.7025Z"/>
                <path class="cls-4" d="M36.5162,57.3693a7.32294,7.32294,0,0,1,4.6109,2.1666,7.32294,7.32294,0,0,1-4.6109,2.1666c-2.5465,0-3.4974-.97-3.4974-2.1666S33.9697,57.3693,36.5162,57.3693Z"/>
              </g>
            </g>
            <g>
              <g>
                <path class="cls-4" d="M45.7076,57.8953a7.323,7.323,0,0,1-4.79229,1.7283,7.32267,7.32267,0,0,1,1.72829-4.7924c1.80071-1.8007,3.1589-1.7871,4.005-.9409S47.50831,56.0946,45.7076,57.8953Z"/>
                <path class="cls-4" d="M36.29831,61.1765a7.323,7.323,0,0,1,4.79239-1.7284,7.32291,7.32291,0,0,1-1.7283,4.7925c-1.8007,1.8006-3.1589,1.787-4.005.9409S34.4977,62.9771,36.29831,61.1765Z"/>
              </g>
              <g>
                <path class="cls-4" d="M42.6436,64.2406a7.32287,7.32287,0,0,1-1.72829-4.7925,7.3227,7.3227,0,0,1,4.79229,1.7284c1.80071,1.8006,1.7871,3.1589.941,4.005S44.44431,66.0412,42.6436,64.2406Z"/>
                <path class="cls-4" d="M39.3624,54.8312a7.32271,7.32271,0,0,1,1.7283,4.7924,7.32329,7.32329,0,0,1-4.79239-1.7283c-1.80061-1.8007-1.787-3.1589-.94091-4.005S37.5617,53.0305,39.3624,54.8312Z"/>
              </g>
            </g>
          </g>
          <path class="cls-1" d="M43.2704,59.5359a2.2674,2.2674,0,1,1-2.2674-2.2674A2.26738,2.26738,0,0,1,43.2704,59.5359Z"/>
          <g>
            <g>
              <g>
                <rect class="cls-1" x="40.9381" y="55.8808" width="0.1297" height="7.3103"/>
                <path class="cls-1" d="M41.4678,55.8807a.46485.46485,0,1,1-.4648-.4649A.4648.4648,0,0,1,41.4678,55.8807Z"/>
                <path class="cls-1" d="M41.4678,63.1911a.46485.46485,0,1,1-.4648-.4648A.4648.4648,0,0,1,41.4678,63.1911Z"/>
              </g>
              <g>
                <rect class="cls-1" x="37.3477" y="59.471" width="7.3104" height="0.1297"/>
                <path class="cls-1" d="M44.6581,60.0007a.46485.46485,0,1,1,.465-.4648A.46479.46479,0,0,1,44.6581,60.0007Z"/>
                <path class="cls-1" d="M37.3478,60.0007a.46485.46485,0,1,1,.4648-.4648A.4648.4648,0,0,1,37.3478,60.0007Z"/>
              </g>
            </g>
            <g>
              <g>
                <rect class="cls-1" x="37.34785" y="59.47099" width="7.31024" height="0.12972" transform="translate(-30.08917 46.43365) rotate(-45.00203)"/>
                <path class="cls-1" d="M43.91631,57.2799a.46486.46486,0,1,1,0-.6574A.46475.46475,0,0,1,43.91631,57.2799Z"/>
                <path class="cls-1" d="M38.7471,62.4492a.46485.46485,0,1,1,0-.6574A.46492.46492,0,0,1,38.7471,62.4492Z"/>
              </g>
              <g>
                <rect class="cls-1" x="40.93812" y="55.88073" width="0.12972" height="7.31024" transform="translate(-30.08846 46.42975) rotate(-44.99889)"/>
                <path class="cls-1" d="M43.2589,62.4492a.46486.46486,0,1,1,.65741,0A.46492.46492,0,0,1,43.2589,62.4492Z"/>
                <path class="cls-1" d="M38.0897,57.2799a.46485.46485,0,1,1,.6574,0A.46474.46474,0,0,1,38.0897,57.2799Z"/>
              </g>
            </g>
          </g>
        </g>
        <g>
          <g>
            <g>
              <g>
                <path class="cls-4" d="M71.1968,104.5146a7.2469,7.2469,0,0,1-2.1442,4.563,7.247,7.247,0,0,1-2.1441-4.563c0-2.5201.9599-3.461,2.1441-3.461S71.1968,101.9945,71.1968,104.5146Z"/>
                <path class="cls-4" d="M66.9085,113.395a7.247,7.247,0,0,1,2.1441-4.563,7.2469,7.2469,0,0,1,2.1442,4.563c0,2.5201-.96,3.461-2.1442,3.461S66.9085,115.9151,66.9085,113.395Z"/>
              </g>
              <g>
                <path class="cls-4" d="M73.4928,111.0989a7.24706,7.24706,0,0,1-4.5629-2.144,7.24684,7.24684,0,0,1,4.5629-2.1442c2.5201,0,3.4611.9599,3.4611,2.1442C76.9539,110.139,76.0129,111.0989,73.4928,111.0989Z"/>
                <path class="cls-4" d="M64.6125,106.8107a7.2469,7.2469,0,0,1,4.563,2.1442,7.24712,7.24712,0,0,1-4.563,2.144c-2.52019,0-3.4611-.9599-3.4611-2.144C61.1514,107.7706,62.09231,106.8107,64.6125,106.8107Z"/>
              </g>
            </g>
            <g>
              <g>
                <path class="cls-4" d="M73.7085,107.3312a7.24733,7.24733,0,0,1-4.7427,1.7105,7.247,7.247,0,0,1,1.71051-4.7428c1.78189-1.7819,3.12609-1.7684,3.96339-.9311S75.4904,105.5493,73.7085,107.3312Z"/>
                <path class="cls-4" d="M64.3968,110.5784a7.24677,7.24677,0,0,1,4.7426-1.7104,7.24661,7.24661,0,0,1-1.7103,4.7427c-1.782,1.7819-3.1261,1.7685-3.9635.9312S62.6149,112.3603,64.3968,110.5784Z"/>
              </g>
              <g>
                <path class="cls-4" d="M70.67631,113.6107a7.24669,7.24669,0,0,1-1.71051-4.7427,7.247,7.247,0,0,1,4.7427,1.7104c1.7819,1.7819,1.7685,3.1261.9312,3.9635S72.4582,115.3926,70.67631,113.6107Z"/>
                <path class="cls-4" d="M67.4291,104.2989a7.247,7.247,0,0,1,1.7103,4.7428,7.24713,7.24713,0,0,1-4.7426-1.7105c-1.7819-1.7819-1.76849-3.1261-.9312-3.9634S65.6471,102.517,67.4291,104.2989Z"/>
              </g>
            </g>
          </g>
          <path class="cls-1" d="M71.2965,108.9549a2.24385,2.24385,0,1,1-2.2439-2.2439A2.24376,2.24376,0,0,1,71.2965,108.9549Z"/>
          <g>
            <g>
              <g>
                <rect class="cls-1" x="68.9884" y="105.3376" width="0.1284" height="7.2345"/>
                <circle class="cls-1" cx="69.0526" cy="105.3375" r="0.46"/>
                <circle class="cls-1" cx="69.0526" cy="112.5721" r="0.46"/>
              </g>
              <g>
                <rect class="cls-1" x="65.43531" y="108.8906" width="7.23459" height="0.1284"/>
                <path class="cls-1" d="M72.6699,109.4149a.46005.46005,0,1,1,.4601-.46A.46.46,0,0,1,72.6699,109.4149Z"/>
                <path class="cls-1" d="M65.4354,109.4149a.46005.46005,0,1,1,.46-.46A.46007.46007,0,0,1,65.4354,109.4149Z"/>
              </g>
            </g>
            <g>
              <g>
                <rect class="cls-1" x="65.43541" y="108.89059" width="7.23448" height="0.12841" transform="translate(-56.81874 80.74471) rotate(-45.00227)"/>
                <path class="cls-1" d="M71.9357,106.7223a.46.46,0,1,1,0-.6506A.46.46,0,0,1,71.9357,106.7223Z"/>
                <path class="cls-1" d="M66.8202,111.8379a.46.46,0,1,1,0-.6506A.46015.46015,0,0,1,66.8202,111.8379Z"/>
              </g>
              <g>
                <rect class="cls-1" x="68.98844" y="105.33756" width="0.12841" height="7.23448" transform="translate(-56.81735 80.73849) rotate(-44.99944)"/>
                <path class="cls-1" d="M71.2851,111.8379a.46.46,0,1,1,.6506,0A.46015.46015,0,0,1,71.2851,111.8379Z"/>
                <path class="cls-1" d="M66.1696,106.7223a.46.46,0,1,1,.6506,0A.46.46,0,0,1,66.1696,106.7223Z"/>
              </g>
            </g>
          </g>
        </g>
        <g>
          <g>
            <g>
              <g>
                <path class="cls-4" d="M122.35331,95.3766a7.247,7.247,0,0,1-2.14411,4.563,7.2469,7.2469,0,0,1-2.1442-4.563c0-2.5201.96-3.461,2.1442-3.461S122.35331,92.8565,122.35331,95.3766Z"/>
                <path class="cls-4" d="M118.065,104.2571a7.2473,7.2473,0,0,1,2.1442-4.5631,7.2474,7.2474,0,0,1,2.14411,4.5631c0,2.5201-.95991,3.4609-2.14411,3.4609S118.065,106.7772,118.065,104.2571Z"/>
              </g>
              <g>
                <path class="cls-4" d="M124.6494,101.9609a7.24716,7.24716,0,0,1-4.563-2.144,7.24693,7.24693,0,0,1,4.563-2.1442c2.5201,0,3.461.96,3.461,2.1442S127.1695,101.9609,124.6494,101.9609Z"/>
                <path class="cls-4" d="M115.769,97.6727a7.2469,7.2469,0,0,1,4.563,2.1442,7.24712,7.24712,0,0,1-4.563,2.144c-2.5201,0-3.4611-.9599-3.4611-2.144S113.2489,97.6727,115.769,97.6727Z"/>
              </g>
            </g>
            <g>
              <g>
                <path class="cls-4" d="M124.865,98.1932a7.24713,7.24713,0,0,1-4.7426,1.7105,7.24635,7.24635,0,0,1,1.7104-4.7427c1.7819-1.782,3.1261-1.7685,3.9634-.9311C126.6336,95.0671,126.6469,96.4113,124.865,98.1932Z"/>
                <path class="cls-4" d="M115.55331,101.4404A7.247,7.247,0,0,1,120.296,99.73a7.247,7.247,0,0,1-1.7104,4.7427c-1.782,1.7819-3.1261,1.7685-3.9635.9312C113.7849,104.5665,113.7714,103.2224,115.55331,101.4404Z"/>
              </g>
              <g>
                <path class="cls-4" d="M121.8328,104.4727a7.24635,7.24635,0,0,1-1.7104-4.7427,7.24677,7.24677,0,0,1,4.7426,1.7104c1.7819,1.782,1.7686,3.1261.9312,3.9635S123.6147,106.2546,121.8328,104.4727Z"/>
                <path class="cls-4" d="M118.5856,95.161a7.247,7.247,0,0,1,1.7104,4.7427,7.24731,7.24731,0,0,1-4.74269-1.7105c-1.78191-1.7819-1.76841-3.1261-.93121-3.9633C115.4595,93.3925,116.8036,93.379,118.5856,95.161Z"/>
              </g>
            </g>
          </g>
          <path class="cls-1" d="M122.453,99.8169a2.24385,2.24385,0,1,1-2.2438-2.2439A2.24374,2.24374,0,0,1,122.453,99.8169Z"/>
          <g>
            <g>
              <g>
                <rect class="cls-1" x="120.1449" y="96.1996" width="0.12841" height="7.2345"/>
                <path class="cls-1" d="M120.6692,96.1995a.46.46,0,1,1-.46-.46A.46009.46009,0,0,1,120.6692,96.1995Z"/>
                <circle class="cls-1" cx="120.2092" cy="103.4341" r="0.46"/>
              </g>
              <g>
                <rect class="cls-1" x="116.5918" y="99.7526" width="7.2346" height="0.1284"/>
                <path class="cls-1" d="M123.8264,100.2769a.46005.46005,0,1,1,.4601-.46A.46.46,0,0,1,123.8264,100.2769Z"/>
                <path class="cls-1" d="M116.5919,100.2769a.46005.46005,0,1,1,.46-.46A.46007.46007,0,0,1,116.5919,100.2769Z"/>
              </g>
            </g>
            <g>
              <g>
                <rect class="cls-1" x="116.59197" y="99.75265" width="7.23441" height="0.12834" transform="translate(-35.38062 114.15067) rotate(-44.96843)"/>
                <path class="cls-1" d="M123.0922,97.5843a.46.46,0,1,1,0-.6506A.46.46,0,0,1,123.0922,97.5843Z"/>
                <path class="cls-1" d="M117.9767,102.6999a.46.46,0,1,1,0-.6506A.46015.46015,0,0,1,117.9767,102.6999Z"/>
              </g>
              <g>
                <rect class="cls-1" x="120.145" y="96.19962" width="0.12834" height="7.23441" transform="translate(-35.37298 114.23335) rotate(-44.99888)"/>
                <path class="cls-1" d="M122.4416,102.6999a.46.46,0,1,1,.6506,0A.46033.46033,0,0,1,122.4416,102.6999Z"/>
                <path class="cls-1" d="M117.3261,97.5843a.46.46,0,1,1,.6506,0A.46.46,0,0,1,117.3261,97.5843Z"/>
              </g>
            </g>
          </g>
        </g>
      </g>
    </g>
  </g>
</svg>
