<svg xmlns="http://www.w3.org/2000/svg" xmlns:xlink="http://www.w3.org/1999/xlink" width="458.34435" height="337.42345" viewBox="0 0 458.34435 337.42345">
  <defs>
    <style>
      .cls-1 {
        isolation: isolate;
      }

      .cls-2 {
        fill: #e8940f;
      }

      .cls-24, .cls-3 {
        fill: #231f20;
      }

      .cls-4 {
        fill: #cc6715;
      }

      .cls-18, .cls-19, .cls-5 {
        mix-blend-mode: multiply;
      }

      .cls-6 {
        fill: url(#radial-gradient);
      }

      .cls-21, .cls-7 {
        mix-blend-mode: screen;
      }

      .cls-8 {
        fill: url(#linear-gradient);
      }

      .cls-9 {
        fill: #ffb966;
      }

      .cls-10 {
        fill: url(#radial-gradient-2);
      }

      .cls-11 {
        fill: url(#radial-gradient-3);
      }

      .cls-12 {
        fill: url(#radial-gradient-4);
      }

      .cls-13, .cls-21 {
        fill: #fff;
      }

      .cls-14 {
        fill: url(#radial-gradient-5);
      }

      .cls-15 {
        fill: url(#radial-gradient-6);
      }

      .cls-16 {
        fill: url(#radial-gradient-7);
      }

      .cls-17 {
        fill: url(#radial-gradient-8);
      }

      .cls-18 {
        fill: #abadaf;
      }

      .cls-18, .cls-23 {
        opacity: 0.4;
      }

      .cls-19 {
        fill: #da713b;
        opacity: 0.6;
      }

      .cls-20 {
        fill: #fffac4;
      }

      .cls-20, .cls-21 {
        opacity: 0.5;
      }

      .cls-22 {
        fill: url(#radial-gradient-9);
      }

      .cls-23 {
        fill: #000068;
      }

      .cls-24, .cls-25 {
        mix-blend-mode: color-dodge;
      }

      .cls-25 {
        fill: #c97506;
      }
    </style>
    <radialGradient id="radial-gradient" cx="-351.33166" cy="1140.3383" r="115.29374" gradientTransform="matrix(1.0153, -0.1158, 0.1269, 1.0426, 358.36774, -1217.00996)" gradientUnits="userSpaceOnUse">
      <stop offset="0" stop-color="#ffeb60"/>
      <stop offset="0.126" stop-color="#fee459"/>
      <stop offset="0.30988" stop-color="#fad245"/>
      <stop offset="0.52807" stop-color="#f5b326"/>
      <stop offset="0.73469" stop-color="#ee9001"/>
      <stop offset="0.7398" stop-color="#ee9001"/>
    </radialGradient>
    <linearGradient id="linear-gradient" x1="-393.77406" y1="1172.68604" x2="-341.50042" y2="1208.73671" gradientTransform="matrix(0.9932, -0.1171, 0.1171, 0.9932, 365.61658, -1199.46091)" gradientUnits="userSpaceOnUse">
      <stop offset="0.0422" stop-color="#d2b597"/>
      <stop offset="0.07925" stop-color="#bda388"/>
      <stop offset="0.18815" stop-color="#84725f"/>
      <stop offset="0.29375" stop-color="#55493d"/>
      <stop offset="0.39353" stop-color="#302922"/>
      <stop offset="0.48601" stop-color="#161310"/>
      <stop offset="0.56854" stop-color="#060504"/>
      <stop offset="0.63287"/>
    </linearGradient>
    <radialGradient id="radial-gradient-2" cx="130.60799" cy="270.68438" r="37.21618" gradientTransform="matrix(1, 0, 0, 1, 0, 0)" xlink:href="#radial-gradient"/>
    <radialGradient id="radial-gradient-3" cx="183.53574" cy="290.94349" r="36.57777" gradientTransform="matrix(1, 0, 0, 1, 0, 0)" xlink:href="#radial-gradient"/>
    <radialGradient id="radial-gradient-4" cx="325.04107" cy="274.45207" r="29.87177" gradientTransform="matrix(1, 0, 0, 1, 0, 0)" xlink:href="#radial-gradient"/>
    <radialGradient id="radial-gradient-5" cx="224.45741" cy="-32.19788" r="179.12508" gradientTransform="matrix(1, 0, 0, 1, 0, 0)" xlink:href="#radial-gradient"/>
    <radialGradient id="radial-gradient-6" cx="242.47508" cy="166.597" r="245.79679" gradientTransform="matrix(1, 0, 0, 1, 0, 0)" xlink:href="#radial-gradient"/>
    <radialGradient id="radial-gradient-7" cx="372.10018" cy="178.80365" r="99.39975" gradientTransform="matrix(1, 0, 0, 1, 0, 0)" xlink:href="#radial-gradient"/>
    <radialGradient id="radial-gradient-8" cx="355.24282" cy="77.07895" r="152.03589" gradientTransform="matrix(1, 0, 0, 1, 0, 0)" xlink:href="#radial-gradient"/>
    <radialGradient id="radial-gradient-9" cx="294.20648" cy="191.0116" r="172.1097" gradientTransform="matrix(1, 0, 0, 1, 0, 0)" xlink:href="#radial-gradient"/>
  </defs>
  <g class="cls-1">
    <g id="图层_2" data-name="图层 2">
      <g id="Layer_1" data-name="Layer 1">
        <g>
          <g>
            <g>
              <path class="cls-2" d="M120.8558,57.38394s-1.437-2.252-17.54491-16.0191c-16.0947-13.7827-3.6914-24.0059,6.06491-20.706,9.753,3.2636,10.76369-1.231,18.44969-8.5049,7.6895-7.274,24.188-22.3809,37.8287.0864,6.6728,10.0269,14.811,9.5195,25.9477,5.0288,11.1607-4.4492,24.4746-.7754,29.5161,15.0776,3.5196,9.586,9.2959,12.1465,20.9229,14.8174,11.625,2.6695,22.25969,6.5073,15.185,12.6758C256.159,60.78084,186.51939,33.08064,120.8558,57.38394Z"/>
              <path class="cls-3" d="M121.58039,57.209a28.55945,28.55945,0,0,0-4.5854-4.6157c-2.8369-2.6191-5.7373-5.1596-8.63719-7.7007-4.36971-3.7758-9.21341-7.3291-11.41851-12.9321A8.31589,8.31589,0,0,1,98.7728,22.897c3.95359-4.0102,8.96579-1.9516,13.63719-1.0371,6.8579,1.3623,10.7442-4.3027,15.0947-8.6635,4.4654-4.4854,9.4717-8.8511,15.337-11.2481,9.499-3.8496,17.1186,2.5606,22.0952,10.4771,3.5674,5.6792,9.3838,8.8847,15.9218,8.163,8.6416-.9809,15.85111-6.3608,24.8287-3.9804a19.995,19.995,0,0,1,10.167,7.0107c2.9951,3.6978,3.9868,8.3418,6.124,12.4824,3.4487,6.7471,10.4927,9.0943,17.21141,10.8003,5.41159,1.3892,10.93749,2.4307,15.96339,5.0254,1.9087.9863,3.9267,2.6104,3.4614,5.0327-.1977.9971-.9331,2.6885-1.8237,2.4512-3.2852-.7808-6.5117-1.8833-9.7622-2.77-33.3106-9.2764-68.5293-12.7437-102.419-6.2451a156.09844,156.09844,0,0,0-24.1753,6.7651c-.936.3247.4117.5933.8535.4453,38.0298-13.8789,79.9004-11.8511,118.899-1.9243,4.44191,1.1089,8.83,2.3911,13.2163,3.6733.9629.2735,3.5503,1.4771,4.49561.5557,6.88518-6.561-4.72611-10.1226-9.69441-11.5864-8.4272-2.5088-18.32759-3.064-23.8598-11.0454-2.38579-3.4605-3.2119-7.7906-5.2969-11.4429a21.94029,21.94029,0,0,0-8.165-8.1138c-5.40289-3.1406-12.06889-3.0747-17.8174-1.3237-4.3648,1.3203-8.335,3.2793-12.9732,3.5986-5.0854.3623-9.19529-2.2378-12.3891-6.1308-2.9346-3.5537-4.9063-7.3907-8.565-10.315a16.63351,16.63351,0,0,0-7.7973-3.3369c-11.71-1.9214-22.0733,9.4986-29.3164,17.0904-2.169,2.2919-4.2598,4.2358-7.7549,4.0771-2.1035-.0884-3.9605-1.0874-5.9844-1.4414a14.78434,14.78434,0,0,0-7.1621.5664c-5.437,1.7798-7.4824,7.2061-5.3906,12.5049,1.7309,4.3804,5.6763,7.5141,9.1079,10.4599,3.4463,2.9673,6.83061,5.9468,10.1772,9.0264,1.6685,1.5269,3.8311,3.1128,5.1289,5.0703C120.368,57.92934,121.83769,57.585,121.58039,57.209Z"/>
            </g>
            <g>
              <path class="cls-4" d="M120.66589,36.565a24.49952,24.49952,0,0,1,1.9927,1.7407,51.24511,51.24511,0,0,1,3.8623,4.1651,48.59948,48.59948,0,0,1,3.3627,4.624,23.81925,23.81925,0,0,1,1.3033,2.313,23.28915,23.28915,0,0,1-1.98-1.7212,46.84263,46.84263,0,0,1-3.8779-4.1978,49.6194,49.6194,0,0,1-3.3545-4.6142A24.66543,24.66543,0,0,1,120.66589,36.565Z"/>
              <path class="cls-4" d="M129.472,31.982a19.417,19.417,0,0,1,1.5435,1.8823,40.43855,40.43855,0,0,1,2.8652,4.5059,44.50224,44.50224,0,0,1,2.2974,4.8384,20.33806,20.33806,0,0,1,.7959,2.3198,21.803,21.803,0,0,1-1.5708-1.8858,47.98057,47.98057,0,0,1-2.8643-4.5063,40.79359,40.79359,0,0,1-2.2754-4.8203A17.60331,17.60331,0,0,1,129.472,31.982Z"/>
              <path class="cls-4" d="M150.36409,27.60164a23.08906,23.08906,0,0,1,1.0845,2.1817,40.10513,40.10513,0,0,1,2.8296,10.1318,18.04188,18.04188,0,0,1,.2363,2.4263,17.8085,17.8085,0,0,1-1.0981-2.189,40.57237,40.57237,0,0,1-1.7105-4.9907,43.18435,43.18435,0,0,1-1.1196-5.1426A21.93915,21.93915,0,0,1,150.36409,27.60164Z"/>
              <path class="cls-4" d="M161.475,29.13634a11.98785,11.98785,0,0,1,.61181,1.8247,26.93833,26.93833,0,0,1,.69479,4.0562,28.0042,28.0042,0,0,1,.0371,4.1147,12.14191,12.14191,0,0,1-.2725,1.8799,11.27779,11.27779,0,0,1-.6201-1.8111,25.22421,25.22421,0,0,1-.6904-4.0673,24.53619,24.53619,0,0,1-.0332-4.1158A11.63427,11.63427,0,0,1,161.475,29.13634Z"/>
            </g>
            <g class="cls-5">
              <path class="cls-6" d="M242.04089,47.16414c-11.627-2.6709-17.4033-5.2314-20.9229-14.8174-5.0415-15.853-18.3554-19.5268-29.5161-15.0776-11.1367,4.4907-19.2749,4.9981-25.9477-5.0288-5.73539-9.457-12.0059-12.2632-17.8663-11.7881a19.87862,19.87862,0,0,1,14.0142,9.9595c7.5884,13.2632,12.5928,15.9155,29.28471,12.147,25.85689-7.4786,36.60979,25.4438,15.69429,17.9482-20.9155-7.4785-41.5581.2109-42.9341-6.8462-1.3774-7.0469-4.5239-15.7783-3.9546-6.7515.5933,8.9952-2.0019,17.5669-5.979,6.2808-3.9663-11.293-8.6928-15.8144-6.0942-3.0366,2.5991,12.7739-2.0723,17.0552-8.9028,10.0849-6.8233-6.9711-14.4859-16.4863-10.3765-8.4077,4.0894,8.0694,7.2324,16.7774,3.0791,12.4405-4.1763-4.316-15.1304-17.4776-12.605-11.6397,2.5264,5.8633,12.4751,14.8628,6.8291,15.5039-3.0254.3457-7.4272,1.9976-10.8921,3.4566,5.2417,4.7666,5.90481,5.792,5.90481,5.792,65.66359-24.3033,135.30319,3.3969,136.37009,2.456C264.30058,53.67144,253.66589,49.83364,242.04089,47.16414Z"/>
            </g>
            <g class="cls-7">
              <path class="cls-8" d="M111.0038,26.60654c18.73479.249,19.85839-7.6118,25.91889-15.4897,6.0332-7.8443,12.4326-14.687,23.583-5.5557-12.42089-12.2031-25.9248.188-32.6802,6.5928-7.686,7.2739-8.69669,11.7685-18.44969,8.5049-8.76951-2.9507-19.61621,4.9628-10.13861,16.5722C97.96569,34.59194,95.2718,26.39514,111.0038,26.60654Z"/>
            </g>
          </g>
          <g>
            <path class="cls-3" d="M252.118,71.33554s3.501-7.0112,17.23339-22.3203c13.8838-15.4746,28.5899-30.6968,43.249.7837,14.9893,32.1484,18.40242,43.6816,26.9922,61.4643,13.1934,27.3384,24.2437,40.8921,24.2437,40.8921l-20.6353,34.2276Z"/>
            <path class="cls-2" d="M250.5848,73.22034s3.5-7.0049,17.23438-22.3174c13.8838-15.4751,28.5903-30.6958,43.25.7827,14.9873,32.1524,18.4023,43.6812,26.9873,61.46,13.19432,27.3467,24.2466,40.9033,24.2466,40.9033l-20.6402,34.2226Z"/>
            <path class="cls-9" d="M321.49688,103.39464a89.41858,89.41858,0,0,1,15.3242,7.5576c-1.1962-2.5737-2.3081-5.0415-3.38028-7.479-5.12012-2.5586-13.24612-5.96-20.32962-6.0659-11.3945-.1704-34.0689.3745-34.0689.3745S311.00858,99.51134,321.49688,103.39464Zm23.8018,24.3232c-1.50288-2.7641-3.0508-5.7246-4.6524-8.9145-6.2753-3.5254-15.76948-8.2573-22.6689-8.8628-11.18258-.9971-25.563-1.897-25.563-1.897s28.54742,5.2437,38.5371,11.1704C335.912,122.17444,341.21958,125.316,345.29868,127.71784Zm-54.874-81.6259c4.7324-2.1646,9.7153-4.1387,13.4975-5.5513a18.54736,18.54736,0,0,0-7.1201-5.5234,58.62214,58.62214,0,0,0-16.4736,14.708c-8.5074,11.4257-22.64019,29.4702-22.64019,29.4702S281.12828,50.35314,290.42468,46.09194Zm22.8042,10.6562c-.6314-1.3833-1.273-2.7715-1.9556-4.2441-.5728-1.2325-1.1558-2.2744-1.7266-3.3711-5.2802.0786-13.9106,1.0512-19.1416,6.1137-7.8984,7.6456-32.71679,23.9488-32.71679,23.9488s31.60939-18.1157,43.40629-20.9082A55.61,55.61,0,0,1,313.22888,56.74814Zm36.6567,79.0772c-4.84078-3.1905-12.6299-7.9717-18.647-10.002-9.3823-3.1597-23.3623-4.4131-23.3623-4.4131s16.8677,3.6944,24.95852,8.2891c5.23238,2.9902,14.71288,8.6387,20.76758,12.249C352.44708,140.11434,351.19708,138.06064,349.88558,135.82534Zm-27.291-58.0435c-1.1675-2.7339-2.439-5.6401-3.8272-8.7998-5.5927-1.6099-13.7851-3.0601-19.2871-.1841-9.1001,4.7442-37.7876,12.9727-37.7876,12.9727s32.6846-8.9942,41.7779-7.2061C309.9198,75.84094,318.30058,77.13534,322.59458,77.78184Zm-10.272,12.4605c7.3677,2.6005,14.2686,5.5429,18.6441,7.4794q-1.39095-3.3354-2.8936-6.9238c-6.0024-2.2261-17.3799-5.8271-28.1265-5.7724a270.87027,270.87027,0,0,0-31.3701,2.3588S300.0448,85.93324,312.32258,90.24234Z"/>
          </g>
          <g>
            <path class="cls-3" d="M129.29969,229.53424s-44.9341,61.8291-24.8443,80.8956c20.0913,19.0644,44.2241-2.7881,51.5645-17.3116,10.4424-20.6592-.6753-36.3066-.6753-36.3066Z"/>
            <path class="cls-2" d="M129.496,226.55284s-44.9273,61.8232-24.8423,80.8896c20.0908,19.0674,44.227-2.791,51.563-17.3115,10.4443-20.6562-.6744-36.3095-.6744-36.3095Z"/>
            <path class="cls-10" d="M113.89,269.78334c4.3901-14.751,14.8862-39.7959,16.1099-42.7012l-.0205-.0332c-1.5118,2.7002-16.5733,29.8867-24.0601,54.0527a118.07765,118.07765,0,0,0-4.7398,21.8428,14.92884,14.92884,0,0,0,2.9976,3.9971,31.22654,31.22654,0,0,0,4.3906,3.4433C107.746,303.68174,107.68639,290.64754,113.89,269.78334Zm39.689,23.5283a18.75989,18.75989,0,0,1-7.7559-9.9111c-2.602-7.292-7.4521-42.6377-7.4521-42.6377s-.4131,40.8945,1.5512,46.2656c1.5698,4.2861,3.9512,13.2373,4.8604,16.6924A54.25728,54.25728,0,0,0,153.579,293.31164Zm-20.7251-61.3057s-11.4952,34.7715-13.6602,52.9112c-1.5933,13.3066-3.729,23.6699-4.7554,28.2744a23.17233,23.17233,0,0,0,10.9512.8183,90.74332,90.74332,0,0,1-1.9033-29.4101C125.26649,267.84674,132.85389,232.00594,132.85389,232.00594Zm2.7885,3.5371s-5.4629,29.0655-7.2133,49.3526c-1.2705,14.6963.4961,23.958,1.57371,27.957a39.16,39.16,0,0,0,10.92089-5.918c-1.4946-2.3164-5.0952-8.3281-6.2612-14.3662C131.33039,275.36534,135.64239,235.543,135.64239,235.543Zm21.2276,51.5791a39.6182,39.6182,0,0,0,3.1665-11.8506,32.52794,32.52794,0,0,1-6.0415-6.9501c-5.2573-8.0625-10.189-21.9581-10.189-21.9581s1.2891,14.8291,3.7564,24.1934C149.5038,277.91224,154.70739,284.588,156.87,287.12214Z"/>
          </g>
          <g>
            <path class="cls-3" d="M156.055,250.17194s-8.0434,79.709,20.2149,86.3662c28.2607,6.6583,38.5742-25.875,37.5503-42.9003-1.4492-24.2168-19.7793-32.5215-19.7793-32.5215Z"/>
            <path class="cls-2" d="M154.65809,247.36924s-8.0396,79.7022,20.2138,86.3604c28.2593,6.6572,38.5738-25.879,37.5513-42.9014-1.4507-24.2168-19.7822-32.5176-19.7822-32.5176Z"/>
            <path class="cls-11" d="M163.35189,294.753c-3.8125-15.6748-7.5322-43.8916-7.9565-47.1699l-.0371-.0205c.0556,3.2441.77,35.8105,6.7519,61.6474a123.872,123.872,0,0,0,7.2417,22.2813,15.66732,15.66732,0,0,0,4.8233,2.0381,32.48544,32.48544,0,0,0,5.7939.7949C175.6878,328.69344,168.75129,316.92494,163.35189,294.753Zm48.3613.3496a19.65277,19.65277,0,0,1-12.2558-4.8809c-6.20559-5.2265-29.2622-34.6757-29.2622-34.6757s21.2202,37.2519,25.8359,41.0761c3.6821,3.0537,10.5635,9.8965,13.2149,12.5547A57.15356,57.15356,0,0,0,211.71319,295.10264Zm-51.1367-44.5674s7.9512,37.5508,15.5674,55.1192c5.584,12.8925,9.1221,23.4013,10.6245,28.1142a24.2607,24.2607,0,0,0,10.3457-5.042,95.11741,95.11741,0,0,1-17.251-25.622C172.63069,286.98934,160.57649,250.53524,160.57649,250.53524Zm4.3916,1.7276s10.4019,29.1982,19.5269,48.498c6.61081,13.9766,13.1015,21.4316,16.188,24.4863a41.12236,41.12236,0,0,0,6.7646-11.1259c-2.5771-1.3106-9.0107-4.8545-13.2563-9.7022C182.09169,290.60164,164.96809,252.26284,164.96809,252.26284Zm46.4541,35.4941a41.4102,41.4102,0,0,0-3.3882-12.3975,34.11929,34.11929,0,0,1-9.13719-3.1025c-9.02051-4.5283-20.82421-14.5059-20.82421-14.5059s8.9981,12.7452,16.17821,19.9248C199.89289,283.30964,208.1268,286.60554,211.42219,287.75694Z"/>
          </g>
          <g>
            <path class="cls-2" d="M266.52228,257.95424s30.3858,22.5341,44.1211,30.7656c13.7363,8.2314,42.9443,20.5957,47.21242-.5947,4.26948-21.1817-7.80522-44.4414-1.69922-55.168,6.1055-10.7266,2.9629-18.1094,2.9629-18.1094Z"/>
            <path class="cls-12" d="M306.91248,259.46394a111.82883,111.82883,0,0,1-5.2378,23.4981c3.12012,2.0937,5.9975,3.9551,8.416,5.4228-.3535-1.1299-.7071-2.3623-1.0454-3.7217C306.42758,274.09094,306.91248,259.46394,306.91248,259.46394Zm-15.6202,16.3575c.8619.6015,1.7217,1.205,2.5796,1.7978a143.26762,143.26762,0,0,1,1.75592-16.4785C294.1068,266.09194,292.61168,271.209,291.29228,275.82144Zm66.56352,12.3037a57.17072,57.17072,0,0,0,.68748-15.8741c-2.2949-.0117-6.2534-.7519-10.1723-4.9238-6.0391-6.4248-15.7671-18.2851-15.7671-18.2851s12.8628,17.2705,15.4848,22.2509c2.002,3.8037,6.0464,16.3575,7.85112,22.0821A16.936,16.936,0,0,0,357.8558,288.12514Zm-40.88872-31.7178s3.7081,22.5439.9864,36.2734a88.68521,88.68521,0,0,0,11.7324,4.7969c-2.2866-6.6699-6.585-19.2725-8.1318-24.293C319.26738,265.76574,316.96708,256.40734,316.96708,256.40734Zm8.4053-3.7608s7.63042,20.4385,10.5195,30.044c1.4214,4.7187,1.899,11.6426,2.0494,16.7861,5.5224.8311,10.6338.4082,14.3701-2.1592-2.5977-4.1386-11.0137-17.5957-15.7095-25.5078C331.32308,262.91124,325.37238,252.64654,325.37238,252.64654Z"/>
            <path class="cls-3" d="M357.8558,288.12514c4.26948-21.1817-7.80522-44.4414-1.69922-55.168,6.1055-10.7266,2.9629-18.1094,2.9629-18.1094-12.1138,7.751-20.5161,19.2637-17.2905,26.6944,5.75,13.2431,15.3491,25.1445,15.02682,35.7656-.77542,25.8183-37.44332,16.8652-48.14742,9.041-11.9585-8.7236-43.8311-30.0566-43.8311-30.0566s-9.11469,11.7207,1.645,15.1005c17.35552,5.4444,33.9048,12.168,43.9033,18.1582C324.16388,297.78524,353.58768,309.31554,357.8558,288.12514Z"/>
            <path class="cls-3" d="M335.57648,233.53424s3.7095,17.7344,13.187,26.6641c0,0-12.5874-7.1865-17.0234-26.4766Z"/>
            <path class="cls-3" d="M325.04188,239.83214s15.8505,31.5244,23.7216,42.1543c0,0-21.0986-22.6768-25.5341-41.9668Z"/>
            <path class="cls-3" d="M318.94418,237.15634s8.6289,34.21,14.0073,46.2959c0,0-15.6763-26.7187-15.8198-46.5078Z"/>
            <path class="cls-3" d="M313.84848,236.35554s-1.2178,35.2637.59032,48.3711c0,0-7.63182-30.0234-2.27-49.0752Z"/>
            <path class="cls-3" d="M308.23568,229.08114s-7.2256,34.5332-7.6831,47.7559c0,0-2.3911-30.8848,6.147-48.7373Z"/>
            <path class="cls-3" d="M297.69808,220.379s-7.2266,34.539-7.6851,47.7578c0,0-2.3901-30.8877,6.148-48.7393Z"/>
          </g>
          <g>
            <g>
              <path class="cls-13" d="M397.28158,192.39174c5.4941-17.9248,1.3848-37.6358-1.4063-47.9209-17.7187,21.0449-21.791,16.6347-32.5312,4.791a172.1401,172.1401,0,0,1,.13872,21.1211c-.76172,19.7246,4.291,29.2129,4.42378,44.6006,6.44922-6.6182,10.2676-11.7207,11.41022-13.7959.59368,14.0136,8.10928,25.4716,17.73818,34.4638C394.52568,226.33894,392.02768,209.46784,397.28158,192.39174Z"/>
              <path class="cls-13" d="M326.27568,137.81264a100.71516,100.71516,0,0,0,6.4883-23.0767q-5.718-6.39105-11.4936-12.728c-13.6553-14.9448-28.479-28.2788-46.4722-37.315-1.7329,10.648-5.2031,27.1592-11.3999,38.7984-9.835,18.4809-12.40869,27.289-6.41989,56.331,5.97649,29.044-4.70659,63.3662-5.5645,69.0899-.688,4.6884-.0942,26.54,5.5645,41.2275,34.62449-5.915,62.15919-17.6924,82.18649-31.2978-3.6973-12.751.3867-27.544-6.4766-42.0547C324.55988,179.62314,319.00468,155.418,326.27568,137.81264Z"/>
              <path class="cls-13" d="M222.3338,175.66314c-2.14061-15.8408-4.706-28.5888-4.706-52.3618,0-23.7734-23.95171-45.7705-37.21921-61.6113a54.93358,54.93358,0,0,0-20.5547-15.1738,194.132,194.132,0,0,0-41.1797,10.6279c6.0815.5737,15.501,2.978,25.3843,12.897,17.9619,18.0473,23.1015,34.7763,21.3852,52.813-1.7051,18.0464,5.1397,29.0473,6.8364,39.1733,1.7168,10.1191-8.9775,24.6367-31.2197,41.3594-22.2451,16.7353-24.8013,22.0097-25.2349,27.7217-.2734,3.7998-12.3525,10.6084-20.2446,17.9101,24.52591,9.4854,52.2022,16.9883,80.9912,22.1475q8.8836,1.52775,17.38671,2.3838c7.94979-14.5596,10.08159-37.8018,10.82569-53.4278C205.64389,202.51084,224.46419,191.50694,222.3338,175.66314Z"/>
              <path class="cls-14" d="M251.41389,228.91224c.85791-5.7237,11.541-40.0459,5.5645-69.0899-5.9888-29.042-3.4151-37.8501,6.41989-56.331,6.1968-11.6392,9.667-28.1504,11.3999-38.7984-.5361-.2798-1.0649-.5561-1.6016-.8095-18.01119-8.6924-38.07709-13.7369-57.70889-16.7178a195.18919,195.18919,0,0,0-55.6338-.6494A54.93358,54.93358,0,0,1,180.40859,61.69c13.2675,15.8408,37.21921,37.8379,37.21921,61.6113,0,23.773,2.56539,36.521,4.706,52.3618,2.13039,15.8438-16.68991,26.8477-17.54931,44.459-.7441,15.626-2.8759,38.8682-10.82569,53.4278a231.40245,231.40245,0,0,0,63.15969-1.7969C251.452,257.08114,250.72589,233.60064,251.41389,228.91224Z"/>
              <path class="cls-15" d="M115.82549,231.10854c.4336-5.712,2.9898-10.9864,25.2349-27.7217,22.2422-16.7227,32.9365-31.2403,31.2197-41.3594-1.6967-10.126-8.5415-21.1269-6.8364-39.1733,1.7163-18.0367-3.4233-34.7657-21.3852-52.813-9.8833-9.919-18.8501-12.7959-24.93269-13.3501-68.84471,25.5054-105.96091,83.3393-105.96091,83.3393s-6.4106-11.0048-11.5405-5.29c-5.1299,5.7217,3.4155,12.7568,4.6948,17.6055-7.6929,8.7959,2.5762,15.3965,6.8457,22.0058,10.6475,36.6748,41.8208,59.9043,82.1792,75.5039C103.23909,242.56654,115.55209,234.90834,115.82549,231.10854Z"/>
              <path class="cls-16" d="M445.182,214.836c-7.2793-28.1719-11.9649-28.6035,3.4219-66.4541,10.9121-26.8145-6.5782-44.9785-14.4629-51.7207-3.07418,2.5283-9.5157,10.1948-26.168,32.3643-4.6465,6.2314-8.6269,11.3398-12.0977,15.4453,2.7911,10.2851,6.9004,29.9961,1.4063,47.9209-5.2539,17.0761-2.7559,33.9472-.2266,43.2597,11.793,11.0078,26.7891,18.2666,36.211,21.8614C444.14488,250.76764,450.92418,237.03814,445.182,214.836Z"/>
              <path class="cls-3" d="M455.87528,154.54214c10.6934-35.6543-16.6796-58.521-18.8222-58.9742-.69728-.145-1.4141-.1333-2.9121,1.0933,7.8847,6.7422,25.375,24.9062,14.4629,51.7207-15.3868,37.8506-10.7012,38.2822-3.4219,66.4541,5.7422,22.2021-1.0371,35.9316-11.916,42.6768,4.875,1.8671,8.25782,2.7519,8.9277,2.6523,2.9883-.8789,20.1035-13.2158,13.6816-42.6924C443.89288,178.75014,448.60388,174.79894,455.87528,154.54214Z"/>
              <path class="cls-17" d="M363.4828,170.38294a182.93337,182.93337,0,0,0-.22462-21.6983c-.4805-.5351-.9727-1.0634-1.4903-1.6103-9.7778-10.6846-19.34908-21.5469-29.0039-32.3384a100.71516,100.71516,0,0,1-6.4883,23.0767c-7.271,17.6054-1.7158,41.8105,6.4126,58.9746,6.8633,14.5107,2.7793,29.3037,6.4766,42.0547a188.974,188.974,0,0,0,28.7417-23.8584C367.7738,199.59584,362.72108,190.10754,363.4828,170.38294Z"/>
            </g>
            <path class="cls-18" d="M399.25228,183.39854c-15.0781,24.1934-6.7266-13.5449-18.5117,5.7666-2.71678,4.4404-7.3457,9.667-13.6817,15.1074a80.07612,80.07612,0,0,1,.8477,10.711c6.44922-6.6182,10.2676-11.7207,11.41022-13.7959.59368,14.0136,8.10928,25.4716,17.73818,34.4638-2.5293-9.3125-5.0273-26.1836.2266-43.2597A60.32693,60.32693,0,0,0,399.25228,183.39854Z"/>
            <path class="cls-18" d="M251.84749,246.251c.80131,8.3858,2.40531,18.0704,5.271,25.502a208.05115,208.05115,0,0,0,82.04639-32.9111c-1.376-4.7793-1.6689-9.8448-1.8574-15.0674C315.31768,234.99324,286.2938,244.28524,251.84749,246.251Z"/>
            <path class="cls-18" d="M159.45739,192.09874c18.2549-21.7158,13.1162-31.0986,11.9741-36.9648a13.01276,13.01276,0,0,1,.42431,4.7451c.17089.7129.30229,1.4414.42429,2.1484,1.7168,10.1191-8.9775,24.6367-31.2197,41.3594-22.2451,16.7353-24.8013,22.0097-25.2349,27.7217-.2734,3.7998-12.5864,11.458-20.4814,18.747,24.5371,9.4844,52.439,16.1514,81.228,21.3106q8.8836,1.52775,17.38671,2.3838c4.461-8.1348,7.06249-19.0069,8.647-29.7393C155.33729,235.37994,144.43589,209.97564,159.45739,192.09874Z"/>
            <path class="cls-19" d="M238.1468,246.668a202.83485,202.83485,0,0,1-35.541-2.8574c-1.58451,10.7324-4.186,21.6045-8.647,29.7393a231.40245,231.40245,0,0,0,63.15969-1.7969c-2.86569-7.4316-4.46969-17.1162-5.271-25.502C247.388,246.52644,242.80549,246.668,238.1468,246.668Z"/>
            <path class="cls-19" d="M337.30748,223.77454c.1885,5.2226.4814,10.2881,1.8574,15.0674a188.974,188.974,0,0,0,28.7417-23.8584,80.07612,80.07612,0,0,0-.8477-10.711A152.99683,152.99683,0,0,1,337.30748,223.77454Z"/>
            <path class="cls-20" d="M29.56529,126.23154s36.3594-48.4121,91.54151-70.4199C112.54429,57.13194,54.38359,98.05674,29.56529,126.23154Z"/>
            <path class="cls-21" d="M141.2098,58.89614s117.47459-28.751,211.58208,87.4292C339.68438,125.79014,250.12189,18.41564,141.2098,58.89614Z"/>
            <path class="cls-18" d="M44.25519,221.43274c-1.9995-1.6465,20.5284,24.0664,79.84961,21.1338,59.30229-2.9336,55.31449,21.1113,107.21439,17.5986,51.90089-3.5225,136.29439-42.248,147.70461-55.7393-15.96292,18.7627-78.124,75.1055-168.24121,69.2422C121.81329,267.79214,64.78359,238.46394,44.25519,221.43274Z"/>
            <path class="cls-20" d="M431.48858,105.24914s-14.539,13.6387-13.6816,16.7231c.8496,3.0811,13.25982-7.9145,16.6816-11.8808C437.90268,106.14024,433.639,103.044,431.48858,105.24914Z"/>
            <path class="cls-20" d="M438.7718,125.64854a83.71919,83.71919,0,0,0-8.11912,7.9199c-3.4414,3.96,5.11912,2.6406,9.4004-3.081C444.33628,124.772,441.76008,122.99624,438.7718,125.64854Z"/>
            <path class="cls-20" d="M439.59018,139.10264s-3.6856,1.1992-7.3731,2.3984c-3.69528,1.2051-2.2812,4.0538,4.7696,2.1661C444.04328,141.79114,441.70538,138.69154,439.59018,139.10264Z"/>
            <path class="cls-20" d="M439.66638,231.67684s-2.6973-2.8584-5.4024-5.707c-2.7187-2.8574-4.5449-.2559.2637,5.3652C439.34608,236.95324,440.98668,233.40144,439.66638,231.67684Z"/>
            <path class="cls-20" d="M430.18,247.58314s-3.3457-2.0078-6.6933-4.0078c-3.33988-1.9971-4.4336.9873,1.6504,5.0927C431.23468,252.77944,431.8968,248.90344,430.18,247.58314Z"/>
            <path class="cls-20" d="M431.0668,210.28034c1.75388.5196,11.12688,8.3711,8.98628,12.3213C437.90268,226.57434,425.07848,208.53424,431.0668,210.28034Z"/>
            <path class="cls-22" d="M409.24448,226.72274c-7.4004-13.5088,16.5508-15.8408,4.5762-31.0957-11.9766-15.2705,18.24612-25.2441,7.41212-27.5918-10.834-2.3379-15.39852-11.7324-9.69342-25.2226,3.459-8.2256,3.5527-17.0586,3.60942-23.2842-2.15822,2.8301-4.52352,5.9687-7.17582,9.4971-4.6465,6.2314-8.6269,11.3398-12.0977,15.4453,2.7911,10.2851,6.9004,29.9961,1.4063,47.9209-5.2539,17.0761-2.7559,33.9472-.2266,43.2597a98.4818,98.4818,0,0,0,14.92582,11.2832C410.80308,239.67194,413.67028,234.75794,409.24448,226.72274Z"/>
          </g>
          <g>
            <path class="cls-23" d="M50.42519,134.73744a21.703,21.703,0,1,0,21.7011-21.4395A21.56925,21.56925,0,0,0,50.42519,134.73744Z"/>
            <g>
              <path class="cls-13" d="M49.79969,130.753a19.25268,19.25268,0,1,0,19.2475-19.0137A19.12146,19.12146,0,0,0,49.79969,130.753Z"/>
              <path d="M53.76689,130.753a15.28258,15.28258,0,1,0,15.2803-15.1006A15.17993,15.17993,0,0,0,53.76689,130.753Z"/>
              <path class="cls-13" d="M81.69519,129.48744a14.96267,14.96267,0,0,0-3.959-10.1553,14.75677,14.75677,0,0,1,5.1484,11.2305c0,8.1084-6.3144,14.6748-14.0986,14.6748a13.79343,13.79343,0,0,1-10.1353-4.5039,13.69233,13.69233,0,0,0,8.9527,3.4111C75.38019,144.14464,81.69519,137.58314,81.69519,129.48744Z"/>
              <path class="cls-13" d="M58.6908,126.086a6.28505,6.28505,0,1,0,6.29049-6.2134A6.26118,6.26118,0,0,0,58.6908,126.086Z"/>
              <path class="cls-13" d="M58.431,135.17a2.08341,2.08341,0,1,0,2.0781-2.042A2.073,2.073,0,0,0,58.431,135.17Z"/>
            </g>
          </g>
          <path class="cls-24" d="M94.38169,101.96884s28.6162,20.0064,23.3018,56.3516c-3.1636,21.0185-22.7642,33.0566-27.3453,33.6396,10.6661,3.0147,32.3492-3.3291,35.3462-35.7842C128.68739,123.733,102.94809,104.29944,94.38169,101.96884Z"/>
          <path class="cls-25" d="M89.79819,100.02354s28.62161,20.0063,23.3042,56.3545c-3.16359,21.0098-22.7598,33.0469-27.3428,33.6396,10.6656,3.0049,32.3511-3.3349,35.3487-35.7871C124.10389,121.78474,98.368,102.35994,89.79819,100.02354Z"/>
          <path class="cls-24" d="M32.7508,134.15734S63.035,189.10854,92.662,181.22374c8.2036-2.1387,22.2924-28.5674,9.205-54.0137.7256,10.0557-3.0585,43.0996-17.2495,41.417C70.27569,166.92984,44.53109,154.49034,32.7508,134.15734Z"/>
        </g>
      </g>
    </g>
  </g>
</svg>
