<svg xmlns="http://www.w3.org/2000/svg" width="31.59941" height="57.70344" viewBox="0 0 31.59941 57.70344">
  <defs>
    <style>
      .cls-1 {
        fill: #141614;
      }

      .cls-2 {
        fill: #b3b3ae;
      }

      .cls-3 {
        fill: #c1c2bd;
      }

      .cls-4 {
        fill: #dde0e1;
      }

      .cls-5 {
        fill: #131513;
      }

      .cls-6 {
        fill: #c7c7c2;
      }

      .cls-7 {
        fill: #c4c4bf;
      }

      .cls-8 {
        fill: #fcfbfa;
      }

      .cls-9 {
        fill: #bbbbb6;
      }

      .cls-10 {
        fill: #d3d4cf;
      }

      .cls-11 {
        fill: #1b1d1a;
      }

      .cls-12 {
        fill: #a7a6a0;
      }

      .cls-13 {
        fill: #cbcbc7;
      }

      .cls-14 {
        fill: #ddddd9;
      }

      .cls-15 {
        fill: #d3d5d5;
      }

      .cls-16 {
        fill: #d3d2d0;
      }

      .cls-17 {
        fill: #dcdbd8;
      }

      .cls-18 {
        fill: #3e3f3b;
      }

      .cls-19 {
        fill: #1f201e;
      }

      .cls-20 {
        fill: #373834;
      }

      .cls-21 {
        fill: #d8dad8;
      }

      .cls-22 {
        fill: #969592;
      }

      .cls-23 {
        fill: #7b7b77;
      }

      .cls-24 {
        fill: #91918d;
      }

      .cls-25 {
        fill: #bfbfbb;
      }

      .cls-26 {
        fill: #9d9c9a;
      }

      .cls-27 {
        fill: #b8baba;
      }

      .cls-28 {
        fill: #292a27;
      }

      .cls-29 {
        fill: #8f8f8c;
      }

      .cls-30 {
        fill: #908f8c;
      }

      .cls-31 {
        fill: #c6c6c3;
      }

      .cls-32 {
        fill: #e7e6e6;
      }

      .cls-33 {
        fill: #d5d5d0;
      }

      .cls-34 {
        fill: #c5c4c0;
      }

      .cls-35 {
        fill: #eceae8;
      }

      .cls-36 {
        fill: #91928d;
      }

      .cls-37 {
        fill: #aeaea9;
      }

      .cls-38 {
        fill: #b1b1ac;
      }

      .cls-39 {
        fill: #8e8f89;
      }

      .cls-40 {
        fill: #7e807a;
      }

      .cls-41 {
        fill: #9c9c97;
      }

      .cls-42 {
        fill: #9e9d99;
      }

      .cls-43 {
        fill: #a1a19d;
      }

      .cls-44 {
        fill: #979792;
      }

      .cls-45 {
        fill: #c8c8c4;
      }

      .cls-46 {
        fill: #a5a5a0;
      }

      .cls-47 {
        fill: #a9a9a5;
      }

      .cls-48 {
        fill: #c1c1bc;
      }

      .cls-49 {
        fill: #babab5;
      }

      .cls-50 {
        fill: #bbbbb7;
      }

      .cls-51 {
        fill: #ededeb;
      }

      .cls-52 {
        fill: #cacdcc;
      }

      .cls-53 {
        fill: #e1e0dd;
      }

      .cls-54 {
        fill: #d5d7d6;
      }

      .cls-55 {
        fill: #b1b1ae;
      }

      .cls-56 {
        fill: #e4e5e4;
      }

      .cls-57 {
        fill: #161715;
      }

      .cls-58 {
        fill: #d3d3cf;
      }

      .cls-59 {
        fill: #2b2c29;
      }

      .cls-60 {
        fill: #92938e;
      }

      .cls-61 {
        fill: #b8b8b4;
      }

      .cls-62 {
        fill: #999993;
      }

      .cls-63 {
        fill: #dfdfdc;
      }

      .cls-64 {
        fill: #aaaaa5;
      }

      .cls-65 {
        fill: #a0a19c;
      }

      .cls-66 {
        fill: #979893;
      }

      .cls-67 {
        fill: #f2eee3;
      }

      .cls-68 {
        fill: #d5d5d1;
      }

      .cls-69 {
        fill: #9a9b97;
      }

      .cls-70 {
        fill: #eae3d0;
      }

      .cls-71 {
        fill: #d7cab1;
      }

      .cls-72 {
        fill: #5b5c57;
      }

      .cls-73 {
        fill: #80817c;
      }

      .cls-74 {
        fill: #9a9b96;
      }

      .cls-75 {
        fill: #94958f;
      }

      .cls-76 {
        fill: #a1a19c;
      }

      .cls-77 {
        fill: #9f9f9a;
      }

      .cls-78 {
        fill: #8d8e88;
      }

      .cls-79 {
        fill: #999994;
      }

      .cls-80 {
        fill: #ccccc8;
      }

      .cls-81 {
        fill: #747570;
      }

      .cls-82 {
        fill: #848680;
      }

      .cls-83 {
        fill: #d2d5d4;
      }

      .cls-84 {
        fill: #cacbc9;
      }

      .cls-85 {
        fill: #e0e1df;
      }

      .cls-86 {
        fill: #e6e7e6;
      }

      .cls-87 {
        fill: #bbbbb8;
      }

      .cls-88 {
        fill: #d4d6d3;
      }

      .cls-89 {
        fill: #dcdedd;
      }

      .cls-90 {
        fill: #c6c7c4;
      }

      .cls-91 {
        fill: #f2f1ef;
      }

      .cls-92 {
        fill: #d1d2d1;
      }

      .cls-93 {
        fill: #e7e6e4;
      }

      .cls-94 {
        fill: #ededec;
      }

      .cls-95 {
        fill: #cbd0d0;
      }

      .cls-96 {
        fill: #1d1f1d;
      }

      .cls-97 {
        fill: #dadddc;
      }

      .cls-98 {
        fill: #dfdfdb;
      }

      .cls-99 {
        fill: #4f504b;
      }

      .cls-100 {
        fill: #232522;
      }

      .cls-101 {
        fill: #63655f;
      }

      .cls-102 {
        fill: #9b9a95;
      }

      .cls-103 {
        fill: #a6a6a1;
      }

      .cls-104 {
        fill: #5c5d58;
      }

      .cls-105 {
        fill: #8f8e89;
      }

      .cls-106 {
        fill: #ccccc7;
      }

      .cls-107 {
        fill: #cccbc7;
      }

      .cls-108 {
        fill: #7b7c77;
      }

      .cls-109 {
        fill: #f4f4f2;
      }

      .cls-110 {
        fill: #484945;
      }

      .cls-111 {
        fill: #212221;
      }

      .cls-112 {
        fill: #343532;
      }

      .cls-113 {
        fill: #444641;
      }

      .cls-114 {
        fill: #9a9995;
      }

      .cls-115 {
        fill: #8b8b86;
      }

      .cls-116 {
        fill: #868782;
      }

      .cls-117 {
        fill: #797b75;
      }

      .cls-118 {
        fill: #888984;
      }

      .cls-119 {
        fill: #70716c;
      }

      .cls-120 {
        fill: #7f807b;
      }

      .cls-121 {
        fill: #a4a49f;
      }

      .cls-122 {
        fill: #9f9f9b;
      }

      .cls-123 {
        fill: #bcbcba;
      }

      .cls-124 {
        fill: #8c8d87;
      }

      .cls-125 {
        fill: #72736e;
      }

      .cls-126 {
        fill: #7a7c76;
      }

      .cls-127 {
        fill: #9a9a95;
      }

      .cls-128 {
        fill: #8a8b86;
      }

      .cls-129 {
        fill: #989993;
      }

      .cls-130 {
        fill: #959590;
      }

      .cls-131 {
        fill: #7b7c76;
      }
    </style>
  </defs>
  <g id="图层_2" data-name="图层 2">
    <g id="Object">
      <g>
        <path class="cls-1" d="M24.74382,55.361c-1.2969.7087-2.7764.4479-4.1467.7737-.3029.072-.6421-.0135-.9155.2055a7.2579,7.2579,0,0,1-5.9954,1.1997c-1.3541-.2236-2.6687.3222-4.0274-.1428a4.16086,4.16086,0,0,0-2.1761-.5329c-.9937-1.0352-2.3175-.4802-3.4787-.7015-.6638-.1265-1.3507-.1766-1.2896-1.0398.064-.9042.8094-1.1505,1.5523-1.1263.7066.0229,1.4137.1483,2.1272.1361a1.82713,1.82713,0,0,1,.5284.0918,16.53845,16.53845,0,0,1,1.6112.9103c.763.2781,1.1605-.3931,1.7113-.6623a4.48233,4.48233,0,0,1,.5868-.3711,2.45338,2.45338,0,0,1,2.7801-.2968c.9103.4296,1.8835-.0555,2.8224.0918a2.21755,2.21755,0,0,1,.366.0415,3.51582,3.51582,0,0,1,.6924.248c.438.2237.8955.4075,1.331.6385,1.275.6965,2.6292.4449,3.9702.3333C23.45782,55.1024,24.13662,54.8806,24.74382,55.361Z"/>
        <path class="cls-2" d="M.26072,38.6717a5.15575,5.15575,0,0,1-.221-2.4546,34.40542,34.40542,0,0,1,.2217-6.2756c.5626.773-.1559,1.6177.1449,2.2361.0117-.2631-.0181-.6971.008-1.1294.0116-.1912.027-.4056.3427-.3105.108.0326.1819.3192.2088.1542a9.16579,9.16579,0,0,1,1.6136-4.1711c.7801-1.0012,1.3979-2.0735,2.0884-3.114.1097-.1654.2982-.3929.4628-.3327.7888.2883,1.2536-.2925,1.8202-.6091.3509-.1961.7138-.4066,1.1109-.1279.3447.2418.2426.6094.2812.9657.1124,1.0356-.3615,2.0143-.2261,3.0413.1566,1.467-.5224,2.8372-.3242,4.3771a5.08376,5.08376,0,0,1-.6848,3.5959c-.1907.5407-.0521,1.2593-.8064,1.4944-.7547-.3823-.5564-1.0253-.4524-1.6427a6.38082,6.38082,0,0,1,.0747-1.3812,11.26592,11.26592,0,0,1,.5328-3.8239c.7836-1.2618.3124-2.6288.3805-4.129-3.1348,2.6926-4.5468,6.2537-6.0276,9.7708a.95248.95248,0,0,0,.0607.9265A1.48635,1.48635,0,0,1,.741,37.1676C.51312,37.6479.79012,38.2893.26072,38.6717Z"/>
        <path class="cls-3" d="M24.74382,55.361c-1.4499.0207-2.8591.4505-4.3324.3518a2.93755,2.93755,0,0,1-1.9136-.7218c-.1184-.2182.0242-.3294.1691-.4356-.0093.0005-.0053-.0932-.0053-.0932s-.0915-.0206-.1016-.0212a1.1536,1.1536,0,0,1-.78-1.0615c.097-.9912.573-1.3247,1.5889-1.1019.6023.1321,1.3917.5644,1.8373-.3627.2567-.5738.5748-1.0631,1.321-.9628a8.49077,8.49077,0,0,0,3.323,1.7096c.0686-.0457.0745-.1102.0501-.2017-.1208-.4523-.7321-1.0687-.0594-1.321.641-.2404,1.1366.3857,1.3915,1.0184a1.67043,1.67043,0,0,1,.011.8251.665.665,0,0,0,.1724.5436c.5639.5757.8332,1.1009-.1886,1.4864-.1535.0579.0342.2854-.0624.417C26.35192,55.614,25.568,54.7741,24.74382,55.361Z"/>
        <path class="cls-4" d="M25.27142,23.9773q.60135,2.36745,1.2025,4.7348a5.22112,5.22112,0,0,1,.1419.9328c-.2719.8108-.2999,1.7372-1.0854,2.3061a2.82193,2.82193,0,0,1-1.5429-2.3331,13.81886,13.81886,0,0,0-.9936-3.3107,1.16345,1.16345,0,0,0-.8939-.7209,1.50263,1.50263,0,0,1-1.5287-1.0824,2.11842,2.11842,0,0,1-1.4137-1.6311c.5523-1.0642.643-1.0805,1.4251-.2458.1072.1143.2016.2409.3142.3505.2882.2804.6247.5801,1.0286.4536.5581-.1748.1984-.6615.2187-1.0135a1.21216,1.21216,0,0,1,.1206-.5664c.5789-.3851,1.3257-.5648,1.6069-1.3153.1774-.1825.3544-.2906.5215.0109a1.42221,1.42221,0,0,1,.0509,1.5766,2.38424,2.38424,0,0,0-.2417,1.5132c.4007-.0422.2845-.6903.7614-.6127C25.315,23.2585,24.93462,23.7365,25.27142,23.9773Z"/>
        <path class="cls-5" d="M8.24622,9.8102a1.14545,1.14545,0,0,1-.5174-1.014,1.71926,1.71926,0,0,0-1.08-1.5653c-1.0384-.5192-1.0494-.814-.1295-1.5667a10.91911,10.91911,0,0,1,.9651-.6389,1.03308,1.03308,0,0,1,1.1878-.0645c.3047.1423.5477.4378.9934.381-.0894-.4393-.4299-.8349-.2446-1.3058.2634-.7453,1.2974-.7561,1.4927-1.569a.57474.57474,0,0,1,.6219-.1894,1.31717,1.31717,0,0,1,.6371,1.0088,2.05506,2.05506,0,0,1-.1591.6698,2.69261,2.69261,0,0,0,.1566,2.6637c.2979,1.0557.0153,1.5816-1.0202,1.801a4.90752,4.90752,0,0,1-1.9061.0242c-.7664-.144-1.0492.025-.822.819A.565.565,0,0,1,8.24622,9.8102Z"/>
        <path class="cls-6" d="M7.95392,26.6216a1.61839,1.61839,0,0,1-.0176-1.6477c.3083-.5356.0343-1.3832.1119-2.0989.0316-.2917-.3816-.3009-.6615-.1064-.4254.2958-.8569.5841-1.2986.8547-.2505.1535-.5159,1.0629-.8-.0024-.0724-.2713-.23-.0281-.3006.0731a4.24418,4.24418,0,0,0-.3686.6088,5.95736,5.95736,0,0,1-1.6062,2.1527,4.0257,4.0257,0,0,0-.8943,1.7832c-.3301,1.2558-1.0491,2.3676-1.3083,3.6635q-.0444-.4461-.0889-.8924l-.1704-.0034v2.0238l-.2894.0002V29.9415a5.6417,5.6417,0,0,1,.7549-3.0783c.2527-.2862.3078-.7171.6731-.9215.9547-.1108.895-1.0519,1.3077-1.606a1.22362,1.22362,0,0,1,.1578-.2924A16.84455,16.84455,0,0,1,5.689,21.9118a2.176,2.176,0,0,1,2.7426-.0214c.779.7008.414,1.6523.5494,2.4952-.1507.7693-.6341,1.4324-.7143,2.2261A.26963.26963,0,0,1,7.95392,26.6216Z"/>
        <path class="cls-7" d="M.26072,38.6717c.1466-.5673-.1826-1.208.2668-1.7286.046.0321.092.0642.1388.0955.8323,2.3706,1.8292,4.7003,1.8165,7.2829a1.47335,1.47335,0,0,1-.1846,1.0333c-.4973.5631-.0052.7306.3417.9698a.79054.79054,0,0,1,.1853.2775c.0122.664-.3505,1.2764-.2703,1.9519a1.177,1.177,0,0,1-.5769.6506c-.3598.1255-.4663.5418-.8788.7367-.699-1.0254-.4514-2.1551-.3659-3.2623a3.13507,3.13507,0,0,1-.1653-.9291C.88332,43.3698.30042,41.0329.26072,38.6717Z"/>
        <path class="cls-6" d="M27.16482,55.4295c-.1826-.1389-.3651-.2778-.5456-.4153a.50613.50613,0,0,1,.4758-.3025c.2339-.0319.5184-.0181.6005-.2898.093-.3078-.2348-.3474-.3935-.5007-.247-.2387-.816-.3658-.3753-.8982.6353-.533.7705-1.5706,1.7849-1.7469.1111-.0193.058-.4367.1527-.6553.0423-.1537.0814-.3069.1281-.4575.1022-.3291.1058-.7532.5501-.8226.4028-.0629.6109.2571.8619.5186a3.28645,3.28645,0,0,1-.8208,5.1282A2.62913,2.62913,0,0,1,27.16482,55.4295Z"/>
        <path class="cls-8" d="M5.29362,19.115a7.79859,7.79859,0,0,1,2.1667-4.7409.55452.55452,0,0,1,.5213-.1064,2.17832,2.17832,0,0,1,.8906,1.8979,4.505,4.505,0,0,0-.4274,1.7277c.0311.9171-.8328,1.1694-1.2814,1.733a2.80575,2.80575,0,0,1-1.431.7777.86458.86458,0,0,1-.7036-.2235C4.835,19.7555,5.20762,19.4709,5.29362,19.115Z"/>
        <path class="cls-9" d="M.73332,46.679c.1441.9721-.1719,1.9942.3743,3.0272.16-.4429.149-1.1048.8619-.7565a2.80713,2.80713,0,0,1,1.0998,2.1576,1.0027,1.0027,0,0,0,.9924,1.0825c.8763.1349,1.5963.9605,2.644.4627.3551-.1687.685.3652.7392.7695.0539.4021.3271.9756-.4513,1.0499q-.1923-.01875-.3848-.0373c-1.0002-.1909-2.02-.2588-3.0071-.545a1.41093,1.41093,0,0,1-1.1348-.9151C1.02762,51.1133.11092,49.108.73332,46.679Z"/>
        <path class="cls-10" d="M23.53182,10.0882c.1138.1074.3186.2078.3275.3233.1026,1.3347.1755,2.6717.2563,4.0081-.6712.1291-.8075.5283-.5626,1.1189.0254.2211.0596.4407.0897.6613-.1925.515-.3662.8682-.9454.27a2.05014,2.05014,0,0,1-.7884-1.9587,2.127,2.127,0,0,0-.3037-1.4604c-.2741-.3016-.7593-.2387-1.0086-.5832-.2045-.7667.368-1.0645.8508-1.4176C22.19972,10.8563,22.70642,10.1254,23.53182,10.0882Z"/>
        <path class="cls-11" d="M2.46692,52.9745A8.3132,8.3132,0,0,0,5.498,54.0897a1.74191,1.74191,0,0,1,1.1107.3449,6.10016,6.10016,0,0,1-2.1376-.1254,1.42492,1.42492,0,0,0-1.2391.3091c-.4271.3-.4619.9732-.0202,1.0704.6.1322,1.4034.4429,1.8457.2321,1.2729-.6065,1.8604.0138,2.4252.9434a34.603,34.603,0,0,1-5.2749-.4379,6.32,6.32,0,0,0-1.1583.115c-.5043.0144-1.2563.059-.7656-.876.6227-.5036,1.656-.463,1.917-1.4462Q2.334,53.59675,2.46692,52.9745Z"/>
        <path class="cls-12" d="M29.58362,54.9875a7.54139,7.54139,0,0,0,1.4041-2.3882,3.2105,3.2105,0,0,0-1.1293-2.9231c-.2898-.3305-.5306-.1003-.4963.2514.0362.3724.0552.6933-.2802.9339a.43292.43292,0,0,1-.2997.1151c-1.5475-.2734-1.6576-.4908-.9871-1.947.3435-.7461-.2366-1.0706-.6697-1.4621a.65618.65618,0,0,1-.1057-.3132c.1842-.6838.6637-.6561,1.1989-.4976a3.51283,3.51283,0,0,1,.5518.6049c.2402.2804.5521.5419.897.4422.449-.1298.2196-.5948.2714-.9189a4.33672,4.33672,0,0,1,.0463-1.0896.759.759,0,0,1,.308-.4665,1.93775,1.93775,0,0,1,.2924,1.4733,7.64234,7.64234,0,0,0,.7339,4.1203,4.01879,4.01879,0,0,1-.3503,3.5547C30.70192,54.9909,30.04542,54.8055,29.58362,54.9875Z"/>
        <path class="cls-13" d="M21.84672,12.7222a1.84253,1.84253,0,0,1,.4014,1.737c-.416,1.0517.4644,1.3742.8359,1.9876.085.1404.177.1289.2533.0165a3.95791,3.95791,0,0,0,.2196-.4154.13024.13024,0,0,1,.2036.0095,4.67618,4.67618,0,0,0,.5161,3.1857,2.31885,2.31885,0,0,1,.276,1.3712q-.1305.16455-.2608,0c-.0846-.1254-.1693-.1249-.2538.0001-.7016.0613-.7116-.4693-.7628-.9261a4.71514,4.71514,0,0,0-.7118-2.3598,2.97448,2.97448,0,0,1-2.7736,2.4156,3.2212,3.2212,0,0,0-1.2265.4046,1.20863,1.20863,0,0,1-1.7511-.644.95716.95716,0,0,1,1.0752-.5354,1.462,1.462,0,0,0,1.0118-.1833c.6537-.0547.9191-.6474,1.3647-.9914.7667-.1737.9573-.6711.9052-1.4115A8.49608,8.49608,0,0,1,21.84672,12.7222Z"/>
        <path class="cls-14" d="M7.96322,14.3865l-.5029-.0124a2.72016,2.72016,0,0,1,.5317-1.1815.46911.46911,0,0,1,.4036-.1502c.2376.0409.4297.2127.6739.234.2887-.0112.349-.3236.566-.4295a.76685.76685,0,0,1,.4848-.0525.852.852,0,0,1,.5421.3857c-.5544.7799.1231,1.5534.0209,2.3354-.025.1912.1115.0175.1665.0109.7937-.0948.7018.4121.6261.9134a3.10272,3.10272,0,0,1-2.05,1.6798.88386.88386,0,0,1-1.2286-.3689c-.0842-.5647-.0928-1.1043.4803-1.4516C9.04892,15.4339,8.61912,14.868,7.96322,14.3865Z"/>
        <path class="cls-15" d="M9.64922,12.9645c.0346.5307-.2223.7505-.7392.6926a1.54592,1.54592,0,0,1-.2374-.6365c.2547-1.0059.5304-2.0136-.1918-2.9568l-.2346-.2536c-.0692-.6575-.4668-1.2695-.2583-2.0732a6.10821,6.10821,0,0,0,2.856.401c.9983-.0678,1.3522-.5779,1.0389-1.4581-.3617-.2391-.1485-.5819-.1595-.8843.6166-.2467.5622.3572.7827.6146a4.004,4.004,0,0,1,.2855,1.149c-.1934,1.1782-1.1347,1.0914-1.9778,1.1691-.4242.0106-.8508-.0106-1.2967.0085.0581.3571.3396.6154.3855.9628.1569.8426.4281,1.6623.5231,2.5187C10.26742,12.5715,9.71192,12.5112,9.64922,12.9645Z"/>
        <path class="cls-16" d="M26.44632,29.743l.0276-1.0309a43.66861,43.66861,0,0,1,3.0375,12.4775,28.6065,28.6065,0,0,0,.5819,3.1737q-.08.0474-.1595.0951a.4553.4553,0,0,1-.325-.1481,10.12856,10.12856,0,0,1-.9604-4.2588,14.62293,14.62293,0,0,0-1.0497-5.2495,4.2295,4.2295,0,0,1-.2981-1.0268,5.49905,5.49905,0,0,0-.6127-2.1662C26.55572,30.994,26.08222,30.422,26.44632,29.743Z"/>
        <path class="cls-17" d="M5.09092,20.1404l.7146.0099c.373,1.031-.7312,1.3549-1.0669,2.0432a6.87547,6.87547,0,0,1-1.5714,2.0367q-.0012.11745-.0028.2351c-.1549.3842-.516.6164-.6211,1.0751-.1818.7936-.5246.6194-.7955.0021a1.56269,1.56269,0,0,1,.0179-.3735c.1167-.4149.2946-.809.4208-1.221a8.10876,8.10876,0,0,1,1.3762-2.6295,2.529,2.529,0,0,0,.7771-.9944.80743.80743,0,0,1,.4548-.5061C4.96042,19.8638,4.97942,20.0445,5.09092,20.1404Z"/>
        <path class="cls-18" d="M11.81512.718c.6622.124.9274-.5512,1.4452-.718a1.22712,1.22712,0,0,0,.5496.3205,11.58773,11.58773,0,0,1,4.258,1.3166c1.5042.9642,1.5087.9743.8834,2.009a20.43262,20.43262,0,0,1-3.7582-1.7537,1.67227,1.67227,0,0,0-1.2564-.3975C13.18332,1.5154,12.18412,1.8689,11.81512.718Z"/>
        <path class="cls-19" d="M11.079,2.6172c.2367,1.1933-1.1479.7751-1.437,1.4458-.3789.353-.0915,1.237-.9576,1.2017a2.03364,2.03364,0,0,0-1.2-.2394,8.1745,8.1745,0,0,1,2.4094-2.8737C10.26132,2.3771,10.787,2.1996,11.079,2.6172Z"/>
        <path class="cls-20" d="M11.079,2.6172c-.4235-.0831-1.0244.2854-1.1853-.4657A8.30789,8.30789,0,0,0,11.815.7179a1.9531,1.9531,0,0,0,2.0746.4783c.7712-.2566,1.0749.1204,1.5148.468a12.1583,12.1583,0,0,1-3.8408.7309A.50922.50922,0,0,0,11.079,2.6172Z"/>
        <path class="cls-21" d="M24.29182,20.6143h.2608a12.88673,12.88673,0,0,1,.7188,3.363c-.2854-.1405-.2502-.458-.3436-.7828-.2835.4145-.0387,1.1886-.7311,1.0518-.5856-.1156-.4494-.5719-.3529-1.102.0967-.5311-.0232-1.0291.5072-1.4404C24.72482,21.414,24.431,20.9764,24.29182,20.6143Z"/>
        <path class="cls-22" d="M21.15292,3.1096A5.52939,5.52939,0,0,1,22.58,5.5167c-.268.6527.1511,1.2795.0726,1.9258a.67061.67061,0,0,1-.2872.1707c-.679.0319-1.2796-.4194-1.1035-.9464.4132-1.2359-.2681-2.0217-.8193-2.9082a.83527.83527,0,0,1,.1871-.6955A.41761.41761,0,0,1,21.15292,3.1096Z"/>
        <path class="cls-23" d="M18.04752,1.9A22.04559,22.04559,0,0,0,13.42522.5074,1.40684,1.40684,0,0,1,14.90092.214c1.1595.0982,2.2125.6828,3.3806.7451a2.86656,2.86656,0,0,1,1.6404.9659c-.0567.2072-.0001.4773-.3039.5477C19.071,2.3471,18.576,2.0777,18.04752,1.9Z"/>
        <path class="cls-24" d="M22.32682,7.4433l.2716-.017c.3617-.0155.5455.2396.7364.4841-.0388.7353.6327,1.4065.197,2.1778a3.827,3.827,0,0,1-1.8908,1.1741c-.0566-.1086-.0931-.2609-.0153-.329.9841-.8623.7308-1.9442.5514-3.0148A.70664.70664,0,0,1,22.32682,7.4433Z"/>
        <path class="cls-25" d="M23.33482,7.9104a.78088.78088,0,0,1-.7364-.4841c-.3427-.6333-1.0149-1.2634-.0184-1.9096A1.94318,1.94318,0,0,1,23.33482,7.9104Z"/>
        <path class="cls-26" d="M18.28152.9591c.0826.2333.1703.5342-.234.426-1.0468-.2801-2.0789-.6149-3.1169-.9279a.27769.27769,0,0,1-.0028-.4426A5.88987,5.88987,0,0,1,18.28152.9591Z"/>
        <path class="cls-27" d="M8.48082,10.0638a2.0196,2.0196,0,0,1,.4416,2.8834.62821.62821,0,0,1-.4867.2436l-.4437.0018A4.86473,4.86473,0,0,0,8.48082,10.0638Z"/>
        <path class="cls-28" d="M2.20092,54.2191c.5326.6447-.0146.9241-.4487,1.1427a2.551,2.551,0,0,1-1.4683.3035A2.46159,2.46159,0,0,1,2.20092,54.2191Z"/>
        <path class="cls-13" d="M23.30672,15.5786a1.646,1.646,0,0,1-.2071-.5102c-.0146-.3355-.1587-.7733.1251-.9844.3514-.2613.5705.2631.8909.3356-.1317.4834.0057,1.0164-.2719,1.4728C23.642,15.8267,23.52732,15.6121,23.30672,15.5786Z"/>
        <path class="cls-29" d="M19.70652,2.4003l.2154-.4753a2.31028,2.31028,0,0,1,1.231,1.1846q-.2436.0003-.4871.0007c-.3003.2432-.5749.1256-.8459-.0585C19.63062,2.8615,19.51862,2.6567,19.70652,2.4003Z"/>
        <path class="cls-30" d="M14.92782.0146l.0027.4427c-.5137-.3486-1.0021.0647-1.5051.0499A.44821.44821,0,0,1,13.26032,0Q14.094.00735,14.92782.0146Z"/>
        <path class="cls-31" d="M1.94072,25.1772l.0156.242c-.2232.1955.0185.5388-.2308.7261l-.7092.7179a8.16171,8.16171,0,0,1,.6865-1.9623C1.84812,24.9362,1.861,25.0854,1.94072,25.1772Z"/>
        <path class="cls-32" d="M23.30672,15.5786c.1069-.0946.2441-.2883.3152-.2665.2806.0859.1043.3975.2218.5803a.12749.12749,0,0,1-.0832.165l-.1013-.0138-.1022.0045A.51689.51689,0,0,1,23.30672,15.5786Z"/>
        <path class="cls-33" d="M4.33982,20.3241a.94918.94918,0,0,1-.7771.9944Q3.95122,20.82125,4.33982,20.3241Z"/>
        <path class="cls-34" d="M30.29312,45.3288q-.022.25335-.0443.5069c-.7403-.3444-.5645-.8731-.2863-1.4225a.28183.28183,0,0,1,.1308-.0499C30.33092,44.6497,30.25152,45.0018,30.29312,45.3288Z"/>
        <path class="cls-6" d="M1.94072,25.1772q-.1191-.13815-.2379-.2763.2418-.4764.4837-.9529C2.29442,24.3957,1.99072,24.7611,1.94072,25.1772Z"/>
        <path class="cls-35" d="M5.09092,20.1404l-.2963-.3224.499-.703Q5.19222,19.6277,5.09092,20.1404Z"/>
        <path class="cls-36" d="M16.84462,54.2229l-.2448-.0252a2.54449,2.54449,0,0,1-2.2123-1.0217c-.5183-.7534-1.3874-.6065-2.1806-.2922-.2984.1183-.6529.1891-.867-.1294-.1841-.2739.0437-.5226.1829-.7599a3.53746,3.53746,0,0,1,.5746-.6338c.2361-.223.8082-.266.325-.8335-.2476-.2908.0394-.7525-.0732-1.1406-.2768.1176-.2676.4753-.5238.598-.4838.144-.6079-.1564-.668-.5373-.2246-1.518-.2007-1.5679,1.3002-1.7646a.57289.57289,0,0,0,.518-.3978c.1208-.2877.1937-.6899.6232-.5572.4152.1282.4005.5444.4151.9047.0097.2404-.0834.4679-.0979.7579.2825-.1325.3997-.5074.7483-.4604.4471.4043.5035,1.0617.961,1.4895.3708-.3854.4144-1.0746,1.0855-1.1631,1.0639.0495,1.3278.686,1.1884,1.6183a1.52719,1.52719,0,0,1-.0395.2339A11.82934,11.82934,0,0,0,16.84462,54.2229Z"/>
        <path class="cls-37" d="M6.99362,54.4719a1.03076,1.03076,0,0,0-.0178-1.4194c-.3717-.4998-.6551-.1142-.9538.1781a10.09563,10.09563,0,0,1-3.1442-1.2548,8.46689,8.46689,0,0,0-.9083-3.0261q.23505-.24285.47-.4858c.026-.6459.7816-1.1994.2425-1.9168l.0005.0001a1.46332,1.46332,0,0,1-.3329-1.3734c.2083-.2507.416-.1195.6239-.0006a2.32507,2.32507,0,0,1,.2331.2654c1.1833,1.3869,1.1839,1.3864.2927,2.869-.0393.1018-.0866.1994-.1349.2966a2.45117,2.45117,0,0,0,.838,2.5465,7.47114,7.47114,0,0,0,3.3587.3359c.717-.1634,1.283.4791,1.4902,1.1272a4.87179,4.87179,0,0,1-.1332,2.7691c-.062.2275-.3162.1662-.5005.0561A5.05525,5.05525,0,0,1,6.99362,54.4719Z"/>
        <path class="cls-38" d="M19.24322,54.7047c-.2843.002-.5729-.007-.7454.2863a2.53477,2.53477,0,0,1-1.1631-.5464,8.9222,8.9222,0,0,1,.4875-4.2251,2.25546,2.25546,0,0,0-.3507-2.2298c-.3671-.6818-1.1265-1.4689-.5448-2.141.6339-.7322,1.4759.0591,2.1546.3587,1.9108.8435,1.9045.9326,1.4508,3.0528-.1298.6066.0594,1.2724-.3045,1.8467a.62329.62329,0,0,1-.4144.1882c-1.3314.0278-1.6694.4029-1.7708,1.9717.0877.5521.265,1.0148.9596.9609C19.13632,54.3594,19.39622,54.4277,19.24322,54.7047Z"/>
        <path class="cls-39" d="M11.56082,49.4204c-.1109.2564-.167.4856.24.4861.3135.1004.5066.406.3439.6168-.3506.4539.1113.7115.1424,1.0609l-.4734.48a1.37172,1.37172,0,0,0-.8114,1.3471c-.0028.3498.1132.7249-.1625,1.0341q-.22245.13455-.4448.269c-.5709.2513-.9542-.0824-.855-.5521a2.51771,2.51771,0,0,0-1.5816-3.0115c-.1897-.2733-.3218-.1403-.444.0725a.45582.45582,0,0,1-.7088-.0048,1.39144,1.39144,0,0,1-.3857-.9578.95714.95714,0,0,1,.7674-.6664C8.64492,49.558,10.08242,48.9654,11.56082,49.4204Z"/>
        <path class="cls-40" d="M10.83982,54.4454c-.4247-1.6181-.2994-1.9244.9738-2.3812-.1146.1976-.2294.3952-.3462.5964.3678.2034.553-.0647.7933-.1739a2.0493,2.0493,0,0,1,2.8718,1.0015c.3141.8484,1.1321.1865,1.4674.7095-1.3478-.0375-2.7112.4725-4.0366-.3492C11.94072,53.4626,11.44752,54.3116,10.83982,54.4454Z"/>
        <path class="cls-41" d="M7.00312,51.108c.1617.2411.3203.0302.4801-.0033.1063-.1886.2097-.3829.4812-.2388.1959.135.3776.3565.5899.3914,1.7404.2857,1.45,1.6039,1.2748,2.705-.1022.6425.1647.6628.5659.7521-.6243.3365-1.035,1.2561-1.9774.7246.0771-.02.2228-.0522.2217-.0582a8.91759,8.91759,0,0,1,.2093-2.2207,1.315,1.315,0,0,0-1.5771-1.2865,4.73514,4.73514,0,0,1-3.1471-.5283.23837.23837,0,0,1,.0203-.3088C5.09972,50.96,6.04912,51.1264,7.00312,51.108Z"/>
        <path class="cls-42" d="M17.80442,47.7453c1.2001,1.5388-.0135,3.0336-.1813,4.5183-.0801.7091.6258,1.5882-.2884,2.181q-.24495-.11085-.4901-.2218c-.1101-.4551-.1864-.9221-.3407-1.3618-.1319-.3759-.1542-.7145.1672-.9631.6607-.511.6903-1.2814.8877-1.9891.2391-.8571-.0413-1.3559-.9544-1.4441C16.50642,47.3944,17.14062,47.5451,17.80442,47.7453Z"/>
        <path class="cls-43" d="M.52752,36.9431c.5609-.7185-.2632-1.4379.0015-2.1566a.439.439,0,0,1,.4787-.0963,1.3944,1.3944,0,0,1,.5384,1.0199,1.19923,1.19923,0,0,0,.9493,1.0907c.6843.1348.9468-.4669,1.0902-.8895.2692-.793.9905-1.0795,1.4891-1.6059a.54027.54027,0,0,1,.6657-.0616,1.97239,1.97239,0,0,1-.8885,2.4335,1.72774,1.72774,0,0,0-.789.8626c-.1357.3975-.3446.8591-.0436,1.2282.2621.3215.6432.1194.9882.0039.4839-.1621,1.0331.1236,1.5049-.1906a1.06171,1.06171,0,0,1,.3155-.0783c.4227.0153.7834.3406,1.2292.2454,1.3151-.4845,1.4818-1.5924,1.5277-2.7778.0294-.761-.1384-1.6153.8213-2.0018.7906.0727.9546.5293.8541,1.251-.1427,1.0255-.4569,2.0049-.6942,3.0038a5.52071,5.52071,0,0,1-.1891.8163,12.37475,12.37475,0,0,1-.2502,1.2475c-.4999.7854-1.1369.2619-1.6738.1155-1.1795-.3216-1.5812-.1225-1.9646,1.1623-.4226,1.4584-1.5493,1.5868-2.8006,1.4837-.8639.085-1.027-.4649-1.3447-1.1553-.7406-1.6094-.6956-3.496-1.8163-4.9505Z"/>
        <path class="cls-44" d="M5.803,34.3036c-.3559.1048-.586.4239-.824.5901-.8671.6058-1.1324,1.626-1.8613,2.2687-.462.4075-1.7065-.275-1.8608-.9786-.1013-.4621-.1688-.9317-.2514-1.398a5.69809,5.69809,0,0,1,2.234-3.617.97016.97016,0,0,0,.4401-1.0214,5.32766,5.32766,0,0,1,2.2765-3.3182.88321.88321,0,0,1,1.0691.2904.57568.57568,0,0,1-.2108.9064c-.5875.3866-.2537.8185-.0547,1.2424a17.03993,17.03993,0,0,0-.4782,3.8345c-.5446.198-.458.6331-.3973,1.0586C5.85742,34.209,5.83022,34.2563,5.803,34.3036Z"/>
        <path class="cls-45" d="M7.95392,26.6216l.2446.0031c.6908,1.1091.0773,2.3464.2655,3.7073a4.19913,4.19913,0,0,0,.9444-1.8708,1.18744,1.18744,0,0,1,.1534-.2941,4.238,4.238,0,0,0,1.7894-2.5742,2.604,2.604,0,0,1,1.2775-1.5786c.355-.1927.6622-.5053,1.1161-.4587.3914.1037.8288.0573,1.1646.3479.099.8431-.6441,1.0181-1.1376,1.2817a2.71087,2.71087,0,0,0-1.6096,2.1665c-.0979,1.0213-1.2503,1.1738-1.4978,2.0292a2.6895,2.6895,0,0,1-.1284.3117c-.387.668-.2538,1.5585-.8943,2.1185-.2166.7894-.2075,1.6235-.4773,2.4013a1.80173,1.80173,0,0,1-.1276.3076c-.4178.6384-.0648,1.5828-.884,2.0891-.363.2243-.673.4539-1.0532.1836-.3998-.2844-.2007-.6439.0315-.919.5924-.7018-.5306-.982-.3621-1.5689a6.63017,6.63017,0,0,0,.523-4.5657.929.929,0,0,1,.0106-.6936,2.18865,2.18865,0,0,0,.3444-2.1046C7.62622,26.871,7.84592,26.7297,7.95392,26.6216Z"/>
        <path class="cls-46" d="M6.75972,29.2684c-.9973-.6218-1.1013-1.0386-.3273-1.4957.2422-.1431.7695-.0235.4181-.5123a.64336.64336,0,0,0-.9551-.1062c-.2066.1807-.3533.4283-.5485.6243-.2811.2823-.0417,1.057-.9695.7942-.3542-.1004-.2525.8843-.4017,1.3595-.1738.5532,1.0388,1.711-.7322,1.5063-.6088,1.0212-1.6538,1.7466-1.9965,2.9511a1.72974,1.72974,0,0,1-.2415.3962q-.2382.0003-.4765.0007c-.0687-.9125.8781-1.3351,1.0124-2.2051A9.49138,9.49138,0,0,1,3.273,28.9209c.5516-.8461.7463-1.8135,1.8689-2.2138.295-.1052.3935-.8034.5511-1.2405a.91467.91467,0,0,1,1.0551-.7371c.7761.0826.3363.6132.3785.9493C7.28022,26.9007,7.50372,28.136,6.75972,29.2684Z"/>
        <path class="cls-47" d="M6.76442,38.6259c-.3206.4062-.627.8815-1.236.4379a.48813.48813,0,0,0-.7312.1203c-.6435,1.0299-.8566-.6719-1.3878-.1978.4744-.5415-.1402-1.3328.4276-1.8559.1745-.1609.3006-.41.502-.5a2.69225,2.69225,0,0,0,1.464-2.3268l-.001-.0003a.32172.32172,0,0,1,.4788-.0003,1.60624,1.60624,0,0,0,.0024,1.6811c-.0227.0507-.0453.1014-.0668.1528-.4809.5867-.5104,1.4059-1.0939,2.0284C5.81852,37.9851,6.48282,37.718,6.76442,38.6259Z"/>
        <path class="cls-48" d="M6.769,34.3048c.1252.1971.2288.5461.3791.5675,1.3138.1876.7309.6829.2187,1.1807-.1715.1666-.4017.3585-.1021.5636.1992.1363.5446.1159.6007-.1525.1073-.5128.8662-.7096.6028-1.4074-.118-.3127.138-.5987.4573-.7502.6214.2255.709.6778.5303,1.2448-.1072.3402-.2105.6816-.3242,1.0196a1.819,1.819,0,0,1-2.8561.8153.81507.81507,0,0,1,.007-1.4023l.0007.0002A3.70784,3.70784,0,0,0,6.769,34.3048Z"/>
        <path class="cls-43" d="M6.28082,34.303l-.4788.0003c-.0176-.471-.9817-1.3201.4795-1.2003C5.96992,33.5028,6.23482,33.903,6.28082,34.303Z"/>
        <path class="cls-49" d="M28.83082,50.8543l.2511.0073c-.1845.2517.3749,1.0125-.5683.7689-.3803-.0983-.3555.4543-.5939.6426-.3257.2573-.4609.7655-.993.7499.3136-1.0028-.2652-1.4317-1.2083-1.782.2018.7488.8875,1.2527.629,2.1087-1.2524-.7924-2.983-.669-3.7442-2.2429.0158-.0512.0317-.1024.047-.154a1.28589,1.28589,0,0,1,.6613-.4346c.7208-.309.9488-1.3955,1.9615-1.2476a3.46941,3.46941,0,0,1,1.168.7158A5.24688,5.24688,0,0,0,28.83082,50.8543Z"/>
        <path class="cls-50" d="M18.04242,53.2668a3.454,3.454,0,0,1,.1898-2.2257c.0955-.4438.4855-.4398.8559-.2496a2.02137,2.02137,0,0,0,1.1174.3126c.0433.0314.0867.0629.131.0932.177.438.6042.5499.9702.7416.0334.0421.0661.0848.0988.1276-.3114,1.5966-1.6499.7074-2.1421.5511C18.37652,52.336,18.223,52.6165,18.04242,53.2668Z"/>
        <path class="cls-49" d="M22.60322,51.1068c-.6615-.0074-.8973.5164-1.1977.9597l-.0023-.0029c-.3266-.3193-.4455-.674-.1029-1.0432a1.23562,1.23562,0,0,1,1.0327-.5079c.3488.0402.474.2585.2725.5905Z"/>
        <path class="cls-50" d="M19.24322,54.7047q-.1206-.2385-.2412-.4771c.2073.0194.4857-.0669.5753.1789C19.67172,54.6655,19.405,54.6569,19.24322,54.7047Z"/>
        <path class="cls-51" d="M27.63522,33.5891c-.0199,1.021.6142,1.8524.821,2.83a19.83909,19.83909,0,0,1,.4905,4.414,14.338,14.338,0,0,0,.8588,3.5511c.1477.5292.3713,1.1354-.3145,1.4079a1.29284,1.29284,0,0,1-1.6915-.6897,5.26938,5.26938,0,0,1-.5958-1.7796c.0571-.9677-.5232-1.8283-.4823-2.7947-.8945-2.2653-.693-4.7192-1.2219-7.0471a2.53229,2.53229,0,0,1-.1107-.5326c-.0336-.352-.2126-.7177.0913-1.0399.3902-.6914.3952-1.5547.9661-2.1655a3.76373,3.76373,0,0,0,.4725,1.6877A7.64513,7.64513,0,0,0,27.63522,33.5891Z"/>
        <path class="cls-52" d="M25.48012,31.9085q.1155.47805.2311.9561c-.5724.3712-.5106,1.4658-1.1584,1.4716-.7666.007-.4453-1.1554-1.016-1.5499a1.36433,1.36433,0,0,1-.3275-.3392,1.18714,1.18714,0,0,1-.1621-.4805c.2109-1.355.2109-1.355-1.5353-1.7838a1.52642,1.52642,0,0,1-.589-.7192,11.95228,11.95228,0,0,1-.9124,2.8896.32694.32694,0,0,1-.4401-.0889,2.56391,2.56391,0,0,1-.3164-2.6085,2.3554,2.3554,0,0,1,.0639-.3195c-.0236-.5955.8322-1.2861-.1999-1.7661a3.78031,3.78031,0,0,0-1.2422-.6652c-1.0256-.1682-1.2588-.9073-1.4521-1.7252a.62647.62647,0,0,1,.1652-.2853c.4756-.1286.8332.194,1.2301.3416.4463.166.8322.2694,1.1336-.2323.1222-.2034.2915-.4067.5751-.2816a.67643.67643,0,0,1,.3646.6902c.0087.3489-.2532.6796-.0329,1.1251.8209-.3504,1.3252-1.2473,2.2659-1.3501,1.6936.2066,1.2905,1.8626,1.8711,2.8209a2.98269,2.98269,0,0,1,.3451,1.8695C24.24092,30.6943,25.38412,31.0544,25.48012,31.9085Z"/>
        <path class="cls-53" d="M12.76792,24.2304a3.547,3.547,0,0,0-1.2024,1.4361,31.185,31.185,0,0,0-1.92,2.6395v.0005c-1,.1845-1.4463-.2567-1.2461-1.2852a6.8807,6.8807,0,0,0,.2871-2.5572c-.2425-.7844.3171-1.7285-.4783-2.4028a.37688.37688,0,0,1-.0706-.4654c1.2525.0093,1.9436.7219,1.7764,1.8317-.0912.6059-.0912.6059.2595,1.469a2.5907,2.5907,0,0,0,.9718-1.0047,2.01559,2.01559,0,0,0,1.1838-1.2504c.4324-1.1709,1.7422-1.4877,2.755-2.0477.3964-.2191.89-.2727,1.3175-.4882-.217-.1981-.609-.2553-.5073-.6777a.64324.64324,0,0,1,.8203-.1315c.0429.0434.0855.0873.1282.1311.5014.3638.984.7942,1.6787.4753a7.79033,7.79033,0,0,1,2.3255-.3259c.8482-.0956,1.5057.9442,1.5174,2.2473.0498.2683.0919.5384.1514.8046.0855.3825.2681.9191-.0425,1.0996a1.30321,1.30321,0,0,1-1.4408-.1368,2.53988,2.53988,0,0,1-.6985-.7848c-.3692-.7337-.7074-.3398-1.0708-.0291-.0527-.02-.1053-.04-.1582-.0598a.46867.46867,0,0,1-.1619-.4501c.4915-.8318-.1779-.9264-.7074-1.1078a.86446.86446,0,0,0-1.1719-.0096c-.5377.3963-.8508,1.056-1.715,1.0677-.3998.0054-.339.6996-.3197,1.1271a.38157.38157,0,0,1-.1807.266C14.08552,23.5837,13.18312,23.0875,12.76792,24.2304Z"/>
        <path class="cls-21" d="M22.36442,21.8242c-.5308-1.4918-1.3762-2.4254-3.1387-1.8323-.2018.068-.4678-.0547-.7041-.089.2335-.143.4615-.3991.7015-.4108,1.9466-.0957,3.055-1.0131,3.0196-3.14a4.395,4.395,0,0,1,1.333,3.5015.7171.7171,0,0,0,.4623.7609C23.95782,21.6784,23.27222,21.905,22.36442,21.8242Z"/>
        <path class="cls-54" d="M22.12532,25.1874c-.3929.4465-1.007.631-1.3326,1.1682a1.07208,1.07208,0,0,1-1.6505.342,3.23175,3.23175,0,0,0,.4345-1.8616c-.5627.2952-.5983,1.3261-1.4174.9648-.539-.2377-1.0373-.5677-1.5539-.8563-.8549-.2494-.8277-.602-.1224-1.0346,1.3709.8515,1.6052.8558,2.4745.0436a.7029.7029,0,0,1,.9209.188c.2377.2275.4838.3926.7854.095.3228.0453.7657-.1784.9114.2863.1417.4515-.5105.0846-.5128.4709C21.34272,25.3485,21.76632,25.1178,22.12532,25.1874Z"/>
        <path class="cls-55" d="M20.66382,24.2365c-.0684.5779-.3844.5211-.7408.2704-.2885-.2029-.508-.5144-.9026-.5376-.0515.0096-.103.0191-.1546.0293-.4666.0914-.9459.076-1.4131.1718a.57592.57592,0,0,1-.448-.1982c.2299-.8517,1.0342-1.2769,2.2373-1.1835l.021-.0109C19.73142,23.2627,19.88992,24.045,20.66382,24.2365Z"/>
        <path class="cls-19" d="M11.56362,2.3951a7.51961,7.51961,0,0,1,3.8408-.7309,12.61729,12.61729,0,0,0,2.49,1.1495c.5602.13.5759.7792,1.1073.7749.0467.0269.0936.0539.141.0803a.642.642,0,0,1,.1137.8779,2.52645,2.52645,0,0,1-1.0543.3237.51457.51457,0,0,1-.3645-.465c.017-.4963-.3471-.6499-.7218-.7932-.3081-.1273-.6274-.2197-.9391-.3352a4.47516,4.47516,0,0,0-3.5653.0253.61518.61518,0,0,1-.568.0325C11.89452,3.0161,11.54692,2.7986,11.56362,2.3951Z"/>
        <path class="cls-56" d="M12.04352,3.335a4.01219,4.01219,0,0,1,4.334-.2347c-.3617.3851-.7985.1658-1.2106.152-.4215-.0141-.9651-.2327-1.23.091-.3223.3939.3886.684.3701,1.1177-.213.8284-.3497,1.7247-1.5624,1.5899-.1137-.0126-.2057.2194-.3182.3288-.0466.0293-.0937.0572-.1409.085q-.23115-.3606-.4624-.7214c-.6504-.6423-.1724-1.2807.0066-1.9202Z"/>
        <path class="cls-57" d="M8.68442,5.2647c.4374-.3064.413-.9808.9576-1.2017.0215.2296-.0113.6346.0731.6607.6059.1871.6655.4965.299.9514-.4491.5572-.7355-.0282-1.0778-.1758C8.83712,5.4566,8.76752,5.3449,8.68442,5.2647Z"/>
        <path class="cls-19" d="M11.82972,3.8231c.0405.6402-.3933,1.2788-.0066,1.9202l.0597.9366A2.30678,2.30678,0,0,1,11.82972,3.8231Z"/>
        <path class="cls-57" d="M10.28572,6.8952c-.4551-.0791-.6512-.2218-.6972-.5496C9.95362,6.2742,10.06922,6.5298,10.28572,6.8952Z"/>
        <path class="cls-33" d="M8.20052,21.5886q.00375.2364.0077.4727c-1.3781-.8945-2.3371.0509-3.2986.7999a8.744,8.744,0,0,1-1.7425,1.3689,11.60089,11.60089,0,0,1,2.4242-3.5486c.1258-.1202.1454-.3515.2142-.5312q.5982-.3651,1.1962-.7302c.3608-.1929.6891-.6331,1.1469-.301.4162.3018.273.7742.1995,1.1928C8.27382,20.7353,8.27912,21.1666,8.20052,21.5886Z"/>
        <path class="cls-58" d="M8.68652,24.4641c.7685.714.3211,1.5435.0895,2.2486-.3357,1.0225-.2449,1.3363.8695,1.5938.3523.9926-.7149,1.537-.8522,2.4334-1.3904-1.1799-.2606-2.7707-.5947-4.1152C7.64842,25.7436,8.50072,25.1791,8.68652,24.4641Z"/>
        <path class="cls-33" d="M1.72552,26.1453c.0074-.2642-.0179-.5387.2309-.7261.077.3017.2619.6059.4317.1269a1.65727,1.65727,0,0,1,.7763-1.0808C2.74592,25.0778,3.15152,26.3958,1.72552,26.1453Z"/>
        <path class="cls-2" d="M.52672,36.9432c1.1195.3685,1.2233,1.4476,1.2952,2.2939.1023,1.2047,1.038,2.0844,1.0245,3.2847-.0067.6052.8222-.2688.7993.4244.0041.0564.0082.1129.0131.1695a3.80941,3.80941,0,0,1-1.214,1.9889,4.33889,4.33889,0,0,1,.2377,1.4426c-.7209-.2213-1.9898-.1836-.5753-1.3557.2498-.207.0219-.6867.0234-1.0392a15.09548,15.09548,0,0,0-1.021-4.9299A17.52053,17.52053,0,0,1,.52672,36.9432Z"/>
        <path class="cls-2" d="M2.682,46.5471c.4793-.0165.7654.0853.5341.6716-.1852.4694-.2629.9874-.7766,1.2452C1.87812,47.7437,2.53712,47.1779,2.682,46.5471Z"/>
        <path class="cls-35" d="M8.20052,21.5886c-.6615-.2876-.3652-.8069-.2232-1.2017.3926-1.0909.0801-1.3812-.9756-.9668.2271-.6793,1.3699-.7028,1.1957-1.6694,1.4712.4391,2.3129-.4801,3.1305-1.4511.5752.0315.4612.4534.4621.811a3.88716,3.88716,0,0,1-1.1009,1.5182,1.28575,1.28575,0,0,0-.2841,1.7211c.3935.5474-.0364,1.4121.7561,1.7509.8851.5558-.1759,1.2793.1621,1.8837.039.7491-.7553.9059-1.0352,1.4379-.0879.167-.5191.0775-.4815-.0408.239-.7496-.9366-1.3651-.1737-2.1401.421-.4276-.0873-.6091-.2746-.8526A2.706,2.706,0,0,0,8.20052,21.5886Z"/>
        <path class="cls-35" d="M7.96322,14.3865c1.236-.1713.6752,1.3612,1.4989,1.5808-.1306.4198-.4867.3068-.7845.3319A6.51251,6.51251,0,0,0,7.96322,14.3865Z"/>
        <path class="cls-59" d="M22.36652,7.9034a2.40933,2.40933,0,0,1-.7255,3.3589c-.3593.3483-.9936.4835-.9101,1.1748.0777.1374.2796.197.2513.4014a.42109.42109,0,0,1-.2519.211c-.6201-.0794-.6435-.5691-.711-1.0295.0395-.5734.6251-1.0023.4061-1.6646-.0695-.2101.1515-.4744.3738-.5446,1.0149-.3206.9241-1.0708.7756-1.8628-.0116-.062.076-.1255.1465-.1695A.56192.56192,0,0,1,22.36652,7.9034Z"/>
        <path class="cls-60" d="M20.90872,12.7332l-.1778-.2961a1.854,1.854,0,0,1,1.1161.285c.3064,1.3269-.6734,2.5465-.345,3.8616.2923,1.171-.2741,1.4711-1.2851,1.4079a.19243.19243,0,0,1-.2798.0346,4.1965,4.1965,0,0,1,.3197-2.0771C20.71632,14.9257,21.56472,13.9828,20.90872,12.7332Z"/>
        <path class="cls-61" d="M28.11632,46.7962c-.2933.2054-.8103-.0452-.9531.4672-.2217.4491-.5794.478-.9967.3227-.0067-.0024-1.4152-1.7906-1.4164-1.7978-.2922-1.7329-.2921-1.7329-2.0509-1.7621a.83132.83132,0,0,1-.3951-.5969,2.253,2.253,0,0,1,.8495-2.3888c.2145-.1086.4123-.2516.636-.3443a.64433.64433,0,0,1,.3401.0349,2.38864,2.38864,0,0,1,.7005.8007c.8538,1.3287,1.0399,3.014,2.1586,3.9138-.0264-.134-.1655-.5342.4247-.6447.5161.2927.538.8482.7102,1.3252A.74739.74739,0,0,1,28.11632,46.7962Z"/>
        <path class="cls-62" d="M22.60212,43.4244a.53519.53519,0,0,0,.2454.4771c.8559.2151,1.5962.3804,1.6132,1.6161.0149,1.0845,1.6221,2.1028,2.7049,1.9904.7376-.1441.9445.4234,1.1271.9166a.7321.7321,0,0,1-.4177,1.0572c-.7554.3478-.307.7297.1,1.0327.2507.1865.6473.0304.8559.3399-.9478.0271-1.9169.1357-2.6395-.6936.119-.74-.5125-1.1028-.8841-1.5207a17.20217,17.20217,0,0,1-2.022-2.9301c-.5507-.7403-1.3539-1.3255-1.4439-2.3492.0231-.3139.0725-.6124.4416-.711C22.64532,42.8023,22.35012,43.2262,22.60212,43.4244Z"/>
        <path class="cls-63" d="M27.88362,46.3082c-.401-.3943-.1271-1.0201-.4897-1.4276a1.86382,1.86382,0,0,1-.3064-1.6295.20874.20874,0,0,1,.3205-.0681c.3776.4131.358.9934.5728,1.4798.2854.6461.5873.9774,1.2678.9083.8212-.0833.4676-.745.5569-1.1869a.69587.69587,0,0,1,.1574.0289c.1528.4626-.0818,1.0034.2861,1.4226q.0054.586.0111,1.1722c-.2796.2768-.1917.9265-.7973.8577a1.32448,1.32448,0,0,1-1.0622-.8134C28.26952,46.7734,28.19672,46.4588,27.88362,46.3082Z"/>
        <path class="cls-64" d="M27.16562,47.508a1.4437,1.4437,0,0,1-2.1377-.7065c-.3907-.6887-1.3891-1.0269-.9952-2.1746.1074-.3127-1.0039-.0855-1.1852-.7253.6382-.5447,1.2484-.043,1.8695.05-.1858.6778.9939,1.0713.3823,1.8373-.0239.0299-.0774.078-.0744.0816.3353.3984,1.1519.2378,1.1852.9608.0283.6154-.0056.6208.9531.4322Z"/>
        <path class="cls-34" d="M27.88362,46.3082a.59957.59957,0,0,1,.5451.3805c.4527,1.0122,1.0497,1.196,1.8316.3194-.0026.4979.075,1.3049-.4487,1.28a1.77012,1.77012,0,0,1-1.6952-1.492Z"/>
        <path class="cls-62" d="M28.99462,48.9597a.441.441,0,0,1-.2813-.5403c.0051-.0323.1527-.0863.1859-.0625A.41612.41612,0,0,1,28.99462,48.9597Z"/>
        <path class="cls-65" d="M19.03452,18.9649c-.5658.9351-1.5554-.1384-2.1917.4626V19.427a3.50858,3.50858,0,0,0-1.6022-.5075,1.07458,1.07458,0,0,1-.4959-.149,1.2148,1.2148,0,0,1-.4201-1.6306c.8492-.3211,1.0588.7989,1.7729.7841.8596.4025,1.847.3586,2.7039.7716A.61783.61783,0,0,1,19.03452,18.9649Z"/>
        <path class="cls-66" d="M19.03452,18.9649l-.3102-.0444c-.0922-.9263.3916-1.141,1.1918-.9648q.1503.018.3006.0358C20.14462,18.707,19.79162,19.0814,19.03452,18.9649Z"/>
        <path class="cls-67" d="M10.61782,8.4063c.7452-.1247,1.7184.208,1.9403-.9669.7217-.3123.9079.3269,1.2452.6989a3.00388,3.00388,0,0,1-.1522,1.0457c-.0679.5306.0735.9889.6164,1.1337a2.46865,2.46865,0,0,1,1.6103,1.2858,1.05367,1.05367,0,0,0,.9086.4742c.3553.036.7768.0598.7903.5301.0124.4284-.3895.5459-.7163.6889-.7941.3473-1.7273.2542-2.4656.7816-.758.1081-1.4338-.3458-2.181-.315a2.38741,2.38741,0,0,1-1.6086-.5731q-.23625-.1155-.4724-.2311c.0408-.0486.0817-.0972.122-.1466a3.18736,3.18736,0,0,1,1.8131-.1787c.0995.1104-.0323-.0598.104.0238.0894.0548.0921.0199-.027-.0377-1.6386-.7929-1.6443-.8215-.6461-2.3513.0775-.1188-.0783-.0145-.116-.0531a16.17825,16.17825,0,0,1-1.0116-1.5869C10.33952,8.5877,10.50722,8.4562,10.61782,8.4063Z"/>
        <path class="cls-68" d="M10.60522,13.1902q.8538.126,1.7075.2519a2.12465,2.12465,0,0,1,.1626.9005c-.6005,1.3261.507,1.8238,1.2342,2.4748.3305.2958.7782.4668.5276,1.0338a1.16765,1.16765,0,0,1-.8002.6408c-1.5343.5227-1.5331.5262-1.4745,2.0855a.76875.76875,0,0,1-.0964.3224.90563.90563,0,0,1-1.3642-.1203,2.39551,2.39551,0,0,1,.207-2.2427,8.58643,8.58643,0,0,1,1.0296-.8009c.4103-.2709-.1523-.2952-.1701-.4714-.0253-.3353.0932-.7065-.2405-.965-.0523-1.3407-.5311-.2694-.9003-.1201-.0663-.6271.0861-1.2322-.4501-1.8068C9.55562,13.9206,10.34982,13.5797,10.60522,13.1902Z"/>
        <path class="cls-27" d="M9.64922,12.9645c-.489-.9224.3549-.6085.7013-.756.2815.3502.0688.5508-.2204.7283l.0026.0222Q9.89107,12.96185,9.64922,12.9645Z"/>
        <path class="cls-69" d="M8.43572,13.1908a.53213.53213,0,0,1,.4867-.2436l-.0123.71A.80121.80121,0,0,1,8.43572,13.1908Z"/>
        <path class="cls-56" d="M13.72722,8.1514c-.5771.0699-.6471-.6928-1.1694-.7122a1.62288,1.62288,0,0,1-.2723-.9745l-.0011.0012c.9028-.034,1.8303-.4118,2.6866.2261.1085.0809.2354-.1442.3669-.2093a1.69687,1.69687,0,0,1,.8226-.2332.59136.59136,0,0,1,.5557.3566c.0715.4318-.2604.6247-.6276.9632.4812-.1.5119-.4885.742-.6476a.41653.41653,0,0,1,.3156-.0033c.2946.4112.7808.2419,1.1668.3803a1.1753,1.1753,0,0,1,.4006.3122c.2918.49.7709.8767.8337,1.4945-.0985,1.0029.5626,1.959.1936,2.9814a1.81039,1.81039,0,0,1-.355.8018c-.8185.6472-1.4595,1.6624-2.7502,1.3415-.2198-.5551.2456-.7749.5462-1.0448.3543-.3181.7106-.6337,1.0425-.9742a.91616.91616,0,0,0,.28-.9783c-.1335-.3352-.493-.1424-.7506-.1518a1.92344,1.92344,0,0,1-1.5105-.5983C15.53762,9.5447,14.49782,8.9986,13.72722,8.1514Z"/>
        <path class="cls-70" d="M10.61782,8.4063c-.0352.1547-.2529.4734.1288.3572.5923-.1803.7147.2867.6313.5388-.2325.7017.1468.8206.8989.8225-.7597.3209-1.2072.6051-1.1895,1.288.0176.6852.6811.549,1.0011.8419.223.2041.7733.0933.6382.6256-.0141.0555-.2896.0446-.4439.0644a2.26525,2.26525,0,0,1-2.245-2.1352,3.06977,3.06977,0,0,0-.3922-.9771A1.42147,1.42147,0,0,0,8.518,8.686l.0801-.2797Z"/>
        <path class="cls-71" d="M9.64552,9.8324c.1522.2215.3967.4261.4412.6675a3.36708,3.36708,0,0,0,2.1961,2.4449q-1.07655-.0039-2.1528-.0079.11055-.3642.2207-.7282A5.40287,5.40287,0,0,1,9.64552,9.8324Z"/>
        <path class="cls-4" d="M27.63522,33.5891a2.37375,2.37375,0,0,1-.7165-2.1585A4.99619,4.99619,0,0,1,27.63522,33.5891Z"/>
        <path class="cls-72" d="M22.36652,7.9034q-.35265-.011-.7051-.0218a1.07492,1.07492,0,0,1-.557-.2409c-.3144-.2754-1.0567-.0876-.928-.8474a1.45541,1.45541,0,0,1,.1274-.2894c.174-.3409.5758-.5846.4437-1.0552-.072-.787-.8759-.9629-1.2481-1.4964a1.975,1.975,0,0,1-.4981-.3636l.0004-.0002c.4601-1.0025-.5281-1.1866-.9542-1.6884a1.96388,1.96388,0,0,1,1.6592.5001q.12195.23715.2442.474a5.77271,5.77271,0,0,1,.7217.9602c.7504.7444,1.5592,1.4082.7996,2.6843-.2374.3988.3623.7906.8548.9245Q22.34652,7.67345,22.36652,7.9034Z"/>
        <path class="cls-23" d="M20.67262,3.8344a1.33524,1.33524,0,0,1-.7216-.9603l.715.2361Q20.669,3.4723,20.67262,3.8344Z"/>
        <path class="cls-46" d="M17.80442,47.7453c-.5241.0329-1.0576.0501-1.2.7194-.4188.3117-.4242.834-.6375,1.2504-.2869.5598-.8567.3544-.8617.0273-.0099-.645-.6972-1.088-.4208-1.7571a.29194.29194,0,0,1-.0809-.1979c0-.074.0067-.1109.0187-.111a2.36731,2.36731,0,0,0,.5034-1.4283,1.24736,1.24736,0,0,1,1.0839-1.3587c.4464-.0028.5889-.3823.8126-.6611,1.1187-.4931,1.187-.4569,2.1824,1.2035.321-.3275.0818-.6871.1052-.9969.0845-1.123.5593-1.394,1.515-.8468a5.50571,5.50571,0,0,1,.7921.5207,2.28284,2.28284,0,0,1,.7439,1.1444,3.26041,3.26041,0,0,1,.0208,1.0592c-.0381.4993.2041.7285.6764.768.8389.6678.6951,1.5946.657,2.4945a4.68232,4.68232,0,0,0-2.6081,1.654c-.2713.4101-.6302.1542-.9013-.1247v-.0001c-.0011-.812-.4861-1.6288.2142-2.4303.4418-.5058-.0097-1.5715-.6624-1.8417-.6132-.2539-1.2342-.4924-1.8312-.7802-.2586-.1246-.5419-.3329-.7707-.163-.3265.2424-.0198.574.0387.8633A1.79222,1.79222,0,0,0,17.80442,47.7453Z"/>
        <path class="cls-73" d="M14.69842,47.7571q-.006.11415-.014.2282a2.80838,2.80838,0,0,1-.3079.4924c-.2559.2696-.472.8261-.8887.5969-.4231-.2327.0743-.607.1404-.9226a1.46236,1.46236,0,0,0-.1936-1.394c-.0803,1.0659-.2042,1.578-1.498,1.2304-.9967-.2678-.5118.8494-.3757,1.4321-1.4104.4157-2.891.2049-4.3165.4848-.9485-.583-.9021-.8316.3033-1.5718-.7792-.3604-1.084-.7966-.2228-1.4089a1.575,1.575,0,0,1,.317-.102c.3633-.0454.524-.3122.6731-.6019a.83686.83686,0,0,1,.8666-.5152c1.0604.2059,2.2807-.5134,3.2123.6648.227.287.89-.074.9766-.6768.1243-.8645.635-1.1114,1.4363-.8969a.89424.89424,0,0,1,.3409.4457A4.02449,4.02449,0,0,1,14.69842,47.7571Z"/>
        <path class="cls-74" d="M12.28712,51.5842c-.2441-.4416-.7246.0028-1.1006-.2694.3433-.4401,1.1383-.677.6144-1.4083a.84893.84893,0,0,1,.0343-.2351c.1649-.3617-.025-1.0955.5643-.9996.6092.0991.4219.8118.3025,1.2069-.1855.6143-.0002.9018.5995,1.0673C12.93782,51.1748,12.61252,51.3795,12.28712,51.5842Z"/>
        <path class="cls-75" d="M3.64572,42.9462c.1534-.1031.351-.3277.4535-.2906,1.1675.4239,1.6857-.3335,2.1828-1.1496a.67.67,0,0,1,1.1313.2024A3.07541,3.07541,0,0,1,7.42,43.1586a1.46249,1.46249,0,0,1-.2736.4471,3.55627,3.55627,0,0,0-1.4638,2.9002,10.5001,10.5001,0,0,0,.8418,3.8794q.23925.36135.4787.7227c-.9603.6495-1.9195.3209-2.8787-.0033-.122.0463-.2994.0243-.3082-.0718-.0823-.8929-.7898-1.6251-.6542-2.5695q.0036-.116.0089-.232c.3753-.2264.6-.6141.9552-.8725a.58671.58671,0,0,0,.1318-.9248c-1.1508-.8931-.6356-1.6811.0668-2.487.2043-.2345-.0116-.2258-.149-.2716-.3278-.1371-.6421-.2803-.5291-.7292Z"/>
        <path class="cls-76" d="M4.36422,43.4283c.7577-.0345.5207.2095.2417.6384-.3438.5285-1.1408.9659-.5754,1.8012.8851,1.3078.7799,1.5965-.8596,2.3635a2.01805,2.01805,0,0,1,.3347-.6252c.8227-.7067.8451-1.1804-.3164-1.4674-.3928-.097-.0135-.5778-.2648-.7929-.4261-.6873-.0136-1.0841.4879-1.4746C3.70122,43.6464,4.10872,43.7057,4.36422,43.4283Z"/>
        <path class="cls-77" d="M3.162,48.4634a6.798,6.798,0,0,1,.9624,2.6413v.2406c-.2286.1385-.4571.2769-.9033.5473a3.07376,3.07376,0,0,0-.3198-2.42A.81956.81956,0,0,1,3.162,48.4634Z"/>
        <path class="cls-43" d="M4.36422,43.4283a.67263.67263,0,0,1-.5976.6287c-.7424.1499-.9086.6331-.8422,1.2889q-.23985-.1206-.4796-.2413a5.99275,5.99275,0,0,1,1.2018-2.1583A.75664.75664,0,0,0,4.36422,43.4283Z"/>
        <path class="cls-78" d="M6.52442,50.3853c-.3986-.0413-.7345-.2128-.6681-.6547.0745-.4957.2693-.9224-.5286-.9852-.3625-.0285-.0408-.3754-.0207-.5692a8.05236,8.05236,0,0,0-.0263-2.7389c-.129-.5562.5298-1.0452.9422-1.4813a4.30842,4.30842,0,0,1,.779-.5331c.5226.4864.4207.9577-.005,1.4531-.8202.9548-.8122.9596.1956,1.6515a.65.65,0,0,1,.2895.4975c-1.303,1.5704,1.0087.5363.8734,1.2655-.1843.6438-2.3098-.027-1.111,1.6148A.74659.74659,0,0,0,6.52442,50.3853Z"/>
        <path class="cls-75" d="M7.96442,50.8659l-.4812.2389c-.1475-.3102-.1895-.6993.1596-.7938C8.09562,50.1883,7.88932,50.6528,7.96442,50.8659Z"/>
        <path class="cls-2" d="M6.28252,35.9839c-.1543.5934-.3421,1.3326.5533,1.3247.6395-.0056,1.7242.7876,1.9028-.7529.0871-.7506.7503-1.4388.1869-2.2492V34.306a3.62406,3.62406,0,0,0,.4812-2.6392c.74-.533.2123-1.6301.9607-2.1594,1.1434.6256,1.2662,1.1456.5777,2.4335-.5809.5745-.1627,1.3766-.4544,2.0177-.041.0363-.0826.0722-.1242.1081a2.803,2.803,0,0,0-.4237,2.2323,2.50153,2.50153,0,0,1-1.9773,2.8046c-.3478-.2914-.6367-.7309-1.2011-.4777h0c-.7342-.775-1.4343-.1264-2.1885.1349.2319-.9257.9926-1.5185,1.0399-2.4349C5.63482,35.9591,6.00992,36.0063,6.28252,35.9839Z"/>
        <path class="cls-60" d="M7.24442,41.9853c-.0915-.62-.5803-.4426-.9624-.4794-.4421-.4124-.1587-.7568.1744-.9737.4896-.3188.8264-1.2269,1.6004-.6637.4682.3408,1.0381.182,1.4864.5191.2123.1596.3039-.125.3423-.3215.537-.2078.0984-.6558.2368-.9617.007-.2643-.0238-.5411.2398-.7199a1.81787,1.81787,0,0,1,.987-1.2682.47742.47742,0,0,1,.4069.2672,1.39492,1.39492,0,0,1,.1396.492c-.3409,1.0319.2654,2.2146-.7451,3.1921-.8689.8405-1.261,1.1171-2.5283.6861C8.05662,41.1946,7.74872,42.1841,7.24442,41.9853Z"/>
        <path class="cls-79" d="M11.32442,37.1859a2.51084,2.51084,0,0,1-.9623,1.1986c-.1817-1.0708.3785-2.0186.5578-3.027.1222-.6877-.0169-1.0084-.5534-1.2908l-.001-.0007c.8256-.6392-.2002-1.4811.2369-2.1628.842-.8889.4457-1.6563-.235-2.3958l-.0007.0002c.2558-.2848.4003-.6912.8427-.7726.3246-.1182.647-.2184.8986.1371-.0572.6199.727.5042.852.9675.3912,1.205-.2968,1.7603-1.3766,2.0601a4.761,4.761,0,0,1,.5536.4224c.1132.1687.2284.3842.1537.5536C11.68422,34.2511,12.106,35.8541,11.32442,37.1859Z"/>
        <path class="cls-47" d="M6.76442,38.6259c.8105-.8721,1.0595-.3322,1.2011.4777C7.46492,39.1964,7.14062,38.8458,6.76442,38.6259Z"/>
        <path class="cls-79" d="M10.12232,39.1044c.1401.3745.5183.8076-.2368.9617C10.16092,39.7939,9.74392,39.3512,10.12232,39.1044Z"/>
        <path class="cls-2" d="M11.31562,29.0175q-.47445.2451-.9489.49c.0137-.1581-.0308-.4104.0498-.4603,1.2239-.7568,1.3387-2.1985,2.0516-3.2648.5939-.888,1.7864-.9898,2.4516-1.7987.3862-.5634.9195-.3433.9488.0911.0364.5366.4409.705.606,1.0732-.1579.6743.6322,1.1258.4275,1.8133a.99909.99909,0,0,1-1.2097.4582c-.3317-.2635-.2444-.6403-.2727-.9906-.0926-1.1445-.4605-1.3318-1.5208-.7839-.3868.3349-.3854.8532-.591,1.2742A5.95463,5.95463,0,0,1,11.31562,29.0175Z"/>
        <path class="cls-80" d="M16.36322,25.1877c-.1382-.3962-1.055-.2641-.6772-1.0799.0867-.1873-.4622-.2636-.7663-.124-.4053-.0473-.8592.1457-1.1954-.2423-.0119-.486.2728-.3824.5467-.2662.2174.0921.4236.2412.6505.0277l-.0005-.0005c.2119-.6754.9675-.5155,1.3951-.8917.2192-.1928.534-.3025.7175-.5658a1.45893,1.45893,0,0,1,1.8973.1196c.0299.0474.059.0955.088.1436q.1116.2403.2231.4804c-.6171.5669-1.7189.2502-2.1399,1.1742a.3325.3325,0,0,1-.4815.0404c-.7253.3021-.3257.6224-.0152.9413l-.0032.2458C16.52132,25.3005,16.44162,25.3054,16.36322,25.1877Z"/>
        <path class="cls-58" d="M9.64552,28.306a3.30675,3.30675,0,0,1,1.92-2.6395A2.91979,2.91979,0,0,1,9.64552,28.306Z"/>
        <path class="cls-48" d="M9.40672,31.6668c.3025.9641.7721,1.9587-.4812,2.6392-.188-.8062.7353-1.6285-.035-2.4264Q9.14852,31.77325,9.40672,31.6668Z"/>
        <path class="cls-21" d="M14.92152,23.503c-.3029.5618-.8737-.22-1.1972.2386q-.47835.24435-.9565.4888C13.04992,22.9881,13.39422,22.8718,14.92152,23.503Z"/>
        <path class="cls-81" d="M22.86042,47.2824c-.661-.0188-.9174-.2667-.8769-.8975.0226-.3513.0994-.6991.1518-1.0485.6479-.8604.904.4081,1.4205.2615a22.43939,22.43939,0,0,0,3.4954,4.5424c-.2912.361-.5822-.0859-.8597.0203q-.473-.3711-.9456-.7425c-.9455-.1423-1.085-.9823-1.4588-1.6399C23.60762,47.4625,23.57922,46.6646,22.86042,47.2824Z"/>
        <path class="cls-82" d="M22.86042,47.2824c-.1989-.4996-.1271-.8704.4732-.5411a1.66428,1.66428,0,0,1,.8589,1.0607,2.54814,2.54814,0,0,0,1.0534,1.6162c-.9731.0334-.9837,1.3432-1.9092,1.4398-.7401-.5558-.3598-.8949.2306-1.1935C23.32782,48.8716,23.57162,47.9353,22.86042,47.2824Z"/>
        <path class="cls-38" d="M23.56732,49.6645c-.2054.373-.6651.6969-.2308,1.1936q-.3654.1224-.731.245c-.0526-.3376-.1799-.5064-.5409-.2841-.4696.2891-.9618.5522-.6614,1.2446-.6967.0516-1.343.0401-1.1977-.9594a.76113.76113,0,0,0,1.1094-.4776A1.65484,1.65484,0,0,1,23.56732,49.6645Z"/>
        <path class="cls-83" d="M23.32442,32.3853c.895.247,1.131.9213,1.0658,2.0955.4428-.8129.321-1.7694,1.3212-1.6162q.0063.2403.013.4807c.2785,2.2489.1624,4.55.8937,6.7377-.3651.6811.1978,1.5248-.375,2.1718-.4373-.0435-.6736-.5787-1.2582-.3976-.3495.1083-.3072-.4343-.4036-.7063a4.97679,4.97679,0,0,1,.0489-.6481,5.91055,5.91055,0,0,1-.088-4.0646c.221-.5557-.266-.7599-.5693-1.0488C22.85042,34.3197,22.67772,33.5197,23.32442,32.3853Z"/>
        <path class="cls-84" d="M26.44132,40.3082c-.812-1.9524-.6149-4.0593-.9284-6.088a.84526.84526,0,0,1,.2115-.8749c.7892,1.4255.2335,3.0591.7028,4.5368.2431.7656.0475,1.6737.7462,2.3005a2.57518,2.57518,0,0,1-.2403.3721C26.66042,40.6896,26.431,40.7379,26.44132,40.3082Z"/>
        <path class="cls-85" d="M26.44132,40.3082a.55136.55136,0,0,0,.4917.2464c.1727.8736.7525,1.6736.475,2.6284l-.1162.0011-.1162-.0001c-.2471.1796.0691.7204-.413.711-.2988-.0059-.4429-.3104-.5402-.5674-.1356-.3585-.3522-.7299-.0191-1.1022a6.95943,6.95943,0,0,0-.1338-1.7682C25.96122,40.1161,26.27942,40.281,26.44132,40.3082Z"/>
        <path class="cls-86" d="M23.32442,32.3853a2.56787,2.56787,0,0,0,1.3654,3.0947c.2136.1066.4479.6723.3531.8185-.9229,1.4232-.4322,2.8267-.0409,4.2409-.4452.2907-.6003-.0845-.8366-.3407a7.261,7.261,0,0,1-1.6553-4.19,6.55667,6.55667,0,0,0-.7504-1.9862,2.053,2.053,0,0,1-.2018-.2759c-.2706-.8431-.8082-1.6425-.4232-2.5934.149-.368.2756-.7535.7529-.8123.437-.0539.6062.2591.8069.5638.2168.3289.4244.6621.6208,1.003Q23.31982,32.1465,23.32442,32.3853Z"/>
        <path class="cls-87" d="M16.36322,25.1877q.11955-.0006.239.0026c.272,1.4639,1.858,1.3179,2.641,2.1556a2.63376,2.63376,0,0,1,.2412,2.1594c-.2804.9135-1.0837,1.874.2376,2.6435l.2424.2371c.0398.0398.0796.0797.1198.1193a.70177.70177,0,0,1-.0104.6474c-.272.3352-.5161.7093-1.0018.7677-.3531-.1038-.7449-.1296-.985-.473a7.60492,7.60492,0,0,1-.5641-2.1064,7.43635,7.43635,0,0,0-.0982-1.6222.71136.71136,0,0,1,.1166-.3061c.9383-1.0969-.1546-1.6676-.623-2.3994-.0254-.0487-.0497-.098-.0739-.1473C16.126,26.4665,16.28632,25.8151,16.36322,25.1877Z"/>
        <path class="cls-88" d="M22.84,35.7485c.2032,1.8306.623,3.5634,2.162,4.791a.52808.52808,0,0,1-.24.487c-.3538.2644-.5317-.0094-.7247-.2369l-.1187-.0002-.1186.0019a.76353.76353,0,0,1-.2133-.2551,12.38833,12.38833,0,0,1-1.6399-2.8953c-.4217-1.8611-1.8795-3.2994-1.9854-5.2527l.003-.0023c-.3638-1.0718.9222-1.9038.4507-3.0074-.0212-.0496.2631-.2705.4335-.3522.3106-.1488.3099.1222.3228.3038.0232.324.3361.4226.473.6546a2.9241,2.9241,0,0,1-.3693.8722,2.33973,2.33973,0,0,0,.6104,2.9673v.0002A2.7045,2.7045,0,0,0,22.84,35.7485Z"/>
        <path class="cls-89" d="M21.88552,33.8242c-1.1607-.3314-1.2031-1.3062-1.1617-2.2201a2.30139,2.30139,0,0,1,.9206-1.6194.82231.82231,0,0,1,.2118.0979c.386.3384.8901-1.1275,1.3542.1737a2.83187,2.83187,0,0,1,.105,1.6513c-.3328-.3901-1.1156-.3619-1.0408-1.1391a.22909.22909,0,0,0-.3139-.2423.92915.92915,0,0,0-.4024.3928C21.01942,31.9545,21.60992,32.8734,21.88552,33.8242Z"/>
        <path class="cls-90" d="M19.722,32.1488c-1.2576-.2864-1.3096-.4548-.7517-1.6042.168-.3463.183-.768.5141-1.0393A3.82866,3.82866,0,0,0,19.722,32.1488Z"/>
        <path class="cls-90" d="M19.48442,29.5053a9.0624,9.0624,0,0,1-.2412-2.1594C20.79892,27.901,19.58692,28.7651,19.48442,29.5053Z"/>
        <path class="cls-91" d="M11.79782,20.8611l.0202-.222a1.11091,1.11091,0,0,1,.9121-.9223,4.85266,4.85266,0,0,0,1.9256-.373,1.16,1.16,0,0,1,1.1177-.0426c.0365.0417.0727.084.1089.1264.3227.4458.8997.418,1.6463.7316a16.31778,16.31778,0,0,0-4.6102,1.9823.7432.7432,0,0,0-.386.8103c.1172.9693-.3015,1.2794-1.2092,1.0327-.5208-.0895-.546-.3815-.2927-.7589.2039-.3037.4452-.5893.0527-.9203C10.39862,21.3978,10.53222,21.1279,11.79782,20.8611Z"/>
        <path class="cls-21" d="M17.08992,22.0614c-.0582.3165.4867.8825-.4813.8074-.5428-.0421-1.1238.4063-1.6876.6337-.6847-.4831-.1723-1.0755-.0589-1.5576.1312-.5578.5758-.2915.951-.117.3619.1684.2834-.2545.4186-.3968a2.79576,2.79576,0,0,1,1.4661-.9036c.5942-.1286.5715.1986.5882.5708-.031.0432-.062.0863-.0922.1304A2.52033,2.52033,0,0,0,17.08992,22.0614Z"/>
        <path class="cls-92" d="M18.286,21.0983c.4704-.0861,1.0482-.2417,1.3186.2082.2918.4857-.2397.7473-.5858,1.0017l-.0199-.0046c-.4723-.2532-1.0934-.4158-.7215-1.1836Z"/>
        <path class="cls-13" d="M15.37632,18.6871c.758-.287,1.0587.3325,1.4665.7399l-.9605.0006.0004-.0004c-.1275-.1281-.3206-.1769-.4173-.3432A.72439.72439,0,0,1,15.37632,18.6871Z"/>
        <path class="cls-93" d="M16.62062,24.0032q.2406-.02.4814-.0402.2229.0036.4455.0076a2.25743,2.25743,0,0,1,1.4656.0018l.0072-.003c-.0079.5239-.1338,1.0269-.775.9454C17.61172,24.8342,16.71062,25.0991,16.62062,24.0032Z"/>
        <path class="cls-54" d="M19.01312,23.9724q-.73275-.00075-1.4655-.0017A1.18951,1.18951,0,0,1,19.01312,23.9724Z"/>
        <path class="cls-94" d="M14.22032,4.509c-.4261-.4355-1.2152-.8811-.9956-1.4322.2017-.5062,1.0731-.1754,1.6426-.1885a8.90961,8.90961,0,0,1,1.5102.212,1.39269,1.39269,0,0,1,.8763.2785c.2044.0886.2358.2819.2833.4661a1.42805,1.42805,0,0,1-1.0983,1.3945,15.98108,15.98108,0,0,1-1.9586-.475A.566.566,0,0,1,14.22032,4.509Z"/>
        <path class="cls-95" d="M16.38142,5.0189c.5667-.2211.7232-.7636.9689-1.2362.4384-.0512.5821.2256.6515.5853l.2793.4254a.82468.82468,0,0,1,.701.9521,7.22322,7.22322,0,0,1-.1332,1.8799.2369.2369,0,0,1-.3315.0548l-.2381-.2508c-.3285-.3336-.8798-.1181-1.1949-.4847-.1343-.1273-.3764-.0456-.4738-.2444q-.25665-.12375-.5132-.2474C16.10922,5.9585,16.80352,5.5992,16.38142,5.0189Z"/>
        <path class="cls-96" d="M18.83172,7.6363a2.06354,2.06354,0,0,1-.1394-1.829c.2799-.511-.3767-.6347-.4112-1.0139.2129-.4999.5555-.4944.9603-.2465.0528.0164.1055.0328.1588.0484.7777.4938,1.7748.8789,1.0565,2.1187l-.0021.0033c-.5954.285-.158.8657-.3597,1.2642a.77238.77238,0,0,1-.613.5098A.8187.8187,0,0,1,18.83172,7.6363Z"/>
        <path class="cls-18" d="M18.00182,4.368l-.6515-.5853-.0965-.4039C17.665,3.5861,18.408,3.5425,18.00182,4.368Z"/>
        <path class="cls-18" d="M19.00132,3.5887l.7231-.0027c.2257.3695.0308.6716-.1558.9753a.24021.24021,0,0,1-.3133-.0228l-.0139.0084Q19.12142,4.0678,19.00132,3.5887Z"/>
        <path class="cls-97" d="M14.22032,4.509l.2795.0659c-.2635.9759.5939,1.4228.986,2.0893-.4707.603-.4719.6037-.7577.0688-.0859-.1608-.267-.2741-.3808-.1752-.7284.6331-1.3803-.01-2.0629-.0919.1938-1.0603.2037-1.084.99-.7522.3017.1272.3729-.0528.4011-.2179C13.744,5.095,13.80452,4.7101,14.22032,4.509Z"/>
        <path class="cls-98" d="M11.79782,20.8611c-.6763.2646-1.1912.6091-.7146,1.4442-.5136-.0183-1.0362-.0247-.6929-.7956.0457-.1028.1012-.2743.0529-.3354-1.4527-1.8343.0348-2.8141,1.1251-3.9097.4338-.0947.9595-.2244,1.0686.36.1015.544-.47.1448-.7011.3356-.5765.4759-1.2087.733-1.2905,1.735C10.55622,20.7891,10.93022,20.9477,11.79782,20.8611Z"/>
        <path class="cls-5" d="M19.492,8.3625q.2379-.2232.4759-.4463c.2192-.907.8253-.6321,1.3984-.4578q.14745.2118.295.4234c.6448.6493-.0372,1.4089.1715,2.0955a.16654.16654,0,0,1-.0356.1025c-1.7259-.3627-.6012,1.6586-1.594,1.9049-.2417.4572-.4894.307-.7386.0074l-.1938-2.822C19.45262,8.9305,19.22962,8.58,19.492,8.3625Z"/>
        <path class="cls-99" d="M20.90872,12.7332c.4747-.0021.8431.2427.665.6997-.3458.8875-.2987,1.9533-1.126,2.6338-.7969.7226-1.9832.9289-2.561,1.9587-.1085.1933-.4307.1812-.659.0681a3.50311,3.50311,0,0,1-.9075-2.3295,2.226,2.226,0,0,1,2.3585-.9626c1.2969.2745,2.0203-.3693,2.1969-1.6866.0102-.0542.0209-.1084.0315-.1626Q20.91072,12.8427,20.90872,12.7332Z"/>
        <path class="cls-100" d="M19.46462,11.9921a.755.755,0,0,0,.7386-.0074c.2505.3111.1232.8971.7041.9675l.0288-.0076c.1773,1.4801-.8381,2.3062-2.2138,1.7782-.5279-.2026-.7994-.5666-.3081-1.0651a3.20775,3.20775,0,0,0,.8028-1Q19.34077,12.32485,19.46462,11.9921Z"/>
        <path class="cls-101" d="M16.61272,15.8041c-.2894.4841-.3293.8972.3018,1.1449a.84318.84318,0,0,1,.3971.2538c.3946.6063.4438.6462.858-.079.5296-.9271,1.522-.7054,2.278-1.0571-.2863.5991.1648,1.4054-.5312,1.8892-.5293.1587-1.0567.3196-1.1918.9647a13.1308,13.1308,0,0,1-2.8259-.717c-.5988-.6323-1.0476-1.4399-1.9765-1.685a2.30774,2.30774,0,0,1-.4136-.2807c-.6133-.5746-.605-1.5146-1.2252-2.0864-.3893-.253-.0897-.4775.0293-.7094.7752-.1418,1.408.3599,2.1272.4711a.3865.3865,0,0,1,.0765.287c.1363,1.0773.9892,1.1048,1.783,1.2184A.79665.79665,0,0,1,16.61272,15.8041Z"/>
        <path class="cls-102" d="M18.28862,33.5787c.3131-.1385.6482-.3439.7238.2385a.71772.71772,0,0,1,.3783.3247c.0451,1.6858,1.5483,2.6193,2.0962,4.0472.0547.1427.2653.244.2776.379a3.15562,3.15562,0,0,0,1.823,2.4746c.049.0287.0147.1439-.0288.2186-1.1716.344-.9028,1.3249-.9566,2.1631-.2636-.1799-.2329-.4579-.241-.723a8.08873,8.08873,0,0,0-1.3742-2.0289,7.24128,7.24128,0,0,1-.8307-1.9281,7.1245,7.1245,0,0,0-1.3277-2.2323,3.97765,3.97765,0,0,1-.6232-1.409,4.30667,4.30667,0,0,1-.1742-1.0575A.656.656,0,0,1,18.28862,33.5787Z"/>
        <path class="cls-84" d="M24.03732,40.7896q.3624.11835.7247.2369c.033.2569-.0511.6107.3287.6467.5094.0484.2721-.5784.6509-.7625.4532.3237-.0048,1.0079.4617,1.3147.1549.4867.3098.9735.4772,1.4992.407-.2786-.037-.5791.1079-.7464.3057-.3526.3181.0155.387.2058a3.25333,3.25333,0,0,1,.2186,1.6964c-.3447.2659-.1349.56-.0602.8609.0996.4013.1255.7964-.2793.9112C26.03752,44.6764,25.03742,42.733,24.03732,40.7896Z"/>
        <path class="cls-103" d="M23.55872,41.2613c-.1138-.4305-.6084-.1957-.7414-.3607-.4533-.5626-1.8994-.5969-1.0835-1.8823-.8708-.6881-.9438-1.914-1.7454-2.6308a2.24308,2.24308,0,0,1-.7467-2.3204c.3931-.0913.4694.2276.5594.4701a6.84424,6.84424,0,0,0,1.5501,2.227c.9647,1.1691,1.3559,2.706,2.4384,3.8002q.00255.1134.0104.2268A.50507.50507,0,0,1,23.55872,41.2613Z"/>
        <path class="cls-104" d="M20.43492,38.6346q.37965.95235.7593,1.9048c.7683.8243.5524,1.9584.9158,2.9102.1942.9097,1.0296,1.3879,1.4459,2.1482-.096.1592.2057.8404-.387.3365-.3199-.272-.3912-.898-1.0337-.5978-.2219-.3296-.3404-.7359-.7088-.957-.1962-.1632-.1003-.4835-.3084-.6237a2.09016,2.09016,0,0,1-.9438-2.3062,2.91119,2.91119,0,0,1-.3923-2.2292C19.80942,38.8727,19.93162,38.5096,20.43492,38.6346Z"/>
        <path class="cls-105" d="M22.11,43.4496c-.8812-.7888-.4612-1.9872-.916-2.9102.7414.5306,1.3919,1.1101,1.1672,2.162C22.09562,42.8898,22.13562,43.1807,22.11,43.4496Z"/>
        <path class="cls-106" d="M15.37632,18.6871l.2661.2641c-.8811.561-1.9928.4199-2.885.9473q-.4698.3702-.9396.7405c-.6668-1.7193-.4346-2.165,1.338-2.4023a2.98281,2.98281,0,0,0,1.0439-.4977c.1705.3835.284.8126.7611.9506Z"/>
        <path class="cls-107" d="M14.96082,18.6896c-.6486-.0006-.7688-.4242-.7611-.9505a2.5994,2.5994,0,0,0-1.4371-1.2793c-1.3281-.6618-.7935-1.4511-.4792-2.3084.6118.0763.9961.3611.9748,1.0376a1.34345,1.34345,0,0,0,.4302.9102c.0561.4052.3842.584.6678.7999.0245.0464.0481.0935.0717.1406A1.9803,1.9803,0,0,0,14.96082,18.6896Z"/>
        <path class="cls-108" d="M13.98132,16.2936a2.401,2.401,0,0,1,1.9172,1.9101c-.69-.1355-1.0278-.716-1.4705-1.1641l.001.0033C14.26442,16.8023,13.74032,16.7765,13.98132,16.2936Z"/>
        <path class="cls-109" d="M14.48652,14.1236q-.021-.10575-.0466-.2104c.447-1.1346,1.6491-.4087,2.353-.9461.1876-.1432.5644-.0265.6053-.4153-1.0105-.1771-1.0068-.1807-2.2517-1.4862a1.16233,1.16233,0,0,0-.4964-.2672c-1.6391-.4965-1.8695-1.1491-.9229-2.647a4.05322,4.05322,0,0,1,2.2484,1.6653,2.72666,2.72666,0,0,0,1.934,1.0037c.3676.0415.8638-.833,1.0154.0115.0945.5264.2042,1.2889-.4837,1.6725a9.37231,9.37231,0,0,0-1.8309,1.6587c-.1548.6575-.6655.4909-1.1097.4827C15.13752,14.5222,14.72712,14.4867,14.48652,14.1236Z"/>
        <path class="cls-110" d="M15.49112,14.3529c.3854.0092.8051.2205,1.1193-.1898a4.80965,4.80965,0,0,0,2.6066-1.5054,2.9769,2.9769,0,0,0-.17.6776c-.0065.4084-1.1474.4179-.395,1.0318a1.47918,1.47918,0,0,0,2.0996-.3813,1.98938,1.98938,0,0,0,.1844-1.0412c.4242,1.2991-.017,1.4908-1.0597,2.0109-1.0867.5421-2.5262-.6211-3.2637.8488q-.126-.10725-.2522-.2141c-.2763-.3244-.6575-.1961-1.0025-.2451-.4298-.0611-.8236-.3143-.7473-.7623C14.69832,14.0688,15.15522,14.2918,15.49112,14.3529Z"/>
        <path class="cls-111" d="M15.48582,6.6642c-.1782-.0852-.3524-.1803-.5352-.2541-1.0026-.4045-1.1889-1.0052-.4508-1.8352.7175-.2344,1.2768.2012,1.8816.444.9859.692.1224,1.0177-.284,1.434C15.89412,6.5248,15.75242,6.7752,15.48582,6.6642Z"/>
        <path class="cls-97" d="M16.61062,6.7003q.23685.12225.4738.2444c-.3682.2294-.1069.8817-.6936.9894-.3443.0632-.7056.291-.8946-.1828-.1748-.4382.1497-.5334.4898-.5767A.78908.78908,0,0,0,16.61062,6.7003Z"/>
        <path class="cls-97" d="M17.08442,6.9447c.532-.168.9718-.1088,1.195.4847C17.822,7.4133,17.07422,8.1133,17.08442,6.9447Z"/>
        <path class="cls-97" d="M19.492,8.3625c.0149.2934.1725.626-.2212.8076.0193-.6334-.7356-.8755-.7534-1.49q.157-.02175.3143-.0438Q19.16187,7.9993,19.492,8.3625Z"/>
        <path class="cls-112" d="M19.25532,4.5385q.11625.0027.2326.0019c.9768-.4232,1.2939.1437,1.4435.9619.2409.0573.5216.1093.2509.4384-.224.2725-.4825.5166-.7256.7732-.2357-.4656.5921-1.5855-.8681-1.3309C19.25912,5.4405,19.53992,4.7663,19.25532,4.5385Z"/>
        <path class="cls-113" d="M20.93142,5.5023c-.3246-.5556-.6184-1.1575-1.4436-.9619q.11835-.4773.2366-.9544c.2881.2239.304.6534.7591.7948A.761.761,0,0,1,20.93142,5.5023Z"/>
        <path class="cls-112" d="M21.36632,7.4584a1.24608,1.24608,0,0,0-1.3985.4577c-.2247-.5566-.138-.9869.4867-1.1989-.0866.2322-.1561.4547.2233.4646C20.94072,7.1887,21.22882,7.1376,21.36632,7.4584Z"/>
        <path class="cls-114" d="M20.44472,41.2634c.2382.3144.7502.5879.0472.982-.4587.257-.0541.3455.1308.535.4278.4383.9056.8824.8036,1.5991-.2568-.1603-.4216-.44-.8072-.4305-.27.0067-.3311-.8339-.7566-.3237a.99334.99334,0,0,0-.1464,1.2072c.4485.5919.0842.9427-.3664,1.1178-.6255.2431-.7482-.3409-.7942-.7484-.114-1.0097-.5962-1.2317-1.4676-.8141a.43863.43863,0,0,1-.1002-.4649c.944-.3774.6762-1.4416,1.1708-2.075a.64.64,0,0,1,.5529-.2901C19.35932,41.8771,19.78962,40.9028,20.44472,41.2634Z"/>
        <path class="cls-36" d="M14.69842,47.7571q.11295-1.32585.226-2.6518a.66059.66059,0,0,1,.4994-.4737,1.13719,1.13719,0,0,1,.7151.0432c.1661.0949.2888.2135.2255.4294a1.04449,1.04449,0,0,0-.9283,1.3787A1.02555,1.02555,0,0,1,14.69842,47.7571Z"/>
        <path class="cls-115" d="M16.36442,45.1042l-.241-.2424c-.1599-.6809.2122-.943.8092-1.0285.0517.0245.1035.0495.1553.0745q-.00015.24-.0001.4799C16.98552,44.7668,17.22272,45.4886,16.36442,45.1042Z"/>
        <path class="cls-116" d="M8.68442,41.5059c.8915.2153,1.8593.6309,2.0439-.863a.37053.37053,0,0,1,.4738-.2602c.1949.0361.5412-.0432.3984-.1973-.7189-.7761.3858-1.5336-.0409-2.2722.5045-.666,1.0752-.3357,1.6399-.1111a.70771.70771,0,0,1,.2312.2287c.1614.9925.9951.9079,1.6881,1.0486a1.01092,1.01092,0,0,1,.288.1593.5637.5637,0,0,1,.1309.2957.54632.54632,0,0,1-.2239.4134,7.66362,7.66362,0,0,1-1.1719.7749c-.1361.1485-.193.3555-.3358.4902-.3144.2963-.6781.5252-.4742,1.0835.2238.6129.7253.5119,1.1812.5703.447.0675.8303.2048.83.7587a.665.665,0,0,1-.1472.3081,3.7563,3.7563,0,0,1-3.5675-.6425.96961.96961,0,0,0-.3134-.1714,4.32357,4.32357,0,0,0-3.1787,1.1809c-.1511.2009-.313.4359-.2038.6542.3742.7479-.127,1.3834-.2093,2.0699l-.2412.0004c-.2731-.152-.5467-.3031-.8192-.4563-.2658-.1494-.7912.3528-.8374-.2833-.037-.5084.0183-1.1659.5207-1.3468.8567-.3083.7359-.8851.6559-1.5156q.1203-.11955.2408-.239A4.46582,4.46582,0,0,1,8.68442,41.5059Z"/>
        <path class="cls-117" d="M7.72322,47.0246c-.1453-.3544-.7109-.7173-.0277-1.0657.2835-.1445.2148-.3108.0961-.4564-.7596-.9316-.0327-1.3682.5853-1.868.2733-.2211.4856-.5162.7461-.7552a3.19118,3.19118,0,0,1,.4872-.3106c.4735,1.052,1.0034.0725,1.5087.05.1473-.0065.3961.0369.4334.1262.4933,1.1825,1.8911.4717,2.5921,1.2584.2649.2971.5918-.7889,1.012-.0939.3055.5472-.0067.7894-.472.9559-.3769.3024-1.7611-.0012-.6965,1.1755a.24948.24948,0,0,1-.2154.4113c-.532-.1676-.7679.1892-1.1126.4443-.2031.1503-.674.4017-.5937-.3236.045-.4068-.6642-.6274-.7037-.6064-.7641.4062-1.5056-.0021-2.2481-.0127-.5129-.0073-.5233.3662-.6127.7137C8.39412,47.0853,8.261,47.5146,7.72322,47.0246Z"/>
        <path class="cls-115" d="M14.68442,44.8653c.1431-.3257.503-.5443.4722-.9559l.0148-.0082a.2426.2426,0,0,1,.3401.0632.72051.72051,0,0,1-.1071.9009q-.24.12-.48.24Q14.80427,44.9853,14.68442,44.8653Z"/>
        <path class="cls-78" d="M8.68442,41.5059c.0042.9758-.901,1.1703-1.4416,1.6781.0701-.3995-.2523-.7995.0016-1.1987C7.70762,41.7752,7.80212,40.4573,8.68442,41.5059Z"/>
        <path class="cls-43" d="M10.60242,31.9032c.0455.2264.0113.5461.1494.6641.9314.7954.3016,1.1459-.3863,1.4987C10.41622,33.342,9.92772,32.5589,10.60242,31.9032Z"/>
        <path class="cls-118" d="M11.32442,37.1859c-.1689-.1333-.2855-.3224-.1825-.5125.6461-1.1924.0576-2.6676.8833-3.821.0753-.1052.014-.3082.0162-.4658,1.0693.5718,1.2188.9077.8019,1.8694-.1434.3309-.3698.6785-.0126.9697.3924.32.6249-.0879.9123-.2756.8904-.5814,1.1843-.425,1.2436.6749.0457.8473.5514,1.699-.0052,2.5458-.2961.1468-.6667.0625-.7461-.1631-.2887-.8197-.6613-.0544-.979-.0972l-.019-.0092c-.3879-.7526-1.1734-.0766-1.6633-.4628Z"/>
        <path class="cls-119" d="M11.574,37.4384c.2341-.025.5614.0406.6877-.0892,1.0834-1.1136.9854-.2166.9757.5522-.5577.2309-1.1215-.4246-1.6777.0118Q11.56677,37.6759,11.574,37.4384Z"/>
        <path class="cls-120" d="M14.91852,38.1513c.2155-1.0947-.5021-2.1309-.1864-3.2674-.3467.0643-.7527-.0078-.8706.4175-.2203.7942-.7931.5486-1.2383.3858a.7337.7337,0,0,1-.2655-1.1213c.6479-.8871.2255-1.5195-.3163-2.1793-.3329-.0987-.6657-.1974-1.2292-.3644.924-.6611,2.4103-.7407,1.9383-2.2693.6493.0041,1.2812-.5612,1.9469-.0596a1.73065,1.73065,0,0,0,.3575,2.0978,1.35344,1.35344,0,0,1,.0944,1.4654c-.153.4058-.2022.7872.3729.8992a.56123.56123,0,0,1,.2414.2044,1.39786,1.39786,0,0,0,.8995,1.1248c.6214.5431.0365-.4299.3446-.2766.186-.2218.499-.3834.3527-.7616a1.54306,1.54306,0,0,1,.1448-1.342c.8686-.1695.4934.6595.7733.9632q.1194.4797.2387.9596c-.3439,1.1513-.9562,1.9443-2.3139,1.8692-.6076-.0335-.6638.4125-.6195.8983.0483.5289.3158,1.0915-.1897,1.5551q-.117-.00315-.234-.0054C14.801,39.0033,14.525,38.6451,14.91852,38.1513Z"/>
        <path class="cls-119" d="M14.68432,29.7447c-.4146.0804-.8467-.1461-1.2276.363-.3813.5097-.3839-.3786-.7061-.3548-.026-.4463-1.5278.5314-.7064-.7321a1.23937,1.23937,0,0,1,.6725-.4993,2.938,2.938,0,0,0,.7525-.2906c.6888-.4175,1.1585-.2513,1.4252.5058a1.10089,1.10089,0,0,1,.1357.3035A.68246.68246,0,0,1,14.68432,29.7447Z"/>
        <path class="cls-121" d="M12.75612,28.7664l-.7119.2544c-.2414-.353-.4854-.0611-.7285-.0032.2086-.8454,1.0836-1.1539,1.5088-1.876.3301-.5608.1823-1.3814.8963-1.718.0572.0204.1144.0408.172.0608.5592.5292.3343,1.1051.0473,1.6387A6.9173,6.9173,0,0,1,12.75612,28.7664Z"/>
        <path class="cls-122" d="M14.91232,29.0335q-.1104-.01155-.2202-.0274c-.218-.777.2797-1.2017.7956-1.618.0529-.0158.1062-.0307.1596-.0457q.5985-.2382,1.1971-.4765a2.63463,2.63463,0,0,1,.7159,2.6391l.0041.2403c-1.0747.4843-.2304,1.3055-.3423,1.9593a.56487.56487,0,0,1-.1634.2999.68848.68848,0,0,1-.667.0274c-.2474-.152-.3113-.4852-.5352-.6248a1.55816,1.55816,0,0,1-.8103-2.0552C15.08282,29.2541,14.98922,29.1274,14.91232,29.0335Z"/>
        <path class="cls-122" d="M13.72082,25.4236c.3618-.6059.8757-.5671,1.4274-.3271a.93128.93128,0,0,1,.5873,1.2041,6.74977,6.74977,0,0,0-.0883,1.0419l-.01.0099c-.6179.5212-.9934.5654-1.0842-.4211-.0527-.5729-.0288-1.2863-.8176-1.5013Z"/>
        <path class="cls-123" d="M18.27742,21.12a1.86108,1.86108,0,0,0,.7216,1.1836c-.6386-.0641-1.2303-.497-1.9091-.2422C17.02612,21.1678,17.57982,21.0532,18.27742,21.12Z"/>
        <path class="cls-89" d="M22.84,35.7485c-.7782-.4131-1.5759-.8167-.9545-1.9241C22.613,34.2627,22.44162,35.1469,22.84,35.7485Z"/>
        <path class="cls-90" d="M23.78962,40.5644c-1.2825-.1797-1.1361-1.5055-1.7355-2.2362a14.30481,14.30481,0,0,1-.8886-1.3832,9.42822,9.42822,0,0,1-1.3433-2.6089,1.253,1.253,0,0,1,.1391-1.228q0-.36.0002-.7199c.4538.341.4589.9029.6653,1.3646a8.09942,8.09942,0,0,0,.7058,1.6213,2.52021,2.52021,0,0,1,.785,1.8211,3.93816,3.93816,0,0,0,1.4937,2.5613C23.98322,40.0683,23.77222,40.2917,23.78962,40.5644Z"/>
        <path class="cls-38" d="M19.96132,33.1081c-.0594,1.4236.9388,2.5153,1.2042,3.8369a6.024,6.024,0,0,1-1.9238-2.8779q-.11475-.1248-.2294-.2498C19.42342,33.7076,19.45442,33.0894,19.96132,33.1081Z"/>
        <path class="cls-2" d="M17.56032,29.505c-.4854-.8128-.2935-1.8093-.7159-2.6391.6123.192,1.7271,1.7208,1.5882,2.2124C18.30752,29.5207,17.91742,29.4965,17.56032,29.505Z"/>
        <path class="cls-2" d="M17.08672,31.6677a8.43633,8.43633,0,0,1-.673-2.053c.4621.0524.8064.0915,1.1507.1306a1.50214,1.50214,0,0,1,.2335,1.4557C17.60532,31.4243,17.66072,32.0255,17.08672,31.6677Z"/>
        <path class="cls-124" d="M17.08672,31.6677c.3553.0243.469-.3194.7113-.4669-.0226.8312.6013,1.5288.4906,2.378q-.005.2445-.0101.4891c-.3298-.2508-.2256-.8225-.7095-.9594a.92867.92867,0,0,1-.7916-.4869c-.0703-.3123.2189-.474.3032-.7219Q17.08272,31.7836,17.08672,31.6677Z"/>
        <path class="cls-53" d="M12.75742,19.8985c-.174-.3712.0431-.4696.3529-.5413a8.99967,8.99967,0,0,1,2.5321-.4061q.12015.2382.2404.4761c-.706-.1278-1.2562.3362-1.8856.4998A1.70928,1.70928,0,0,1,12.75742,19.8985Z"/>
        <path class="cls-99" d="M15.49112,14.3529c-.2368.0817-.6348-.0803-.6663.3091-.0284.3507.3328.3379.5774.4507.3217.1484,1.025-.4278.9582.4774a1.90657,1.90657,0,0,1-2.1455-.8527c-.5999-.7053-.1629-.5632.2716-.6138C14.81842,14.213,15.20562,14.0603,15.49112,14.3529Z"/>
        <path class="cls-65" d="M13.98132,16.2936q.224.3744.4478.7491c-.6097-.0299-1.0911-.1605-.7406-.9436Q13.83477,16.19645,13.98132,16.2936Z"/>
        <path class="cls-125" d="M15.39412,39.3501c.1429-.7248-.2526-1.3885-.2344-2.1043.0134-.5286.1491-.8193.7607-.744,1.1263.1388,2.058-.0481,2.1869-1.4569.0141-.1536.266-.0625.41-.0174a6.70484,6.70484,0,0,0,1.3917,2.4379,2.61613,2.61613,0,0,1,.526,1.1691,2.25121,2.25121,0,0,0,.0097,2.6289c-.6036.0164-.849,1.2791-1.6858.4846-.2147-.4331-.0842-.9601-.7479-1.2711-.5772-.2704-.4645-1.0074-.0474-1.5529.3842-.5025.7183-.3593,1.0691.1946a1.47,1.47,0,0,0-.5963-2.0765c-.5343-.0088-.5621.4565-.7342.786-.305.4409-.2242.9961-.4415,1.4617-.4494.9626-1.1104,1.0691-1.8575.2958Q15.40052,39.46785,15.39412,39.3501Z"/>
        <path class="cls-126" d="M15.40322,39.5856c1.094.4905,1.5351.2545,1.6713-.9462.0457-.4032.0632-.7774.4828-.9766.4007.116.8658.3511.7694-.4289a1.03782,1.03782,0,0,1,.1832-.7576c1.4871,1.7463,1.4871,1.7463.4401,3.3161-.5566-.1388.0628-.7828-.5017-.9715-.2874.3733-.7118.6925-.4109,1.3372.3583.7679.8379-.2294,1.287.1881a3.392,3.392,0,0,0-.5654,1.4018.52847.52847,0,0,0-.4793.2338c-1.3451.3817-2.0677-.5367-2.8397-1.3558-.1737-.2366-.4155-.4522-.2644-.7964Z"/>
        <path class="cls-115" d="M15.63662,40.3146a3.91586,3.91586,0,0,0,2.6431,1.6673c.1465.4676-.6468.9367.0422,1.4444.1979.1458-.0799.4627-.3423.3951a1.0606,1.0606,0,0,0-.8918.0863l-.0046-.003a1.75671,1.75671,0,0,1-.6226-.7572,3.7406,3.7406,0,0,0-.6275-1.3493C15.59722,41.3348,15.19182,40.8753,15.63662,40.3146Z"/>
        <path class="cls-116" d="M16.59682,43.1809c.4675.0361.4937.3687.4864.7238a1.55248,1.55248,0,0,0-.9598.9572q-.35955.00165-.719.0034l-.003-.9649C15.33872,42.8943,15.96792,43.0379,16.59682,43.1809Z"/>
        <path class="cls-127" d="M16.59682,43.1809c-.3318.3506-1.0812.0075-1.1954.7195l-.1151.0024-.115-.0015q.05535-.78045-.7246-.7189a6.08416,6.08416,0,0,1-.48-2.8744c.5775.2816.664-.677,1.2088-.4785q.23085.24255.4612.485a2.92776,2.92776,0,0,0,.5853,1.4886C16.43792,42.2177,16.85472,42.6216,16.59682,43.1809Z"/>
        <path class="cls-36" d="M13.96672,40.308a5.90012,5.90012,0,0,1,.48,2.8744c-1.3229-.0059-1.6492-.3102-1.6849-1.5856a1.03646,1.03646,0,0,1,.0809-.2918C13.77582,41.6022,13.43482,40.463,13.96672,40.308Z"/>
        <path class="cls-127" d="M14.91852,38.1513q.1209.5967.2416,1.1934c-.9383-.075-2.1235.1776-1.904-1.4343.3619-.234.0891-.7725.5537-1.0417C14.26792,37.194,14.19522,38.0547,14.91852,38.1513Z"/>
        <path class="cls-128" d="M14.91232,29.0335c.2066.01.5279.1434.4679.2562-.6052,1.1399.4657,1.508.9328,2.1576.0782.1087.0316.3072.0426.4643-.6887.6162.1725.6652.3539.9632a10.92461,10.92461,0,0,1-.1063,2.8717c-.7556-.1904-1.3096-.5148-.9588-1.4412v-.0006c-1.0039.4496-1.0969-.2797-.8991-.8614a1.52359,1.52359,0,0,0-.4536-2.0203c-.6462-.5336-.4371-1.2759.3926-1.6783Z"/>
        <path class="cls-129" d="M16.60322,35.7465a4.00867,4.00867,0,0,1,.0035-2.8786c-.0718-.223.0231-.2897.233-.2485a.7785.7785,0,0,1,.7293.4891,2.479,2.479,0,0,0,.229,1.4333c-.1474.3287-.4562.501-.7069.7295C17.06882,35.5739,17.15682,35.9895,16.60322,35.7465Z"/>
        <path class="cls-124" d="M17.09112,35.2713c.0037-.468.4071-.5486.707-.7294C17.85582,35.0694,17.61072,35.3033,17.09112,35.2713Z"/>
        <path class="cls-118" d="M12.97252,34.378a1.33343,1.33343,0,0,1,.1467.1621c-.0613.077-.1288.1773-.2137.2003-.1152.0314-.241-.0362-.1764-.1806C12.76512,34.4792,12.88812,34.4375,12.97252,34.378Z"/>
        <path class="cls-130" d="M13.73542,25.43c1.3467-.3456,1.4079.8129,1.2348,1.4199-.3291,1.1537.3918.4329.6671.5024-.1356.6541-.9109.9424-.9453,1.654-.2621-.6797-.5956-1.0217-1.2638-.3553-.1315.1313-.4433.0818-.672.1156a1.90016,1.90016,0,0,1,.559-1.2714C13.80352,26.9062,14.21552,26.2427,13.73542,25.43Z"/>
        <path class="cls-131" d="M16.83972,32.6194l-.233.2485c-.4073-.0925-1.0493.2531-1.149-.4201-.1005-.6788.5109-.493.898-.5363q.3624-.0057.7249-.0117C17.53992,32.3202,16.89352,32.3707,16.83972,32.6194Z"/>
        <path class="cls-44" d="M18.50992,36.4763c.0555.2707.115.5406.1656.8122.0702.3772.2874.8461-.2236,1.0288-.5169.1848-.8236-.1229-.8945-.6544C17.39592,36.8828,17.95692,36.6827,18.50992,36.4763Z"/>
        <path class="cls-120" d="M15.64442,34.3047q-.1476-.3024-.295-.6048c.104-.016.2396-.0817.3066-.0393.327.2074.2214.4329-.0116.6447Z"/>
      </g>
    </g>
  </g>
</svg>
