<svg xmlns="http://www.w3.org/2000/svg" width="28.37619" height="18.84208" viewBox="0 0 28.37619 18.84208">
  <defs>
    <style>
      .cls-1 {
        fill: #473a27;
        fill-rule: evenodd;
      }
    </style>
  </defs>
  <g id="图层_2" data-name="图层 2">
    <g id="Livello_1" data-name="Livello 1">
      <path class="cls-1" d="M26.82319,12.09408l-.0908.0097c-.0186-.1035.0957-.1562.1875-.1377a.11673.11673,0,0,1-.0967.128ZM2.9687,6.61258,2.9462,6.599l.0225.0136Zm13.53909,9.7295-.0342.0235.0342-.0235Zm7.9804-13.041-.03319.0225.03319-.0225Zm-5.5214,14.0586-.001-.0361-.0352.0146.0362.0215Zm4.0263-12.7373.0225-.0361-.0362.0009.0137.0352Zm.0928-.2197-.0332.0215.0224.0234.0108-.0449ZM2.3935,6.35678l.0166-.0303-.043-.0049.0264.0352Zm13.40529,10.6416-.04979-.0186.02339.0459.0264-.0273ZM23.76849,4.015l.0078.0322.0293-.0078-.0068-.0303-.0303.0059Zm-4.1338,9.1474c.0254-.0234.0401-.0058.0274-.0615l-.0342.0117.0068.0498ZM2.2294,6.25028l-.0019-.04-.0732.0312c.0205.0293.0351.0332.0751.0088Zm22.30379-3.0322.00581.0576.04879-.0273.0049-.0342-.0595.0039Zm.3212-.2646-.0585.038.0253.0635c.04981-.0195.0684-.0566.0332-.1015ZM2.8886,6.59988l.0166-.0224c-.0322-.0381-.0742-.0918-.123-.0625v.0263l.1064.0586Zm17.23829,3.918c.0254-.0381.0283-.0264.0215-.0723-.044.0118-.0967.0127-.0996.0704.0351.0185.03221.0185.0781.0019Zm3.832-6.665-.1093.0625-.0108.0625c.0615-.0264.1328-.041.1201-.125Zm1.71-1.208c-.0313.0127-.0801.0732-.0527.1181.0361.0069.042-.0136.0742-.0351-.0029-.0479.01761-.0508-.0215-.083Zm-4.0303,11.3007c.043-.0195.0537-.0293.0635-.0742l-.0498-.0254c-.07229.0244-.0781.0606-.0137.0996Zm-3.4258-4.5253-.0263-.042c-.0791-.0098-.0987.0449-.06349.1064l.04589.0049.0439-.0693Zm4.0176-3.3233.0127.0566a.56179.56179,0,0,0,.169-.1669c-.0645-.0547-.1387.0673-.1817.1103Zm-2.3808,4.0742c.0507-.0224.0849-.0381.0693-.0986a.09065.09065,0,0,0-.127.0527l.0577.0459Zm2.9716-4.5498a.20324.20324,0,0,0,.0684-.042l-.0195-.0849-.0459-.0039a.357.357,0,0,0-.0801.1484l.0771-.0176ZM2.5634,6.41148a.19659.19659,0,0,0,.1621.0859l-.0117-.043c-.1094-.0273-.1328-.1308-.2656-.0986a.10475.10475,0,0,0,.1152.0557ZM19.17089,17.307a.083.083,0,0,0,.0566-.0401l-.0361-.0791c-.0596.0117-.1172.0147-.1319.084l.0567.0469.0547-.0117Zm4.0693-12.1582c-.0537.0527-.24019.1787-.2285.2529.082.0176.2265-.1719.2285-.2529Zm-.543.5361a.51383.51383,0,0,0-.1826.1221l-.002.0742c.0821-.0205.1846-.1113.1846-.1963Zm-3.2754,6.5889c-.1884-.043-.25879.0634-.0449.1191l.082-.0605-.0371-.0586Zm4.6533-8.5459c-.0332.084-.0839.0381-.0673.1211.124-.0987.3681-.2862.373-.4571l-.0683.042.0039.0303a.70356.70356,0,0,0-.2413.2637Zm-.6962,1.1884c-.0371.0518-.0655.0469-.0528.1084.0772-.0214.2305-.2089.3213-.2705l.0059-.0732c-.124-.0234-.2158.1543-.2744.2353Zm-5.7237,4.5079c.2051.1914.2881-.1914.0772-.1573-.084.0215-.0957.083-.0772.1573Zm3.9805,6.0351a.1796.1796,0,0,0,.126-.2822.4609.4609,0,0,0-.1973.1963l.0713.0859Zm-3.5039-.0117a.5266.5266,0,0,0,.1611-.0508c.0235-.2139-.2695-.0723-.3398.0166l.0283.0654.1504-.0312Zm3.8769-9.1104a3.15569,3.15569,0,0,0-.33.1719c-.1289.085-.3194.0098-.3819.1026.1143.1865.6963-.1719.7598-.2442l-.0479-.0303Zm-1.5449,7.3438c-.0674.043-.4287.3652-.42579.4375.09669-.0107.72459-.4063.42579-.4375Zm4.7129-10.5303c.0381-.0566.334-.3467.3984-.3213a6.37486,6.37486,0,0,1-.6767.7393l-.0391-.0244c.0098-.0782.2549-.2969.3174-.3936Zm-6.1592,8.8994c.1817.1719.4141-.1054.4649-.2597l-.041-.0489c-.1055.0225-.44539.2178-.4239.3086Zm.5303,2.958c-.1221.0811-.167.1934-.331.2725l.0009.0576c.1582.0332.8584-.6289.5469-.5615a1.83017,1.83017,0,0,1-.2168.2314Zm.1201,1.3799c-.1553.0791-.4092.2041-.3095.3994a1.476,1.476,0,0,0,.4365-.247c.0068-.1358.0185-.1875-.127-.1524Zm1.6045-9.9873c.0713-.0547.0723-.2285.18461-.2539.02049.2549-.44241.7549-.68851.8145-.0342-.2295.5254-.3614.5039-.5606Zm-2.0576,4.874c.07521-.0791.24221-.4023.3496-.3457.0274.3096-.6943.8164-.7461.6836.0352-.0791.3096-.2451.3965-.3379Zm1.2061,2.961c-.0098-.0752.4062-.6406.4707-.4121-.0411.123-.4727.6279-.6065.624l-.0283-.0313c.0078-.0771.1221-.1054.1641-.1806Zm-1.1631-4.8291a2.07121,2.07121,0,0,1-.4629.4072c-.0518.0449-.2783.0957-.21389.2031.16989.0137.98929-.5605.88969-.7832-.1055-.0449-.1631.0889-.2129.1729Zm2.0791,5.2217c-.0313.0488-.4502.2578-.2373.289.1123-.0967,1.0898-.4609.9111-.6787-.13569-.0293-.1748.1367-.26269.2012-.12011.0908-.32621.0556-.41111.1885Zm1.3603-.3204c.0274.0918-.6943.8731-.8603.8545l-.0254-.04c.0469-.0918.1162-.0928.1797-.1504.0302-.0273.0439-.1514.0927-.2139.1495-.0615.4805-.54.6133-.4502ZM18.625,16.805c.11129-.0889.35049-.4785.46579-.2656a1.09943,1.09943,0,0,1-.5283.498l.0029.0205c-.083.0313-.1299.1563-.2451.1739-.1729-.1543.1865-.3311.30471-.4268Zm3.00389-10.9892a.774.774,0,0,1,.2822-.462c.4336-.1054.6406-.4794,1.0078-.625-.0137.3165-.8916.668-1.0918.7881-.0332.1338-.1543.4873-.2822.5284-.0293-.1211.0556-.1387.084-.2295Zm-1.0957.5986c-.1094.251-.875.7373-.8741.8945.2881-.04,1.3438-1.0215,1.1143-1.2129-.1055.0157-.2031.2315-.2402.3184Zm-1.2061,3.6689a9.41968,9.41968,0,0,0-.9404.834l.0869.0371c.0869-.0713.3125-.1631.417-.2422.1553-.1152.06641-.2236.3271-.2851.1055-.1162.4707-.7061.1094-.3438Zm.5928,2.3614c-.0508.083-.2813.54-.2364.6074.1768.0166.4463-.6035.5118-.71.789-.3203-.0049-.3427-.2754.1026ZM18.89549,8.932c.04-.1543-.0489-.1377.1709-.1729.0839-.0947.165-.4267.2871-.4482.2744.2451-.7178,1.1054-1.0069,1.0508.02441-.2071.40041-.2979.5489-.4297Zm-.3291,7.2763a1.53821,1.53821,0,0,1-.5635.4405c-.2598.1074-.08989.2568.1377.1298.2021-.1132.9189-.5888.5791-.871-.1631.04-.0615.2031-.1533.3007Zm1.55561-.7089c.04789-.0596.06739-.0928.15729-.0616.0966.2793-.7217.7305-.9375.8828-.3331-.1005.6777-.6992.78021-.8212Zm-5.89651,1.2373c-.0459-.001-.05949-.0547-.0693-.0987a.07882.07882,0,0,1,.0693.0987Zm-.10449.1416c-.22161.1738-.39641-.2774-.21481-.2588.0684.2109.1846.1445.21481.2588Zm.56449.0849c.5049-.3271-.72949-.7031-.9082-.5469a.36422.36422,0,0,0,.30371.6329,2.90783,2.90783,0,0,1,.60449-.086Zm11.9521-4.7783-.0087.0596.0507.0625a.31041.31041,0,0,1-.1738.0478l-.0527-.124.1123-.0684.0722.0225Zm-.6972.9648-.041.0098-.0108-.0508c.0401-.0078.043.003.0518.041Zm-.1397.3721-.0752.0176-.0371-.1045a.23967.23967,0,0,1,.1328-.0498l.0313.1123a.23026.23026,0,0,1-.0518.0244Zm-.21769.2031-.07131-.0205c-.0244-.0918.11031-.1054.166-.1181.0127.0752-.0156.1162-.09469.1386Zm-.44441-.7363.1328-.0215c.0205.0615-.0361.0655-.039.125l.0322.0235c.0811-.0147.1572-.0313.2393-.042l.0146-.0977-.1123.0254c-.0664-.1152.1436-.1865.1895-.2324.2392.1191.4638-.0069.6562-.2031l-.0312-.0479A4.01136,4.01136,0,0,0,25,12.88408c.01359.0674.07509.0869.13859.1045Zm.2578.9082.0284.0283-.0166.0479-.0313.0117-.0361-.0195-.0117-.0498.0273-.0235.04.0049Zm-.3525-.1074-.0625-.0156c-.02439-.1211.05961-.128.1494-.1035l.0108.0498-.0977.0693Zm-.3281-.1299.0976.0303-.0517.0986-.1543-.0439c-.0215-.0625-.0391-.1621.0693-.1524l.0391.0674Zm-.1944-.3965c-.0302-.125.1182-.2695.2383-.2187a.997.997,0,0,1-.2383.2187Zm.14361.5879-.00981-.041.0293-.0059c.0137.0577-.0029.0313-.01949.0469Zm-.42291.1611c-.1435-.0908.126-.207.0586-.0146l-.0586.0146Zm-.0507.4297-.0127-.0566c.0625-.0518.1162-.1055.206-.0586l.0039.0303a.18294.18294,0,0,1-.1972.0849Zm-.4502-.957-.0303-.0264.041-.2314.03711-.002c.03129.0811.05279.2198-.04781.2598Zm.17481.6299-.05181-.0215.0342-.1113a.166.166,0,0,1,.0684-.0108c.0205.0342-.0323.1084-.05079.1436Zm-.14751.1504.0029-.0889.0674-.0293.0264.0274-.03519.0761-.06151.0147Zm-.39649-.1475c-.04781-.0596-.01661-.1142.03909-.1572l.042.0137a.11226.11226,0,0,1-.08109.1435Zm-.32421.2871.0313-.1689a.14567.14567,0,0,1,.0761-.0078c.0117.0742-.0527.0849-.0527.1631l-.0547.0136Zm-.0752.3203-.0361-.0185c-.02049-.0694-.0156-.1494.0752-.1641l.0371.0488a.23867.23867,0,0,1-.0762.1338Zm-1.751-4.9785-.0097-.0429.041-.0079.0088.0411-.0401.0097Zm-.6875.0401-.0468-.0157c-.0186-.0693.3808-.2627.4179-.2714-.0615.1679-.2431.1943-.3711.2871Zm1.4336,6.7197-.01269-.0547.08009.0068.0108.0489-.0215.0205-.0567-.0215Zm-.2334.2881c-.0595.0136-.1006.0107-.1172-.0547l.042-.0215c.0498.0205.0625.0254.0752.0762Zm-.5205-.0948-.041.003a.12767.12767,0,0,1,.1133-.1807c.0234.085-.0176.1182-.0723.1777Zm.2754,1.2422-.041.0069c-.0811-.0684-.0713-.2305-.0654-.3164l.041-.0108c.0254.1133.0381.2071.0654.3203Zm-.8486-1.4179c.0019-.0332.0058-.0332.0449-.043l.0059.0312-.0508.0118Zm-.0684.2968-.125-.0283a.12733.12733,0,0,1,.0879-.1279l.0361.0185c.00981.0352.0176.0694.0245.1055l-.0235.0322Zm-.1474.4053-.0459-.0029-.0137-.0557.0889-.0508c.04591.0401.0185.0938-.0293.1094Zm-.1651.9697c.1836.0137.4981-.6875.7295-.748l.0723.0498c.01851.1416-.127.3057-.0908.4541.0556.2324.2285-.3936.2548-.4424a1.36974,1.36974,0,0,0,.3467-.5722c-.0371-.0459-.1025-.1104-.165-.1094-.2627.2295-1.3701.9541-1.1475,1.3681Zm-2.164-3.3877-.0723-.0058-.0459-.1387c.1348-.0683.6084-.1748.64551-.2793l-.10351-.0273c-.0557-.167.3066-.0567.331-.0518l.0371.085c-.1738.166-.5029.1142-.63759.3193-.03131.0469-.10941.0674-.15431.0986Zm-1.0938-3.748-.0166-.0488.041-.0088.01171.0537-.03611.0039Zm.5713,2.3682-.0234-.0635c.0449-.0088.0527-.0156.0664.0459l-.043.0176Zm-.4727-1.8311a.26416.26416,0,0,1-.205-.1826c.0771-.0166.1992.1084.2412.1719l-.0362.0107Zm-.9541.415c-.1191-.0439-.205-.1845-.0556-.2304a.40915.40915,0,0,1,.0556.2304Zm-.0517-.3125a.1668.1668,0,0,1-.166-.1103l.0527-.0117c.043.0361.09861.0674.1133.122Zm-.499-.2832-.0118-.0566a.11956.11956,0,0,1,.12211.0742l-.03711.0371-.0732-.0547Zm-.9073.378.0342.0342c-.0117.0449-.0254.0419-.0693.0419l-.0137-.0517.0488-.0244Zm-.3486.0732a.06575.06575,0,0,1-.1094-.0205c.043-.0098.083-.0264.1094.0205Zm.0127.3301c-.0342-.0273-.1113-.082-.124-.1182a.98613.98613,0,0,1,.1924-.0107l.03411.0371a.10952.10952,0,0,1-.10251.0918Zm-.4482-.5957c-.0586.0469-.1075.0059-.128-.0508l.09571-.0078.03229.0586Zm.1318-.1231c-.1504-.0683-.1983-.04-.336-.1406.0342-.0674.3614.0654.379.127l-.043.0136Zm-.669-1.2421c-.0498,0-.07709-.0108-.0947-.0586l.0527-.0264.0606.0234.0146.0537-.0332.0079Zm.2745.8486c-.0547.0439-.22859-.0166-.251-.0781a.40084.40084,0,0,1,.251.0781Zm.0029.6826c.1006-.0088.1826.0332.2832.0225l.0039-.0342a.62075.62075,0,0,0-.4082-.1084c.0371.0859.0967.0801.1211.1201Zm-.3574-.5937c.0517-.0147.0703-.0108.0937.0322l-.0557.0127-.038-.0449Zm.1982.2734a.21588.21588,0,0,1-.1416-.0254l-.0166-.0518a.13423.13423,0,0,1,.1582.0772Zm.01171.1943c-.06741.0157-.13181.0196-.15231-.0556.0576-.0147.1289-.0147.15231.0556Zm-.20021-.6552a.1846.1846,0,0,1-.1787-.0528c.0332-.0254.13191-.0019.1748.0186l.0039.0342Zm-.2881.1396c.0225-.0752.0635-.0781.1309-.0762l.0967.1075-.1621.0293-.0655-.0606Zm.0352-.1777c-.0498-.0303-.1738-.0469-.1973-.0879l.0303-.0479a.199.199,0,0,1,.2197.126l-.0527.0098Zm-.4102-.5342a4.092,4.092,0,0,0,.7998.2246l.0137-.0391c-.042-.0517-.8691-.4365-.8135-.1855Zm1.0664.4726c-.0009-.0459-.2187-.1455-.2617-.1591-.14939.042-.6591-.2315-.7158-.1553a2.33006,2.33006,0,0,0,.9775.3144Zm-1.2607-.9482a.13116.13116,0,0,1-.123-.0742c.0478-.0381.0918-.0059.13961.0156l.01659.0508-.0332.0078Zm-.4365-.4629c-.0322.0127-.0762-.0107-.1065-.0224l-.0156-.0518a.59187.59187,0,0,1,.1611-.0039l.0108.0596-.0498.0185Zm-.294-.1142a.11313.11313,0,0,1-.12789-.0039l-.00491-.0381c.0547-.0235.1094-.0284.1328.042Zm1.0577,1.9726c-.2227.2412-.9063-.5615-.9512-.7646a2.004,2.004,0,0,1,.4805.0752c.1474.1513.4892.4902.4707.6894Zm.4345,5.3867.00391-.0498.06059-.0156.02541.0391-.041.0371-.04891-.0108Zm-.9687-4.7978a.229.229,0,0,1-.2246-.0147l.0371-.0361.16111.0146.02639.0362Zm-.6035-2.1719a.16986.16986,0,0,1-.1768-.1074l.0635-.0147a.217.217,0,0,1,.1133.1221Zm.3046,2.1729-.0078-.0293.0371.0224-.0293.0069Zm-.51949-1.9131.00979-.0371a1.50573,1.50573,0,0,1,.6006.4277c-.17.1006-.1729-.1143-.31939.0967-.20021-.0723-.08791-.3418-.291-.4873Zm.25289,1.873.0596-.0488c.0606.0166.1319,0,.1543.0674l-.1914.0097-.0225-.0283Zm-.3017-2.3105c-.0938-.043-.2139-.0498-.28219-.127.083-.0517.36709-.0517.34959.1006l-.0674.0264Zm-.375.0859c.0332-.041.1445-.0703.1719-.0068-.0264.0302-.0694.0283-.1065.0459l-.0654-.0391Zm1.6445,7.7393-.0078-.043c.08111-.0986.3535-.126.4668-.126.0352.1602-.3574.2412-.459.169Zm-1.7178-8.2959c-.0546-.0176-.1162-.0264-.1337-.0743l.1484-.0058.0156.0586-.0303.0215Zm.8379,2.122.0684-.0019.0254-.0303c-.0967-.3857-.4981-.2432-.7988-.3408-.4082.1045.6816.3594.705.373Zm-1.0097-1.2802c.0742-.0244.1308-.003.1494.0761l-.0527.0108-.0967-.0869Zm.5136,1.7851c-.0546-.0166-.0742-.0029-.09469-.0595l.02149-.0254c.0596.0107.0898-.0147.1123.0517l-.0391.0332Zm-.7783-2.4199c-.0371.0098-.039-.0049-.0547-.0332l.0274-.0313c.04291.0137.0595.003.0762.0381-.0245.0284-.0059.0157-.0489.0264Zm.3037,1.3652a.91771.91771,0,0,1,.5791.0782c.3243-.0879-.5654-.5225-.7656-.2793a.26265.26265,0,0,0,.1865.2011Zm-.4902-1.6787c.085,0,.3359.0674.3789.1514-.0742.0928-.2412.0293-.3359-.0147-.0157-.0459-.0313-.0898-.043-.1367Zm-.1963-.0801L10.08,8.85088c.06939.0059.19529.002.21779.086l-.2002-.0206Zm.1455.9961c-.0312-.2109.3916-.0937.42291.0254a2.62677,2.62677,0,0,1-.42291-.0254Zm.5264.3584a1.03013,1.03013,0,0,0,.39551.0664c.01759-.0898-.09861-.1523-.13571-.2304-.1485-.0108-.2481.0459-.4131-.0274-.5235-.2334-.252.293.1533.1914Zm-.8311-1.5605.0567-.0713c.0537.0166.2793.0684.2832.0713l.00971.043a2.87017,2.87017,0,0,1-.31731,0l-.0323-.043Zm.084.9043a.70552.70552,0,0,1-.12109-.2022l.05279-.0966c.1386-.0186.2968-.0489.3281.1435a.766.766,0,0,1-.2598.1553Zm-.30079-.6211c.0313.1465.0674.1719.21289.2178.1641-.1436-.25489-.3614-.28219-.3418-.0059.041.0381.0937.0693.124Zm-.3925.2148c-.0498-.0537-.1065-.0595-.1211-.1347a.25775.25775,0,0,1,.3535.2256l-.0303.0205-.2021-.1114Zm.5107,1.5752c-.1953.0557-.4033-.0224-.4121-.2236a.61886.61886,0,0,1,.3174.0576c.1152.0381.98729.0947.70409.2998-.19919-.0615-.4151-.0683-.60939-.1338Zm-.5713-.5322-.0068-.0342c.1426-.0342,1.03419.0957.9843.3301-.20991.0576-.5439-.1103-.8164-.0693l-.1611-.2266Zm.5215,1.4229c-.0859-.0538-.2471-.0733-.2803-.1944.0694-.0176.3438.083.334.1758l-.0537.0186Zm-.667-1.627c-.0635-.0361-.1768-.1631-.1709-.2344.0381-.0234,1.252.1416.99709.3311-.22759.0322-.56249-.1016-.82619-.0967Zm-.3467-.5488a.95173.95173,0,0,1-.0849-.2373.35916.35916,0,0,1,.3925.1181l-.0371.0371a.36258.36258,0,0,0-.2148-.0224c.0791.2392.8056.0166.8808.3887-.0585.0507-.9628-.0606-.9365-.2842ZM8.2578,8.304c-.0703-.0761-.1993-.208-.169-.3164a.98316.98316,0,0,1,.7471.2608c-.0713.1699-.3721-.1065-.4668.0146.0273.1524.4893.084.6006.127a2.12218,2.12218,0,0,1,.3144.5625c-.084.0576-.8154-.0781-.7871-.2686.1055-.0742.4698.125.585.0127-.0899-.2637-.7363.0186-.8242-.3926ZM8.165,9.70638c.5615-.0986.1123-.3233-.1885-.2852-.0869.1651.0283.2393.1885.2852Zm.0644-.4014.0147-.0449c-.0947-.1807-.5762-.6699-.7656-.499a.60784.60784,0,0,0,.7509.5439Zm-1.166-1.2334c.0039-.4726.711.1192.6475.3086a1.22061,1.22061,0,0,1-.5078-.0146l-.1397-.294Zm2.084,2.4863c-.0586-.2617-.4316-.2402-.54-.3681l.0049-.0342c.3125-.2051-.3291-.4531-.4776-.3662.0108.291.4551.4228.3985.7187-.4161.0459-.7286-.9013-1.0596-1.125-.0635-.0439-.6885-.081-.7012.0079-.0273.1914,1.6065,1.2187,1.794,1.3212a7.27907,7.27907,0,0,1,1.0146.4942c.2139.167.95219.041,1.25779.081.3838.0508.7334.2159,1.1113.2657.1934.0254.0665-.1582-.0576-.1973-.2246-.0713-.5849-.0352-.8037-.1104-.7373-.2539-1.51559-.375-2.25969-.5869-.1905-.0547-.2256-.2119-.0665-.1826.1895.0352.1153.1319.3848.082Zm-2.207-1.3222c-.3799.0918-.5664-.4199-.25-.2793.1816.081.5224-.0352.5762.1894l-.1016.1006a.40233.40233,0,0,0-.2246-.0107Zm-.2246-.3809a.33944.33944,0,0,0,.3301.0352c.0664-.1739-.6065-.6446-.751-.7041-.2647-.1104-.0733.6885.4209.6689Zm-.8067-1.3056c-.1298-.0684-.289-.0332-.2802-.21.4355-.2227.4931.4033.832.5293.0596.0225.1357.0146.1475.0908l-.0362.0352.0342.081c-.1221.0205-.7539-.2529-.7803-.3984l.0879-.0967-.0049-.0312Zm-.167-.3067c.127-.0312.0704-.0771.0606-.1738-.1826-.0762-.333-.2422-.4111.0068a.444.444,0,0,0,.3505.167Zm-.5468.9248c.1113.0723.417.1504.4414.2237-.0772.0185-.1387-.003-.208.039-.0284.1807.3398.3125.4297.1524a.90307.90307,0,0,0-.1622-.3223l.0206-.0264c-.0586-.2051-.2657-.1338-.4336-.2002l-.0997.0616.0118.0722Zm1.4746,1.5488c.0332-.1074-.5313-.6816-.6319-.791a2.61058,2.61058,0,0,0-.9814-.2256c.0674.3184,1.5664,1.0577,1.6133,1.0166ZM5.4716,7.52468c-.0986.0752-1.0058-.7421-1.0966-.913.0898-.4698,1.1748.6543,1.0966.913Zm-.6172.0547c-.1748-.0215-.2412-.1416-.124-.2588.2403.0733.293.0674.3799.3145a1.25728,1.25728,0,0,1,.292.209l-.0049.1064c-.3506.1074-.4375-.1474-.543-.3711Zm-.4882.6338a2.30243,2.30243,0,0,1-.7071-.4346c.1358-.1201.71.2383.7442.3975l-.0371.0371Zm-.085-1.0517c-.4209.167-.4551-.376-.6777-.5577-.0157-.0136-.794-.6308-.3604-.6191a2.41622,2.41622,0,0,1,1.208.9453c.0518.125-.1211.1328-.1699.2315Zm-.8877.4716.002-.0908a.214.214,0,0,1,.2441.1572l-.0449.043c-.0645-.0556-.0947-.1289-.2012-.1094Zm-.4023-.2705c-.0176.043-.0186.0196-.0323.0166l.0323-.0166Zm-.1778-.1084a.26378.26378,0,0,0,.2051.0293.16955.16955,0,0,0-.208-.0693l.0029.04Zm-.3291-.2754-.0263.0059.0263-.0059ZM1.3935,5.74448c-.1396-.0362-.3994-.169-.4101-.2998a5.13469,5.13469,0,0,1,2.0957.7959c.0566.0752.8457,1.1084.2617.8535-.294-.128-1.2735-.5733-1.3594-.7998l.1035.001-.0332-.0694-.0439-.0078L1.957,6.266c-.0694-.2081-.4492-.3262-.5635-.5215Zm12.79589,4.248a1.4137,1.4137,0,0,0-1.2578-.6152c-.2227.0088-.2295-.1514-.376-.2705a1.85914,1.85914,0,0,0-.8808-.3477c-.1739-.0049-.4082.1426-.5264.041a1.22923,1.22923,0,0,0-1.1123-.4131c-.36229.0616-.35059-.0332-.66209-.2128A1.90952,1.90952,0,0,0,7.9892,7.806c-.3428.0937-1.4287-.5479-1.748-.6768-.2881-.1172-.5889-.2207-.8721-.3437-.3027-.1319-.4443-.416-.8242-.4395-.501-.0293-.8448-.5302-1.3028-.54A10.198,10.198,0,0,1,.4628,5.179C.25,5.10678.2343,5.03158,0,5.138c.163.4258.9853.4317,1.1523.7725.0791.1631.0918.1152.1719.208l-.0088.0537.0322.0303.0723-.0137-.0039.0576c.082.085.457.2696.497.3418l-.0507.0332.039.0342.0244-.0508.0557.0459-.0449.0449a.12655.12655,0,0,0,.1133.0694c.0351-.0469-.0088-.0391.0537-.0596.0908.2988.6211.457.7968.6807.4043.5146,1.1895.7666,1.7061,1.1484.6953.5137,1.2373,1.2002,1.9922,1.6729a5.39559,5.39559,0,0,0,.9209.4697c.2402-.0576-.2627-.2735-.294-.291a5.17742,5.17742,0,0,1-.8525-.5733c.3457-.0849,1.6709.8418,1.9199,1.0576.2725.2344,1.0449.1856,1.1856.5811-.4219.1064-1.6817-.8457-1.8985-.5742.1114.2471.8955.5205,1.1172.583,1.2129.3428,2.11919,1.1543,3.4658.9873a6.00067,6.00067,0,0,1,1.94239-.0156c.7774-.2227,1.3877,1.583,1.6367,1.9961a2.5425,2.5425,0,0,0,.9688.8418c-.2441.1298-.1885.1328-.2656.3613-.0567.1689-.2676.1748-.4151.248-.5566.2764-.86719-.0752-1.415-.083-.9141-.0136-1.6094.1377-1.8623,1.0684-.0694.3818-.8028.834-1.12889,1.0351-.20411.1534-.43071.584.09859.3975a4.19973,4.19973,0,0,1,1.5801-.2803,3.94137,3.94137,0,0,1,1.0205-.0205,16.76335,16.76335,0,0,0,3.5117.2295,3.67869,3.67869,0,0,0,1.5694-.2578c.4462-.2295.09371.374.2685.6084.1201-.0273.1494-.293.3301-.3115.082.1592.0058.3105.08011.4844a.51793.51793,0,0,1,.08789.0156l-.004-.0166.0459.001c.0528-.1172.086-.3223.2188-.3907.19141.0684.1152.375.292.4834.3691-.0752.2871-.7402.5361-.7861a.58749.58749,0,0,0,.5908.1953c.0323-.0566-.1757-.6348-.18749-.8018-.03611-.4931.99709-1.0273.88679-1.3154-.0137-.0342-.1729-.1914-.211-.251a3.07958,3.07958,0,0,1,.4903-.7705,9.1322,9.1322,0,0,0,1.457-.5283,7.943,7.943,0,0,1,1.2627-.5195,3.50206,3.50206,0,0,0,.8838-1.0713,7.21148,7.21148,0,0,1,.959-1.2764,1.04658,1.04658,0,0,0,.4521-.7724,8.78786,8.78786,0,0,0-2.2881,1.0361,7.59263,7.59263,0,0,1-2.5791.709,7.76777,7.76777,0,0,1-1.7353.2734,3.08813,3.08813,0,0,1-.0928-.9443c-.0059-.3194.1865-.5694.0547-.8584-.0899-.2002-.0908-.1983.0224-.3838a6.42082,6.42082,0,0,0,.4952-1.9551,4.80856,4.80856,0,0,0,.207-1.2363c-.002-.2656.7549-.9961.98631-1.1973.86039-.747,1.59279-1.7763,2.37889-2.6064a14.162,14.162,0,0,1,1.3106-1.4551c.1201-.0937.125-.3057.0156-.3662l-.002.0488.0342.0254c-.0449.169-.4238.4004-.542.5752-.6006.8857-1.4619,1.5596-2.1386,2.3799-.543.6572-1.0772,1.2217-1.6778,1.8213-.3476.3467-.5498.8359-.9834,1.0967l-.0088-.042c.169-.2393.6582-.5557.667-.8809a1.93487,1.93487,0,0,0-.8525.7022c.1006.0634.3877-.2813.4805-.3711l.041.0127c.0449.2177-.5039.4296-.5674.6562-.0332.1172-.9385,1.0127-.8516,1.1152.2315.0459.48831-.4404.6026-.5859.0849-.1074.4306-.0303.2558-.3164a.40139.40139,0,0,1,.1865-.2441c.0215.0849-.0859.1074-.0458.2236.1181.0068.288-.2969.4375-.3291.2158.4072-.3145,1.4726-.7217,1.6221-.0078-.0606.123-.0977.0517-.1602a3.66016,3.66016,0,0,0-.57129.4014l.00879.04.0459.0225c-.0918.0908-.3886.0713-.3623.2539.2285.0322.5713-.2793.7949-.2178-.0078.2529-.5722.4707-.5546.5889.3867.1582.5781-.9668.7636-.1953a1.962,1.962,0,0,1-.7275,1.2539c-.0869.3955.4697-.1592.5293-.1719.29591.5801-.4756.8056-.5,1.123l.08791.045c.08489-.044.20019-.1358.28509-.1319.3633.5449-.5078.6123-.5595.8037.1132.1309.5547-.1777.6328-.1601.0488.1718-.1865.3242-.084.5029l.05861.0098.126-.0928.06249.0127-.02449.1445.08889.044c.1748-.1094.2256-.5127.4883-.5118.3262.003.6387-.0761.957-.0986.0469.4375-.7715.6055-.7871.8711.1924.2481.877-.6094.9424-.8955a7.60341,7.60341,0,0,0,.76951-.0723c.56839-.1777,1.169-.2285,1.74609-.4511.294-.1133.5782-.2823.8594-.418.2988-.1445,1.0186-.7471,1.3057-.6953.0214.1494-.6524.4404-.78619.5556a8.15851,8.15851,0,0,1-2.52831,1.1788c-.2949.1142-.3105-.0313-.5732-.127-.2774.1406-.3789.6621-.7149.7764-.04.0703-.4414.248-.2353.3642.3398-.0468.6875-.833.9609-.8086.25881.4522-.5879.751-.5488,1.001.05761.3633-.44039.7041-.6289.959-.126.1689.0234.2559-.2227.4053-.1933.1181-.6855.5136-.7197.7539-.24509.0097-.2422.289-.4639.3418-.0117-.0723.1055-.1787.1094-.2686.0967-.0234.7861-.7705.3877-.6601-.0254.2841-.2598.3574-.3975.5898-.04-.0195-.041-.0322-.04779-.0752a2.18361,2.18361,0,0,1,.21869-.2392c-.01269-.0586-.0244-.086-.0879-.1075-.13279.1241-.2177.4278-.4101.4912l-.05369-.1259c-.19241.0449-.36621.4179-.48641.5713-.0751-.0059-.0654-.0586-.13859-.085-.08011.0967-.21881.3428-.33791.3711.001-.0557.0264-.0449.04391-.0947l-.041-.0616c-.22261-.0029-.54691.5625-.74511.6455-.1543.0655-1.1348.3809-1.1914.2442.0898-.1279.6836-.375.5791-.5938l-.0889-.0293c-.2646.1739-.7812.6651-1.1513.6651-.0625-.2862.6494-.6719.5839-.8936-.333-.0644-.7548.8447-1.0644.9053a.30254.30254,0,0,0-.2598-.0068c-.0488-.2159.7051-.5645.3574-.7969a2.08,2.08,0,0,0-.56149.8105c-.583-.0966-.66311.0547-.07611-.5215-.2012-.2636-.5782.2403-.6651.4327a.55187.55187,0,0,1-.4619-.1426c-.3857.1533-1.0547-.0889-1.502-.0352-.124.0157-.87889.1983-.9218.1104.0234-.1348.7138-.1865.8877-.3242.0654-.0528.1748-.1661.248-.1631.0264.0527.001.0713.0459.1084a.32164.32164,0,0,0,.1279-.0899c.07041.0176.0782.0293.0977.0987.2002-.0059.4521-.2774.6533-.0567.1299-.0908.2041-.0508.3477-.0469.0879-.3056-.4239-.083-.57029-.2001-.335.1669-.48341-.0948-.78231.0156-.0185-.1377-.17969-.3574-.1504-.4668a2.504,2.504,0,0,0,.4913-.4942c.0957-.2558,1.10841.1446,1.2031.3135.0429.0781-.0508.0703.0752.211a2.61638,2.61638,0,0,0,.6064-.0157l.0762.0879c.14451-.1191.46-.0429.5537-.3193-.0771-.1856-.3203.126-.4561.084a3.38808,3.38808,0,0,0,.8165-.5733l.125.0567c.1728-.1006.1279-.25.2675-.3653.1446-.1191.3135-.207.4463-.3359l.0508.0166.0244.0791c.2051-.0283.4512-.3262.6231-.2813.1172-.0332.2236.0127.3017-.0966-.0801-.1231-.1357.0117-.2295-.0381.1192-.1328.3789-.1445.5479-.2813-.0772-.0654-.3945.0957-.5059.0918-.1865-.2041.4492-.2773.6045-.3008.2285-.0341.1152-.0751.1504-.1796.2891-.1661.4736-.1661.6543-.458.0938-.1514.4531-.5957.2168-.712-.0996.0342-.8408,1.5645-1.1191.8516.041-.0391.0849-.0508.1308-.0889-.0273-.1025-.1494-.0791-.1797-.166.0362-.042.0518-.0234.1045-.0381l.01861-.0478c-.05281-.0381-.15141-.0254-.18951-.0947.0791-.0625.1338-.0079.1748-.1456l-.0722-.0693c.0117-.0723.08691-.0586.0654-.1514-.1504-.1591-.2676-.1533-.4766-.1816l-.00389-.0117.11819-.0928c-.0313-.1807-.15719-.0849-.2754-.1035l-.00779-.0303a1.25058,1.25058,0,0,1,.43749-.1709c.0049-.1279-.6152.0908-.7373.043l.08981-.1143c-.11421-.0732-.46871.0469-.60941.0352l-.01459-.0225c.09179-.1035.46879.0694.49709-.1631-.1299-.0332-.2256.045-.3565.0293l.02741-.0742a.6182.6182,0,0,0,.31049-.1162l-.043-.081c-.1191.0195-.4521.1494-.5292.0097.1044-.1006.2695-.0781.38371-.1845l-.01561-.0665c-.164-.0185-.293.1124-.4648.0899-.0342-.1475.292-.291.2636-.4434-.2031-.0742-.6201-.2207-.6767-.4541l.0527-.0127.04981.044c.03809.1992.22759.166.34769.2549l.0967-.0254.0205-.0371-.21489-.1123-.01461-.0538c.0771-.0185.18061.0245.2334-.0371-.1739-.1406-.4453-.248-.4961-.4795.1758-.0419.2168.3448.5498.2471-.0059-.0898-.3877-.4092-.4756-.5078l.0117-.0391c.1387.001.1631.3243.4346.292l.0264-.039c-.084-.1514-.2735-.21-.377-.3994l.0215-.0381c.1406.0439.1787.1816.3496.2295l.02931-.0293c-.07321-.0879-.38971-.3819-.37011-.4805l.042-.0107c.0625.0449.2216.3418.334.2695.0126-.125-.2403-.2227-.2403-.3516a2.007,2.007,0,0,1,.3545.1719l.0557-.0313c.0439-.2031-.3643-.1328-.3262-.4365.085-.0429.2705.1104.3779.1016l.0069-.0449c-.5547-.1661-.1543-.3868-.0713-.6944.3437-1.2851,1.7461-2.3925,2.8554-3.0605.14951-.0899.2247-.2813.31651-.3262a2.95907,2.95907,0,0,0,.89639-.5098c.1534-.2216,1.26661-.5273,1.2969-.7841-.0488.0341-.0635.0498-.1211.0322.0049-.0352.2529-.3008.3086-.2168l-.1465.1318-.0009.0313c.1132.0322.30561-.0733.4287-.1026-.1084-.4482,1.0527-.917,1.33-1.3447.2061-.0576.4004.0625.4258-.25a4.9787,4.9787,0,0,1,.544-.501l.0937.0147c-.0254-.1162.0322-.0986.1192-.0869.0273-.169.61621-.5938.7949-.6446l.04.0284c.1397-.0957.5069-.5567.6426-.4805l.0205-.0508.0361-.0058.0176.038-.0654.1006-.0567.0108a.97856.97856,0,0,1-.31339.4931l-.06841-.0185a2.07356,2.07356,0,0,0-.1953.1719c.0166.0722.0879.2128-.07029.1767,0-.0449-.00391-.1758-.05081-.1943-.03119.04-.0068.0234-.0107.0771l-.06549.0264-.00091.0342c-.0508-.002-.03809-.0176-.0674.0166a.5264.5264,0,0,1,.02731.081c-.07621.044-.20991.1358-.21291.2266.21391-.086.4278-.001.5821-.1416a16.00845,16.00845,0,0,0,1.0175-1.4404c.0264-.0293.4375-.375.2959-.4053-.2129-.0459-.7724.6152-.9541.7383a42.48963,42.48963,0,0,0-4.0781,2.9707c-.8076.6943-1.7676,1.1894-2.6152,1.8252a26.55327,26.55327,0,0,0-2.4395,1.9423,4.0976,4.0976,0,0,0-.59569,1.0079,16.93223,16.93223,0,0,0-.98241,2.1347c-.0625.1865-.0342.4121-.0938.624a7.44187,7.44187,0,0,1-1.498-.8173A1.3664,1.3664,0,0,0,14.18939,9.99248Z"/>
    </g>
  </g>
</svg>
