<svg xmlns="http://www.w3.org/2000/svg" width="49.0484" height="33.34982" viewBox="0 0 49.0484 33.34982">
  <defs>
    <style>
      .cls-1 {
        fill: #f1f0ec;
      }

      .cls-1, .cls-2 {
        fill-rule: evenodd;
      }

      .cls-2 {
        fill: #473a27;
      }
    </style>
  </defs>
  <g id="图层_2" data-name="图层 2">
    <g id="Livello_1" data-name="Livello 1">
      <g>
        <path class="cls-1" d="M37.2432,4.35863l-.1289.1514.0449.10929.0752.00591.0771-.00391.0704-.14549-.1387-.1172Zm-15.707,2.8252.1093-.0029-.1093.0029Zm-7.3047,5.251.0547-.0186-.0547.0186ZM26.1963,29.92112l.0537-.0195-.0537.0195ZM16.6397,15.85963v.0644h-.0303l.0303-.0644Zm3.0801-6.02931-.0879-.001V9.79513l.0879.03519ZM17.043,12.425h-.1162v-.0381l.1162.0381ZM29.7647,29.72292l.0781-.0772-.001.0742-.0771.003ZM38.7657.45723l-.0547.0469L38.6573.45632l.0566-.04889.0518.0498Zm-3.1475,4.3399h.081l-.0009.07419-.0772.00291-.0029-.0771ZM9.7373,10.73653h.0821l-.002.0752-.0762.003-.0039-.0782Zm24.8321,2.0127c-.0625-.0918-.0664-.123.0507-.1387l-.0507.1387Zm-4.3858,3.417c.0156-.082.0196-.08691.1016-.1025.0019.1113-.002.10059-.1016.1025Zm-3.124,14.25389-.0039-.1054h.082l-.001.1015-.0771.0039ZM21.8174,7.16232c.0234-.07909.0322-.07709.1328-.07809l-.001.0732-.1318.00489ZM19.8799,18.23073l-.0215-.1026.0928-.0107.0459.0791-.1172.0342Zm12.5244-4.8721c-.0381.0693-.0107.1064-.1299.1299.002-.1074.0225-.1289.1299-.1299ZM30.6543,29.343l-.001-.0371.1582-.0371.002.0986-.1592-.0244ZM36.0537,5.27753c-.0957-.0703-.0859-.0371-.0566-.1328l.1035-.0088-.0469.1416Zm-1.2832,7.084c-.0947-.0703-.0859-.0371-.0556-.1328l.1025-.0088-.0469.1416ZM30.0586,29.465l-.0254-.0468.1358-.0664.0039.123-.1143-.0098ZM21.3701,18.23363l-.0039-.1064h.1104l-.001.1025-.1055.0039Zm8.7256-9.8135c.0664-.09281.1084-.0976.1992-.0537l-.082.08589-.1172-.03219ZM25.1631,10.34c.0234-.1181.0899-.1005.1914-.05371-.0449.06161-.0166.05961-.1123.05571l-.0791-.002ZM35.3985,5.33132l.04-.127.0967.01171-.0127.1162-.124-.00091ZM15.709,19.23753l-.0029-.1064h.1367l-.001.1025-.1328.0039Zm2.8076-11.8193c-.0312.0566.0303.0898-.1347.07909l-.0821-.003.0596-.07519.0781-.00681.0791.00591Zm-3.1093,9.5234c.0449.09769-.0098.1299-.086.1426l-.0322-.1406.1182-.002ZM34.7569,4.927c.0009-.1055.0293-.1661.1298-.1856.002.1055-.0332.166-.1298.1856Zm-1.376,8.15329c-.0557.09961-.0283.13861-.1856.12991.0196-.1016.0801-.12991.1856-.12991Zm1.5166-5.74809.0039-.124.1318-.0117-.0127.1162-.123.0195ZM27.3545,29.634c-.1064-.0147-.1055-.0479-.0996-.1563l.1172.0049-.0176.1514ZM23.5537,6.00223c-.1054.0332-.0918.04-.1572-.0381l.1045-.084.0732.0537-.0205.0684Zm14.5547-.8135c-.0117-.1289.001-.167.1299-.168l-.0039.09959-.126.06841ZM18.8887,7.38113c.001-.1075.0498-.17681.1553-.0997-.0489.08789.0078.1094-.1553.0997Zm15.9609-1.6416c-.0722-.0957-.0244-.15821.0606-.2168l.042.1113-.1026.1055Zm-7.8877,2.3349.1202.0361-.0342.0782c-.1035.04-.0635.0635-.1533-.001l.0673-.1133Zm7.3926-4.249-.1269.0205.0039-.1514.124.001-.001.1299ZM5.6143,13.3c-.0069-.125.0058-.1631.1357-.1641l-.0107.1446-.125.0195Zm3.8486.2334-.0117-.0303.0801-.1015.1133.0263v.1026l-.1817.0029Zm-.8555-1.7578-.1357.0098c-.0312-.1114-.0205-.0997.0654-.16511l.0889.05861-.0186.0967ZM19.8867,14.465l.0791.0098c-.0009.0879-.0244.1104-.1337.10649l-.0791-.003.0068-.09179.1269-.0215ZM13.166,10.091c-.0615.0928-.1582.2012-.2548.084l.1377-.09571.1171.01171ZM41.0342,2.468l-.0674-.1026.1358-.1015.0732.1172-.1416.0869ZM7.0508,13.10663l.0693-.082.1553.0293c-.0635.1143.0098.0518-.1318.1377l-.0928-.085Zm-2.498,1.4786c.0195-.1094.0839-.1377.1865-.1387.0078.1133.0137.0976-.0762.165l-.1103-.0263Zm23.4707-8.6846c-.0323-.1006-.0205-.0928.0332-.1631l.0966.0156.0118.1563-.1416-.0088Zm-3.251,7.0664a.13436.13436,0,0,1,.2256-.09571l-.1084.12891-.1172-.0332Zm6.1338,16.75979-.1201-.0479.0039-.0684.1748-.0556.0263.1201-.0849.0518ZM28.3399,12.79323c-.0528.0937.0049.07709-.1436.1172l-.0869-.0508.0791-.128.1514.0616ZM8.4199,11.383l-.1709.0127.0069-.1572.164-.0137v.1582ZM36.2354,1.02273a.19143.19143,0,0,1,.2129-.1856c.0078.1504-.0694.1934-.2129.1856Zm-7.3125,6.0527.1074.0088c.002.1142-.0342.1103-.1348.1338l-.1181-.045.0215-.0771.124-.0205ZM5.2295,13.13983l-.1289-.0537c.0176-.1172.0156-.1211.1201-.1533l.0948.0928-.086.1142ZM7.1543,11.715c-.1172-.0175-.122-.0156-.1533-.1201l.1348-.10061.0713.10261-.0528.1181Zm2.3106,4.36429c-.0576-.07519-.083-.02049-.045-.14159l.1416-.0186c.0752.0811.0762.0508.045.1495l-.1416.01069ZM7.6192,14.77853l-.1407-.0254.045-.0976.1211-.0557.0869.06249c-.0576.10061.0254.03611-.1123.11621ZM22.3418,17.007l.0791.002.0049.082c-.04.0352-.0664.0684-.1396.0557l-.0948-.0117-.0224-.0733.1133-.0625.0595.0078Zm-8.4404-1.2734a.24941.24941,0,0,1-.2559-.0469l.1827-.122c.0957.083.1044.0712.0732.1689Zm2.4824-7.44631-.0674-.00779-.0898-.0811.168-.1318.1064.0811-.1172.13959Zm-4.0596,7.68261-.1289.0049-.04-.1113.043-.07721.0595-.02629.0664.02729.0401.07521-.0401.1074Zm5.2237,11.61529-.0459.1142c-.1094.0508-.1367.1035-.2285.0381.0156-.0967.0683-.1113.1582-.1631l.1162.0108ZM33.3067,12.56863a.27959.27959,0,0,1,.2412-.2696.27939.27939,0,0,1-.2412.2696Zm4.457-9.7237c-.0918-.0713-.1152-.1035-.1035-.2207l.1035-.0674c.0488.0606.0566.0567.0566.1436,0,.08789-.0078.083-.0566.1445ZM22.6885,29.09982c.0615-.0176.0137-.0225.0996-.0176l.0772.0039.0664.084-.0645.0752-.1094.0078-.0869-.0517.0176-.1016ZM7.6143,16.22973c-.043-.0567-.0567-.0606-.0528-.1426l.001-.0791.1309-.0029.0644.1103-.0595.1065-.084.0078Zm7.6103,3.0029-.0791.0362-.0771-.06351-.0039-.127.0801-.07029.0791.043.041.0752-.0401.1064ZM26.6944,30.08912c-.1123-.0303-.1914-.0518-.1504-.1787.0547-.0196.0068-.0245.0927-.0186l.0772.0029.0771.1319-.0966.0625ZM32.5469,6.10083l.1094.0068c.001.1289-.1319.1973-.2393.2119l-.039-.124.1689-.0947ZM17.6621,8.00513l.0782-.0069.0791.004.0341.082-.0595.1064-.1299.003-.0684-.1104.0664-.0781Zm4.6182,7.7178c.0566-.042.0654-.05961.1455-.0547l.0762.0039.0664.083-.0635.07619a.5531.5531,0,0,1-.1074.00481l-.0938-.0127-.0234-.1005Zm-13.0801-.9795-.1054.04-.0772-.0684.002-.1445.1513-.0185.0694.0839-.0401.1075Zm13.2041,1.9355-.1416-.0371-.0029-.1299.1357-.0722.0918.0878-.0009.0664-.0821.085ZM1.7237,14.61253l.0703-.0811.0781-.0078.0762.0049.0625.0801-.0342.0781-.1328.043-.1201-.1172Zm19.4697-7.8076c-.0029.125-.0928.1045-.2178.1348l-.1182-.045c.0362-.1133.0127-.06541.1153-.125l.2207.0352Zm10.8301,2.8096c.0019-.1534.1679-.2139.2978-.2159.001.1075-.0654.1348-.1426.211l-.0761.0088-.0791-.0039ZM2.711,13.99343c-.0577.1045-.0577.1543-.2002.1718l-.0655-.1416.1778-.1201.0879.0899ZM16.0674,28.16232a.19247.19247,0,0,1-.1601-.0625l.0019-.1152c.1455-.044.2734.0234.2647.1728l-.1065.0049ZM4.46,13.16332l.0078-.11129.0811-.0059.0791.0029.0605.1367-.0918.1514L4.46,13.16332Zm23.5713,5.042c.0771-.00389.083.01951.1396.05661l-.0459.0938-.0918.0468-.1064-.0039-.0586-.0615.081-.1279.0821-.00391ZM21.502,29.07642l-.1621.0752-.0918-.0909.04-.1123.1035-.038.1133.038-.0029.128ZM17.4844,16.83523l-.1279.0029-.0557-.0606-.0049-.1259.0772-.0674.1113.03809.0371.10741-.0371.1055Zm8.4551-10.1455c-.0821.0029-.0869-.0118-.1416-.0538l.0879-.13961.081-.00489.0772.00589.0664.11031-.0645.0752-.1064.0069Zm6.1074,8.3095c-.082.1973-.1094.252-.334.3067a.36094.36094,0,0,1,.334-.3067ZM12.044,13.52853l.041-.11421.0791-.03519.0918.0488.0547.1211-.044.0782-.1103.0126-.1123-.1113Zm-7.9131,1.0801-.1065-.0332-.0029-.127.1065-.0654.0888.002.084.0547c-.0264.1269-.0351.1367-.1699.1689Zm3.3447-1.1211a.20642.20642,0,0,1,.2832.1475l-.1387.0947-.1093-.0567-.0352-.1855Zm7.2998,3.3564.042-.1103.124-.0371c.041.0596.0772.1035.0655.1719l-.0118.0937-.1552.0137-.0645-.1319Zm2.3858,1.0899-.0645-.0049-.0762-.0625-.0068-.1064.0117-.1211.1211-.01861.0967.22851-.082.085Zm-5.7588-1.9092-.1328.044-.1045-.0987-.0059-.1289.1084-.0381.125.0489.0449.0957-.0351.0771ZM35.4033,3.26783l-.0927.0224.0869-.25291-.002-.16309.1534-.1318.0117.126c0,.0341-.1289.3144-.1573.3994ZM23.6514,15.78732a.22209.22209,0,0,1,.1689-.06349c.086,0,.0821.0069.1416.0537-.0205.0987-.0722.1914-.1982.17l-.0938-.0118-.0185-.14841Zm9.6064-.88959-.1504.05659-.0781-.07229-.0049-.1259.1055-.0967.0635.00389.1055.11131-.0411.1231Zm2.5928-13.3575-.2334.1006a.39232.39232,0,0,1,.375-.3554l-.1416.2548Zm-9.4648,27.961c.0976,0,.042-.0127.1045.0351-.0704.1201-.045.0918-.209.1114l-.085.0586-.1172-.0098v-.168l.1114-.0234.0849.0254c.0713-.0371.0127-.0293.1104-.0293Zm-15.6836-18.251c-.0186-.0615-.0225-.0137-.0176-.0996l.0039-.0762.1855-.1094.1075.1075-.0957.1894c-.0342-.0039-.0547.0059-.0899,0l-.0937-.0117ZM22.1192,6.298a.26617.26617,0,0,1-.2256-.081.58036.58036,0,0,1,.2812-.0859.55812.55812,0,0,1,.2539.0927l-.1963.0801-.0576-.0059Zm8.9795,1.7295h.0839a.32564.32564,0,0,1-.3349.2227c-.0977,0-.042.0127-.1045-.0352a.36725.36725,0,0,1,.3555-.1875Zm-5.2422-.86521c-.1289,0-.1084.03221-.168-.05569h.1397l.165-.0625.0576.0069a.52989.52989,0,0,1,.251.084.35434.35434,0,0,1-.251.083c-.0967,0-.1016-.0323-.1943-.05571ZM8.0235,14.26193l.0673-.1514.1143-.0068.0908.0498.0547.1201-.0439.0782-.086.0527-.1972-.1426Zm22.7959-6.456a.46015.46015,0,0,1,.4951-.1338c-.084.1465-.1787.1455-.3555.1875l-.1396-.0537Zm-13.6133.0332a.356.356,0,0,1-.3604.2187l-.0859-.0498a.29324.29324,0,0,1,.3115-.1758h.0274l.1074.0069ZM31.125,6.61353l.1367-.0733.1944.0694.0381.1054-.0655.0791-.0791.0079a.3864.3864,0,0,1-.2011-.0752l-.0235-.1133Zm-13.7265,9.4804c.0166.1446.0185.2549-.1348.3018l-.0752-.0635-.0068-.1054.0009-.0567.003-.1035.0761-.0684.1368.0957Zm-3.3399,3.7315c-.0771.00389-.0996-.0234-.167-.0576l.0283-.1641.1377-.0586.1241.0108.0166.1005a.206.206,0,0,1-.0625.1602l-.0772.0088ZM24.7647,8.08613l.0644-.082.1065-.0059.1113.001.1045.003.0723.122-.1446.07909-.0595-.00879a1.81407,1.81407,0,0,1-.1914-.03221l-.0635-.07619Zm4.7695,21.44529c-.0957-.0566-.1348-.0595-.1641-.1699v-.0556l.1094-.0567.2227.0811.0029.1426-.0811.0595-.0898-.001ZM23.2071,11.40163c.0361-.1006.1503-.1397.2783-.1397h.1113l.1113.0586c-.0566.1201-.1103.1367-.2509.1367h-.0557a.26911.26911,0,0,1-.1943-.0556Zm10.9033-5.2989c.0039-.1416.1933-.5732.3349-.5849.0616.1191-.0185.1426-.1045.22949-.0185.16211-.0283.33791-.2304.35541Zm-6.124,3.4405-.0928.0468-.2334-.0693.1513-.2617c.1446.0205.1524.0889.2227.1807l-.0478.1035Zm12.1689-7.4903c-.0752.0528-.2832-.0879-.3496-.13861l.0098-.212a.39454.39454,0,0,1,.3398.35061ZM22.4258,16.30983l-.1045-.003-.0566-.0586-.0049-.12591.1338-.07229.0596.0088a.21512.21512,0,0,1,.1669.06349l-.0019.122-.0596.05961-.1054.0068-.0274-.0009Zm1.3106,13.08c-.0821,0-.0625-.0068-.1348-.0332l-.0371-.1523.1396-.0742.0596.0088h.0566l.1319.0625c.0146.1347-.041.1591-.1602.1884Zm8.4501-15.8125a.78041.78041,0,0,1-.5302.44631c.0146-.1621.3623-.4316.5302-.44631ZM25.1817,8.47093a.854.854,0,0,1-.4971.1416l-.0947-.0117-.0225-.1006.0664-.0772.1065-.0068c.1259-.00391.2041.0596.3349.0576l.1065-.0029Zm10.4736,2.4385c-.1094.0342-.127,0-.1807-.0908l.001-.0889.1817-.2871.0986.09369-.1006.37311Zm-7.875-4.08111c-.127,0-.2979-.03119-.335-.16789l.1963-.085.2842.12789-.0068.06841a.14152.14152,0,0,1-.1387.05659ZM9.8946,11.47683l.2607-.0977.1074-.0039.0313.082a.3486.3486,0,0,1-.3369.1983l-.0772-.0381-.0234-.0596.0381-.081Zm19.6142,2.51849.0947.01171c.0079.03029.0245.03129.0186.07429l-.0078.04391-.3281.1465-.1104-.0303.001-.1269a.51828.51828,0,0,1,.332-.11921Zm6.6104-8.31049a.39371.39371,0,0,1,.2431-.3272c.043.0508.0078.4912-.1806.4873a.19413.19413,0,0,1-.0625-.1601ZM17.0801,17.40743c-.1416.044-.1758-.083-.1758-.20511V17.175a1.27726,1.27726,0,0,1,.0342-.2158l.0732-.0674.0987.1367-.0117.0625v.19529l-.0186.12111ZM.9326,15.259c-.123.042-.3095-.1231-.374-.2295l.0059-.1074.0752-.0664c.1035.0322.3242.3115.2929.4033ZM19.0811,27.41232c-.1104-.0068-.1172-.0303-.2246-.0303h-.0283l-.1221-.0107-.0166-.1211.1347-.0723.0596.0088a.4993.4993,0,0,1,.2998.0908c.0098.1075-.0117.0821-.1025.1348ZM9.1787,11.45723a.237.237,0,0,1-.2509-.167v-.0556l.1386-.0899c.1436.0811.2334.0459.252.2569a.14394.14394,0,0,1-.1397.0556Zm14.6133,4.9639a.50928.50928,0,0,1-.1396-.0273l.0019-.1602.0889-.084.1045-.0078.0556.001.168.1113-.0459.0938-.1738.082-.0596-.0088ZM38.9912,5.74043h.0557a.35669.35669,0,0,1,.168.04789c-.0723.126-.2471.17871-.3887.26071l-.1436-.0224c.0127-.1299.1924-.2578.3086-.2862ZM17.7178,7.81273l-.3398.0049c.1318-.2129.5205-.2647.7578-.2559l-.418.251Zm-8.3145,7.8311V15.509l.1338-.0723.2813.083v.14159l-.1328.07131-.0606-.0088-.0635.0127-.1582-.0927Zm2.5899.97549c-.0869-.06539-.1377-.10739-.1377-.22549a.2882.2882,0,0,1,.0908-.2159l.125-.0058.0723.1338-.0088.0595v.084l-.0029.1045-.0762.06839-.0625-.003ZM1.5098,14.85963c-.0674.1426-.0361.209-.2236.25l-.1084-.03131-.0313-.07709.0654-.2647.1329-.0439.165.167Zm10.29,12.21579-.25.0195.0606-.0986.666-.1465.081.0606c-.0605.1269-.249.165-.3896.165Zm21.002-12.68359c.0996-.0918.3428-.3496.4394-.3613.1192.1445-.1972.498-.4384.4912l-.001-.1299ZM26.168,9.12032a2.676,2.676,0,0,1,.3291-.06149h.0283l.1045.0029.0615.0811-.0341.0781a.94586.94586,0,0,1-.3555.0898h-.0557c-.1191-.0293-.0928-.0205-.1416-.1142l.0635-.07621Zm2.0019,5.07811.1221-.081a1.838,1.838,0,0,1,.2695-.0664l.1026.0176.0088.1396-.2412.166-.0664-.0166h-.0557l-.1221-.0097-.0176-.1495Zm-8.9023,5.12989a.69093.69093,0,0,1,.2822-.42769l.1123.0039.0293.1123a.67756.67756,0,0,1-.334.39549l-.0898-.084ZM26.8877,14.135h-.0556l-.0948-.0118c-.0439-.2138.2784-.3125.4317-.3535l.1093.05859c-.0244.169-.2324.26861-.3906.30671Zm-4.0683,1.4248a.51575.51575,0,0,1-.4278-.17l.0674-.0781.2442-.041.0849.0068.1484.00979.0206.17871-.1377.0938Zm5.7695-8.73151c-.1172,0-.3359-.02439-.3828-.10449a.46157.46157,0,0,1,.2431-.0634h.0284a.52956.52956,0,0,1,.167.0283l.248-.0908.1094.04.041.1328-.1162.0654-.0596-.00781Zm-6.8008-.09179a.73876.73876,0,0,1,.502-.1074,1.77194,1.77194,0,0,0,.5605-.09081l.1406.08011a.49079.49079,0,0,1-.3144.0976h-.2236c-.1573,0-.2237.0684-.334.0557l-.3311-.0352Zm7.1797,1.8242a.29445.29445,0,0,1,.2627-.1152h.083l.249-.0908.1416.0908c-.0634.13579-.4521.2315-.5859.2236l-.0762-.0039-.0742-.1045Zm3.8506,1.9581c-.0352-.1104.3906-.6182.4824-.6778l.0947.0166c.0537.1455-.1172.3086-.2461.3594l-.1455.2471c-.125.0537-.0634.0927-.1855.0547ZM24.3692,6.593l.1435-.0811.0606.0098h.3349l.1035.0019.0752.1055-.0732.082-.1055.0069c-.0908.0019-.0459.0039-.1123-.0342l-.1797.0996-.1308.0156-.1162-.206ZM28.96,31.35862l.0381-.0811.0898-.0498c.2617.0108.4121.0811.4795.3418l-.0508.085c-.2226-.0283-.1738-.1865-.5302-.2334l-.0264-.0625ZM24.6768,17.134l.0635.0127h.3066l.1045.0029.0674.084-.0938.1025-.4687.0586c-.0567.0108-.0811-.0107-.1387-.02541l.002-.13179.1572-.1035Zm8.291-8.3262a.98142.98142,0,0,1,.3906-.2226c-.0195.1367-.2177.2597-.3281.36909-.1973.19531-.1182.24411-.4531.24411l.0019-.1328c.1494-.1396.208-.0576.3887-.2578Zm-4.0547,3.5606a1.24984,1.24984,0,0,1,.4287-.1299h.0283l.1045.0029.0625.0801a.42349.42349,0,0,1-.4189.2236h-.083l-.1045-.0029-.0664-.0772.0488-.0966ZM11.2686,17.09a1.68862,1.68862,0,0,1-.3086-.6396l.0478-.12211.126-.02439.0547.0879-.0029.22749c.0468.083.0498.14161.1045.20021a.5679.5679,0,0,1,.124.1602l-.0625.1074-.083.0029Zm3.7099-1.2568.0957-.1738.0752.0068a.74431.74431,0,0,1,.1641.4483.21374.21374,0,0,1-.0908.1884l-.1319.0078-.0156-.1162-.0967-.3613Zm5.6553,4.4863c.1455-.1504.2861-.3789.5371-.3838-.0166.1192-.0439.1309-.1484.18659a1.07041,1.07041,0,0,1-.6914.42971l-.085-.0498c.0449-.167.2481-.168.3877-.1827Zm9.6221-12.9238a.54858.54858,0,0,1,.4248-.2051h.084l.2422-.0322.0634.08789a.54349.54349,0,0,1-.4453.19531h-.0283c-.1084,0-.1143.0244-.2256.0303l-.1152-.0762Zm.7871,1.8027a.71763.71763,0,0,1-.6162.2481l-.3037.2051-.0889-.0547c.0225-.2071.5156-.3701.6748-.3701h.1113l.2227-.0284Zm.0723,1.9688c.1123-.0733.288-.2617.413-.2197.0069.1611-.1416.2255-.2558.3213a.72688.72688,0,0,0-.1904.39549l-.085.038-.0703-.04389a.54342.54342,0,0,1,.1885-.4912Zm-10.8077-3.834a2.09022,2.09022,0,0,0,.5948-.1045c.1601-.06441.3369-.1728.5009-.0088l-.1728.1153a2.81571,2.81571,0,0,0-.4795.0498,3.24325,3.24325,0,0,1-.4199.1152l-.085-.0508.0615-.1162Zm-1.6132.5762c.04-.2129.8867-.3809.998-.32811a1.53721,1.53721,0,0,1-.8642.36231c-.1114,0-.0567.0185-.1338-.0342Zm5.5156,9.042c-.2129-.0518-.2627-.2246-.1035-.3838l.0761-.0078a.53613.53613,0,0,1,.4209.2773c-.0488.0938-.0224.0859-.1416.1143H24.21Zm4.2676-1.0313c-.0323.2197-.628.3701-.7911.3164l.0176-.1611.3496-.165.3125-.045.1114.0547ZM19.0742,19.801c.1329.3642-.0068.3545-.1533.6455l-.0908.04779c-.0703-.04589-.0859-.039-.0859-.14059a2.337,2.337,0,0,1,.1445-.5527l.0771-.0332.1084.0332Zm4.0772-1.7334c-.1084-.0264-.3106-.1201-.3281-.2168a.87311.87311,0,0,1,.3281-.0908c.1103,0,.1426.0556.2783.0556h.083l.1104.0323-.001.1562-.1318.0723-.0606-.0088h-.2783Zm4.6533-10.4561c-.1152-.0713-.1357-.07521-.1357-.2256,0-.0615.0371-.081.081-.1142.1748.0478.2315.1699.4483.1699h.2226a.49789.49789,0,0,1,.2266.05269l-.2803.14161h-.1133l-.0273.001-.2783-.0332-.0293.0049-.1143.0029ZM7.9756,13.82832c.1104-.16109.5723-.24409.7588-.25389l.0869.0537c-.1211.2158-.4082.2198-.6719.36919l-.1523-.01179-.0215-.15721Zm-4.7578.91311-.1475-.2705c.045-.1699.1582-.22561.3057-.3105l.0879.00089.0791.03521.0322.0771c-.0713.1768-.1133.4912-.3574.4678Zm9.3623,12.832-.334.0313h-.0273c-.1172,0-.0987.0283-.1953.0283-.1045,0-.083-.042-.168-.0283l-.2217.0351c.0283-.1123.0088-.0605.1084-.122.2256.0097.2578-.0684.3994-.2129a.66261.66261,0,0,1,.5069.1631l-.0684.1054Zm14.7471.4678-.0215-.1221a.21533.21533,0,0,1,.168-.0634c.1142,0,.1455.0615.2783.0556l.1045-.0029L28,27.79122l.083.0693.0049.1348-.001.0283.001.1143c-.0566.0957-.0312.1055-.1445.1387l-.1035-.1192-.1416-.0761-.3711-.0401ZM35.7696,7.259c.0488-.126.0527-.1963.1816-.208-.0225.11229,0,.1015-.1221.1562a4.0907,4.0907,0,0,1-.3252.6524c-.0781.1699-.1338.5996-.3349.6123l-.0576-.083.1767-.2451a1.41716,1.41716,0,0,1,.4815-.8848ZM20.1944,10.175c.2392-.001.2382-.1123.4463-.1123h.0839l.1211.01859c.0762.20311-.5732.372-.6787.372-.123,0-.1279-.03319-.1699-.11329.0674-.1162.0615-.1328.1973-.165Zm4.6484-2.6924.0654.01469h.6407l.1455.06441-.1123.0801c-.3516-.0166-.502.1436-.7862.1348l-.1045-.003-.0674-.0761.0059-.0606.2129-.1543Zm-11.8154,4.6162c-.0987.2119-.7998.4346-1.0352.4492l-.0849-.05071c.0234-.22459.3359-.23049.5019-.26369a5.8706,5.8706,0,0,1,.6182-.1348Zm20.8232-1.5322a4.173,4.173,0,0,1,.4346-.5244c.1582-.16991.2138-.4766.4394-.4805,0,.22559-.0615.25-.1601.4248-.3604.2061-.2969.4629-.6406.6602l-.0733-.0801Zm-9.3613,3.9033h-.167c.0439-.167.4902-.3681.666-.5058l.1641.0058.0644.11039a.93541.93541,0,0,1-.7275.38961ZM15.002,27.58132l.0029-.0635.1621-.1446.1192.0088a1.54389,1.54389,0,0,1,.6347.1739l.0078.0761-.1084.0645-.0595-.0078h-.3907l-.3027-.0332-.0654-.0742Zm3.0654-6.25689a.52949.52949,0,0,1-.1894-.3525l.0869-.14161c.2646-.02639.7275.08011.623.42671-.1709.0518-.1933-.0654-.3174-.1523h-.0556c-.127.0879-.0762.1172-.1475.2197ZM4.711,14.217a1.47359,1.47359,0,0,1,.5634-.333h.1397l.0322.084-.0381.1074c-.1181.041-.125.1035-.1406.2197l-.083.084c-.1914.0195-.1836-.0771-.4023.0303L4.711,14.217ZM18.7227,8.718a2.241,2.241,0,0,1,1.0537-.3555l.0869-.0029.1016.0586c-.0703.1855-.8614.334-1.1084.334-.1123,0-.0567.0185-.1338-.0342Zm10.4521-1.0811h-.084a.46789.46789,0,0,1-.3925-.14261.98763.98763,0,0,1,.3925-.08h.2227l.1152.00091c.25-.1523.2637-.0507.502-.0605l.1142.1182-.0859.0556-.1152-.0039-.1114.001c-.2158,0-.3261.1113-.5576.1113ZM28.6446,31.091c-.1397-.0039-.128-.0039-.2002-.1045l-.1065-.0088a.21836.21836,0,0,0-.2275.1133c.0791.1026.123.0996.1084.2442l-.1045.0673c-.083-.0546-.167-.0966-.167-.2285,0-.1054.0576-.1435.084-.251v-.1396l.0029-.1035.1094-.0694c.1787.0987.4971.25.501.4805ZM11.5899,10.58223c.2099-.1054.9482-.4648,1.1308-.37891l-.0771.11721a8.13691,8.13691,0,0,1-.9873.4697l-.1065-.0595.0401-.1485Zm6.1465.7442c.0322-.1133.0126-.0616.1123-.12311l.6435-.08789.169.00689.1318.00291.0898.1025-.0332.086-.2138.1191c-.1641-.0068-.2334-.0586-.3936-.0586h-.3066l-.1153.001-.0839-.0488Zm6.4179-1.9883.417-.0635.0293.0078.1152-.0019.0801.0605c-.0713.15429-.3086.1924-.4736.1924H24.294l-.417.0635-.1123-.0078-.1328-.002L23.5635,9.51l.0518-.09771.0908-.04779.2812-.0313.167.0049Zm14.6192-7.4805a1.11559,1.11559,0,0,0-.5635.0899c-.1797.09079-.1992.25779-.3428.2363-.1162-.3438.293-.4209.4863-.4834.3457-.1094.4473-.0088.7393.1455.0146.0938.0273.0801-.0566.1533l-.2627-.1416ZM19.503,22.99732c-.2989-.31449-.5528-.58209-.8653-.89259l-.0049-.1611c.2354.0566.9981.7812,1.0039,1.0595l-.1337-.00581ZM11.9903,10.93383l.0957.0986a.93931.93931,0,0,0,.457-.1152c.1807-.0713.3144-.08791.4668-.1475l.0459-.0986-.0811-.0801-.0869.002c-.247.0078-.8291.0634-.8974.3408Zm.4765,6.5517c-.2959-.0966-.8252-.29-.7051-.6845l.0938-.0225c.1445.1035.1816.1992.373.2744.212.083.2491.044.3545.2657l-.1162.1669Zm2.5625-8.90721c.0684-.04489.793-.32709.8985-.35939l.082.0606a1.6179,1.6179,0,0,1-.3604.3057,3.01459,3.01459,0,0,0-1.3095.4199l-.1416-.0029c.0713-.2627.5761-.25691.831-.42391Zm2.7393.67681c-.1533.0781-.4141.2793-.5742.1846-.0332-.1719.3916-.3477.5507-.376.2481-.044.5235-.23641.7188-.0811l-.001.1494c-.2392.2227-.3896-.0332-.6943.1231Zm-2.0957.2734c-.1865.0371-.5547.1944-.7217.2002l-.0859.002-.0762-.0371-.0322-.0752a.36482.36482,0,0,1,.3066-.2803c.1914-.0215.293-.0791.4766-.0869l.1455.07709.0508.11921-.0635.081Zm18.6054,1.42679c-.1513-.07129-.2919.15431-.3828.25881-.1328.1513-.208.1318-.3545.3427a1.183,1.183,0,0,1-.33.3672c-.1133.1016-.3467.2676-.2334.4199.1142.002.5595-.5224.6797-.6425a7.83085,7.83085,0,0,0,.621-.74611Zm-18.2695.748a3.24071,3.24071,0,0,1-1.2558.39941l-.0889-.0507-.0488-.0899.0341-.1123.1329-.0576.4482-.0283.1113.0009c.294,0,.2393-.0957.4463-.1376.1621.0322.3545-.0225.3897.1142l-.169-.03811Zm7.6436,7.14461a1.27638,1.27638,0,0,1-.9219.333,4.21736,4.21736,0,0,1-.9463.3642l.0029-.13281a1.71913,1.71913,0,0,1,.6846-.26759,2.36721,2.36721,0,0,0,.6768-.2715l.5039-.0253Zm-1.5371-1.1963a1.991,1.991,0,0,1-.3868-.36531c.1416-.06639.3457.02051.4971.05961a.9465.9465,0,0,0,.4785.0518h.0567l.1142-.002.1602.0869.0049.0821-.1338.1191-.1455-.0078-.1963.001-.4492-.0254Zm-10.2071-4.7705.0235.0918.3466.10439c.2627-.14939.6368-.22849.8575-.36709l.1513.0117.1153-.1045-.0928-.1035a1.28686,1.28686,0,0,0-.6973.2021,1.07553,1.07553,0,0,0-.7041.1651Zm13.5596-.085-.0615-.083c.0195-.1602.1445-.2031.2842-.2471l.1142.0635-.0908.1719c.1543.1054.2559-.03911.3955.0976-.0254.1895-.1719.208-.3027.3106-.1787.1426-.2071.1738-.4346.0859l-.0518-.11521.1455-.20019.002-.084Zm-16.123.94819a.57823.57823,0,0,0,.3613-.11519l.1142.0049.0557-.001.4785-.0508.0801.0498-.0059.0752a3.65852,3.65852,0,0,1-1.0859.375l-.1602-.0888-.0058-.1123.0371-.0762.1309-.06061Zm19.7626.85261c-.1669.0869-.4892.0478-.5224.375l.0674.0732c.2138.0401.4892-.1582.7275-.2304.1553-.31841.4512-.3135.4297-.5069l-.1592-.06251c-.0937.05961-.1543.16211-.2344.21491-.0488.0322-.2236.0927-.3086.1367Zm-.9404-2.4453c.042.13469.2422.1718.3662.1963a1.31545,1.31545,0,0,0,.7237-.47861l.0009-.10449h-.1113a1.81818,1.81818,0,0,0-.9795.3868Zm-1.5586-.751c.2237-.0029.4434-.1201.625-.0654l.0166.0947a1.973,1.973,0,0,1-.3789.3457c-.2558.1699-.2637.125-.5361.09469l-.0654-.07519c.0244-.1855.1357-.3916.3388-.3945Zm-11.7646,18.043c-.2393.0625-.4199.0957-.5635-.1123a1.619,1.619,0,0,1,.3818-.1202c.1729-.041.2354-.1035.3448-.1259a1.02059,1.02059,0,0,1,.4726.5273l-.043.1172-.125-.0039-.4677-.2822ZM8.6114,12.883c.1826-.2266.5234-.2012.7724-.2998.1553-.0615.6211-.2998.7891-.2422l.0117.1406c-.1826.1661-.2334.1045-.4316.1641-.1661.0479-.1456.165-.3213.2637l-.2266-.0264-.499.0879-.0947-.0879Zm14.6513-2.9316c-.1523,0-.2539-.0137-.3349-.1397l.0029-.0771.3047-.1221a4.505,4.505,0,0,0,.9746.1992h.0283l.2881.0371.0195.0967-.1094.0645-.1425-.003h-.418l-.585-.0615-.0283.0059Zm-5.1885-.2237a3.60975,3.60975,0,0,0,.4229-.0517,1.37452,1.37452,0,0,0,.2305-.0196c.0605-.0185.1162-.0507.1787-.0703l.0332-.08981-.083-.07519c-.2334.001-.208-.0586-.458.0176a1.88543,1.88543,0,0,1-.4336.0957c-.1787.00389-.7559.1006-.8174.2832l.0879.05369c.2724-.01759.5303-.126.8388-.14359Zm2.712-1.0195c.1093-.21391.3134-.208.5195-.1504a4.41,4.41,0,0,1,1.707-.3076l-.0049.1328-.0586.0557-.1884.0078-.253-.0235c-.1269.03329-1.4287.3096-1.5039.3018l-.2177-.0166Zm-5.5254,3.6182c.0517.2597.4951.1836.667.08.082-.0488.5566-.3232.583-.3476l-.0059-.1094c-.082-.0234-.5332.084-.6904.0928-.1406.0068-.503.1514-.5537.2842Zm-1.9297,5.3222c-.2041-.0185-.3936-.3496-.4805-.5205a1.26766,1.26766,0,0,1,.0723-.8105l.1445.001c.0449.1738.0254.50969.0869.7285.0596.2099.2451.3125.2627.5146l-.0859.0869Zm9.1494-9.789h-.5566c-.2383,0-1.2334.1494-1.1241.4648l.1485.00689.2461-.11139c.2724.0703.3603-.0595.6279-.1269.206-.0508.5557-.0176.6865-.1563v-.0771Zm-7.4492,3.2041a1.04917,1.04917,0,0,1,.4502-.0801h.1396l.2217.0029.0596.09079-.1114.07621-.1699-.0029h-.1679c-.2813,0-.1866.0322-.3926.1094a3.067,3.067,0,0,1-.4444.0566c-.2197.041-.5273.1592-.7519.2285l-.0889-.0517a.344.344,0,0,1,.3115-.2588c.3243-.0352.1563.0273.4698-.0889.1279-.0478.2715-.0137.4746-.082Zm6.8086.05859.0029.16211.0791.0351c.3496-.0078.6123-.1611.9785-.1679.1778-.0039.2764-.1094.4727-.11331a.47689.47689,0,0,0,.4189-.166l-.1113-.08789c-.2598.082-.6309.1045-.916.1758-.3184.08-.5908.081-.9248.16209Zm4.3515,5.64061c.2207-.208.3575-.1582.6231-.2471a2.08036,2.08036,0,0,1,.6621-.209l.081.0577c-.0283.2207-.9306.583-1.1435.5869l-.1152.00189-.1036-.06049-.0039-.1299Zm-6.6972,1.8603.1152.001.0557.002.1377-.00491.0654-.10249-.0693-.084a.8598.8598,0,0,0-.6915.1142l-.3408-.0693-.0849.0937.0498.1202c.1152.0459.124.0771.1787.1806l.0195.3184c.2656.082.3037-.4112.5645-.5694Zm6.5-2.79191-.2784.03321-.0283-.004-.3086.0284c-.1748.10839-.3955.1308-.4424.3379l.0284.082a.86734.86734,0,0,0,.7246-.082c.1787-.0967.5019-.1758.5293-.3907l-.2246-.00481ZM20.333,9.05293c-.1318.0469-.1338.0508-.205.1846l.1543.1299c.1806-.0518.2929-.1338.4863-.1797.2431-.0596.3301.0557.5928-.0215.124-.0351.1015-.0781.2539-.0801a.928.928,0,0,0,.3037-.0322c.1875-.0469.4131-.0117.5078-.168l.0039-.05461-.1143-.10649c-.1552.001-.7168.2471-.9502.252-.455.0087-.542.249-1.0332.0761Zm6.3877,5.4727a.51333.51333,0,0,0,.3311-.0869l.1709.0029c-.0088.2861-.8242.4883-1.0293.6162l-.1426-.0039-.0273.001-.1436.0019-.085-.0781c.0489-.1826.2422-.1865.3575-.3242.0927-.1104.3437-.1289.5127-.1289Zm-.8623-.0557.1631.084.1426-.001-.0059-.1367-.3564-.2002c-.3682.0108-.3516.1406-.6113.2295a2.26082,2.26082,0,0,1-.334.084,1.00946,1.00946,0,0,0-.294.124l-.0488.09279.0107.10641.0538.0577c.3017.0253.3515-.1036.58-.2178.2422-.1211.4346-.125.6123-.2246l.0879.0019Zm-4.1142,3.9942.1572.2109c-.0713.11429-.3145.3955-.2988.5147.1494.0527.3115-.2256.6162-.2969a2.94119,2.94119,0,0,0,.7929-.1914l-.0185-.12311-.1494-.00969h-.083c-.1504,0-.2618.0586-.3907.0576l-.1337-.0078c-.1348-.1377-.2149-.2403-.4229-.2432l-.0693.0889Zm4.2812-7.8135c.2461-.1397.5606-.0908.8037-.1729a2.33757,2.33757,0,0,1,.7559-.19141l.1689-.00189.1123.1357a2.65324,2.65324,0,0,1-1.1181.3125h-.3897a4.94873,4.94873,0,0,1-.5302-.02831c.0615-.08789.0791-.05759.1972-.05369Zm-5.3574,8.4209c-.042-.36921-.4756-.2149-.6895-.0664l-.0097.2588c-.0781.1425-.4961.5429-.4561.706.2383.0899.3516-.2949.5537-.4414.1026-.07521.1973-.20121.2774-.2529.1494-.0977.2324-.0068.3242-.2041Zm.6943-.4463c.1553.0664.1436.2988.0967.4277-.0576.1592-.1562.1475-.2891.2403-.1679.11909-.5322.4023-.7294.3105-.0372-.1689.3437-.3838.4296-.498.1358-.1797.1954-.4522.4922-.4805Zm8.4639-6.0703c-.125.043-.3311.4023-.2588.5449.2041.10449,1.3037-.5293,1.2061-.8184-.1202-.0166-.1045.0704-.21.1465a3.00793,3.00793,0,0,0-.7373.127Zm-1.2412-1.1572c.2627-.0528.4658-.209.6767-.2217l.0811.0791-.0459.1025-1.3516.59869-.0791-.03129a.65143.65143,0,0,1-.0586-.2441l.0088-.2041c.1534-.0547.2295.0351.4063.0048.1084-.0185.2373-.0595.3623-.0839Zm-12.1328-.4473-.0801.08689c.0371.124.083.10741.2021.18951l.3565-.126.2519.02149h.2793c.1856,0,.7793-.08689.8663-.22949l-.1133-.1328c-.2803.0009-.4121.1045-.667.0361l-.5625.1025-.1631.0869-.3701-.0351Zm4.875-1.54c.1172-.0284.1718-.0079.2949-.04011a7.00619,7.00619,0,0,1,1.1318-.22069l.0645.09569a11.461,11.461,0,0,1-1.8428.51661l-.251-.0957-.166.0703-.1113-.04-.002-.1348c.2061-.0498.4483-.0312.625-.0732.0996-.0235.1573-.0537.2569-.0781Zm-5.1016-.70711c-.4443-.05859-.4766.09571-.8437.20021a3.463,3.463,0,0,0-.8487.2393c-.2519.1484-.4961.1142-.8174.27049-.1562.07521-.6718.22261-.7168.37111a15.186,15.186,0,0,0,1.6465-.4737c.291-.0341.1465.0518.4112-.1181a3.62291,3.62291,0,0,1,.3769-.1807,4.045,4.045,0,0,1,.4102-.1484c.1611-.0108.3379-.0137.3818-.16021ZM13.5469,23.12423c-.1299-.4267-.2969-.87691-.4072-1.29291a1.91069,1.91069,0,0,1-.168-.669,2.68451,2.68451,0,0,1-.04-.76459l.1142-.0137c.1621.1474.0957.4502.1377.6494.0469.2188.0947.42089.1397.6416a2.68054,2.68054,0,0,0,.1533.6279c.1123.2979.1641.2198.1641.5889v.2783l-.0938-.0459ZM11.335,10.21213c-.3145.15919-.3975.0567-.6436.3037-.2002.2031-.3506.0381-.5849.4053l.0468.0937c.0508-.0039,1.2559-.5439,1.334-.5947.2012-.13081.3965-.2549.6104-.3662.1084-.0557.209-.1035.3164-.1582.1318-.06741.2617-.0937.2783-.2227a5.24475,5.24475,0,0,0-1.3574.5391Zm.2715,1.8594c-.2491.1152-.4776.0879-.6992.2217-.2471.1494-.4981.0927-.6153.3379l.0654.07319a4.7904,4.7904,0,0,0,1.4053-.41989c.2354-.1436.4092-.1328.6348-.2852a.8599.8599,0,0,1,.2773-.16891c.1651-.041.251.001.3242-.14939a3.92313,3.92313,0,0,0-1.3925.3906Zm14.6738.1601.1855.18069.004.07721c.0048.08-.044.121-.0889.1953a.43185.43185,0,0,0,.4228.2509h.1397a.6941.6941,0,0,0,.5351-.3046l-.0263-.09281c-.1045-.03419-.3076.09081-.4532.09081h-.1396l-.0596.0068-.1181-.0703.0732-.0967c.2734-.039.5283-.164.4883-.5019l-.0772-.0732-.5293.205h-.0556c-.1084,0-.1143-.0244-.2246-.0273l-.083.0273.0068.1328Zm-7.7305-2.0078c-.0683-.0781-.081-.0488-.1963-.0488h-.2226l-.6133.0879-.1152-.0029-.0889-.0811c.2139-.29.4951-.1631.7598-.3125a1.78666,1.78666,0,0,0,.5771-.0098.56583.56583,0,0,1,.5127.0948l-.0019.1347a2.0955,2.0955,0,0,0-.4805.1924l-.0889.2412-.123.0518-.3672-.0703-.1094-.04891a.83487.83487,0,0,1,.5576-.22849Zm10.9854-2.2793c.2568-.0224.5674-.0879.8388-.0849-.0048.2998-.5781.2802-.8085.2793-.3155-.002-.6817.0556-1.004.0556h-.0566c-.0947,0-.3564-.0293-.4072-.0185a1.31782,1.31782,0,0,1-.4014.0469H27.585a.56447.56447,0,0,1-.418-.084l.1065-.1172a2.90821,2.90821,0,0,0,.8144-.10841l.4717.07221.1133-.0146a4.19946,4.19946,0,0,0,.4453-.0273c.206-.0235.2959.01169.417.0009Zm-3.5176,10.2754-.1016.0098c-.2959-.4053-.6025.0361-.9345.1064a7.39452,7.39452,0,0,1-1.2451.0371v-.1386l.9453-.15731.0859.01761a2.512,2.512,0,0,0,.5303-.084c.1758-.0263.1758-.1748.3515-.2334.711-.24121.4278.0606.8243.2452l-.4561.1972Zm-5.3525-2.1015.08-.0909.3975.0186v.1807c0,.1377.041.2148.0283.3339l-.0371.3663c.1358.206.126.4404.2813.5888l.0058.1543-.1601.125-.3535-.0957-.0538-.1553.21-.1943c-.1299-.2139-.2949-.0967-.3887-.4258l.0596-.1924-.1338-.2207.1348-.206-.0703-.1865Zm-.1582-3.8194c.2236-.05471.3281-.1992.498-.1982l.0869.0547-.039.1054c-.1133.042-.2159.0401-.1709.1817.1377.041.2441-.0928.4287-.0928h.1943l.1152.043a1.09233,1.09233,0,0,1-.4814.2871c-.2666.0908-.2871.1709-.5322-.0449-.1211-.1055-.4463-.001-.6035.0254a4.49538,4.49538,0,0,1-.6729.08h-.251l-.3076-.0175c.0391-.1749.3779-.2051.5303-.2061.2724-.001.3525-.0674.6152-.082a5.19212,5.19212,0,0,0,.5899-.1358ZM38.7344.72683c-.2158-.0987-.2549.0498-.4443-.0323a.85437.85437,0,0,0-.4698-.0576H37.792a1.92381,1.92381,0,0,0-1.499.6475,3.68519,3.68519,0,0,0-.7324,1.416c.2226-.0742.7715-1.2217,1.1426-1.4785a1.43826,1.43826,0,0,1,.9199-.39061c.1054-.001.5468-.02149.6318-.03719.3389-.0664.2227.1748.4941.07519L38.7344.72683ZM10.6573,14.55393a6.06143,6.06143,0,0,0,.746-.1182,2.1437,2.1437,0,0,1,.7032-.1337h.1396l.291.0058.0723.10549c-.0195.15231-.041.14651-.1689.22171-.1153.0039-.2823-.0098-.3887.0019a2.40273,2.40273,0,0,1-.334.0557c-.1514.001-.6172.01369-.7441.0381-.1504.0302-.5479.0879-.6563.124a1.95911,1.95911,0,0,0-.4697.2832c-.1123.0029-.2666.0293-.3545-.0342.0244-.1182.168-.1162.2822-.14941.1709-.04979.1201-.083.2188-.19919a1.40472,1.40472,0,0,1,.6631-.2012Zm14.7783-3.1934-.5.0723a3.36526,3.36526,0,0,0-.9991.086,1.70779,1.70779,0,0,1-.5068.0781.56307.56307,0,0,0-.4629.1269l-.0215.125.1241.1651c.4882-.0977,1.0625-.3008,1.5586-.3623a3.23837,3.23837,0,0,1,.4199-.0557c.1728.002.2558.0645.4472.0576.1563-.0049.6778-.1094.6495-.289l-.4844.0097-.2246-.0137Zm-13.3037,2.6856.0664-.084-.0137-.0723c-.1397-.10351-.4873-.0712-.6856-.123-.2792-.0723-.3847.0654-.6484.1152-.1055.0196-.2207.0664-.3086.0821-.1504.0263-.2041-.0284-.3769.042-.1758.0703-.4317.1211-.4912.3261l.0605.0869.4482-.0615h.168c.4072,0,.834-.251,1.3106-.251l.0302.01569.4405-.07619ZM24.9082,10.342c-.0644.0391-.2168.1084-.3154.1592-.1826.0937-.1992-.0215-.3994.0195-.2686.0537-.5459.0693-.8194.10059a6.28224,6.28224,0,0,1-1.5146.23141l-.0449-.10741a2.5401,2.5401,0,0,1,1.1113-.40429,1.79289,1.79289,0,0,0,.376-.0146,1.02539,1.02539,0,0,1,.29-.0664c.085.0156.1875.0937.3106.083a2.59108,2.59108,0,0,1,.3359-.0293h.167l.5029.0283Zm3.9932.3398c-.1611.0479-.2803-.0019-.4356.0391-.1689.0439-.625.1396-.5322.3828.0977.2568,1.2354-.166,1.4473-.249a5.61032,5.61032,0,0,0,1.3281-.56841l-.0273-.11419a9.53383,9.53383,0,0,0-1.4121.4043c-.1485.0332-.2305.0644-.3682.1054Zm-1.208,2.8096.0098.1065.0566.0595.0762.00389c.1396.00781.0654-.082.1884.00691-.0127.07909-.1689.1914-.25.32609l.0332.11231c.4668,0,.5821-.2119.9424-.2568a1.33964,1.33964,0,0,0,.1065-.14451,1.17986,1.17986,0,0,1,.1513-.13479l-.0214-.1396c-.0625-.0293.0058-.0215-.0909-.0215-.084,0-.3593.1396-.4746.16789h-.1386c.0039-.14939.0585-.13669.206-.18549a1.3953,1.3953,0,0,0,.2686-.1211c.1054-.0625.4326-.2578.3662-.3672l-.1192-.0273c-.4316.2724-.9941.1064-1.3105.6152Zm-13.4776-2.9648a6.42447,6.42447,0,0,0-1.2568.4912l.0762.1308.2715.002h.0556a.91535.91535,0,0,0,.6485-.1885,1.57823,1.57823,0,0,1,.667-.1689,3.45226,3.45226,0,0,0,1.2148-.4825c.0088-.0976.0225-.083-.0557-.1562l-.2861.0059c-.2539.2558-.1982.1953-.5771.2597a7.4025,7.4025,0,0,0-.7579.1065ZM27.0176,13.26c-.249.0839-.3545.3134-.5723.2382l.0293-.1445-.0693-.0742a3.16792,3.16792,0,0,0-.6387.1523c-.2109.0362-.4931.0147-.5527.2569a.43424.43424,0,0,0,.4482.1679c.4356-.02931.1426-.0097.4493.1094.5351-.126,1.2685-.3974,1.4404-.9668l-.0606-.0586c-.1787.0313-.3213.2686-.4736.3194Zm.3535-7.418c.0313.1221-.0586.1797-.1767.1797-.1143,0-.1621-.0869-.2491-.1328a4.51441,4.51441,0,0,1-1.04.165c-.2871-.0781-.2275.0606-.4971.0508-.2246-.0078-.2568-.1201-.4463-.1709l-.3837.14449c-.2413-.10839-.4112.01861-.6094-.124-.001-.11229.1054-.167.2109-.21579.166-.07521.1914.0137.3125.084.1758.0009.1533-.0967.3438-.0381.2578.0791.165,0,.3496.0088.2343.0117.0693.0586.3105-.0498a1.17034,1.17034,0,0,1,.3516-.03911c.2617-.23539.1836-.28709.5195-.02929.209.0361.2793-.0273.501.085.1455.0722.373.038.5029.082ZM19.7403,16.49732c-.0196.15721.1279.15721.1093.27831-.0146.1006-.2002.13569-.0996.2812.0547.0791.1524.084.2285.2237.0948.17279-.0224.1943.0069.3271.0263.1231.1455.124.1748.2705.0517.252-.0049.11819.168.2783a.668.668,0,0,0,.6318.2295c.3457-.1025.1357-.3457-.0684-.457-.3349-.18361-.2265-.2051-.4179-.47561-.1182-.165-.419-1.167-.7334-.956Zm-3.6241-3.26079c-.0009.001-.7822.2393-.8359.251-.6025.1299-.3594-.2871-.7637-.208-.2968.0586-.3095-.041-.4853-.0391-.1963.001-.2139.0655-.4688-.0009-.2754-.0723-.6718.2119-.8418-.0528.1328-.19141.5742-.1699.8203-.2392a1.615,1.615,0,0,1,.4014-.1211c.1221.0136.2158.122.3506.1543a2.29943,2.29943,0,0,0,.4639.0664c.2129-.003.2304.07519.4463.083a1.22958,1.22958,0,0,0,.4707-.001.84458.84458,0,0,1,.4492.002l-.0069.1054Zm-.4316,15.76079.1748.0146c.3203.6748.3105-.1914.8613.6445.1866.2842.2637.1397.3545.4532a.45391.45391,0,0,0,.5098.292c.2461-.4219-.4512-.6084-.543-.7325-.1904-.2519.0166-.1689-.3164-.3808-.0781-.0498-.0879-.1299-.1474-.1875-.0704-.0694-.1514-.0381-.2579-.1084l-.0097-.2363c-.1494-.1612-.2315-.0606-.4073-.0957-.1025-.0196-.2119-.1338-.3115-.1954l-.1767.0205a.81236.81236,0,0,0-.045.6221c.1631.0811.2032,0,.3145-.1103ZM6.9483,14.02363a.92523.92523,0,0,1-.9883.51369l-.0508-.06739a1.83924,1.83924,0,0,1,.1523-.1885c.0499-.0654.0547-.1396.1084-.2275l-.0058-.1641-.2168-.1464-.0059-.1143.1026-.1455.1181.01169c.0342.09861.0332.18461.1162.25391l.1192-.1377.043-.3144c-.0811-.3867.0146-.3086.0019-.6162l.0498-.0889.0899-.0498c.4404.0683.2255.5976.2255.8955a.50866.50866,0,0,0,.1416.4453l-.0009.1406Zm23.1377-3.1894a1.31977,1.31977,0,0,0-.5391.9492c.2627.2568.5264-.252.6611.04389l-.1992.21881.0059.1055.1054.0615c.1436-.0391.1954-.1162.3262-.1533.1611-.0459.2149,0,.3194-.1563l-.0049-.1113-.1358-.0557c-.1201.0283-.1924.0987-.3086.0166l.0479-.1103a1.85325,1.85325,0,0,0,.4609-.4346l-.0263-.1025-.1495-.0137a1.00167,1.00167,0,0,1-.5127.2139l-.2617.1816-.1162-.002.0078-.1328c.128-.0966.2657-.0625.4024-.1562.1113-.07621.2842-.1553.3652-.2197.1826-.14651.5762-.3194.5928-.5791-.419-.002-.6875.26659-1.041.4365Zm-10.6817.168c-.1787.0527-.3672-.0655-.3818.3164.2217.333.9814.1709,1.3164.1152a2.47128,2.47128,0,0,0,.6182-.2178c.2314-.0976.4062-.0576.5488-.289l-.001-.1114c-.3193-.0761-.7285.1846-1.0488.2901a1.7067,1.7067,0,0,1-.541.1562c-.0596.0039-.5235.0967-.5928.1231l-.0801-.127.0654-.0742a3.39451,3.39451,0,0,0,.542-.0713c.1397-.0488.3389-.0928.4844-.1289.2354-.0586.6953-.2227.8086-.44631l-.251-.11719c-.247.085-.7558.3828-.9511.4209-.1309.0254-.1475-.0332-.295.0401-.0517.0253-.1982.1084-.2412.1211Zm1.458-3.3418c-.1484.0166-.2724.0498-.416.0605a5.07564,5.07564,0,0,0-.6797.2129c-.1562.0332-.2343-.0274-.3926.0547a1.2852,1.2852,0,0,1-.3554.1181,4.95692,4.95692,0,0,0-1.3545.4883l-.0078.1299c.1338.0947.5058-.084.6621-.14751.2471-.10049.4336-.15619.6806-.23919.4727-.1602.9561-.2725,1.4366-.4043.2529-.0693.4697-.126.7197-.2002a3.43883,3.43883,0,0,1,.7979-.0674,3.469,3.469,0,0,0,.3984-.04691,1.40883,1.40883,0,0,1,.4082-.00679,2.06543,2.06543,0,0,0,.7812-.1709,1.36952,1.36952,0,0,0-.7822-.11331,5.335,5.335,0,0,0-.8017.11921c-.2061.0322-.5157.1709-.7178.206-.1113.0195-.2373-.0097-.377.0069Zm6.0264,1.0087c-.1309.0069-.2568-.0312-.3545-.0224a4.501,4.501,0,0,0-.7012.0869c-.0664.0146-.5937.01369-.705.0156a2.52133,2.52133,0,0,0-.6856.0957,9.33569,9.33569,0,0,1-1.3516.1582l-.0234.1123a13.20988,13.20988,0,0,0,2.8926-.1465,7.45587,7.45587,0,0,1,1.4043-.1865,1.88733,1.88733,0,0,0,.6377-.1435c.1992-.0782.498.1435.5595-.1934a5.57981,5.57981,0,0,0-1.3632.1436c-.1377.0234-.1504.07219-.3096.08Zm-11.3281,4.9317a7.23414,7.23414,0,0,1-1.169.1416c-.373.0488-.8935-.0176-1.2666.0107l-.0703.07519c.1358.18951.5664.167.7813.167h.0839a10.48048,10.48048,0,0,0,2.1221-.10839,9.05927,9.05927,0,0,0,1.7217-.5644l.0098-.1358a2.52819,2.52819,0,0,0-1.1153.1455c-.1865.0616-.3281.041-.5439.126-.1817.0703-.3711.0889-.5537.1426Zm17.2558-1.959a3.02669,3.02669,0,0,0-.4834.3809c-.1162.1191-.3398.2275-.5039.3603a2.00782,2.00782,0,0,0-.456.3809,1.613,1.613,0,0,1-.4522.4121c-.251.1455-.9814.4414-.8818.791.249.1855.9355-.3369,1.1523-.4932a3.82942,3.82942,0,0,0,.4571-.43451c.0771-.07909.1709-.12989.2392-.20709.0762-.08691.1035-.164.1934-.25291a4.29106,4.29106,0,0,1,.4844-.38089,4.09452,4.09452,0,0,0,.4228-.4687c.1963-.23341.8848-.6201.7598-.9697l-.1006.0117-.4024.43359a3.48089,3.48089,0,0,1-.4287.43651Zm-1.2158-3.1123a2.118,2.118,0,0,0-.7363.2402,2.39025,2.39025,0,0,1-.3867.086c-.1768.0332-.2344.1103-.3662.1367-.2295.04489-.6846.0664-.8643.1113a.85163.85163,0,0,0-.3604.1465c-.1474.1152-.247-.0371-.3593.08109-.0684.07221-.0596.21971-.167.30851a1.20123,1.20123,0,0,1-.4082.0928c-.1631.0322-.2852.01369-.4405.0332-.2314.0303-.207.0781-.3691.1348a2.71779,2.71779,0,0,1-.7568.21869c-.1944.00491-.7051.03421-.7852.22561l.0752.0938a4.48441,4.48441,0,0,0,1.6123-.2813,2.59137,2.59137,0,0,1,.7725-.1767c.1123-.0069.3574.0048.4131-.0059a1.66777,1.66777,0,0,1,.4209-.081l.1455-.0547-.0166-.0987c-.1621-.04-.3018.044-.4258-.07711-.0274-.15629.0849-.23149.2178-.294a7.03272,7.03272,0,0,0,1.5371-.248c.2783-.04589.4423-.18459.6875-.23239.2334-.0469.4873-.0957.5605-.3594ZM20.1338,11.843a2.72862,2.72862,0,0,1-.7451.164c-.1436-.0058-.1719-.09371-.3564-.0713-.128.0157-.2754.0635-.4014.0762-.3574.0361-1.4453-.2148-1.6709-.0801a4.62827,4.62827,0,0,0,1.4756.3633,7.72621,7.72621,0,0,0,1.6982-.1465,11.46242,11.46242,0,0,1,1.4317-.4072,6.98709,6.98709,0,0,0,.7685-.1523c.2861-.0664.4863-.0723.7608-.1592v-.084c-.4268-.0869-1.3321.2285-1.586.1396-.3799-.1328-.9785.2481-1.375.3575Zm22.8457-9.3653.1113-.0068.3624.0342v.0928l-.753-.0088-.1123-.0059-.4453.0332h-.6689c-.17,0-.7325.0537-.8301.1768a.56759.56759,0,0,0,.1377.3154c.2646-.07031.0195-.23631.4502-.19631.0791.00681.5058-.07029.6308-.07319a3.45277,3.45277,0,0,0,.6494-.0479,2.73987,2.73987,0,0,1,.6631-.0068h.3057c.6494,0,.3379-.2842.6475-.2696l-.0635.128.0068.1123.1641.0928.584-.0635.6425-.0059.3897.0332h.0557a.51173.51173,0,0,1,.3623.0918l.1416-.0361-.0215-.0918a1.58785,1.58785,0,0,0-.4981-.1192c-.2578.043-.247-.1162-.4843-.125-.2237-.0078-.3838-.0078-.6114-.0302-.0937-.0108-.2002-.0381-.292-.04491-.1279-.00979-.1211.05661-.2724.04981l-.0586-.1592c-.2891-.0557-.3965.1201-.7158.0156-.1133-.0381-.1748-.1484-.2969-.0986-.1953.081.0166.10539-.2686.0508a2.86945,2.86945,0,0,0-.7217.0253c-.1699,0-.5693-.1455-.6933.02929a.73417.73417,0,0,0,.6367.02051,2.7106,2.7106,0,0,0,.8662.0879ZM23.0674,12.60083c-.4629.0781-.665-.0684-1.1601.0674-.2227.0605-.8653.1465-.8819.414l.0879.0498c.4561-.01071.4649-.1552.7988-.2353a9.12256,9.12256,0,0,1,.9336-.1026l.083.0577-.0078.0771c-.1758.125-1.1445.1983-1.2763.3135v.1113c.5644.1592.4785.0283.9814-.0498.2363-.0371.2764.0322.541-.0723a4.90272,4.90272,0,0,0,.4688-.1455c.1572-.0859.1425-.1523.374-.2119a3.97423,3.97423,0,0,0,.4189-.1943c.2002-.0664.752-.2363.7852-.4414-.2822-.001-.2246-.0781-.5371.0469-.1719.0683-.3047.1074-.4766.166a7.38488,7.38488,0,0,1-1.1328.1494Zm4.8584,3.9394a1.79452,1.79452,0,0,0-.5264.2539c-.2119.1153-.4013.0538-.5761.2325-.2022.2041-.1338.2949-.4922.2881a3.05591,3.05591,0,0,0-.6778.1318c-.2451.0381-.4218.09279-.6816.126-.2236.0293-.5732-.0469-.6533.1621l.0517.0859a3.683,3.683,0,0,0,1.3106-.1797c.2441-.122.25-.2392.5732-.1123.2022.0791.3369.2637.544.2276.207-.0352.2851-.1885.54-.2149a1.82205,1.82205,0,0,0,.5918-.1885.77656.77656,0,0,0,.4063-.375c.1123-.19041.4394-.0156.5009-.2861l-.164-.0186c-.3555-.0566-.8291.6299-1.3672.6407.0146-.14941.2939-.2588.4277-.3252.2764-.1348.1983-.2207.3594-.3946a1.34391,1.34391,0,0,0,.915-.5068c-.2148-.081-.8222.3799-1.082.4531Zm6.1094-6.915c-.168.2393-.3565.458-.5469.6807a10.00559,10.00559,0,0,1-1.3418,1.1396c-.2168.1475-.4199.4697-.6435.584-.1397.0723-.3184.0937-.3623.251-.0547.1953-.1153.2177-.2627.3506-.002.0019-.7725.4433-.7803.44619-.207.06651-.6944.295-.7559.5.3164.28721.5821-.02049.8535-.17869a2.51427,2.51427,0,0,0,.7178-.5381c.2539-.3925.9942-.7714,1.3926-1.1445.1855-.1738.5488-.4082.6953-.5596.1777-.1835.4258-.4589.6006-.6542.2392-.2657.334-.4805.542-.71391.1826-.20509.4765-.544.4687-.81349-.2851.0049-.2177.0772-.3281.2861a4.00459,4.00459,0,0,1-.249.3643ZM13.8164,28.591l-.0537-.1064-.1562-.0489-.083.0831-.0196.0253.169.1582.1435-.1113Zm-1.791-.1748c-.2363-.1133-.7099.0156-.8926-.3115l-.0039-.0537.0616-.0791.3857.0283.1699-.0039.2461-.1445a4.32822,4.32822,0,0,0,.5059.0879h.167c.3398,0,.3574-.1963.5136-.1495.0479.17-.042.1905.1075.3379l.124.0049.2138-.1826c.46.2275.2872.0156.5577.4531.1084.1758.3457.3389.4638.5108l-.0117.0908-.1308.0273a4.77787,4.77787,0,0,0-1.0577-.2002c-.2627,0-.3769.0782-.6054-.0888l-.0127-.0791.209-.1866-.0137-.0898c-.1699-.1104-.3086-.0147-.5264-.0293a.79256.79256,0,0,0-.4707.0576ZM31.3789,13.52173c-.1513.1064-.291.2031-.4384.3144a3.76738,3.76738,0,0,1-.5166.2657c-.2491.1621-.5674.5117-.8301.6757-.166.1036-1.0479.4766-1.0528.4805-.0439.3936.4024.4424.7159.4678a1.84717,1.84717,0,0,0,.8486-.3809c.2451-.18061.4189-.3535.6807-.5195.166-.1035.5869-.4404.5918-.6348-.0879.0186-1.003.59769-1.1485.6924a1.916,1.916,0,0,0-.5381.3818c-.0888.1143-.4638.35749-.5732.31249-.0645-.15819.1826-.22259.3144-.34759.0957-.0899.2842-.2695.3829-.3428.121-.0908.29-.2568.4023-.3222.2314-.1358.2842.039.5244-.2286.3057-.34181,1.4678-1.0283,1.5274-1.4287-.2159.0176-.6885.4717-.8907.6143Zm-12.2773,3.9551c.0078-.1319-.0127-.1163-.0967-.1856-.0664.0908.0059.167.0967.1856Zm-.4404.0039-.0186.122c-.2285.0703-.3545-.2461-.3799-.4209-.084-.0927-.0224-.0859-.1719-.1279l-.0712.1211v.25a1.24073,1.24073,0,0,0,.0625.3105l-.0625.1084c-.1778-.0478-.2793-.4199-.2793-.5859v-.0273l.0058-.0577-.039-.1044-.1211-.0489-.209.2354-.002.1181a1.99063,1.99063,0,0,1,.2578.91309.31934.31934,0,0,0,.3067.27841c.2939.0517.2431-.1241.2929-.2862.1084-.03121.1524.00779.2618.0449.2275-.07911.1172-.2275.3056-.28611.1651.11521.1133.21091.3633.19431l.0498-.1347-.0498-.47561c.1983.05271.1289.25681.3135.44341l.1601.0029v-.11231c-.0722-.29789-.2236-.39549-.2236-.78029a.3594.3594,0,0,0-.3623-.2236l-.0596-.0078-.1377.0664c-.1455-.1192-.0127-.1709-.1748-.3321l-.0742.0225a.84.84,0,0,0-.0556.251c0,.1738.1279.3945.1123.5293Zm3.7988-3.5625c-.1485.0312-.3496.1347-.541.1836-.2012.0517-.4092.0742-.6026.123-.2011.0508-.4121.0576-.6084.1162-.1757.0537-.5-.0322-.5957.169l.0791.0449.1153.0039.4736-.06151.335.00581.3339-.0332.168.0059.3067-.0342c-.0411.1123-.2823.167-.419.167l-.1123-.0049-.3887.0615c-.1328.0313-.1006.0098-.1123.1114a8.72836,8.72836,0,0,0,2.2198-.2354,7.50561,7.50561,0,0,0,.9599-.29491c.2354-.09379.7578-.19729.7529-.502-.3007-.07319-.874.29591-1.1884.40141-.1826.06059-1.2442.4424-1.2881.2178.1738-.1133.9912-.2217,1.3056-.36721.1797-.084.3584-.19629.5489-.28909.1601-.0781.458-.1601.4824-.3535-.2148-.164-.8613.1338-1.0967.2422-.1172.0537-.9717.2891-1.1279.3223Zm4.4883,1.0312a3.17351,3.17351,0,0,0-.6377.1983c-.2256.1103-.4209.1103-.6397.1972-.0947.0362-.1972.1123-.2724.1455-.1123.04889-.2364.0225-.3516.0635l-.1113-.0527c.04-.1475.3261-.2002.4746-.3418l-.0166-.1436a1.45905,1.45905,0,0,0-.5703.0381.521.521,0,0,0-.3701.2813l.0449.1298.0732.0381.1436-.0039.1006.0674-.1856.2119c.0332.5069.877-.1387,1.0977-.2109a.9559.9559,0,0,1,.7031-.0547c.1308.0557.1152.1445.1601.2578.0606.1504.1543.0635.1788.2529-.2461.3399-1.167.0674-1.3282.5694.0684.2744.5176.0517.7129-.01271.0371-.01269.6348-.30669.6729-.33109.2861-.1836.2588-.3281.6787-.2734.1904.0244.5264-.294.5254-.4736l-.167.0019-.2481.1377-.1152-.001h-.167l-.1152-.0029a.43938.43938,0,0,1-.2979.081l-.0595-.0781.0302-.0761.0782-.0235.2558.0186c.1846-.1162,1.0576-.35351.958-.711-.1767-.0449-.4599.1914-.5918.2969a3.88281,3.88281,0,0,1-.6728.2744c-.2022-.206.5644-.3379.582-.6719-.1602-.0732-.3291.1456-.5527.2012Zm-12.1348-.4228c.1641.0459.3867-.0645.5859-.0596.3477.0088.2344.084.5996-.0664.2598-.1065.3868-.0352.6114-.085.2803-.0625.2363-.15331.5703-.0908.2588.0479,1.0566-.1611,1.2012-.1182v.05569a2.8631,2.8631,0,0,1-.67.167h-.083c-.1201.02931-.1289.02251-.1396.14061a8.66209,8.66209,0,0,0,2.4971-.209,9.92979,9.92979,0,0,0,1.2587-.1914c.3155-.1318,1.0098-.0683,1.1211-.33-.1142-.1143-.3261-.0206-.4707-.0215-.1982-.001-.2256-.1182-.4472-.14071-.5264-.05269-.4649.02251-.9307.18271-.1279.0439-.3144.0586-.4629.0957-.1514.0371-.2803.1074-.4385.1465a2.889,2.889,0,0,1-.9755.123c.0429-.2656,1.0029-.0986,1.2285-.37991l-.0557-.12209c-.3467-.0966-.4717.0079-.7695.0303a1.1993,1.1993,0,0,1-.3633-.0703c-.169-.0312-.2764.0352-.4365.0244a3.51863,3.51863,0,0,0-1.5098.2735,7.40675,7.40675,0,0,1-1.5283.2851c-.2725.0303-.6104.0254-.8594.0606-.376.0517-.4639-.14651-.7334.0752.1895.27529.8965.1386,1.2002.2246ZM37.7998,4.26c-.124.1318-.2715.4209-.1474.5605a.69966.69966,0,0,0,.2881-.5459L37.7998,4.26Zm-.9511-.2813c-.1739.0225-.2413.1035-.2207.2764l.0712.0674c.1641-.0215.212-.0987.2344-.2618l-.0849-.082Zm2.3105-.1338c-.1494.0381-.2324.1231-.1777.2871l.1416.0196.1123-.1192.0078-.07611-.0068-.07719-.0772-.0342Zm-2.1435-.2842-.127.0801.0908.0996.0918-.124-.0556-.0557Zm.1552-1.788-.167.166-.1367-.1026c.0752-.1259.3447-.4082.3037-.0634Zm-.8633.1689c.2325-.1768.4248-.6074.6983-.69631.2207-.07129,1.0127-.32029,1.1299-.042l-.1407.08791a.75446.75446,0,0,0-.6796.2686l.08.0869c.1787-.02441.2246-.15041.378-.0996.0683.2138-.2666.414-.292.7099.1543.3682.125.2676.041.6202-.0654.2744.1201.3535.3076.455.0791.042.3818.2598.4805.3282a.3104.3104,0,0,0,.4883-.1475l-.1944-.0947c-.2656.0664-.3262-.0127-.5508-.08691-.2187-.07229-.2617-.17189-.2617-.40729.2041.0479.4629.3809.7529.3916a.95447.95447,0,0,0,.3916-.1679c.084-.0489.1504-.2207.2422-.3155l-.0156-.2168.0596-.3398c.1269.084.1142.1973.1045.3428-.0049.0781-.0059.3252-.0108.3505-.0742.3643-.3681.2657-.3056.4698.2256.05559.4873-.35941.5752-.5332.2382-.4698-.1133-.5401-.0899-.9014l.0528-.085.2646.0401c.0361.1562.0381.2597.1816.3496l.0821.0029.1162-.0781c.1894.0518.0947.1768.1816.3105.0801.1221.1651.0577.2295.2413a6.79539,6.79539,0,0,1-.3047.7265c-.1924-.0898.0362-.2431-.0849-.4424-.1553.0664-.1602.335-.2481.46779-.0849.13091-.2138.26861-.3115.41311-.0752.1103-.6602.6601-.7393.6172l.0547-.1914c-.1933-.2158-.2617.1943-.4736.2099L38.375,4.427c-.1172.0175-.2734.27929-.3437.3818-.2432.3564-.2217.1201-.4522.1572-.3193.0537-.4756.61429-.7636.6904v-.083l.0918-.2197c-.0079-.2226.125-.3349.2197-.5058l-.041-.1055-.0762-.0352c-.2315.127-.2236.12409-.2568.41309l-.128.07131-.1269-.0205-.0225-.1299.2901-.4717c-.0782-.1015-.0411-.08-.1446-.1445-.3447.1924-.251.4258-.4463.4785a4.0847,4.0847,0,0,1,.0879-.8037,1.65927,1.65927,0,0,1,.124-.3496c.1231-.2168.0284-.1611.0831-.3633.1298-.0898.3847-.43161.205-.5449l-.2841.2998.0087.2266c-.0986.1367-.1699.0586-.2617.2714-.0722.168-.0137.2383-.1377.3926l-.1045.0098c-.125-.457.6407-1.2246.5967-1.4902l-.0674-.0469c-.372.2217-.5527,1.4414-.8642,1.4785A4.96241,4.96241,0,0,1,36.3076,1.94163Z"/>
        <path class="cls-2" d="M28.9864,31.42112c.3564.0469.3076.2051.5302.2334.169-.2881-.4043-.6191-.5566-.2959l.0264.0625ZM19.1016,17.47683c-.0908-.0186-.1631-.0948-.0967-.1856.084.0693.1045.0537.0967.1856Zm-3.6533.5009-.1309-.0136.0313-.1407c.1005.0196.1064.0411.0996.1543Zm21.623-14.3613-.0918.124-.0908-.0996.127-.0801.0556.0557Zm.3106.8594-.0704.14549-.1523-.002L37.1143,4.51l.1289-.1514.1387.1172Zm-.211-2.7031-.167.166-.1367-.1026c.0752-.1259.3447-.4082.3037-.0634Zm2.0655,2.1064c.0136.1455-.0108.1641-.1133.2725l-.1416-.0196c-.0616-.1836.0869-.3291.2549-.2529Zm-2.3028.1816c-.0224.1631-.0703.2403-.2344.2618-.1513-.1436-.0566-.3174.1495-.3438l.0849.082ZM25.6905,28.36152l-.0821.083c-.1523-.0195-.1611-.1279-.2597-.2509l.0244-.1231c.166-.0605.2812.1514.3174.291Zm12.25-24.08689a.69966.69966,0,0,1-.2881.5459c-.1241-.1396.0234-.4287.1474-.5605l.1407.0146ZM28.6446,31.091c-.0039-.2305-.3223-.3818-.501-.4805l-.1094.0694c-.0029.081-.0029.1621-.0029.2431-.0547.2256-.1699.3145.083.4795l.1045-.0673c.0146-.1446-.0293-.1416-.1084-.2442.0976-.1289.1914-.1162.334-.1045.0722.1006.0605.1006.2002.1045Zm-1.5069-.7763h-.082l.0039.1054.0771-.0039.001-.1015Zm-.4433-.2256.0966-.0625-.0771-.1319a.39672.39672,0,0,0-.1699.0157c-.041.1269.0381.1484.1504.1787Zm-.4444-.1875-.0537.0195.0537-.0195Zm3.5928-.2559-.0781.0772.0771-.003.001-.0742Zm1.1484.0293-.0263-.1201-.1748.0556-.0039.0684.1201.0479.0849-.0518Zm-4.5009-.1387a.7066.7066,0,0,0-.4112-.0078v.168a.48078.48078,0,0,0,.4112-.1602Zm.8642.0977.0176-.1514-.1172-.0049c-.0059.1084-.0068.1416.0996.1563Zm2.8184-.1592-.0039-.123-.1358.0664.0254.0468.1143.0098Zm-.6387.0566.0898.001.0811-.0595-.0029-.1426-.2227-.0811-.1094.0567c0,.1298.0586.164.1641.2255ZM10.7598,28.133c.0166-.081.0351-.1601.0537-.2314.0439-.1758.2002-.4532.2109-.5274l-.2529-.0429.0244-.1446a5.07426,5.07426,0,0,0,.7344-.3535,1.53547,1.53547,0,0,1,.3477-.1826c.1709-.041.3291-.0371.4794-.0811.2305.0635.1133.1348.3321.1006a.83777.83777,0,0,0,.6797-.125.26054.26054,0,0,0,.2216.0059,3.21793,3.21793,0,0,0,.0625-1.41409c-.0302-.2158.0332-.6279.001-.748-.0537-.1983-.164-.3799-.2119-.60161-.083-.38279-.2607-.85549-.3789-1.23829-.0752-.2412-.1689-.2314-.2363-.5722a3.96,3.96,0,0,1-.1914-.7178c0-.2822-.126-.5176-.126-.7822l.0156-.0118a1.35913,1.35913,0,0,1,.6543-.9902c.166-.0723.5313-.0664.6729-.1357.1425-.0713.2978-.2549.4853-.3526a1.39028,1.39028,0,0,0,.4658-.3427c.2032-.2002.4649-.0596.7061-.0713.1426-.0069.1914-.0743.3223-.1016.1611-.0342.2314.0557.33.02539.2764-.083-.0673-.41309.0723-.59669.2871.1455.3252.4053.6953.3858l.0586-.1036.002-.1181a2.02641,2.02641,0,0,1-.3526-.8907l.0508-.3398-.1191-.1328c-.2393-.0029-.2178.3408-.168.4961-.1035.2812-.0234.2265-.0215.4853l-.1172.1036c-.4258-.1739-.3095-.3526-.4765-.4112-.1319.0498-.0664.086-.2149.0733-.1162-.1563-.0947-.1446-.3056-.169a.20341.20341,0,0,0-.2247-.0693c-.1425.1367.0196.2939-.0234.4765-.1348.042-.2461-.1543-.3916-.2187l-.1836-.42771-.0879-.00979-.0547.1211.1778.55369c-.6328-.01069-.3633-1.44729-.5645-1.78319-.834-.00881.0879.95019-.2051,1.1904-.1797-.0918-.1269-.3125-.3183-.4385a.99487.99487,0,0,0,.4121,1.0655c.2207.1426.2637.2695.414.3672.2598.1709.4131.0322.6329.164l-.0655.1309a2.95058,2.95058,0,0,0-.3584-.002c-.1513.0391-.1992.0811-.2881-.0752-.1142-.20311-.3564-.0664-.5595-.2763-.2539-.2617-.2715-.1699-.5586-.2783a2.78694,2.78694,0,0,0-.6113-.2159c-.253.0791-.4161.2998-.5508.294-.0069,0-.5635-.252-.5772-.2627-.2578-.2051-.1855.043-.456-.38091a1.47492,1.47492,0,0,0-.4727-.39159c-.3027.1533-.2051.1934-.3984.3838a.38.38,0,0,1-.3574-.15821,1.09133,1.09133,0,0,0,.0302-.16889c0-.4024-.7754-.5118-.3564.0283l-.0625.083c-.2881-.0957-.6768-.40241-.9649-.1699a5.41522,5.41522,0,0,0-1.9716-.68751c-.5332-.17189-1.1426-.15529-1.6895-.30759a8.39373,8.39373,0,0,0-2.3115-.3165,8.86733,8.86733,0,0,0-.9776-.1425A4.49054,4.49054,0,0,0,0,15.257c.0962-.55171.5899-.6308.9854-.9414a6.72178,6.72178,0,0,0,1.0674-.5859c.4863-.3408,1.0214-.5518,1.4951-.9033,1.2148-.8985,2.8027-1.20511,4.1279-1.8955a6.03,6.03,0,0,1,.9131-.3145c1.21-.4072,2.3926-.8232,3.6162-1.209,1.1338-.3564,2.333-.9365,3.46-1.3633,1.1738-.4453,2.333-.8183,3.5312-1.17381a3.532,3.532,0,0,0,.8692-.21779c.9638-.0029,1.8857-.4121,2.8427-.4121a1.97436,1.97436,0,0,0,.6055-.0947c.2314,0,.457-.0312.6875-.0312.7314.13179,1.4785-.004,2.21.081a6.68206,6.68206,0,0,0,1.5869.0127,4.47123,4.47123,0,0,0,1.9414.03609,11.07311,11.07311,0,0,0,1.7744-.19919,3.77249,3.77249,0,0,0,2.1182-2.0322c.3056-.6709.1621-1.1094.372-1.6328a3.45741,3.45741,0,0,1,.833-1.2627c.5489-.4326.3897-.7158,1.1807-.8838a4.57792,4.57792,0,0,1,1.8281-.2051,2.64458,2.64458,0,0,1,1.543.5127c.1992.1406.4072.2842.5986.4326.2061.1602.3565.376.5469.5166.3506.25489,1.2256.1553,1.7393.2627a8.17368,8.17368,0,0,0,.8642.1699c.8965.0879,1.7569.3077,2.6397.4815.2949.0586.5214.168.8222.21579a4.02258,4.02258,0,0,1,2.1241.88191c.1142.1142.1494.205.1074.2656a8.747,8.747,0,0,0-2.2598-.48151c-.3379-.02149-.3213-.11129-.7392-.06249-.2881.0332-.4913-.0742-.7872-.0468a11.43652,11.43652,0,0,0-1.5419-.003c-.2969.0615-.4737-.0244-.7676.0391-.3135.0683-.4971-.0166-.7774.0303a5.10659,5.10659,0,0,1-.7705.0683c-.4629.003-.332-.0029-.5146.35059a8.56243,8.56243,0,0,1-.5108,1.18951c-.1992.27049-.5966.2363-.874.4716a4.11463,4.11463,0,0,0-.7383.3877c-.3789.2608-.7959.295-1.1562.6368-.3809.06339-.1885-.1065-.5537.1748a2.16214,2.16214,0,0,0-.5879.89059,3.402,3.402,0,0,0-.1973.52831,10.29216,10.29216,0,0,1-1.0029,3.3623,4.1734,4.1734,0,0,1-.2783.7686,1.98759,1.98759,0,0,0-.1905.2529l.0342-.1055-.1025.0088c-.0293.0928-.0391.0645.0478.126a2.258,2.258,0,0,0-.1504.2568c-.0937.0137-.1035.0401-.0644.1045a5.19781,5.19781,0,0,1-.5869.9971,4.03325,4.03325,0,0,0-.8409.9355,1.31266,1.31266,0,0,1-.1845.1602c-.6192.3877-.9961,1.1221-1.6699,1.4277-.6084.1817-1.0206.7246-1.5381,1.0694a2.8,2.8,0,0,0-.3438.2207c-.5693.1963-1.0889.498-1.668.6728a1.99176,1.99176,0,0,0-.5625.17089c-.1669-.15819-.2822-.00289-.4726-.03419-.3887-.0615-.3408.2149-.833.2803a3.52389,3.52389,0,0,0-.7276.2051,1.88481,1.88481,0,0,0-1.3359.3926,2.04176,2.04176,0,0,1-.9111.332,2.32492,2.32492,0,0,0-.7432.2246.799.799,0,0,0-.6211.2647l-.0049.00189.0137-.01369a1.01827,1.01827,0,0,0-.4443.0713c.0634-.0361.084-.0625.0976-.1592a.56883.56883,0,0,0-.4062.2383c-.7168.1797-1.3858,1.2862-.459,1.7227a.62862.62862,0,0,1,.0371.0937c.1963.6524.1797.4698.584.9502a2.20772,2.20772,0,0,1,.2744.4785,4.26926,4.26926,0,0,0,.4463.335c.3691.2568.4639.5527.7666.7949.1943.15429.1543.2686.3271.4258.1104.1006.3858.2861.4375.3428.1192.1279.1426.3096.3077.4736.3916.3867.6044.95019,1.0136,1.30079a5.34,5.34,0,0,1,.6055.9619c-.1865.2363-.3174.2246-.29.5527l-.1309.3116.0752.1416c.7939.206,1.4502-.7852,2.0166-1.1485a5.08147,5.08147,0,0,1,.4551-.3535c.3711-.1611.4599-.0088.6435-.0498a.58408.58408,0,0,1,.6084.1182c.4473.2861.2871.0371.5713.0674l.0361.0781c-.1543.2129-.291.0898-.4814.2422a.35292.35292,0,0,0-.0273.5205c.3593.0879.9355-.9151,1.2919-1.0674.4581-.1963.4854.0674.8067.2764a5.90017,5.90017,0,0,1,.5986.6084c.1026.2871-.4687.374-.7373.2002-.3486-.2247-.3506-.5342-.664-.1329-.4493.5752-1.3497.1368-1.9551.1954l-.1016.1279-.292.0058c-.3642.0108-.3594-.1494-.6699-.0322-.0986-.0381-.1611-.1142-.1875.0254.084.0606.0635.0469.1621.0078.3125.2012.2959.0811.5742.1475.3291.0781.1973.2637.3701.3545.0655.0351.4678.1074.587.1386a2.08965,2.08965,0,0,1,.5615.1661.26131.26131,0,0,0,.2236-.2539.66449.66449,0,0,0-.6689-.0498c-.1875-.0479-.6787-.1934-.6739-.42.1924-.1123.2666.0157.502.0264.3252.0166.3223.1592.5.1621a6.04577,6.04577,0,0,1,1.7539.0488c.2129.0684.2549-.1172.5147-.084.2343.0313.3593.1104.5322.1436a3.35134,3.35134,0,0,1,.5732.0957c.3174.0977.6807.3027.9541.3574.1074.0215.46.0928.544.125.1709.0664.1259.167.4218.2471a1.92063,1.92063,0,0,1,.7481.5908,1.13012,1.13012,0,0,0,.2432.4258c.2353.2539.2167.1133.4355.2451l-.0039.2031a4.089,4.089,0,0,1-.9141.4795c-.3984-.0879-.2197-.5683-.4072-.9306-.3135-.6075-.7471-.6514-1.3457-.5987-.293.0254-.2471.212-.4082.2598a3.06753,3.06753,0,0,1-1.1123-.1963,2.7857,2.7857,0,0,1-.5176-.1523c-.3799-.1592-.8437-.0098-1.2334-.1055-.3535-.0859-.709-.1797-1.0596-.2773-.2187-.0606-.3984.0214-.5507-.0596-.2784-.1504-.2344-.0596-.46.0469-.2314.1093-.2266-.1416-.4551.1347.0596.1182.1973.1494.3096.2237.1641.1074.0732.1845.2832.166l-.1074-.2373.0439-.1338c.3047.0556.3311-.0156.542.2236a3.18871,3.18871,0,0,0,.9297.6328,3.4809,3.4809,0,0,1,1.127,1.2715,4.14668,4.14668,0,0,0,.3017.4795c.1377.1514.4014.2441.2979.4502a2.98318,2.98318,0,0,1-.8018.0254c-.293-.2109-.2305-.3399-.3379-.6377-.1347-.374-.4053-.2314-.6767-.3272-.1446-.0507-.1514-.164-.2539-.248-.1153-.0947-.2588-.0762-.3946-.1074-.4326-.0987-.7412-.5303-1.0898-.7783a2.33348,2.33348,0,0,0-.8985-.5655,3.16327,3.16327,0,0,0-.4306-.2256c-.2451-.1025-.6358-.0908-.7871-.2168-.1592-.1328-.2959-.4287-.5459-.4218-.2725.0078-.5235.1338-.8116.1338a9.16961,9.16961,0,0,1-1.8779-.128c-.4599-.0957-.3515-.1279-.8047.0098-.3027.0928-.5801-.0781-.9013.0439-.5049.1924-.5.9024-1.0704.9366a1.27571,1.27571,0,0,1,.5704-1.3545,3.4004,3.4004,0,0,1,1.5683-.4668c.6211-.1221,1.2549.0273,1.9199-.0615.2051-.0264.7784.0273.5762-.3389-.0215-.0401-.4072-.6143-.4209-.627-.3672-.3662-.1992-.0078-.4238-.5791a5.03763,5.03763,0,0,1-.3555-.6767,12.51381,12.51381,0,0,0-.8681-1.168c-.2793-.4004-.6231-.7217-.9053-1.1299-.2862-.4111-.6631-.7588-.9776-1.1367a4.20071,4.20071,0,0,0-1.4091-1.2998c-.2344-.1602-.9395-.418-.92-.75391.0088-.17189.1973-.18259.3243-.23439.7353-.2978.5908-.8867.7031-1.5273.0537-.3028-.5244-.5576-.7197-.3809.0107.2793.3662.2842.3886.5518-.457.1894-.4531-.07721-.7314-.2725-.3692-.2588-.5205.0742-.7481.2149a7.68313,7.68313,0,0,1-1.1533.498.78475.78475,0,0,0-.6084.2148c-.3789.1153-.1797.0567-.5537.3741-.3144.26749-.4463.2373-.4355.6826a2.75123,2.75123,0,0,0,.04,1,3.23632,3.23632,0,0,1,.1299.4297,3.41188,3.41188,0,0,0,.0732.6758c.1582.5312.1612,1.0849.3721,1.6035a3.49866,3.49866,0,0,1,.2656,1.91309c.249.4668.9404.1904,1.3838.2656.2754.0459.2149.1181.3906.2207.2442.1416.7071-.0645.9434-.169a2.7338,2.7338,0,0,1,2.4394.2803,1.55086,1.55086,0,0,1,.3184.2061c.1113.1289.1221.2793.1982.3867.1348.1914.2334.0459.1475.3896-.1162.4639-.4014.3897-.6299.0664a.85979.85979,0,0,0-.8095-.4189c-.4248,0-.4122.0146-.7061.2842l-.666-.0254-.1348-.1162c-.0019-.1006.0615-.1553.0518-.2764-.2666-.084-.376.2178-.6641.2178-.2461,0-.4824-.2002-.6133-.1397.0078.0889.1817.2842.2559.3848.1514.0146.2168-.0361.3252-.0186a5.3371,5.3371,0,0,1,.8369.2793c.1279.045.1719.0039.3076.0547.1865.0703.377.1192.5635.1895.165.0625.167,0,.3223.039-.1416.2881-.1084.3506-.0049.6719l-.2705.4043-.1055.0029c-.3506-.2324-.1074-.3457-.708-.5468-.2588-.0869-.1797-.1143-.4922-.1211-.1992-.0049-.3574-.1094-.5283-.1123.0537.3281.4795.4668.7461.7314.4316.4307.5088.4434.5088,1.0811a3.14254,3.14254,0,0,1-.0625.7724c-.1377.2842.0293.3535-.1104.6729-.1416.3222-.3086.9404-.7197.9531-.0205-.0264.1221-.6445.123-.7529.0977-.2227.1446-.3321-.0654-.5127a1.87372,1.87372,0,0,0-.1279-.3506c.0029-.0869.0146-.1768.0146-.252,0-.5302-.0195-.4804-.3701-.83a1.80818,1.80818,0,0,0-.3213-.292c-.292-.1621-.0957.0801-.3769-.2383l-.1211-.0186-.0283.0489a1.96453,1.96453,0,0,0-.336-.2598c-.0908-.165-.5469-.8486-.7256-.8027-.2509-.2452-.6142-.3741-.8056-.6856-.2705-.4375-.0977-.2256-.5577-.4531l-.2138.1826c-.2539-.0098-.1778-.1523-.2315-.3428-.1562-.0468-.1738.1495-.5136.1495-.2354,0-.4463-.0743-.6729-.0879a1.79041,1.79041,0,0,1-.8017.1201,2.08253,2.08253,0,0,1-.4307.1611Zm20.0537,1.2344-.002-.0986-.1582.0371.001.0371.1592.0244Zm-6.8613-.166a.31941.31941,0,0,0-.3877.0029l.0371.1523c.1357.0498.375.0684.3506-.1552Zm-1.0205-.0313-.0664-.084a.49178.49178,0,0,0-.1768.0137l-.0176.1016.0869.0517.1094-.0078.0645-.0752Zm-1.4268-.2217-.1133-.038-.1035.038-.04.1123.0918.0909.1621-.0752.0029-.128Zm-5.6455.0635c.3203.6748.3105-.1914.8613.6445.1866.2842.2637.1397.3545.4532a.45391.45391,0,0,0,.5098.292c.2461-.4219-.4512-.6084-.543-.7325-.1904-.2519.0166-.1689-.3164-.3808-.0781-.0498-.0879-.1299-.1474-.1875-.0704-.0694-.1514-.0381-.2579-.1084l-.0097-.2363c-.1494-.1612-.2315-.0606-.4073-.0957-.1025-.0196-.2119-.1338-.3115-.1954l-.1767.0205c-.1827.2247-.1407.9209.2695.5118l.1748.0146Zm.208-.8496.1065-.0049c.0087-.1494-.1192-.2168-.2647-.1728l-.0019.1152a.19247.19247,0,0,0,.1601.0625Zm11.6309-.081.1416.0761.1035.1192c.1904-.0557.1445-.2627.1396-.4161L28,27.79122c-.2578.2119-.459-.041-.6943.1279l.0215.1221.3711.0401Zm-10.1504-.4961c-.1172-.0108-.251.0048-.2744.1523.1328.0957.2314-.0459.2744-.1523Zm-2.4805.0703a1.53149,1.53149,0,0,0,.8613-.0235l-.0078-.0761a1.47858,1.47858,0,0,0-.7539-.1827l-.1621.1446-.0029.0635.0654.0742Zm-2.4189-.1875a.66261.66261,0,0,0-.5069-.1631c-.1416.1445-.1738.2226-.3994.2129-.0996.0615-.0801.0097-.1084.122.3106-.0488.6319-.0371.9463-.0664l.0684-.1054Zm6.5351-.1905a.412.412,0,0,0-.4941-.0273l.0166.1211c.1416.0117.4961.1103.4775-.0938Zm-6.8262-.3671-.081-.0606-.666.1465-.0606.0986c.2139-.0176.7061.0274.8076-.1845Zm5.71-5.586c.0654-.0937.0596-.2197.2031-.2197.1241.0869.1465.2041.3174.1523.1045-.3466-.3584-.4531-.623-.42671l-.0869.14161a.52949.52949,0,0,0,.1894.3525Zm-4.5205,1.7998.0938.0459v-.2783c0-.3691-.0518-.291-.1641-.5889a9.085,9.085,0,0,1-.293-1.2695c-.042-.1992.0244-.502-.1377-.6494l-.1142.0137a2.68451,2.68451,0,0,0,.04.76459,1.91069,1.91069,0,0,0,.168.669c.1103.416.2773.86621.4072,1.29291Zm5.5273-3.3232-.1084-.0332-.0771.0332c-.0635.1748-.2588.5635-.0586.69329a.55552.55552,0,0,0,.2441-.69329Zm-4.8759-.1446-.0166-.1005-.1241-.0108-.1377.0586-.0283.1641a.3511.3511,0,0,0,.2442.0488.206.206,0,0,0,.0625-.1602Zm1.6445-.5253h-.1367l.0029.1064.1328-.0039.001-.1025Zm-.5781-.0049-.1201-.1182-.0801.07029.0039.127.0771.06351.0791-.0362.0401-.1064Zm5.4033-.0547c-.042-.36921-.4756-.2149-.6895-.0664l-.0097.2588c-.0781.1425-.4961.5429-.4561.706.2295.086.6133-.5527.8311-.6943.1494-.0977.2324-.0068.3242-.2041Zm-.9766-.0547-.0293-.1123c-.2168-.0078-.3642.21779-.3945.42379l.0898.084a.67756.67756,0,0,0,.334-.39549Zm1.6709-.3916c-.2968.0283-.3564.3008-.4922.4805-.0859.1142-.4668.3291-.4296.498.1972.0918.5615-.19141.7294-.3105.1329-.0928.2315-.0811.2891-.2403.0469-.1289.0586-.3613-.0967-.4277Zm2.2901.2227-.5039.0253c-.4278.2422-.9786.252-1.3614.53909l-.0029.13281a4.21736,4.21736,0,0,0,.9463-.3642,1.27638,1.27638,0,0,0,.9219-.333Zm-3.7842-.3291-.0693-.084a.8598.8598,0,0,0-.6915.1142l-.3408-.0693-.0849.0937c.0595.1426.1543.1612.2285.3008l.0195.3184c.2656.082.3037-.4112.5645-.5694.1035.001.206.001.3086-.00191l.0654-.10249Zm2.0332.1562c-.0713.11429-.3145.3955-.2988.5147.1494.0527.3115-.2256.6162-.2969a2.94119,2.94119,0,0,0,.7929-.1914l-.0185-.12311c-.2608-.01659-.5.05471-.7568.04011-.1348-.1377-.2149-.2403-.4229-.2432l-.0693.0889.1572.2109Zm-.4248-.5478h-.1104l.0039.1064.1055-.0039.001-.1025Zm-1.5254-.0098-.0928.0107.0215.1026.1172-.0342-.0459-.0791Zm6.5225-.0947c-.3965-.1846-.1133-.48641-.8243-.2452-.1757.0586-.1757.2071-.3515.2334-.5225.0743-1.0352.1358-1.5615.2237v.1386a7.39452,7.39452,0,0,0,1.2451-.0371c.332-.0703.6386-.5117.9345-.1064l.5577-.207Zm-3.3223.0449a.82245.82245,0,0,0,.4707-.0635l.001-.1562a1.058,1.058,0,0,0-.7998.0029c.0175.0967.2197.1904.3281.2168Zm-5.9082-.2188-.0967-.22851-.1211.01861-.0049.2275.1407.0674.082-.085Zm4.8721-.1972c.2636.0146.5283.0185.791.0322l.1338-.1191-.0049-.0821c-.2637-.1426-.5127-.0586-.8096-.1367-.1514-.0391-.3555-.126-.4971-.05961a1.991,1.991,0,0,0,.3868.36531Zm-5.0352-.2442a.58742.58742,0,0,0-.0684-.5156c-.1035.0937-.208.6006.0684.5156Zm8.1387-.1738-.0674-.084a.92326.92326,0,0,0-.6318.0879l-.002.13179a.78174.78174,0,0,0,.7012-.13569Zm-2.793-.1426-.0049-.082a.35361.35361,0,0,0-.2519.0527l.0224.0733c.0996.0117.1524.02829.2344-.044Zm-9.0947.5576.0859-.0869c-.0176-.2021-.2031-.3047-.2627-.5146-.0615-.21881-.042-.5547-.0869-.7285l-.1445-.001c-.2578.3135-.0694,1.2881.4082,1.331Zm5.3301-.1679-.0186.122c-.3525.1094-.2676-.4687-.5518-.5488-.164.27539.0635.5596-.0712.79-.3018-.081-.2256-.54-.3125-.7753l-.1211-.0489-.209.2354-.002.1181a1.99063,1.99063,0,0,1,.2578.91309.31934.31934,0,0,0,.3067.27841c.2939.0517.2431-.1241.2929-.2862.1084-.03121.1524.00779.2618.0449.2275-.07911.1172-.2275.3056-.28611.1651.11521.1133.21091.3633.19431l.0498-.1347-.0498-.47561c.1983.05271.1289.25681.3135.44341l.1601.0029c0-.3194-.2236-.5537-.2236-.8926-.0635-.2686-.3769-.2529-.5596-.165-.1455-.1192-.0127-.1709-.1748-.3321l-.0742.0225a.84.84,0,0,0-.0556.251c0,.1738.1279.3945.1123.5293Zm-3.2539-.5391-.1182.002.0322.1406c.0762-.0127.1309-.04491.086-.1426Zm-2.9405.5439.1162-.1669c-.1054-.2217-.1425-.1827-.3545-.2657-.1914-.0752-.2285-.1709-.373-.2744l-.0938.0225c-.1201.3945.4092.5879.7051.6845Zm2.3731-.5097.1552-.0137a.30122.30122,0,0,0-.0537-.2656l-.124.0371-.042.1103.0645.1319Zm9.3701-.0244c.1543,0,.3125.042.3935-.1143a.50081.50081,0,0,0-.497-.2695c-.1592.1592-.1094.332.1035.3838Zm-6.6885-.2217-.0371-.10741-.1113-.03809-.0772.0674.0049.1259.0557.0606.1279-.0029.0371-.1055Zm4.9649-.1358.0009-.0664-.0918-.0878-.1357.0722.0029.1299.1416.0371.0821-.085Zm-2.7461-.09661c-.0196.15721.1279.15721.1093.27831-.0146.1006-.2002.13569-.0996.2812.0547.0791.1524.084.2285.2237.0948.17279-.0224.1943.0069.3271.0263.1231.1455.124.1748.2705a.71325.71325,0,0,0,.7998.5078c.3457-.1025.1357-.3457-.0684-.457-.3349-.18361-.2265-.2051-.4179-.47561-.1182-.165-.419-1.167-.7334-.956ZM11.2686,17.09l.083-.0029.0625-.1074c-.1416-.2432-.2305-.2803-.2256-.5879l-.0547-.0879-.126.02439a.83774.83774,0,0,0,.2608.76171Zm.7246-.47071.0625.003.0762-.06839a.58708.58708,0,0,0-.0606-.3818c-.2715.0117-.2754.2978-.0781.44719Zm15.5644-.25479c-.2128-.1524-.5253.0781-.7431.1513-.2656.0889-.4024.0391-.6231.2471l.0039.1299c.333.1933,1.3282-.2559,1.3623-.5283Zm-10.1591-.2706-.1368-.0957-.0761.0684a2.64421,2.64421,0,0,0,.0029.2656l.0752.0635c.1533-.0469.1514-.1572.1348-.3018Zm6.6728.1602c-.1709-.1133-.2539-.17481-.417-.0205l-.0019.1602c.1797.0429.3252.0507.4189-.1397Zm-1.4512-.13181c-.1435-.10349-.2216-.07519-.3603,0,.0107.26661.3564.28221.3603,0Zm-1.8847.18261-.1348.206.1338.2207-.0596.1924c.0938.3291.2588.2119.3887.4258l-.21.1943.0538.1553.3535.0957.1601-.125-.0058-.1543c-.1553-.1484-.1455-.3828-.2813-.5888a8.55205,8.55205,0,0,0,.0088-.8809l-.3975-.0186-.08.0909.0703.1865Zm-12.9776-.1895-.0644-.1103-.1309.0029a.28564.28564,0,0,0,.0518.2217l.084-.0078.0595-.1065Zm21.25-.0283c-.2148-.081-.8222.3799-1.082.4531a1.79452,1.79452,0,0,0-.5264.2539c-.2119.1153-.4013.0538-.5761.2325-.2022.2041-.1338.2949-.4922.2881a10.37466,10.37466,0,0,0-1.3594.2578c-.2236.0293-.5732-.0469-.6533.1621l.0517.0859a3.683,3.683,0,0,0,1.3106-.1797c.2441-.122.25-.2392.5732-.1123.2022.0791.3369.2637.544.2276.207-.0352.2851-.1885.54-.2149a1.31655,1.31655,0,0,0,.9981-.5635c.1123-.19041.4394-.0156.5009-.2861-.6298-.07231-.9296.6104-1.5312.6221.0146-.14941.2939-.2588.4277-.3252.2764-.1348.1983-.2207.3594-.3946a1.34391,1.34391,0,0,0,.915-.5068Zm1.2774-.0234c-.082.01559-.086.0205-.1016.1025.0996-.00191.1035.0088.1016-.1025Zm-20.8203.01559.1416-.01069c.0312-.0987.0302-.0684-.045-.1495l-.1416.0186c-.038.1211-.0126.0664.045.14159Zm19.0127-.15919c-.2588-.126-.5352.043-.7735.1553l-.0176.1611c.1631.0537.7588-.0967.7911-.3164Zm-17.0401.0274c-.0664-.1407-.1357-.1563-.2783-.1065l.0059.1289.1045.0987.1328-.044.0351-.0771Zm.9268-.085-.1065-.1025-.1025.1035.04.1113.1289-.0049.0401-.1074Zm4.2754-.0029-.0303.0644h.0303v-.0644Zm9.5791-.0235c-.294-.00681-1.4092.0147-1.2539.4727a.86734.86734,0,0,0,.7246-.082c.1787-.0967.5019-.1758.5293-.3907Zm-11.1436.3584.0156.1162c.378-.02341.2315-.6269-.0166-.6513l-.0957.1738.0967.3613Zm8.8867-.417a.23419.23419,0,0,0-.3105.00979l.0185.14841c.1475.01859.2549.0225.292-.1582Zm-1.3935-.0224-.0664-.083a.27024.27024,0,0,0-.2217.0508l.0234.1005a1.06323,1.06323,0,0,0,.2012.00789l.0635-.07619Zm-8.667-.0215c.0312-.0977.0225-.0859-.0732-.1689l-.1827.122a.24941.24941,0,0,0,.2559.0469Zm-4.3399.0029a.65932.65932,0,0,0,.2569-.07521v-.14159l-.2813-.083-.1338.0723v.1348l.1582.0927Zm13.2579-.1767.1377-.0938-.0206-.17871c-.1875-.01169-.4121-.05179-.5449.10251a.51575.51575,0,0,0,.4278.17ZM.9326,15.259c.0313-.0918-.1894-.3711-.2929-.4033l-.0752.0664c-.0098.165.1875.3994.3681.3369Zm31.1143-.2598a.36094.36094,0,0,0-.334.3067c.2246-.0547.252-.1094.334-.3067Zm-30.5371-.1396-.165-.167-.1329.0439-.0654.2647.0313.07709c.2187.06351.2461-.03609.332-.21869Zm25.9912-.1114c-.1602-.0732-.3291.1456-.5527.2012a3.17351,3.17351,0,0,0-.6377.1983c-.2256.1103-.4209.1103-.6397.1972-.2451.0957-.4629.2862-.7353.1563.04-.1475.3261-.2002.4746-.3418l-.0166-.1436a.89966.89966,0,0,0-.9404.3194c.0849.24309.1787.1084.3623.2314l-.1856.2119c.0332.5069.877-.1387,1.0977-.2109a.9559.9559,0,0,1,.7031-.0547c.1308.0557.1152.1445.1601.2578.0606.1504.1543.0635.1788.2529-.2461.3399-1.167.0674-1.3282.5694.0957.3838,1.2276-.2422,1.3858-.3438.2861-.1836.2588-.3281.6787-.2734.1904.0244.5264-.294.5254-.4736-.2158.0019-.3281.1416-.5303.1386l-.2822-.0029a.43938.43938,0,0,1-.2979.081l-.0595-.0781.0302-.0761.334-.0049c.1846-.1162,1.0576-.35351.958-.711-.1767-.0449-.4599.1914-.5918.2969a3.88281,3.88281,0,0,1-.6728.2744c-.2022-.206.5644-.3379.582-.6719ZM7.7315,14.66232l-.0869-.06249-.1211.0557-.045.0976c.1407.0254.1778.041.253-.09081Zm1.5088-.02639-.0694-.0839-.1513.0185-.002.1445.0772.0684.1054-.04.0401-.1075Zm-7.2295-.0273-.0625-.0801c-.1201-.0078-.1436-.0107-.2246.084l.1201.1172.1328-.043.0342-.0781Zm2.7285-.1621c-.1026.001-.167.0293-.1865.1387l.1103.0263c.0899-.0674.084-.0517.0762-.165Zm15.2265.0283-.206.0117-.0068.09179c.0976.003.2099.03221.2128-.10349Zm7.2569-.0332c-.2031-.0039-.3487.084-.5576.084-.169,0-.42.0185-.5127.1289-.1153.1377-.3086.1416-.3575.3242.1182.1074.2442.0752.3985.0791.2051-.1279,1.0205-.3301,1.0293-.6162Zm-22.9219-.0019c-.1221-.0801-.1562-.0665-.2793.0087l.0029.127c.1446.04589.2393.0391.2764-.1357Zm8.3086-.02641-.0723-.10549a3.91289,3.91289,0,0,0-1.1338.1279c-.3222.0821-1.1953.0655-1.4091.3194-.0987.11619-.0479.1494-.2188.19919-.1142.03321-.2578.03121-.2822.14941.2793.2012.581-.166.8242-.249a8.711,8.711,0,0,1,1.7344-.2178c.2217-.0254.5195.0899.5576-.22361Zm13.4121.14061.1426-.001-.0059-.1367-.3564-.2002c-.3682.0108-.3516.1406-.6113.2295-.1641.0557-.9073.1494-.6123.4649.5107.04189.9013-.6358,1.4433-.3565Zm3.7881-.2461-.1592-.06251c-.0937.05961-.1543.16211-.2344.21491-.2509.164-.7949.1523-.831.5117.1943.2099.5742-.0908.7949-.1572.1553-.31841.4512-.3135.4297-.5069Zm-26.2344-.0342c-.1152-.2724-.4531,0-.5049.1973l.1475.2705c.2441.0234.2861-.291.3574-.4678Zm4.6455.1309.1299-.1309c-.0664-.1474-.0976-.1718-.2598-.1631l-.0673.1514.1972.1426Zm20.4434-.3359a.64984.64984,0,0,0-.4942.1298l.0176.1495a1.56965,1.56965,0,0,1,.2442.0263l.2412-.166-.0088-.1396Zm-3.4473.01169-.0644-.11039-.1641-.0058c-.1758.1377-.6221.3388-.666.5058.2978,0,.7676-.0732.8945-.38961Zm4.4053.001c.0059-.043-.0107-.044-.0186-.07429a.50116.50116,0,0,0-.4267.1075l-.001.1269.1104.0303.3281-.1465.0078-.04391Zm3.6191-.05079c-.0966.0117-.3398.2695-.4394.3613l.001.1299c.2412.0068.5576-.3467.4384-.4912ZM2.711,13.99343l-.0879-.0899-.1778.1201.0655.1416c.1425-.0175.1425-.0673.2002-.1718Zm2.7353-.0254-.0322-.084a.95192.95192,0,0,0-.7031.333l.0713.1924c.2011-.0987.33.042.4853-.1143.0234-.1767.126-.1767.1787-.3271Zm6.752-.0059c-.0391-.21681-.5235-.1494-.6993-.1953-.3046-.0791-.6533.1436-.957.1973-.2646.0468-.7705.03019-.8681.3681l.0605.0869.6162-.0615c.3262,0,1.0781-.3642,1.3408-.23531l.4405-.07619.0664-.084Zm15.08-.13381-.1093-.05859c-.1533.041-.4756.1397-.4317.3535.2061.0254.5059-.0537.541-.29491Zm-4.9121-.08879c-.1142-.1143-.3261-.0206-.4707-.0215-.1982-.001-.2256-.1182-.4472-.14071-.5264-.05269-.4649.02251-.9307.18271-.1279.0439-.3144.0586-.4629.0957-.1514.0371-.2803.1074-.4385.1465a2.889,2.889,0,0,1-.9755.123c.0429-.2656,1.0029-.0986,1.2285-.37991l-.0557-.12209c-.3467-.0966-.4717.0079-.7695.0303a1.1993,1.1993,0,0,1-.3633-.0703c-.169-.0312-.2764.0352-.4365.0244a3.51863,3.51863,0,0,0-1.5098.2735,7.40675,7.40675,0,0,1-1.5283.2851c-.2725.0303-.6104.0254-.8594.0606-.376.0517-.4639-.14651-.7334.0752.1895.27529.8965.1386,1.2002.2246.1641.0459.3867-.0645.5859-.0596.3477.0088.2344.084.5996-.0664.2598-.1065.3868-.0352.6114-.085.2803-.0625.2363-.15331.5703-.0908.2588.0479,1.0566-.1611,1.2012-.1182v.05569c-.1231.11041-.8731.084-.8926.30761a8.66209,8.66209,0,0,0,2.4971-.209,9.92979,9.92979,0,0,0,1.2587-.1914c.3155-.1318,1.0098-.0683,1.1211-.33ZM10.4346,13.632c-.2285-.1396-1.2734-.0048-1.252.3614l.1602.0888a3.65852,3.65852,0,0,0,1.0859-.375l.0059-.0752Zm-1.6133-.0039a.87942.87942,0,0,0-.8457.20019l.0215.15721a1.08742,1.08742,0,0,0,.8242-.3574Zm23.3652-.05081c-.1679.01471-.5156.28421-.5302.44631a.78041.78041,0,0,0,.5302-.44631ZM7.5108,13.673l.1093.0567.1387-.0947a.20642.20642,0,0,0-.2832-.1475l.0352.1855Zm4.6455-.0332.1103-.0126.044-.0782-.0547-.1211-.0918-.0488-.0791.03519-.041.11421.1123.1113Zm-2.5117-.2119-.1133-.0263-.0801.1015.0117.0303.1817-.0029v-.1026Zm15.04-.0742c-.2148-.164-.8613.1338-1.0967.2422-.1172.0537-.9717.2891-1.1279.3223-.1485.0312-.3496.1347-.541.1836-.3946.10149-.8233.123-1.211.2392-.1757.0537-.5-.0322-.5957.169.1924.1084.459.0146.668-.01271a8.95536,8.95536,0,0,0,1.1436-.05569c-.1163.3164-.9981.0264-1.0323.335.4824.0771,3.9434-.3067,3.9326-1.03231-.3007-.07319-.874.29591-1.1884.40141-.1826.06059-1.2442.4424-1.2881.2178.1738-.1133.9912-.2217,1.3056-.36721.1797-.084.3584-.19629.5489-.28909.1601-.0781.458-.1601.4824-.3535Zm7.7197.0049c-.1074.001-.1279.0225-.1299.1299.1192-.0235.0918-.0606.1299-.1299Zm-14.6308-.1719a2.52819,2.52819,0,0,0-1.1153.1455c-.1865.0616-.3281.041-.5439.126a10.08769,10.08769,0,0,1-2.9893.2949l-.0703.07519c.1582.22071.626.167.8652.167a10.48048,10.48048,0,0,0,2.1221-.10839,9.05927,9.05927,0,0,0,1.7217-.5644l.0098-.1358ZM5.75,13.13593c-.1299.001-.1426.0391-.1357.1641l.125-.0195.0107-.1446Zm10.3662.1006.0069-.1054a.84458.84458,0,0,0-.4492-.002c-.337.0703-.6016-.0859-.917-.082a2.29943,2.29943,0,0,1-.4639-.0664c-.1348-.0323-.2285-.1407-.3506-.1543a1.615,1.615,0,0,0-.4014.1211c-.2461.0693-.6875.04779-.8203.2392.17.2647.5664-.0195.8418.0528.2549.0664.2725.0019.4688.0009.1758-.0019.1885.0977.4853.0391.4043-.0791.1612.3379.7637.208.0537-.0117.835-.25.8359-.251Zm-11.5195.1006.0918-.1514L4.628,13.049l-.1602.003-.0078.11129.1367.17381Zm28.7842-.25681c-.1055,0-.166.02831-.1856.12991.1573.0087.1299-.0303.1856-.12991ZM7.2754,13.05393l-.1553-.0293-.0693.082.0928.085c.1416-.0859.0683-.0234.1318-.1377Zm-1.9599-.0283-.0948-.0928c-.1045.0322-.1025.0361-.1201.1533l.1289.0537.086-.1142Zm1.2666-.4834c-.2393.1328-.1895.5264-.1416.7549l-.043.3144-.1192.1377c-.083-.0693-.082-.1553-.1162-.25391l-.1181-.01169-.1026.1455.0059.1143.2168.1464c.0088.2784-.1152.3633-.2549.5801.29.3838.8838-.2207,1.0391-.4463.0019-.2285-.1407-.3281-.1407-.5859,0-.2979.2149-.8272-.2255-.8955Zm20.9697.457-.0606-.0586c-.1787.0313-.3213.2686-.4736.3194-.249.0839-.3545.3134-.5723.2382l.0293-.1445c-.1718-.1846-.4902.042-.708.0781-.2109.0362-.4931.0147-.5527.2569a.43424.43424,0,0,0,.4482.1679c.4356-.02931.1426-.0097.4493.1094.5351-.126,1.2685-.3974,1.4404-.9668Zm4.7178-.0918c-.2159.0176-.6885.4717-.8907.6143-.1513.1064-.291.2031-.4384.3144a3.76738,3.76738,0,0,1-.5166.2657c-.2491.1621-.5674.5117-.8301.6757-.166.1036-1.0479.4766-1.0528.4805-.0439.3936.4024.4424.7159.4678.5175.042,1.1201-.6406,1.5293-.9004.166-.1035.5869-.4404.5918-.6348-.0879.0186-1.003.59769-1.1485.6924a1.916,1.916,0,0,0-.5381.3818c-.0888.1143-.4638.35749-.5732.31249-.0645-.15819.1826-.22259.3144-.34759a4.88089,4.88089,0,0,1,.7852-.665c.2314-.1358.2842.039.5244-.2286.3057-.34181,1.4678-1.0283,1.5274-1.4287Zm-3.1465-.0039-.1192-.0273c-.4316.2724-.9941.1064-1.3105.6152.0264.3018.1787.0654.331.1768-.0127.07909-.1689.1914-.25.32609l.0332.11231c.4668,0,.5821-.2119.9424-.2568a3.45825,3.45825,0,0,1,.2578-.2793l-.0214-.1396c-.1866-.086-.4659.14639-.7041.14639.0068-.27239,1.0126-.38859.8408-.67379Zm-4.125-.03221a.13436.13436,0,0,0-.2256.09571l.1172.0332.1084-.12891Zm3.3418-.07809-.1514-.0616-.0791.128.0869.0508c.1485-.04011.0908-.0235.1436-.1172Zm-14.9375-.1758-.0928-.1035a1.28686,1.28686,0,0,0-.6973.2021,1.07553,1.07553,0,0,0-.7041.1651l.0235.0918.3466.10439c.2627-.14939.6368-.22849.8575-.36709l.1513.0117.1153-.1045Zm12.4023-.0879-.1142-.0635c-.3282.1016-.2207.169-.2247.4141l-.1455.20019c.1592.35451.7569-.03709.7891-.28129-.1396-.13671-.2412.0078-.3955-.0976l.0908-.1719ZM10.1729,12.341c-.168-.0576-.6338.1807-.7891.2422-.249.0986-.5898.0732-.7724.2998l.0947.0879.499-.0879.2266.0264c.1757-.0987.1552-.2158.3213-.2637.1982-.0596.249.002.4316-.1641l-.0117-.1406Zm4.1133.0752-.0547.0186.0547-.0186Zm2.7568.0088-.1162-.0381v.0381Zm13.7305-.1436c-.1202-.0166-.1045.0704-.21.1465a3.00793,3.00793,0,0,0-.7373.127c-.125.043-.3311.4023-.2588.5449.2041.10449,1.3037-.5293,1.2061-.8184Zm2.7744.0176a.27959.27959,0,0,0-.2412.2696.27939.27939,0,0,0,.2412-.2696Zm-4.0108.0225-.0625-.0801c-.2197-.0059-.5039.0147-.6103.2236l.0664.0772c.2226.0058.4922.0225.6064-.2207Zm-4.3232-.083c-.2822-.001-.2246-.0781-.5371.0469-.1719.0683-.3047.1074-.4766.166a7.38488,7.38488,0,0,1-1.1328.1494c-.4629.0781-.665-.0684-1.1601.0674-.2227.0605-.8653.1465-.8819.414.2901.166.6055-.1181.8867-.1855.2383-.0576.8145-.1846,1.0166-.0449l-.0078.0771c-.1758.125-1.1445.1983-1.2763.3135v.1113c.5644.1592.4785.0283.9814-.0498a3.06781,3.06781,0,0,0,1.0098-.2178,5.18831,5.18831,0,0,1,.7929-.4062c.2002-.0664.752-.2363.7852-.4414Zm-4.1221-.083c-.206-.1309-.374.09179-.5849.1435a5.36053,5.36053,0,0,1-1.2051.2178c-.1524.001-.4912.0312-.5303.2061a5.324,5.324,0,0,0,1.2315-.0625c.1572-.0264.4824-.1309.6035-.0254.2451.2158.2656.1357.5322.0449a1.09233,1.09233,0,0,0,.4814-.2871.721.721,0,0,0-.3095-.043c-.1846,0-.291.1338-.4287.0928-.045-.1416.0576-.1397.1709-.1817l.039-.1054Zm-8.0644-.0567c-.2012.0049-1.0948.1563-1.1201.39849a1.29144,1.29144,0,0,0,1.1201-.39849Zm14.2158-.1318-.0772-.0732-.5849.205a.85705.85705,0,0,0-.3076,0c.0185.3203.3213.23049.1074.586.2529.4199.8369.2724,1.0976-.0537l-.0263-.09281c-.1045-.03419-.3076.09081-.4532.09081a.44409.44409,0,0,1-.3173-.0635c.1914-.2509.6191-.11331.5615-.5986Zm-10.7383-.0176c-.082-.0234-.5332.084-.6904.0928-.1406.0068-.503.1514-.5537.2842.0966.4824,1.0927-.12411,1.25-.2676l-.0059-.1094Zm12.752-.08011.0009-.10449a1.58685,1.58685,0,0,0-1.0908.3868c.042.13469.2422.1718.3662.1963a1.31545,1.31545,0,0,0,.7237-.47861ZM8.626,11.67893l-.0889-.05861c-.0859.06541-.0966.05371-.0654.16511l.1357-.0098.0186-.0967Zm4.373.002a3.92313,3.92313,0,0,0-1.3925.3906c-.2491.1152-.4776.0879-.6992.2217-.2471.1494-.4981.0927-.6153.3379l.0654.07319a4.7904,4.7904,0,0,0,1.4053-.41989c.2354-.1436.4092-.1328.6348-.2852a.8599.8599,0,0,1,.2773-.16891c.1651-.041.251.001.3242-.14939Zm3.1788.0605c-.0704-.2803-.6817.0234-.836.0234a1.70119,1.70119,0,0,0-.6924.085l-.0341.1123c.1943.3565,1.1621-.0713,1.3935-.25881l.169.03811Zm-8.9707-.1445-.0713-.10261-.1348.10061c.0313.1045.0361.1026.1533.1201l.0528-.1181Zm3.0869-.1397-.0313-.082c-.1484.0049-.3398.041-.4062.1826.084.208.3613.0488.4375-.1006Zm16.956-.0273-.0166-.0947c-.1816-.0547-.4013.0625-.625.0654-.2031.0029-.3144.209-.3388.3945.2705.3096.8154-.1133.9804-.3652Zm-4.1552-.084c-.4268-.0869-1.3321.2285-1.586.1396-.3799-.1328-.9785.2481-1.375.3575a2.72862,2.72862,0,0,1-.7451.164c-.1436-.0058-.1719-.09371-.3564-.0713-.128.0157-.2754.0635-.4014.0762-.3574.0361-1.4453-.2148-1.6709-.0801a4.62827,4.62827,0,0,0,1.4756.3633,7.72621,7.72621,0,0,0,1.6982-.1465,11.46242,11.46242,0,0,1,1.4317-.4072,6.98709,6.98709,0,0,0,.7685-.1523c.2861-.0664.4863-.0723.7608-.1592v-.084Zm3.0498.0186a9.26621,9.26621,0,0,0-1.209.0683c-.4639-.1387-1.0283.1651-1.5059.1641-.2305,0-.4404-.003-.4844.2519l.1241.1651a10.10216,10.10216,0,0,1,1.9785-.418c.1728.002.2558.0645.4472.0576.1563-.0049.6778-.1094.6495-.289Zm-17.7247-.1397-.164.0137-.0069.1572.1709-.0127v-.1582Zm15.2881.0957c-.1416-.07421-.4267-.1211-.5009.0811.1406.0976.4228.0859.5009-.0811Zm-14.5293.1367a.14394.14394,0,0,0,.1397-.0556c-.0186-.211-.1084-.1758-.252-.2569l-.1386.0899a.223.223,0,0,0,.2509.2226Zm20.1641-.2021-.0811-.0791c-.2109.0127-.414.1689-.6767.2217-.125.0244-.2539.0654-.3623.0839-.1768.0303-.2529-.0595-.4063-.0048a1.2229,1.2229,0,0,0,.0498.4482l.0791.03129,1.3516-.59869.0459-.1025Zm-10.46-.0274-.0898-.1025a6.16251,6.16251,0,0,0-.9443.07809c-.0997.06151-.0801.00981-.1123.12311.2246.12989,1.0234.2226,1.1464-.0987Zm-7.9013-.1552-.1075-.1075-.1855.1094a.46168.46168,0,0,0,.0137.1758c.0615.0078.123.0049.1836.0117l.0957-.1894Zm4.8613-.086a2.30355,2.30355,0,0,0-.8115.0772c-.2969.09959-1.208.05659-1.2559.4297l.0889.0517c.2246-.0693.5322-.1875.7519-.2285a3.067,3.067,0,0,0,.4444-.0566c.206-.0772.1113-.1094.3926-.1094a.67121.67121,0,0,0,.4492-.07331l-.0596-.09079Zm15.6855-.039c-.125-.042-.3007.1464-.413.2197a.54342.54342,0,0,0-.1885.4912l.0703.04389c.1787-.07809.1113-.29589.2754-.43349.1142-.0958.2627-.1602.2558-.3213Zm2.75.00779c-.2041-.09569-.9023.82131-1.0673.96871-.1133.1016-.3467.2676-.2334.4199.1933.003,1.2089-1.1962,1.3007-1.38861ZM33.7481,10.76c-.1963.0214-.3877.291-.503.44529a7.37077,7.37077,0,0,1-1.416,1.17771,2.00782,2.00782,0,0,0-.456.3809,1.613,1.613,0,0,1-.4522.4121c-.251.1455-.9814.4414-.8818.791.3711.27729,1.5557-.8008,1.8486-1.1348.0762-.08691.1035-.164.1934-.25291a4.29106,4.29106,0,0,1,.4844-.38089,4.09452,4.09452,0,0,0,.4228-.4687c.1963-.23341.8848-.6201.7598-.9697Zm-15.4199.1328-.1133-.1328c-.2803.0009-.4121.1045-.667.0361l-.5625.1025-.1631.0869-.3701-.0351-.0801.08689c.0371.124.083.10741.2021.18951l.3565-.126c.3252.0137,1.2148.0918,1.3975-.208Zm5.4638-.02051-.1113-.08789c-.5859.1836-1.2422.1933-1.8408.33789l.0029.16211c.2734.123.749-.127,1.0576-.1328.1778-.0039.2764-.1094.4727-.11331a.47689.47689,0,0,0,.4189-.166ZM9.8194,10.73653H9.7373l.0039.0782.0762-.003.002-.0752Zm3.2363-.0654-.0811-.0801c-.2558.0059-.9052.0215-.9843.3428.1757.1807.3388.0684.5527-.0166.1855-.0733.4248-.0576.5127-.2461Zm8.0869-.13381-.251-.11719c-.247.085-.7558.3828-.9511.4209-.1309.0254-.1475-.0332-.295.0401-.0517.0253-.1982.1084-.2412.1211-.1787.0527-.3672-.0655-.3818.3164.3232.4843,1.4932.082,1.9346-.1026.2226-.09371.5498-.0879.5478-.4004-.5088-.122-1.0674.4121-1.5898.4463-.0596.0039-.5235.0967-.5928.1231l-.0801-.127c.1416-.1601.4053-.0762.6074-.1455.3799-.1309,1.0957-.1836,1.293-.57521Zm9.9844-.13959c-.419-.002-.6875.26659-1.041.4365a1.31977,1.31977,0,0,0-.5391.9492c.2627.2568.5264-.252.6611.04389l-.1992.21881.0059.1055.1054.0615c.1436-.0391.1954-.1162.3262-.1533.1856-.0528.3242-.0381.3145-.2676l-.1358-.0557c-.1201.0283-.1924.0987-.3086.0166.0938-.21581.3545-.3467.5088-.5449l-.0263-.1025c-.2471-.0225-.4014.1601-.6622.2002l-.2617.1816-.1162-.002.0078-.1328c.128-.0966.2657-.0625.4024-.1562.2666-.1807.9365-.4541.958-.7988Zm-3.2608.0224-.1123-.1357a2.79891,2.79891,0,0,0-.9248.1933c-.2431.0821-.5576.0332-.8037.1729-.1181-.0039-.1357-.0342-.1972.05369a3.1522,3.1522,0,0,0,2.038-.28419Zm-2.958-.0781a6.519,6.519,0,0,0-1.0058.001c-.1231.0107-.2256-.0674-.3106-.083a1.02539,1.02539,0,0,0-.29.0664,1.79289,1.79289,0,0,1-.376.0146,2.5401,2.5401,0,0,0-1.1113.40429l.0449.10741a6.28224,6.28224,0,0,0,1.5146-.23141c.2735-.03129.5508-.04689.8194-.10059.2002-.041.2168.0742.3994-.0195.0986-.0508.251-.1201.3154-.1592Zm-9.0713-.1875-.2861.0059c-.3877.3896-.8574.205-1.335.3662a6.42447,6.42447,0,0,0-1.2568.4912l.0762.1308a1.441,1.441,0,0,0,.9756-.1865c.2099-.168,2.2666-.3984,1.8261-.8076Zm9.5176.13179c-.1015-.04679-.168-.06439-.1914.05371.0899.002.1338.0264.1914-.05371Zm5.3545,0-.0273-.11419a9.53383,9.53383,0,0,0-1.4121.4043c-.1485.0332-.2305.0644-.3682.1054-.1836.0547-1.1172.0274-.9678.4219.0977.2568,1.2354-.166,1.4473-.249a5.61032,5.61032,0,0,0,1.3281-.56841Zm-17.9883-.083c-.1826-.08589-.9209.27351-1.1308.37891l-.0401.1485.1065.0595a8.13691,8.13691,0,0,0,.9873-.4697l.0771-.11721Zm8.125-.122-.205-.01859c-.2081,0-.2071.1113-.4463.1123-.1358.0322-.1299.0488-.1973.165.1553.2979.9121-.0888.8486-.25871ZM13.166,10.091l-.1171-.01171-.1377.09571c.0966.1172.1933.0088.2548-.084Zm5.9971-.1396a.56583.56583,0,0,0-.5127-.0948,1.78666,1.78666,0,0,1-.5771.0098c-.2647.1494-.5459.0225-.7598.3125.3125.2861.999-.2295,1.2363.0449a.83487.83487,0,0,0-.5576.22849.76453.76453,0,0,0,.5996.06741l.0889-.2412a2.0955,2.0955,0,0,1,.4805-.1924l.0019-.1347Zm14.2324-.0938-.0947-.0166c-.0918.0596-.5176.5674-.4824.6778.1758.0546.2598-.1797.331-.3018.1289-.0508.2998-.2139.2461-.3594ZM19.7198,9.83032l-.0879-.03519v.03419l.0879.001Zm3.5429.12111c.3799-.0723.9209.208,1.2832-.0059l-.0195-.0967a3.76307,3.76307,0,0,1-1.291-.2363l-.3047.1221c-.0068.1884.1738.2168.332.2168ZM12.6924,9.673a5.24475,5.24475,0,0,0-1.3574.5391c-.3145.15919-.3975.0567-.6436.3037-.2002.2031-.3506.0381-.5849.4053l.0468.0937c.0508-.0039,1.2559-.5439,1.334-.5947a9.95261,9.95261,0,0,1,.9268-.5244c.1318-.06741.2617-.0937.2783-.2227Zm22.0322-.1113c-.2256.0039-.2812.31059-.4394.4805a4.173,4.173,0,0,0-.4346.5244l.0733.0801c.3437-.1973.2802-.4541.6406-.6602.0986-.1748.1601-.19921.1601-.4248ZM18.9395,9.49632c-.2696-.24019-.6651.03121-.9746.03811-.1787.00389-.7559.1006-.8174.2832.2265.13769.6611-.0752.9267-.0899a3.42188,3.42188,0,0,0,.8321-.1416l.0332-.08981Zm-3.2031-.04879c-.1377-.3184-.3936-.1407-.6729-.1094-.251.0283-.4609.3984-.1123.3906a1.41491,1.41491,0,0,0,.7852-.2812Zm12.2978-.0078c-.0703-.0918-.0781-.1602-.2227-.1807l-.1513.2617c.1972.05859.2793.1211.374-.081Zm4.2871-.0411c-.1299.002-.2959.0625-.2978.2159.1386.00679.2998-.03421.2978-.2159ZM24.7959,9.341c-.2051-.1543-.5625-.001-.8086-.0078-.2011.0225-.3261-.0078-.4238.1768l.0684.0771c.247.0039,1.0537-.00581,1.164-.2461Zm-1.9775-.09571-.0645-.09569a7.00619,7.00619,0,0,0-1.1318.22069c-.3818.09861-.7988.10061-1.1768.19141l.002.1348.1113.04.166-.0703.251.0957a11.461,11.461,0,0,0,1.8428-.51661Zm8.2246-.04689c-.2861.0352-.9717.0508-1.0088.3985l.0889.0547.3037-.2051a.71763.71763,0,0,0,.6162-.2481Zm-4.3516-.0556-.0615-.0811a.64647.64647,0,0,0-.5254.1348c.1084.208.3789.09079.5528.0244l.0341-.0781Zm7.9209-.168c-.2851.0049-.2177.0772-.3281.2861a6.84857,6.84857,0,0,1-2.1377,2.1846c-.2168.1475-.4199.4697-.6435.584-.1397.0723-.3184.0937-.3623.251-.0547.1953-.1153.2177-.2627.3506-.002.0019-.7725.4433-.7803.44619-.207.06651-.6944.295-.7559.5.3164.28721.5821-.02049.8535-.17869a2.51427,2.51427,0,0,0,.7178-.5381c.2539-.3925.9942-.7714,1.3926-1.1445.1855-.1738.5488-.4082.6953-.5596.1777-.1835.4258-.4589.6006-.6542.2392-.2657.334-.4805.542-.71391.1826-.20509.4765-.544.4687-.81349Zm-16.1484.0078c-.1904-.15231-1.3223.17969-1.2695.4571.1601.0947.4209-.1065.5742-.1846.3047-.1563.4551.0996.6943-.1231l.001-.1494Zm3.9629-.0967.0039-.05461-.1143-.10649c-.1552.001-.7168.2471-.9502.252-.455.0087-.542.249-1.0332.0761-.1318.0469-.1338.0508-.205.1846l.1543.1299c.1806-.0518.2929-.1338.4863-.1797.2431-.0596.3301.0557.5928-.0215.124-.0351.1015-.0781.2539-.0801.2041-.0039.706-.0263.8115-.2002Zm-6.2012-.18261c-.4443-.05859-.4766.09571-.8437.20021a3.463,3.463,0,0,0-.8487.2393c-.2519.1484-.4961.1142-.8174.27049-.1562.07521-.6718.22261-.7168.37111a15.186,15.186,0,0,0,1.6465-.4737c.291-.0341.1465.0518.4112-.1181a2.43879,2.43879,0,0,1,.7871-.3291c.1611-.0108.3379-.0137.3818-.16021Zm17.1328-.11809a.98142.98142,0,0,0-.3906.2226c-.1807.2002-.2393.1182-.3887.2578l-.0019.1328c.3349,0,.2558-.0488.4531-.24411.1104-.10939.3086-.23239.3281-.36909Zm-1.7578-.0557a2.118,2.118,0,0,0-.7363.2402,2.39025,2.39025,0,0,1-.3867.086c-.1768.0332-.2344.1103-.3662.1367-.3721.0723-.9073.0117-1.2247.2578-.1474.1152-.247-.0371-.3593.08109-.0684.07221-.0596.21971-.167.30851-.1709.1397-.6338.0987-.8487.126-.3847.0508-.7128.3428-1.1259.35349-.1944.00491-.7051.03421-.7852.22561l.0752.0938a4.48441,4.48441,0,0,0,1.6123-.2813,2.59137,2.59137,0,0,1,.7725-.1767,3.25811,3.25811,0,0,0,.9795-.1416l-.0166-.0987c-.1621-.04-.3018.044-.4258-.07711-.0274-.15629.0849-.23149.2178-.294a7.03272,7.03272,0,0,0,1.5371-.248c.2783-.04589.4423-.18459.6875-.23239.2334-.0469.4873-.0957.5605-.3594Zm-3.0391-.084a5.57981,5.57981,0,0,0-1.3632.1436c-.1377.0234-.1504.07219-.3096.08-.1309.0069-.2568-.0312-.3545-.0224a4.501,4.501,0,0,0-.7012.0869c-.4502.0986-.9384-.0606-1.3906.1113a9.33569,9.33569,0,0,1-1.3516.1582l-.0234.1123a13.20988,13.20988,0,0,0,2.8926-.1465,7.45587,7.45587,0,0,1,1.4043-.1865,1.88733,1.88733,0,0,0,.6377-.1435c.1992-.0782.498.1435.5595-.1934Zm-3.3798.0254c-.1885.0049-.3584-.05961-.5479-.0479l-.0664.0772.0225.1006a.75471.75471,0,0,0,.5918-.1299Zm4.5224-.0254-.1416-.0908c-.1338.0488-.5146.1064-.5947.206l.0742.1045c.1826.0078.5762-.0361.6621-.2197Zm-9.7392-.0273-.1885-.0557a2.241,2.241,0,0,0-1.0537.3555,1.59942,1.59942,0,0,0,1.2422-.2998Zm3.0478-.168a4.41,4.41,0,0,0-1.707.3076c-.2061-.0576-.4102-.06351-.5195.1504.6748.0498,1.3066-.3232,1.9746-.2617.2002-.0078.2451.0107.2519-.1963Zm7.2822.1162c-.0908-.0439-.1328-.03911-.1992.0537l.1172.03219.082-.08589Zm-14.2851-.0869-.082-.0606c-.1055.0323-.8301.3145-.8985.35939-.2549.167-.7597.16121-.831.42391l.1416.0029a3.01459,3.01459,0,0,1,1.3095-.4199,1.6179,1.6179,0,0,0,.3604-.3057Zm.4912-.1318-.1064-.0811-.168.1318.1572.08889.1172-.13959Zm10.5811-.0372-.1202-.0361-.0673.1133c.0898.0645.0498.041.1533.001l.0342-.0782Zm-9.2286-.0263-.0341-.082c-.1182-.00591-.1446-.0118-.2237.081l.0684.1104.1299-.003.0595-.1064Zm6.9747.07809c.208.02151.207.06541.3955-.03809l-.0723-.122c-.1074-.003-.2149-.004-.3223.0019l-.0644.082.0635.07619Zm6.3544-.13479c-.1611,0-.3681.01179-.4394.1875a.31287.31287,0,0,0,.4394-.1875Zm-8.6738-.0908v-.0771h-.5849c-.2383,0-1.2334.1494-1.1241.4648l.1485.00689.2461-.11139c.2724.0703.3603-.0595.6279-.1269.206-.0508.5557-.0176.6865-.1563Zm7.8652-.0771c-.2714-.003-.582.0625-.8388.0849a6.08074,6.08074,0,0,1-1.4473-.03121,2.90821,2.90821,0,0,1-.8144.10841l-.1065.1172a1.48134,1.48134,0,0,0,.9307.0371,2.57586,2.57586,0,0,1,.4638.0185c.3223,0,.6885-.0576,1.004-.0556.2304.0009.8037.0205.8085-.2793Zm-13.1679-.0205c-.1592-.01081-.3906-.0274-.4463.1689a.311.311,0,0,0,.4463-.1689Zm14.1084-.167a.46015.46015,0,0,0-.4951.1338.37536.37536,0,0,0,.4951-.1338ZM19.6924,7.58132c-.1113-.05279-.958.11521-.998.32811.2002.1377.8994-.1397.998-.32811Zm-1.5566-.01959c-.2373-.0088-.626.043-.7578.2559l.3398-.0049.418-.251Zm7.5586,0c-.2832-.126-.5567-.0107-.8516-.0791l-.2129.1543-.0059.0606.0674.0761c.3116.0078.584-.1455.8907-.1318l.1123-.0801Zm-2.1534-.1201a2.80107,2.80107,0,0,0-1.5839.0059c-.2061.0322-.5157.1709-.7178.206-.1113.0195-.2373-.0097-.377.0069-.1484.0166-.2724.0498-.416.0605a5.07564,5.07564,0,0,0-.6797.2129c-.1562.0332-.2343-.0274-.3926.0547a1.2852,1.2852,0,0,1-.3554.1181,4.95692,4.95692,0,0,0-1.3545.4883l-.0078.1299c.1338.0947.5058-.084.6621-.14751.914-.372,1.8926-.56339,2.8369-.84369a10.94663,10.94663,0,0,1,1.1963-.11431,1.40883,1.40883,0,0,1,.4082-.00679,2.06543,2.06543,0,0,0,.7812-.1709Zm4.2637.1699c.1904-.0039.3721.0244.5625.0244l.2803-.14161a.93317.93317,0,0,0-.4492-.05269c-.2168,0-.2735-.1221-.4483-.1699-.1494.1123-.0879.2529.0547.3398Zm2.2402-.1386-.1142-.1182c-.2383.0098-.252-.0918-.502.0605a1.51305,1.51305,0,0,0-.7304.07909c.2109.31551.915.02931,1.2607.03421l.0859-.0556Zm-11.5283-.0547-.1572.0009-.0596.07519c.1192.00491.1553.03321.2168-.07609Zm.5274-.1368c-.1055-.07711-.1543-.0078-.1553.0997.1631.0097.1064-.01181.1553-.0997Zm15.9892-.0849-.1318.0117-.0039.124.123-.0195.0127-.1162Zm-3.9629.04979-.0634-.08789c-.2442.0322-.6016.0098-.751.2373a.73816.73816,0,0,0,.8144-.14941Zm-9.667-.02639c-.164-.164-.3408-.05561-.5009.0088a2.09022,2.09022,0,0,1-.5948.1045l-.0615.1162c.1758.1055.3203-.0303.5049-.0644a1.44758,1.44758,0,0,0,.6523-.1651Zm.2422-.039-.1093.0029.1093-.0029Zm.3047-.0967c-.1006.001-.1094-.001-.1328.07809l.1318-.00489.001-.0732Zm7.0801,0-.2314.0117-.0215.0771c.1054.0401.2558.087.2529-.0888Zm-3.1738.07809c.1631.04.292.10841.4453-.02729-.2354-.1631-.377-.0284-.6133-.0284.0596.0879.0391.05569.168.05569ZM35.9512,7.051c-.1289.0117-.1328.082-.1816.208a1.41716,1.41716,0,0,0-.4815.8848l-.1767.2451.0576.083c.2011-.0127.2568-.4424.3349-.6123a4.0907,4.0907,0,0,0,.3252-.6524c.1221-.0547.0996-.04391.1221-.1562Zm-14.7578-.2461c-.1455-.0225-.2793-.0879-.336.0898.1045.0401.3321.085.336-.0898Zm7.3955.02339a.77565.77565,0,0,0,.4541-.05759l-.041-.1328-.1094-.04-.248.0908a.54868.54868,0,0,0-.4385.0351c.0469.0801.2656.10449.3828.10449Zm-.8086,0c.1035,0,.1367-.03119.1455-.125l-.2842-.12789-.1963.085c.0371.1367.208.16789.335.16789Zm3.3682-.10149a.4169.4169,0,0,0,.2802.0673l.0655-.0791-.0381-.1054-.1944-.0694-.1367.0733.0235.1133Zm-8.2979-.18851a1.77194,1.77194,0,0,1-.5605.09081.73876.73876,0,0,0-.502.1074l.3311.0352c.1103.0127.1767-.0557.334-.0557a.917.917,0,0,0,.538-.0976l-.1406-.08011Zm1.6348.26071.1308-.0156.1797-.0996a.2051.2051,0,0,0,.291-.0547l-.0752-.1055a1.13676,1.13676,0,0,0-.6425.0694l.1162.206Zm1.625-.1914-.0664-.11031-.1582-.001-.0879.13961a.2975.2975,0,0,0,.248.0469l.0645-.0752Zm6.5459-.5-.1094-.0068-.1689.0947.039.124c.1074-.0146.2403-.083.2393-.2119Zm2.2959-.4736-.042-.1113c-.085.05859-.1328.1211-.0606.2168l.1026-.1055Zm-.5069-.1162c-.1416.0117-.331.4433-.3349.5849.2021-.0175.2119-.1933.2304-.35541.086-.08689.1661-.11039.1045-.22949Zm1.917-.1602c-.1826.1035-.332.2949-.1806.4873.1884.0039.2236-.4365.1806-.4873Zm-.8271-.1416-.0967-.01171-.04.127.124.00091.0127-.1162Zm.5654-.0801-.1035.0088c-.0293.0957-.0391.0625.0566.1328l.0469-.1416Zm2.1377-.1152c-.1289.001-.1416.0391-.1299.168l.126-.06841.0039-.09959Zm-2.5391-.2236h-.081l.0029.0771.0772-.00291.0009-.07419Zm-.8125-.0557c-.1005.0195-.1289.0801-.1298.1856.0966-.0196.1318-.0801.1298-.1856Zm-.5312-1.0459-.124-.001-.0039.1514.1269-.0205.001-.1299Zm1.2051-.8271-.0117-.126-.1534.1318.002.16309-.0869.25291.0927-.0224c.0284-.085.1573-.3653.1573-.3994Zm2.2031-.0235a.20641.20641,0,0,0,0-.2881l-.1035.0674c-.0117.1172.0117.1494.1035.2207Zm3.4121-.4638-.0732-.1172-.1358.1015.0674.1026.1416-.0869Zm1.8037.0966.4737.0274v.0928c-.6631-.0079-1.3174.0185-1.9795.0185-.17,0-.7325.0537-.8301.1768a.56759.56759,0,0,0,.1377.3154c.2646-.07031.0195-.23631.4502-.19631.0791.00681.5058-.07029.6308-.07319a3.45277,3.45277,0,0,0,.6494-.0479,4.86511,4.86511,0,0,1,.9688-.0068c.6494,0,.3379-.2842.6475-.2696l-.0635.128.0068.1123.1641.0928.584-.0635a3.50988,3.50988,0,0,1,1.4502.1191l.1416-.0361-.0215-.0918a1.58785,1.58785,0,0,0-.4981-.1192c-.2578.043-.247-.1162-.4843-.125-.3067-.0107-.6006-.0527-.9034-.07511-.1279-.00979-.1211.05661-.2724.04981l-.0586-.1592c-.2891-.0557-.3965.1201-.7158.0156-.1133-.0381-.1748-.1484-.2969-.0986-.1953.081.0166.10539-.2686.0508a2.86945,2.86945,0,0,0-.7217.0253c-.1699,0-.5693-.1455-.6933.02929a.73417.73417,0,0,0,.6367.02051,2.7106,2.7106,0,0,0,.8662.0879Zm-2.8242-.4248a.39454.39454,0,0,0-.3398-.35061l-.0098.212c.0664.05071.2744.19141.3496.13861Zm-1.1191-.0537c.0839-.0732.0712-.0595.0566-.1533-.292-.1543-.3936-.2549-.7393-.1455-.1933.0625-.6025.1396-.4863.4834.1436.02149.1631-.14551.3428-.2363a.79285.79285,0,0,1,.8262.0517Zm-3.1856-.459.1416-.2548a.39232.39232,0,0,0-.375.3554l.2334-.1006Zm2.2852-.33691c-.1172-.27829-.9092-.02929-1.1299.042-.2735.08891-.4658.51951-.6983.69631a4.96241,4.96241,0,0,0-.747,2.042c.3115-.0371.4922-1.2568.8642-1.4785l.0674.0469c.044.2656-.7217,1.0332-.5967,1.4902L36,4.03243c.124-.1543.0655-.2246.1377-.3926.0918-.2128.1631-.1347.2617-.2714l-.0087-.2266.2841-.2998c.1797.11329-.0752.4551-.205.5449-.0547.2022.04.1465-.0831.3633a2.23507,2.23507,0,0,0-.2119,1.1533c.1953-.0527.1016-.2861.4463-.4785.1035.0645.0664.043.1446.1445l-.2901.4717.0225.1299.1269.0205.128-.07131c.0332-.289.0253-.28609.2568-.41309.2822.1299-.1104.3955-.1025.6465l-.0918.3027c.288-.07611.4443-.6367.7636-.6904.2305-.0371.209.1992.4522-.1572.0703-.10251.2265-.3643.3437-.3818l.1221.1591c.2119-.0156.2803-.4257.4736-.2099l-.0547.1914c.1592.0859.9112-.8145,1.0508-1.03031.0879-.13279.0928-.40139.2481-.46779.1211.1993-.1075.3526.0849.4424a6.79539,6.79539,0,0,0,.3047-.7265c-.0644-.1836-.1494-.1192-.2295-.2413-.0869-.1337.0078-.2587-.1816-.3105-.249.167-.3164-.001-.3799-.2744l-.2646-.0401-.0528.085c-.0234.3613.3281.4316.0899.9014-.0879.17379-.3496.58879-.5752.5332-.0625-.2041.2314-.1055.3056-.4698.0342-.166.0635-.5888-.0937-.6933-.0498.2822-.001.7041-.2862.8721a.95447.95447,0,0,1-.3916.1679c-.29-.0107-.5488-.3437-.7529-.3916,0,.4014.4619.5811.8125.4942l.1944.0947c-.0899.541-.7979-.0879-.9688-.1807-.1875-.1015-.373-.1806-.3076-.455.084-.3526.1133-.252-.041-.6202.0254-.2959.3603-.4961.292-.7099-.1534-.05081-.1993.07519-.378.0996l-.08-.0869c.1601-.31251.5634-.1963.8203-.35651ZM36.4483.83713a.19143.19143,0,0,0-.2129.1856c.1435.0078.2207-.0352.2129-.1856Zm2.2861-.1103c-.2158-.0987-.2549.0498-.4443-.0323a1.09469,1.09469,0,0,0-.4981-.0576,1.92381,1.92381,0,0,0-1.499.6475,3.68519,3.68519,0,0,0-.7324,1.416c.2226-.0742.7715-1.2217,1.1426-1.4785a1.43826,1.43826,0,0,1,.9199-.39061c.1054-.001.5468-.02149.6318-.03719.3389-.0664.2227.1748.4941.07519L38.7344.72683ZM38.711.50413l.0547-.0469-.0518-.0498-.0566.04889Z"/>
      </g>
    </g>
  </g>
</svg>
