<svg xmlns="http://www.w3.org/2000/svg" xmlns:xlink="http://www.w3.org/1999/xlink" width="519.92902" height="304.5508" viewBox="0 0 519.92902 304.5508">
  <defs>
    <style>
      .cls-1 {
        fill: none;
      }

      .cls-2, .cls-5 {
        fill: #261211;
      }

      .cls-13, .cls-3 {
        fill: #231f20;
      }

      .cls-4, .cls-6 {
        fill: #e2b459;
      }

      .cls-10, .cls-11, .cls-12, .cls-13, .cls-14, .cls-15, .cls-5, .cls-6, .cls-9 {
        fill-rule: evenodd;
      }

      .cls-7 {
        clip-path: url(#clip-path);
      }

      .cls-8 {
        clip-path: url(#clip-path-2);
      }

      .cls-9 {
        fill: #442300;
      }

      .cls-10 {
        fill: #f7b000;
      }

      .cls-11 {
        fill: #db9700;
      }

      .cls-12 {
        fill: #eae2b8;
        opacity: 0.6;
      }

      .cls-14 {
        fill: #a6a8ab;
      }

      .cls-15 {
        fill: #fffbd4;
      }

      .cls-16 {
        fill: #212121;
      }

      .cls-17, .cls-19, .cls-20 {
        fill: #fff;
      }

      .cls-17, .cls-18 {
        opacity: 0.1;
      }

      .cls-20 {
        opacity: 0.2;
      }
    </style>
    <clipPath id="clip-path" transform="translate(1.7072)">
      <path class="cls-1" d="M263.13022,66.9922s10.5664-7.4736,13.7617-14.0322c0,0,8.1426,5.8125,14.2285-2.3262a14.4616,14.4616,0,0,0,13.582-3.5117s4.3672,4.414,12.0586-.9756c0,0-.7685,7.4219,11.38872-.5723,0,0,3.419.7569,2.92088,2.8614,0,0,11.0996-7.2286,10.7188-.8399,0,0,9.6132-2.3428,8.8779,3.4102,0,0,14.1338-4.1016,14.0019,2.5791,0,0,12.7354-5.4785,14.1358,1.2568,0,0,14.71582-3.0088,12.1435,5.6514,0,0,12.54892-3.6631,11.57722,5.7353,0,0,12.0752-4.4931,12.4658,6.5752,0,0,11.2617-3.3906,10.6914,10.2549,0,0,8.0068,2.3594,4.5195,11.7227,0,0,2.9434,3.7832-.622,10.6211,0,0,2.6025,6.7509-1.9043,9.7646,0,0,2.7177,15.6397-16.377,17.6641,0,0-22.75682,3.6611-19.85152,16.1494Z"/>
    </clipPath>
    <clipPath id="clip-path-2" transform="translate(1.7072)">
      <path class="cls-1" d="M.12923,202.7354c.5332,3.1836,3.0889,5.2011,5.4561,6.7773,15.22941,10.1807,31.85741,17.0938,48.7783,22.1699,53.5,16.0362,109.47949,13.8672,164.61129,11.5987,55.3242-2.2813,111.8945-4.8575,163.4297-29.0479,21.72952-10.2109,44.083-24.4521,67.04982-19.4951,2.8047.6064,5.623,1.5039,8.4775,1.2705,7.793-.6484,13.544-9.8603,14.6016-19.124a51.261,51.261,0,0,0-1.0703-16.2188c-.7608-3.7734-1.7871-7.5215-2.7969-11.1972-1.0029-3.6338-2.0762-7.4112-3.9111-10.4844a15.21738,15.21738,0,0,0-2.1895-2.9033c-5.2207-5.3692-12.9277-4.3799-19.8086-4.4873-25.1621-.3975-46.6709-18.8496-68.92772-33.8409-3.8311-2.5859-7.6934-5.0683-11.6025-7.3369a163.605,163.605,0,0,0-22.7198-10.8506c-8.1103-3.1875-16.3857-5.8222-24.68838-8.165q-10.45758-2.9604-21.02152-5.3213-18.55515-4.188-37.3467-6.5185a389.24637,389.24637,0,0,0-45.2227-2.9746,383.48145,383.48145,0,0,0-38.3808,1.6142q-10.69635.9741-21.3457,2.5625c-9.292,1.3809-18.6367,3.1279-27.3379,7.2686-8.6758,4.1289-16.4512,10.5263-24.084,16.9648q-36.32218,30.624-70.84859,64.1758-7.9044,7.69185-15.7198,15.5195a6.67339,6.67339,0,0,0-2.1367,3.3321c-.4053,2.1982,1.0635,4.1875,2.4258,5.747,6.9463,7.9658,13.63961,16.3291,21.083,23.6455a37.89591,37.89591,0,0,1-6.2803.2217c-5.8095-.2461-11.2529-1.6904-17.1855-2.9785C7.261,193.7656-1.14026,195.1192.12923,202.7354Z"/>
    </clipPath>
  </defs>
  <g id="图层_2" data-name="图层 2">
    <g id="Layer_1" data-name="Layer 1">
      <g>
        <g>
          <g>
            <g>
              <path class="cls-2" d="M517.28554,104.5635c-6.2686-25.5293-11.9434.3652-55.9151,23.706a49.7649,49.7649,0,0,1-14.8516,4.8721v60.334c8.1358,2.3779,16.9385,7.4092,25.8428,16.7266,13.083,13.6875,17.3789,22.9228,24.8233,31.8398,8.1572,9.7617,18.664,5.1865,17.664-9.1396C509.98474,162.8965,521.47,121.5733,517.28554,104.5635Z" transform="translate(1.7072)"/>
              <path class="cls-3" d="M517.28554,104.5635c-5.0264-20.4619-9.6856-7.8887-33.9717,9.9307,4.0595-1.8155,16.1308-7.1133,20.2539-7.8682,4.6133-.8486,7.4492,2.9697,7.8017,11.0351.3565,8.0645-3.8115,40.7549-4.2597,60.2754-.6992,31.4151,4.2597,51.793-.3526,56.0401-4.2129,3.8779-10.7773,3.8017-15.9414-.4473,2.0567,2.9492,4.0596,5.7432,6.3692,8.5127,8.1572,9.7617,18.664,5.1865,17.664-9.1396C509.98474,162.8965,521.47,121.5733,517.28554,104.5635Z" transform="translate(1.7072)"/>
              <path class="cls-4" d="M469.05114,141.8584s37.5927-1.415,42.3222-.2851a18.10476,18.10476,0,0,1,4.8887,1.9521c.2676-3.0791.5244-6.0439.7627-8.8144a28.4778,28.4778,0,0,1-10.3809,4.3212C500.96324,139.876,469.05114,141.8584,469.05114,141.8584Zm-.4737,10.4727s37.8331,2.5478,42.5538,3.6748c1.5058.3633,2.8613.7177,4.0429,1.0381.2217-2.9932.4453-5.8614.6748-8.628a56.94972,56.94972,0,0,1-8.498,3.3487C503.09114,153.1817,468.57744,152.3311,468.57744,152.3311Zm39.959,13.0156c-5.6787.8506-38.541-2.5488-38.541-2.5488s36.4151,3.9629,39.251,5.3798a47.8427,47.8427,0,0,1,5.0752,3.1124q.23145-4.8999.5371-9.4668C514.61944,162.417,513.43194,164.6172,508.53644,165.3467Zm9.5821-54.1289a35.33858,35.33858,0,0,0-.833-6.6543,37.13436,37.13436,0,0,0-2.3311-7.1192c-.8916,3.2686-3.6377,8.8917-12.0967,14.417-6.5869,4.3038-35.2236,18.1104-35.2236,18.1104s34.9902-15.001,40.9023-17.2598A21.0457,21.0457,0,0,1,518.11854,111.2178ZM502.386,180.0606c-6.8545.8525-33.5722-5.0928-33.5722-5.0928s30.2656,7.3584,34.9922,9.3408a54.91956,54.91956,0,0,1,9.8994,6.0508c.0771-5.1104.1972-10.0733.3965-14.749A27.49152,27.49152,0,0,1,502.386,180.0606Zm4.4952,16.4179c-4.9659-1.1299-37.1241-14.4355-37.1241-14.4355s28.3838,13.0185,31.6875,16.1328c3.1436,2.96,9.6582,7.6943,12.3379,11.3164q-.1845-7.57185-.1387-14.5967C513.22694,195.4043,511.24444,197.4717,506.88124,196.4785Zm4.9638-75.5625c-4.4941,1.6973-42.7939,13.0137-42.7939,13.0137s29.0898-7.9033,35.4638-8.4873c9.2256-.8506,12.5323,4.5293,12.5323,4.5293l.4199-.6992c.4795-5.9199.7568-11.0147.7236-15.3428C518.01884,114.4053,516.11464,119.2979,511.845,120.916Zm1.8955,93.1045s-.7158,1.1338-6.8593-1.415c-6.1456-2.5459-38.5381-22.0703-38.5381-22.0703s30.0254,20.373,33.1015,24.334c2.4619,3.1748,10.2149,11.414,13.209,14.5781-.29-4.6065-.5049-9.0742-.6611-13.4278Zm-47.0547-17.2646s30.7422,30.2851,33.335,36.2265c1.376,3.1358,2.415,8.8614,3.0947,13.5772,4.8741,1.9004,9.4532-.5469,11.1289-6.5166-1.9941-1.3701-10.373-7.2588-14.9336-12.7168C494.11464,221.0957,466.68584,196.7559,466.68584,196.7559Z" transform="translate(1.7072)"/>
              <path class="cls-4" d="M501.23084,236.6602a95.06224,95.06224,0,0,1,1.8847,9.8994,7.67794,7.67794,0,0,0,6.6836-.2686c.0703-.04.1406-.0937.2188-.1386a7.64815,7.64815,0,0,0,1.1093-.8184,3.46458,3.46458,0,0,0,.2803-.2617,7.84549,7.84549,0,0,0,.9033-1.0313c.087-.1142.1827-.2256.2579-.3476a10.39621,10.39621,0,0,0,.7753-1.335c.0577-.1172.125-.2217.1719-.3418a13.63834,13.63834,0,0,0,.7285-1.9736c-1.1416-.7803-4.3652-3.0557-7.7588-5.8613A10.65553,10.65553,0,0,1,501.23084,236.6602ZM511.845,120.916c-.1435.0518-.3428.1172-.5146.1758-.0557,1.4072-.1621,3.0674-.294,4.9258a11.02975,11.02975,0,0,1,6.0108,3.9541l.4199-.6992c.0986-1.2256.1865-2.3975.2656-3.5518.0342-.4228.0586-.8349.082-1.2549.2559-3.9121.3995-7.4277.376-10.5361C518.01884,114.4053,516.11464,119.2979,511.845,120.916Zm1.8955,93.1045s-.6621.9238-5.5322-.9023c.248,3.7969.4434,7.1406.5098,9.9844,2.3271,2.5244,4.6025,4.9394,5.9355,6.3447q-.435-6.90975-.6611-13.4297Zm-5.2549-58.5127c1.0508.168,1.9668.3418,2.6456.4981,1.5058.3633,2.8613.7177,4.0429,1.0381.1983-2.6514.3936-5.1866.5928-7.6534.0293-.2841.0478-.5713.0723-.8525.0058-.0459.0058-.0811.0097-.1221a52.962,52.962,0,0,1-6.997,2.8457C508.72784,152.6709,508.60774,154.0889,508.48564,155.5078Zm-1.1914,41.0313c.0948,2.3984.2002,4.7109.3243,6.8994a41.74259,41.74259,0,0,1,6.164,6.0537c-.042-1.7168-.0674-3.3809-.0849-5.0576-.0196-1.5938-.0381-3.1748-.043-4.7354-.0049-1.5937-.0147-3.1953-.0108-4.7597v-.044C513.24444,195.3926,511.35484,197.3086,507.29424,196.5391Zm6.4112-6.3272c.04-2.3701.0771-4.709.1484-6.9814.0576-2.5996.1436-5.1553.2481-7.6201a27.608,27.608,0,0,1-7.001,3.3906c-.044,2.3877-.0547,4.6992-.0391,6.956a72.89487,72.89487,0,0,1,6.6436,4.4024Zm-3.9678-48.9199c.6289.085,1.1973.1777,1.6357.2813a18.10476,18.10476,0,0,1,4.8887,1.9521,1.351,1.351,0,0,0,.0147-.1641c.2607-3.0175.5097-5.9316.748-8.6503a32.19607,32.19607,0,0,1-7.0068,3.4746C509.92124,139.207,509.83134,140.2451,509.73764,141.292Zm8.3809-30.0742c-.0518-1.2412-.1465-2.4229-.2754-3.5235a27.32071,27.32071,0,0,0-.5576-3.1308c-.1749-.7363-.3545-1.4102-.5381-2.0606-.0362-.1386-.0801-.2773-.1172-.4199-.1426-.4951-.2822-.9726-.4297-1.417-.042-.1377-.0859-.2666-.1328-.3974-.1485-.4512-.3008-.8741-.4522-1.2715-.0283-.0869-.0615-.1738-.0947-.2549-.1865-.4697-.3721-.9082-.5664-1.2979-.6729,2.459-2.3945,6.2637-6.8213,10.3487a8.8603,8.8603,0,0,1,2.3887,4.2549A20.1171,20.1171,0,0,1,518.11854,111.2178Zm-9.5821,54.1289c-.2568.0371-.5371.0674-.8125.1006-.0478.7246-.0859,1.4258-.1299,2.1367a10.17944,10.17944,0,0,1,1.6524.5937,47.8427,47.8427,0,0,1,5.0752,3.1124v-.042q.23145-4.7916.5273-9.2754c0-.044.0098-.1006.0098-.1494C514.61944,162.417,513.43194,164.6172,508.53644,165.3467Z" transform="translate(1.7072)"/>
            </g>
            <g>
              <path class="cls-2" d="M139.42312,241.3672s9.9297,63.1836,37.503,63.1836c27.5801,0,30.0302-27.0703,25.375-40.0723-6.6182-18.4843-25.375-21.5713-25.375-21.5713Z" transform="translate(1.7072)"/>
              <path class="cls-4" d="M158.471,276.499c-6.9395-11.4433-16.5264-32.6093-17.6318-35.0742l-.0391-.0019c.7559,2.4941,8.5127,27.5839,19.6719,46.497a97.38462,97.38462,0,0,0,11.5498,15.9317,17.59054,17.59054,0,0,0,4.9043.6992,36.22015,36.22015,0,0,0,5.5302-.4414C177.26792,300.5342,168.29522,292.6797,158.471,276.499Zm44.791-8.5537a21.96126,21.96126,0,0,1-12.3974-1.542c-6.875-2.916-34.6055-21.5078-34.6055-21.5078s27.7305,24.9678,32.834,27.0879c4.0683,1.6953,11.9228,5.7383,14.9521,7.3164A38.25286,38.25286,0,0,0,203.262,267.9453Zm-56.9912-25.1758s15.5313,27.6221,26.4014,39.837a246.21869,246.21869,0,0,1,15.9463,19.833,22.6649,22.6649,0,0,0,8.4677-5.794,86.875,86.875,0,0,1-21.5293-16.6943C165.35774,268.7998,146.27082,242.7695,146.27082,242.7695Zm4.4375.5332s15.9795,20.7129,28.6201,33.9971c9.1592,9.6104,16.7822,14.1973,20.2998,16.0069a29.15425,29.15425,0,0,0,3.8321-9.8555c-2.667-.5391-9.3907-2.1074-14.3672-5.0918C174.89192,269.8633,150.70832,243.3027,150.70832,243.3027Zm50.6846,19.0088a31.95262,31.95262,0,0,0-5.835-8.9834,38.81175,38.81175,0,0,1-9.125-.7314c-9.32318-1.8613-22.4121-7.4356-22.4121-7.4356s11.0938,8.2305,19.2988,12.4815C189.764,260.9785,198.09312,262.0215,201.39292,262.3115Z" transform="translate(1.7072)"/>
            </g>
            <path class="cls-2" d="M325.70932,227.4785s18.8428,25.1084,35.5937,33.584c23.459,11.875,25.6006-.1846,29.8545-15.2646,6.25492-22.1299,15.25392-25.0391,15.25392-25.0391s-22.19532-6.8291-36.164-2.3984C356.29132,222.7979,325.70932,227.4785,325.70932,227.4785Z" transform="translate(1.7072)"/>
            <path class="cls-4" d="M382.431,246.8887c-4.86528-2.1172-41.6934-21.0977-41.6934-21.0977s22.9102,14.0957,31.6885,18.6826c7.5127,3.9258,13.51462,8.8946,15.5898,11.712,1.0215-2.7129,1.8779-5.8262,2.7901-9.1084A12.398,12.398,0,0,1,382.431,246.8887Zm4.7285-8.961c-4.9414-1.6064-36.9004-12.5185-39.2246-13.5605,0,0,16.1181,8.3223,25.3496,11.3887a116.30037,116.30037,0,0,1,18.3828,8.3926c.6113-2.0342,1.2471-3.9512,1.90142-5.6485A12.12172,12.12172,0,0,1,387.15952,237.9277Zm-55.916-11.2773a222.73591,222.73591,0,0,0,41.8173,30.1055c5.1827,2.8613,7.2373,5.8828,7.9756,8.2207a11.72006,11.72006,0,0,0,5.6338-5.794,74.75292,74.75292,0,0,0-17.8291-10.3525C352.54332,241.8203,330.34112,225.9815,331.24352,226.6504ZM377.60092,222c6.7744.6455,20.58882,2.1914,21.999,4.1152a2.3531,2.3531,0,0,0,.3369.3438,22.71942,22.71942,0,0,1,3.6631-3.9043C399.90564,222.5195,384.75422,222.3486,377.60092,222Zm0,0c-2.2354-.2119-3.71-.3271-3.71-.3271A24.82554,24.82554,0,0,0,377.60092,222Zm-18.3535,1.1133s29.7646,7.4727,33.6367,10.1885a9.23448,9.23448,0,0,1,2.05662,1.8623,48.05746,48.05746,0,0,1,3.2217-6.0987c-2.2266.2188-6.19432.4551-8.87692-.3056C385.38992,227.6494,359.24742,223.1133,359.24742,223.1133Z" transform="translate(1.7072)"/>
            <g>
              <path class="cls-5" d="M148.27282,61.4844S168.43392,8.6182,184.75422,0c0,0,3.1172,14.3652,17.7578,9.1953,0,0,2.6406,13.7901,19.68072,10.0567,0,0,6.24018,15.8007,20.88078,10.0537,0,0-.4824,8.6181,13.4395,10.3428,0,0-6.4805,15.8037-3.3604,20.1123Z" transform="translate(1.7072)"/>
              <g>
                <path class="cls-6" d="M175.07062,33.0772c7.874-14.3858,17.919-24.7813,24.6943-31.6817-6.4834,8.1631-14.5029,18.4297-22.124,32.4971-7.2353,13.498-12.6084,27.7373-16.8896,39.2822C163.70542,62.041,167.30692,47.6143,175.07062,33.0772Z" transform="translate(1.7072)"/>
                <path class="cls-6" d="M188.48374,32.6651c7.873-14.3858,17.92088-24.7813,24.69818-31.6758-6.4863,8.1621-14.5048,18.4267-22.1279,32.4951-7.2344,13.4971-12.6055,27.7363-16.8877,39.2793C177.11942,61.6299,180.71612,47.2041,188.48374,32.6651Z" transform="translate(1.7072)"/>
                <path class="cls-6" d="M199.81874,35.0332c7.874-14.3877,17.91988-24.7803,24.69228-31.6797-6.48428,8.1621-14.5009,18.4258-22.122,32.4991-7.2354,13.4951-12.6084,27.7363-16.8887,39.2792C188.45542,63.9981,192.054,49.5723,199.81874,35.0332Z" transform="translate(1.7072)"/>
                <path class="cls-6" d="M213.49932,38.6152c7.874-14.3876,17.919-24.7812,24.69442-31.6757-6.48642,8.1601-14.503,18.4238-22.125,32.4951-7.23742,13.4951-12.60752,27.7363-16.88972,39.2793C202.13412,67.5801,205.73174,53.1543,213.49932,38.6152Z" transform="translate(1.7072)"/>
                <path class="cls-6" d="M224.09992,43.3223c7.874-14.3887,17.9189-24.7783,24.6924-31.6787-6.4805,8.1631-14.502,18.4267-22.1211,32.5-7.2344,13.4941-12.6094,27.7314-16.8906,39.2773C212.73474,72.2861,216.33622,57.8633,224.09992,43.3223Z" transform="translate(1.7072)"/>
                <path class="cls-6" d="M232.41052,48.4502c7.872-14.3896,17.9199-24.7812,24.6923-31.6797-6.4824,8.1602-14.5009,18.4248-22.12108,32.4971-7.23432,13.498-12.60742,27.7353-16.88962,39.2803C221.04522,77.4141,224.64382,62.9873,232.41052,48.4502Z" transform="translate(1.7072)"/>
                <path class="cls-6" d="M243.63212,52.9434c8.6153-13.7647,19.1905-23.376,26.31062-29.7549-6.89852,7.6582-15.44142,17.2978-23.78912,30.7676-7.9306,12.9228-14.042,26.7314-18.9238,37.9277C230.76492,80.9932,235.11652,66.8692,243.63212,52.9434Z" transform="translate(1.7072)"/>
                <path class="cls-6" d="M162.33722,31.6817c7.874-14.3897,17.919-24.7842,24.6934-31.6817-6.4825,8.1631-14.503,18.4268-22.1231,32.4971-7.2353,13.498-12.6084,27.7363-16.8896,39.2822C150.972,60.6426,154.57352,46.2197,162.33722,31.6817Z" transform="translate(1.7072)"/>
              </g>
              <path class="cls-2" d="M266.64874,64.6406s10.56638-7.4726,13.76178-14.0332c0,0,8.1406,5.8155,14.2285-2.3281a14.46781,14.46781,0,0,0,13.582-3.5088s4.3662,4.416,12.0596-.9756c0,0-.7676,7.4209,11.3877-.5703,0,0,3.417.7549,2.9209,2.8584,0,0,11.0996-7.2295,10.7158-.8388,0,0,9.6142-2.3428,8.8799,3.4111,0,0,14.13182-4.1026,14,2.5771,0,0,12.7373-5.4804,14.1367,1.2598,0,0,14.71872-3.0088,12.14352,5.6484,0,0,12.5498-3.666,11.5772,5.7364,0,0,12.0762-4.4971,12.4687,6.5742,0,0,11.2588-3.3926,10.6866,10.2519,0,0,8.0097,2.3623,4.5234,11.7237,0,0,2.9414,3.7832-.6221,10.6269,0,0,2.6016,6.7471-1.9062,9.7608,0,0,2.7187,15.6396-16.375,17.666,0,0-29.03812,2.5449-26.13092,15.0322Z" transform="translate(1.7072)"/>
              <g class="cls-7">
                <path class="cls-4" d="M263.13022,66.9922s10.5664-7.4736,13.7617-14.0322c0,0,8.1426,5.8125,14.2285-2.3262a14.4616,14.4616,0,0,0,13.582-3.5117s4.3672,4.414,12.0586-.9756c0,0-.7685,7.4219,11.38872-.5723,0,0,3.419.7569,2.92088,2.8614,0,0,11.0996-7.2286,10.7188-.8399,0,0,9.6132-2.3428,8.8779,3.4102,0,0,14.1338-4.1016,14.0019,2.5791,0,0,12.7354-5.4785,14.1358,1.2568,0,0,14.71582-3.0088,12.1435,5.6514,0,0,12.54892-3.6631,11.57722,5.7353,0,0,12.0752-4.4931,12.4658,6.5752,0,0,11.2617-3.3906,10.6914,10.2549,0,0,8.0068,2.3594,4.5195,11.7227,0,0,2.9434,3.7832-.622,10.6211,0,0,2.6025,6.7509-1.9043,9.7646,0,0,2.7177,15.6397-16.377,17.6641,0,0-22.75682,3.6611-19.85152,16.1494Z" transform="translate(1.7072)"/>
                <g>
                  <path class="cls-5" d="M273.13512,90.9815c4.9013-16.168,12.68262-29.0479,17.9521-37.6241-4.7441,9.7266-10.5771,21.9219-15.292,37.7129-4.4512,15.127-6.9443,30.4629-8.89348,42.876C267.637,122.2988,268.37142,107.2666,273.13512,90.9815Z" transform="translate(1.7072)"/>
                  <path class="cls-5" d="M286.11062,86.8926c4.9014-16.168,12.6836-29.0508,17.9532-37.625-4.7432,9.7275-10.5752,21.9199-15.293,37.7139-4.4502,15.124-6.9424,30.4599-8.8936,42.8759C280.61462,118.207,281.344,103.1777,286.11062,86.8926Z" transform="translate(1.7072)"/>
                  <path class="cls-5" d="M297.597,86.0762c4.8994-16.168,12.6816-29.0479,17.9492-37.626-4.7432,9.7275-10.5762,21.9238-15.291,37.7149-4.4492,15.1269-6.9434,30.4628-8.8926,42.8759C292.09892,117.3897,292.83132,102.3643,297.597,86.0762Z" transform="translate(1.7072)"/>
                  <path class="cls-5" d="M311.59892,85.7969c4.9004-16.166,12.6817-29.0449,17.9502-37.626-4.7441,9.7295-10.5771,21.9258-15.2929,37.7188-4.4493,15.125-6.9424,30.4599-8.8936,42.873C306.09992,117.1143,306.83232,102.085,311.59892,85.7969Z" transform="translate(1.7072)"/>
                  <path class="cls-5" d="M322.81874,87.4629c4.90228-16.1699,12.68348-29.0478,17.94918-37.626-4.7403,9.7256-10.57518,21.9219-15.2881,37.7149-4.4502,15.125-6.9463,30.4609-8.8945,42.875C317.32062,118.7764,318.055,103.75,322.81874,87.4629Z" transform="translate(1.7072)"/>
                  <path class="cls-5" d="M331.89192,90.1641c4.8994-16.168,12.6816-29.0489,17.9492-37.624-4.7431,9.7255-10.5742,21.9209-15.29,37.7128-4.4492,15.127-6.94238,30.4629-8.8936,42.877C326.39382,121.4795,327.12432,106.4502,331.89192,90.1641Z" transform="translate(1.7072)"/>
                  <path class="cls-5" d="M343.67612,91.4512c5.7422-15.7647,14.1885-28.0332,19.8945-36.1953-5.2451,9.3476-11.708,21.0801-17.2461,36.4834-5.2353,14.7627-8.5332,29.8808-11.13378,42.1201C336.54032,122.291,338.06282,107.3457,343.67612,91.4512Z" transform="translate(1.7072)"/>
                  <path class="cls-5" d="M357.41732,92.1338c5.7432-15.7676,14.1855-28.0352,19.89742-36.1973-5.247,9.3477-11.70992,21.0791-17.25,36.4834-5.23532,14.7647-8.53122,29.8809-11.12982,42.1202C350.28252,122.9717,351.803,108.0264,357.41732,92.1338Z" transform="translate(1.7072)"/>
                  <path class="cls-5" d="M366.348,94.9473c7.3056-14.8096,16.9375-25.7549,23.4355-33.0215-6.1592,8.5117-13.7686,19.2129-20.8379,33.6924-6.7002,13.8886-11.5146,28.4092-15.3408,40.1797C356.12242,124.5117,359.15562,109.9014,366.348,94.9473Z" transform="translate(1.7072)"/>
                  <path class="cls-5" d="M375.07842,96.7266c8.917-13.4883,19.69832-22.7656,26.96-28.9131-7.0684,7.4346-15.81942,16.7998-24.46292,30-8.2109,12.6699-14.624,26.2773-19.752,37.3154C361.596,124.3535,366.25812,110.374,375.07842,96.7266Z" transform="translate(1.7072)"/>
                  <path class="cls-5" d="M385.15174,99.1084c10.122-12.206,21.7041-19.9805,29.4941-25.1103-7.7187,6.4365-17.291,14.5703-27.11232,26.5283-9.3486,11.4863-16.9961,24.1465-23.1221,34.4326C369.17022,124.7578,375.10874,111.4873,385.15174,99.1084Z" transform="translate(1.7072)"/>
                  <path class="cls-5" d="M394.556,109.0293c10.124-12.207,21.707-19.9814,29.4961-25.1133-7.7178,6.4385-17.292,14.5713-27.1133,26.5283-9.34572,11.4883-16.99422,24.1504-23.1211,34.4346C378.57552,134.6777,384.51692,121.4072,394.556,109.0293Z" transform="translate(1.7072)"/>
                  <path class="cls-5" d="M397.53154,118.7578c10.46-11.791,22.253-19.0947,30.1866-23.9111-7.8975,6.125-17.6934,13.8691-27.8467,25.4238-9.66212,11.1084-17.66022,23.4531-24.07332,33.4844C380.84112,143.7529,387.14974,130.7285,397.53154,118.7578Z" transform="translate(1.7072)"/>
                  <path class="cls-5" d="M405.63024,122.2988c8.0234-7.9414,16.8388-12.5605,22.7636-15.5986a132.20463,132.20463,0,0,0-21.1328,16.8184c-7.4238,7.4931-13.6904,15.9707-18.71872,22.8662C392.57942,139.4317,397.65174,130.3711,405.63024,122.2988Z" transform="translate(1.7072)"/>
                  <path class="cls-5" d="M402.03744,130.5283c8.0254-7.9375,16.8389-12.5586,22.7627-15.5957a132.18075,132.18075,0,0,0-21.1309,16.8203c-7.4228,7.4883-13.69142,15.9668-18.72072,22.8614C388.98862,147.6641,394.05794,138.6016,402.03744,130.5283Z" transform="translate(1.7072)"/>
                  <path class="cls-5" d="M260.47492,93.126c4.9014-16.166,12.6816-29.0479,17.9502-37.624-4.7441,9.7285-10.5771,21.9209-15.292,37.7129-4.4492,15.1269-6.9443,30.4628-8.8926,42.8759C254.97592,124.4414,255.71122,109.4131,260.47492,93.126Z" transform="translate(1.7072)"/>
                </g>
              </g>
              <g class="cls-8">
                <path class="cls-2" d="M.12923,202.7354c.5332,3.1836,3.0889,5.2011,5.4561,6.7773,15.22941,10.1807,31.85741,17.0938,48.7783,22.1699,53.5,16.0362,109.47949,13.8672,164.61129,11.5987,55.3242-2.2813,111.8945-4.8575,163.4297-29.0479,21.72952-10.2109,44.083-24.4521,67.04982-19.4951,2.8047.6064,5.623,1.5039,8.4775,1.2705,7.793-.6484,13.544-9.8603,14.6016-19.124a51.261,51.261,0,0,0-1.0703-16.2188c-.7608-3.7734-1.7871-7.5215-2.7969-11.1972-1.0029-3.6338-2.0762-7.4112-3.9111-10.4844a15.21738,15.21738,0,0,0-2.1895-2.9033c-5.2207-5.3692-12.9277-4.3799-19.8086-4.4873-25.1621-.3975-46.6709-18.8496-68.92772-33.8409-3.8311-2.5859-7.6934-5.0683-11.6025-7.3369a163.605,163.605,0,0,0-22.7198-10.8506c-8.1103-3.1875-16.3857-5.8222-24.68838-8.165q-10.45758-2.9604-21.02152-5.3213-18.55515-4.188-37.3467-6.5185a389.24637,389.24637,0,0,0-45.2227-2.9746,383.48145,383.48145,0,0,0-38.3808,1.6142q-10.69635.9741-21.3457,2.5625c-9.292,1.3809-18.6367,3.1279-27.3379,7.2686-8.6758,4.1289-16.4512,10.5263-24.084,16.9648q-36.32218,30.624-70.84859,64.1758-7.9044,7.69185-15.7198,15.5195a6.67339,6.67339,0,0,0-2.1367,3.3321c-.4053,2.1982,1.0635,4.1875,2.4258,5.747,6.9463,7.9658,13.63961,16.3291,21.083,23.6455a37.89591,37.89591,0,0,1-6.2803.2217c-5.8095-.2461-11.2529-1.6904-17.1855-2.9785C7.261,193.7656-1.14026,195.1192.12923,202.7354Z" transform="translate(1.7072)"/>
                <path class="cls-4" d="M381.10674,96.9502c-.47652.0869-.95312.1758-1.39742.2676-24.3252,4.9355-46.9942,16.4971-71.6973,20.7822-11.499,1.9971-23.77828,1.9356-35.4248,2.457-13.1162.5879-25.4101,5.7666-37.02248,12.0069-7.90912,4.2461-16.165,8.3847-23.62792,13.3105-4.8037,3.169-10.0469,6.3828-15.8076,6.8526-6.4453.5215-11.707.791-18.0537,2.1533-.6582.1426-1.3311.2627-2.0039.3887q.6474,3.6855.9844,7.4863c.30372-.0186.6054-.0537.9082-.0703,12.8984-.6944,24.6338.2929,36.72752-4.8018,13.29-5.5976,25.35738-12.998,37.97558-20.0674,24.2695-13.5918,53.4892-5.5859,77.791-18.9648,10.6445-5.8584,21.9951-9.3438,33.6025-12.5186,5.9678-1.6338,11.7373-3.1728,17.7657-4.2968,1.6806-.3125,4.7607-.3604,7.5517-.7881Q385.287,99.05125,381.10674,96.9502Z" transform="translate(1.7072)"/>
                <path class="cls-4" d="M346.37822,80.4531c-.8799.2403-1.7158.4532-2.4277.5733-8.5625,1.459-16.3213,4.2929-24.7842,6.3291-17.3369,4.1738-35.4131,3.8828-52.8857,6.4326-12.04888,1.7568-22.5762,7.334-34.1563,11.2314-11.9082,4.0098-20.8271,8.9434-31.332,15.4483a25.53361,25.53361,0,0,1-10.125,3.9531,67.41629,67.41629,0,0,0-19.957,6.252c-.792.3701-1.5625.7011-2.3223,1.0078a84.50854,84.50854,0,0,1,3.55272,8.2275c1.86818-.456,3.30758-.7949,4.05078-.9053,5.9639-.8837,10.0293-.7656,15.5264-3.7421,4.8701-2.6426,9.6445-5.4034,14.3242-8.3799,8.5752-5.4551,17.4678-8.6514,26.9922-12.2959,9.7842-3.75,19.334-9.2823,29.3222-12.1397,8.6211-2.457,19.3956-2.5791,28.3223-2.5605,14.3096.0312,26.1934-4.9004,39.9795-8.1475,8.5098-2.0039,17.0127-4.5928,25.3643-7.0097Q351.13512,82.5595,346.37822,80.4531Z" transform="translate(1.7072)"/>
                <path class="cls-4" d="M420.389,117.3858c-7.6553,1.7695-15.3311,4.8613-22.0401,6.9277-11,3.3896-22.58592,6.3633-33.93842,9.3379-15.7305,4.124-31.5284,8.7021-47.42878,11.9951-13.55662,2.8125-27.67872,6.3291-41.01172,10.5068-13.415,4.2041-23.0449,14.5069-37.1162,17.0567-15.9658,2.8935-32.542,2.2558-48.82908,3.874-4.33012.4268-8.62992.8301-12.93652,1.209q-.16845,1.99515-.4219,3.9551a19.43886,19.43886,0,0,1,3.9785-.8907c8.624-.9023,18.2471,0,26.9922,0a93.5011,93.5011,0,0,1,18.9658,1.834c5.875,1.1983,9.4473-.1924,14.793-2.8086,5.041-2.4668,8.9824-5.542,14.3291-7.1621,6.4814-1.9609,12.6807-5.1806,18.8516-7.7529,6.4726-2.6953,12.2431-6.7822,19.0009-8.8867,6.98732-2.1739,14.0899-3.0469,21.0967-4.6924,13.7432-3.2334,27.6201-6.6524,41.2998-10.5049,15.1739-4.2695,28.9434-8.7861,44.42192-11.0781a247.89225,247.89225,0,0,0,31.3281-6.9395Q426.20439,120.4703,420.389,117.3858Z" transform="translate(1.7072)"/>
                <path class="cls-4" d="M486.83134,185.2178c-5.3974-.5869-10.7187.4658-15.9208,1.6045-6.5313,1.4355-13.2999,2.7148-19.9395,3.6562-8.3213,1.1826-16.9326-.0615-25.291,1.169-13.4932,1.9892-26.4727,6.9463-40.02742,8.9834-19.3115,2.9052-38.748,7.9511-58.0498,11.4941-16.3437,2.999-31.8769,9.6318-48.4414,12.5313-8.6924,1.5224-17.2539,3.4091-26.05168,3.8789-7.32622.3906-14.60452-.9473-21.83692-1.293-13.5723-.6562-27.376-1.3516-40.7422-3.4111-6.6797-1.0313-13.3633-2.5186-20.0205-3.8789a59.92111,59.92111,0,0,0-7.56938-.9561,76.33977,76.33977,0,0,1-5.40622,7.0391q-1.40775,1.7754-2.8985,3.4424c1.7344.4345,3.51272.833,5.3633,1.1787,12.999,2.4502,23.9043,3.8154,37.002,2.6845,18.2978-1.5859,37.4853-.9541,55.8349-.9541,7.8584,0,15.8838.4639,23.73152-.0019,9.42278-.5645,19.26848-3.3067,28.48338-5.4697,20.5097-4.8047,40.6015-10.7295,61.1845-15.2188,7.8448-1.709,15.3829-4.5469,23.1514-6.4443,9.32722-2.2725,18.92292-1.5703,28.27642-2.9805,11.5117-1.7324,22.6113-6.0674,33.6494-9.2256,11.1299-3.1894,23.6787.3594,34.6963-2.6494C491.66444,188.8535,492.88994,185.874,486.83134,185.2178Z" transform="translate(1.7072)"/>
                <path class="cls-4" d="M465.03554,139.8516c-4.4561,2.6924-10.6338,4.3681-14.0538,7.5849-3.3896,3.1914-5.8027,6.6309-10.206,8.6202-5.1817,2.3457-10.5986,2.1728-15.5186,5.4599-3.7168,2.4902-6.5371,6.1094-10.955,7.4053-5.5948,1.6367-12.3067,1.6084-18.1456,2.4687-8.19142,1.2061-16.372,2.918-24.57522,3.9746-8.0751,1.0401-15.1503,4.1133-23.0517,6.0879-10.8818,2.7198-21.5918,5.9766-32.5264,8.502-7.707,1.7842-15.26848,1.1611-23.0586.8242a92.40916,92.40916,0,0,0-17.0058.8682c-6.3946.9121-12.9092.5967-19.2315,1.5693-11.2724,1.7305-23.5927,3.6328-34.2021,7.875-9.9834,3.9922-18.2656,9.4258-29.1377,9.8613-6.5537.2657-14.1895-3.2617-20.6699-4.83-.8311-.2012-1.625-.4121-2.3965-.6289q-1.41075,3.27825-3.0713,6.3798a37.42692,37.42692,0,0,0,20.1377,4.1924,150.30543,150.30543,0,0,0,28.7656-4.25c13.7461-3.3437,25.6494-12.5996,39.585-13.833,6.5527-.5791,12.76662-2.7187,19.3935-2.4756,5.0557.1846,9.6846,1.293,14.7754,1.2881,10.0166-.0146,19.7481-.373,29.6279-.8389,26.3106-1.2275,51.712-11.0781,77.49522-15.9062,11.122-2.083,19.6894-2.8691,29.5117-8.6602,4.6767-2.7588,9.8174-4.5966,14.4394-7.2949,4.3272-2.5205,7.4668-7.4775,11.709-10.6221,3.9707-2.9414,8.5069-4.9355,12.6738-7.6015,1.795-1.1445,3.4707-2.4444,5.17-3.6934Q467.85244,141.09765,465.03554,139.8516Z" transform="translate(1.7072)"/>
                <path class="cls-4" d="M492.73564,201.0752c-5.5927-3.0381-19.0419-.2392-24.5605,1.4141-8.5625,2.5625-16.0098,7.2832-24.3721,10.706-12.0986,4.9522-24.4785,3.0879-36.9951,5.8008-11.1797,2.4238-21.87212,5.915-33.08692,8.7774-23.165,5.9111-45.4004,14.6679-68.96,19.1904-10.4482,2.0088-21.5547,6.0019-32.1767,6.4316-11.0342.4453-22.2637-.376-33.3184-.8574-9.8955-.4326-19.666-1.5898-29.5215-2.5635-9.2968-.9131-19,.3164-28.3828-.5342-8.0127-.7255-15.6103-3.2929-23.0498-5.789-4.1836-1.4033-8.4746-1.6904-12.6855-2.586a20.12991,20.12991,0,0,1-3.043-.9443q-2.3232,1.5981-4.7549,2.9736a59.00067,59.00067,0,0,1-6.9453,3.5088,62.72335,62.72335,0,0,0,31.2949,8.9366c11.8291-.0166,21.8233.7265,33.2422,3.5449,14.7901,3.6572,30.3897,1.2978,45.5283,2.0078,11.1973.5264,21.3223-1.2393,32.2803-2.1465,7.7734-.6377,15.3477-.2353,23.0596-1.7998,8.5332-1.7285,16.6982-4.5059,25.1269-6.4268,13.3799-3.0566,25.92-8.6406,39.0879-12.0351a164.67043,164.67043,0,0,0,17.9414-6.1797c5.1836-1.9766,11.002-2.2295,16.55082-3.2168,11.0537-1.9658,22.25-3.3857,33.1211-6.0244,7.0957-1.7217,12.7695-5.5117,19.5869-7.9365,8.4766-3.0137,17.5479-4.5557,25.9619-7.4678,2.9903-1.0381,6.3623-4.3233,9.3731-4.6338,4.3349-.4395,8.3066,4.6338,12.7226,2.5811C495.24154,204.1143,494.42714,201.9942,492.73564,201.0752Z" transform="translate(1.7072)"/>
                <path class="cls-4" d="M290.845,59.6934c-10.1387.54-18.3115,2.9551-28.3945,6.7461-5.1221,1.9238-9.5215,4.7978-14.6455,6.7431-6.6924,2.541-14.1475,5.1621-20.3799,8.6719a113.33673,113.33673,0,0,1-14.3711,7.2168c-6.957,2.7129-14.9629,2.1768-22.2109,3.5469-10.8282,2.0459-20.2979,8.9267-30.4453,12.7431-1.9366.7305-3.8633,1.5079-5.7823,2.3096q1.4532,2.4771,2.7491,5.085a98.4034,98.4034,0,0,1,16.2236-6.0078c9.35452-2.5586,18.873-6.3936,28.4482-6.8633,11.2061-.5469,22.1426-5.8897,32.2412-10.708,6.0684-2.8975,12.3516-4.7188,18.3662-7.7295a77.4822,77.4822,0,0,1,15.2901-5.9082c5.2744-1.3565,10.5264-2.2051,15.5195-4.4922,4.1621-1.9024,8.5977-3.7217,13.1709-4.1895,5.1787-.5254,10.7168.0147,16.0918.0147C305.47392,64.2598,298.17712,61.8467,290.845,59.6934Z" transform="translate(1.7072)"/>
                <path class="cls-4" d="M496.79034,148.126c-1.3408.1201-2.7187.1992-4.1757.1992a29.77214,29.77214,0,0,1-3.5293-.2344c-.1016,4.3047.5791,9.4727.0166,11.0645-1.8418,5.2236-9.3995,5.5732-13.917,6.4326-6.0215,1.1445-12.0899,2.0801-17.9424,3.75-5.5195,1.5752-7.3955-.5713-12.9903.4111-1.8427.3203-16.1494,4.9366-11.1572,8.1787l6.2578-.9882c7.3809-7.1944,24.92-4.1553,31.3819-4.1582,10.5947-.002,22.541.0791,25.5302-12.1016A37.217,37.217,0,0,0,496.79034,148.126Z" transform="translate(1.7072)"/>
                <path class="cls-4" d="M113.29232,75.6719a25.65385,25.65385,0,0,1,3.123.1943c7.8633-3.7929,17.795-9.3711,19.5479-15.6094-3.7959,1.0899-7.5147,2.2354-11.1299,3.4532-1.6709,1.7607-3.123,3.4707-4.1484,4.5508a40.96115,40.96115,0,0,1-10.4024,7.5957A25.43,25.43,0,0,1,113.29232,75.6719Z" transform="translate(1.7072)"/>
                <path class="cls-4" d="M179.86062,51.3701a10.8813,10.8813,0,0,1-1.4912.8116c-9.9951,4.0546-20.38668,6.1464-29.541,12.0058-7.34368,4.6963-13.5176,10.9209-20.7021,15.8867a30.7119,30.7119,0,0,1,3.375,2.3741,24.98671,24.98671,0,0,0,5.4961-4.4122c5.4931-5.6357,11.5068-8.1855,18.2041-12.0351,9.5693-5.4951,18.665-8.4649,29.0869-12.333,1.1084-.4082,4.7754-1.835,6.5517-3.4668Q185.26357,50.69485,179.86062,51.3701Z" transform="translate(1.7072)"/>
                <path class="cls-4" d="M240.473,49.6797c-.1231.0371-.253.0791-.3741.1201-11.4638,3.6397-24.1494,1.7031-35.3203,6.2295a150.28089,150.28089,0,0,0-34.2451,19.9512,80.73861,80.73861,0,0,1-14.7734,9.668c-4.4483,2.1347-8.753,3.9189-12.5616,7.0673q2.33355,2.36865,4.4786,4.9756c16.6054-10.415,33.3378-20.5293,51.123-29.1084,5.9854-2.8906,11.9355-6.7383,18.4424-8.1719,4.084-.9003,8.61622-.872,12.7471-1.5937a81.519,81.519,0,0,0,12.3242-3.4297c3.1797-1.0674,7.4492-.8877,10.4482-2.2412a3.672,3.672,0,0,0,2.0508-1.6787Q247.6292,50.33845,240.473,49.6797Z" transform="translate(1.7072)"/>
                <g>
                  <path class="cls-6" d="M149.10774,221.4981c17.68358-10.627,26.30758-42.5303,22.28218-62.1582-2.8857-14.1504-18.6084-43.2706-34.9257-51.7539,12.0156,14.7382,22.4589,37.875,24.8779,50.6689C165.18,177.3408,160.66142,205.3135,149.10774,221.4981Z" transform="translate(1.7072)"/>
                  <path class="cls-9" d="M135.07652,231.9111c18.24122-8.9941,25.5976-51.081,22.2187-65.9384-2.3974-10.5801-14.9492-27.5967-30.3174-20.336C140.22492,158.1738,148.74052,217.5488,135.07652,231.9111Z" transform="translate(1.7072)"/>
                  <path class="cls-6" d="M98.72882,217.9805c7.7373,12.3974,19.6367,8.7519,25.415-6.1758,3.5782-9.0693,7.5342-46.6191-11.9814-47.8027C111.32942,177.4385,109.72492,208.1055,98.72882,217.9805Z" transform="translate(1.7072)"/>
                  <path class="cls-9" d="M115.70632,169.2442c-3.039.5468-4.4873,5.7099-3.6767,11.6669,1.0176,5.8467.4805,14.379,3.5185,13.837,3.0391-.5459,8.4082-10.1797,7.3848-16.0323C121.91342,172.8565,118.74252,168.7002,115.70632,169.2442Z" transform="translate(1.7072)"/>
                  <path class="cls-6" d="M104.26692,95.4951c2.6543,1.2266,7.7227-.6299,10.7793,1.0352,3.5723,1.7383,2.998,5.8359,6.25,5.1855,8.0781-1.7588,7.2002-8.6377,3.02152-13.5673-2.58112-3.1758-6.45312-7.9434-15.88972-.7481C104.46612,90.3086,100.972,94.5762,104.26692,95.4951Z" transform="translate(1.7072)"/>
                  <path class="cls-6" d="M133.32262,244.8506h0c34.1953-4.4609,51.7529-60.1563,45.0068-92.749-5.13968-25.75-39.3633-84.8448-68.5293-75.8643,28.3008-2.831,59.4561,52.3701,64.5488,76.5557C180.72392,184.2988,164.96322,236.5635,133.32262,244.8506Z" transform="translate(1.7072)"/>
                  <path class="cls-6" d="M57.93583,131.7012c-6.9814,10.4326-12.8457,21.6211-9.1318,30.9267,3.6231-6.8095,2.9756-6.706,15.3203-28.2978,7.669-13.3906,37.07519-1.2461,35.51469-5.2842-1.3008-3.29.2002-8.833-9.64259-18.6113C80.02863,100.2842,66.053,119.6211,57.93583,131.7012Z" transform="translate(1.7072)"/>
                </g>
              </g>
              <g>
                <path class="cls-10" d="M91.49742,136.4287c-9.08689-6.5439-21.49029-2.1113-27.32329,10.1123-6.02239,11.7754-3.06539,27.0752,6.39361,33.3907,9.08789,6.5439,21.49018,2.1064,27.32318-10.1104C103.91242,158.0469,100.95442,142.7471,91.49742,136.4287Z" transform="translate(1.7072)"/>
                <path class="cls-11" d="M62.50913,150.3526c-3.4092,11.3085-.27539,23.7031,8.05861,29.5791,8.05469,5.7685,18.78419,2.9043,25.28418-6.0762a33.30724,33.30724,0,0,1-19.44929-6.1445A38.93582,38.93582,0,0,1,62.50913,150.3526Z" transform="translate(1.7072)"/>
                <path class="cls-11" d="M91.49742,136.4287a1.79625,1.79625,0,0,0-1.03619-.7763c8.06159,6.8857,10.64459,21.2939,5.08689,32.5039-5.64738,11.5478-17.11519,15.9765-26.291,10.8867.2823.1094.75.666,1.31061.8887,9.08789,6.5439,21.49018,2.1064,27.32318-10.1104C103.91242,158.0469,100.95442,142.7471,91.49742,136.4287Z" transform="translate(1.7072)"/>
                <path class="cls-12" d="M87.012,135.7813c-.1914-.4414-.7539-.6612-1.3164-.8809,15.27739,12.3145-1.7656,46.1787-17.8672,36.8857.5596.2198.7481.6612,1.3086.8858,9.3672,6.6494,21.1221,3.456,26.03029-6.5254C100.16632,155.8311,96.46712,142.1016,87.012,135.7813Z" transform="translate(1.7072)"/>
                <path class="cls-13" d="M82.33623,142.4639c-3.8408-2.9971-9.43749-.7315-12.124,4.5429-2.6846,5.2725-1.4453,12.0831,2.77251,14.8487,3.84179,2.9971,9.43649.7295,12.12009-4.5401C87.511,151.9336,86.55113,145.2324,82.33623,142.4639Z" transform="translate(1.7072)"/>
                <path class="cls-14" d="M75.98563,147.1074c-1.0283-.7763-2.7998.0166-3.7255,2.2559-.8311,1.9062-.8223,4.1455.207,4.9199,1.30961.8877,2.89261-.3515,3.72661-2.2558C77.30693,150.2305,77.01593,147.8789,75.98563,147.1074Z" transform="translate(1.7072)"/>
                <path class="cls-15" d="M91.13212,138.8916c-1.123-.4394-2.48038,10.1904-.13769,11.8486C95.95732,154.1777,94.50322,141.332,91.13212,138.8916Z" transform="translate(1.7072)"/>
              </g>
              <g class="cls-8">
                <path class="cls-6" d="M16.27374,160.3223s8.63869,22.4082,18.71879,31.3154c10.081,8.9063,16.8017,8.6182,21.1211,18.0996,4.3203,9.4805,2.1592,4.3106-6.2412,0-8.3994-4.3096-12.2393-9.1933-24.2393-6.6074S-.52607,217.21-1.487,206.8662s.959-20.1142,11.04-17.8135c10.0791,2.2979-13.4404-26.4326-1.9199-28.7304C19.15263,158.0235,16.27374,160.3223,16.27374,160.3223Z" transform="translate(1.7072)"/>
                <path class="cls-4" d="M14.83133,216.7735s7.5606-11.4219,20.7002-6.25c13.1407,5.1718,24.3848,7.3242,36.1329,11.4179,11.747,4.0938,18.0419,22.1963,18.0419,22.1963s-8.8144-13.1455-16.1953-15.9463c-7.3789-2.8008-11.6992-9.2656-27.7197-8.8349-16.0195.4326-12.583-6.2198-18.5391-3.4463-5.958,2.7724-8.2802,5.6015-8.2802,5.6015Z" transform="translate(1.7072)"/>
                <path class="cls-4" d="M26.35283,229.9287s6.3975-9.6631,17.5147-5.2861c11.1181,4.375,20.6328,6.1982,30.57321,9.6631,9.94139,3.4648,15.26759,18.7793,15.26759,18.7793s-7.459-11.124-13.7031-13.4932c-6.2451-2.3701-9.9004-7.8398-23.4551-7.4746-13.5566.3623-10.64839-5.2646-15.6875-2.918-5.041,2.3477-7.0068,4.7422-7.0068,4.7422Z" transform="translate(1.7072)"/>
                <path class="cls-4" d="M38.23174,133.4151s-12.60051,26.04,2.87989,38.5361c15.4805,12.4971,27.1328,28.4433,28.1455,32.7519,1.0147,4.3116-2.6806-3.4463-8.2129-7.7568-5.5322-4.3096-13.4521-11.8193-23.5322-20.7773-10.0801-8.959-15.8408-21.7227-11.8808-31.0674A20.859,20.859,0,0,1,38.23174,133.4151Z" transform="translate(1.7072)"/>
              </g>
            </g>
            <g>
              <g>
                <path class="cls-16" d="M174.15362,206.8545s60.5293,10.166,70.5586-25.4404c10.0293-35.6026-13.459-48.6094-26.875-47.3252-19.0547,1.8144-28.6543,24.9092-28.6543,24.9092Z" transform="translate(1.7072)"/>
                <path class="cls-16" d="M212.73862,195.0361c-12.8418,4.8057-35.3975,9.4805-38.0186,10.0157l-.0137.0488c2.5206-.0723,27.94342-.9492,49.043-8.4824A87.60161,87.60161,0,0,0,242.303,187.5a31.26368,31.26368,0,0,0,2.4092-6.0859,66.33126,66.33126,0,0,0,1.6143-7.2979C241.223,179.5176,230.887,188.2481,212.73862,195.0361Zm8.581-60.9335a39.05454,39.05454,0,0,1-5.9004,15.4472c-5.1308,7.8174-31.9668,36.8555-31.9668,36.8555s32.5811-26.7217,36.3497-32.5361c3.0068-4.6368,9.5078-13.3038,12.0332-16.6426A26.61719,26.61719,0,0,0,221.31962,134.1026Zm-43.4101,64.4257s30.53322-10.0088,45.4951-19.5996a228.87552,228.87552,0,0,1,23.66212-13.3642,36.97457,36.97457,0,0,0-2.14362-13.0489c-2.7597,3.5411-11.5351,14.2168-22.8623,21.7207C208.29522,183.3594,177.90952,198.5283,177.90952,198.5283Zm2.0957-5.541s24.4726-13.0908,41.0332-24.5869a95.09351,95.09351,0,0,0,21.8066-20.3818,28.01979,28.01979,0,0,0-7.48828-8.5264c-1.45412,3.2402-5.31542,11.3486-9.81152,16.6934C212.72392,171.4258,180.00522,192.9873,180.00522,192.9873Zm35.5537-58.5166a27.46325,27.46325,0,0,0-10.2178,4.2617,70.39444,70.39444,0,0,1-3.9707,11.5235c-5.0683,11.3496-14.8555,26.2217-14.8555,26.2217s11.4532-11.3272,18.2666-20.376C210.12822,149.0039,214.09892,138.624,215.55892,134.4707Z" transform="translate(1.7072)"/>
              </g>
              <g>
                <path class="cls-2" d="M172.42612,207.8623s60.5312,10.166,70.55762-25.4404c10.03118-35.6026-13.457-48.6094-26.87112-47.3262-19.0576,1.8125-28.6553,24.9102-28.6553,24.9102Z" transform="translate(1.7072)"/>
                <path class="cls-4" d="M211.011,196.0459c-12.8418,4.8037-35.3955,9.4756-38.0195,10.0137l-.0137.0488c2.5215-.0742,27.9463-.9492,49.043-8.4824a87.32043,87.32043,0,0,0,18.5547-9.1211,31.26445,31.26445,0,0,0,2.40822-6.083,65.74005,65.74005,0,0,0,1.61718-7.2998C239.49542,180.5235,229.16052,189.2539,211.011,196.0459Zm8.5801-60.9375a39.02016,39.02016,0,0,1-5.89938,15.4492c-5.12992,7.8174-31.96482,36.8555-31.96482,36.8555s32.5791-26.7217,36.3476-32.5361c3.0088-4.6397,9.5098-13.3057,12.03222-16.6455A26.6627,26.6627,0,0,0,219.59112,135.1084Zm-43.4092,64.4277s30.5352-10.0087,45.4942-19.5976a228.63369,228.63369,0,0,1,23.664-13.3662,37.0178,37.0178,0,0,0-2.1435-13.0488c-2.7578,3.541-11.5361,14.2167-22.8613,21.7187C206.56774,184.3652,176.18192,199.5361,176.18192,199.5361Zm2.09482-5.541s24.47458-13.0927,41.03318-24.5849a95.04691,95.04691,0,0,0,21.8066-20.3838,28.046,28.046,0,0,0-7.4853-8.5293c-1.4571,3.2431-5.3174,11.3515-9.81348,16.6943C210.99742,172.4317,178.27674,193.9951,178.27674,193.9951Zm35.55658-58.5175a27.49849,27.49849,0,0,0-10.2187,4.2597,70.60693,70.60693,0,0,1-3.9708,11.5264c-5.0683,11.3476-14.8544,26.2197-14.8544,26.2197s11.4531-11.3252,18.2636-20.374C208.40174,150.0088,212.37142,139.6318,213.83332,135.4776Z" transform="translate(1.7072)"/>
              </g>
            </g>
          </g>
          <path class="cls-17" d="M12.513,172.8096c6.9463,7.9668,13.6406,16.3291,21.084,23.6445a37.92528,37.92528,0,0,1-6.28029.2256,117.48825,117.48825,0,0,0,14.84279,7.1709c19.4199,7.8047,39.9111,11.3711,59.18059,19.7119,5.084,2.1953,10.1192,4.7412,15.458,5.8281,4.7491.9571,9.6045.7422,14.4229.4727a921.26732,921.26732,0,0,0,93.4443-9.9131c10.6846-1.6924,21.5196-3.5703,32.2129-1.9219,7.0889,1.0987,13.9893,3.7354,21.1289,4.2198,23.3701,1.5849,43.6504-19.668,66.8223-23.6495,9.5186-1.6357,19.2207-.2988,28.8057-1.2275,12.5459-1.2275,24.55762-6.331,36.414-11.3818q16.0401-6.8379,32.0762-13.6758c8.625-3.6777,18.375-6.3994,26.499-11.4678a12.43409,12.43409,0,0,0,1.5528-1.1387c-.7618-3.7763-1.7881-7.5214-2.7979-11.2002-1.3457-4.8886-2.8369-10.0361-6.1006-13.3867-5.2197-5.3681-12.9277-4.3789-19.8086-4.4873-29.5-.4648-53.97462-25.7461-80.5303-41.1777-15.02342-8.7285-31.15422-14.4238-47.40822-19.0156a389.32026,389.32026,0,0,0-163.3164-10.6387c-9.2929,1.3818-18.6377,3.1289-27.3388,7.2695-8.6758,4.1289-16.4502,10.5264-24.084,16.9649q-44.65137,37.65525-86.56839,79.6963a6.68459,6.68459,0,0,0-2.1367,3.331C9.68193,169.2608,11.15074,171.25,12.513,172.8096Z" transform="translate(1.7072)"/>
          <path class="cls-17" d="M29.37333,148.9141c5.292,3.9804,11.86041,5.8222,18.1856,6.3877,20.9355,1.8427,41.2656-7.5869,61.00489-16.1397,69.6904-30.1631,146.0293-51.0556,217.5302-27.75,24.0733,7.8369,46.9248,20.5166,71.09092,27.918,19.1504,5.8711,39.7168,8.2392,59.0146,2.0205,2.4668-.7949,5.6768-1.4805,8.6992-2.6211a15.25434,15.25434,0,0,0-2.1894-2.9033c-5.2197-5.3711-12.9278-4.3819-19.8086-4.4893-29.501-.4629-53.97462-25.7441-80.53032-41.1758-15.0234-8.7275-31.1543-14.4228-47.4082-19.0156a389.31063,389.31063,0,0,0-163.3174-10.6396c-9.2929,1.3808-18.6377,3.1269-27.3369,7.2685-8.6767,4.1289-16.4531,10.5264-24.0859,16.9668Q63.90118,115.3667,29.37333,148.9141Z" transform="translate(1.7072)"/>
          <g class="cls-18">
            <path class="cls-19" d="M95.91732,212.8584c-3.93458,2.9365-6.70409,11.7324,0,11.7324,6.7099,0,7.7392-1.8545,7.7392-6.7988C103.65652,212.8584,100.04812,209.7676,95.91732,212.8584Z" transform="translate(1.7072)"/>
            <path class="cls-19" d="M79.15074,219.3399c-3.90241-1.4073-7.21781,5.5644-2.32521,6.4834C81.72883,226.749,81.72883,220.2656,79.15074,219.3399Z" transform="translate(1.7072)"/>
            <path class="cls-19" d="M111.13412,228.9141c-3.3086,1.1299-5.1602,5.251-1.8018,7.4092,3.3477,2.1582,10.3135-.0088,9.2852-3.3995C117.58332,229.5352,114.74742,227.6748,111.13412,228.9141Z" transform="translate(1.7072)"/>
            <path class="cls-19" d="M127.89682,223.6631c-.9365,1.877-1.5469,4.3252,1.5498,5.251,3.0967.9277,5.4209-2.1651,3.3535-5.251C130.73662,220.5713,128.67512,222.1172,127.89682,223.6631Z" transform="translate(1.7072)"/>
            <path class="cls-19" d="M137.70342,233.8526c-2.6133.5888-2.0635,4.6289.7774,4.9394C141.31082,239.1006,141.82842,232.9238,137.70342,233.8526Z" transform="translate(1.7072)"/>
            <path class="cls-19" d="M142.60092,223.043c-3.5537-.5235-2.835,4.9453-.2559,5.8711C144.92412,229.8418,148.79422,223.9717,142.60092,223.043Z" transform="translate(1.7072)"/>
            <path class="cls-19" d="M151.37432,228.6016c-1.9648,1.7129-3.6142,4.3222-.51758,6.1758a4.10973,4.10973,0,0,0,6.18848-4.0088C156.53352,227.6748,154.20932,226.1299,151.37432,228.6016Z" transform="translate(1.7072)"/>
            <path class="cls-19" d="M165.30012,230.4551c-1.64838,2.375-2.5791,6.1748,1.0352,7.7207,3.60742,1.5449,7.4765-3.3984,5.415-8.334C169.68582,224.9043,166.59112,228.6016,165.30012,230.4551Z" transform="translate(1.7072)"/>
            <path class="cls-19" d="M179.48274,223.6631c-3.10742.5703-4.125,6.4863-.25492,5.5576C183.096,228.2949,182.84112,223.043,179.48274,223.6631Z" transform="translate(1.7072)"/>
            <path class="cls-19" d="M184.13122,233.2295c-1.43748.6953-3.6133,3.7061-1.0352,5.5625,2.5811,1.8545,5.6768,1.2373,4.9033-2.7754C187.22692,231.9981,186.71032,231.9981,184.13122,233.2295Z" transform="translate(1.7072)"/>
            <path class="cls-19" d="M194.44374,222.7363c-1.58892,1.1983-2.57432,7.7188-.25592,8.9551,2.3242,1.2324,4.125-1.8496,4.6426-4.9424C199.347,223.6631,196.50622,221.1943,194.44374,222.7363Z" transform="translate(1.7072)"/>
            <path class="cls-19" d="M210.95542,230.7686c-3.1192,1.4843-5.6758,7.4072-1.80668,8.332,3.86918.9287,7.99418-1.5459,6.96588-6.79C215.08042,227.0625,213.53552,229.5352,210.95542,230.7686Z" transform="translate(1.7072)"/>
            <path class="cls-19" d="M203.98962,221.1943c-.8331,1.9893-.7735,6.1758,1.5507,6.794,2.31842.6133,4.6368-1.2393,3.60842-6.1748C208.11462,216.8682,204.763,219.3399,203.98962,221.1943Z" transform="translate(1.7072)"/>
            <path class="cls-19" d="M220.23962,222.7363c-3.086.4473-1.8067,5.252.2568,5.8653C222.56382,229.2207,226.68292,221.8135,220.23962,222.7363Z" transform="translate(1.7072)"/>
            <path class="cls-19" d="M226.428,231.0791c-1.2197,2.4385-2.5742,7.7129,2.0674,7.0967,4.6426-.6211,5.1602-3.3984,3.3526-7.4072C230.04132,226.749,227.20052,229.5352,226.428,231.0791Z" transform="translate(1.7072)"/>
            <path class="cls-19" d="M241.39382,220.8877c-1.8554,1.6553-2.8466,5.2422-.5224,6.1748,2.3242.9258,5.9316-.3135,5.6709-4.6318C246.28642,218.1104,242.42222,219.959,241.39382,220.8877Z" transform="translate(1.7072)"/>
            <path class="cls-19" d="M249.12722,229.5352c-3.4716,2.4111-5.1591,7.0947-.7724,7.7138,4.3867.6123,8,.9268,7.7383-3.0908C255.83232,230.1494,252.219,227.3701,249.12722,229.5352Z" transform="translate(1.7072)"/>
            <path class="cls-19" d="M261.24742,220.5713c-1.51268,2.2783-1.7969,4.9463-.5118,6.4912,1.29012,1.5391,6.4502,3.7061,6.9659-1.2392C268.21422,220.8877,263.30992,217.4873,261.24742,220.5713Z" transform="translate(1.7072)"/>
            <path class="cls-19" d="M274.40074,224.4365c-.38672,3.7061.39158,9.7217,3.48338,8.335a8.13046,8.13046,0,0,0,3.09762-11.5772C277.88412,216.0947,274.79232,220.7236,274.40074,224.4365Z" transform="translate(1.7072)"/>
            <path class="cls-19" d="M292.97592,225.3623c-.7891,2.8086-2.3184,6.9483,1.1582,7.4092,3.4785.458,5.8027-5.0967,3.8701-9.2607C296.06674,219.3399,293.74832,222.585,292.97592,225.3623Z" transform="translate(1.7072)"/>
            <path class="cls-19" d="M310.77182,220.7236c-2.1446,3.42-1.5459,10.1963,0,10.6553,1.54592.4678,5.8066-5.0976,5.8066-9.7246C316.57842,217.0205,311.93,218.874,310.77182,220.7236Z" transform="translate(1.7072)"/>
            <path class="cls-19" d="M286.78152,216.5625c0,5.1758.3868,6.0225,3.0967,3.7031,2.711-2.3193,3.4844-3.7031,1.5518-7.873C289.48662,208.2246,286.78152,214.252,286.78152,216.5625Z" transform="translate(1.7072)"/>
            <path class="cls-19" d="M336.30692,212.3926c-2.57418.3848-5.8076,6.0234-2.3291,9.2617,3.4932,3.25,9.6817,3.708,9.2891-3.2383C342.887,211.4629,339.40262,211.9326,336.30692,212.3926Z" transform="translate(1.7072)"/>
            <path class="cls-19" d="M316.95932,209.1553c-2.71,2.3076-2.71,7.8652,1.9375,6.0156,4.6367-1.8535,5.0283-4.6318,2.7051-7.8701C319.28842,204.0557,316.95932,209.1553,316.95932,209.1553Z" transform="translate(1.7072)"/>
            <path class="cls-19" d="M359.13122,212.3926c-2.7051,3.2363-3.4776,6.0234-.3916,7.4131,3.1015,1.3886,7.3574-1.3897,5.8125-6.0235C363.00712,209.1553,359.13122,212.3926,359.13122,212.3926Z" transform="translate(1.7072)"/>
            <path class="cls-19" d="M346.75522,207.7588c-.8477,4.0703.7676,6.0234,3.47852,3.7041,2.71-2.3076,3.48238-3.2383,1.93748-6.9463C350.61942,200.8125,347.52282,204.0557,346.75522,207.7588Z" transform="translate(1.7072)"/>
            <path class="cls-19" d="M372.27962,206.833c-.8272,5.4951,1.9375,6.9492,3.874,6.4844,1.9326-.459,3.0977-5.5586,1.9326-9.2617C376.92222,200.3526,373.05792,201.7363,372.27962,206.833Z" transform="translate(1.7072)"/>
            <path class="cls-19" d="M386.348,199.2744c.7832,4.7295,2.83,5.5489,5.6708,2.1573,2.83012-3.3926-.5175-6.1758-3.0966-6.4825C386.348,194.6426,385.83042,196.1904,386.348,199.2744Z" transform="translate(1.7072)"/>
            <path class="cls-19" d="M401.56474,193.7158c-1.04,2.4629-2.5849,6.1778.5118,6.1778s3.6074-3.0928,3.0966-5.8711C404.66144,191.2451,401.56474,193.7158,401.56474,193.7158Z" transform="translate(1.7072)"/>
            <path class="cls-19" d="M359.00132,199.2744c0,2.792-.5127,7.4073,3.0957,5.8594,3.6142-1.5439,2.3193-4.0107.5176-6.4814C360.81382,196.1787,359.00132,197.4199,359.00132,199.2744Z" transform="translate(1.7072)"/>
            <path class="cls-19" d="M412.91144,185.0684c0,4.0263,1.2901,5.5576,3.6133,3.3965a4.32012,4.32012,0,0,0-.2559-6.794C414.20154,180.1231,412.91144,182.9102,412.91144,185.0684Z" transform="translate(1.7072)"/>
          </g>
        </g>
        <g>
          <path class="cls-20" d="M167.17712,80.5137c-9.5333-14.1777,61.4228-29.7559,88.6845-8.0332C283.11752,94.2041,178.89092,97.9307,167.17712,80.5137Z" transform="translate(1.7072)"/>
          <path class="cls-20" d="M144.46812,83.9531C131.66832,64.919,226.929,44.0049,263.52862,73.168,300.12042,102.3311,160.19274,107.3389,144.46812,83.9531Z" transform="translate(1.7072)"/>
        </g>
      </g>
    </g>
  </g>
</svg>
