<svg xmlns="http://www.w3.org/2000/svg" xmlns:xlink="http://www.w3.org/1999/xlink" width="483.5437" height="291.17481" viewBox="0 0 483.5437 291.17481">
  <defs>
    <style>
      .cls-1 {
        fill: none;
      }

      .cls-2 {
        fill: #ff8400;
      }

      .cls-3 {
        fill: #215175;
      }

      .cls-14, .cls-4 {
        fill: #231f20;
      }

      .cls-5 {
        fill: #007060;
      }

      .cls-6 {
        clip-path: url(#clip-path);
      }

      .cls-7 {
        fill: #008474;
      }

      .cls-8 {
        fill: #009e8f;
      }

      .cls-9 {
        fill: #fdca00;
      }

      .cls-10 {
        fill: #212121;
      }

      .cls-11 {
        fill: #ef7700;
      }

      .cls-12, .cls-17 {
        fill: #fff;
      }

      .cls-13 {
        fill: #f24305;
      }

      .cls-14, .cls-15, .cls-16 {
        fill-rule: evenodd;
      }

      .cls-15 {
        fill: #116193;
      }

      .cls-16 {
        fill: #073b59;
      }

      .cls-17, .cls-18, .cls-19 {
        opacity: 0.2;
      }

      .cls-18 {
        fill: #161616;
      }

      .cls-19 {
        fill: #141414;
      }
    </style>
    <clipPath id="clip-path" transform="translate(3.72236 14.54952)">
      <path class="cls-1" d="M.83152,111.45828l9.5552-5.5723s78.43109-76.8418,144.72019-98.9375,162.438,8.3633,256.7954,104.5098v39.4141s-99.7319,92.5664-256.1982,78.2343c0,0-94.95459-30.7207-149.29939-88.5156,0,0-9.1562-2.8574-5.5732-5.6445,3.5835-2.7852,16.3237-10.7481,16.3237-10.7481S1.62842,121.41528.83152,111.45828Z"/>
    </clipPath>
  </defs>
  <g id="图层_2" data-name="图层 2">
    <g id="Layer_1" data-name="Layer 1">
      <g>
        <g>
          <g>
            <g>
              <path class="cls-2" d="M262.16891,216.222s43.4683,32.2363,63.1196,44.0137c19.6519,11.7773,61.4346,29.4628,67.5415-.8516,6.1075-30.3008-11.1679-63.5762-2.435-78.9238,8.7363-15.3438,4.2431-25.9043,4.2431-25.9043Z" transform="translate(3.72236 14.54952)"/>
              <path class="cls-3" d="M319.95111,218.38208a159.99328,159.99328,0,0,1-7.4927,33.6153c4.4634,2.9961,8.5787,5.6601,12.03721,7.7617-.50541-1.6172-1.01271-3.3809-1.49421-5.3262C319.25581,239.30988,319.95111,218.38208,319.95111,218.38208Zm-22.3471,23.4024c1.2329.8574,2.4624,1.7226,3.6909,2.5703a204.347,204.347,0,0,1,2.5132-23.5742C301.63081,227.86258,299.49121,235.181,297.604,241.78448Zm95.226,17.5996a81.72679,81.72679,0,0,0,.9825-22.7051c-3.2862-.0176-8.94389-1.0762-14.5523-7.0469-8.6392-9.1953-22.5591-26.1562-22.5591-26.1562s18.4009,24.7031,22.1533,31.8301c2.8648,5.4394,8.6499,23.3984,11.23,31.5918A24.27622,24.27622,0,0,0,392.83,259.38408Zm-58.497-45.377s5.30561,32.2539,1.4121,51.8965a126.65178,126.65178,0,0,0,16.7822,6.8594c-3.2681-9.5391-9.4185-27.5723-11.6309-34.752C337.62451,227.39968,334.333,214.00708,334.333,214.00708Zm12.0268-5.373s10.9126,29.2344,15.0479,42.9805c2.0302,6.7461,2.7163,16.6504,2.9321,24.0078,7.8989,1.1894,15.21.5859,20.5566-3.0879-3.7172-5.9219-15.75679-25.1699-22.4741-36.4922C354.872,223.31378,346.35981,208.63408,346.35981,208.63408Z" transform="translate(3.72236 14.54952)"/>
              <path class="cls-4" d="M392.83,259.38408c6.1075-30.3008-11.1679-63.5762-2.435-78.9238,8.7363-15.3438,4.2431-25.9043,4.2431-25.9043-17.33149,11.0898-29.35149,27.5566-24.7392,38.1894,8.229,18.9434,21.9575,35.9707,21.499,51.1602-1.1069,36.9414-53.5645,24.1308-68.877,12.9394-17.1079-12.4843-62.706-42.998-62.706-42.998s-13.0381,16.7676,2.354,21.5976c24.8281,7.793,48.5024,17.4102,62.8086,25.9786C344.62891,273.20048,386.72311,289.69848,392.83,259.38408Z" transform="translate(3.72236 14.54952)"/>
              <path class="cls-4" d="M360.95451,181.28838s5.3077,25.373,18.8667,38.1445c0,0-18.0078-10.2812-24.353-37.875Z" transform="translate(3.72236 14.54952)"/>
              <path class="cls-4" d="M345.88521,190.30008s22.6743,45.0996,33.936,60.3066c0,0-30.1845-32.4433-36.5297-60.039Z" transform="translate(3.72236 14.54952)"/>
              <path class="cls-4" d="M337.16062,186.46608s12.34669,48.9473,20.04,66.2344c0,0-22.42531-38.2207-22.63031-66.5352Z" transform="translate(3.72236 14.54952)"/>
              <path class="cls-4" d="M329.87351,185.32548s-1.7422,50.4492.8437,69.1953c0,0-10.9194-42.9473-3.2485-70.2031Z" transform="translate(3.72236 14.54952)"/>
              <path class="cls-4" d="M321.84471,174.91528s-10.3379,49.4082-10.9927,68.3204c0,0-3.42039-44.1817,8.7954-69.7247Z" transform="translate(3.72236 14.54952)"/>
              <path class="cls-4" d="M306.76751,162.46808s-10.33789,49.4101-10.9931,68.3203c0,0-3.4204-44.1817,8.7954-69.7246Z" transform="translate(3.72236 14.54952)"/>
              <g>
                <path class="cls-2" d="M478.7744,75.08528c-7.01178-23.8496-13.3584.3418-62.53759,22.1523a63.5727,63.5727,0,0,1-16.6114,4.5488v56.3692c9.09821,2.2207,18.9449,6.9238,28.9029,15.6289,14.6357,12.7871,19.438,21.416,27.7636,29.748,9.12409,9.1172,20.875,4.8438,19.75689-8.539C470.6074,129.58528,483.4541,90.97778,478.7744,75.08528Z" transform="translate(3.72236 14.54952)"/>
                <path class="cls-4" d="M478.7744,75.08528c-5.6221-19.1172-10.833-7.3672-37.99559,9.2793,4.5405-1.6954,18.042-6.6426,22.65281-7.3516,5.15918-.793,8.331,2.7734,8.72558,10.3125.39942,7.5332-4.2637,38.0762-4.7647,56.3145-.7822,29.3476,4.7647,48.3886-.3935,52.3554-4.7119,3.625-12.05419,3.5528-17.83009-.416,2.3003,2.7539,4.5405,5.3652,7.123,7.9531,9.12409,9.1172,20.875,4.8438,19.75689-8.539C470.6074,129.58528,483.4541,90.97778,478.7744,75.08528Z" transform="translate(3.72236 14.54952)"/>
                <path class="cls-3" d="M424.82811,109.93288s42.042-1.3242,47.334-.2695a22.79844,22.79844,0,0,1,5.4677,1.8242c.2979-2.875.586-5.6465.8516-8.2344a35.247,35.247,0,0,1-11.6113,4.0352C460.51951,108.07748,424.82811,109.93288,424.82811,109.93288Zm-.5318,9.7832s42.314,2.3809,47.59431,3.4336c1.68258.3379,3.20018.6699,4.52148.9688.249-2.795.499-5.4746.7548-8.0606a71.54919,71.54919,0,0,1-9.5039,3.127C462.8984,120.50908,424.29631,119.71608,424.29631,119.71608Zm44.69289,12.1582c-6.35158.7969-43.10639-2.3789-43.10639-2.3789s40.72749,3.7031,43.89939,5.0254a56.57023,56.57023,0,0,1,5.6758,2.9063q.2622-4.5762.6005-8.8418C475.7929,129.138,474.4628,131.19458,468.9892,131.87428ZM479.707,81.304a28.11375,28.11375,0,0,0-.9326-6.2187,30.916,30.916,0,0,0-2.6084-6.6504c-.9961,3.0547-4.06838,8.3086-13.52838,13.4707-7.36711,4.0234-39.39551,16.9199-39.39551,16.9199s39.13479-14.0137,45.74709-16.127A27.86766,27.86766,0,0,1,479.707,81.304Zm-17.5957,64.3203c-7.667.7949-37.54879-4.7578-37.54879-4.7578s33.84911,6.8731,39.13469,8.7266a64.71543,64.71543,0,0,1,11.0742,5.6523c.085-4.7754.2178-9.4101.4414-13.7773A34.37813,34.37813,0,0,1,462.1113,145.62428Zm5.0254,15.3379c-5.5528-1.0566-41.52-13.4883-41.52-13.4883s31.746,12.1641,35.43991,15.0743c3.51458,2.7656,10.80268,7.1894,13.79978,10.5742-.1387-4.7188-.1807-9.2578-.1553-13.6387C474.2334,159.96028,472.0185,161.89188,467.1367,160.96218Zm5.5527-70.5976c-5.0264,1.5879-47.86129,12.1601-47.86129,12.1601s32.5346-7.3847,39.66209-7.9316c10.3183-.7949,14.0176,4.2324,14.0176,4.2324l.4697-.6523a139.54974,139.54974,0,0,0,.8076-14.336A12.53285,12.53285,0,0,1,472.6894,90.36458Zm2.1191,86.9863s-.7988,1.0586-7.6718-1.3203-43.10159-20.6231-43.10159-20.6231,33.583,19.0371,37.02151,22.7364c2.75288,2.9668,11.42478,10.666,14.77438,13.6211-.3252-4.3047-.56538-8.4786-.7402-12.545ZM422.18262,161.222s34.38079,28.2949,37.28219,33.8457c1.5391,2.9297,2.70019,8.2793,3.46039,12.6855,5.4517,1.7735,10.5738-.5117,12.4468-6.0879-2.2295-1.2812-11.5996-6.7832-16.70069-11.8828C452.85791,183.96218,422.18262,161.222,422.18262,161.222Z" transform="translate(3.72236 14.54952)"/>
                <path class="cls-3" d="M460.81781,198.50318a76.13844,76.13844,0,0,1,2.10739,9.25,10.13515,10.13515,0,0,0,7.4742-.25c.08-.041.1601-.0898.2451-.1308a8.94036,8.94036,0,0,0,1.2412-.7637c.1123-.0801.207-.1582.3144-.2461a8.21514,8.21514,0,0,0,1.0108-.9609c.09672-.1094.2021-.2129.2881-.3282a9.39078,9.39078,0,0,0,.8672-1.246,3.625,3.625,0,0,0,.19142-.3204,11.45445,11.45445,0,0,0,.81438-1.8418c-1.2773-.7324-4.8818-2.8554-8.6767-5.4765A13.06251,13.06251,0,0,1,460.81781,198.50318ZM472.6894,90.36458c-.1602.0488-.38378.1093-.5762.166-.0634,1.3144-.1797,2.8652-.3291,4.6015,4.7862,1.1797,6.7237,3.6934,6.7237,3.6934l.4697-.6523c.1103-1.1446.207-2.2403.2969-3.3165.0371-.3984.0644-.7832.0918-1.1757.2861-3.6543.4463-6.9414.4189-9.8438A12.53285,12.53285,0,0,1,472.6894,90.36458Zm2.1191,86.9863s-.7412.8633-6.1865-.8418c.2764,3.5488.4942,6.6699.5694,9.3281,2.6035,2.3594,5.1484,4.6133,6.6396,5.9278q-.4878-6.45705-.7402-12.5489Zm-5.87788-54.668c1.17578.1582,2.19918.3184,2.96.4668,1.68258.3379,3.20018.6699,4.52148.9688.2216-2.4746.4404-4.8457.664-7.1485.0313-.2675.0537-.5351.0801-.7988.0049-.041.0049-.0762.0107-.1133a66.23628,66.23628,0,0,1-7.8261,2.6602C469.2021,120.03448,469.0683,121.35868,468.93062,122.68288Zm-1.33012,38.3379c.1055,2.2363.2227,4.4004.3614,6.4434a44.13587,44.13587,0,0,1,6.8945,5.6543c-.0479-1.6016-.0752-3.1582-.0957-4.7227-.0225-1.4902-.043-2.9687-.0479-4.4238-.0058-1.4903-.0166-2.9863-.0117-4.4453v-.043C474.2548,159.94848,472.14062,161.73568,467.6005,161.02078Zm7.1709-5.9141c.042-2.2128.085-4.3984.1641-6.5214.0645-2.4317.1602-4.8184.2773-7.1172a33.54653,33.54653,0,0,1-7.831,3.166c-.0488,2.2285-.0596,4.3887-.043,6.4961,2.9922,1.4394,5.9151,3.1758,7.4326,4.1152Zm-4.4404-45.7031c.7031.0781,1.3408.166,1.8311.2598a22.79844,22.79844,0,0,1,5.4677,1.8242,1.37085,1.37085,0,0,0,.0157-.1523c.2929-2.8203.5703-5.5411.8359-8.0821a38.9101,38.9101,0,0,1-7.8369,3.2461C470.538,107.45438,470.4365,108.42318,470.331,109.40358Zm9.376-28.0996c-.0596-1.1601-.166-2.2617-.3106-3.293a21.90223,21.90223,0,0,0-.622-2.9257c-.1973-.6856-.3985-1.3164-.6026-1.9219-.041-.1328-.0888-.2598-.1328-.3926-.1592-.4648-.3135-.9101-.4785-1.3262-.04788-.1269-.0957-.248-.1484-.3691-.1661-.4219-.336-.8184-.5059-1.1895-.0322-.08-.0693-.1621-.1064-.2382-.2081-.4395-.4151-.8477-.6338-1.2129-.751,2.3008-2.6778,5.8535-7.6289,9.6699a8.0661,8.0661,0,0,1,2.6718,3.9766A26.77349,26.77349,0,0,1,479.707,81.304Zm-10.7178,50.5703c-.2881.0371-.60158.0645-.9111.0938-.0518.6797-.0947,1.334-.1426,2a12.8615,12.8615,0,0,1,1.8467.5527,56.57023,56.57023,0,0,1,5.6758,2.9063V137.39q.2622-4.4796.5908-8.6661c0-.0429.0097-.0937.0097-.1386C475.7929,129.138,474.4628,131.19458,468.9892,131.87428Z" transform="translate(3.72236 14.54952)"/>
              </g>
              <path class="cls-2" d="M337.92091,1.34308c15.80371-2.8125,49.8242-3.9844,68.3266,25.959,9.9248,16.0664,14.6802,56.4492,7.2984,60.0175-7.38729,3.5723-29.5718-1.2558-29.5718-1.2558s-85.29249-57.1699-99.0503-61.2344c-13.7739-4.0723-28.4317-13.8789-28.4317-13.8789Z" transform="translate(3.72236 14.54952)"/>
              <path class="cls-3" d="M388.54051,9.29418a59.96675,59.96675,0,0,0-19.982-7.8125,39.403,39.403,0,0,1-18.7978,10.2266c-15.9014,3.584-52.9287,4.7676-52.9287,4.7676s45.6821.3555,69.5019-4.7774A92.50762,92.50762,0,0,1,388.54051,9.29418Zm12.3022,70.8282c-9.4433-3.8711-32.7075-16.0196-32.7075-16.0196s22.4043,13.3223,30.7393,18.3457a49.52978,49.52978,0,0,1,8.1518,6.129,17.64875,17.64875,0,0,0,6.5196-1.2579c1.3735-.664,2.3315-2.6093,2.90771-5.4296A27.18645,27.18645,0,0,1,400.84271,80.12238Zm3.7671-33.3223c4.2529,1.0723,7.3482,1.7168,9.5073,2.1133a96.40151,96.40151,0,0,0-4.3833-14.5c-.4023,2.1387-2.1821,6.5117-9.9775,7.6816-10.4414,1.5703-48.873,1.6094-48.873,1.6094S395.28071,44.44658,404.60981,46.80008Zm12.5293,26.2715a102.01372,102.01372,0,0,0-.939-12.4941c-.6997.6933-3.3378,2.039-13.2617,1.8984-13.2959-.1992-40.5644-6.9317-40.5644-6.9317s32.6411,8.4747,42.3838,11.8653A73.19679,73.19679,0,0,1,417.13911,73.07158Zm-10.56249-45.2012c-.11231-.1797-.21731-.3828-.32911-.5683a57.07431,57.07431,0,0,0-9.0923-11.2969c-1.563,1.3301-5.7329,4.2441-14.209,6.4844-11.3232,2.998-55.05659,6.0839-55.05659,6.0839s44.97749-2.9726,57.81489-3.3183A73.26545,73.26545,0,0,1,406.57662,27.87038Z" transform="translate(3.72236 14.54952)"/>
              <path class="cls-5" d="M.83152,111.45828l9.5552-5.5723s78.43109-76.8418,144.72019-98.9375,162.438,8.3633,256.7954,104.5098v39.4141s-99.7319,92.5664-256.1982,78.2343c0,0-94.95459-30.7207-149.29939-88.5156,0,0-9.1562-2.8574-5.5732-5.6445,3.5835-2.7852,16.3237-10.7481,16.3237-10.7481S1.62842,121.41528.83152,111.45828Z" transform="translate(3.72236 14.54952)"/>
              <path class="cls-4" d="M262.22462,11.41138s68.69669-1.7031,89.07169-8.4961c0,0-30.69769,13.3223-82.5859,11.8243Z" transform="translate(3.72236 14.54952)"/>
              <path class="cls-4" d="M280.42621,23.41728s68.6968-1.7031,89.0718-8.4941c0,0-30.6978,13.3222-82.5859,11.8242Z" transform="translate(3.72236 14.54952)"/>
              <path class="cls-4" d="M299.124,35.71218s68.66061,2.8028,89.437-2.6387c0,0-31.5049,11.2813-83.1831,6.3848Z" transform="translate(3.72236 14.54952)"/>
              <path class="cls-4" d="M315.19141,45.03058s68.07221,9.3984,89.2758,5.9824c0,0-32.4448,8.1973-83.4111-1.6523Z" transform="translate(3.72236 14.54952)"/>
              <path class="cls-4" d="M326.69041,47.89578s64.1875,24.5391,85.61421,26.002c0,0-33.458.6543-80.88031-20.4571Z" transform="translate(3.72236 14.54952)"/>
              <path class="cls-4" d="M316.21971,52.23758s62.1504,29.3164,83.4057,32.3945c0,0-33.4116-1.875-79.104-26.5097Z" transform="translate(3.72236 14.54952)"/>
            </g>
            <g class="cls-6">
              <path class="cls-7" d="M245.74121,3.72978s-20.3047,8.957-26.2769,9.5547-9.0566,3.6836-16.6211,12.6406c-7.564,8.959-17.7153,32.0508-39.6133,31.0547,0,0-15.31929,5.1953-10.7417,6.7871,4.5782,1.5918,32.6372,3.0664,29.8511,38.3027,0,0,66.9849-30.8574,89.9771-11.1504,22.9921,19.709,58.227,58.8262,86.5937,37.9219,28.3672-20.9004,46.2827-37.623,31.9502-54.3437S271.42041-4.03392,245.74121,3.72978Z" transform="translate(3.72236 14.54952)"/>
              <path class="cls-8" d="M201.25,84.05208s32.8457-18.9121,67.0859-3.3848c34.2392,15.5273,35.8315,38.6719,63.30271,41.8047,27.47069,3.1347,41.93119-10.9961,47.377-23.4903,6.76759-15.5253-1.06151-46.1816-22.02981-62.1074,0,0,83.5249,53.9532,74.7031,93.1621-8.82129,39.209,15.20071,64.0489-48.2934,78.3067s-105.1075,51.2851-123.6202,28.5918c-18.5131-22.6934-54.34469-40.6094-69.2749-60.3164s-32.4633-54.166-32.4633-54.166Z" transform="translate(3.72236 14.54952)"/>
              <path class="cls-3" d="M201.25,86.14188s32.8457-18.9121,67.0859-3.3848c34.2392,15.5274,35.8315,38.6719,63.30271,41.8047,27.47069,3.1348,41.93119-10.9941,47.377-23.4883,6.76759-15.5273-1.06151-46.1835-22.02981-62.1093,0,0,83.5249,53.9531,74.7031,93.1621-8.82129,39.2109,15.20071,64.0488-48.2934,78.3066s-105.1075,51.2852-123.6202,28.5918c-18.5131-22.6933-54.34469-40.6094-69.2749-60.3164s-32.4633-56.2558-32.4633-56.2558Z" transform="translate(3.72236 14.54952)"/>
              <path class="cls-2" d="M11.46582,150.81768s33.9155-.4766,39.0908-17.5957c0,0,24.68359,9.3125,39.813,17.5957,15.12889,8.2832,21.89789,17.8379,23.09229,22.6152s26.94871,21.5879,29.4619-3.9804c2.5137-25.5704,7.6064-11.2012,7.6064-11.2012s17.4561-16.3106,7.8111-35.1035c0,0,18.2695,31.9707,46.415,49.8867,28.145,17.916,59.5166,20.9805,67.4204,47.2187,7.9033,26.2364-106.7588,44.8282-172.4502,0C34.03412,175.42318,11.46582,150.81768,11.46582,150.81768Z" transform="translate(3.72236 14.54952)"/>
              <path class="cls-9" d="M14.65472,101.81768s21.3697,19.25,32.7115,21.8613c11.3422,2.6133,31.15959,7.002,47.88079,17.7285,16.7217,10.7246,33.2241,30.7793,23.0322,39.1153-10.1923,8.3379-5.1162-6.8907-8.6992-13.459-3.583-6.5703-49.45549-35.3086-54.88619-30.4942s-8.0742,15.0274-37.8066,14.3985l-4.941-4.7129s18.9786-1.4317,26.3677-5.668,11.5137-8.6055,7.7637-9.6543c-3.75-1.0508-18.4292-10.9531-18.8687-8.1133-.4399,2.8379,3.8326,9.959-4.2529,13.0137s-13.3809,5.8926-15.5342,5.8301c-2.1528-.0625-9.5176-1.4746-8.9204-4.2617.5967-2.7852,11.4234-10.7657,14.3325-12.1426s2.2886.3984-4.081-2.2891c-6.3701-2.6875-13.2681-13.2988-7.8023-14.0332C6.41652,108.20048,11.69822,100.57348,14.65472,101.81768Z" transform="translate(3.72236 14.54952)"/>
              <path class="cls-4" d="M12.46532,103.61068s21.3696,19.248,32.7119,21.8613c11.3418,2.6133,31.15919,7,47.88089,17.7265,16.7211,10.7266,33.2236,30.7793,23.0317,39.1172-10.1919,8.336-5.1157-6.8925-8.6987-13.4609-3.58349-6.5703-47.62109-33.9766-53.05179-29.1621-5.4311,4.8125-9.9087,13.6953-39.6416,13.0683l-4.9409-4.7148s18.979-1.4316,26.3682-5.666c7.3886-4.2383,11.5131-8.6055,7.7631-9.6563-3.7495-1.0488-18.4292-10.9531-18.8686-8.1132-.44,2.8378,3.833,9.9589-4.2529,13.0156-8.0855,3.0547-13.3809,5.8906-15.5342,5.8281s-9.5181-1.4746-8.9204-4.2617c.5971-2.7852,11.4238-10.7637,14.3325-12.1426,2.9092-1.3769,2.2886.3984-4.0811-2.2871-6.3696-2.6875-13.268-13.3008-7.8022-14.0352S9.50872,102.36458,12.46532,103.61068Z" transform="translate(3.72236 14.54952)"/>
              <path class="cls-3" d="M12.46532,102.41528s21.3696,19.25,32.7119,21.8614c11.3418,2.6133,31.15919,7,47.88089,17.7265,16.7211,10.7266,33.2236,30.7813,23.0317,39.1172-10.1919,8.3379-5.1157-6.8906-8.6987-13.4609-3.58349-6.5684-47.62109-33.9766-53.05179-29.1621-5.4311,4.8125-9.9087,13.6972-39.6416,13.0683l-4.9409-4.7129s18.979-1.4316,26.3682-5.6679c7.3886-4.2364,11.5131-8.6055,7.7631-9.6543-3.7495-1.0508-18.4292-10.9531-18.8686-8.1133-.44,2.8379,3.833,9.957-4.2529,13.0137-8.0855,3.0547-13.3809,5.8925-15.5342,5.83s-9.5181-1.4746-8.9204-4.2617c.5971-2.7871,11.4238-10.7656,14.3325-12.1426,2.9092-1.3769,2.2886.3985-4.0811-2.289s-13.268-13.2988-7.8022-14.0332C4.227,108.79818,9.50872,101.17118,12.46532,102.41528Z" transform="translate(3.72236 14.54952)"/>
              <path class="cls-9" d="M27.06882,88.57748s14.3325,22.746,34.6377,23.1445c20.30469.3984,53.03859-4.6778,68.17819,14.4336,15.1397,19.1094,16.2246,58.7617,26.9746,58.5937,10.7491-.1699,5.274-7.2343,4.3784-11.1172-.896-3.8828-14.0346-16.7207-14.93009-32.8457-.896-16.125-13.55571-30.7558-27.08261-32.8457s-54.47939,0-61.47409-10.1523c-6.9951-10.1524-15.3559-21.2168-18.6406-20.6113S27.06882,88.57748,27.06882,88.57748Z" transform="translate(3.72236 14.54952)"/>
              <path class="cls-4" d="M25.67482,90.16918s14.3325,22.7461,34.6377,23.1465c20.30459.3965,53.23769-2.6875,68.37789,16.4219,15.1401,19.1113,16.0249,56.7715,26.7749,56.6035,10.7495-.1679,5.2739-7.2363,4.3784-11.1172-.896-3.8808-14.0342-16.7207-14.9297-32.8457-.896-16.125-13.5561-30.7558-27.083-32.8457s-54.479,0-61.47409-10.1523-15.3555-21.2149-18.6402-20.6113C34.43212,79.37428,25.67482,90.16918,25.67482,90.16918Z" transform="translate(3.72236 14.54952)"/>
              <path class="cls-3" d="M25.67482,89.27278s14.3325,22.748,34.6377,23.1464c20.30459.3985,53.23769-2.6875,68.37789,16.4219,15.1401,19.1114,16.0249,56.7735,26.7749,56.6035,10.7495-.1679,5.2739-7.2343,4.3784-11.1171-.896-3.8809-14.0342-16.7208-14.9297-32.8458-.896-16.123-13.5561-30.7558-27.083-32.8457s-54.479,0-61.47409-10.1523-15.3555-21.2148-18.6402-20.6113C34.43212,78.47778,25.67482,89.27278,25.67482,89.27278Z" transform="translate(3.72236 14.54952)"/>
              <g>
                <g>
                  <path class="cls-10" d="M160.27191,122.45248s58.99071,39.7187,84.6333,13.7128c25.6416-25.998,6.60841-49.33-7.9702-55.041-20.706-8.125-40.5757,7.168-40.5757,7.168Z" transform="translate(3.72236 14.54952)"/>
                  <path class="cls-10" d="M205.66251,131.78058c-15.477-2.3418-41.0585-9.7481-44.0317-10.6153l-.0337.0352c2.66751,1.2207,29.6343,13.4062,54.9092,17.5723a111.03948,111.03948,0,0,0,23.2886,1.4843,27.65836,27.65836,0,0,0,5.1103-4.0918,55.342,55.342,0,0,0,4.7945-5.5527C242.06251,132.72978,227.53711,135.09308,205.66251,131.78058Zm34.9083-48.8731a34.3542,34.3542,0,0,1-12.7466,10.4942c-8.6924,4.2148-49.1221,15.9199-49.1221,15.9199s45.4512-6.752,51.8691-9.9141c5.1177-2.5195,15.6075-6.7812,19.6685-8.4121A35.67732,35.67732,0,0,0,240.57081,82.90748Zm-72.82719,34.1817s36.19969,6.8105,55.93019,6.0527a284.53759,284.53759,0,0,1,30.4385.375,30.67918,30.67918,0,0,0,3.3129-12.4941c-4.3955,1.6914-18.1181,6.5468-33.15859,7.33C205.98431,119.31378,167.74362,117.08918,167.74362,117.08918Zm4.55029-3.7735s31.1709,1.0293,53.3853-.58c16.0869-1.1661,26.7841-4.7891,31.4843-6.7012a29.52184,29.52184,0,0,0-4.2036-11.2656c-2.9018,2.0918-10.3911,7.2109-17.3677,9.5878C215.69721,111.14388,172.29391,113.31568,172.29391,113.31568Zm62.09471-33.0195a35.65058,35.65058,0,0,0-12.50141-1.4824,61.40392,61.40392,0,0,1-9.05859,8.0488c-10.13141,7.332-26.69781,15.3438-26.69781,15.3438s16.80081-4.0625,27.7783-8.5C222.52391,90.22778,231.09221,83.18288,234.38862,80.29618Z" transform="translate(3.72236 14.54952)"/>
                </g>
                <g>
                  <path class="cls-3" d="M158.03711,122.45248s58.9907,39.7187,84.6333,13.7128c25.6416-25.998,6.6084-49.33-7.9703-55.041-20.706-8.125-40.5756,7.168-40.5756,7.168Z" transform="translate(3.72236 14.54952)"/>
                  <path class="cls-2" d="M203.42771,131.78058c-15.47709-2.3418-41.0586-9.7481-44.0318-10.6153l-.0336.0352c2.6674,1.2207,29.6347,13.4062,54.9091,17.5723a111.03952,111.03952,0,0,0,23.2886,1.4843,27.65929,27.65929,0,0,0,5.1104-4.0918,55.34046,55.34046,0,0,0,4.7944-5.5527C239.82762,132.72978,225.30221,135.09308,203.42771,131.78058Zm34.9082-48.8731a34.35328,34.35328,0,0,1-12.7466,10.4942c-8.6919,4.2148-49.1216,15.9199-49.1216,15.9199s45.4507-6.752,51.8682-9.9141c5.1182-2.5195,15.6074-6.7812,19.6689-8.4121A35.67433,35.67433,0,0,0,238.33591,82.90748Zm-72.8272,34.1817s36.1997,6.8105,55.9307,6.0527a284.53062,284.53062,0,0,1,30.438.375,30.67941,30.67941,0,0,0,3.313-12.4941c-4.3955,1.6914-18.1182,6.5468-33.1587,7.33C203.74951,119.31378,165.50871,117.08918,165.50871,117.08918Zm4.5503-3.7735s31.1709,1.0293,53.3853-.58c16.0869-1.1661,26.7842-4.7891,31.4834-6.7012a29.51333,29.51333,0,0,0-4.2022-11.2656c-2.9023,2.0918-10.3916,7.2109-17.3681,9.5878C213.46191,111.14388,170.059,113.31568,170.059,113.31568Zm62.0948-33.0195a35.65132,35.65132,0,0,0-12.5015-1.4824,61.417,61.417,0,0,1-9.0581,8.0488c-10.1318,7.332-26.6978,15.3438-26.6978,15.3438s16.8008-4.0625,27.7779-8.5C220.289,90.22778,228.85741,83.18288,232.15381,80.29618Z" transform="translate(3.72236 14.54952)"/>
                </g>
              </g>
              <path class="cls-9" d="M64.249,57.50908s6.72409,22.4707,22.47309,22.875c15.7476.4062,44.5191-2.0215,57.8443,1.6211,13.32521,3.6406,29.5761,25.4551,29.5761,25.4551l-14.1015,14.9804s6.0263-25.3047-7.0967-32.4668c-13.1231-7.1601-28.4038-5.6933-41.647-3.2363-22.456,4.168-51.17279-3.0742-51.30129-25.9531Z" transform="translate(3.72236 14.54952)"/>
              <path class="cls-4" d="M63.74362,58.21608s6.72459,22.4727,22.47309,22.8789c15.7476.4024,44.5196-2.0234,57.8443,1.6172,13.3252,3.6406,31.9014,27.0938,31.9014,27.0938l-16.42679,13.3418s6.02689-25.3047-7.09621-32.4649c-13.123-7.1621-28.4043-5.6953-41.6484-3.2363-22.4546,4.166-51.17289-3.0742-51.29979-25.9531Z" transform="translate(3.72236 14.54952)"/>
              <path class="cls-3" d="M63.74362,57.91728S70.46821,80.39,86.21671,80.79618c15.7476.4023,44.5196-2.0234,57.8443,1.6172,13.3252,3.6406,32.1074,27.5176,32.1074,27.5176l-16.312,13.125s5.7061-25.5118-7.417-32.6719c-13.123-7.1621-28.4043-5.6953-41.6484-3.2363-22.4546,4.166-51.17289-3.0743-51.29979-25.9532Z" transform="translate(3.72236 14.54952)"/>
              <path class="cls-9" d="M109.95451,28.43878s6.294,10.3281,13.8589,10.3769c7.5655.0469,17.9737,2.961,17.9737,2.961l-1.1538.9824s-5.6724-2.2285-15.2276-1.8535c-9.5552.373-17.5757-5.6055-18.1186-10.8653C107.28711,30.04028,108.94091,26.94658,109.95451,28.43878Z" transform="translate(3.72236 14.54952)"/>
              <path class="cls-9" d="M84.705,44.78058s6.0635,7.2363,15.0215,5.4375c8.9575-1.7989,14.9307-6.7364,22.8926-2.5762a69.03284,69.03284,0,0,1,14.45651,10.5742l.982,2.084s-5.68361-5.4316-11.25831-7.7598c-5.5738-2.3281-9.9536-5.8984-18.3145-2.3222s-25.2363,8.4043-27.6474-2.7188C78.42671,36.37628,84.705,44.78058,84.705,44.78058Z" transform="translate(3.72236 14.54952)"/>
              <path class="cls-9" d="M158.03711,65.65558s13.8379,4.998,17.9253,12.8867c4.0869,7.8906-1.2525,15.6836,2.5937,19.5449,3.8472,3.8594,6.8677-1.8672,5.9722-4.7168-.896-2.8496-3.8794-19.375-8.0606-21.9941-4.1816-2.6172-16.1958-8.7031-16.1958-8.7031Z" transform="translate(3.72236 14.54952)"/>
              <path class="cls-9" d="M147.21871,64.36648s-9.5259-2.543-13.8628,3.1817c-4.3354,5.7246-16.13129,10.207-20.5039,9.289-4.373-.9219-6.2476-3.8496-2.1499-4.6992,4.0991-.8496,8.208,2.3301,12.97751-3.2617,4.77049-5.5899,16.67089-7.2696,22.98979-5.5488Z" transform="translate(3.72236 14.54952)"/>
              <path class="cls-9" d="M162.03071,47.49928s14.9336-3.459,12.9424-16.9961c-1.9907-13.5351-.7964-15.7265,5.1753-16.3222,5.97221-.5977,17.1191-14.0664,17.1191-14.0664l-10.3506-1.0625s1.793,2.3867-.9946,4.9765c-2.7876,2.5879-14.6968,6.1699-14.5146,11.1465.1816,4.9766,8.3676,26.1816-11.1358,29.1426Z" transform="translate(3.72236 14.54952)"/>
              <path class="cls-9" d="M153.458,44.31768s10.80761-10.8692,1.9233-21.2754c-8.8848-10.4043-9.0376-12.8945-4.2974-16.5762,4.7393-3.6816,7.0186-21.0156,7.0186-21.0156l-9.3311,4.6035s2.7876,1.0703,1.8028,4.7461c-.9844,3.6738-9.1641,13.0391-6.3638,17.1582,2.8008,4.1172,21.0093,17.7227,6.0669,30.6016Z" transform="translate(3.72236 14.54952)"/>
              <path class="cls-9" d="M161.65381,59.14188s16.0815,3.8203,31.8706-19.0469c15.791-22.8672,27.5439-27.2343,33.6313-26.9121,11.23.5996,22.6958-7.6777,22.6958-7.6777l-6.7124-8.1738a13.49222,13.49222,0,0,1-7.1514,7.3242c-5.4917,2.3906-21.0478,5.2109-25.8789,10.084-7.1748,7.2363-26.7431,45.6953-45.75,38.2207Z" transform="translate(3.72236 14.54952)"/>
              <g>
                <path class="cls-11" d="M164.86711,53.17118a14.35545,14.35545,0,1,1-14.35449-14.3555A14.35909,14.35909,0,0,1,164.86711,53.17118Z" transform="translate(3.72236 14.54952)"/>
                <path class="cls-4" d="M161.90571,53.17118a11.3938,11.3938,0,1,1-11.39309-11.3945A11.389,11.389,0,0,1,161.90571,53.17118Z" transform="translate(3.72236 14.54952)"/>
                <path class="cls-12" d="M150.51262,41.77668a7.54345,7.54345,0,0,0-1.03121.1093,11.32475,11.32475,0,0,1,0,22.5684,9.95219,9.95219,0,0,0,1.03121.1074,11.39255,11.39255,0,1,0,0-22.7851Z" transform="translate(3.72236 14.54952)"/>
                <path class="cls-12" d="M147.97551,57.88018a4.7966,4.7966,0,1,1-4.7998-4.8008A4.79209,4.79209,0,0,1,147.97551,57.88018Z" transform="translate(3.72236 14.54952)"/>
                <path class="cls-12" d="M152.53751,47.49928a2.7185,2.7185,0,1,1-2.7187-2.7187A2.72289,2.72289,0,0,1,152.53751,47.49928Z" transform="translate(3.72236 14.54952)"/>
              </g>
              <path class="cls-13" d="M158.03711,122.45248s39.9282,72.8769-10.2364,108.1621c0,0,80.2437,23.3418,125.4112-8.6094,0,0,7.167-21.5-28.0679-35.832C209.90911,171.83918,161.40571,126.511,158.03711,122.45248Z" transform="translate(3.72236 14.54952)"/>
              <path class="cls-4" d="M3.975,109.58138s-.996,5.873,5.3746,8.4628c6.3711,2.586,13.437,4.4786,10.3525,7.7637-3.0854,3.2832-9.2754,14.4356-13.2974,14.9317-4.0219.4941-9.6943-2.8907-6.8081-6.4727,2.8853-3.584,9.9527-7.168,6.6685-10.9492C2.98042,119.53638-5.879,109.18288,3.975,109.58138Z" transform="translate(3.72236 14.54952)"/>
              <g>
                <path class="cls-14" d="M87.18062,180.22778c2.13189-.1543,3.35209.375,3.63669,2.211a2.952,2.952,0,0,1-2.6045,3.5039c-2.269.4375-2.3505-1.666-2.6479-3.1426C85.25341,181.263,85.87151,180.20248,87.18062,180.22778Z" transform="translate(3.72236 14.54952)"/>
                <path class="cls-14" d="M53.165,168.20048c2.1309-.1523,3.3516.377,3.6367,2.2129a2.953,2.953,0,0,1-2.6045,3.5039c-2.269.4375-2.3506-1.6641-2.6479-3.1426C51.23772,169.23758,51.85492,168.181,53.165,168.20048Z" transform="translate(3.72236 14.54952)"/>
                <path class="cls-14" d="M89.14841,192.17318c.1035,1.455-.5913,2.2285-2.0405,2.125a3.10132,3.10132,0,0,1-3.1245-2.5489c-.2999-2.0527,1.5058-1.6953,2.7094-1.8301C88.32121,189.73568,89.15281,190.52078,89.14841,192.17318Z" transform="translate(3.72236 14.54952)"/>
                <path class="cls-14" d="M91.41551,199.95438c.13911,1.1875-.1826,2.1582-1.5303,2.1758-1.6655.0215-3.3555-.211-3.6938-2.3086-.2183-1.3418.6919-1.8047,1.8593-1.9277C89.70551,197.71608,90.98971,198.13408,91.41551,199.95438Z" transform="translate(3.72236 14.54952)"/>
                <path class="cls-14" d="M96.311,200.07938a2.31424,2.31424,0,0,1,2.4497,2.5234c.0352,1.6348-1.1362,1.8086-2.3657,1.8399-1.4453.0332-2.7617-.3926-2.7657-2.043C93.62841,200.78838,95.142,200.49738,96.311,200.07938Z" transform="translate(3.72236 14.54952)"/>
                <path class="cls-14" d="M80.46431,194.90168a3.50957,3.50957,0,0,1,3.21,2.3886c.4384,1.2539-.8238,1.7598-1.8946,1.8965a2.3587,2.3587,0,0,1-2.9365-2.0176A1.67753,1.67753,0,0,1,80.46431,194.90168Z" transform="translate(3.72236 14.54952)"/>
                <path class="cls-14" d="M62.69532,176.91138c-1.7554.1426-2.1787-.8086-2.2744-2.1211a1.86336,1.86336,0,0,1,1.9804-2.2519c1.3169-.0938,2.3379.2266,2.3853,1.7773A2.28312,2.28312,0,0,1,62.69532,176.91138Z" transform="translate(3.72236 14.54952)"/>
                <path class="cls-14" d="M71.95891,173.806c1.3272.0566,2.3155.664,2.43071,2.0351A2.10079,2.10079,0,0,1,72.29,178.181c-1.5059.1992-2.1133-.6504-2.2227-2.0371C69.956,174.75708,70.41691,173.85478,71.95891,173.806Z" transform="translate(3.72236 14.54952)"/>
                <path class="cls-14" d="M64.93842,185.97778a2.35059,2.35059,0,0,1-2.2724-2.3847,1.61045,1.61045,0,0,1,1.8515-1.9024c1.53229.0352,2.55959.7871,2.4141,2.4453A2.028,2.028,0,0,1,64.93842,185.97778Z" transform="translate(3.72236 14.54952)"/>
                <path class="cls-14" d="M79.517,191.33528c-1.8613.1425-2.23239-1.0469-2.2348-2.5293-.0025-1,.31741-1.8457,1.52341-1.4961,1.17729.3398,2.83789.123,2.97169,2.0234C81.892,190.96418,80.82471,191.29618,79.517,191.33528Z" transform="translate(3.72236 14.54952)"/>
                <path class="cls-14" d="M81.15821,181.845c-.03959,1.2539-.6368,2.1172-1.8184,2.1836a3.22633,3.22633,0,0,1-3.0083-2.2148c-.5015-1.1973.6548-1.9473,1.7602-1.9238C79.41941,179.91918,80.74071,180.30988,81.15821,181.845Z" transform="translate(3.72236 14.54952)"/>
                <path class="cls-14" d="M58.77972,181.03248c.021,1.168-.4033,1.9239-1.5068,1.7891-1.3242-.166-2.6372-.5449-2.8174-2.2188-.1421-1.3203.607-1.8906,1.8189-1.8808A2.299,2.299,0,0,1,58.77972,181.03248Z" transform="translate(3.72236 14.54952)"/>
                <path class="cls-14" d="M50.62692,165.61258c.0205,1.1699-.4043,1.9258-1.5073,1.7891-1.3237-.1641-2.6372-.543-2.8169-2.2168-.1421-1.3223.6064-1.8887,1.8174-1.8828A2.30191,2.30191,0,0,1,50.62692,165.61258Z" transform="translate(3.72236 14.54952)"/>
                <path class="cls-14" d="M75.60741,193.15948a2.83112,2.83112,0,0,1-2.1089,2.709c-1.1851.2636-1.8286-.6387-2.0225-1.7598-.2436-1.4082.3194-2.2402,1.8111-2.2988A2.33963,2.33963,0,0,1,75.60741,193.15948Z" transform="translate(3.72236 14.54952)"/>
                <path class="cls-14" d="M43.15422,166.82548c.1158,1.0098-.2226,1.7578-1.3002,1.9199-1.2105.1817-2.0157-.2812-2.0728-1.6113a1.50259,1.50259,0,0,1,1.5435-1.7227A1.47542,1.47542,0,0,1,43.15422,166.82548Z" transform="translate(3.72236 14.54952)"/>
                <path class="cls-14" d="M58.80172,186.60668c1.1084.0938,2.0703.4883,2.0064,1.7637a1.68972,1.68972,0,0,1-1.7754,1.5723c-1.1104.0234-2.0694-.4707-2.0132-1.7402C57.06052,187.22778,57.86032,186.761,58.80172,186.60668Z" transform="translate(3.72236 14.54952)"/>
                <path class="cls-14" d="M42.60792,177.82158c1.1079.0918,2.0698.4883,2.0058,1.7637a1.68662,1.68662,0,0,1-1.7754,1.5703c-1.1103.0254-2.0693-.4707-2.0132-1.7383C40.86622,178.44268,41.666,177.97588,42.60792,177.82158Z" transform="translate(3.72236 14.54952)"/>
                <path class="cls-14" d="M48.45112,184.84108c1.107.0938,2.0694.4903,2.0054,1.7637a1.68469,1.68469,0,0,1-1.7744,1.5723c-1.1118.0254-2.0689-.4707-2.0142-1.7383C46.70842,185.46218,47.50872,184.99538,48.45112,184.84108Z" transform="translate(3.72236 14.54952)"/>
                <path class="cls-14" d="M96.20011,182.33718c1.107.0918,2.0708.4883,2.0049,1.7637a1.68394,1.68394,0,0,1-1.7739,1.5703c-1.1113.0254-2.0688-.4707-2.0146-1.7383C94.45751,182.95828,95.25781,182.49148,96.20011,182.33718Z" transform="translate(3.72236 14.54952)"/>
                <path class="cls-14" d="M38.07032,168.86648c1.1079.0918,2.0703.4863,2.0058,1.7637a1.68678,1.68678,0,0,1-1.7749,1.5703c-1.1118.0254-2.0693-.4707-2.0132-1.7383C36.32912,169.48568,37.12892,169.02078,38.07032,168.86648Z" transform="translate(3.72236 14.54952)"/>
                <path class="cls-14" d="M34.892,160.11458c1.108.0918,2.0699.4882,2.0049,1.7656a1.6857,1.6857,0,0,1-1.7744,1.5703c-1.1113.0254-2.0693-.4727-2.0141-1.7383C33.15032,160.73568,33.95012,160.26888,34.892,160.11458Z" transform="translate(3.72236 14.54952)"/>
                <path class="cls-14" d="M50.46092,179.80988c-1.1353.0449-2.082-.3008-2.187-1.5489a1.60717,1.60717,0,0,1,1.5874-1.7168c1.1313-.1523,2.0659.2833,2.1836,1.5176C52.13912,179.07748,51.374,179.57158,50.46092,179.80988Z" transform="translate(3.72236 14.54952)"/>
                <path class="cls-14" d="M46.72942,173.52278c-1.1347.0449-2.082-.3008-2.187-1.5489a1.60542,1.60542,0,0,1,1.5865-1.7168c1.1328-.1543,2.0669.2813,2.1836,1.5176C48.40822,172.79028,47.643,173.28248,46.72942,173.52278Z" transform="translate(3.72236 14.54952)"/>
                <path class="cls-14" d="M42.34372,161.73958c-1.1362.0449-2.082-.3008-2.188-1.5489a1.60674,1.60674,0,0,1,1.5874-1.7168c1.1314-.1543,2.0674.2813,2.1836,1.5176C44.02092,161.00708,43.25582,161.50128,42.34372,161.73958Z" transform="translate(3.72236 14.54952)"/>
                <path class="cls-14" d="M32.09222,158.16528c-1.1347.045-2.082-.3007-2.187-1.5468a1.6071,1.6071,0,0,1,1.5865-1.7188c1.1328-.1523,2.0668.2832,2.1845,1.5176C33.77092,157.43288,33.00582,157.92708,32.09222,158.16528Z" transform="translate(3.72236 14.54952)"/>
                <path class="cls-14" d="M74.34962,186.17508a1.5208,1.5208,0,0,1-1.252,1.9141c-1.12011.207-2.00051-.1192-2.16161-1.4239a1.513,1.513,0,0,1,1.2475-1.9101C73.29591,184.554,74.18211,184.85668,74.34962,186.17508Z" transform="translate(3.72236 14.54952)"/>
              </g>
            </g>
            <path class="cls-4" d="M411.90231,98.91728s10.8779,35.7519-1.7979,62.8477c0,0-6.31-2.5176-8.3945-3.0625,0,0,12.5415-38.0918,0-57.3672Z" transform="translate(3.72236 14.54952)"/>
            <path class="cls-4" d="M395.79291,95.69268s18.74171,19.5664.9405,67.1894l-4.9761,3.9825s19.3447-42.8614-1.793-76.2422Z" transform="translate(3.72236 14.54952)"/>
            <g>
              <path class="cls-15" d="M357.77531,144.91728c2.5674-.0078,3.9844.7324,4.1709,2.9551a3.54318,3.54318,0,0,1-3.413,3.9785c-2.754.3359-2.6758-2.1914-2.9102-3.9844C355.38081,145.99738,356.20751,144.78248,357.77531,144.91728Z" transform="translate(3.72236 14.54952)"/>
              <path class="cls-15" d="M325.22462,184.20438a3.91561,3.91561,0,0,1-3.31011,3.4453c-2.0195.3809-3.08789-.9082-3.3945-2.5722-.3535-1.9043,1.1279-3.004,2.685-3.4219C323.50391,181.03448,323.80511,183.55008,325.22462,184.20438Z" transform="translate(3.72236 14.54952)"/>
              <path class="cls-15" d="M362.01662,157.46608c.00189,1.752-.89411,2.6192-2.62111,2.375-1.9024-.2715-3.3858-1.4238-3.5308-3.3164-.188-2.4844,1.9453-1.9023,3.39991-1.9668C361.22991,154.47588,362.16111,155.48568,362.01662,157.46608Z" transform="translate(3.72236 14.54952)"/>
              <path class="cls-15" d="M364.083,166.97588c.0678,1.4355-.3999,2.5703-2.0157,2.4785-1.997-.1152-4.0029-.5312-4.2339-3.0742-.1484-1.625.981-2.1035,2.39021-2.1543C362.22162,164.15358,363.72362,164.761,364.083,166.97588Z" transform="translate(3.72236 14.54952)"/>
              <path class="cls-15" d="M332.90281,188.66338c.0469,2-.7486,3.0078-2.3843,3.25-2.1387.3164-2.812-.9219-2.791-2.7969.0176-1.6113-.0757-3.3515,2.27-3.3418C332.09711,185.78638,332.246,187.64,332.90281,188.66338Z" transform="translate(3.72236 14.54952)"/>
              <path class="cls-15" d="M369.937,167.53638a2.78,2.78,0,0,1,2.72361,3.2286c-.09421,1.9589-1.51371,2.0722-2.98781,2.0039-1.7334-.0801-3.2759-.7012-3.1426-2.6758C366.663,168.16138,368.5,167.93878,369.937,167.53638Z" transform="translate(3.72236 14.54952)"/>
              <path class="cls-15" d="M351.38571,160.00518a4.22528,4.22528,0,0,1,3.645,3.1348c.42091,1.5371-1.1338,2.0351-2.4272,2.1132a2.83781,2.83781,0,0,1-3.3511-2.6621A2.02011,2.02011,0,0,1,351.38571,160.00518Z" transform="translate(3.72236 14.54952)"/>
              <path class="cls-15" d="M332.42821,138.39778c-2.1148.0254-2.544-1.1504-2.5464-2.7286a2.23709,2.23709,0,0,1,2.56-2.5351c1.5855-.0039,2.7823.4648,2.7085,2.3281A2.74243,2.74243,0,0,1,332.42821,138.39778Z" transform="translate(3.72236 14.54952)"/>
              <path class="cls-15" d="M340.88131,137.429c1.585.1797,2.71731.9902,2.7407,2.6406.022,1.6739-1.0967,2.5293-2.71039,2.6289-1.82081.1114-2.47761-.955-2.49271-2.625C338.40231,138.40168,339.02971,137.35868,340.88131,137.429Z" transform="translate(3.72236 14.54952)"/>
              <path class="cls-15" d="M313.77141,179.222c1.17921.1484,3.0025-.2969,2.9488,1.8613-.0435,1.7383-1.4229,2.3067-2.9698,2.3594-1.4697.0508-2.9716-.0059-3.0195-2.0313C310.685,179.41338,312.11671,179.23568,313.77141,179.222Z" transform="translate(3.72236 14.54952)"/>
              <path class="cls-15" d="M341.30121,184.35088c-.7143,1.748-2.49659,1.8203-3.9321,1.9219-1.458.1074-2.1567-1.1641-1.936-2.5801.2631-1.6953,1.4936-2.3047,3.1093-2.25C340.34221,181.50318,340.84762,182.82548,341.30121,184.35088Z" transform="translate(3.72236 14.54952)"/>
              <path class="cls-15" d="M333.53271,148.01688a2.81994,2.81994,0,0,1-2.524-3.0449,1.93182,1.93182,0,0,1,2.377-2.1231c1.8325.168,3.001,1.1543,2.6875,3.1309A2.43189,2.43189,0,0,1,333.53271,148.01688Z" transform="translate(3.72236 14.54952)"/>
              <path class="cls-15" d="M350.54931,155.65558c-2.24169.0156-2.5869-1.4395-2.4668-3.2168.0805-1.1992.5342-2.1836,1.9516-1.666,1.3809.5058,3.3877.3847,3.3892,2.6738C353.42331,155.41138,352.11811,155.71808,350.54931,155.65558Z" transform="translate(3.72236 14.54952)"/>
              <path class="cls-15" d="M318.54341,153.58718c1.6948-.0586,2.6279.4981,2.6509,2.0684.0234,1.5879-.6226,2.7929-2.2905,2.9844a2.30531,2.30531,0,0,1-2.7735-2.4122A2.50667,2.50667,0,0,1,318.54341,153.58718Z" transform="translate(3.72236 14.54952)"/>
              <path class="cls-15" d="M353.309,144.42318c-.1528,1.498-.9399,2.4843-2.3608,2.4628a3.86907,3.86907,0,0,1-3.4185-2.9043c-.5029-1.4746.9468-2.2773,2.2676-2.1562C351.38721,141.97,352.937,142.55008,353.309,144.42318Z" transform="translate(3.72236 14.54952)"/>
              <path class="cls-15" d="M326.56681,141.57748c-.07219,1.4042-.645,2.2734-1.955,2.0175-1.5723-.3086-3.1143-.873-3.19-2.8925-.0595-1.5958.88581-2.2149,2.3365-2.1016A2.76236,2.76236,0,0,1,326.56681,141.57748Z" transform="translate(3.72236 14.54952)"/>
              <path class="cls-15" d="M340.19771,173.73758c-.6733,1.2988-1.5249,2.7227-3.1587,2.8359a2.33841,2.33841,0,0,1-2.6245-2.0175c-.1621-2,1.2075-2.7129,2.9722-2.7559A2.46641,2.46641,0,0,1,340.19771,173.73758Z" transform="translate(3.72236 14.54952)"/>
              <path class="cls-15" d="M331.46821,170.19458a3.93494,3.93494,0,0,1-3.6279,2.4668c-1.5186.002-2.2881-.8164-2.0899-2.3066.3091-2.3398,2.2037-1.7813,3.6744-1.8027C330.42771,168.53838,331.63471,168.53058,331.46821,170.19458Z" transform="translate(3.72236 14.54952)"/>
              <path class="cls-15" d="M362.52491,174.00708c1.6879.3282,2.187,1.7129,2.4282,3.086.3081,1.7441-.9634,2.0957-2.3233,1.9648-1.5976-.1543-2.65719-1.0351-2.5634-2.75C360.14551,174.86068,361.12251,174.17118,362.52491,174.00708Z" transform="translate(3.72236 14.54952)"/>
              <path class="cls-15" d="M324.06981,175.42708c.0093,1.9355-1.499,1.6211-2.6397,1.6386-1.1567.0196-2.8579.3535-2.8613-1.4101a2.583,2.583,0,0,1,2.5903-2.7969C322.94431,172.79818,323.60051,173.97388,324.06981,175.42708Z" transform="translate(3.72236 14.54952)"/>
              <path class="cls-15" d="M345.71241,157.515c-.3536,1.7792-1.3262,2.8554-2.7515,3.0683-1.44429.2168-2.1397-.918-2.2774-2.2754-.1733-1.7109.5708-2.6601,2.3624-2.6035A2.80842,2.80842,0,0,1,345.71241,157.515Z" transform="translate(3.72236 14.54952)"/>
              <path class="cls-15" d="M315.85741,189.99148c-.0493,1.3418-.4497,2.6563-1.9405,2.707-1.3867.045-3.04729-.3945-2.84129-2.2871a2.61475,2.61475,0,0,1,2.375-2.498C314.93551,187.79028,315.83981,188.386,315.85741,189.99148Z" transform="translate(3.72236 14.54952)"/>
              <path class="cls-15" d="M326.48191,163.08718c-1.2798-.1972-2.7422-.5234-2.4624-2.084.2803-1.5644,1.8847-1.9453,3.3047-1.9629a1.90722,1.90722,0,0,1,2.1259,1.8653C329.42231,162.763,327.94821,163.011,326.48191,163.08718Z" transform="translate(3.72236 14.54952)"/>
              <path class="cls-15" d="M347.89941,167.98568a2.391,2.391,0,0,1-2.21879,2.4394,2.26689,2.26689,0,0,1-2.68021-1.8887c-.3486-1.6113.7095-2.1445,2.11821-2.1543C346.33881,166.37428,347.61711,166.32548,347.89941,167.98568Z" transform="translate(3.72236 14.54952)"/>
              <path class="cls-15" d="M331.91841,179.136a1.80769,1.80769,0,0,1-1.7485,2.1309c-1.7334.1836-2.564-.8516-2.9741-2.3066-.418-1.4786.603-1.7911,1.7353-1.8399C330.39741,177.054,331.78662,177.18678,331.91841,179.136Z" transform="translate(3.72236 14.54952)"/>
              <path class="cls-15" d="M338.36621,165.77278c-.0025,1.5214-.3614,2.4746-1.4195,2.2773-1.3823-.2598-2.7212-.9082-2.7153-2.7012.0024-1.1875.42921-2.1445,1.80321-1.9961A2.42828,2.42828,0,0,1,338.36621,165.77278Z" transform="translate(3.72236 14.54952)"/>
              <path class="cls-15" d="M355.45751,172.52078c.0864,1.207-.3428,2.0996-1.6314,2.2402-1.1201.1211-2.1509-.1718-2.3613-1.4902-.22019-1.4004.2266-2.4297,1.8525-2.5078A1.801,1.801,0,0,1,355.45751,172.52078Z" transform="translate(3.72236 14.54952)"/>
              <path class="cls-15" d="M321.21771,166.17708c.0537,1.2187-.4155,2.0879-1.7182,2.1914-1.46589.1172-2.3921-.5059-2.3501-2.1035a1.80659,1.80659,0,0,1,1.9946-1.9356A1.77337,1.77337,0,0,1,321.21771,166.17708Z" transform="translate(3.72236 14.54952)"/>
              <path class="cls-15" d="M326.12841,148.25708c1.3193.2051,2.4389.7598,2.2544,2.2832a2.02925,2.02925,0,0,1-2.2578,1.7344c-1.3331-.0644-2.439-.7383-2.2676-2.2539C323.98921,148.85868,324.98631,148.36458,326.12841,148.25708Z" transform="translate(3.72236 14.54952)"/>
              <path class="cls-15" d="M316.70411,139.41728c-1.3653-.041-2.4693-.5313-2.4917-2.0371a1.92927,1.92927,0,0,1,2.0449-1.9238c1.3691-.0899,2.4526.5097,2.4887,2.0019C318.77531,138.681,317.81781,139.21028,316.70411,139.41728Z" transform="translate(3.72236 14.54952)"/>
              <path class="cls-15" d="M344.79,149.04418c.0498,1.1875-.42139,2.0469-1.6602,2.1856-1.3598.1543-2.3877-.3106-2.47019-1.8867a1.81521,1.81521,0,0,1,1.65379-2.1836C343.663,147.013,344.69971,147.44848,344.79,149.04418Z" transform="translate(3.72236 14.54952)"/>
            </g>
            <g>
              <path class="cls-14" d="M218.49311,175.49348c2.1074.3515,3.16851,1.1543,3.0137,3.0058a2.95039,2.95039,0,0,1-3.3569,2.791c-2.3086-.1074-1.8916-2.1699-1.8335-3.6757C216.37591,176.04618,217.225,175.16528,218.49311,175.49348Z" transform="translate(3.72236 14.54952)"/>
              <path class="cls-14" d="M188.26411,155.79818c2.1079.3515,3.1694,1.1543,3.0142,3.0058a2.95263,2.95263,0,0,1-3.357,2.791c-2.3081-.1074-1.8921-2.1699-1.8335-3.6758C186.14741,156.35088,186.99651,155.46808,188.26411,155.79818Z" transform="translate(3.72236 14.54952)"/>
              <path class="cls-14" d="M183.664,204.39778a3.26585,3.26585,0,0,1-3.1982,2.3691c-1.71.0293-2.4073-1.1777-2.4283-2.5859-.0258-1.6133,1.3443-2.3086,2.6802-2.4356C182.69231,201.556,182.58881,203.66338,183.664,204.39778Z" transform="translate(3.72236 14.54952)"/>
              <path class="cls-14" d="M176.84171,226.33718a3.26354,3.26354,0,0,1-3.1982,2.3692c-1.71.0312-2.4072-1.1739-2.4287-2.584-.0254-1.6133,1.3452-2.3086,2.6807-2.4356C175.87011,223.49538,175.76662,225.60478,176.84171,226.33718Z" transform="translate(3.72236 14.54952)"/>
              <path class="cls-14" d="M217.59131,187.56768c-.24169,1.4394-1.09869,2.0273-2.482,1.584a3.09875,3.09875,0,0,1-2.438-3.211c.1924-2.0644,1.8628-1.291,3.0655-1.1425C217.36231,185.00318,217.98531,185.96218,217.59131,187.56768Z" transform="translate(3.72236 14.54952)"/>
              <path class="cls-14" d="M217.96331,195.66338c-.145,1.1875-.686,2.0547-1.9995,1.7539-1.6235-.3711-3.2119-.9941-3.0478-3.1113.1054-1.3555,1.09761-1.5918,2.2622-1.4375C216.82811,193.08718,217.977,193.79418,217.96331,195.66338Z" transform="translate(3.72236 14.54952)"/>
              <path class="cls-14" d="M189.34571,209.12818c-.2393,1.6485-1.0332,2.3633-2.4097,2.334-1.8003-.0351-2.1787-1.1484-1.90139-2.6836.23779-1.3203.40329-2.7636,2.32809-2.4258C189.08541,206.65358,188.95011,208.19458,189.34571,209.12818Z" transform="translate(3.72236 14.54952)"/>
              <path class="cls-14" d="M222.69181,196.93878a2.31344,2.31344,0,0,1,1.7857,3.0312c-.3496,1.5957-1.5303,1.4883-2.73189,1.2285-1.41221-.3066-2.59141-1.0312-2.20661-2.6347C219.91691,196.99738,221.45651,197.06958,222.69181,196.93878Z" transform="translate(3.72236 14.54952)"/>
              <path class="cls-14" d="M208.50971,188.17508a3.51078,3.51078,0,0,1,2.5567,3.0801c.1318,1.3203-1.2144,1.5137-2.2872,1.3965a2.36269,2.36269,0,0,1-2.3798-2.6524A1.68,1.68,0,0,1,208.50971,188.17508Z" transform="translate(3.72236 14.54952)"/>
              <path class="cls-14" d="M195.476,166.50708c-1.7402-.2754-1.9277-1.2988-1.7109-2.5957a1.86409,1.86409,0,0,1,2.4551-1.7246c1.3017.2188,2.2187.7696,1.8989,2.291A2.28282,2.28282,0,0,1,195.476,166.50708Z" transform="translate(3.72236 14.54952)"/>
              <path class="cls-14" d="M205.21091,165.67118a2.20825,2.20825,0,0,1,1.8823,2.5488,2.09806,2.09806,0,0,1-2.5913,1.7793c-1.5107-.1601-1.9004-1.1308-1.6807-2.5019C203.04051,166.12238,203.70062,165.35478,205.21091,165.67118Z" transform="translate(3.72236 14.54952)"/>
              <path class="cls-14" d="M174.95451,198.71218c.9473.2871,2.5064.1738,2.1612,1.9375-.2759,1.4238-1.4883,1.6973-2.7666,1.5235-1.2129-.1602-2.43749-.418-2.1949-2.086C172.393,198.44068,173.59421,198.49348,174.95451,198.71218Z" transform="translate(3.72236 14.54952)"/>
              <path class="cls-14" d="M196.84081,206.75518c-.8296,1.3379-2.3023,1.1465-3.4956,1.0332-1.2119-.1172-1.6084-1.2578-1.229-2.3906.4511-1.3555,1.5459-1.6836,2.8652-1.4141C196.45011,204.28448,196.68111,205.43878,196.84081,206.75518Z" transform="translate(3.72236 14.54952)"/>
              <path class="cls-14" d="M195.52141,175.845a2.34694,2.34694,0,0,1-1.6464-2.8515,1.60882,1.60882,0,0,1,2.246-1.4121c1.4815.3945,2.3038,1.3671,1.77061,2.9433A2.02283,2.02283,0,0,1,195.52141,175.845Z" transform="translate(3.72236 14.54952)"/>
              <path class="cls-14" d="M208.42921,184.48758c-1.8433-.3008-1.9234-1.5449-1.5767-2.9863.2329-.9727.7427-1.7188,1.833-1.0957,1.064.6074,2.7285.7871,2.41111,2.6679C210.82371,184.68488,209.70891,184.75518,208.42921,184.48758Z" transform="translate(3.72236 14.54952)"/>
              <path class="cls-14" d="M182.44181,178.33138c1.3995.1875,2.0874.7734,1.8882,2.0664-.2016,1.3086-.90039,2.205-2.29639,2.1328a1.92171,1.92171,0,0,1-1.94141-2.3692A2.08739,2.08739,0,0,1,182.44181,178.33138Z" transform="translate(3.72236 14.54952)"/>
              <path class="cls-14" d="M212.25831,175.64968c-.3335,1.209-1.1172,1.9082-2.2813,1.6934a3.22714,3.22714,0,0,1-2.4019-2.8614c-.20649-1.2812,1.0943-1.7382,2.1626-1.455C211.02191,173.36648,212.21431,174.05988,212.25831,175.64968Z" transform="translate(3.72236 14.54952)"/>
              <path class="cls-14" d="M190.70062,169.58918c-.25531,1.1406-.84521,1.7754-1.88571,1.3828-1.2481-.4707-2.4356-1.1485-2.21629-2.8164.17429-1.3184,1.03469-1.6934,2.21039-1.4024A2.30233,2.30233,0,0,1,190.70062,169.58918Z" transform="translate(3.72236 14.54952)"/>
              <path class="cls-14" d="M186.40721,152.68288c-.2554,1.1446-.8457,1.7774-1.8858,1.3867-1.248-.4726-2.4355-1.1504-2.2163-2.8183.1739-1.3184,1.0347-1.6953,2.21051-1.4024A2.30057,2.30057,0,0,1,186.40721,152.68288Z" transform="translate(3.72236 14.54952)"/>
              <path class="cls-14" d="M197.414,197.89188c-.7339.9688-1.6308,2.0215-2.9888,1.8867a1.9506,1.9506,0,0,1-1.8745-2.0234c.1455-1.666,1.3697-2.0586,2.8252-1.8477A2.056,2.056,0,0,1,197.414,197.89188Z" transform="translate(3.72236 14.54952)"/>
              <path class="cls-14" d="M190.73921,193.765a3.28393,3.28393,0,0,1-3.3218,1.5214,1.538,1.538,0,0,1-1.3925-2.1875c.5786-1.8769,2.0551-1.1543,3.2661-.9668C190.11671,192.261,191.10791,192.42118,190.73921,193.765Z" transform="translate(3.72236 14.54952)"/>
              <path class="cls-14" d="M215.705,201.22c1.3413.502,1.5572,1.709,1.5645,2.8711.0102,1.4746-1.0825,1.5879-2.1812,1.291a2.06476,2.06476,0,0,1-1.7216-2.6152A1.99489,1.99489,0,0,1,215.705,201.22Z" transform="translate(3.72236 14.54952)"/>
              <path class="cls-14" d="M183.937,197.03248c-.2613,1.5879-1.4556,1.1211-2.3955.9766-.9522-.1465-2.3951-.1094-2.1524-1.5586a2.15117,2.15117,0,0,1,2.5171-1.9336C183.37931,194.71808,183.75481,195.77278,183.937,197.03248Z" transform="translate(3.72236 14.54952)"/>
              <path class="cls-14" d="M204.19971,185.33918a2.82818,2.82818,0,0,1-2.6875,2.1347c-1.2144-.0214-1.627-1.0507-1.5513-2.1855.0942-1.4277.8374-2.1035,2.3013-1.8067A2.33651,2.33651,0,0,1,204.19971,185.33918Z" transform="translate(3.72236 14.54952)"/>
              <path class="cls-14" d="M175.16791,207.845c-.2275,1.0938-.7392,2.1192-1.9697,1.9512-1.1455-.1562-2.4482-.748-2.0147-2.2734a2.1734,2.1734,0,0,1,2.2979-1.7188C174.71671,205.90748,175.37691,206.52468,175.16791,207.845Z" transform="translate(3.72236 14.54952)"/>
              <path class="cls-14" d="M187.63571,187.23758c-1.023-.3437-2.1777-.8144-1.731-2.0566.4478-1.2422,1.8184-1.3301,2.98591-1.1504a1.58906,1.58906,0,0,1,1.48629,1.8281C190.09421,187.37818,188.85,187.37628,187.63571,187.23758Z" transform="translate(3.72236 14.54952)"/>
              <path class="cls-14" d="M204.53711,194.23958a1.99,1.99,0,0,1-2.1607,1.6933,1.88648,1.88648,0,0,1-1.9385-1.9219c-.062-1.371.8819-1.666,2.0391-1.4765C203.47991,192.70048,204.53562,192.83718,204.53711,194.23958Z" transform="translate(3.72236 14.54952)"/>
              <path class="cls-14" d="M189.86471,201.16918a1.506,1.506,0,0,1-1.7334,1.5059c-1.4473-.0898-1.9849-1.0566-2.1191-2.3086-.1377-1.2715.7441-1.3867,1.6806-1.2695C188.90571,199.24928,190.02781,199.55008,189.86471,201.16918Z" transform="translate(3.72236 14.54952)"/>
              <path class="cls-14" d="M197.01951,191.095c-.21489,1.2481-.6426,1.9844-1.48289,1.6739-1.10011-.4063-2.10741-1.125-1.85311-2.5977.1665-.9746.6509-1.6992,1.7579-1.3848A2.01993,2.01993,0,0,1,197.01951,191.095Z" transform="translate(3.72236 14.54952)"/>
              <path class="cls-14" d="M210.10981,199.015c-.0967,1.0039-.5737,1.6777-1.6504,1.6132-.9365-.0566-1.7427-.4414-1.7309-1.5527.0136-1.1797.5234-1.9629,1.8696-1.8008A1.49838,1.49838,0,0,1,210.10981,199.015Z" transform="translate(3.72236 14.54952)"/>
              <path class="cls-14" d="M179.05321,187.33718c-.126,1.0098-.6309,1.6563-1.7158,1.5606-1.2203-.1075-1.8931-.7481-1.6353-2.0547a1.50215,1.50215,0,0,1,1.9058-1.3106A1.47573,1.47573,0,0,1,179.05321,187.33718Z" transform="translate(3.72236 14.54952)"/>
              <path class="cls-14" d="M178.85931,152.10278c-.1255,1.0079-.6303,1.6563-1.7153,1.5606-1.2202-.1074-1.8931-.7481-1.6357-2.0547a1.50349,1.50349,0,0,1,1.9062-1.3125A1.4774,1.4774,0,0,1,178.85931,152.10278Z" transform="translate(3.72236 14.54952)"/>
              <path class="cls-14" d="M189.41011,175.013c1.0537.3516,1.89651.9629,1.5332,2.1855a1.6883,1.6883,0,0,1-2.09469,1.1114c-1.086-.2383-1.89991-.9453-1.54791-2.166C187.57031,175.20638,188.458,174.94068,189.41011,175.013Z" transform="translate(3.72236 14.54952)"/>
              <path class="cls-14" d="M175.73971,162.66138c1.0542.3516,1.8965.961,1.5337,2.1856a1.68608,1.68608,0,0,1-2.0947,1.1094c-1.086-.2383-1.9004-.9434-1.5484-2.1641C173.89991,162.85478,174.78751,162.58918,175.73971,162.66138Z" transform="translate(3.72236 14.54952)"/>
              <path class="cls-14" d="M179.76462,170.86068c1.05419.3496,1.897.9609,1.53419,2.1855a1.68486,1.68486,0,0,1-2.09519,1.1094c-1.086-.2364-1.89991-.9453-1.54791-2.1641C177.92521,171.054,178.81291,170.78838,179.76462,170.86068Z" transform="translate(3.72236 14.54952)"/>
              <path class="cls-14" d="M226.76171,179.66918c1.0542.3497,1.8965.961,1.5337,2.1856a1.68634,1.68634,0,0,1-2.0953,1.1094c-1.0859-.2364-1.8999-.9453-1.5473-2.1641C224.92231,179.86258,225.80951,179.597,226.76171,179.66918Z" transform="translate(3.72236 14.54952)"/>
              <path class="cls-14" d="M173.43841,152.89c1.05421.3496,1.8965.9609,1.5337,2.1855a1.68608,1.68608,0,0,1-2.0947,1.1094c-1.0864-.2383-1.9004-.9453-1.5483-2.1641C171.59862,153.08328,172.48631,152.81568,173.43841,152.89Z" transform="translate(3.72236 14.54952)"/>
              <path class="cls-14" d="M172.40962,143.636c1.05419.3516,1.896.9629,1.53369,2.1856a1.68608,1.68608,0,0,1-2.09469,1.1094c-1.086-.2364-1.90041-.9453-1.54791-2.1641C170.56981,143.82938,171.458,143.56378,172.40962,143.636Z" transform="translate(3.72236 14.54952)"/>
              <path class="cls-14" d="M182.90331,166.44268c-1.1138-.2246-1.9522-.7813-1.7613-2.0195a1.60691,1.60691,0,0,1,1.9468-1.295c1.1362.1172,1.9419.7618,1.7652,1.9883C184.707,166.12628,183.84711,166.42708,182.90331,166.44268Z" transform="translate(3.72236 14.54952)"/>
              <path class="cls-14" d="M180.75731,159.45438c-1.1138-.2246-1.95269-.7832-1.7613-2.0215a1.60641,1.60641,0,0,1,1.9468-1.2949c1.1363.1191,1.9419.7617,1.7647,1.9902C182.56051,159.136,181.70111,159.43678,180.75731,159.45438Z" transform="translate(3.72236 14.54952)"/>
              <path class="cls-14" d="M179.269,146.96808c-1.1138-.2246-1.9526-.7813-1.7612-2.0196a1.60642,1.60642,0,0,1,1.9467-1.2949c1.1363.1192,1.9419.7617,1.7647,1.9903C181.07221,146.65358,180.21241,146.95248,179.269,146.96808Z" transform="translate(3.72236 14.54952)"/>
              <path class="cls-14" d="M170.14791,141.08138c-1.11429-.2227-1.9526-.7793-1.7617-2.0196a1.60417,1.60417,0,0,1,1.9468-1.2929c1.1362.1171,1.9423.7597,1.7651,1.9882C171.95111,140.76688,171.09131,141.06568,170.14791,141.08138Z" transform="translate(3.72236 14.54952)"/>
              <path class="cls-14" d="M167.36131,218.69658c-1.1138-.2246-1.95269-.7813-1.7613-2.0195a1.60631,1.60631,0,0,1,1.9468-1.295c1.1363.1172,1.9419.7598,1.7647,1.9903C169.16451,218.38208,168.30462,218.681,167.36131,218.69658Z" transform="translate(3.72236 14.54952)"/>
              <path class="cls-14" d="M165.47991,226.77668c-1.1137-.2246-1.9526-.7832-1.7612-2.0215a1.60607,1.60607,0,0,1,1.9463-1.2949c1.1362.1191,1.9424.7597,1.7651,1.9902C167.28321,226.46028,166.42331,226.75908,165.47991,226.77668Z" transform="translate(3.72236 14.54952)"/>
              <path class="cls-14" d="M158.43551,227.27078c-.7227-.1445-1.2666-.5078-1.1426-1.3105a1.041,1.041,0,0,1,1.2632-.8399c.7373.0762,1.2607.4942,1.14551,1.2891C159.60591,227.06568,159.04831,227.261,158.43551,227.27078Z" transform="translate(3.72236 14.54952)"/>
              <path class="cls-14" d="M162.36081,222.46608c-.72319-.1426-1.2666-.5058-1.1431-1.3105a1.04266,1.04266,0,0,1,1.2632-.8399c.7373.0782,1.2612.4942,1.1455,1.291C163.53071,222.261,162.97311,222.45638,162.36081,222.46608Z" transform="translate(3.72236 14.54952)"/>
              <path class="cls-14" d="M204.62151,178.25518c-.1245.9824-.6303,1.6211-1.6674,1.5644-1.1377-.0644-1.9166-.5898-1.7657-1.8925.1128-.9766.6294-1.6231,1.6631-1.5625C203.97941,176.431,204.769,176.93288,204.62151,178.25518Z" transform="translate(3.72236 14.54952)"/>
            </g>
          </g>
          <g>
            <path class="cls-16" d="M202.78462,60.19268a3.81472,3.81472,0,0,1-4.14161-2.625c-.8222-2.2188.8233-3.2949,2.3994-4.1602,1.6167-.8886,2.65821-.1621,3.2598,1.5039A4.41187,4.41187,0,0,1,202.78462,60.19268Z" transform="translate(3.72236 14.54952)"/>
            <path class="cls-16" d="M233.22462,24.91528c.42919,2.1075-.87941,3.3164-2.62211,3.8965-1.5386.5137-2.731-.3496-3.2612-1.916-.8355-2.4629,1.3481-3.1074,2.7046-3.875C231.62451,22.12238,232.61911,23.36458,233.22462,24.91528Z" transform="translate(3.72236 14.54952)"/>
            <path class="cls-16" d="M258.18211,13.89c.89351,2.3437-.397,3.2949-2.3877,3.8066-1.1953.3086-2.7349.9414-3.103-.7832a4.59953,4.59953,0,0,1,2.5503-5.3242C256.86031,10.85868,257.66211,12.51688,258.18211,13.89Z" transform="translate(3.72236 14.54952)"/>
            <path class="cls-16" d="M257.73291,23.68878c.03371,1.6582-.4014,3.3144-2.1324,3.7676a3.08153,3.08153,0,0,1-3.7627-2.1446c-.6411-1.8633.4141-3.0488,2.1499-3.5781A2.72111,2.72111,0,0,1,257.73291,23.68878Z" transform="translate(3.72236 14.54952)"/>
            <path class="cls-16" d="M259.52921,31.88018c-.3803-2.3555,1.045-3.6055,2.54941-4.3848,1.55319-.8047,2.78709.2403,2.98389,1.8672.2182,1.791-.0328,3.5957-2.2686,4.1191A2.63309,2.63309,0,0,1,259.52921,31.88018Z" transform="translate(3.72236 14.54952)"/>
            <path class="cls-16" d="M214.33781,27.306c-1.8544.1562-3.1171-.4453-3.2236-2.1524-.104-1.6465.5098-3.3496,2.334-3.6113a2.58676,2.58676,0,0,1,3.1548,2.1367A3.66223,3.66223,0,0,1,214.33781,27.306Z" transform="translate(3.72236 14.54952)"/>
            <path class="cls-16" d="M203.90571,48.80988c-1.4116.3847-2.9985.6679-3.5283-1.0703a3.06858,3.06858,0,0,1,2.0288-3.7813c1.7163-.7109,2.6196.7774,3.2783,1.9082C206.72362,47.64968,205.35441,48.33138,203.90571,48.80988Z" transform="translate(3.72236 14.54952)"/>
            <path class="cls-16" d="M194.73921,52.79618c-1.55959.498-2.4414-.2324-2.7295-1.6758-.3418-1.7051.043-3.498,1.7251-4.0449,1.6494-.5391,2.52881,1.1309,2.958,2.4434C197.22111,51.136,196.29631,52.23958,194.73921,52.79618Z" transform="translate(3.72236 14.54952)"/>
            <path class="cls-16" d="M218.52341,30.972a2.82068,2.82068,0,0,1,2.2544-3.211c1.5781-.4746,3.0293-.123,3.498,1.5332.4722,1.6661-.7441,2.8067-2.1811,3.1797C220.72311,32.83138,219.20111,32.67508,218.52341,30.972Z" transform="translate(3.72236 14.54952)"/>
            <path class="cls-16" d="M248.32031,26.16918c.8408,2.3477-.252,3.3829-1.4546,4.0665a1.91888,1.91888,0,0,1-2.9175-1.2481c-.5503-1.5898.2368-2.7344,1.6728-3.3809C246.94721,25.00908,248.00241,25.35278,248.32031,26.16918Z" transform="translate(3.72236 14.54952)"/>
            <path class="cls-16" d="M245.33051,19.45248c-.647-2.0665.0537-2.9512,1.4893-3.3204,1.393-.3554,2.5874-.1171,2.7143,1.6075.08651,1.1914.5508,2.7226-1.102,3.2109A2.43735,2.43735,0,0,1,245.33051,19.45248Z" transform="translate(3.72236 14.54952)"/>
            <path class="cls-16" d="M224.71091,19.39578c.5225,1.7559-.2959,2.5293-1.6109,2.9375-1.2036.375-2.518.6992-2.96039-.9941-.36961-1.416.48439-2.3399,1.70559-2.8516C223.12691,17.94658,224.23631,18.10868,224.71091,19.39578Z" transform="translate(3.72236 14.54952)"/>
            <path class="cls-16" d="M231.288,19.73568c-1.208.3164-2.5156.6835-2.9253-1.0372-.3359-1.416.5206-2.332,1.7393-2.8476,1.2842-.543,2.4238-.4102,2.89061,1.1562C233.44231,18.52078,232.57321,19.26688,231.288,19.73568Z" transform="translate(3.72236 14.54952)"/>
            <path class="cls-16" d="M215.20362,32.76688a2.31786,2.31786,0,0,1-1.91651,2.7109c-1.1363.252-2.2476-.0644-2.523-1.3046-.3359-1.504.7114-2.2598,1.9946-2.6758C213.94431,31.11258,214.86271,31.347,215.20362,32.76688Z" transform="translate(3.72236 14.54952)"/>
            <path class="cls-16" d="M236.50431,23.67118c-.36269-1.6875.0249-2.8281,1.3555-3.3945,1.32281-.5664,2.0142.3183,2.3491,1.4316.3955,1.3106.2393,2.5742-1.2378,3.0938C237.71721,25.24148,237.05951,24.265,236.50431,23.67118Z" transform="translate(3.72236 14.54952)"/>
            <path class="cls-16" d="M204.30321,39.64188c-1.1065.3262-2.26859.4297-2.5039-1.0019-.2764-1.6915,1.0908-2.4864,2.3271-3.1622a1.36414,1.36414,0,0,1,2.104.8633C206.65862,37.96808,205.79291,39.03058,204.30321,39.64188Z" transform="translate(3.72236 14.54952)"/>
            <path class="cls-16" d="M254.01071,36.00518a2.02714,2.02714,0,0,1-2.5693-1.1953,2.123,2.123,0,0,1,.9355-3.1074,1.8909,1.8909,0,0,1,2.5669,1.1406A2.27549,2.27549,0,0,1,254.01071,36.00518Z" transform="translate(3.72236 14.54952)"/>
            <path class="cls-16" d="M263.63281,20.44268c.289,1.0527.52581,2.2187-.7627,2.6621-1.2998.4434-1.8736-.5762-2.1509-1.6523-.2793-1.0801-.167-2.3106.8945-2.7422C263.00291,18.14578,263.26611,19.48958,263.63281,20.44268Z" transform="translate(3.72236 14.54952)"/>
          </g>
        </g>
        <g>
          <path class="cls-17" d="M219.39011,25.19458c-6.7827-21.3652,97.6841-1.3867,125.4673,38.1016C372.63371,102.78248,227.72411,51.44068,219.39011,25.19458Z" transform="translate(3.72236 14.54952)"/>
          <path class="cls-17" d="M186.64551,17.02468c-9.107-28.6836,131.1416-1.8613,168.4419,51.1524C392.37791,121.18678,197.832,52.263,186.64551,17.02468Z" transform="translate(3.72236 14.54952)"/>
        </g>
        <g>
          <path class="cls-17" d="M446.22751,120.06568c-9.0464-6.0547-2.8447-43.6523,13.5268-39.1836C476.123,85.34888,457.34271,127.50128,446.22751,120.06568Z" transform="translate(3.72236 14.54952)"/>
          <path class="cls-17" d="M443.46191,131.04228c-12.1455-8.127-3.8184-58.6016,18.15871-52.6055C483.59662,84.43678,458.38371,141.02668,443.46191,131.04228Z" transform="translate(3.72236 14.54952)"/>
        </g>
        <path class="cls-18" d="M150.38621,227.27078s132.7622,25.2774,251.3237-68.5683c0,0,12.439-30.8184,0-57.3672C401.70991,101.33528,376.53221,198.97978,150.38621,227.27078Z" transform="translate(3.72236 14.54952)"/>
        <path class="cls-19" d="M389.96431,90.62238S276.705,252.48958,17.88672,151.88018c0,0,60.35839,53.0762,132.49949,75.3906,0,0,113.7466,27.9942,251.3237-68.5683,0,0,14.55471-44.25,0-57.3672Z" transform="translate(3.72236 14.54952)"/>
      </g>
    </g>
  </g>
</svg>
