<svg xmlns="http://www.w3.org/2000/svg" width="673.53631" height="392.8311" viewBox="0 0 673.53631 392.8311">
  <defs>
    <style>
      .cls-1 {
        fill: #e2973b;
      }

      .cls-14, .cls-2, .cls-4, .cls-5 {
        fill: #e2c85a;
      }

      .cls-2, .cls-3 {
        stroke: #a5683a;
      }

      .cls-11, .cls-2, .cls-26, .cls-3, .cls-5, .cls-6 {
        stroke-miterlimit: 10;
      }

      .cls-10, .cls-11, .cls-2, .cls-26, .cls-3, .cls-5, .cls-6 {
        stroke-width: 1.35453px;
      }

      .cls-10, .cls-11, .cls-24, .cls-26, .cls-3, .cls-6, .cls-9 {
        fill: none;
      }

      .cls-5, .cls-6 {
        stroke: #a5903a;
      }

      .cls-7 {
        fill: #163e4c;
      }

      .cls-8 {
        fill: #0d2b33;
      }

      .cls-10, .cls-11, .cls-9 {
        stroke: #439bba;
      }

      .cls-10, .cls-24, .cls-9 {
        stroke-linecap: round;
        stroke-linejoin: round;
      }

      .cls-9 {
        stroke-width: 1.33993px;
      }

      .cls-12 {
        fill: #d6e9ed;
      }

      .cls-13 {
        fill: #c7dadd;
      }

      .cls-14 {
        opacity: 0.3;
      }

      .cls-15 {
        fill: #8daa79;
      }

      .cls-16 {
        fill: #e2ca2a;
      }

      .cls-17 {
        fill: #467e9e;
      }

      .cls-18 {
        fill: #fff;
      }

      .cls-19 {
        fill: #7c9965;
      }

      .cls-20 {
        fill: #769b59;
      }

      .cls-21 {
        fill: #678949;
      }

      .cls-22 {
        fill: #678c46;
      }

      .cls-23 {
        fill: #587a34;
      }

      .cls-24 {
        stroke: #163f39;
        stroke-width: 1.94236px;
      }

      .cls-25 {
        fill: #2f677f;
      }

      .cls-26 {
        stroke: #fff;
      }
    </style>
  </defs>
  <g id="图层_2" data-name="图层 2">
    <g id="Layer_1" data-name="Layer 1">
      <g>
        <polygon class="cls-1" points="511.203 288.444 458.936 357.167 457.477 292.839 511.203 288.444"/>
        <g>
          <line class="cls-2" x1="501.24322" y1="294.9268" x2="461.95312" y2="336.4073"/>
          <line class="cls-3" x1="498.00592" y1="291.9141" x2="462.25002" y2="324.7413"/>
          <line class="cls-3" x1="490.77052" y1="294.1543" x2="462.85942" y2="313.0284"/>
          <line class="cls-3" x1="480.07032" y1="294.0362" x2="463.21002" y2="306.3848"/>
        </g>
        <polygon class="cls-4" points="496.291 291.21 435.241 352.265 442.459 288.324 496.291 291.21"/>
        <line class="cls-5" x1="485.54782" y1="296.2911" x2="441.02542" y2="332.0967"/>
        <line class="cls-6" x1="482.74712" y1="292.8692" x2="442.89352" y2="320.5782"/>
        <line class="cls-6" x1="475.27252" y1="294.1153" x2="445.07132" y2="309.0577"/>
        <line class="cls-6" x1="464.68652" y1="292.5577" x2="446.31742" y2="302.5196"/>
        <path class="cls-7" d="M127.6182,193.5284l-.6524-.6582L32.8223,97.6846S21.2695,87.9668,2.1006,87.9668c0,0,15.75582,2.628,26.5205,24.6836C39.3887,134.71,66.1719,195.629,66.1719,195.629L27.833,283.8584S16.0185,304.3409,0,308.542c26.7832-1.3134,28.8838-2.6259,59.8701-33.875,30.9844-31.2451,71.6865-74.0498,71.6865-74.0498Z"/>
        <path class="cls-8" d="M98.1123,235.4952a50.31985,50.31985,0,0,1-2.92088-74.751l31.77438,32.126.6524.6582,3.9384,7.0888S116.7002,216.2403,98.1123,235.4952Z"/>
        <line class="cls-9" x1="117.0449" y1="187.8418" x2="34.3848" y2="120.084"/>
        <line class="cls-10" x1="122.9629" y1="197.127" x2="70.48442" y2="197.127"/>
        <line class="cls-9" x1="113.6592" y1="192.1983" x2="48.89842" y2="141.5733"/>
        <line class="cls-9" x1="108.8213" y1="193.6534" x2="55.5986" y2="159.7803"/>
        <line class="cls-9" x1="98.40042" y1="191.4668" x2="63.4131" y2="175.0782"/>
        <line class="cls-9" x1="92.5508" y1="192.9258" x2="70.85942" y2="189.6475"/>
        <line class="cls-9" x1="117.0449" y1="205.294" x2="34.3848" y2="273.0499"/>
        <line class="cls-9" x1="113.6592" y1="200.9385" x2="48.89842" y2="251.5635"/>
        <line class="cls-9" x1="108.8213" y1="199.4834" x2="55.5986" y2="233.3536"/>
        <line class="cls-9" x1="98.40042" y1="201.668" x2="63.4131" y2="218.0586"/>
        <line class="cls-9" x1="92.5508" y1="200.211" x2="70.85942" y2="203.4883"/>
        <path class="cls-7" d="M337.55472,297.5567s-62.1006,83.1982-110.9414,95.2744c20.7441-14.7041,48.0556-37.2861,56.7197-70.8984,8.6641-33.6084-10.5049-43.7198-25.8643-43.3252-4.2011-6.6953-5.3847-8.5362-5.3847-8.5362l-8.2705.9219-5.3828-8.5361-7.7481,1.5752-3.0195-6.8262-10.1084,1.0508-4.4639-8.2735-7.8789,1.3155-6.041-7.877-9.5811.7871-10.7675-19.5625Z"/>
        <path class="cls-7" d="M330.04392,92.6719s-59.3164-58.5342-77.1728-73.2402C235.01462,4.7286,204.03032,0,204.03032,0s36.2382,18.3819,50.416,35.9776c14.1806,17.5918,32.2998,47.2656,22.583,63.8066-9.7168,16.544-14.5293,21.1836-26.3447,18.9932-2.3633,7.7051-3.6758,9.6309-3.6758,9.6309l-12.7793-1.2247-2.7158,8.6622-10.5889-2.0118-4.4658,8.6641-10.6787.876-3.5879,7.9658-10.6787-.7881-3.0645,8.4043-13.916,1.1338-3.86822,14.501,74.59182-3.6455Z"/>
        <line class="cls-11" x1="323.59772" y1="96.7784" x2="249.09282" y2="29.9668"/>
        <line class="cls-11" x1="315.03422" y1="101.1768" x2="271.12992" y2="60.0323"/>
        <line class="cls-11" x1="309.32232" y1="104.1124" x2="278.67972" y2="77.6543"/>
        <line class="cls-11" x1="303.93752" y1="106.8799" x2="281.87602" y2="88.2813"/>
        <line class="cls-11" x1="298.56152" y1="109.6456" x2="280.54782" y2="97.0489"/>
        <line class="cls-11" x1="293.02642" y1="112.4893" x2="278.77932" y2="102.7334"/>
        <line class="cls-11" x1="288.49612" y1="114.8174" x2="274.94142" y2="107.9258"/>
        <line class="cls-11" x1="283.52052" y1="117.376" x2="271.78222" y2="113.0049"/>
        <line class="cls-11" x1="277.70512" y1="120.3614" x2="268.46192" y2="117.4043"/>
        <line class="cls-11" x1="335.34862" y1="292.2842" x2="268.95412" y2="367.1622"/>
        <line class="cls-11" x1="326.33692" y1="288.8897" x2="287.41802" y2="334.7764"/>
        <line class="cls-11" x1="320.32912" y1="286.626" x2="292.90532" y2="316.4053"/>
        <line class="cls-11" x1="314.66412" y1="284.4913" x2="294.86822" y2="305.4834"/>
        <line class="cls-11" x1="309.00782" y1="282.3584" x2="292.54882" y2="296.9268"/>
        <line class="cls-11" x1="303.18462" y1="280.1631" x2="290.14262" y2="291.4834"/>
        <line class="cls-11" x1="298.41502" y1="278.3682" x2="285.73732" y2="286.7598"/>
        <line class="cls-11" x1="293.18162" y1="276.3926" x2="282.02052" y2="282.0792"/>
        <line class="cls-11" x1="287.06442" y1="274.0899" x2="278.21782" y2="278.0821"/>
        <path class="cls-12" d="M665.11622,241.6436l-67.1816,45.8975-47.5684,10.0156H337.55472L121.4053,199.9112,330.04392,92.6719h105.9883s118.5049,17.1143,151.4688,50.4932C628.24412,184.4161,665.11622,241.6436,665.11622,241.6436Z"/>
        <path class="cls-13" d="M341.84372,258.1485a24.64556,24.64556,0,0,0,24.6446,24.6465h177.4453a24.64725,24.64725,0,0,0,24.6465-24.6465h0a24.64725,24.64725,0,0,0-24.6465-24.6465H366.48832a24.64556,24.64556,0,0,0-24.6446,24.6465Z"/>
        <path class="cls-14" d="M475.31842,206.1338l43.5722-43.5752V110.6641c27.8662,8.126,55.2588,18.9776,68.6104,32.501,40.7431,41.251,77.6152,98.4785,77.6152,98.4785l-67.1816,45.8975L552.206,297.167h0l-76.8876-76.8877Z"/>
        <path class="cls-14" d="M532.24712,183.0254l43.5722-43.5742v-5.4345a66.94088,66.94088,0,0,1,11.6817,9.1484c40.7431,41.251,77.6152,98.4785,77.6152,98.4785L621.47072,271.46l-12.3359,2.5996h0l-76.8877-76.8877Z"/>
        <path class="cls-15" d="M121.6719,199.7735l208.372-107.1016h105.9883s118.5049,17.1143,151.4688,50.4932c17.6865,17.9043,34.6347,38.8144,48.1611,56.7549H125.5176Z"/>
        <path class="cls-16" d="M578.91892,197.5762a13.7759,13.7759,0,1,1,13.7754,13.7715A13.77253,13.77253,0,0,1,578.91892,197.5762Z"/>
        <path d="M584.69042,197.5762a8.0039,8.0039,0,1,1,8.0039,8.002A8.00522,8.00522,0,0,1,584.69042,197.5762Z"/>
        <path class="cls-7" d="M609.34572,280.7676a5.86906,5.86906,0,0,0,8.2686,1.126l51.1308-31.0059a5.95076,5.95076,0,0,0,1.4395-8.2968l-2.1885-3.1123a5.95963,5.95963,0,0,0-8.2988-1.4414l-48.9141,34.4365a5.95313,5.95313,0,0,0-1.4375,8.2939Z"/>
        <path class="cls-7" d="M608.48932,279.6446a5.424,5.424,0,0,0,6.8544,3.5449l54.1592-11.123a5.49751,5.49751,0,0,0,3.8311-6.7745l-.9434-3.3925a5.50472,5.50472,0,0,0-6.7763-3.8321l-53.294,14.7979a5.50942,5.50942,0,0,0-3.831,6.7793Z"/>
        <path class="cls-7" d="M472.13282,221.627l-14.1787,15.7539s-97.6836-33.085-170.1572,0C327.44822,206.3956,423.02932,206.1338,472.13282,221.627Z"/>
        <rect class="cls-17" x="90.3301" y="189.3272" width="184.59862" height="15.2305" rx="5.9551"/>
        <path class="cls-18" d="M596.03222,192.3614a2.9497,2.9497,0,1,0,2.9492-2.9502A2.94948,2.94948,0,0,0,596.03222,192.3614Z"/>
        <path class="cls-19" d="M330.04392,92.6719h105.9883s118.5049,17.1143,151.4688,50.4932a529.10621,529.10621,0,0,1,37.6504,43.1357,17.283,17.283,0,0,1-8.0704,1.8487c-15.3925,0-15.3925-15.3594-30.7871-15.3594s-15.3945,15.3594-30.7929,15.3594-15.3985-15.3594-30.7969-15.3594c-15.3965,0-15.3965,15.3594-30.793,15.3594-15.3994,0-15.3994-15.3594-30.7959-15.3594-15.3984,0-15.3984,15.3594-30.7968,15.3594-15.4014,0-15.4014-15.3594-30.8018-15.3594-15.4014,0-15.4014,15.3594-30.7979,15.3594-15.4003,0-15.4003-15.3594-30.8017-15.3594-15.4004,0-15.4004,15.3594-30.7988,15.3594-15.3965,0-15.3965-15.3594-30.7911-15.3594-15.4003,0-15.4003,15.3594-30.7998,15.3594-15.4052,0-15.4052-15.3594-30.8095-15.3594-15.3994,0-15.3994,15.3594-30.7998,15.3594-10.2979,0-13.7266-6.8438-19.458-11.3975Z"/>
        <g>
          <path class="cls-20" d="M216.27442,151.1475c-5.6582,4.5527-9.1084,11.3037-19.3291,11.3037a20.54966,20.54966,0,0,1-2.3672-.1504Z"/>
          <path class="cls-21" d="M535.73142,147.0909c-15.3964,0-15.3964,15.3603-30.7929,15.3603-15.3985,0-15.3985-15.3603-30.795-15.3603s-15.3964,15.3603-30.7978,15.3603c-15.4004,0-15.4004-15.3603-30.8018-15.3603-15.4004,0-15.4004,15.3603-30.7968,15.3603-15.4014,0-15.4014-15.3603-30.8018-15.3603-15.4014,0-15.4014,15.3603-30.7998,15.3603-15.3945,0-15.3945-15.3603-30.791-15.3603-15.4004,0-15.4004,15.3603-30.7988,15.3603-15.4053,0-15.4053-15.3603-30.8106-15.3603a19.03525,19.03525,0,0,0-4.6963.5722l106.9951-54.9912h105.9883s118.5049,17.1143,151.4688,50.4932c1.5068,1.5264,2.998,3.0976,4.4941,4.6641-10.3223,3.0449-12.0908,14.622-25.4648,14.622C551.12992,162.4512,551.12992,147.0909,535.73142,147.0909Z"/>
        </g>
        <g>
          <path class="cls-22" d="M572.69432,132.0987c-5.1386-.6172-8.3799-3.124-11.3115-5.9395C565.40922,128.0557,569.19532,130.0401,572.69432,132.0987Z"/>
          <path class="cls-23" d="M482.78422,116.8946c-15.3946,0-15.3946,15.3594-30.793,15.3594-15.3965,0-15.3965-15.3594-30.7949-15.3594-15.3965,0-15.3965,15.3594-30.7979,15.3594s-15.4013-15.3594-30.8017-15.3594c-15.3985,0-15.3985,15.3594-30.7969,15.3594-15.4014,0-15.4014-15.3594-30.7998-15.3594-15.4033,0-15.4033,15.3594-30.8018,15.3594a17.09971,17.09971,0,0,1-9.2949-2.5049l72.1406-37.0772h105.9883s57.7862,8.3477,103.8809,24.752c-11.084,2.6406-12.5987,14.8301-26.3301,14.8301C498.18262,132.254,498.18262,116.8946,482.78422,116.8946Z"/>
        </g>
        <polyline class="cls-24" points="608.489 279.645 541.721 279.645 526.759 264.681 526.759 158.605"/>
        <line class="cls-24" x1="570.33982" y1="255.4991" x2="533.97272" y2="219.1319"/>
        <polyline class="cls-24" points="552.206 297.167 475.318 220.279 475.318 206.134 518.891 162.559"/>
        <circle class="cls-4" cx="566.56742" cy="149.5147" r="3.4844"/>
        <path class="cls-4" d="M501.63872,149.5147a3.4858,3.4858,0,1,0,3.4873-3.4844A3.4857,3.4857,0,0,0,501.63872,149.5147Z"/>
        <circle class="cls-4" cx="443.68362" cy="149.5147" r="3.4844"/>
        <path class="cls-4" d="M489.53522,176.4766a3.48435,3.48435,0,1,0,3.4863-3.4844A3.48357,3.48357,0,0,0,489.53522,176.4766Z"/>
        <path class="cls-4" d="M430.84572,175.7452a3.48435,3.48435,0,1,0,3.4844-3.4844A3.48256,3.48256,0,0,0,430.84572,175.7452Z"/>
        <path class="cls-4" d="M366.28812,177.5782a3.48535,3.48535,0,1,0,3.4844-3.4844A3.48314,3.48314,0,0,0,366.28812,177.5782Z"/>
        <path class="cls-4" d="M310.53222,176.4766a3.48535,3.48535,0,1,0,3.4863-3.4844A3.48363,3.48363,0,0,0,310.53222,176.4766Z"/>
        <path class="cls-4" d="M245.97362,176.4766a3.48535,3.48535,0,1,0,3.4844-3.4844A3.48322,3.48322,0,0,0,245.97362,176.4766Z"/>
        <path class="cls-4" d="M325.93752,119.9893a3.48535,3.48535,0,1,0,3.4863-3.4844A3.48363,3.48363,0,0,0,325.93752,119.9893Z"/>
        <path class="cls-4" d="M387.19632,119.253a3.48435,3.48435,0,1,0,3.4863-3.4844A3.48235,3.48235,0,0,0,387.19632,119.253Z"/>
        <path class="cls-4" d="M444.78522,121.0889a3.4858,3.4858,0,1,0,3.4873-3.4824A3.48476,3.48476,0,0,0,444.78522,121.0889Z"/>
        <path class="cls-4" d="M504.209,121.4542a3.48435,3.48435,0,1,0,3.4844-3.4844A3.48129,3.48129,0,0,0,504.209,121.4542Z"/>
        <path class="cls-4" d="M378.75492,149.5147a3.48535,3.48535,0,1,0,3.4873-3.4844A3.4857,3.4857,0,0,0,378.75492,149.5147Z"/>
        <path class="cls-4" d="M317.31542,149.5147a3.4844,3.4844,0,1,0,3.4864-3.4844A3.483,3.483,0,0,0,317.31542,149.5147Z"/>
        <path class="cls-4" d="M255.87212,149.5147a3.48535,3.48535,0,1,0,3.4863-3.4844A3.48485,3.48485,0,0,0,255.87212,149.5147Z"/>
        <g>
          <path class="cls-25" d="M263.998,206.4131c0,.3448.4737.626,1.0567.626h0c.583,0,1.0566-.2812,1.0566-.626V187.1709c0-.3447-.4736-.6269-1.0566-.6269h0c-.583,0-1.0567.2822-1.0567.6269Z"/>
          <path class="cls-25" d="M251.75192,206.4131c0,.3448.4737.626,1.0547.626h0c.586,0,1.0567-.2812,1.0567-.626V187.1709c0-.3447-.4707-.6269-1.0567-.6269h0c-.581,0-1.0547.2822-1.0547.6269Z"/>
          <path class="cls-25" d="M239.50682,206.4131c0,.3448.4727.626,1.0547.626h0c.585,0,1.0567-.2812,1.0567-.626V187.1709c0-.3447-.4717-.6269-1.0567-.6269h0c-.582,0-1.0547.2822-1.0547.6269Z"/>
          <path class="cls-25" d="M227.26072,206.4131c0,.3448.4717.626,1.0547.626h0c.583,0,1.0547-.2812,1.0547-.626V187.1709c0-.3447-.4717-.6269-1.0547-.6269h0c-.583,0-1.0547.2822-1.0547.6269Z"/>
          <path class="cls-25" d="M215.01462,206.4131c0,.3448.4717.626,1.0547.626h0c.584,0,1.0547-.2812,1.0547-.626V187.1709c0-.3447-.4707-.6269-1.0547-.6269h0c-.583,0-1.0547.2822-1.0547.6269Z"/>
          <path class="cls-25" d="M202.76662,206.4131c0,.3448.4717.626,1.0576.626h0c.5811,0,1.0537-.2812,1.0537-.626V187.1709c0-.3447-.4726-.6269-1.0537-.6269h0c-.5859,0-1.0576.2822-1.0576.6269Z"/>
          <path class="cls-25" d="M190.52152,206.4131c0,.3448.4707.626,1.0566.626h0c.5811,0,1.0547-.2812,1.0547-.626V187.1709c0-.3447-.4736-.6269-1.0547-.6269h0c-.5859,0-1.0566.2822-1.0566.6269Z"/>
          <path class="cls-25" d="M178.27342,206.4131c0,.3448.4737.626,1.0567.626h0c.583,0,1.0566-.2812,1.0566-.626V187.1709c0-.3447-.4736-.6269-1.0566-.6269h0c-.583,0-1.0567.2822-1.0567.6269Z"/>
          <path class="cls-25" d="M166.0273,206.4131c0,.3448.4737.626,1.0567.626h0c.584,0,1.0566-.2812,1.0566-.626V187.1709c0-.3447-.4726-.6269-1.0566-.6269h0c-.583,0-1.0567.2822-1.0567.6269Z"/>
          <path class="cls-25" d="M153.7822,206.4131c0,.3448.4727.626,1.0537.626h0c.586,0,1.0576-.2812,1.0576-.626V187.1709c0-.3447-.4716-.6269-1.0576-.6269h0c-.581,0-1.0537.2822-1.0537.6269Z"/>
          <path class="cls-25" d="M141.5361,206.4131c0,.3448.4717.626,1.0547.626h0c.585,0,1.0567-.2812,1.0567-.626V187.1709c0-.3447-.4717-.6269-1.0567-.6269h0c-.583,0-1.0547.2822-1.0547.6269Z"/>
          <path class="cls-25" d="M129.29,206.4131c0,.3448.4717.626,1.0547.626h0c.583,0,1.05472-.2812,1.05472-.626V187.1709c0-.3447-.47172-.6269-1.05472-.6269h0c-.583,0-1.0547.2822-1.0547.6269Z"/>
          <path class="cls-25" d="M117.0449,206.4131c0,.3448.4707.626,1.0537.626h0c.584,0,1.0547-.2812,1.0547-.626V187.1709c0-.3447-.4707-.6269-1.0547-.6269h0c-.583,0-1.0537.2822-1.0537.6269Z"/>
          <path class="cls-25" d="M104.7969,206.4131c0,.3448.4707.626,1.0566.626h0c.5811,0,1.0547-.2812,1.0547-.626V187.1709c0-.3447-.4736-.6269-1.0547-.6269h0c-.5859,0-1.0566.2822-1.0566.6269Z"/>
          <path class="cls-25" d="M92.5508,206.4131c0,.3448.4717.626,1.05662.626h0c.58108,0,1.05468-.2812,1.05468-.626V187.1709c0-.3447-.4736-.6269-1.05468-.6269h0c-.58492,0-1.05662.2822-1.05662.6269Z"/>
        </g>
        <line class="cls-26" x1="668.21582" y1="246.6221" x2="624.29692" y2="274.5352"/>
        <line class="cls-26" x1="667.47172" y1="261.1377" x2="652.21192" y2="264.1143"/>
      </g>
    </g>
  </g>
</svg>
