<svg xmlns="http://www.w3.org/2000/svg" width="696.55701" height="392.87365" viewBox="0 0 696.55701 392.87365">
  <defs>
    <style>
      .cls-1 {
        fill: #e27c2a;
      }

      .cls-2 {
        fill: #e29f2a;
      }

      .cls-14, .cls-3, .cls-5, .cls-9 {
        fill: none;
      }

      .cls-3, .cls-9 {
        stroke: #0e2633;
      }

      .cls-14, .cls-3, .cls-9 {
        stroke-linecap: round;
        stroke-linejoin: round;
      }

      .cls-14, .cls-3 {
        stroke-width: 1.1019px;
      }

      .cls-4 {
        fill: #8daa79;
      }

      .cls-6 {
        fill: #d2e5c1;
      }

      .cls-7 {
        fill: #7c9965;
      }

      .cls-8 {
        fill: #2e647c;
      }

      .cls-9 {
        stroke-width: 2.20381px;
      }

      .cls-10 {
        fill: #e2c85a;
      }

      .cls-11 {
        fill: #1f4856;
      }

      .cls-12 {
        fill: #fff;
      }

      .cls-13 {
        fill: #0f2f3a;
      }

      .cls-14 {
        stroke: #4e91af;
      }

      .cls-15 {
        fill: #235566;
      }
    </style>
  </defs>
  <g id="图层_2" data-name="图层 2">
    <g id="Layer_1" data-name="Layer 1">
      <g>
        <g>
          <polygon class="cls-1" points="492.184 305.965 469.969 384.894 460.698 326.452 492.184 305.965"/>
          <polygon class="cls-2" points="488.949 305.75 437.622 392.874 413.901 313.945 488.949 305.75"/>
          <line class="cls-3" x1="431.25621" y1="371.68575" x2="478.03361" y2="315.17005"/>
          <line class="cls-3" x1="426.62051" y1="356.27655" x2="463.49991" y2="316.31705"/>
          <line class="cls-3" x1="422.93591" y1="344.01085" x2="453.79583" y2="316.53435"/>
          <line class="cls-3" x1="419.19571" y1="331.56945" x2="439.99401" y2="315.29895"/>
          <polygon class="cls-2" points="263.479 343.615 226.897 343.615 239.232 331.279 203.755 331.279 175.346 261.265 168.199 242.21 254.289 257.862 307.374 268.752 295.296 311.796 263.479 343.615"/>
          <g>
            <line class="cls-3" x1="299.88912" y1="307.20275" x2="242.21132" y2="364.88055"/>
            <line class="cls-3" x1="276.06872" y1="294.95035" x2="218.39002" y2="352.62805"/>
            <line class="cls-3" x1="257.69372" y1="277.93765" x2="200.01502" y2="335.61535"/>
            <line class="cls-3" x1="247.14392" y1="257.18225" x2="189.46522" y2="314.86005"/>
            <line class="cls-3" x1="241.86662" y1="239.31505" x2="184.19032" y2="296.99285"/>
            <line class="cls-3" x1="235.06192" y1="221.96015" x2="177.38512" y2="279.63785"/>
            <line class="cls-3" x1="228.59852" y1="208.00995" x2="170.92083" y2="265.68765"/>
          </g>
          <g>
            <polygon class="cls-2" points="519.779 49.404 503.784 50.41 502.342 35.304 481.856 45.337 465.609 13.802 439.899 28.12 420.418 7.063 410.714 28.191 401.148 17.852 388.825 36.141 377.926 24.36 366.27 43.374 356.237 32.534 346.25 53.354 333.781 39.873 322.542 59.339 311.584 47.496 302.244 68.778 292.692 58.457 283.98 80.379 275.32 71.023 262.059 88.019 254.792 80.168 246.051 101.383 240.965 95.885 231.287 116.091 227.472 111.972 217.196 131.529 213.746 127.803 200.803 144.478 220.154 165.389 436.598 87.769 515.47 73.115 519.779 49.404"/>
            <line class="cls-3" x1="414.38811" y1="0.55095" x2="482.07511" y2="73.69835"/>
            <line class="cls-3" x1="392.75872" y1="8.78287" x2="460.44371" y2="81.93035"/>
            <line class="cls-3" x1="371.12542" y1="17.0148" x2="438.81041" y2="90.16225"/>
            <line class="cls-3" x1="349.49602" y1="25.24674" x2="417.18151" y2="98.39415"/>
            <line class="cls-3" x1="327.86272" y1="33.47865" x2="395.54772" y2="106.62615"/>
            <line class="cls-3" x1="306.23132" y1="41.71065" x2="373.91642" y2="114.85805"/>
            <line class="cls-3" x1="287.44522" y1="52.78775" x2="355.13032" y2="125.93525"/>
            <line class="cls-3" x1="269.19912" y1="64.40735" x2="336.88422" y2="137.55485"/>
            <line class="cls-3" x1="251.05412" y1="76.12615" x2="318.74162" y2="149.27355"/>
            <line class="cls-3" x1="237.81632" y1="92.48645" x2="305.50383" y2="165.63395"/>
            <line class="cls-3" x1="224.58192" y1="108.84485" x2="292.26802" y2="181.99475"/>
            <line class="cls-3" x1="211.34612" y1="125.20575" x2="279.03022" y2="198.35315"/>
            <line class="cls-3" x1="198.11022" y1="141.56655" x2="265.79432" y2="214.71405"/>
            <line class="cls-3" x1="497.35341" y1="75.42005" x2="462.95351" y2="8.64713"/>
            <line class="cls-3" x1="506.25483" y1="76.23355" x2="501.80411" y2="29.69105"/>
            <line class="cls-3" x1="514.75571" y1="77.04065" x2="520.42031" y2="45.87955"/>
          </g>
          <path class="cls-4" d="M689.94083,238.27165s-30.23342-96.9072-124.24322-145.7783c-94.0107-48.8692-191.74459-24.4336-281.61419,16.5649-89.8731,40.9985-120.9307,73.3042-158.20359,47.2119-37.27441-26.0908-112.231-67.0893-124.2417-61.7065-12.0113,5.3847,45.9697,98.9795,45.9697,98.9795s-55.4956,78.6914-46.3843,96.4985c9.1123,17.8047,92.35349-47.6294,143.294-48.0425,50.9404-.4155,87.3847,73.2998,155.3027,73.2998H531.74061s45.1436.418,98.5684-26.0883C683.73483,262.70715,692.00721,251.10905,689.94083,238.27165Z"/>
          <g>
            <path class="cls-5" d="M689.94083,238.27165s-30.23342-96.9072-124.24322-145.7783c-94.0107-48.8692-191.74459-24.4336-281.61419,16.5649-89.8731,40.9985-120.9307,73.3042-158.20359,47.2119-37.27441-26.0908-112.231-67.0893-124.2417-61.7065-12.0113,5.3847,45.9697,98.9795,45.9697,98.9795s-55.4956,78.6914-46.3843,96.4985c7.9619,15.5557,72.5073-32.4243,122.65869-45.0684a3.83228,3.83228,0,0,1,7.1821-1.5517,78.01463,78.01463,0,0,1,13.4532-1.4224,53.02307,53.02307,0,0,1,5.5952.2818,3.81623,3.81623,0,0,1,2.3882-.8501,3.85661,3.85661,0,0,1,3.1948,1.6958c12.2358,2.4536,23.79,8.811,35.3618,16.8237a3.81269,3.81269,0,0,1,1.9219-.5317,3.84077,3.84077,0,0,1,3.7827,4.5922c8.8428,6.4717,17.7734,13.6534,27.0986,20.564a3.8179,3.8179,0,0,1-.8383-2.3735,3.89111,3.89111,0,1,1,2.4965,3.5981c5.08791,3.7276,10.3047,7.3389,15.687,10.7007a3.81537,3.81537,0,0,1,1.0674-.168,3.85768,3.85768,0,0,1,3.7793,3.0865c15.92821,9.2495,33.4297,15.8803,53.7676,15.8803h.7402a2.05073,2.05073,0,0,1,.8111,0h23.9814a2.05275,2.05275,0,0,1,.8115,0h23.9815a2.05275,2.05275,0,0,1,.8115,0h23.9815a3.6774,3.6774,0,0,1,.4047-.0405,3.73792,3.73792,0,0,1,.4068.0405h23.98141a2.05068,2.05068,0,0,1,.81109,0h23.98139a2.05285,2.05285,0,0,1,.81152,0h23.98148a3.689,3.689,0,0,1,.4048-.0405,3.737,3.737,0,0,1,.40672.0405h23.98138a2.05073,2.05073,0,0,1,.8111,0h23.9814a2.05275,2.05275,0,0,1,.8115,0h23.9815a2.05275,2.05275,0,0,1,.8115,0h7.2334s34.8067.3164,79.46-17.5483a3.8351,3.8351,0,0,1,2.9658-1.4185,3.51571,3.51571,0,0,1,.4023.0411c5.1387-2.1416,10.3946-4.5108,15.7403-7.1626q7.541-3.7413,13.9072-7.0997a3.837,3.837,0,0,1,5.8975-3.166C685.81391,259.45275,691.71911,249.31655,689.94083,238.27165Zm-587.02591,10.8725a3.85665,3.85665,0,1,1,3.857-3.8569A3.85642,3.85642,0,0,1,102.91492,249.14415Zm74.3784,0a3.85665,3.85665,0,1,1,3.857-3.8569A3.85648,3.85648,0,0,1,177.29332,249.14415Zm24.793,0a3.85665,3.85665,0,1,1,3.85651-3.8569A3.85642,3.85642,0,0,1,202.08632,249.14415Zm15.6861,17.9878a3.85665,3.85665,0,1,1,3.85641-3.8569A3.85693,3.85693,0,0,1,217.77242,267.132Zm9.1069-17.9878a3.85665,3.85665,0,1,1,3.8564-3.8569A3.85652,3.85652,0,0,1,226.87932,249.14415Zm15.394,17.9878a3.85665,3.85665,0,1,1,3.857-3.8569A3.85706,3.85706,0,0,1,242.27332,267.132Zm9.106,18.9258a3.8567,3.8567,0,1,1,3.8564-3.8564A3.85709,3.85709,0,0,1,251.37932,286.05775Zm0-36.9136a3.85665,3.85665,0,1,1,3.8564-3.8569A3.85714,3.85714,0,0,1,251.37932,249.14415Zm15.687,54.9014a3.8567,3.8567,0,1,1,3.8569-3.8569A3.85712,3.85712,0,0,1,267.06632,304.04555Zm0-36.9136a3.85665,3.85665,0,1,1,3.8569-3.8569A3.85706,3.85706,0,0,1,267.06632,267.132Zm9.106,18.9258a3.8567,3.8567,0,1,1,3.8564-3.8564A3.85747,3.85747,0,0,1,276.17232,286.05775Zm0-36.9136a3.85665,3.85665,0,1,1,3.8564-3.8569A3.85751,3.85751,0,0,1,276.17232,249.14415Zm15.687,54.9014a3.8567,3.8567,0,1,1,3.8564-3.8569A3.85758,3.85758,0,0,1,291.85932,304.04555Zm0-36.9136a3.85665,3.85665,0,1,1,3.8564-3.8569A3.85751,3.85751,0,0,1,291.85932,267.132Zm9.1054,18.9258a3.8567,3.8567,0,1,1,3.857-3.8564A3.857,3.857,0,0,1,300.96472,286.05775Zm0-36.9136a3.85665,3.85665,0,1,1,3.857-3.8569A3.85706,3.85706,0,0,1,300.96472,249.14415Zm15.6875,54.9014a3.8567,3.8567,0,1,1,3.8565-3.8569A3.85723,3.85723,0,0,1,316.65222,304.04555Zm0-36.9136a3.85665,3.85665,0,1,1,3.8565-3.8569A3.85717,3.85717,0,0,1,316.65222,267.132Zm9.1055,18.9258a3.8567,3.8567,0,1,1,3.8569-3.8564A3.857,3.857,0,0,1,325.75772,286.05775Zm0-36.9136a3.85665,3.85665,0,1,1,3.8569-3.8569A3.85706,3.85706,0,0,1,325.75772,249.14415Zm15.687,54.9014a3.8567,3.8567,0,1,1,3.8569-3.8569A3.85712,3.85712,0,0,1,341.44472,304.04555Zm0-36.9136a3.85665,3.85665,0,1,1,3.8569-3.8569A3.85706,3.85706,0,0,1,341.44472,267.132Zm9.106,18.9258a3.8567,3.8567,0,1,1,3.8564-3.8564A3.85753,3.85753,0,0,1,350.55072,286.05775Zm0-36.9136a3.85665,3.85665,0,1,1,3.8564-3.8569A3.85757,3.85757,0,0,1,350.55072,249.14415Zm15.687,54.9014a3.8567,3.8567,0,1,1,3.8564-3.8569A3.85721,3.85721,0,0,1,366.23772,304.04555Zm0-36.9136a3.85665,3.85665,0,1,1,3.8564-3.8569A3.85714,3.85714,0,0,1,366.23772,267.132Zm9.1059,18.9258a3.8567,3.8567,0,1,1,3.8565-3.8564A3.85744,3.85744,0,0,1,375.34362,286.05775Zm0-36.9136a3.85665,3.85665,0,1,1,3.8565-3.8569A3.85749,3.85749,0,0,1,375.34362,249.14415Zm15.6871,54.9014a3.8567,3.8567,0,1,1,3.8564-3.8569A3.85725,3.85725,0,0,1,391.03072,304.04555Zm0-36.9136a3.85665,3.85665,0,1,1,3.8564-3.8569A3.85719,3.85719,0,0,1,391.03072,267.132Zm9.1054,18.9258a3.8567,3.8567,0,1,1,3.857-3.8564A3.857,3.857,0,0,1,400.13612,286.05775Zm0-36.9136a3.85665,3.85665,0,1,1,3.857-3.8569A3.85706,3.85706,0,0,1,400.13612,249.14415Zm15.687,54.9014a3.8567,3.8567,0,1,1,3.857-3.8569A3.85712,3.85712,0,0,1,415.82311,304.04555Zm0-36.9136a3.85665,3.85665,0,1,1,3.857-3.8569A3.85706,3.85706,0,0,1,415.82311,267.132Zm9.106,18.9258a3.8567,3.8567,0,1,1,3.8564-3.8564A3.8571,3.8571,0,0,1,424.92911,286.05775Zm0-36.9136a3.85665,3.85665,0,1,1,3.8564-3.8569A3.85714,3.85714,0,0,1,424.92911,249.14415Zm15.687,54.9014a3.8567,3.8567,0,1,1,3.8569-3.8569A3.85712,3.85712,0,0,1,440.61611,304.04555Zm0-36.9136a3.85665,3.85665,0,1,1,3.8569-3.8569A3.85706,3.85706,0,0,1,440.61611,267.132Zm9.106,18.9258a3.8567,3.8567,0,1,1,3.8564-3.8564A3.85746,3.85746,0,0,1,449.72211,286.05775Zm0-36.9136a3.85665,3.85665,0,1,1,3.8564-3.8569A3.85751,3.85751,0,0,1,449.72211,249.14415Zm15.687,54.9014a3.8567,3.8567,0,1,1,3.8564-3.8569A3.85763,3.85763,0,0,1,465.40911,304.04555Zm0-36.9136a3.85665,3.85665,0,1,1,3.8564-3.8569A3.85757,3.85757,0,0,1,465.40911,267.132Zm9.1054,18.9258a3.8567,3.8567,0,1,1,3.857-3.8564A3.857,3.857,0,0,1,474.51451,286.05775Zm0-36.9136a3.85665,3.85665,0,1,1,3.857-3.8569A3.85706,3.85706,0,0,1,474.51451,249.14415Zm15.6871,54.9014a3.8567,3.8567,0,1,1,3.8569-3.8569A3.85714,3.85714,0,0,1,490.20161,304.04555Zm0-36.9136a3.85665,3.85665,0,1,1,3.8569-3.8569A3.85708,3.85708,0,0,1,490.20161,267.132Zm9.1059,18.9258a3.8567,3.8567,0,1,1,3.8569-3.8564A3.857,3.857,0,0,1,499.30751,286.05775Zm0-36.9136a3.85665,3.85665,0,1,1,3.8569-3.8569A3.85706,3.85706,0,0,1,499.30751,249.14415Zm15.687,54.9014a3.8567,3.8567,0,1,1,3.857-3.8569A3.85712,3.85712,0,0,1,514.99451,304.04555Zm0-36.9136a3.85665,3.85665,0,1,1,3.857-3.8569A3.85706,3.85706,0,0,1,514.99451,267.132Zm9.106,18.9258a3.8567,3.8567,0,1,1,3.8564-3.8564A3.85753,3.85753,0,0,1,524.10051,286.05775Zm0-36.9136a3.85665,3.85665,0,1,1,3.8564-3.8569A3.85757,3.85757,0,0,1,524.10051,249.14415Zm15.687,54.9014a3.8567,3.8567,0,1,1,3.8564-3.8569A3.85689,3.85689,0,0,1,539.78751,304.04555Zm0-36.9136a3.85665,3.85665,0,1,1,3.8564-3.8569A3.85682,3.85682,0,0,1,539.78751,267.132Zm9.1055,18.9258a3.8567,3.8567,0,1,1,3.8564-3.8564A3.85736,3.85736,0,0,1,548.893,286.05775Zm0-36.9136a3.85665,3.85665,0,1,1,3.8564-3.8569A3.8574,3.8574,0,0,1,548.893,249.14415Zm15.6875,54.9014a3.8567,3.8567,0,1,1,3.8564-3.8569A3.85689,3.85689,0,0,1,564.58051,304.04555Zm0-36.9136a3.85665,3.85665,0,1,1,3.8564-3.8569A3.85682,3.85682,0,0,1,564.58051,267.132Zm9.1054,18.9258a3.8567,3.8567,0,1,1,3.8565-3.8564A3.85734,3.85734,0,0,1,573.68591,286.05775Zm0-36.9136a3.85665,3.85665,0,1,1,3.8565-3.8569A3.85738,3.85738,0,0,1,573.68591,249.14415Zm15.6875,54.9014a3.8567,3.8567,0,1,1,3.8565-3.8569A3.85766,3.85766,0,0,1,589.37341,304.04555Zm0-36.9136a3.85665,3.85665,0,1,1,3.8565-3.8569A3.85759,3.85759,0,0,1,589.37341,267.132Zm9.1055,18.9258a3.8567,3.8567,0,1,1,3.8564-3.8564A3.85678,3.85678,0,0,1,598.47891,286.05775Zm0-36.9136a3.85665,3.85665,0,1,1,3.8564-3.8569A3.85682,3.85682,0,0,1,598.47891,249.14415Zm15.6875,17.9878a3.85665,3.85665,0,1,1,3.85642-3.8569A3.85759,3.85759,0,0,1,614.16641,267.132Zm9.1055,18.9258a3.8567,3.8567,0,1,1,3.8564-3.8564A3.85678,3.85678,0,0,1,623.27191,286.05775Zm0-36.9136a3.85665,3.85665,0,1,1,3.8564-3.8569A3.85682,3.85682,0,0,1,623.27191,249.14415Zm15.6865,17.9878a3.85665,3.85665,0,1,1,3.85742-3.8569A3.85746,3.85746,0,0,1,638.95841,267.132Zm9.10642-17.9878a3.85665,3.85665,0,1,1,3.85648-3.8569A3.85674,3.85674,0,0,1,648.06483,249.14415Zm15.68658,17.9878a3.85665,3.85665,0,1,1,3.85642-3.8569A3.8574,3.8574,0,0,1,663.75141,267.132Zm9.10642-17.9878a3.85665,3.85665,0,1,1,3.85638-3.8569A3.8576,3.8576,0,0,1,672.85783,249.14415Z"/>
            <path class="cls-6" d="M251.37932,241.43085a3.85665,3.85665,0,1,0,3.8564,3.8564A3.857,3.857,0,0,0,251.37932,241.43085Z"/>
            <path class="cls-6" d="M276.17232,241.43085a3.85665,3.85665,0,1,0,3.8564,3.8564A3.85741,3.85741,0,0,0,276.17232,241.43085Z"/>
            <path class="cls-6" d="M300.96472,241.43085a3.85665,3.85665,0,1,0,3.857,3.8564A3.857,3.857,0,0,0,300.96472,241.43085Z"/>
            <path class="cls-6" d="M325.75772,241.43085a3.85665,3.85665,0,1,0,3.8569,3.8564A3.857,3.857,0,0,0,325.75772,241.43085Z"/>
            <path class="cls-6" d="M350.55072,241.43085a3.85665,3.85665,0,1,0,3.8564,3.8564A3.85746,3.85746,0,0,0,350.55072,241.43085Z"/>
            <path class="cls-6" d="M375.34362,241.43085a3.85665,3.85665,0,1,0,3.8565,3.8564A3.85738,3.85738,0,0,0,375.34362,241.43085Z"/>
            <path class="cls-6" d="M400.13612,241.43085a3.85665,3.85665,0,1,0,3.857,3.8564A3.857,3.857,0,0,0,400.13612,241.43085Z"/>
            <path class="cls-6" d="M424.92911,241.43085a3.85665,3.85665,0,1,0,3.8564,3.8564A3.857,3.857,0,0,0,424.92911,241.43085Z"/>
            <path class="cls-6" d="M449.72211,241.43085a3.85665,3.85665,0,1,0,3.8564,3.8564A3.8574,3.8574,0,0,0,449.72211,241.43085Z"/>
            <path class="cls-6" d="M474.51451,241.43085a3.85665,3.85665,0,1,0,3.857,3.8564A3.857,3.857,0,0,0,474.51451,241.43085Z"/>
            <path class="cls-6" d="M499.30751,241.43085a3.85665,3.85665,0,1,0,3.8569,3.8564A3.857,3.857,0,0,0,499.30751,241.43085Z"/>
            <path class="cls-6" d="M524.10051,241.43085a3.85665,3.85665,0,1,0,3.8564,3.8564A3.85746,3.85746,0,0,0,524.10051,241.43085Z"/>
            <path class="cls-6" d="M548.893,241.43085a3.85665,3.85665,0,1,0,3.8564,3.8564A3.85729,3.85729,0,0,0,548.893,241.43085Z"/>
            <path class="cls-6" d="M573.68591,241.43085a3.85665,3.85665,0,1,0,3.8565,3.8564A3.85727,3.85727,0,0,0,573.68591,241.43085Z"/>
            <path class="cls-6" d="M598.47891,241.43085a3.85665,3.85665,0,1,0,3.8564,3.8564A3.85672,3.85672,0,0,0,598.47891,241.43085Z"/>
            <path class="cls-6" d="M623.27191,241.43085a3.85665,3.85665,0,1,0,3.8564,3.8564A3.85672,3.85672,0,0,0,623.27191,241.43085Z"/>
            <path class="cls-6" d="M648.06483,241.43085a3.85665,3.85665,0,1,0,3.85648,3.8564A3.85664,3.85664,0,0,0,648.06483,241.43085Z"/>
            <path class="cls-6" d="M672.85783,241.43085a3.85665,3.85665,0,1,0,3.85638,3.8564A3.85749,3.85749,0,0,0,672.85783,241.43085Z"/>
            <path class="cls-6" d="M242.27332,259.41865a3.85665,3.85665,0,1,0,3.857,3.8564A3.857,3.857,0,0,0,242.27332,259.41865Z"/>
            <path class="cls-6" d="M267.06632,259.41865a3.85665,3.85665,0,1,0,3.8569,3.8564A3.857,3.857,0,0,0,267.06632,259.41865Z"/>
            <path class="cls-6" d="M291.85932,259.41865a3.85665,3.85665,0,1,0,3.8564,3.8564A3.85741,3.85741,0,0,0,291.85932,259.41865Z"/>
            <path class="cls-6" d="M316.65222,259.41865a3.85665,3.85665,0,1,0,3.8565,3.8564A3.85706,3.85706,0,0,0,316.65222,259.41865Z"/>
            <path class="cls-6" d="M341.44472,259.41865a3.85665,3.85665,0,1,0,3.8569,3.8564A3.857,3.857,0,0,0,341.44472,259.41865Z"/>
            <path class="cls-6" d="M366.23772,259.41865a3.85665,3.85665,0,1,0,3.8564,3.8564A3.857,3.857,0,0,0,366.23772,259.41865Z"/>
            <path class="cls-6" d="M391.03072,259.41865a3.85665,3.85665,0,1,0,3.8564,3.8564A3.85708,3.85708,0,0,0,391.03072,259.41865Z"/>
            <path class="cls-6" d="M415.82311,259.41865a3.85665,3.85665,0,1,0,3.857,3.8564A3.857,3.857,0,0,0,415.82311,259.41865Z"/>
            <path class="cls-6" d="M440.61611,259.41865a3.85665,3.85665,0,1,0,3.8569,3.8564A3.857,3.857,0,0,0,440.61611,259.41865Z"/>
            <path class="cls-6" d="M465.40911,259.41865a3.85665,3.85665,0,1,0,3.8564,3.8564A3.85746,3.85746,0,0,0,465.40911,259.41865Z"/>
            <path class="cls-6" d="M490.20161,259.41865a3.85665,3.85665,0,1,0,3.8569,3.8564A3.857,3.857,0,0,0,490.20161,259.41865Z"/>
            <path class="cls-6" d="M514.99451,259.41865a3.85665,3.85665,0,1,0,3.857,3.8564A3.857,3.857,0,0,0,514.99451,259.41865Z"/>
            <path class="cls-6" d="M539.78751,259.41865a3.85665,3.85665,0,1,0,3.8564,3.8564A3.85672,3.85672,0,0,0,539.78751,259.41865Z"/>
            <path class="cls-6" d="M564.58051,259.41865a3.85665,3.85665,0,1,0,3.8564,3.8564A3.85672,3.85672,0,0,0,564.58051,259.41865Z"/>
            <path class="cls-6" d="M589.37341,259.41865a3.85665,3.85665,0,1,0,3.8565,3.8564A3.85749,3.85749,0,0,0,589.37341,259.41865Z"/>
            <path class="cls-6" d="M614.16641,259.41865a3.85665,3.85665,0,1,0,3.85642,3.8564A3.85749,3.85749,0,0,0,614.16641,259.41865Z"/>
            <path class="cls-6" d="M638.95841,259.41865a3.85665,3.85665,0,1,0,3.85742,3.8564A3.85736,3.85736,0,0,0,638.95841,259.41865Z"/>
            <path class="cls-6" d="M663.75141,259.41865a3.85665,3.85665,0,1,0,3.85642,3.8564A3.85729,3.85729,0,0,0,663.75141,259.41865Z"/>
            <path class="cls-6" d="M251.37932,278.34435a3.8567,3.8567,0,1,0,3.8564,3.857A3.85722,3.85722,0,0,0,251.37932,278.34435Z"/>
            <path class="cls-6" d="M276.17232,278.34435a3.8567,3.8567,0,1,0,3.8564,3.857A3.8576,3.8576,0,0,0,276.17232,278.34435Z"/>
            <path class="cls-6" d="M300.96472,278.34435a3.8567,3.8567,0,1,0,3.857,3.857A3.85714,3.85714,0,0,0,300.96472,278.34435Z"/>
            <path class="cls-6" d="M325.75772,278.34435a3.8567,3.8567,0,1,0,3.8569,3.857A3.85714,3.85714,0,0,0,325.75772,278.34435Z"/>
            <path class="cls-6" d="M350.55072,278.34435a3.8567,3.8567,0,1,0,3.8564,3.857A3.85766,3.85766,0,0,0,350.55072,278.34435Z"/>
            <path class="cls-6" d="M375.34362,278.34435a3.8567,3.8567,0,1,0,3.8565,3.857A3.85757,3.85757,0,0,0,375.34362,278.34435Z"/>
            <path class="cls-6" d="M400.13612,278.34435a3.8567,3.8567,0,1,0,3.857,3.857A3.85714,3.85714,0,0,0,400.13612,278.34435Z"/>
            <path class="cls-6" d="M424.92911,278.34435a3.8567,3.8567,0,1,0,3.8564,3.857A3.85723,3.85723,0,0,0,424.92911,278.34435Z"/>
            <path class="cls-6" d="M449.72211,278.34435a3.8567,3.8567,0,1,0,3.8564,3.857A3.85759,3.85759,0,0,0,449.72211,278.34435Z"/>
            <path class="cls-6" d="M474.51451,278.34435a3.8567,3.8567,0,1,0,3.857,3.857A3.85714,3.85714,0,0,0,474.51451,278.34435Z"/>
            <path class="cls-6" d="M499.30751,278.34435a3.8567,3.8567,0,1,0,3.8569,3.857A3.85714,3.85714,0,0,0,499.30751,278.34435Z"/>
            <path class="cls-6" d="M524.10051,278.34435a3.8567,3.8567,0,1,0,3.8564,3.857A3.85766,3.85766,0,0,0,524.10051,278.34435Z"/>
            <path class="cls-6" d="M548.893,278.34435a3.8567,3.8567,0,1,0,3.8564,3.857A3.85749,3.85749,0,0,0,548.893,278.34435Z"/>
            <path class="cls-6" d="M573.68591,278.34435a3.8567,3.8567,0,1,0,3.8565,3.857A3.85746,3.85746,0,0,0,573.68591,278.34435Z"/>
            <path class="cls-6" d="M598.47891,278.34435a3.8567,3.8567,0,1,0,3.8564,3.857A3.85691,3.85691,0,0,0,598.47891,278.34435Z"/>
            <path class="cls-6" d="M623.27191,278.34435a3.8567,3.8567,0,1,0,3.8564,3.857A3.85691,3.85691,0,0,0,623.27191,278.34435Z"/>
            <path class="cls-6" d="M644.21621,282.111c2.0625-1.0849,4.0078-2.1352,5.8975-3.166a3.837,3.837,0,0,0-5.8975,3.166Z"/>
            <path class="cls-6" d="M242.27332,296.33215a3.81537,3.81537,0,0,0-1.0674.168q2.3988,1.49775,4.8467,2.9185A3.85768,3.85768,0,0,0,242.27332,296.33215Z"/>
            <path class="cls-6" d="M267.06632,296.33215a3.8567,3.8567,0,1,0,3.8569,3.8565A3.857,3.857,0,0,0,267.06632,296.33215Z"/>
            <path class="cls-6" d="M291.85932,296.33215a3.8567,3.8567,0,1,0,3.8564,3.8565A3.85749,3.85749,0,0,0,291.85932,296.33215Z"/>
            <path class="cls-6" d="M316.65222,296.33215a3.8567,3.8567,0,1,0,3.8565,3.8565A3.85714,3.85714,0,0,0,316.65222,296.33215Z"/>
            <path class="cls-6" d="M341.44472,296.33215a3.8567,3.8567,0,1,0,3.8569,3.8565A3.857,3.857,0,0,0,341.44472,296.33215Z"/>
            <path class="cls-6" d="M366.23772,296.33215a3.8567,3.8567,0,1,0,3.8564,3.8565A3.85712,3.85712,0,0,0,366.23772,296.33215Z"/>
            <path class="cls-6" d="M391.03072,296.33215a3.8567,3.8567,0,1,0,3.8564,3.8565A3.85717,3.85717,0,0,0,391.03072,296.33215Z"/>
            <path class="cls-6" d="M415.82311,296.33215a3.8567,3.8567,0,1,0,3.857,3.8565A3.857,3.857,0,0,0,415.82311,296.33215Z"/>
            <path class="cls-6" d="M440.61611,296.33215a3.8567,3.8567,0,1,0,3.8569,3.8565A3.857,3.857,0,0,0,440.61611,296.33215Z"/>
            <path class="cls-6" d="M465.40911,296.33215a3.8567,3.8567,0,1,0,3.8564,3.8565A3.85755,3.85755,0,0,0,465.40911,296.33215Z"/>
            <path class="cls-6" d="M490.20161,296.33215a3.8567,3.8567,0,1,0,3.8569,3.8565A3.85706,3.85706,0,0,0,490.20161,296.33215Z"/>
            <path class="cls-6" d="M514.99451,296.33215a3.8567,3.8567,0,1,0,3.857,3.8565A3.857,3.857,0,0,0,514.99451,296.33215Z"/>
            <path class="cls-6" d="M539.78751,296.33215a3.8567,3.8567,0,1,0,3.8564,3.8565A3.8568,3.8568,0,0,0,539.78751,296.33215Z"/>
            <path class="cls-6" d="M564.58051,296.33215a3.8567,3.8567,0,1,0,3.8564,3.8565A3.8568,3.8568,0,0,0,564.58051,296.33215Z"/>
            <path class="cls-6" d="M589.37341,296.33215a3.8567,3.8567,0,1,0,3.8565,3.8565A3.85757,3.85757,0,0,0,589.37341,296.33215Z"/>
            <path class="cls-6" d="M611.20061,297.75065c1.11622-.4458,2.24022-.9082,3.3681-1.3774a3.51571,3.51571,0,0,0-.4023-.0411A3.8351,3.8351,0,0,0,611.20061,297.75065Z"/>
            <path class="cls-6" d="M300.56042,315.299h.8111a2.05073,2.05073,0,0,0-.8111,0Z"/>
            <path class="cls-6" d="M325.35292,315.299h.8115a2.05275,2.05275,0,0,0-.8115,0Z"/>
            <path class="cls-6" d="M350.14592,315.299h.8115a2.05275,2.05275,0,0,0-.8115,0Z"/>
            <path class="cls-6" d="M374.93892,315.299h.8115a3.73792,3.73792,0,0,0-.4068-.0405A3.6774,3.6774,0,0,0,374.93892,315.299Z"/>
            <path class="cls-6" d="M399.73183,315.299h.81109a2.05068,2.05068,0,0,0-.81109,0Z"/>
            <path class="cls-6" d="M424.52431,315.299h.81152a2.05285,2.05285,0,0,0-.81152,0Z"/>
            <path class="cls-6" d="M449.31731,315.299h.81152a3.737,3.737,0,0,0-.40672-.0405A3.689,3.689,0,0,0,449.31731,315.299Z"/>
            <path class="cls-6" d="M474.11021,315.299h.8111a2.05073,2.05073,0,0,0-.8111,0Z"/>
            <path class="cls-6" d="M498.90271,315.299h.8115a2.05275,2.05275,0,0,0-.8115,0Z"/>
            <path class="cls-6" d="M523.69571,315.299h.8115a2.05275,2.05275,0,0,0-.8115,0Z"/>
            <path class="cls-6" d="M102.91492,241.43085a3.85665,3.85665,0,1,0,3.857,3.8564A3.85631,3.85631,0,0,0,102.91492,241.43085Z"/>
            <path class="cls-6" d="M127.70792,241.43085a3.84552,3.84552,0,0,0-3.8257,3.5424c2.43561-.6132,4.8233-1.1147,7.1821-1.5517A3.84243,3.84243,0,0,0,127.70792,241.43085Z"/>
            <path class="cls-6" d="M152.50092,241.43085a3.81623,3.81623,0,0,0-2.3882.8501c1.8789.1831,3.7383.478,5.583.8457A3.85661,3.85661,0,0,0,152.50092,241.43085Z"/>
            <path class="cls-6" d="M177.29332,241.43085a3.85665,3.85665,0,1,0,3.857,3.8564A3.85638,3.85638,0,0,0,177.29332,241.43085Z"/>
            <path class="cls-6" d="M202.08632,241.43085a3.85665,3.85665,0,1,0,3.85651,3.8564A3.85631,3.85631,0,0,0,202.08632,241.43085Z"/>
            <path class="cls-6" d="M226.87932,241.43085a3.85665,3.85665,0,1,0,3.8564,3.8564A3.85642,3.85642,0,0,0,226.87932,241.43085Z"/>
            <path class="cls-6" d="M192.97942,259.41865a3.81269,3.81269,0,0,0-1.9219.5317q2.8491,1.97175,5.7046,4.0605a3.84077,3.84077,0,0,0-3.7827-4.5922Z"/>
            <path class="cls-6" d="M217.77242,259.41865a3.85665,3.85665,0,1,0,3.85641,3.8564A3.85682,3.85682,0,0,0,217.77242,259.41865Z"/>
            <path class="cls-6" d="M230.73572,282.20135a3.85675,3.85675,0,1,0-6.875,2.3735q.8262.6138,1.6582,1.2246a3.83336,3.83336,0,0,0,5.2168-3.5981Z"/>
          </g>
          <g>
            <path class="cls-5" d="M689.94083,238.27165s-7.24412-23.2002-25.64452-52.6182a3.868,3.868,0,1,1-2.27248-3.5747,283.24109,283.24109,0,0,0-23.25492-31.146,3.84714,3.84714,0,1,1-4.9775-5.6152q-5.3658-5.89155-11.3418-11.6992a3.83878,3.83878,0,0,1-5.5615-5.2295,241.53793,241.53793,0,0,0-43.7979-31.8711,3.855,3.855,0,0,1-6.56638-2.7422,3.73983,3.73983,0,0,1,.086-.7959c-.30572-.1616-.60652-.3272-.91222-.4863a238.64025,238.64025,0,0,0-50.6171-19.4429,3.81793,3.81793,0,0,1,.46532,1.7993,3.85671,3.85671,0,1,1-6.05232-3.166c-39.6513-9.2046-79.5478-7.6206-118.85439.665a3.84986,3.84986,0,1,1-6.771,2.501,3.79039,3.79039,0,0,1,.1616-1.042,456.59383,456.59383,0,0,0-58.3496,17.8672,3.814,3.814,0,0,1,.6289,2.1006,3.84912,3.84912,0,0,1-7.6533.5942c-11.6348,4.5537-23.168,9.4844-34.5723,14.6885-13.752,6.2734-26.1099,12.3384-37.3399,18.0239a3.80575,3.80575,0,1,1-.8481.4287c-44.0879,22.3672-70.4517,38.6978-93.4087,38.1104a3.855,3.855,0,1,1-6.167-.5664,49.45371,49.45371,0,0,1-20.43989-8.7847c-2.38581-1.6704-4.93071-3.4028-7.59961-5.1782a3.836,3.836,0,0,1-6.3941-4.1816c-39.4765-25.4322-99.59809-57.1202-110.248-52.3467-12.0113,5.3847,45.9697,98.9795,45.9697,98.9795s-55.4956,78.6914-46.3843,96.4985c9.1123,17.8047,92.35349-47.6294,143.294-48.0425,50.9404-.4155,87.3847,73.2998,155.3027,73.2998H531.74061s45.1436.418,98.5684-26.0883C683.73483,262.70715,692.00721,251.10905,689.94083,238.27165ZM90.50232,226.36145a3.85665,3.85665,0,1,1,3.857-3.8569A3.85642,3.85642,0,0,1,90.50232,226.36145Zm0-36.914a3.85645,3.85645,0,1,1,3.857-3.8565A3.85608,3.85608,0,0,1,90.50232,189.44745Zm0-36.9136a3.8567,3.8567,0,1,1,3.857-3.8569A3.85648,3.85648,0,0,1,90.50232,152.53385Zm9.107,55.8398a3.85665,3.85665,0,1,1,3.8569-3.8569A3.8565,3.8565,0,0,1,99.60932,208.37365Zm0-36.9135a3.8567,3.8567,0,1,1,3.8569-3.857A3.85658,3.85658,0,0,1,99.60932,171.46015Zm15.686,54.9013a3.85665,3.85665,0,1,1,3.8564-3.8569A3.85642,3.85642,0,0,1,115.29532,226.36145Zm0-36.914a3.85645,3.85645,0,1,1,3.8564-3.8565A3.85608,3.85608,0,0,1,115.29532,189.44745Zm9.1069,18.9262a3.85665,3.85665,0,1,1,3.8565-3.8569A3.85685,3.85685,0,0,1,124.40222,208.37365Zm0-36.9135a3.8567,3.8567,0,1,1,3.8565-3.857A3.85694,3.85694,0,0,1,124.40222,171.46015Zm15.6861,54.9013a3.85665,3.85665,0,1,1,3.8564-3.8569A3.85661,3.85661,0,0,1,140.08832,226.36145Zm0-36.914a3.85645,3.85645,0,1,1,3.8564-3.8565A3.85627,3.85627,0,0,1,140.08832,189.44745Zm9.1064,18.9262a3.85665,3.85665,0,1,1,3.8569-3.8569A3.85642,3.85642,0,0,1,149.19472,208.37365Zm15.686,17.9878a3.85665,3.85665,0,1,1,3.857-3.8569A3.85648,3.85648,0,0,1,164.88072,226.36145Zm0-36.914a3.85645,3.85645,0,1,1,3.857-3.8565A3.85614,3.85614,0,0,1,164.88072,189.44745Zm9.107,18.9262a3.85665,3.85665,0,1,1,3.8569-3.8569A3.8565,3.8565,0,0,1,173.98772,208.37365Zm0-36.9135a3.8567,3.8567,0,1,1,3.8569-3.857A3.85659,3.85659,0,0,1,173.98772,171.46015Zm15.686,54.9013a3.85665,3.85665,0,1,1,3.857-3.8569A3.85642,3.85642,0,0,1,189.67372,226.36145Zm0-36.914a3.85645,3.85645,0,1,1,3.857-3.8565A3.85608,3.85608,0,0,1,189.67372,189.44745Zm9.107,18.9262a3.85665,3.85665,0,1,1,3.8564-3.8569A3.8565,3.8565,0,0,1,198.78072,208.37365Zm0-36.9135a3.8567,3.8567,0,1,1,3.8564-3.857A3.85659,3.85659,0,0,1,198.78072,171.46015Zm15.686,54.9013a3.85665,3.85665,0,1,1,3.8564-3.8569A3.85684,3.85684,0,0,1,214.46672,226.36145Zm0-36.914a3.85645,3.85645,0,1,1,3.8564-3.8565A3.85649,3.85649,0,0,1,214.46672,189.44745Zm0-36.9136a3.8567,3.8567,0,1,1,3.8564-3.8569A3.8569,3.8569,0,0,1,214.46672,152.53385Zm9.1069,55.8398a3.85665,3.85665,0,1,1,3.8565-3.8569A3.85652,3.85652,0,0,1,223.57362,208.37365Zm0-36.9135a3.8567,3.8567,0,1,1,3.8565-3.857A3.85661,3.85661,0,0,1,223.57362,171.46015Zm15.3941,54.9013a3.85665,3.85665,0,1,1,3.8569-3.8569A3.85708,3.85708,0,0,1,238.96772,226.36145Zm0-36.914a3.85645,3.85645,0,1,1,3.8569-3.8565A3.85674,3.85674,0,0,1,238.96772,189.44745Zm0-36.9136a3.8567,3.8567,0,1,1,3.8569-3.8569A3.85714,3.85714,0,0,1,238.96772,152.53385Zm9.1059,55.8398a3.85665,3.85665,0,1,1,3.8565-3.8569A3.85706,3.85706,0,0,1,248.07362,208.37365Zm0-36.9135a3.8567,3.8567,0,1,1,3.8565-3.857A3.85714,3.85714,0,0,1,248.07362,171.46015Zm15.687,54.9013a3.85665,3.85665,0,1,1,3.857-3.8569A3.85706,3.85706,0,0,1,263.76062,226.36145Zm0-36.914a3.85645,3.85645,0,1,1,3.857-3.8565A3.85672,3.85672,0,0,1,263.76062,189.44745Zm0-36.9136a3.8567,3.8567,0,1,1,3.857-3.8569A3.85712,3.85712,0,0,1,263.76062,152.53385Zm9.106,55.8398a3.85665,3.85665,0,1,1,3.8564-3.8569A3.85717,3.85717,0,0,1,272.86662,208.37365Zm0-36.9135a3.8567,3.8567,0,1,1,3.8564-3.857A3.85725,3.85725,0,0,1,272.86662,171.46015Zm0-36.9141a3.8567,3.8567,0,1,1,3.8564-3.8564A3.85712,3.85712,0,0,1,272.86662,134.54605Zm15.687,91.8154a3.85665,3.85665,0,1,1,3.8564-3.8569A3.85749,3.85749,0,0,1,288.55362,226.36145Zm0-36.914a3.85645,3.85645,0,1,1,3.8564-3.8565A3.85714,3.85714,0,0,1,288.55362,189.44745Zm0-36.9136a3.8567,3.8567,0,1,1,3.8564-3.8569A3.85755,3.85755,0,0,1,288.55362,152.53385Zm0-36.9136a3.8567,3.8567,0,1,1,3.8564-3.8569A3.85755,3.85755,0,0,1,288.55362,115.62025Zm9.1055,92.7534a3.85665,3.85665,0,1,1,3.8569-3.8569A3.85714,3.85714,0,0,1,297.65912,208.37365Zm0-36.9135a3.8567,3.8567,0,1,1,3.8569-3.857A3.85723,3.85723,0,0,1,297.65912,171.46015Zm0-36.9141a3.8567,3.8567,0,1,1,3.8569-3.8564A3.8571,3.8571,0,0,1,297.65912,134.54605Zm15.687,91.8154a3.85665,3.85665,0,1,1,3.8569-3.8569A3.85714,3.85714,0,0,1,313.34612,226.36145Zm0-36.914a3.85645,3.85645,0,1,1,3.8569-3.8565A3.8568,3.8568,0,0,1,313.34612,189.44745Zm0-36.9136a3.8567,3.8567,0,1,1,3.8569-3.8569A3.85721,3.85721,0,0,1,313.34612,152.53385Zm0-36.9136a3.8567,3.8567,0,1,1,3.8569-3.8569A3.85721,3.85721,0,0,1,313.34612,115.62025Zm9.1059,92.7534a3.85665,3.85665,0,1,1,3.857-3.8569A3.85706,3.85706,0,0,1,322.452,208.37365Zm0-36.9135a3.8567,3.8567,0,1,1,3.857-3.857A3.85714,3.85714,0,0,1,322.452,171.46015Zm0-36.9141a3.8567,3.8567,0,1,1,3.857-3.8564A3.857,3.857,0,0,1,322.452,134.54605Zm15.6871,91.8154a3.85665,3.85665,0,1,1,3.8569-3.8569A3.85708,3.85708,0,0,1,338.13912,226.36145Zm0-36.914a3.85645,3.85645,0,1,1,3.8569-3.8565A3.85674,3.85674,0,0,1,338.13912,189.44745Zm0-36.9136a3.8567,3.8567,0,1,1,3.8569-3.8569A3.85714,3.85714,0,0,1,338.13912,152.53385Zm0-36.9136a3.8567,3.8567,0,1,1,3.8569-3.8569A3.85714,3.85714,0,0,1,338.13912,115.62025Zm9.1059,92.7534a3.85665,3.85665,0,1,1,3.8565-3.8569A3.85749,3.85749,0,0,1,347.245,208.37365Zm0-36.9135a3.8567,3.8567,0,1,1,3.8565-3.857A3.85757,3.85757,0,0,1,347.245,171.46015Zm0-36.9141a3.8567,3.8567,0,1,1,3.8565-3.8564A3.85744,3.85744,0,0,1,347.245,134.54605Zm0-36.9136a3.85665,3.85665,0,1,1,3.8565-3.8569A3.85749,3.85749,0,0,1,347.245,97.63245Zm15.687,128.729a3.85665,3.85665,0,1,1,3.8565-3.8569A3.85749,3.85749,0,0,1,362.932,226.36145Zm0-36.914a3.85645,3.85645,0,1,1,3.8565-3.8565A3.85714,3.85714,0,0,1,362.932,189.44745Zm0-36.9136a3.8567,3.8567,0,1,1,3.8565-3.8569A3.85755,3.85755,0,0,1,362.932,152.53385Zm0-36.9136a3.8567,3.8567,0,1,1,3.8565-3.8569A3.85755,3.85755,0,0,1,362.932,115.62025Zm9.1055,92.7534a3.85665,3.85665,0,1,1,3.8569-3.8569A3.85714,3.85714,0,0,1,372.03752,208.37365Zm0-36.9135a3.8567,3.8567,0,1,1,3.8569-3.857A3.85723,3.85723,0,0,1,372.03752,171.46015Zm0-36.9141a3.8567,3.8567,0,1,1,3.8569-3.8564A3.8571,3.8571,0,0,1,372.03752,134.54605Zm0-36.9136a3.85665,3.85665,0,1,1,3.8569-3.8569A3.85714,3.85714,0,0,1,372.03752,97.63245Zm15.6875,128.729a3.85665,3.85665,0,1,1,3.8564-3.8569A3.85717,3.85717,0,0,1,387.725,226.36145Zm0-36.914a3.85645,3.85645,0,1,1,3.8564-3.8565A3.85682,3.85682,0,0,1,387.725,189.44745Zm0-36.9136a3.8567,3.8567,0,1,1,3.8564-3.8569A3.85723,3.85723,0,0,1,387.725,152.53385Zm0-36.9136a3.8567,3.8567,0,1,1,3.8564-3.8569A3.85723,3.85723,0,0,1,387.725,115.62025Zm9.1055,92.7534a3.85665,3.85665,0,1,1,3.8569-3.8569A3.85708,3.85708,0,0,1,396.83052,208.37365Zm0-36.9135a3.8567,3.8567,0,1,1,3.8569-3.857A3.85717,3.85717,0,0,1,396.83052,171.46015Zm0-36.9141a3.8567,3.8567,0,1,1,3.8569-3.8564A3.857,3.857,0,0,1,396.83052,134.54605Zm0-36.9136a3.85665,3.85665,0,1,1,3.8569-3.8569A3.85708,3.85708,0,0,1,396.83052,97.63245Zm15.687,128.729a3.85665,3.85665,0,1,1,3.8569-3.8569A3.85714,3.85714,0,0,1,412.51751,226.36145Zm0-36.914a3.85645,3.85645,0,1,1,3.8569-3.8565A3.8568,3.8568,0,0,1,412.51751,189.44745Zm0-36.9136a3.8567,3.8567,0,1,1,3.8569-3.8569A3.85721,3.85721,0,0,1,412.51751,152.53385Zm0-36.9136a3.8567,3.8567,0,1,1,3.8569-3.8569A3.85721,3.85721,0,0,1,412.51751,115.62025Zm0-36.914a3.8567,3.8567,0,1,1,3.8569-3.8565A3.85712,3.85712,0,0,1,412.51751,78.70625Zm9.1059,129.6674a3.85665,3.85665,0,1,1,3.8565-3.8569A3.85706,3.85706,0,0,1,421.62341,208.37365Zm0-36.9135a3.8567,3.8567,0,1,1,3.8565-3.857A3.85714,3.85714,0,0,1,421.62341,171.46015Zm0-36.9141a3.8567,3.8567,0,1,1,3.8565-3.8564A3.857,3.857,0,0,1,421.62341,134.54605Zm0-36.9136a3.85665,3.85665,0,1,1,3.8565-3.8569A3.85706,3.85706,0,0,1,421.62341,97.63245Zm15.687,128.729a3.85665,3.85665,0,1,1,3.857-3.8569A3.85749,3.85749,0,0,1,437.31041,226.36145Zm0-36.914a3.85645,3.85645,0,1,1,3.857-3.8565A3.85714,3.85714,0,0,1,437.31041,189.44745Zm0-36.9136a3.8567,3.8567,0,1,1,3.857-3.8569A3.85755,3.85755,0,0,1,437.31041,152.53385Zm0-36.9136a3.8567,3.8567,0,1,1,3.857-3.8569A3.85755,3.85755,0,0,1,437.31041,115.62025Zm0-36.914a3.8567,3.8567,0,1,1,3.857-3.8565A3.85746,3.85746,0,0,1,437.31041,78.70625Zm9.106,129.6674a3.85665,3.85665,0,1,1,3.85642-3.8569A3.85717,3.85717,0,0,1,446.41641,208.37365Zm0-36.9135a3.8567,3.8567,0,1,1,3.85642-3.857A3.85725,3.85725,0,0,1,446.41641,171.46015Zm0-36.9141a3.8567,3.8567,0,1,1,3.85642-3.8564A3.85712,3.85712,0,0,1,446.41641,134.54605Zm0-36.9136a3.85665,3.85665,0,1,1,3.85642-3.8569A3.85717,3.85717,0,0,1,446.41641,97.63245Zm15.687,128.729a3.85665,3.85665,0,1,1,3.8565-3.8569A3.85749,3.85749,0,0,1,462.10341,226.36145Zm0-36.914a3.85645,3.85645,0,1,1,3.8565-3.8565A3.85714,3.85714,0,0,1,462.10341,189.44745Zm0-36.9136a3.8567,3.8567,0,1,1,3.8565-3.8569A3.85755,3.85755,0,0,1,462.10341,152.53385Zm0-36.9136a3.8567,3.8567,0,1,1,3.8565-3.8569A3.85755,3.85755,0,0,1,462.10341,115.62025Zm0-36.914a3.8567,3.8567,0,1,1,3.8565-3.8565A3.85746,3.85746,0,0,1,462.10341,78.70625Zm9.1055,129.6674a3.85665,3.85665,0,1,1,3.85692-3.8569A3.85714,3.85714,0,0,1,471.20891,208.37365Zm0-36.9135a3.8567,3.8567,0,1,1,3.85692-3.857A3.85723,3.85723,0,0,1,471.20891,171.46015Zm0-36.9141a3.8567,3.8567,0,1,1,3.85692-3.8564A3.8571,3.8571,0,0,1,471.20891,134.54605Zm0-36.9136a3.85665,3.85665,0,1,1,3.85692-3.8569A3.85714,3.85714,0,0,1,471.20891,97.63245Zm15.687,128.729a3.85665,3.85665,0,1,1,3.85692-3.8569A3.85714,3.85714,0,0,1,486.89591,226.36145Zm0-36.914a3.85645,3.85645,0,1,1,3.85692-3.8565A3.8568,3.8568,0,0,1,486.89591,189.44745Zm0-36.9136a3.8567,3.8567,0,1,1,3.85692-3.8569A3.85721,3.85721,0,0,1,486.89591,152.53385Zm0-36.9136a3.8567,3.8567,0,1,1,3.85692-3.8569A3.85721,3.85721,0,0,1,486.89591,115.62025Zm0-36.914a3.8567,3.8567,0,1,1,3.85692-3.8565A3.85712,3.85712,0,0,1,486.89591,78.70625Zm9.10592,129.6674a3.85665,3.85665,0,1,1,3.857-3.8569A3.85706,3.85706,0,0,1,496.00183,208.37365Zm0-36.9135a3.8567,3.8567,0,1,1,3.857-3.857A3.85715,3.85715,0,0,1,496.00183,171.46015Zm0-36.9141a3.8567,3.8567,0,1,1,3.857-3.8564A3.857,3.857,0,0,1,496.00183,134.54605Zm0-36.9136a3.85665,3.85665,0,1,1,3.857-3.8569A3.85706,3.85706,0,0,1,496.00183,97.63245Zm15.68708,128.729a3.85665,3.85665,0,1,1,3.85692-3.8569A3.85708,3.85708,0,0,1,511.68891,226.36145Zm0-36.914a3.85645,3.85645,0,1,1,3.85692-3.8565A3.85674,3.85674,0,0,1,511.68891,189.44745Zm0-36.9136a3.8567,3.8567,0,1,1,3.85692-3.8569A3.85714,3.85714,0,0,1,511.68891,152.53385Zm0-36.9136a3.8567,3.8567,0,1,1,3.85692-3.8569A3.85714,3.85714,0,0,1,511.68891,115.62025Zm9.10592,92.7534a3.85665,3.85665,0,1,1,3.85648-3.8569A3.85749,3.85749,0,0,1,520.79483,208.37365Zm0-36.9135a3.8567,3.8567,0,1,1,3.85648-3.857A3.85757,3.85757,0,0,1,520.79483,171.46015Zm0-36.9141a3.8567,3.8567,0,1,1,3.85648-3.8564A3.85745,3.85745,0,0,1,520.79483,134.54605Zm0-36.9136a3.85665,3.85665,0,1,1,3.85648-3.8569A3.85749,3.85749,0,0,1,520.79483,97.63245Zm15.687,128.729a3.85665,3.85665,0,1,1,3.85648-3.8569A3.85674,3.85674,0,0,1,536.48183,226.36145Zm0-36.914a3.85645,3.85645,0,1,1,3.85648-3.8565A3.8564,3.8564,0,0,1,536.48183,189.44745Zm0-36.9136a3.8567,3.8567,0,1,1,3.85648-3.8569A3.85681,3.85681,0,0,1,536.48183,152.53385Zm0-36.9136a3.8567,3.8567,0,1,1,3.85648-3.8569A3.85681,3.85681,0,0,1,536.48183,115.62025Zm9.10548,92.7534a3.85665,3.85665,0,1,1,3.8564-3.8569A3.85745,3.85745,0,0,1,545.58731,208.37365Zm0-36.9135a3.8567,3.8567,0,1,1,3.8564-3.857A3.85753,3.85753,0,0,1,545.58731,171.46015Zm0-36.9141a3.8567,3.8567,0,1,1,3.8564-3.8564A3.8574,3.8574,0,0,1,545.58731,134.54605Zm0-36.9136a3.85665,3.85665,0,1,1,3.8564-3.8569A3.85745,3.85745,0,0,1,545.58731,97.63245Zm15.68752,128.729a3.85665,3.85665,0,1,1,3.85638-3.8569A3.85683,3.85683,0,0,1,561.27483,226.36145Zm0-36.914a3.85645,3.85645,0,1,1,3.85638-3.8565A3.85649,3.85649,0,0,1,561.27483,189.44745Zm0-36.9136a3.8567,3.8567,0,1,1,3.85638-3.8569A3.85689,3.85689,0,0,1,561.27483,152.53385Zm0-36.9136a3.8567,3.8567,0,1,1,3.85638-3.8569A3.85689,3.85689,0,0,1,561.27483,115.62025Zm9.10548,92.7534a3.85665,3.85665,0,1,1,3.8564-3.8569A3.85681,3.85681,0,0,1,570.38031,208.37365Zm0-36.9135a3.8567,3.8567,0,1,1,3.8564-3.857A3.85689,3.85689,0,0,1,570.38031,171.46015Zm0-36.9141a3.8567,3.8567,0,1,1,3.8564-3.8564A3.85676,3.85676,0,0,1,570.38031,134.54605Zm15.68752,91.8154a3.85665,3.85665,0,1,1,3.85638-3.8569A3.85768,3.85768,0,0,1,586.06783,226.36145Zm0-36.914a3.85645,3.85645,0,1,1,3.85638-3.8565A3.85734,3.85734,0,0,1,586.06783,189.44745Zm0-36.9136a3.8567,3.8567,0,1,1,3.85638-3.8569A3.85775,3.85775,0,0,1,586.06783,152.53385Zm0-36.9136a3.8567,3.8567,0,1,1,3.85638-3.8569A3.85775,3.85775,0,0,1,586.06783,115.62025Zm9.10538,92.7534a3.85665,3.85665,0,1,1,3.8565-3.8569A3.85672,3.85672,0,0,1,595.17321,208.37365Zm0-36.9135a3.8567,3.8567,0,1,1,3.8565-3.857A3.85681,3.85681,0,0,1,595.17321,171.46015Zm0-36.9141a3.8567,3.8567,0,1,1,3.8565-3.8564A3.85668,3.85668,0,0,1,595.17321,134.54605Zm15.6875,91.8154a3.85665,3.85665,0,1,1,3.8565-3.8569A3.8576,3.8576,0,0,1,610.86071,226.36145Zm0-36.914a3.85645,3.85645,0,1,1,3.8565-3.8565A3.85726,3.85726,0,0,1,610.86071,189.44745Zm0-36.9136a3.8567,3.8567,0,1,1,3.8565-3.8569A3.85767,3.85767,0,0,1,610.86071,152.53385Zm9.1055,55.8398a3.85665,3.85665,0,1,1,3.8564-3.8569A3.85672,3.85672,0,0,1,619.96621,208.37365Zm0-36.9135a3.8567,3.8567,0,1,1,3.8564-3.857A3.85681,3.85681,0,0,1,619.96621,171.46015Zm15.6865,54.9013a3.85665,3.85665,0,1,1,3.8574-3.8569A3.85739,3.85739,0,0,1,635.65271,226.36145Zm0-36.914a3.85645,3.85645,0,1,1,3.8574-3.8565A3.857,3.857,0,0,1,635.65271,189.44745Zm9.1065,18.9262a3.85665,3.85665,0,1,1,3.8564-3.8569A3.85768,3.85768,0,0,1,644.75921,208.37365Zm0-36.9135a3.8567,3.8567,0,1,1,3.8564-3.857A3.85776,3.85776,0,0,1,644.75921,171.46015Zm15.6865,54.9013a3.85665,3.85665,0,1,1,3.8564-3.8569A3.85748,3.85748,0,0,1,660.44571,226.36145Zm9.1064-17.9878a3.85665,3.85665,0,1,1,3.8565-3.8569A3.85759,3.85759,0,0,1,669.55211,208.37365Z"/>
            <path class="cls-7" d="M387.725,78.70625a3.83839,3.83839,0,0,0,2.9141-6.3575q-3.30915.69735-6.6094,1.459a3.79039,3.79039,0,0,0-.1616,1.042A3.85714,3.85714,0,0,0,387.725,78.70625Z"/>
            <path class="cls-7" d="M412.51751,70.99285a3.8567,3.8567,0,1,0,3.8569,3.8569A3.85721,3.85721,0,0,0,412.51751,70.99285Z"/>
            <path class="cls-7" d="M437.31041,70.99285a3.8567,3.8567,0,1,0,3.857,3.8569A3.85755,3.85755,0,0,0,437.31041,70.99285Z"/>
            <path class="cls-7" d="M462.10341,70.99285a3.8567,3.8567,0,1,0,3.8565,3.8569A3.85755,3.85755,0,0,0,462.10341,70.99285Z"/>
            <path class="cls-7" d="M486.89591,70.99285a3.8567,3.8567,0,1,0,3.85692,3.8569A3.85721,3.85721,0,0,0,486.89591,70.99285Z"/>
            <path class="cls-7" d="M507.83241,74.84975a3.85671,3.85671,0,0,0,7.71342,0,3.81793,3.81793,0,0,0-.46532-1.7993q-2.7921-.72-5.587-1.3667A3.8519,3.8519,0,0,0,507.83241,74.84975Z"/>
            <path class="cls-7" d="M322.452,97.63245a3.856,3.856,0,0,0,3.857-3.8569,3.814,3.814,0,0,0-.6289-2.1006q-3.51855,1.3242-7.0244,2.6948A3.84927,3.84927,0,0,0,322.452,97.63245Z"/>
            <path class="cls-7" d="M347.245,89.91915a3.85665,3.85665,0,1,0,3.8565,3.8564A3.85738,3.85738,0,0,0,347.245,89.91915Z"/>
            <path class="cls-7" d="M372.03752,89.91915a3.85665,3.85665,0,1,0,3.8569,3.8564A3.857,3.857,0,0,0,372.03752,89.91915Z"/>
            <path class="cls-7" d="M396.83052,89.91915a3.85665,3.85665,0,1,0,3.8569,3.8564A3.857,3.857,0,0,0,396.83052,89.91915Z"/>
            <path class="cls-7" d="M421.62341,89.91915a3.85665,3.85665,0,1,0,3.8565,3.8564A3.857,3.857,0,0,0,421.62341,89.91915Z"/>
            <path class="cls-7" d="M446.41641,89.91915a3.85665,3.85665,0,1,0,3.85642,3.8564A3.85706,3.85706,0,0,0,446.41641,89.91915Z"/>
            <path class="cls-7" d="M471.20891,89.91915a3.85665,3.85665,0,1,0,3.85692,3.8564A3.857,3.857,0,0,0,471.20891,89.91915Z"/>
            <path class="cls-7" d="M496.00183,89.91915a3.85665,3.85665,0,1,0,3.857,3.8564A3.857,3.857,0,0,0,496.00183,89.91915Z"/>
            <path class="cls-7" d="M520.79483,89.91915a3.85665,3.85665,0,1,0,3.85648,3.8564A3.85738,3.85738,0,0,0,520.79483,89.91915Z"/>
            <path class="cls-7" d="M545.58731,89.91915a3.85665,3.85665,0,1,0,3.8564,3.8564A3.85734,3.85734,0,0,0,545.58731,89.91915Z"/>
            <path class="cls-7" d="M570.38031,97.63245a3.84423,3.84423,0,0,0,2.7099-1.1147q-3.19035-1.80465-6.48038-3.5381a3.73983,3.73983,0,0,0-.086.7959A3.85681,3.85681,0,0,0,570.38031,97.63245Z"/>
            <path class="cls-7" d="M288.55362,107.90685a3.8567,3.8567,0,1,0,3.8564,3.8565A3.85746,3.85746,0,0,0,288.55362,107.90685Z"/>
            <path class="cls-7" d="M313.34612,107.90685a3.8567,3.8567,0,1,0,3.8569,3.8565A3.85712,3.85712,0,0,0,313.34612,107.90685Z"/>
            <path class="cls-7" d="M338.13912,107.90685a3.8567,3.8567,0,1,0,3.8569,3.8565A3.85706,3.85706,0,0,0,338.13912,107.90685Z"/>
            <path class="cls-7" d="M362.932,107.90685a3.8567,3.8567,0,1,0,3.8565,3.8565A3.85746,3.85746,0,0,0,362.932,107.90685Z"/>
            <path class="cls-7" d="M387.725,107.90685a3.8567,3.8567,0,1,0,3.8564,3.8565A3.85714,3.85714,0,0,0,387.725,107.90685Z"/>
            <path class="cls-7" d="M412.51751,107.90685a3.8567,3.8567,0,1,0,3.8569,3.8565A3.85712,3.85712,0,0,0,412.51751,107.90685Z"/>
            <path class="cls-7" d="M437.31041,107.90685a3.8567,3.8567,0,1,0,3.857,3.8565A3.85746,3.85746,0,0,0,437.31041,107.90685Z"/>
            <path class="cls-7" d="M462.10341,107.90685a3.8567,3.8567,0,1,0,3.8565,3.8565A3.85746,3.85746,0,0,0,462.10341,107.90685Z"/>
            <path class="cls-7" d="M486.89591,107.90685a3.8567,3.8567,0,1,0,3.85692,3.8565A3.85712,3.85712,0,0,0,486.89591,107.90685Z"/>
            <path class="cls-7" d="M511.68891,107.90685a3.8567,3.8567,0,1,0,3.85692,3.8565A3.85706,3.85706,0,0,0,511.68891,107.90685Z"/>
            <path class="cls-7" d="M536.48183,107.90685a3.8567,3.8567,0,1,0,3.85648,3.8565A3.85672,3.85672,0,0,0,536.48183,107.90685Z"/>
            <path class="cls-7" d="M561.27483,107.90685a3.8567,3.8567,0,1,0,3.85638,3.8565A3.85681,3.85681,0,0,0,561.27483,107.90685Z"/>
            <path class="cls-7" d="M586.06783,107.90685a3.8567,3.8567,0,1,0,3.85638,3.8565A3.85766,3.85766,0,0,0,586.06783,107.90685Z"/>
            <path class="cls-7" d="M244.21722,130.68965a3.89963,3.89963,0,1,0,2.5263-3.6075c-.27969.1426-.5703.2886-.8481.4287A3.85106,3.85106,0,0,0,244.21722,130.68965Z"/>
            <path class="cls-7" d="M272.86662,126.83265a3.8567,3.8567,0,1,0,3.8564,3.857A3.85725,3.85725,0,0,0,272.86662,126.83265Z"/>
            <path class="cls-7" d="M297.65912,126.83265a3.8567,3.8567,0,1,0,3.8569,3.857A3.85723,3.85723,0,0,0,297.65912,126.83265Z"/>
            <path class="cls-7" d="M322.452,126.83265a3.8567,3.8567,0,1,0,3.857,3.857A3.85714,3.85714,0,0,0,322.452,126.83265Z"/>
            <path class="cls-7" d="M347.245,126.83265a3.8567,3.8567,0,1,0,3.8565,3.857A3.85757,3.85757,0,0,0,347.245,126.83265Z"/>
            <path class="cls-7" d="M372.03752,126.83265a3.8567,3.8567,0,1,0,3.8569,3.857A3.85723,3.85723,0,0,0,372.03752,126.83265Z"/>
            <path class="cls-7" d="M396.83052,126.83265a3.8567,3.8567,0,1,0,3.8569,3.857A3.85717,3.85717,0,0,0,396.83052,126.83265Z"/>
            <path class="cls-7" d="M421.62341,126.83265a3.8567,3.8567,0,1,0,3.8565,3.857A3.85714,3.85714,0,0,0,421.62341,126.83265Z"/>
            <path class="cls-7" d="M446.41641,126.83265a3.8567,3.8567,0,1,0,3.85642,3.857A3.85725,3.85725,0,0,0,446.41641,126.83265Z"/>
            <path class="cls-7" d="M471.20891,126.83265a3.8567,3.8567,0,1,0,3.85692,3.857A3.85723,3.85723,0,0,0,471.20891,126.83265Z"/>
            <path class="cls-7" d="M496.00183,126.83265a3.8567,3.8567,0,1,0,3.857,3.857A3.85715,3.85715,0,0,0,496.00183,126.83265Z"/>
            <path class="cls-7" d="M520.79483,126.83265a3.8567,3.8567,0,1,0,3.85648,3.857A3.85757,3.85757,0,0,0,520.79483,126.83265Z"/>
            <path class="cls-7" d="M545.58731,126.83265a3.8567,3.8567,0,1,0,3.8564,3.857A3.85753,3.85753,0,0,0,545.58731,126.83265Z"/>
            <path class="cls-7" d="M570.38031,126.83265a3.8567,3.8567,0,1,0,3.8564,3.857A3.85689,3.85689,0,0,0,570.38031,126.83265Z"/>
            <path class="cls-7" d="M595.17321,126.83265a3.8567,3.8567,0,1,0,3.8565,3.857A3.85681,3.85681,0,0,0,595.17321,126.83265Z"/>
            <path class="cls-7" d="M619.96621,134.54605a3.82424,3.82424,0,0,0,2.4834-.9277q-2.7144-2.63085-5.5615-5.2295a3.83966,3.83966,0,0,0,3.0781,6.1572Z"/>
            <path class="cls-7" d="M238.96772,144.82045a3.8567,3.8567,0,1,0,3.8569,3.8565A3.85706,3.85706,0,0,0,238.96772,144.82045Z"/>
            <path class="cls-7" d="M263.76062,144.82045a3.8567,3.8567,0,1,0,3.857,3.8565A3.857,3.857,0,0,0,263.76062,144.82045Z"/>
            <path class="cls-7" d="M288.55362,144.82045a3.8567,3.8567,0,1,0,3.8564,3.8565A3.85746,3.85746,0,0,0,288.55362,144.82045Z"/>
            <path class="cls-7" d="M313.34612,144.82045a3.8567,3.8567,0,1,0,3.8569,3.8565A3.85712,3.85712,0,0,0,313.34612,144.82045Z"/>
            <path class="cls-7" d="M338.13912,144.82045a3.8567,3.8567,0,1,0,3.8569,3.8565A3.85706,3.85706,0,0,0,338.13912,144.82045Z"/>
            <path class="cls-7" d="M362.932,144.82045a3.8567,3.8567,0,1,0,3.8565,3.8565A3.85746,3.85746,0,0,0,362.932,144.82045Z"/>
            <path class="cls-7" d="M387.725,144.82045a3.8567,3.8567,0,1,0,3.8564,3.8565A3.85714,3.85714,0,0,0,387.725,144.82045Z"/>
            <path class="cls-7" d="M412.51751,144.82045a3.8567,3.8567,0,1,0,3.8569,3.8565A3.85712,3.85712,0,0,0,412.51751,144.82045Z"/>
            <path class="cls-7" d="M437.31041,144.82045a3.8567,3.8567,0,1,0,3.857,3.8565A3.85746,3.85746,0,0,0,437.31041,144.82045Z"/>
            <path class="cls-7" d="M462.10341,144.82045a3.8567,3.8567,0,1,0,3.8565,3.8565A3.85746,3.85746,0,0,0,462.10341,144.82045Z"/>
            <path class="cls-7" d="M486.89591,144.82045a3.8567,3.8567,0,1,0,3.85692,3.8565A3.85712,3.85712,0,0,0,486.89591,144.82045Z"/>
            <path class="cls-7" d="M511.68891,144.82045a3.8567,3.8567,0,1,0,3.85692,3.8565A3.85706,3.85706,0,0,0,511.68891,144.82045Z"/>
            <path class="cls-7" d="M536.48183,144.82045a3.8567,3.8567,0,1,0,3.85648,3.8565A3.85672,3.85672,0,0,0,536.48183,144.82045Z"/>
            <path class="cls-7" d="M561.27483,144.82045a3.8567,3.8567,0,1,0,3.85638,3.8565A3.85681,3.85681,0,0,0,561.27483,144.82045Z"/>
            <path class="cls-7" d="M586.06783,144.82045a3.8567,3.8567,0,1,0,3.85638,3.8565A3.85766,3.85766,0,0,0,586.06783,144.82045Z"/>
            <path class="cls-7" d="M610.86071,144.82045a3.8567,3.8567,0,1,0,3.8565,3.8565A3.85758,3.85758,0,0,0,610.86071,144.82045Z"/>
            <path class="cls-7" d="M631.79631,148.677a3.84849,3.84849,0,0,0,6.9726,2.2558q-2.417-2.80875-4.9775-5.6152A3.84254,3.84254,0,0,0,631.79631,148.677Z"/>
            <path class="cls-7" d="M248.07362,163.74675a3.8567,3.8567,0,1,0,3.8565,3.8564A3.857,3.857,0,0,0,248.07362,163.74675Z"/>
            <path class="cls-7" d="M272.86662,163.74675a3.8567,3.8567,0,1,0,3.8564,3.8564A3.85712,3.85712,0,0,0,272.86662,163.74675Z"/>
            <path class="cls-7" d="M297.65912,163.74675a3.8567,3.8567,0,1,0,3.8569,3.8564A3.8571,3.8571,0,0,0,297.65912,163.74675Z"/>
            <path class="cls-7" d="M322.452,163.74675a3.8567,3.8567,0,1,0,3.857,3.8564A3.857,3.857,0,0,0,322.452,163.74675Z"/>
            <path class="cls-7" d="M347.245,163.74675a3.8567,3.8567,0,1,0,3.8565,3.8564A3.85744,3.85744,0,0,0,347.245,163.74675Z"/>
            <path class="cls-7" d="M372.03752,163.74675a3.8567,3.8567,0,1,0,3.8569,3.8564A3.8571,3.8571,0,0,0,372.03752,163.74675Z"/>
            <path class="cls-7" d="M396.83052,163.74675a3.8567,3.8567,0,1,0,3.8569,3.8564A3.857,3.857,0,0,0,396.83052,163.74675Z"/>
            <path class="cls-7" d="M421.62341,163.74675a3.8567,3.8567,0,1,0,3.8565,3.8564A3.857,3.857,0,0,0,421.62341,163.74675Z"/>
            <path class="cls-7" d="M446.41641,163.74675a3.8567,3.8567,0,1,0,3.85642,3.8564A3.85712,3.85712,0,0,0,446.41641,163.74675Z"/>
            <path class="cls-7" d="M471.20891,163.74675a3.8567,3.8567,0,1,0,3.85692,3.8564A3.8571,3.8571,0,0,0,471.20891,163.74675Z"/>
            <path class="cls-7" d="M496.00183,163.74675a3.8567,3.8567,0,1,0,3.857,3.8564A3.857,3.857,0,0,0,496.00183,163.74675Z"/>
            <path class="cls-7" d="M520.79483,163.74675a3.8567,3.8567,0,1,0,3.85648,3.8564A3.85745,3.85745,0,0,0,520.79483,163.74675Z"/>
            <path class="cls-7" d="M545.58731,163.74675a3.8567,3.8567,0,1,0,3.8564,3.8564A3.8574,3.8574,0,0,0,545.58731,163.74675Z"/>
            <path class="cls-7" d="M570.38031,163.74675a3.8567,3.8567,0,1,0,3.8564,3.8564A3.85676,3.85676,0,0,0,570.38031,163.74675Z"/>
            <path class="cls-7" d="M595.17321,163.74675a3.8567,3.8567,0,1,0,3.8565,3.8564A3.85668,3.85668,0,0,0,595.17321,163.74675Z"/>
            <path class="cls-7" d="M619.96621,163.74675a3.8567,3.8567,0,1,0,3.8564,3.8564A3.85668,3.85668,0,0,0,619.96621,163.74675Z"/>
            <path class="cls-7" d="M644.75921,163.74675a3.8567,3.8567,0,1,0,3.8564,3.8564A3.85763,3.85763,0,0,0,644.75921,163.74675Z"/>
            <path class="cls-7" d="M238.96772,181.73455a3.85645,3.85645,0,1,0,3.8569,3.8564A3.85672,3.85672,0,0,0,238.96772,181.73455Z"/>
            <path class="cls-7" d="M263.76062,181.73455a3.85645,3.85645,0,1,0,3.857,3.8564A3.8567,3.8567,0,0,0,263.76062,181.73455Z"/>
            <path class="cls-7" d="M288.55362,181.73455a3.85645,3.85645,0,1,0,3.8564,3.8564A3.85712,3.85712,0,0,0,288.55362,181.73455Z"/>
            <path class="cls-7" d="M313.34612,181.73455a3.85645,3.85645,0,1,0,3.8569,3.8564A3.85678,3.85678,0,0,0,313.34612,181.73455Z"/>
            <path class="cls-7" d="M338.13912,181.73455a3.85645,3.85645,0,1,0,3.8569,3.8564A3.85672,3.85672,0,0,0,338.13912,181.73455Z"/>
            <path class="cls-7" d="M362.932,181.73455a3.85645,3.85645,0,1,0,3.8565,3.8564A3.85712,3.85712,0,0,0,362.932,181.73455Z"/>
            <path class="cls-7" d="M387.725,181.73455a3.85645,3.85645,0,1,0,3.8564,3.8564A3.8568,3.8568,0,0,0,387.725,181.73455Z"/>
            <path class="cls-7" d="M412.51751,181.73455a3.85645,3.85645,0,1,0,3.8569,3.8564A3.85678,3.85678,0,0,0,412.51751,181.73455Z"/>
            <path class="cls-7" d="M437.31041,181.73455a3.85645,3.85645,0,1,0,3.857,3.8564A3.85712,3.85712,0,0,0,437.31041,181.73455Z"/>
            <path class="cls-7" d="M462.10341,181.73455a3.85645,3.85645,0,1,0,3.8565,3.8564A3.85712,3.85712,0,0,0,462.10341,181.73455Z"/>
            <path class="cls-7" d="M486.89591,181.73455a3.85645,3.85645,0,1,0,3.85692,3.8564A3.85678,3.85678,0,0,0,486.89591,181.73455Z"/>
            <path class="cls-7" d="M511.68891,181.73455a3.85645,3.85645,0,1,0,3.85692,3.8564A3.85672,3.85672,0,0,0,511.68891,181.73455Z"/>
            <path class="cls-7" d="M536.48183,181.73455a3.85645,3.85645,0,1,0,3.85648,3.8564A3.85638,3.85638,0,0,0,536.48183,181.73455Z"/>
            <path class="cls-7" d="M561.27483,181.73455a3.85645,3.85645,0,1,0,3.85638,3.8564A3.85647,3.85647,0,0,0,561.27483,181.73455Z"/>
            <path class="cls-7" d="M586.06783,181.73455a3.85645,3.85645,0,1,0,3.85638,3.8564A3.85732,3.85732,0,0,0,586.06783,181.73455Z"/>
            <path class="cls-7" d="M610.86071,181.73455a3.85645,3.85645,0,1,0,3.8565,3.8564A3.85724,3.85724,0,0,0,610.86071,181.73455Z"/>
            <path class="cls-7" d="M635.65271,181.73455a3.85645,3.85645,0,1,0,3.8574,3.8564A3.857,3.857,0,0,0,635.65271,181.73455Z"/>
            <path class="cls-7" d="M656.58921,185.591a3.85378,3.85378,0,0,0,7.7071.0625q-1.11045-1.7724-2.27248-3.5747a3.84459,3.84459,0,0,0-5.43462,3.5122Z"/>
            <path class="cls-7" d="M248.07362,200.66035a3.85665,3.85665,0,1,0,3.8565,3.8564A3.857,3.857,0,0,0,248.07362,200.66035Z"/>
            <path class="cls-7" d="M272.86662,200.66035a3.85665,3.85665,0,1,0,3.8564,3.8564A3.85706,3.85706,0,0,0,272.86662,200.66035Z"/>
            <path class="cls-7" d="M297.65912,200.66035a3.85665,3.85665,0,1,0,3.8569,3.8564A3.857,3.857,0,0,0,297.65912,200.66035Z"/>
            <path class="cls-7" d="M322.452,200.66035a3.85665,3.85665,0,1,0,3.857,3.8564A3.857,3.857,0,0,0,322.452,200.66035Z"/>
            <path class="cls-7" d="M347.245,200.66035a3.85665,3.85665,0,1,0,3.8565,3.8564A3.85738,3.85738,0,0,0,347.245,200.66035Z"/>
            <path class="cls-7" d="M372.03752,200.66035a3.85665,3.85665,0,1,0,3.8569,3.8564A3.857,3.857,0,0,0,372.03752,200.66035Z"/>
            <path class="cls-7" d="M396.83052,200.66035a3.85665,3.85665,0,1,0,3.8569,3.8564A3.857,3.857,0,0,0,396.83052,200.66035Z"/>
            <path class="cls-7" d="M421.62341,200.66035a3.85665,3.85665,0,1,0,3.8565,3.8564A3.857,3.857,0,0,0,421.62341,200.66035Z"/>
            <path class="cls-7" d="M446.41641,200.66035a3.85665,3.85665,0,1,0,3.85642,3.8564A3.85706,3.85706,0,0,0,446.41641,200.66035Z"/>
            <path class="cls-7" d="M471.20891,200.66035a3.85665,3.85665,0,1,0,3.85692,3.8564A3.857,3.857,0,0,0,471.20891,200.66035Z"/>
            <path class="cls-7" d="M496.00183,200.66035a3.85665,3.85665,0,1,0,3.857,3.8564A3.857,3.857,0,0,0,496.00183,200.66035Z"/>
            <path class="cls-7" d="M520.79483,200.66035a3.85665,3.85665,0,1,0,3.85648,3.8564A3.85738,3.85738,0,0,0,520.79483,200.66035Z"/>
            <path class="cls-7" d="M545.58731,200.66035a3.85665,3.85665,0,1,0,3.8564,3.8564A3.85734,3.85734,0,0,0,545.58731,200.66035Z"/>
            <path class="cls-7" d="M570.38031,200.66035a3.85665,3.85665,0,1,0,3.8564,3.8564A3.8567,3.8567,0,0,0,570.38031,200.66035Z"/>
            <path class="cls-7" d="M595.17321,200.66035a3.85665,3.85665,0,1,0,3.8565,3.8564A3.85661,3.85661,0,0,0,595.17321,200.66035Z"/>
            <path class="cls-7" d="M619.96621,200.66035a3.85665,3.85665,0,1,0,3.8564,3.8564A3.85661,3.85661,0,0,0,619.96621,200.66035Z"/>
            <path class="cls-7" d="M644.75921,200.66035a3.85665,3.85665,0,1,0,3.8564,3.8564A3.85757,3.85757,0,0,0,644.75921,200.66035Z"/>
            <path class="cls-7" d="M669.55211,200.66035a3.85665,3.85665,0,1,0,3.8565,3.8564A3.85749,3.85749,0,0,0,669.55211,200.66035Z"/>
            <path class="cls-7" d="M238.96772,218.64815a3.85665,3.85665,0,1,0,3.8569,3.8564A3.857,3.857,0,0,0,238.96772,218.64815Z"/>
            <path class="cls-7" d="M263.76062,218.64815a3.85665,3.85665,0,1,0,3.857,3.8564A3.857,3.857,0,0,0,263.76062,218.64815Z"/>
            <path class="cls-7" d="M288.55362,218.64815a3.85665,3.85665,0,1,0,3.8564,3.8564A3.85738,3.85738,0,0,0,288.55362,218.64815Z"/>
            <path class="cls-7" d="M313.34612,218.64815a3.85665,3.85665,0,1,0,3.8569,3.8564A3.857,3.857,0,0,0,313.34612,218.64815Z"/>
            <path class="cls-7" d="M338.13912,218.64815a3.85665,3.85665,0,1,0,3.8569,3.8564A3.857,3.857,0,0,0,338.13912,218.64815Z"/>
            <path class="cls-7" d="M362.932,218.64815a3.85665,3.85665,0,1,0,3.8565,3.8564A3.85738,3.85738,0,0,0,362.932,218.64815Z"/>
            <path class="cls-7" d="M90.50232,144.82045a3.8567,3.8567,0,1,0,3.857,3.8565A3.8564,3.8564,0,0,0,90.50232,144.82045Z"/>
            <path class="cls-7" d="M115.29532,152.53385a3.8365,3.8365,0,0,0,2.9849-1.4419c-2.0542-1.3687-4.1997-2.7676-6.3941-4.1816a3.80883,3.80883,0,0,0-.4472,1.7666A3.85648,3.85648,0,0,0,115.29532,152.53385Z"/>
            <path class="cls-7" d="M214.46672,144.82045a3.8567,3.8567,0,1,0,3.8564,3.8565A3.85682,3.85682,0,0,0,214.46672,144.82045Z"/>
            <path class="cls-7" d="M99.60932,163.74675a3.8567,3.8567,0,1,0,3.8569,3.8564A3.85645,3.85645,0,0,0,99.60932,163.74675Z"/>
            <path class="cls-7" d="M124.40222,163.74675a3.8567,3.8567,0,1,0,3.8565,3.8564A3.85681,3.85681,0,0,0,124.40222,163.74675Z"/>
            <path class="cls-7" d="M149.19472,171.46015a3.83535,3.83535,0,0,0,3.292-5.8389,44.21993,44.21993,0,0,1-6.167-.5664,3.84095,3.84095,0,0,0,2.875,6.4053Z"/>
            <path class="cls-7" d="M173.98772,163.74675a3.8567,3.8567,0,1,0,3.8569,3.8564A3.85646,3.85646,0,0,0,173.98772,163.74675Z"/>
            <path class="cls-7" d="M198.78072,163.74675a3.8567,3.8567,0,1,0,3.8564,3.8564A3.85646,3.85646,0,0,0,198.78072,163.74675Z"/>
            <path class="cls-7" d="M223.57362,163.74675a3.8567,3.8567,0,1,0,3.8565,3.8564A3.85648,3.85648,0,0,0,223.57362,163.74675Z"/>
            <path class="cls-7" d="M90.50232,181.73455a3.85645,3.85645,0,1,0,3.857,3.8564A3.85606,3.85606,0,0,0,90.50232,181.73455Z"/>
            <path class="cls-7" d="M115.29532,181.73455a3.85645,3.85645,0,1,0,3.8564,3.8564A3.85606,3.85606,0,0,0,115.29532,181.73455Z"/>
            <path class="cls-7" d="M140.08832,181.73455a3.85645,3.85645,0,1,0,3.8564,3.8564A3.85625,3.85625,0,0,0,140.08832,181.73455Z"/>
            <path class="cls-7" d="M164.88072,181.73455a3.85645,3.85645,0,1,0,3.857,3.8564A3.85612,3.85612,0,0,0,164.88072,181.73455Z"/>
            <path class="cls-7" d="M189.67372,181.73455a3.85645,3.85645,0,1,0,3.857,3.8564A3.85606,3.85606,0,0,0,189.67372,181.73455Z"/>
            <path class="cls-7" d="M214.46672,181.73455a3.85645,3.85645,0,1,0,3.8564,3.8564A3.85647,3.85647,0,0,0,214.46672,181.73455Z"/>
            <path class="cls-7" d="M99.60932,200.66035a3.85665,3.85665,0,1,0,3.8569,3.8564A3.85639,3.85639,0,0,0,99.60932,200.66035Z"/>
            <path class="cls-7" d="M124.40222,200.66035a3.85665,3.85665,0,1,0,3.8565,3.8564A3.85674,3.85674,0,0,0,124.40222,200.66035Z"/>
            <path class="cls-7" d="M149.19472,200.66035a3.85665,3.85665,0,1,0,3.8569,3.8564A3.85631,3.85631,0,0,0,149.19472,200.66035Z"/>
            <path class="cls-7" d="M173.98772,200.66035a3.85665,3.85665,0,1,0,3.8569,3.8564A3.8564,3.8564,0,0,0,173.98772,200.66035Z"/>
            <path class="cls-7" d="M198.78072,200.66035a3.85665,3.85665,0,1,0,3.8564,3.8564A3.8564,3.8564,0,0,0,198.78072,200.66035Z"/>
            <path class="cls-7" d="M223.57362,200.66035a3.85665,3.85665,0,1,0,3.8565,3.8564A3.85642,3.85642,0,0,0,223.57362,200.66035Z"/>
            <path class="cls-7" d="M90.50232,218.64815a3.85665,3.85665,0,1,0,3.857,3.8564A3.85631,3.85631,0,0,0,90.50232,218.64815Z"/>
            <path class="cls-7" d="M115.29532,218.64815a3.85665,3.85665,0,1,0,3.8564,3.8564A3.85631,3.85631,0,0,0,115.29532,218.64815Z"/>
            <path class="cls-7" d="M140.08832,218.64815a3.85665,3.85665,0,1,0,3.8564,3.8564A3.8565,3.8565,0,0,0,140.08832,218.64815Z"/>
            <path class="cls-7" d="M164.88072,218.64815a3.85665,3.85665,0,1,0,3.857,3.8564A3.85638,3.85638,0,0,0,164.88072,218.64815Z"/>
            <path class="cls-7" d="M189.67372,218.64815a3.85665,3.85665,0,1,0,3.857,3.8564A3.85631,3.85631,0,0,0,189.67372,218.64815Z"/>
            <path class="cls-7" d="M214.46672,218.64815a3.85665,3.85665,0,1,0,3.8564,3.8564A3.85673,3.85673,0,0,0,214.46672,218.64815Z"/>
            <path class="cls-7" d="M387.725,218.64815a3.85665,3.85665,0,1,0,3.8564,3.8564A3.85706,3.85706,0,0,0,387.725,218.64815Z"/>
            <path class="cls-7" d="M412.51751,218.64815a3.85665,3.85665,0,1,0,3.8569,3.8564A3.857,3.857,0,0,0,412.51751,218.64815Z"/>
            <path class="cls-7" d="M437.31041,218.64815a3.85665,3.85665,0,1,0,3.857,3.8564A3.85738,3.85738,0,0,0,437.31041,218.64815Z"/>
            <path class="cls-7" d="M462.10341,218.64815a3.85665,3.85665,0,1,0,3.8565,3.8564A3.85738,3.85738,0,0,0,462.10341,218.64815Z"/>
            <path class="cls-7" d="M486.89591,218.64815a3.85665,3.85665,0,1,0,3.85692,3.8564A3.857,3.857,0,0,0,486.89591,218.64815Z"/>
            <path class="cls-7" d="M511.68891,218.64815a3.85665,3.85665,0,1,0,3.85692,3.8564A3.857,3.857,0,0,0,511.68891,218.64815Z"/>
            <path class="cls-7" d="M536.48183,218.64815a3.85665,3.85665,0,1,0,3.85648,3.8564A3.85664,3.85664,0,0,0,536.48183,218.64815Z"/>
            <path class="cls-7" d="M561.27483,218.64815a3.85665,3.85665,0,1,0,3.85638,3.8564A3.85672,3.85672,0,0,0,561.27483,218.64815Z"/>
            <path class="cls-7" d="M586.06783,218.64815a3.85665,3.85665,0,1,0,3.85638,3.8564A3.85757,3.85757,0,0,0,586.06783,218.64815Z"/>
            <path class="cls-7" d="M610.86071,218.64815a3.85665,3.85665,0,1,0,3.8565,3.8564A3.8575,3.8575,0,0,0,610.86071,218.64815Z"/>
            <path class="cls-7" d="M635.65271,218.64815a3.85665,3.85665,0,1,0,3.8574,3.8564A3.85728,3.85728,0,0,0,635.65271,218.64815Z"/>
            <path class="cls-7" d="M660.44571,218.64815a3.85665,3.85665,0,1,0,3.8564,3.8564A3.85737,3.85737,0,0,0,660.44571,218.64815Z"/>
          </g>
          <path class="cls-8" d="M689.94083,238.27165s-30.23342-96.9072-124.24322-145.7783c-94.0107-48.8692-191.74459-24.4336-281.61419,16.5649-20.7857,9.4824-38.3902,18.478-53.6875,26.4175,19.2056-2.0205,45.6557-1.044,66.94291,13.7588,38.10149,26.5019,45.13909.4199,80.34179-12.8355,35.205-13.2549,59.63621,33.1304,99.395,15.3213,39.7593-17.8091,67.5049-27.3301,79.1006,18.2222,11.5957,45.5547,62.9482,7.4507,75.373,22.3608,12.4238,14.9126,34.7891,48.0425,34.7891,48.0425l23.7363-1.0928C690.03551,238.926,689.99451,238.59875,689.94083,238.27165Z"/>
          <polyline class="cls-9" points="548.303 168.694 517.657 217.148 580.608 295.424 616.264 295.424"/>
          <line class="cls-9" x1="570.43201" y1="282.76915" x2="635.77583" y2="282.76915"/>
          <path class="cls-10" d="M485.37,244.362a22.7684,22.7684,0,0,1,27.1777-22.4663l.14212-.6069H261.30312s65.436,11.187,109.336,38.519c43.749,27.2422,88.73729,31.0196,131.26409,6.4439A22.82615,22.82615,0,0,1,485.37,244.362Z"/>
          <path class="cls-11" d="M127.48962,157.32685c-.5361-.3575-1.06979-.6802-1.60979-1.0567-37.27441-26.0908-112.231-67.0893-124.2417-61.7065-12.0113,5.3847,45.9697,98.9795,45.9697,98.9795s-55.4956,78.6914-46.3843,96.4985c8.0191,15.6675,73.43609-33.1069,123.7373-45.3223-9.65481-7.0034-20.97171-19.9355-20.97171-42.2275C103.98912,176.99085,117.90372,163.57245,127.48962,157.32685Z"/>
          <path d="M649.35983,187.33215a17.80911,17.80911,0,1,0-17.80862,17.8091A17.81016,17.81016,0,0,0,649.35983,187.33215Z"/>
          <path class="cls-12" d="M643.29331,184.11685a5.769,5.769,0,1,0-5.77048,5.77A5.77213,5.77213,0,0,0,643.29331,184.11685Z"/>
          <path class="cls-13" d="M623.892,266.78975a6.3609,6.3609,0,0,1-4.4981-10.858l19.67-19.6728a6.36347,6.36347,0,0,1,4.498-1.8633h46.6357a6.3606,6.3606,0,0,1,0,12.7212h-44.0009l-17.8096,17.8091A6.33724,6.33724,0,0,1,623.892,266.78975Z"/>
          <line class="cls-9" x1="510.91641" y1="221.64815" x2="555.47891" y2="282.10465"/>
          <line class="cls-9" x1="627.11561" y1="236.11295" x2="605.37441" y2="257.85365"/>
        </g>
        <line class="cls-3" x1="494.35983" y1="226.19795" x2="323.76502" y2="226.19795"/>
        <line class="cls-3" x1="489.67911" y1="231.02745" x2="338.71822" y2="231.02745"/>
        <line class="cls-3" x1="486.73911" y1="236.63155" x2="353.67132" y2="236.63155"/>
        <line class="cls-3" x1="485.57661" y1="241.41565" x2="377.65472" y2="241.41565"/>
        <line class="cls-3" x1="485.42621" y1="245.74385" x2="389.80362" y2="245.74385"/>
        <line class="cls-3" x1="485.97301" y1="249.51185" x2="397.59222" y2="249.51185"/>
        <line class="cls-3" x1="487.49211" y1="253.91515" x2="416.28161" y2="253.91515"/>
        <line class="cls-3" x1="490.19761" y1="258.33995" x2="431.23483" y2="258.33995"/>
        <line class="cls-3" x1="494.90421" y1="262.83165" x2="450.85831" y2="262.83165"/>
        <line class="cls-3" x1="499.78941" y1="265.51335" x2="457.08883" y2="265.51335"/>
        <line class="cls-14" x1="119.42962" y1="163.77655" x2="23.95013" y2="117.25605"/>
        <line class="cls-14" x1="110.98672" y1="174.60855" x2="31.22013" y2="143.43035"/>
        <line class="cls-14" x1="106.66742" y1="184.42695" x2="38.00622" y2="163.30535"/>
        <line class="cls-14" x1="104.68402" y1="192.99425" x2="54.00183" y2="187.05675"/>
        <line class="cls-14" x1="103.98912" y1="202.49185" x2="53.51752" y2="201.59875"/>
        <line class="cls-14" x1="104.37832" y1="209.41325" x2="43.33783" y2="219.53235"/>
        <line class="cls-14" x1="106.49062" y1="219.47865" x2="29.76653" y2="240.86055"/>
        <line class="cls-14" x1="111.03312" y1="229.62805" x2="18.13323" y2="268.48995"/>
        <path class="cls-15" d="M367.62152,109.98555a10.66385,10.66385,0,1,1-10.666-10.6636A10.66438,10.66438,0,0,1,367.62152,109.98555Z"/>
        <path class="cls-15" d="M497.52771,102.47035A10.42185,10.42185,0,1,1,487.10491,92.05,10.422,10.422,0,0,1,497.52771,102.47035Z"/>
        <path class="cls-15" d="M592.53461,137.61535a9.69535,9.69535,0,1,1-9.6954-9.6958A9.69616,9.69616,0,0,1,592.53461,137.61535Z"/>
        <path class="cls-15" d="M592.53461,117.01235a4.6055,4.6055,0,1,1-4.6055-4.6055A4.60541,4.60541,0,0,1,592.53461,117.01235Z"/>
        <path class="cls-15" d="M518.37151,119.43575a7.02905,7.02905,0,1,1-7.0293-7.0289A7.02841,7.02841,0,0,1,518.37151,119.43575Z"/>
        <path class="cls-15" d="M501.89,80.41515a3.87815,3.87815,0,1,1-3.8779-3.8784A3.87684,3.87684,0,0,1,501.89,80.41515Z"/>
        <path class="cls-15" d="M401.06583,110.22675a8.48146,8.48146,0,1,1-8.48141-8.4839A8.48153,8.48153,0,0,1,401.06583,110.22675Z"/>
        <path class="cls-15" d="M313.33142,132.28235a3.39305,3.39305,0,1,1-3.3921-3.3945A3.39174,3.39174,0,0,1,313.33142,132.28235Z"/>
        <path class="cls-15" d="M469.90083,129.61535a5.08986,5.08986,0,1,1-5.09232-5.0898A5.09232,5.09232,0,0,1,469.90083,129.61535Z"/>
        <path class="cls-15" d="M588.17031,167.18135a3.3921,3.3921,0,1,1-3.3916-3.3916A3.39342,3.39342,0,0,1,588.17031,167.18135Z"/>
        <g>
          <path class="cls-5" d="M689.94083,238.27165s-11.94822-38.2783-44.15722-78.853c-.6074.0454-1.21.0922-1.8252.0922a23.66935,23.66935,0,0,1-23.4414-27.7412,243.32237,243.32237,0,0,0-42.918-32.6328,30.99164,30.99164,0,0,1-56.813-24.5625,239.14852,239.14852,0,0,0-50.9028-8.6543,37.55518,37.55518,0,1,1-74.148,8.4366c0-1.0435.0733-2.0679.1568-3.0879a423.84794,423.84794,0,0,0-59.89019,16.6357c.05619.7319.11229,1.4614.11229,2.2061a28.594,28.594,0,0,1-50.5756,18.2934c-.4844.2193-.9732.4326-1.4551.6543-20.7857,9.4824-38.3902,18.478-53.6875,26.4175,19.2056-2.0205,45.6557-1.044,66.94291,13.7588,38.10149,26.5019,45.13909.4199,80.34179-12.8355,35.205-13.2549,59.63621,33.1304,99.395,15.3213,39.7593-17.8091,67.5049-27.3301,79.1006,18.2222,11.5957,45.5547,62.9482,7.4507,75.373,22.3608,12.4238,14.9126,34.7891,48.0425,34.7891,48.0425l23.7363-1.0928C690.03551,238.926,689.99451,238.59875,689.94083,238.27165Z"/>
          <path class="cls-15" d="M307.516,118.71065a28.59935,28.59935,0,0,0,28.5981-28.6001c0-.7447-.0561-1.4742-.11229-2.2061-17.03851,6.0239-33.88331,12.9756-50.46331,20.4995A28.53721,28.53721,0,0,0,307.516,118.71065Z"/>
          <path class="cls-15" d="M433.30121,111.92255a37.46432,37.46432,0,0,0,36.582-46.0025c-24.7451-1.5385-49.4756.5645-73.99119,5.3487-.0835,1.02-.1568,2.0444-.1568,3.0879A37.56473,37.56473,0,0,0,433.30121,111.92255Z"/>
          <path class="cls-15" d="M549.87931,116.28725a30.99726,30.99726,0,0,0,27.7197-17.1504q-5.77875-3.4446-11.9014-6.6435a239.593,239.593,0,0,0-44.9116-17.919,30.95333,30.95333,0,0,0,29.0933,41.7129Z"/>
          <path class="cls-15" d="M643.95841,159.51085c.6152,0,1.2178-.0468,1.8252-.0922a267.41076,267.41076,0,0,0-25.2666-27.649,23.66935,23.66935,0,0,0,23.4414,27.7412Z"/>
        </g>
      </g>
    </g>
  </g>
</svg>
